G04 #@! TF.GenerationSoftware,KiCad,Pcbnew,(5.0.2)-1*
G04 #@! TF.CreationDate,2019-09-03T00:43:36+08:00*
G04 #@! TF.ProjectId,actuator,61637475-6174-46f7-922e-6b696361645f,rev?*
G04 #@! TF.SameCoordinates,Original*
G04 #@! TF.FileFunction,Paste,Top*
G04 #@! TF.FilePolarity,Positive*
%FSLAX46Y46*%
G04 Gerber Fmt 4.6, Leading zero omitted, Abs format (unit mm)*
G04 Created by KiCad (PCBNEW (5.0.2)-1) date 9/3/2019 12:43:36 AM*
%MOMM*%
%LPD*%
G01*
G04 APERTURE LIST*
%ADD10C,0.100000*%
%ADD11C,0.250000*%
%ADD12C,0.342366*%
%ADD13C,0.371482*%
%ADD14C,0.806226*%
%ADD15C,0.875000*%
%ADD16R,1.100000X1.100000*%
%ADD17C,0.950000*%
%ADD18R,0.750000X0.950000*%
%ADD19R,4.560000X4.055000*%
%ADD20R,0.990000X0.905000*%
%ADD21R,0.750000X1.000000*%
%ADD22C,1.600000*%
%ADD23C,1.250000*%
%ADD24C,0.590000*%
%ADD25C,1.350000*%
G04 APERTURE END LIST*
D10*
G04 #@! TO.C,U1*
G36*
X133843950Y-67072836D02*
X133850017Y-67073736D01*
X133855967Y-67075226D01*
X133861742Y-67077293D01*
X133867286Y-67079915D01*
X133872547Y-67083068D01*
X133877474Y-67086722D01*
X133882018Y-67090841D01*
X133886137Y-67095385D01*
X133889791Y-67100312D01*
X133892944Y-67105573D01*
X133895566Y-67111117D01*
X133897633Y-67116892D01*
X133899123Y-67122842D01*
X133900023Y-67128909D01*
X133900324Y-67135035D01*
X133900324Y-67785035D01*
X133900023Y-67791161D01*
X133899123Y-67797228D01*
X133897633Y-67803178D01*
X133895566Y-67808953D01*
X133892944Y-67814497D01*
X133889791Y-67819758D01*
X133886137Y-67824685D01*
X133882018Y-67829229D01*
X133877474Y-67833348D01*
X133872547Y-67837002D01*
X133867286Y-67840155D01*
X133861742Y-67842777D01*
X133855967Y-67844844D01*
X133850017Y-67846334D01*
X133843950Y-67847234D01*
X133837824Y-67847535D01*
X133712824Y-67847535D01*
X133706698Y-67847234D01*
X133700631Y-67846334D01*
X133694681Y-67844844D01*
X133688906Y-67842777D01*
X133683362Y-67840155D01*
X133678101Y-67837002D01*
X133673174Y-67833348D01*
X133668630Y-67829229D01*
X133664511Y-67824685D01*
X133660857Y-67819758D01*
X133657704Y-67814497D01*
X133655082Y-67808953D01*
X133653015Y-67803178D01*
X133651525Y-67797228D01*
X133650625Y-67791161D01*
X133650324Y-67785035D01*
X133650324Y-67135035D01*
X133650625Y-67128909D01*
X133651525Y-67122842D01*
X133653015Y-67116892D01*
X133655082Y-67111117D01*
X133657704Y-67105573D01*
X133660857Y-67100312D01*
X133664511Y-67095385D01*
X133668630Y-67090841D01*
X133673174Y-67086722D01*
X133678101Y-67083068D01*
X133683362Y-67079915D01*
X133688906Y-67077293D01*
X133694681Y-67075226D01*
X133700631Y-67073736D01*
X133706698Y-67072836D01*
X133712824Y-67072535D01*
X133837824Y-67072535D01*
X133843950Y-67072836D01*
X133843950Y-67072836D01*
G37*
D11*
X133775324Y-67460035D03*
D10*
G36*
X134343950Y-67072836D02*
X134350017Y-67073736D01*
X134355967Y-67075226D01*
X134361742Y-67077293D01*
X134367286Y-67079915D01*
X134372547Y-67083068D01*
X134377474Y-67086722D01*
X134382018Y-67090841D01*
X134386137Y-67095385D01*
X134389791Y-67100312D01*
X134392944Y-67105573D01*
X134395566Y-67111117D01*
X134397633Y-67116892D01*
X134399123Y-67122842D01*
X134400023Y-67128909D01*
X134400324Y-67135035D01*
X134400324Y-67785035D01*
X134400023Y-67791161D01*
X134399123Y-67797228D01*
X134397633Y-67803178D01*
X134395566Y-67808953D01*
X134392944Y-67814497D01*
X134389791Y-67819758D01*
X134386137Y-67824685D01*
X134382018Y-67829229D01*
X134377474Y-67833348D01*
X134372547Y-67837002D01*
X134367286Y-67840155D01*
X134361742Y-67842777D01*
X134355967Y-67844844D01*
X134350017Y-67846334D01*
X134343950Y-67847234D01*
X134337824Y-67847535D01*
X134212824Y-67847535D01*
X134206698Y-67847234D01*
X134200631Y-67846334D01*
X134194681Y-67844844D01*
X134188906Y-67842777D01*
X134183362Y-67840155D01*
X134178101Y-67837002D01*
X134173174Y-67833348D01*
X134168630Y-67829229D01*
X134164511Y-67824685D01*
X134160857Y-67819758D01*
X134157704Y-67814497D01*
X134155082Y-67808953D01*
X134153015Y-67803178D01*
X134151525Y-67797228D01*
X134150625Y-67791161D01*
X134150324Y-67785035D01*
X134150324Y-67135035D01*
X134150625Y-67128909D01*
X134151525Y-67122842D01*
X134153015Y-67116892D01*
X134155082Y-67111117D01*
X134157704Y-67105573D01*
X134160857Y-67100312D01*
X134164511Y-67095385D01*
X134168630Y-67090841D01*
X134173174Y-67086722D01*
X134178101Y-67083068D01*
X134183362Y-67079915D01*
X134188906Y-67077293D01*
X134194681Y-67075226D01*
X134200631Y-67073736D01*
X134206698Y-67072836D01*
X134212824Y-67072535D01*
X134337824Y-67072535D01*
X134343950Y-67072836D01*
X134343950Y-67072836D01*
G37*
D11*
X134275324Y-67460035D03*
D10*
G36*
X134843950Y-67072836D02*
X134850017Y-67073736D01*
X134855967Y-67075226D01*
X134861742Y-67077293D01*
X134867286Y-67079915D01*
X134872547Y-67083068D01*
X134877474Y-67086722D01*
X134882018Y-67090841D01*
X134886137Y-67095385D01*
X134889791Y-67100312D01*
X134892944Y-67105573D01*
X134895566Y-67111117D01*
X134897633Y-67116892D01*
X134899123Y-67122842D01*
X134900023Y-67128909D01*
X134900324Y-67135035D01*
X134900324Y-67785035D01*
X134900023Y-67791161D01*
X134899123Y-67797228D01*
X134897633Y-67803178D01*
X134895566Y-67808953D01*
X134892944Y-67814497D01*
X134889791Y-67819758D01*
X134886137Y-67824685D01*
X134882018Y-67829229D01*
X134877474Y-67833348D01*
X134872547Y-67837002D01*
X134867286Y-67840155D01*
X134861742Y-67842777D01*
X134855967Y-67844844D01*
X134850017Y-67846334D01*
X134843950Y-67847234D01*
X134837824Y-67847535D01*
X134712824Y-67847535D01*
X134706698Y-67847234D01*
X134700631Y-67846334D01*
X134694681Y-67844844D01*
X134688906Y-67842777D01*
X134683362Y-67840155D01*
X134678101Y-67837002D01*
X134673174Y-67833348D01*
X134668630Y-67829229D01*
X134664511Y-67824685D01*
X134660857Y-67819758D01*
X134657704Y-67814497D01*
X134655082Y-67808953D01*
X134653015Y-67803178D01*
X134651525Y-67797228D01*
X134650625Y-67791161D01*
X134650324Y-67785035D01*
X134650324Y-67135035D01*
X134650625Y-67128909D01*
X134651525Y-67122842D01*
X134653015Y-67116892D01*
X134655082Y-67111117D01*
X134657704Y-67105573D01*
X134660857Y-67100312D01*
X134664511Y-67095385D01*
X134668630Y-67090841D01*
X134673174Y-67086722D01*
X134678101Y-67083068D01*
X134683362Y-67079915D01*
X134688906Y-67077293D01*
X134694681Y-67075226D01*
X134700631Y-67073736D01*
X134706698Y-67072836D01*
X134712824Y-67072535D01*
X134837824Y-67072535D01*
X134843950Y-67072836D01*
X134843950Y-67072836D01*
G37*
D11*
X134775324Y-67460035D03*
D10*
G36*
X135343950Y-67072837D02*
X135350017Y-67073737D01*
X135355967Y-67075227D01*
X135361742Y-67077294D01*
X135367286Y-67079916D01*
X135372547Y-67083069D01*
X135377474Y-67086723D01*
X135382018Y-67090842D01*
X135386137Y-67095386D01*
X135389791Y-67100313D01*
X135392944Y-67105574D01*
X135395566Y-67111118D01*
X135397633Y-67116893D01*
X135399123Y-67122843D01*
X135400023Y-67128910D01*
X135400324Y-67135036D01*
X135400324Y-67785036D01*
X135400023Y-67791162D01*
X135399123Y-67797229D01*
X135397633Y-67803179D01*
X135395566Y-67808954D01*
X135392944Y-67814498D01*
X135389791Y-67819759D01*
X135386137Y-67824686D01*
X135382018Y-67829230D01*
X135377474Y-67833349D01*
X135372547Y-67837003D01*
X135367286Y-67840156D01*
X135361742Y-67842778D01*
X135355967Y-67844845D01*
X135350017Y-67846335D01*
X135343950Y-67847235D01*
X135337824Y-67847536D01*
X135212824Y-67847536D01*
X135206698Y-67847235D01*
X135200631Y-67846335D01*
X135194681Y-67844845D01*
X135188906Y-67842778D01*
X135183362Y-67840156D01*
X135178101Y-67837003D01*
X135173174Y-67833349D01*
X135168630Y-67829230D01*
X135164511Y-67824686D01*
X135160857Y-67819759D01*
X135157704Y-67814498D01*
X135155082Y-67808954D01*
X135153015Y-67803179D01*
X135151525Y-67797229D01*
X135150625Y-67791162D01*
X135150324Y-67785036D01*
X135150324Y-67135036D01*
X135150625Y-67128910D01*
X135151525Y-67122843D01*
X135153015Y-67116893D01*
X135155082Y-67111118D01*
X135157704Y-67105574D01*
X135160857Y-67100313D01*
X135164511Y-67095386D01*
X135168630Y-67090842D01*
X135173174Y-67086723D01*
X135178101Y-67083069D01*
X135183362Y-67079916D01*
X135188906Y-67077294D01*
X135194681Y-67075227D01*
X135200631Y-67073737D01*
X135206698Y-67072837D01*
X135212824Y-67072536D01*
X135337824Y-67072536D01*
X135343950Y-67072837D01*
X135343950Y-67072837D01*
G37*
D11*
X135275324Y-67460036D03*
D10*
G36*
X135843950Y-67072836D02*
X135850017Y-67073736D01*
X135855967Y-67075226D01*
X135861742Y-67077293D01*
X135867286Y-67079915D01*
X135872547Y-67083068D01*
X135877474Y-67086722D01*
X135882018Y-67090841D01*
X135886137Y-67095385D01*
X135889791Y-67100312D01*
X135892944Y-67105573D01*
X135895566Y-67111117D01*
X135897633Y-67116892D01*
X135899123Y-67122842D01*
X135900023Y-67128909D01*
X135900324Y-67135035D01*
X135900324Y-67785035D01*
X135900023Y-67791161D01*
X135899123Y-67797228D01*
X135897633Y-67803178D01*
X135895566Y-67808953D01*
X135892944Y-67814497D01*
X135889791Y-67819758D01*
X135886137Y-67824685D01*
X135882018Y-67829229D01*
X135877474Y-67833348D01*
X135872547Y-67837002D01*
X135867286Y-67840155D01*
X135861742Y-67842777D01*
X135855967Y-67844844D01*
X135850017Y-67846334D01*
X135843950Y-67847234D01*
X135837824Y-67847535D01*
X135712824Y-67847535D01*
X135706698Y-67847234D01*
X135700631Y-67846334D01*
X135694681Y-67844844D01*
X135688906Y-67842777D01*
X135683362Y-67840155D01*
X135678101Y-67837002D01*
X135673174Y-67833348D01*
X135668630Y-67829229D01*
X135664511Y-67824685D01*
X135660857Y-67819758D01*
X135657704Y-67814497D01*
X135655082Y-67808953D01*
X135653015Y-67803178D01*
X135651525Y-67797228D01*
X135650625Y-67791161D01*
X135650324Y-67785035D01*
X135650324Y-67135035D01*
X135650625Y-67128909D01*
X135651525Y-67122842D01*
X135653015Y-67116892D01*
X135655082Y-67111117D01*
X135657704Y-67105573D01*
X135660857Y-67100312D01*
X135664511Y-67095385D01*
X135668630Y-67090841D01*
X135673174Y-67086722D01*
X135678101Y-67083068D01*
X135683362Y-67079915D01*
X135688906Y-67077293D01*
X135694681Y-67075226D01*
X135700631Y-67073736D01*
X135706698Y-67072836D01*
X135712824Y-67072535D01*
X135837824Y-67072535D01*
X135843950Y-67072836D01*
X135843950Y-67072836D01*
G37*
D11*
X135775324Y-67460035D03*
D10*
G36*
X136343950Y-67072836D02*
X136350017Y-67073736D01*
X136355967Y-67075226D01*
X136361742Y-67077293D01*
X136367286Y-67079915D01*
X136372547Y-67083068D01*
X136377474Y-67086722D01*
X136382018Y-67090841D01*
X136386137Y-67095385D01*
X136389791Y-67100312D01*
X136392944Y-67105573D01*
X136395566Y-67111117D01*
X136397633Y-67116892D01*
X136399123Y-67122842D01*
X136400023Y-67128909D01*
X136400324Y-67135035D01*
X136400324Y-67785035D01*
X136400023Y-67791161D01*
X136399123Y-67797228D01*
X136397633Y-67803178D01*
X136395566Y-67808953D01*
X136392944Y-67814497D01*
X136389791Y-67819758D01*
X136386137Y-67824685D01*
X136382018Y-67829229D01*
X136377474Y-67833348D01*
X136372547Y-67837002D01*
X136367286Y-67840155D01*
X136361742Y-67842777D01*
X136355967Y-67844844D01*
X136350017Y-67846334D01*
X136343950Y-67847234D01*
X136337824Y-67847535D01*
X136212824Y-67847535D01*
X136206698Y-67847234D01*
X136200631Y-67846334D01*
X136194681Y-67844844D01*
X136188906Y-67842777D01*
X136183362Y-67840155D01*
X136178101Y-67837002D01*
X136173174Y-67833348D01*
X136168630Y-67829229D01*
X136164511Y-67824685D01*
X136160857Y-67819758D01*
X136157704Y-67814497D01*
X136155082Y-67808953D01*
X136153015Y-67803178D01*
X136151525Y-67797228D01*
X136150625Y-67791161D01*
X136150324Y-67785035D01*
X136150324Y-67135035D01*
X136150625Y-67128909D01*
X136151525Y-67122842D01*
X136153015Y-67116892D01*
X136155082Y-67111117D01*
X136157704Y-67105573D01*
X136160857Y-67100312D01*
X136164511Y-67095385D01*
X136168630Y-67090841D01*
X136173174Y-67086722D01*
X136178101Y-67083068D01*
X136183362Y-67079915D01*
X136188906Y-67077293D01*
X136194681Y-67075226D01*
X136200631Y-67073736D01*
X136206698Y-67072836D01*
X136212824Y-67072535D01*
X136337824Y-67072535D01*
X136343950Y-67072836D01*
X136343950Y-67072836D01*
G37*
D11*
X136275324Y-67460035D03*
D10*
G36*
X136843950Y-67072836D02*
X136850017Y-67073736D01*
X136855967Y-67075226D01*
X136861742Y-67077293D01*
X136867286Y-67079915D01*
X136872547Y-67083068D01*
X136877474Y-67086722D01*
X136882018Y-67090841D01*
X136886137Y-67095385D01*
X136889791Y-67100312D01*
X136892944Y-67105573D01*
X136895566Y-67111117D01*
X136897633Y-67116892D01*
X136899123Y-67122842D01*
X136900023Y-67128909D01*
X136900324Y-67135035D01*
X136900324Y-67785035D01*
X136900023Y-67791161D01*
X136899123Y-67797228D01*
X136897633Y-67803178D01*
X136895566Y-67808953D01*
X136892944Y-67814497D01*
X136889791Y-67819758D01*
X136886137Y-67824685D01*
X136882018Y-67829229D01*
X136877474Y-67833348D01*
X136872547Y-67837002D01*
X136867286Y-67840155D01*
X136861742Y-67842777D01*
X136855967Y-67844844D01*
X136850017Y-67846334D01*
X136843950Y-67847234D01*
X136837824Y-67847535D01*
X136712824Y-67847535D01*
X136706698Y-67847234D01*
X136700631Y-67846334D01*
X136694681Y-67844844D01*
X136688906Y-67842777D01*
X136683362Y-67840155D01*
X136678101Y-67837002D01*
X136673174Y-67833348D01*
X136668630Y-67829229D01*
X136664511Y-67824685D01*
X136660857Y-67819758D01*
X136657704Y-67814497D01*
X136655082Y-67808953D01*
X136653015Y-67803178D01*
X136651525Y-67797228D01*
X136650625Y-67791161D01*
X136650324Y-67785035D01*
X136650324Y-67135035D01*
X136650625Y-67128909D01*
X136651525Y-67122842D01*
X136653015Y-67116892D01*
X136655082Y-67111117D01*
X136657704Y-67105573D01*
X136660857Y-67100312D01*
X136664511Y-67095385D01*
X136668630Y-67090841D01*
X136673174Y-67086722D01*
X136678101Y-67083068D01*
X136683362Y-67079915D01*
X136688906Y-67077293D01*
X136694681Y-67075226D01*
X136700631Y-67073736D01*
X136706698Y-67072836D01*
X136712824Y-67072535D01*
X136837824Y-67072535D01*
X136843950Y-67072836D01*
X136843950Y-67072836D01*
G37*
D11*
X136775324Y-67460035D03*
D10*
G36*
X137343950Y-67072836D02*
X137350017Y-67073736D01*
X137355967Y-67075226D01*
X137361742Y-67077293D01*
X137367286Y-67079915D01*
X137372547Y-67083068D01*
X137377474Y-67086722D01*
X137382018Y-67090841D01*
X137386137Y-67095385D01*
X137389791Y-67100312D01*
X137392944Y-67105573D01*
X137395566Y-67111117D01*
X137397633Y-67116892D01*
X137399123Y-67122842D01*
X137400023Y-67128909D01*
X137400324Y-67135035D01*
X137400324Y-67785035D01*
X137400023Y-67791161D01*
X137399123Y-67797228D01*
X137397633Y-67803178D01*
X137395566Y-67808953D01*
X137392944Y-67814497D01*
X137389791Y-67819758D01*
X137386137Y-67824685D01*
X137382018Y-67829229D01*
X137377474Y-67833348D01*
X137372547Y-67837002D01*
X137367286Y-67840155D01*
X137361742Y-67842777D01*
X137355967Y-67844844D01*
X137350017Y-67846334D01*
X137343950Y-67847234D01*
X137337824Y-67847535D01*
X137212824Y-67847535D01*
X137206698Y-67847234D01*
X137200631Y-67846334D01*
X137194681Y-67844844D01*
X137188906Y-67842777D01*
X137183362Y-67840155D01*
X137178101Y-67837002D01*
X137173174Y-67833348D01*
X137168630Y-67829229D01*
X137164511Y-67824685D01*
X137160857Y-67819758D01*
X137157704Y-67814497D01*
X137155082Y-67808953D01*
X137153015Y-67803178D01*
X137151525Y-67797228D01*
X137150625Y-67791161D01*
X137150324Y-67785035D01*
X137150324Y-67135035D01*
X137150625Y-67128909D01*
X137151525Y-67122842D01*
X137153015Y-67116892D01*
X137155082Y-67111117D01*
X137157704Y-67105573D01*
X137160857Y-67100312D01*
X137164511Y-67095385D01*
X137168630Y-67090841D01*
X137173174Y-67086722D01*
X137178101Y-67083068D01*
X137183362Y-67079915D01*
X137188906Y-67077293D01*
X137194681Y-67075226D01*
X137200631Y-67073736D01*
X137206698Y-67072836D01*
X137212824Y-67072535D01*
X137337824Y-67072535D01*
X137343950Y-67072836D01*
X137343950Y-67072836D01*
G37*
D11*
X137275324Y-67460035D03*
D10*
G36*
X137843950Y-67072837D02*
X137850017Y-67073737D01*
X137855967Y-67075227D01*
X137861742Y-67077294D01*
X137867286Y-67079916D01*
X137872547Y-67083069D01*
X137877474Y-67086723D01*
X137882018Y-67090842D01*
X137886137Y-67095386D01*
X137889791Y-67100313D01*
X137892944Y-67105574D01*
X137895566Y-67111118D01*
X137897633Y-67116893D01*
X137899123Y-67122843D01*
X137900023Y-67128910D01*
X137900324Y-67135036D01*
X137900324Y-67785036D01*
X137900023Y-67791162D01*
X137899123Y-67797229D01*
X137897633Y-67803179D01*
X137895566Y-67808954D01*
X137892944Y-67814498D01*
X137889791Y-67819759D01*
X137886137Y-67824686D01*
X137882018Y-67829230D01*
X137877474Y-67833349D01*
X137872547Y-67837003D01*
X137867286Y-67840156D01*
X137861742Y-67842778D01*
X137855967Y-67844845D01*
X137850017Y-67846335D01*
X137843950Y-67847235D01*
X137837824Y-67847536D01*
X137712824Y-67847536D01*
X137706698Y-67847235D01*
X137700631Y-67846335D01*
X137694681Y-67844845D01*
X137688906Y-67842778D01*
X137683362Y-67840156D01*
X137678101Y-67837003D01*
X137673174Y-67833349D01*
X137668630Y-67829230D01*
X137664511Y-67824686D01*
X137660857Y-67819759D01*
X137657704Y-67814498D01*
X137655082Y-67808954D01*
X137653015Y-67803179D01*
X137651525Y-67797229D01*
X137650625Y-67791162D01*
X137650324Y-67785036D01*
X137650324Y-67135036D01*
X137650625Y-67128910D01*
X137651525Y-67122843D01*
X137653015Y-67116893D01*
X137655082Y-67111118D01*
X137657704Y-67105574D01*
X137660857Y-67100313D01*
X137664511Y-67095386D01*
X137668630Y-67090842D01*
X137673174Y-67086723D01*
X137678101Y-67083069D01*
X137683362Y-67079916D01*
X137688906Y-67077294D01*
X137694681Y-67075227D01*
X137700631Y-67073737D01*
X137706698Y-67072837D01*
X137712824Y-67072536D01*
X137837824Y-67072536D01*
X137843950Y-67072837D01*
X137843950Y-67072837D01*
G37*
D11*
X137775324Y-67460036D03*
D10*
G36*
X138343950Y-67072836D02*
X138350017Y-67073736D01*
X138355967Y-67075226D01*
X138361742Y-67077293D01*
X138367286Y-67079915D01*
X138372547Y-67083068D01*
X138377474Y-67086722D01*
X138382018Y-67090841D01*
X138386137Y-67095385D01*
X138389791Y-67100312D01*
X138392944Y-67105573D01*
X138395566Y-67111117D01*
X138397633Y-67116892D01*
X138399123Y-67122842D01*
X138400023Y-67128909D01*
X138400324Y-67135035D01*
X138400324Y-67785035D01*
X138400023Y-67791161D01*
X138399123Y-67797228D01*
X138397633Y-67803178D01*
X138395566Y-67808953D01*
X138392944Y-67814497D01*
X138389791Y-67819758D01*
X138386137Y-67824685D01*
X138382018Y-67829229D01*
X138377474Y-67833348D01*
X138372547Y-67837002D01*
X138367286Y-67840155D01*
X138361742Y-67842777D01*
X138355967Y-67844844D01*
X138350017Y-67846334D01*
X138343950Y-67847234D01*
X138337824Y-67847535D01*
X138212824Y-67847535D01*
X138206698Y-67847234D01*
X138200631Y-67846334D01*
X138194681Y-67844844D01*
X138188906Y-67842777D01*
X138183362Y-67840155D01*
X138178101Y-67837002D01*
X138173174Y-67833348D01*
X138168630Y-67829229D01*
X138164511Y-67824685D01*
X138160857Y-67819758D01*
X138157704Y-67814497D01*
X138155082Y-67808953D01*
X138153015Y-67803178D01*
X138151525Y-67797228D01*
X138150625Y-67791161D01*
X138150324Y-67785035D01*
X138150324Y-67135035D01*
X138150625Y-67128909D01*
X138151525Y-67122842D01*
X138153015Y-67116892D01*
X138155082Y-67111117D01*
X138157704Y-67105573D01*
X138160857Y-67100312D01*
X138164511Y-67095385D01*
X138168630Y-67090841D01*
X138173174Y-67086722D01*
X138178101Y-67083068D01*
X138183362Y-67079915D01*
X138188906Y-67077293D01*
X138194681Y-67075226D01*
X138200631Y-67073736D01*
X138206698Y-67072836D01*
X138212824Y-67072535D01*
X138337824Y-67072535D01*
X138343950Y-67072836D01*
X138343950Y-67072836D01*
G37*
D11*
X138275324Y-67460035D03*
D10*
G36*
X138843950Y-67072836D02*
X138850017Y-67073736D01*
X138855967Y-67075226D01*
X138861742Y-67077293D01*
X138867286Y-67079915D01*
X138872547Y-67083068D01*
X138877474Y-67086722D01*
X138882018Y-67090841D01*
X138886137Y-67095385D01*
X138889791Y-67100312D01*
X138892944Y-67105573D01*
X138895566Y-67111117D01*
X138897633Y-67116892D01*
X138899123Y-67122842D01*
X138900023Y-67128909D01*
X138900324Y-67135035D01*
X138900324Y-67785035D01*
X138900023Y-67791161D01*
X138899123Y-67797228D01*
X138897633Y-67803178D01*
X138895566Y-67808953D01*
X138892944Y-67814497D01*
X138889791Y-67819758D01*
X138886137Y-67824685D01*
X138882018Y-67829229D01*
X138877474Y-67833348D01*
X138872547Y-67837002D01*
X138867286Y-67840155D01*
X138861742Y-67842777D01*
X138855967Y-67844844D01*
X138850017Y-67846334D01*
X138843950Y-67847234D01*
X138837824Y-67847535D01*
X138712824Y-67847535D01*
X138706698Y-67847234D01*
X138700631Y-67846334D01*
X138694681Y-67844844D01*
X138688906Y-67842777D01*
X138683362Y-67840155D01*
X138678101Y-67837002D01*
X138673174Y-67833348D01*
X138668630Y-67829229D01*
X138664511Y-67824685D01*
X138660857Y-67819758D01*
X138657704Y-67814497D01*
X138655082Y-67808953D01*
X138653015Y-67803178D01*
X138651525Y-67797228D01*
X138650625Y-67791161D01*
X138650324Y-67785035D01*
X138650324Y-67135035D01*
X138650625Y-67128909D01*
X138651525Y-67122842D01*
X138653015Y-67116892D01*
X138655082Y-67111117D01*
X138657704Y-67105573D01*
X138660857Y-67100312D01*
X138664511Y-67095385D01*
X138668630Y-67090841D01*
X138673174Y-67086722D01*
X138678101Y-67083068D01*
X138683362Y-67079915D01*
X138688906Y-67077293D01*
X138694681Y-67075226D01*
X138700631Y-67073736D01*
X138706698Y-67072836D01*
X138712824Y-67072535D01*
X138837824Y-67072535D01*
X138843950Y-67072836D01*
X138843950Y-67072836D01*
G37*
D11*
X138775324Y-67460035D03*
D10*
G36*
X139343950Y-67072836D02*
X139350017Y-67073736D01*
X139355967Y-67075226D01*
X139361742Y-67077293D01*
X139367286Y-67079915D01*
X139372547Y-67083068D01*
X139377474Y-67086722D01*
X139382018Y-67090841D01*
X139386137Y-67095385D01*
X139389791Y-67100312D01*
X139392944Y-67105573D01*
X139395566Y-67111117D01*
X139397633Y-67116892D01*
X139399123Y-67122842D01*
X139400023Y-67128909D01*
X139400324Y-67135035D01*
X139400324Y-67785035D01*
X139400023Y-67791161D01*
X139399123Y-67797228D01*
X139397633Y-67803178D01*
X139395566Y-67808953D01*
X139392944Y-67814497D01*
X139389791Y-67819758D01*
X139386137Y-67824685D01*
X139382018Y-67829229D01*
X139377474Y-67833348D01*
X139372547Y-67837002D01*
X139367286Y-67840155D01*
X139361742Y-67842777D01*
X139355967Y-67844844D01*
X139350017Y-67846334D01*
X139343950Y-67847234D01*
X139337824Y-67847535D01*
X139212824Y-67847535D01*
X139206698Y-67847234D01*
X139200631Y-67846334D01*
X139194681Y-67844844D01*
X139188906Y-67842777D01*
X139183362Y-67840155D01*
X139178101Y-67837002D01*
X139173174Y-67833348D01*
X139168630Y-67829229D01*
X139164511Y-67824685D01*
X139160857Y-67819758D01*
X139157704Y-67814497D01*
X139155082Y-67808953D01*
X139153015Y-67803178D01*
X139151525Y-67797228D01*
X139150625Y-67791161D01*
X139150324Y-67785035D01*
X139150324Y-67135035D01*
X139150625Y-67128909D01*
X139151525Y-67122842D01*
X139153015Y-67116892D01*
X139155082Y-67111117D01*
X139157704Y-67105573D01*
X139160857Y-67100312D01*
X139164511Y-67095385D01*
X139168630Y-67090841D01*
X139173174Y-67086722D01*
X139178101Y-67083068D01*
X139183362Y-67079915D01*
X139188906Y-67077293D01*
X139194681Y-67075226D01*
X139200631Y-67073736D01*
X139206698Y-67072836D01*
X139212824Y-67072535D01*
X139337824Y-67072535D01*
X139343950Y-67072836D01*
X139343950Y-67072836D01*
G37*
D11*
X139275324Y-67460035D03*
D10*
G36*
X140343950Y-68072836D02*
X140350017Y-68073736D01*
X140355967Y-68075226D01*
X140361742Y-68077293D01*
X140367286Y-68079915D01*
X140372547Y-68083068D01*
X140377474Y-68086722D01*
X140382018Y-68090841D01*
X140386137Y-68095385D01*
X140389791Y-68100312D01*
X140392944Y-68105573D01*
X140395566Y-68111117D01*
X140397633Y-68116892D01*
X140399123Y-68122842D01*
X140400023Y-68128909D01*
X140400324Y-68135035D01*
X140400324Y-68260035D01*
X140400023Y-68266161D01*
X140399123Y-68272228D01*
X140397633Y-68278178D01*
X140395566Y-68283953D01*
X140392944Y-68289497D01*
X140389791Y-68294758D01*
X140386137Y-68299685D01*
X140382018Y-68304229D01*
X140377474Y-68308348D01*
X140372547Y-68312002D01*
X140367286Y-68315155D01*
X140361742Y-68317777D01*
X140355967Y-68319844D01*
X140350017Y-68321334D01*
X140343950Y-68322234D01*
X140337824Y-68322535D01*
X139687824Y-68322535D01*
X139681698Y-68322234D01*
X139675631Y-68321334D01*
X139669681Y-68319844D01*
X139663906Y-68317777D01*
X139658362Y-68315155D01*
X139653101Y-68312002D01*
X139648174Y-68308348D01*
X139643630Y-68304229D01*
X139639511Y-68299685D01*
X139635857Y-68294758D01*
X139632704Y-68289497D01*
X139630082Y-68283953D01*
X139628015Y-68278178D01*
X139626525Y-68272228D01*
X139625625Y-68266161D01*
X139625324Y-68260035D01*
X139625324Y-68135035D01*
X139625625Y-68128909D01*
X139626525Y-68122842D01*
X139628015Y-68116892D01*
X139630082Y-68111117D01*
X139632704Y-68105573D01*
X139635857Y-68100312D01*
X139639511Y-68095385D01*
X139643630Y-68090841D01*
X139648174Y-68086722D01*
X139653101Y-68083068D01*
X139658362Y-68079915D01*
X139663906Y-68077293D01*
X139669681Y-68075226D01*
X139675631Y-68073736D01*
X139681698Y-68072836D01*
X139687824Y-68072535D01*
X140337824Y-68072535D01*
X140343950Y-68072836D01*
X140343950Y-68072836D01*
G37*
D11*
X140012824Y-68197535D03*
D10*
G36*
X140343950Y-68572836D02*
X140350017Y-68573736D01*
X140355967Y-68575226D01*
X140361742Y-68577293D01*
X140367286Y-68579915D01*
X140372547Y-68583068D01*
X140377474Y-68586722D01*
X140382018Y-68590841D01*
X140386137Y-68595385D01*
X140389791Y-68600312D01*
X140392944Y-68605573D01*
X140395566Y-68611117D01*
X140397633Y-68616892D01*
X140399123Y-68622842D01*
X140400023Y-68628909D01*
X140400324Y-68635035D01*
X140400324Y-68760035D01*
X140400023Y-68766161D01*
X140399123Y-68772228D01*
X140397633Y-68778178D01*
X140395566Y-68783953D01*
X140392944Y-68789497D01*
X140389791Y-68794758D01*
X140386137Y-68799685D01*
X140382018Y-68804229D01*
X140377474Y-68808348D01*
X140372547Y-68812002D01*
X140367286Y-68815155D01*
X140361742Y-68817777D01*
X140355967Y-68819844D01*
X140350017Y-68821334D01*
X140343950Y-68822234D01*
X140337824Y-68822535D01*
X139687824Y-68822535D01*
X139681698Y-68822234D01*
X139675631Y-68821334D01*
X139669681Y-68819844D01*
X139663906Y-68817777D01*
X139658362Y-68815155D01*
X139653101Y-68812002D01*
X139648174Y-68808348D01*
X139643630Y-68804229D01*
X139639511Y-68799685D01*
X139635857Y-68794758D01*
X139632704Y-68789497D01*
X139630082Y-68783953D01*
X139628015Y-68778178D01*
X139626525Y-68772228D01*
X139625625Y-68766161D01*
X139625324Y-68760035D01*
X139625324Y-68635035D01*
X139625625Y-68628909D01*
X139626525Y-68622842D01*
X139628015Y-68616892D01*
X139630082Y-68611117D01*
X139632704Y-68605573D01*
X139635857Y-68600312D01*
X139639511Y-68595385D01*
X139643630Y-68590841D01*
X139648174Y-68586722D01*
X139653101Y-68583068D01*
X139658362Y-68579915D01*
X139663906Y-68577293D01*
X139669681Y-68575226D01*
X139675631Y-68573736D01*
X139681698Y-68572836D01*
X139687824Y-68572535D01*
X140337824Y-68572535D01*
X140343950Y-68572836D01*
X140343950Y-68572836D01*
G37*
D11*
X140012824Y-68697535D03*
D10*
G36*
X140343950Y-69072836D02*
X140350017Y-69073736D01*
X140355967Y-69075226D01*
X140361742Y-69077293D01*
X140367286Y-69079915D01*
X140372547Y-69083068D01*
X140377474Y-69086722D01*
X140382018Y-69090841D01*
X140386137Y-69095385D01*
X140389791Y-69100312D01*
X140392944Y-69105573D01*
X140395566Y-69111117D01*
X140397633Y-69116892D01*
X140399123Y-69122842D01*
X140400023Y-69128909D01*
X140400324Y-69135035D01*
X140400324Y-69260035D01*
X140400023Y-69266161D01*
X140399123Y-69272228D01*
X140397633Y-69278178D01*
X140395566Y-69283953D01*
X140392944Y-69289497D01*
X140389791Y-69294758D01*
X140386137Y-69299685D01*
X140382018Y-69304229D01*
X140377474Y-69308348D01*
X140372547Y-69312002D01*
X140367286Y-69315155D01*
X140361742Y-69317777D01*
X140355967Y-69319844D01*
X140350017Y-69321334D01*
X140343950Y-69322234D01*
X140337824Y-69322535D01*
X139687824Y-69322535D01*
X139681698Y-69322234D01*
X139675631Y-69321334D01*
X139669681Y-69319844D01*
X139663906Y-69317777D01*
X139658362Y-69315155D01*
X139653101Y-69312002D01*
X139648174Y-69308348D01*
X139643630Y-69304229D01*
X139639511Y-69299685D01*
X139635857Y-69294758D01*
X139632704Y-69289497D01*
X139630082Y-69283953D01*
X139628015Y-69278178D01*
X139626525Y-69272228D01*
X139625625Y-69266161D01*
X139625324Y-69260035D01*
X139625324Y-69135035D01*
X139625625Y-69128909D01*
X139626525Y-69122842D01*
X139628015Y-69116892D01*
X139630082Y-69111117D01*
X139632704Y-69105573D01*
X139635857Y-69100312D01*
X139639511Y-69095385D01*
X139643630Y-69090841D01*
X139648174Y-69086722D01*
X139653101Y-69083068D01*
X139658362Y-69079915D01*
X139663906Y-69077293D01*
X139669681Y-69075226D01*
X139675631Y-69073736D01*
X139681698Y-69072836D01*
X139687824Y-69072535D01*
X140337824Y-69072535D01*
X140343950Y-69072836D01*
X140343950Y-69072836D01*
G37*
D11*
X140012824Y-69197535D03*
D10*
G36*
X140343949Y-69572836D02*
X140350016Y-69573736D01*
X140355966Y-69575226D01*
X140361741Y-69577293D01*
X140367285Y-69579915D01*
X140372546Y-69583068D01*
X140377473Y-69586722D01*
X140382017Y-69590841D01*
X140386136Y-69595385D01*
X140389790Y-69600312D01*
X140392943Y-69605573D01*
X140395565Y-69611117D01*
X140397632Y-69616892D01*
X140399122Y-69622842D01*
X140400022Y-69628909D01*
X140400323Y-69635035D01*
X140400323Y-69760035D01*
X140400022Y-69766161D01*
X140399122Y-69772228D01*
X140397632Y-69778178D01*
X140395565Y-69783953D01*
X140392943Y-69789497D01*
X140389790Y-69794758D01*
X140386136Y-69799685D01*
X140382017Y-69804229D01*
X140377473Y-69808348D01*
X140372546Y-69812002D01*
X140367285Y-69815155D01*
X140361741Y-69817777D01*
X140355966Y-69819844D01*
X140350016Y-69821334D01*
X140343949Y-69822234D01*
X140337823Y-69822535D01*
X139687823Y-69822535D01*
X139681697Y-69822234D01*
X139675630Y-69821334D01*
X139669680Y-69819844D01*
X139663905Y-69817777D01*
X139658361Y-69815155D01*
X139653100Y-69812002D01*
X139648173Y-69808348D01*
X139643629Y-69804229D01*
X139639510Y-69799685D01*
X139635856Y-69794758D01*
X139632703Y-69789497D01*
X139630081Y-69783953D01*
X139628014Y-69778178D01*
X139626524Y-69772228D01*
X139625624Y-69766161D01*
X139625323Y-69760035D01*
X139625323Y-69635035D01*
X139625624Y-69628909D01*
X139626524Y-69622842D01*
X139628014Y-69616892D01*
X139630081Y-69611117D01*
X139632703Y-69605573D01*
X139635856Y-69600312D01*
X139639510Y-69595385D01*
X139643629Y-69590841D01*
X139648173Y-69586722D01*
X139653100Y-69583068D01*
X139658361Y-69579915D01*
X139663905Y-69577293D01*
X139669680Y-69575226D01*
X139675630Y-69573736D01*
X139681697Y-69572836D01*
X139687823Y-69572535D01*
X140337823Y-69572535D01*
X140343949Y-69572836D01*
X140343949Y-69572836D01*
G37*
D11*
X140012823Y-69697535D03*
D10*
G36*
X140343950Y-70072836D02*
X140350017Y-70073736D01*
X140355967Y-70075226D01*
X140361742Y-70077293D01*
X140367286Y-70079915D01*
X140372547Y-70083068D01*
X140377474Y-70086722D01*
X140382018Y-70090841D01*
X140386137Y-70095385D01*
X140389791Y-70100312D01*
X140392944Y-70105573D01*
X140395566Y-70111117D01*
X140397633Y-70116892D01*
X140399123Y-70122842D01*
X140400023Y-70128909D01*
X140400324Y-70135035D01*
X140400324Y-70260035D01*
X140400023Y-70266161D01*
X140399123Y-70272228D01*
X140397633Y-70278178D01*
X140395566Y-70283953D01*
X140392944Y-70289497D01*
X140389791Y-70294758D01*
X140386137Y-70299685D01*
X140382018Y-70304229D01*
X140377474Y-70308348D01*
X140372547Y-70312002D01*
X140367286Y-70315155D01*
X140361742Y-70317777D01*
X140355967Y-70319844D01*
X140350017Y-70321334D01*
X140343950Y-70322234D01*
X140337824Y-70322535D01*
X139687824Y-70322535D01*
X139681698Y-70322234D01*
X139675631Y-70321334D01*
X139669681Y-70319844D01*
X139663906Y-70317777D01*
X139658362Y-70315155D01*
X139653101Y-70312002D01*
X139648174Y-70308348D01*
X139643630Y-70304229D01*
X139639511Y-70299685D01*
X139635857Y-70294758D01*
X139632704Y-70289497D01*
X139630082Y-70283953D01*
X139628015Y-70278178D01*
X139626525Y-70272228D01*
X139625625Y-70266161D01*
X139625324Y-70260035D01*
X139625324Y-70135035D01*
X139625625Y-70128909D01*
X139626525Y-70122842D01*
X139628015Y-70116892D01*
X139630082Y-70111117D01*
X139632704Y-70105573D01*
X139635857Y-70100312D01*
X139639511Y-70095385D01*
X139643630Y-70090841D01*
X139648174Y-70086722D01*
X139653101Y-70083068D01*
X139658362Y-70079915D01*
X139663906Y-70077293D01*
X139669681Y-70075226D01*
X139675631Y-70073736D01*
X139681698Y-70072836D01*
X139687824Y-70072535D01*
X140337824Y-70072535D01*
X140343950Y-70072836D01*
X140343950Y-70072836D01*
G37*
D11*
X140012824Y-70197535D03*
D10*
G36*
X140343950Y-70572836D02*
X140350017Y-70573736D01*
X140355967Y-70575226D01*
X140361742Y-70577293D01*
X140367286Y-70579915D01*
X140372547Y-70583068D01*
X140377474Y-70586722D01*
X140382018Y-70590841D01*
X140386137Y-70595385D01*
X140389791Y-70600312D01*
X140392944Y-70605573D01*
X140395566Y-70611117D01*
X140397633Y-70616892D01*
X140399123Y-70622842D01*
X140400023Y-70628909D01*
X140400324Y-70635035D01*
X140400324Y-70760035D01*
X140400023Y-70766161D01*
X140399123Y-70772228D01*
X140397633Y-70778178D01*
X140395566Y-70783953D01*
X140392944Y-70789497D01*
X140389791Y-70794758D01*
X140386137Y-70799685D01*
X140382018Y-70804229D01*
X140377474Y-70808348D01*
X140372547Y-70812002D01*
X140367286Y-70815155D01*
X140361742Y-70817777D01*
X140355967Y-70819844D01*
X140350017Y-70821334D01*
X140343950Y-70822234D01*
X140337824Y-70822535D01*
X139687824Y-70822535D01*
X139681698Y-70822234D01*
X139675631Y-70821334D01*
X139669681Y-70819844D01*
X139663906Y-70817777D01*
X139658362Y-70815155D01*
X139653101Y-70812002D01*
X139648174Y-70808348D01*
X139643630Y-70804229D01*
X139639511Y-70799685D01*
X139635857Y-70794758D01*
X139632704Y-70789497D01*
X139630082Y-70783953D01*
X139628015Y-70778178D01*
X139626525Y-70772228D01*
X139625625Y-70766161D01*
X139625324Y-70760035D01*
X139625324Y-70635035D01*
X139625625Y-70628909D01*
X139626525Y-70622842D01*
X139628015Y-70616892D01*
X139630082Y-70611117D01*
X139632704Y-70605573D01*
X139635857Y-70600312D01*
X139639511Y-70595385D01*
X139643630Y-70590841D01*
X139648174Y-70586722D01*
X139653101Y-70583068D01*
X139658362Y-70579915D01*
X139663906Y-70577293D01*
X139669681Y-70575226D01*
X139675631Y-70573736D01*
X139681698Y-70572836D01*
X139687824Y-70572535D01*
X140337824Y-70572535D01*
X140343950Y-70572836D01*
X140343950Y-70572836D01*
G37*
D11*
X140012824Y-70697535D03*
D10*
G36*
X140343950Y-71072836D02*
X140350017Y-71073736D01*
X140355967Y-71075226D01*
X140361742Y-71077293D01*
X140367286Y-71079915D01*
X140372547Y-71083068D01*
X140377474Y-71086722D01*
X140382018Y-71090841D01*
X140386137Y-71095385D01*
X140389791Y-71100312D01*
X140392944Y-71105573D01*
X140395566Y-71111117D01*
X140397633Y-71116892D01*
X140399123Y-71122842D01*
X140400023Y-71128909D01*
X140400324Y-71135035D01*
X140400324Y-71260035D01*
X140400023Y-71266161D01*
X140399123Y-71272228D01*
X140397633Y-71278178D01*
X140395566Y-71283953D01*
X140392944Y-71289497D01*
X140389791Y-71294758D01*
X140386137Y-71299685D01*
X140382018Y-71304229D01*
X140377474Y-71308348D01*
X140372547Y-71312002D01*
X140367286Y-71315155D01*
X140361742Y-71317777D01*
X140355967Y-71319844D01*
X140350017Y-71321334D01*
X140343950Y-71322234D01*
X140337824Y-71322535D01*
X139687824Y-71322535D01*
X139681698Y-71322234D01*
X139675631Y-71321334D01*
X139669681Y-71319844D01*
X139663906Y-71317777D01*
X139658362Y-71315155D01*
X139653101Y-71312002D01*
X139648174Y-71308348D01*
X139643630Y-71304229D01*
X139639511Y-71299685D01*
X139635857Y-71294758D01*
X139632704Y-71289497D01*
X139630082Y-71283953D01*
X139628015Y-71278178D01*
X139626525Y-71272228D01*
X139625625Y-71266161D01*
X139625324Y-71260035D01*
X139625324Y-71135035D01*
X139625625Y-71128909D01*
X139626525Y-71122842D01*
X139628015Y-71116892D01*
X139630082Y-71111117D01*
X139632704Y-71105573D01*
X139635857Y-71100312D01*
X139639511Y-71095385D01*
X139643630Y-71090841D01*
X139648174Y-71086722D01*
X139653101Y-71083068D01*
X139658362Y-71079915D01*
X139663906Y-71077293D01*
X139669681Y-71075226D01*
X139675631Y-71073736D01*
X139681698Y-71072836D01*
X139687824Y-71072535D01*
X140337824Y-71072535D01*
X140343950Y-71072836D01*
X140343950Y-71072836D01*
G37*
D11*
X140012824Y-71197535D03*
D10*
G36*
X140343950Y-71572836D02*
X140350017Y-71573736D01*
X140355967Y-71575226D01*
X140361742Y-71577293D01*
X140367286Y-71579915D01*
X140372547Y-71583068D01*
X140377474Y-71586722D01*
X140382018Y-71590841D01*
X140386137Y-71595385D01*
X140389791Y-71600312D01*
X140392944Y-71605573D01*
X140395566Y-71611117D01*
X140397633Y-71616892D01*
X140399123Y-71622842D01*
X140400023Y-71628909D01*
X140400324Y-71635035D01*
X140400324Y-71760035D01*
X140400023Y-71766161D01*
X140399123Y-71772228D01*
X140397633Y-71778178D01*
X140395566Y-71783953D01*
X140392944Y-71789497D01*
X140389791Y-71794758D01*
X140386137Y-71799685D01*
X140382018Y-71804229D01*
X140377474Y-71808348D01*
X140372547Y-71812002D01*
X140367286Y-71815155D01*
X140361742Y-71817777D01*
X140355967Y-71819844D01*
X140350017Y-71821334D01*
X140343950Y-71822234D01*
X140337824Y-71822535D01*
X139687824Y-71822535D01*
X139681698Y-71822234D01*
X139675631Y-71821334D01*
X139669681Y-71819844D01*
X139663906Y-71817777D01*
X139658362Y-71815155D01*
X139653101Y-71812002D01*
X139648174Y-71808348D01*
X139643630Y-71804229D01*
X139639511Y-71799685D01*
X139635857Y-71794758D01*
X139632704Y-71789497D01*
X139630082Y-71783953D01*
X139628015Y-71778178D01*
X139626525Y-71772228D01*
X139625625Y-71766161D01*
X139625324Y-71760035D01*
X139625324Y-71635035D01*
X139625625Y-71628909D01*
X139626525Y-71622842D01*
X139628015Y-71616892D01*
X139630082Y-71611117D01*
X139632704Y-71605573D01*
X139635857Y-71600312D01*
X139639511Y-71595385D01*
X139643630Y-71590841D01*
X139648174Y-71586722D01*
X139653101Y-71583068D01*
X139658362Y-71579915D01*
X139663906Y-71577293D01*
X139669681Y-71575226D01*
X139675631Y-71573736D01*
X139681698Y-71572836D01*
X139687824Y-71572535D01*
X140337824Y-71572535D01*
X140343950Y-71572836D01*
X140343950Y-71572836D01*
G37*
D11*
X140012824Y-71697535D03*
D10*
G36*
X140343949Y-72072836D02*
X140350016Y-72073736D01*
X140355966Y-72075226D01*
X140361741Y-72077293D01*
X140367285Y-72079915D01*
X140372546Y-72083068D01*
X140377473Y-72086722D01*
X140382017Y-72090841D01*
X140386136Y-72095385D01*
X140389790Y-72100312D01*
X140392943Y-72105573D01*
X140395565Y-72111117D01*
X140397632Y-72116892D01*
X140399122Y-72122842D01*
X140400022Y-72128909D01*
X140400323Y-72135035D01*
X140400323Y-72260035D01*
X140400022Y-72266161D01*
X140399122Y-72272228D01*
X140397632Y-72278178D01*
X140395565Y-72283953D01*
X140392943Y-72289497D01*
X140389790Y-72294758D01*
X140386136Y-72299685D01*
X140382017Y-72304229D01*
X140377473Y-72308348D01*
X140372546Y-72312002D01*
X140367285Y-72315155D01*
X140361741Y-72317777D01*
X140355966Y-72319844D01*
X140350016Y-72321334D01*
X140343949Y-72322234D01*
X140337823Y-72322535D01*
X139687823Y-72322535D01*
X139681697Y-72322234D01*
X139675630Y-72321334D01*
X139669680Y-72319844D01*
X139663905Y-72317777D01*
X139658361Y-72315155D01*
X139653100Y-72312002D01*
X139648173Y-72308348D01*
X139643629Y-72304229D01*
X139639510Y-72299685D01*
X139635856Y-72294758D01*
X139632703Y-72289497D01*
X139630081Y-72283953D01*
X139628014Y-72278178D01*
X139626524Y-72272228D01*
X139625624Y-72266161D01*
X139625323Y-72260035D01*
X139625323Y-72135035D01*
X139625624Y-72128909D01*
X139626524Y-72122842D01*
X139628014Y-72116892D01*
X139630081Y-72111117D01*
X139632703Y-72105573D01*
X139635856Y-72100312D01*
X139639510Y-72095385D01*
X139643629Y-72090841D01*
X139648173Y-72086722D01*
X139653100Y-72083068D01*
X139658361Y-72079915D01*
X139663905Y-72077293D01*
X139669680Y-72075226D01*
X139675630Y-72073736D01*
X139681697Y-72072836D01*
X139687823Y-72072535D01*
X140337823Y-72072535D01*
X140343949Y-72072836D01*
X140343949Y-72072836D01*
G37*
D11*
X140012823Y-72197535D03*
D10*
G36*
X140343950Y-72572836D02*
X140350017Y-72573736D01*
X140355967Y-72575226D01*
X140361742Y-72577293D01*
X140367286Y-72579915D01*
X140372547Y-72583068D01*
X140377474Y-72586722D01*
X140382018Y-72590841D01*
X140386137Y-72595385D01*
X140389791Y-72600312D01*
X140392944Y-72605573D01*
X140395566Y-72611117D01*
X140397633Y-72616892D01*
X140399123Y-72622842D01*
X140400023Y-72628909D01*
X140400324Y-72635035D01*
X140400324Y-72760035D01*
X140400023Y-72766161D01*
X140399123Y-72772228D01*
X140397633Y-72778178D01*
X140395566Y-72783953D01*
X140392944Y-72789497D01*
X140389791Y-72794758D01*
X140386137Y-72799685D01*
X140382018Y-72804229D01*
X140377474Y-72808348D01*
X140372547Y-72812002D01*
X140367286Y-72815155D01*
X140361742Y-72817777D01*
X140355967Y-72819844D01*
X140350017Y-72821334D01*
X140343950Y-72822234D01*
X140337824Y-72822535D01*
X139687824Y-72822535D01*
X139681698Y-72822234D01*
X139675631Y-72821334D01*
X139669681Y-72819844D01*
X139663906Y-72817777D01*
X139658362Y-72815155D01*
X139653101Y-72812002D01*
X139648174Y-72808348D01*
X139643630Y-72804229D01*
X139639511Y-72799685D01*
X139635857Y-72794758D01*
X139632704Y-72789497D01*
X139630082Y-72783953D01*
X139628015Y-72778178D01*
X139626525Y-72772228D01*
X139625625Y-72766161D01*
X139625324Y-72760035D01*
X139625324Y-72635035D01*
X139625625Y-72628909D01*
X139626525Y-72622842D01*
X139628015Y-72616892D01*
X139630082Y-72611117D01*
X139632704Y-72605573D01*
X139635857Y-72600312D01*
X139639511Y-72595385D01*
X139643630Y-72590841D01*
X139648174Y-72586722D01*
X139653101Y-72583068D01*
X139658362Y-72579915D01*
X139663906Y-72577293D01*
X139669681Y-72575226D01*
X139675631Y-72573736D01*
X139681698Y-72572836D01*
X139687824Y-72572535D01*
X140337824Y-72572535D01*
X140343950Y-72572836D01*
X140343950Y-72572836D01*
G37*
D11*
X140012824Y-72697535D03*
D10*
G36*
X140343950Y-73072836D02*
X140350017Y-73073736D01*
X140355967Y-73075226D01*
X140361742Y-73077293D01*
X140367286Y-73079915D01*
X140372547Y-73083068D01*
X140377474Y-73086722D01*
X140382018Y-73090841D01*
X140386137Y-73095385D01*
X140389791Y-73100312D01*
X140392944Y-73105573D01*
X140395566Y-73111117D01*
X140397633Y-73116892D01*
X140399123Y-73122842D01*
X140400023Y-73128909D01*
X140400324Y-73135035D01*
X140400324Y-73260035D01*
X140400023Y-73266161D01*
X140399123Y-73272228D01*
X140397633Y-73278178D01*
X140395566Y-73283953D01*
X140392944Y-73289497D01*
X140389791Y-73294758D01*
X140386137Y-73299685D01*
X140382018Y-73304229D01*
X140377474Y-73308348D01*
X140372547Y-73312002D01*
X140367286Y-73315155D01*
X140361742Y-73317777D01*
X140355967Y-73319844D01*
X140350017Y-73321334D01*
X140343950Y-73322234D01*
X140337824Y-73322535D01*
X139687824Y-73322535D01*
X139681698Y-73322234D01*
X139675631Y-73321334D01*
X139669681Y-73319844D01*
X139663906Y-73317777D01*
X139658362Y-73315155D01*
X139653101Y-73312002D01*
X139648174Y-73308348D01*
X139643630Y-73304229D01*
X139639511Y-73299685D01*
X139635857Y-73294758D01*
X139632704Y-73289497D01*
X139630082Y-73283953D01*
X139628015Y-73278178D01*
X139626525Y-73272228D01*
X139625625Y-73266161D01*
X139625324Y-73260035D01*
X139625324Y-73135035D01*
X139625625Y-73128909D01*
X139626525Y-73122842D01*
X139628015Y-73116892D01*
X139630082Y-73111117D01*
X139632704Y-73105573D01*
X139635857Y-73100312D01*
X139639511Y-73095385D01*
X139643630Y-73090841D01*
X139648174Y-73086722D01*
X139653101Y-73083068D01*
X139658362Y-73079915D01*
X139663906Y-73077293D01*
X139669681Y-73075226D01*
X139675631Y-73073736D01*
X139681698Y-73072836D01*
X139687824Y-73072535D01*
X140337824Y-73072535D01*
X140343950Y-73072836D01*
X140343950Y-73072836D01*
G37*
D11*
X140012824Y-73197535D03*
D10*
G36*
X140343950Y-73572836D02*
X140350017Y-73573736D01*
X140355967Y-73575226D01*
X140361742Y-73577293D01*
X140367286Y-73579915D01*
X140372547Y-73583068D01*
X140377474Y-73586722D01*
X140382018Y-73590841D01*
X140386137Y-73595385D01*
X140389791Y-73600312D01*
X140392944Y-73605573D01*
X140395566Y-73611117D01*
X140397633Y-73616892D01*
X140399123Y-73622842D01*
X140400023Y-73628909D01*
X140400324Y-73635035D01*
X140400324Y-73760035D01*
X140400023Y-73766161D01*
X140399123Y-73772228D01*
X140397633Y-73778178D01*
X140395566Y-73783953D01*
X140392944Y-73789497D01*
X140389791Y-73794758D01*
X140386137Y-73799685D01*
X140382018Y-73804229D01*
X140377474Y-73808348D01*
X140372547Y-73812002D01*
X140367286Y-73815155D01*
X140361742Y-73817777D01*
X140355967Y-73819844D01*
X140350017Y-73821334D01*
X140343950Y-73822234D01*
X140337824Y-73822535D01*
X139687824Y-73822535D01*
X139681698Y-73822234D01*
X139675631Y-73821334D01*
X139669681Y-73819844D01*
X139663906Y-73817777D01*
X139658362Y-73815155D01*
X139653101Y-73812002D01*
X139648174Y-73808348D01*
X139643630Y-73804229D01*
X139639511Y-73799685D01*
X139635857Y-73794758D01*
X139632704Y-73789497D01*
X139630082Y-73783953D01*
X139628015Y-73778178D01*
X139626525Y-73772228D01*
X139625625Y-73766161D01*
X139625324Y-73760035D01*
X139625324Y-73635035D01*
X139625625Y-73628909D01*
X139626525Y-73622842D01*
X139628015Y-73616892D01*
X139630082Y-73611117D01*
X139632704Y-73605573D01*
X139635857Y-73600312D01*
X139639511Y-73595385D01*
X139643630Y-73590841D01*
X139648174Y-73586722D01*
X139653101Y-73583068D01*
X139658362Y-73579915D01*
X139663906Y-73577293D01*
X139669681Y-73575226D01*
X139675631Y-73573736D01*
X139681698Y-73572836D01*
X139687824Y-73572535D01*
X140337824Y-73572535D01*
X140343950Y-73572836D01*
X140343950Y-73572836D01*
G37*
D11*
X140012824Y-73697535D03*
D10*
G36*
X139343950Y-74047836D02*
X139350017Y-74048736D01*
X139355967Y-74050226D01*
X139361742Y-74052293D01*
X139367286Y-74054915D01*
X139372547Y-74058068D01*
X139377474Y-74061722D01*
X139382018Y-74065841D01*
X139386137Y-74070385D01*
X139389791Y-74075312D01*
X139392944Y-74080573D01*
X139395566Y-74086117D01*
X139397633Y-74091892D01*
X139399123Y-74097842D01*
X139400023Y-74103909D01*
X139400324Y-74110035D01*
X139400324Y-74760035D01*
X139400023Y-74766161D01*
X139399123Y-74772228D01*
X139397633Y-74778178D01*
X139395566Y-74783953D01*
X139392944Y-74789497D01*
X139389791Y-74794758D01*
X139386137Y-74799685D01*
X139382018Y-74804229D01*
X139377474Y-74808348D01*
X139372547Y-74812002D01*
X139367286Y-74815155D01*
X139361742Y-74817777D01*
X139355967Y-74819844D01*
X139350017Y-74821334D01*
X139343950Y-74822234D01*
X139337824Y-74822535D01*
X139212824Y-74822535D01*
X139206698Y-74822234D01*
X139200631Y-74821334D01*
X139194681Y-74819844D01*
X139188906Y-74817777D01*
X139183362Y-74815155D01*
X139178101Y-74812002D01*
X139173174Y-74808348D01*
X139168630Y-74804229D01*
X139164511Y-74799685D01*
X139160857Y-74794758D01*
X139157704Y-74789497D01*
X139155082Y-74783953D01*
X139153015Y-74778178D01*
X139151525Y-74772228D01*
X139150625Y-74766161D01*
X139150324Y-74760035D01*
X139150324Y-74110035D01*
X139150625Y-74103909D01*
X139151525Y-74097842D01*
X139153015Y-74091892D01*
X139155082Y-74086117D01*
X139157704Y-74080573D01*
X139160857Y-74075312D01*
X139164511Y-74070385D01*
X139168630Y-74065841D01*
X139173174Y-74061722D01*
X139178101Y-74058068D01*
X139183362Y-74054915D01*
X139188906Y-74052293D01*
X139194681Y-74050226D01*
X139200631Y-74048736D01*
X139206698Y-74047836D01*
X139212824Y-74047535D01*
X139337824Y-74047535D01*
X139343950Y-74047836D01*
X139343950Y-74047836D01*
G37*
D11*
X139275324Y-74435035D03*
D10*
G36*
X138843950Y-74047836D02*
X138850017Y-74048736D01*
X138855967Y-74050226D01*
X138861742Y-74052293D01*
X138867286Y-74054915D01*
X138872547Y-74058068D01*
X138877474Y-74061722D01*
X138882018Y-74065841D01*
X138886137Y-74070385D01*
X138889791Y-74075312D01*
X138892944Y-74080573D01*
X138895566Y-74086117D01*
X138897633Y-74091892D01*
X138899123Y-74097842D01*
X138900023Y-74103909D01*
X138900324Y-74110035D01*
X138900324Y-74760035D01*
X138900023Y-74766161D01*
X138899123Y-74772228D01*
X138897633Y-74778178D01*
X138895566Y-74783953D01*
X138892944Y-74789497D01*
X138889791Y-74794758D01*
X138886137Y-74799685D01*
X138882018Y-74804229D01*
X138877474Y-74808348D01*
X138872547Y-74812002D01*
X138867286Y-74815155D01*
X138861742Y-74817777D01*
X138855967Y-74819844D01*
X138850017Y-74821334D01*
X138843950Y-74822234D01*
X138837824Y-74822535D01*
X138712824Y-74822535D01*
X138706698Y-74822234D01*
X138700631Y-74821334D01*
X138694681Y-74819844D01*
X138688906Y-74817777D01*
X138683362Y-74815155D01*
X138678101Y-74812002D01*
X138673174Y-74808348D01*
X138668630Y-74804229D01*
X138664511Y-74799685D01*
X138660857Y-74794758D01*
X138657704Y-74789497D01*
X138655082Y-74783953D01*
X138653015Y-74778178D01*
X138651525Y-74772228D01*
X138650625Y-74766161D01*
X138650324Y-74760035D01*
X138650324Y-74110035D01*
X138650625Y-74103909D01*
X138651525Y-74097842D01*
X138653015Y-74091892D01*
X138655082Y-74086117D01*
X138657704Y-74080573D01*
X138660857Y-74075312D01*
X138664511Y-74070385D01*
X138668630Y-74065841D01*
X138673174Y-74061722D01*
X138678101Y-74058068D01*
X138683362Y-74054915D01*
X138688906Y-74052293D01*
X138694681Y-74050226D01*
X138700631Y-74048736D01*
X138706698Y-74047836D01*
X138712824Y-74047535D01*
X138837824Y-74047535D01*
X138843950Y-74047836D01*
X138843950Y-74047836D01*
G37*
D11*
X138775324Y-74435035D03*
D10*
G36*
X138343950Y-74047836D02*
X138350017Y-74048736D01*
X138355967Y-74050226D01*
X138361742Y-74052293D01*
X138367286Y-74054915D01*
X138372547Y-74058068D01*
X138377474Y-74061722D01*
X138382018Y-74065841D01*
X138386137Y-74070385D01*
X138389791Y-74075312D01*
X138392944Y-74080573D01*
X138395566Y-74086117D01*
X138397633Y-74091892D01*
X138399123Y-74097842D01*
X138400023Y-74103909D01*
X138400324Y-74110035D01*
X138400324Y-74760035D01*
X138400023Y-74766161D01*
X138399123Y-74772228D01*
X138397633Y-74778178D01*
X138395566Y-74783953D01*
X138392944Y-74789497D01*
X138389791Y-74794758D01*
X138386137Y-74799685D01*
X138382018Y-74804229D01*
X138377474Y-74808348D01*
X138372547Y-74812002D01*
X138367286Y-74815155D01*
X138361742Y-74817777D01*
X138355967Y-74819844D01*
X138350017Y-74821334D01*
X138343950Y-74822234D01*
X138337824Y-74822535D01*
X138212824Y-74822535D01*
X138206698Y-74822234D01*
X138200631Y-74821334D01*
X138194681Y-74819844D01*
X138188906Y-74817777D01*
X138183362Y-74815155D01*
X138178101Y-74812002D01*
X138173174Y-74808348D01*
X138168630Y-74804229D01*
X138164511Y-74799685D01*
X138160857Y-74794758D01*
X138157704Y-74789497D01*
X138155082Y-74783953D01*
X138153015Y-74778178D01*
X138151525Y-74772228D01*
X138150625Y-74766161D01*
X138150324Y-74760035D01*
X138150324Y-74110035D01*
X138150625Y-74103909D01*
X138151525Y-74097842D01*
X138153015Y-74091892D01*
X138155082Y-74086117D01*
X138157704Y-74080573D01*
X138160857Y-74075312D01*
X138164511Y-74070385D01*
X138168630Y-74065841D01*
X138173174Y-74061722D01*
X138178101Y-74058068D01*
X138183362Y-74054915D01*
X138188906Y-74052293D01*
X138194681Y-74050226D01*
X138200631Y-74048736D01*
X138206698Y-74047836D01*
X138212824Y-74047535D01*
X138337824Y-74047535D01*
X138343950Y-74047836D01*
X138343950Y-74047836D01*
G37*
D11*
X138275324Y-74435035D03*
D10*
G36*
X137843950Y-74047835D02*
X137850017Y-74048735D01*
X137855967Y-74050225D01*
X137861742Y-74052292D01*
X137867286Y-74054914D01*
X137872547Y-74058067D01*
X137877474Y-74061721D01*
X137882018Y-74065840D01*
X137886137Y-74070384D01*
X137889791Y-74075311D01*
X137892944Y-74080572D01*
X137895566Y-74086116D01*
X137897633Y-74091891D01*
X137899123Y-74097841D01*
X137900023Y-74103908D01*
X137900324Y-74110034D01*
X137900324Y-74760034D01*
X137900023Y-74766160D01*
X137899123Y-74772227D01*
X137897633Y-74778177D01*
X137895566Y-74783952D01*
X137892944Y-74789496D01*
X137889791Y-74794757D01*
X137886137Y-74799684D01*
X137882018Y-74804228D01*
X137877474Y-74808347D01*
X137872547Y-74812001D01*
X137867286Y-74815154D01*
X137861742Y-74817776D01*
X137855967Y-74819843D01*
X137850017Y-74821333D01*
X137843950Y-74822233D01*
X137837824Y-74822534D01*
X137712824Y-74822534D01*
X137706698Y-74822233D01*
X137700631Y-74821333D01*
X137694681Y-74819843D01*
X137688906Y-74817776D01*
X137683362Y-74815154D01*
X137678101Y-74812001D01*
X137673174Y-74808347D01*
X137668630Y-74804228D01*
X137664511Y-74799684D01*
X137660857Y-74794757D01*
X137657704Y-74789496D01*
X137655082Y-74783952D01*
X137653015Y-74778177D01*
X137651525Y-74772227D01*
X137650625Y-74766160D01*
X137650324Y-74760034D01*
X137650324Y-74110034D01*
X137650625Y-74103908D01*
X137651525Y-74097841D01*
X137653015Y-74091891D01*
X137655082Y-74086116D01*
X137657704Y-74080572D01*
X137660857Y-74075311D01*
X137664511Y-74070384D01*
X137668630Y-74065840D01*
X137673174Y-74061721D01*
X137678101Y-74058067D01*
X137683362Y-74054914D01*
X137688906Y-74052292D01*
X137694681Y-74050225D01*
X137700631Y-74048735D01*
X137706698Y-74047835D01*
X137712824Y-74047534D01*
X137837824Y-74047534D01*
X137843950Y-74047835D01*
X137843950Y-74047835D01*
G37*
D11*
X137775324Y-74435034D03*
D10*
G36*
X137343950Y-74047836D02*
X137350017Y-74048736D01*
X137355967Y-74050226D01*
X137361742Y-74052293D01*
X137367286Y-74054915D01*
X137372547Y-74058068D01*
X137377474Y-74061722D01*
X137382018Y-74065841D01*
X137386137Y-74070385D01*
X137389791Y-74075312D01*
X137392944Y-74080573D01*
X137395566Y-74086117D01*
X137397633Y-74091892D01*
X137399123Y-74097842D01*
X137400023Y-74103909D01*
X137400324Y-74110035D01*
X137400324Y-74760035D01*
X137400023Y-74766161D01*
X137399123Y-74772228D01*
X137397633Y-74778178D01*
X137395566Y-74783953D01*
X137392944Y-74789497D01*
X137389791Y-74794758D01*
X137386137Y-74799685D01*
X137382018Y-74804229D01*
X137377474Y-74808348D01*
X137372547Y-74812002D01*
X137367286Y-74815155D01*
X137361742Y-74817777D01*
X137355967Y-74819844D01*
X137350017Y-74821334D01*
X137343950Y-74822234D01*
X137337824Y-74822535D01*
X137212824Y-74822535D01*
X137206698Y-74822234D01*
X137200631Y-74821334D01*
X137194681Y-74819844D01*
X137188906Y-74817777D01*
X137183362Y-74815155D01*
X137178101Y-74812002D01*
X137173174Y-74808348D01*
X137168630Y-74804229D01*
X137164511Y-74799685D01*
X137160857Y-74794758D01*
X137157704Y-74789497D01*
X137155082Y-74783953D01*
X137153015Y-74778178D01*
X137151525Y-74772228D01*
X137150625Y-74766161D01*
X137150324Y-74760035D01*
X137150324Y-74110035D01*
X137150625Y-74103909D01*
X137151525Y-74097842D01*
X137153015Y-74091892D01*
X137155082Y-74086117D01*
X137157704Y-74080573D01*
X137160857Y-74075312D01*
X137164511Y-74070385D01*
X137168630Y-74065841D01*
X137173174Y-74061722D01*
X137178101Y-74058068D01*
X137183362Y-74054915D01*
X137188906Y-74052293D01*
X137194681Y-74050226D01*
X137200631Y-74048736D01*
X137206698Y-74047836D01*
X137212824Y-74047535D01*
X137337824Y-74047535D01*
X137343950Y-74047836D01*
X137343950Y-74047836D01*
G37*
D11*
X137275324Y-74435035D03*
D10*
G36*
X136843950Y-74047836D02*
X136850017Y-74048736D01*
X136855967Y-74050226D01*
X136861742Y-74052293D01*
X136867286Y-74054915D01*
X136872547Y-74058068D01*
X136877474Y-74061722D01*
X136882018Y-74065841D01*
X136886137Y-74070385D01*
X136889791Y-74075312D01*
X136892944Y-74080573D01*
X136895566Y-74086117D01*
X136897633Y-74091892D01*
X136899123Y-74097842D01*
X136900023Y-74103909D01*
X136900324Y-74110035D01*
X136900324Y-74760035D01*
X136900023Y-74766161D01*
X136899123Y-74772228D01*
X136897633Y-74778178D01*
X136895566Y-74783953D01*
X136892944Y-74789497D01*
X136889791Y-74794758D01*
X136886137Y-74799685D01*
X136882018Y-74804229D01*
X136877474Y-74808348D01*
X136872547Y-74812002D01*
X136867286Y-74815155D01*
X136861742Y-74817777D01*
X136855967Y-74819844D01*
X136850017Y-74821334D01*
X136843950Y-74822234D01*
X136837824Y-74822535D01*
X136712824Y-74822535D01*
X136706698Y-74822234D01*
X136700631Y-74821334D01*
X136694681Y-74819844D01*
X136688906Y-74817777D01*
X136683362Y-74815155D01*
X136678101Y-74812002D01*
X136673174Y-74808348D01*
X136668630Y-74804229D01*
X136664511Y-74799685D01*
X136660857Y-74794758D01*
X136657704Y-74789497D01*
X136655082Y-74783953D01*
X136653015Y-74778178D01*
X136651525Y-74772228D01*
X136650625Y-74766161D01*
X136650324Y-74760035D01*
X136650324Y-74110035D01*
X136650625Y-74103909D01*
X136651525Y-74097842D01*
X136653015Y-74091892D01*
X136655082Y-74086117D01*
X136657704Y-74080573D01*
X136660857Y-74075312D01*
X136664511Y-74070385D01*
X136668630Y-74065841D01*
X136673174Y-74061722D01*
X136678101Y-74058068D01*
X136683362Y-74054915D01*
X136688906Y-74052293D01*
X136694681Y-74050226D01*
X136700631Y-74048736D01*
X136706698Y-74047836D01*
X136712824Y-74047535D01*
X136837824Y-74047535D01*
X136843950Y-74047836D01*
X136843950Y-74047836D01*
G37*
D11*
X136775324Y-74435035D03*
D10*
G36*
X136343950Y-74047836D02*
X136350017Y-74048736D01*
X136355967Y-74050226D01*
X136361742Y-74052293D01*
X136367286Y-74054915D01*
X136372547Y-74058068D01*
X136377474Y-74061722D01*
X136382018Y-74065841D01*
X136386137Y-74070385D01*
X136389791Y-74075312D01*
X136392944Y-74080573D01*
X136395566Y-74086117D01*
X136397633Y-74091892D01*
X136399123Y-74097842D01*
X136400023Y-74103909D01*
X136400324Y-74110035D01*
X136400324Y-74760035D01*
X136400023Y-74766161D01*
X136399123Y-74772228D01*
X136397633Y-74778178D01*
X136395566Y-74783953D01*
X136392944Y-74789497D01*
X136389791Y-74794758D01*
X136386137Y-74799685D01*
X136382018Y-74804229D01*
X136377474Y-74808348D01*
X136372547Y-74812002D01*
X136367286Y-74815155D01*
X136361742Y-74817777D01*
X136355967Y-74819844D01*
X136350017Y-74821334D01*
X136343950Y-74822234D01*
X136337824Y-74822535D01*
X136212824Y-74822535D01*
X136206698Y-74822234D01*
X136200631Y-74821334D01*
X136194681Y-74819844D01*
X136188906Y-74817777D01*
X136183362Y-74815155D01*
X136178101Y-74812002D01*
X136173174Y-74808348D01*
X136168630Y-74804229D01*
X136164511Y-74799685D01*
X136160857Y-74794758D01*
X136157704Y-74789497D01*
X136155082Y-74783953D01*
X136153015Y-74778178D01*
X136151525Y-74772228D01*
X136150625Y-74766161D01*
X136150324Y-74760035D01*
X136150324Y-74110035D01*
X136150625Y-74103909D01*
X136151525Y-74097842D01*
X136153015Y-74091892D01*
X136155082Y-74086117D01*
X136157704Y-74080573D01*
X136160857Y-74075312D01*
X136164511Y-74070385D01*
X136168630Y-74065841D01*
X136173174Y-74061722D01*
X136178101Y-74058068D01*
X136183362Y-74054915D01*
X136188906Y-74052293D01*
X136194681Y-74050226D01*
X136200631Y-74048736D01*
X136206698Y-74047836D01*
X136212824Y-74047535D01*
X136337824Y-74047535D01*
X136343950Y-74047836D01*
X136343950Y-74047836D01*
G37*
D11*
X136275324Y-74435035D03*
D10*
G36*
X135843950Y-74047836D02*
X135850017Y-74048736D01*
X135855967Y-74050226D01*
X135861742Y-74052293D01*
X135867286Y-74054915D01*
X135872547Y-74058068D01*
X135877474Y-74061722D01*
X135882018Y-74065841D01*
X135886137Y-74070385D01*
X135889791Y-74075312D01*
X135892944Y-74080573D01*
X135895566Y-74086117D01*
X135897633Y-74091892D01*
X135899123Y-74097842D01*
X135900023Y-74103909D01*
X135900324Y-74110035D01*
X135900324Y-74760035D01*
X135900023Y-74766161D01*
X135899123Y-74772228D01*
X135897633Y-74778178D01*
X135895566Y-74783953D01*
X135892944Y-74789497D01*
X135889791Y-74794758D01*
X135886137Y-74799685D01*
X135882018Y-74804229D01*
X135877474Y-74808348D01*
X135872547Y-74812002D01*
X135867286Y-74815155D01*
X135861742Y-74817777D01*
X135855967Y-74819844D01*
X135850017Y-74821334D01*
X135843950Y-74822234D01*
X135837824Y-74822535D01*
X135712824Y-74822535D01*
X135706698Y-74822234D01*
X135700631Y-74821334D01*
X135694681Y-74819844D01*
X135688906Y-74817777D01*
X135683362Y-74815155D01*
X135678101Y-74812002D01*
X135673174Y-74808348D01*
X135668630Y-74804229D01*
X135664511Y-74799685D01*
X135660857Y-74794758D01*
X135657704Y-74789497D01*
X135655082Y-74783953D01*
X135653015Y-74778178D01*
X135651525Y-74772228D01*
X135650625Y-74766161D01*
X135650324Y-74760035D01*
X135650324Y-74110035D01*
X135650625Y-74103909D01*
X135651525Y-74097842D01*
X135653015Y-74091892D01*
X135655082Y-74086117D01*
X135657704Y-74080573D01*
X135660857Y-74075312D01*
X135664511Y-74070385D01*
X135668630Y-74065841D01*
X135673174Y-74061722D01*
X135678101Y-74058068D01*
X135683362Y-74054915D01*
X135688906Y-74052293D01*
X135694681Y-74050226D01*
X135700631Y-74048736D01*
X135706698Y-74047836D01*
X135712824Y-74047535D01*
X135837824Y-74047535D01*
X135843950Y-74047836D01*
X135843950Y-74047836D01*
G37*
D11*
X135775324Y-74435035D03*
D10*
G36*
X135343950Y-74047835D02*
X135350017Y-74048735D01*
X135355967Y-74050225D01*
X135361742Y-74052292D01*
X135367286Y-74054914D01*
X135372547Y-74058067D01*
X135377474Y-74061721D01*
X135382018Y-74065840D01*
X135386137Y-74070384D01*
X135389791Y-74075311D01*
X135392944Y-74080572D01*
X135395566Y-74086116D01*
X135397633Y-74091891D01*
X135399123Y-74097841D01*
X135400023Y-74103908D01*
X135400324Y-74110034D01*
X135400324Y-74760034D01*
X135400023Y-74766160D01*
X135399123Y-74772227D01*
X135397633Y-74778177D01*
X135395566Y-74783952D01*
X135392944Y-74789496D01*
X135389791Y-74794757D01*
X135386137Y-74799684D01*
X135382018Y-74804228D01*
X135377474Y-74808347D01*
X135372547Y-74812001D01*
X135367286Y-74815154D01*
X135361742Y-74817776D01*
X135355967Y-74819843D01*
X135350017Y-74821333D01*
X135343950Y-74822233D01*
X135337824Y-74822534D01*
X135212824Y-74822534D01*
X135206698Y-74822233D01*
X135200631Y-74821333D01*
X135194681Y-74819843D01*
X135188906Y-74817776D01*
X135183362Y-74815154D01*
X135178101Y-74812001D01*
X135173174Y-74808347D01*
X135168630Y-74804228D01*
X135164511Y-74799684D01*
X135160857Y-74794757D01*
X135157704Y-74789496D01*
X135155082Y-74783952D01*
X135153015Y-74778177D01*
X135151525Y-74772227D01*
X135150625Y-74766160D01*
X135150324Y-74760034D01*
X135150324Y-74110034D01*
X135150625Y-74103908D01*
X135151525Y-74097841D01*
X135153015Y-74091891D01*
X135155082Y-74086116D01*
X135157704Y-74080572D01*
X135160857Y-74075311D01*
X135164511Y-74070384D01*
X135168630Y-74065840D01*
X135173174Y-74061721D01*
X135178101Y-74058067D01*
X135183362Y-74054914D01*
X135188906Y-74052292D01*
X135194681Y-74050225D01*
X135200631Y-74048735D01*
X135206698Y-74047835D01*
X135212824Y-74047534D01*
X135337824Y-74047534D01*
X135343950Y-74047835D01*
X135343950Y-74047835D01*
G37*
D11*
X135275324Y-74435034D03*
D10*
G36*
X134843950Y-74047836D02*
X134850017Y-74048736D01*
X134855967Y-74050226D01*
X134861742Y-74052293D01*
X134867286Y-74054915D01*
X134872547Y-74058068D01*
X134877474Y-74061722D01*
X134882018Y-74065841D01*
X134886137Y-74070385D01*
X134889791Y-74075312D01*
X134892944Y-74080573D01*
X134895566Y-74086117D01*
X134897633Y-74091892D01*
X134899123Y-74097842D01*
X134900023Y-74103909D01*
X134900324Y-74110035D01*
X134900324Y-74760035D01*
X134900023Y-74766161D01*
X134899123Y-74772228D01*
X134897633Y-74778178D01*
X134895566Y-74783953D01*
X134892944Y-74789497D01*
X134889791Y-74794758D01*
X134886137Y-74799685D01*
X134882018Y-74804229D01*
X134877474Y-74808348D01*
X134872547Y-74812002D01*
X134867286Y-74815155D01*
X134861742Y-74817777D01*
X134855967Y-74819844D01*
X134850017Y-74821334D01*
X134843950Y-74822234D01*
X134837824Y-74822535D01*
X134712824Y-74822535D01*
X134706698Y-74822234D01*
X134700631Y-74821334D01*
X134694681Y-74819844D01*
X134688906Y-74817777D01*
X134683362Y-74815155D01*
X134678101Y-74812002D01*
X134673174Y-74808348D01*
X134668630Y-74804229D01*
X134664511Y-74799685D01*
X134660857Y-74794758D01*
X134657704Y-74789497D01*
X134655082Y-74783953D01*
X134653015Y-74778178D01*
X134651525Y-74772228D01*
X134650625Y-74766161D01*
X134650324Y-74760035D01*
X134650324Y-74110035D01*
X134650625Y-74103909D01*
X134651525Y-74097842D01*
X134653015Y-74091892D01*
X134655082Y-74086117D01*
X134657704Y-74080573D01*
X134660857Y-74075312D01*
X134664511Y-74070385D01*
X134668630Y-74065841D01*
X134673174Y-74061722D01*
X134678101Y-74058068D01*
X134683362Y-74054915D01*
X134688906Y-74052293D01*
X134694681Y-74050226D01*
X134700631Y-74048736D01*
X134706698Y-74047836D01*
X134712824Y-74047535D01*
X134837824Y-74047535D01*
X134843950Y-74047836D01*
X134843950Y-74047836D01*
G37*
D11*
X134775324Y-74435035D03*
D10*
G36*
X134343950Y-74047836D02*
X134350017Y-74048736D01*
X134355967Y-74050226D01*
X134361742Y-74052293D01*
X134367286Y-74054915D01*
X134372547Y-74058068D01*
X134377474Y-74061722D01*
X134382018Y-74065841D01*
X134386137Y-74070385D01*
X134389791Y-74075312D01*
X134392944Y-74080573D01*
X134395566Y-74086117D01*
X134397633Y-74091892D01*
X134399123Y-74097842D01*
X134400023Y-74103909D01*
X134400324Y-74110035D01*
X134400324Y-74760035D01*
X134400023Y-74766161D01*
X134399123Y-74772228D01*
X134397633Y-74778178D01*
X134395566Y-74783953D01*
X134392944Y-74789497D01*
X134389791Y-74794758D01*
X134386137Y-74799685D01*
X134382018Y-74804229D01*
X134377474Y-74808348D01*
X134372547Y-74812002D01*
X134367286Y-74815155D01*
X134361742Y-74817777D01*
X134355967Y-74819844D01*
X134350017Y-74821334D01*
X134343950Y-74822234D01*
X134337824Y-74822535D01*
X134212824Y-74822535D01*
X134206698Y-74822234D01*
X134200631Y-74821334D01*
X134194681Y-74819844D01*
X134188906Y-74817777D01*
X134183362Y-74815155D01*
X134178101Y-74812002D01*
X134173174Y-74808348D01*
X134168630Y-74804229D01*
X134164511Y-74799685D01*
X134160857Y-74794758D01*
X134157704Y-74789497D01*
X134155082Y-74783953D01*
X134153015Y-74778178D01*
X134151525Y-74772228D01*
X134150625Y-74766161D01*
X134150324Y-74760035D01*
X134150324Y-74110035D01*
X134150625Y-74103909D01*
X134151525Y-74097842D01*
X134153015Y-74091892D01*
X134155082Y-74086117D01*
X134157704Y-74080573D01*
X134160857Y-74075312D01*
X134164511Y-74070385D01*
X134168630Y-74065841D01*
X134173174Y-74061722D01*
X134178101Y-74058068D01*
X134183362Y-74054915D01*
X134188906Y-74052293D01*
X134194681Y-74050226D01*
X134200631Y-74048736D01*
X134206698Y-74047836D01*
X134212824Y-74047535D01*
X134337824Y-74047535D01*
X134343950Y-74047836D01*
X134343950Y-74047836D01*
G37*
D11*
X134275324Y-74435035D03*
D10*
G36*
X133843950Y-74047836D02*
X133850017Y-74048736D01*
X133855967Y-74050226D01*
X133861742Y-74052293D01*
X133867286Y-74054915D01*
X133872547Y-74058068D01*
X133877474Y-74061722D01*
X133882018Y-74065841D01*
X133886137Y-74070385D01*
X133889791Y-74075312D01*
X133892944Y-74080573D01*
X133895566Y-74086117D01*
X133897633Y-74091892D01*
X133899123Y-74097842D01*
X133900023Y-74103909D01*
X133900324Y-74110035D01*
X133900324Y-74760035D01*
X133900023Y-74766161D01*
X133899123Y-74772228D01*
X133897633Y-74778178D01*
X133895566Y-74783953D01*
X133892944Y-74789497D01*
X133889791Y-74794758D01*
X133886137Y-74799685D01*
X133882018Y-74804229D01*
X133877474Y-74808348D01*
X133872547Y-74812002D01*
X133867286Y-74815155D01*
X133861742Y-74817777D01*
X133855967Y-74819844D01*
X133850017Y-74821334D01*
X133843950Y-74822234D01*
X133837824Y-74822535D01*
X133712824Y-74822535D01*
X133706698Y-74822234D01*
X133700631Y-74821334D01*
X133694681Y-74819844D01*
X133688906Y-74817777D01*
X133683362Y-74815155D01*
X133678101Y-74812002D01*
X133673174Y-74808348D01*
X133668630Y-74804229D01*
X133664511Y-74799685D01*
X133660857Y-74794758D01*
X133657704Y-74789497D01*
X133655082Y-74783953D01*
X133653015Y-74778178D01*
X133651525Y-74772228D01*
X133650625Y-74766161D01*
X133650324Y-74760035D01*
X133650324Y-74110035D01*
X133650625Y-74103909D01*
X133651525Y-74097842D01*
X133653015Y-74091892D01*
X133655082Y-74086117D01*
X133657704Y-74080573D01*
X133660857Y-74075312D01*
X133664511Y-74070385D01*
X133668630Y-74065841D01*
X133673174Y-74061722D01*
X133678101Y-74058068D01*
X133683362Y-74054915D01*
X133688906Y-74052293D01*
X133694681Y-74050226D01*
X133700631Y-74048736D01*
X133706698Y-74047836D01*
X133712824Y-74047535D01*
X133837824Y-74047535D01*
X133843950Y-74047836D01*
X133843950Y-74047836D01*
G37*
D11*
X133775324Y-74435035D03*
D10*
G36*
X133368950Y-73572836D02*
X133375017Y-73573736D01*
X133380967Y-73575226D01*
X133386742Y-73577293D01*
X133392286Y-73579915D01*
X133397547Y-73583068D01*
X133402474Y-73586722D01*
X133407018Y-73590841D01*
X133411137Y-73595385D01*
X133414791Y-73600312D01*
X133417944Y-73605573D01*
X133420566Y-73611117D01*
X133422633Y-73616892D01*
X133424123Y-73622842D01*
X133425023Y-73628909D01*
X133425324Y-73635035D01*
X133425324Y-73760035D01*
X133425023Y-73766161D01*
X133424123Y-73772228D01*
X133422633Y-73778178D01*
X133420566Y-73783953D01*
X133417944Y-73789497D01*
X133414791Y-73794758D01*
X133411137Y-73799685D01*
X133407018Y-73804229D01*
X133402474Y-73808348D01*
X133397547Y-73812002D01*
X133392286Y-73815155D01*
X133386742Y-73817777D01*
X133380967Y-73819844D01*
X133375017Y-73821334D01*
X133368950Y-73822234D01*
X133362824Y-73822535D01*
X132712824Y-73822535D01*
X132706698Y-73822234D01*
X132700631Y-73821334D01*
X132694681Y-73819844D01*
X132688906Y-73817777D01*
X132683362Y-73815155D01*
X132678101Y-73812002D01*
X132673174Y-73808348D01*
X132668630Y-73804229D01*
X132664511Y-73799685D01*
X132660857Y-73794758D01*
X132657704Y-73789497D01*
X132655082Y-73783953D01*
X132653015Y-73778178D01*
X132651525Y-73772228D01*
X132650625Y-73766161D01*
X132650324Y-73760035D01*
X132650324Y-73635035D01*
X132650625Y-73628909D01*
X132651525Y-73622842D01*
X132653015Y-73616892D01*
X132655082Y-73611117D01*
X132657704Y-73605573D01*
X132660857Y-73600312D01*
X132664511Y-73595385D01*
X132668630Y-73590841D01*
X132673174Y-73586722D01*
X132678101Y-73583068D01*
X132683362Y-73579915D01*
X132688906Y-73577293D01*
X132694681Y-73575226D01*
X132700631Y-73573736D01*
X132706698Y-73572836D01*
X132712824Y-73572535D01*
X133362824Y-73572535D01*
X133368950Y-73572836D01*
X133368950Y-73572836D01*
G37*
D11*
X133037824Y-73697535D03*
D10*
G36*
X133368950Y-73072836D02*
X133375017Y-73073736D01*
X133380967Y-73075226D01*
X133386742Y-73077293D01*
X133392286Y-73079915D01*
X133397547Y-73083068D01*
X133402474Y-73086722D01*
X133407018Y-73090841D01*
X133411137Y-73095385D01*
X133414791Y-73100312D01*
X133417944Y-73105573D01*
X133420566Y-73111117D01*
X133422633Y-73116892D01*
X133424123Y-73122842D01*
X133425023Y-73128909D01*
X133425324Y-73135035D01*
X133425324Y-73260035D01*
X133425023Y-73266161D01*
X133424123Y-73272228D01*
X133422633Y-73278178D01*
X133420566Y-73283953D01*
X133417944Y-73289497D01*
X133414791Y-73294758D01*
X133411137Y-73299685D01*
X133407018Y-73304229D01*
X133402474Y-73308348D01*
X133397547Y-73312002D01*
X133392286Y-73315155D01*
X133386742Y-73317777D01*
X133380967Y-73319844D01*
X133375017Y-73321334D01*
X133368950Y-73322234D01*
X133362824Y-73322535D01*
X132712824Y-73322535D01*
X132706698Y-73322234D01*
X132700631Y-73321334D01*
X132694681Y-73319844D01*
X132688906Y-73317777D01*
X132683362Y-73315155D01*
X132678101Y-73312002D01*
X132673174Y-73308348D01*
X132668630Y-73304229D01*
X132664511Y-73299685D01*
X132660857Y-73294758D01*
X132657704Y-73289497D01*
X132655082Y-73283953D01*
X132653015Y-73278178D01*
X132651525Y-73272228D01*
X132650625Y-73266161D01*
X132650324Y-73260035D01*
X132650324Y-73135035D01*
X132650625Y-73128909D01*
X132651525Y-73122842D01*
X132653015Y-73116892D01*
X132655082Y-73111117D01*
X132657704Y-73105573D01*
X132660857Y-73100312D01*
X132664511Y-73095385D01*
X132668630Y-73090841D01*
X132673174Y-73086722D01*
X132678101Y-73083068D01*
X132683362Y-73079915D01*
X132688906Y-73077293D01*
X132694681Y-73075226D01*
X132700631Y-73073736D01*
X132706698Y-73072836D01*
X132712824Y-73072535D01*
X133362824Y-73072535D01*
X133368950Y-73072836D01*
X133368950Y-73072836D01*
G37*
D11*
X133037824Y-73197535D03*
D10*
G36*
X133368950Y-72572836D02*
X133375017Y-72573736D01*
X133380967Y-72575226D01*
X133386742Y-72577293D01*
X133392286Y-72579915D01*
X133397547Y-72583068D01*
X133402474Y-72586722D01*
X133407018Y-72590841D01*
X133411137Y-72595385D01*
X133414791Y-72600312D01*
X133417944Y-72605573D01*
X133420566Y-72611117D01*
X133422633Y-72616892D01*
X133424123Y-72622842D01*
X133425023Y-72628909D01*
X133425324Y-72635035D01*
X133425324Y-72760035D01*
X133425023Y-72766161D01*
X133424123Y-72772228D01*
X133422633Y-72778178D01*
X133420566Y-72783953D01*
X133417944Y-72789497D01*
X133414791Y-72794758D01*
X133411137Y-72799685D01*
X133407018Y-72804229D01*
X133402474Y-72808348D01*
X133397547Y-72812002D01*
X133392286Y-72815155D01*
X133386742Y-72817777D01*
X133380967Y-72819844D01*
X133375017Y-72821334D01*
X133368950Y-72822234D01*
X133362824Y-72822535D01*
X132712824Y-72822535D01*
X132706698Y-72822234D01*
X132700631Y-72821334D01*
X132694681Y-72819844D01*
X132688906Y-72817777D01*
X132683362Y-72815155D01*
X132678101Y-72812002D01*
X132673174Y-72808348D01*
X132668630Y-72804229D01*
X132664511Y-72799685D01*
X132660857Y-72794758D01*
X132657704Y-72789497D01*
X132655082Y-72783953D01*
X132653015Y-72778178D01*
X132651525Y-72772228D01*
X132650625Y-72766161D01*
X132650324Y-72760035D01*
X132650324Y-72635035D01*
X132650625Y-72628909D01*
X132651525Y-72622842D01*
X132653015Y-72616892D01*
X132655082Y-72611117D01*
X132657704Y-72605573D01*
X132660857Y-72600312D01*
X132664511Y-72595385D01*
X132668630Y-72590841D01*
X132673174Y-72586722D01*
X132678101Y-72583068D01*
X132683362Y-72579915D01*
X132688906Y-72577293D01*
X132694681Y-72575226D01*
X132700631Y-72573736D01*
X132706698Y-72572836D01*
X132712824Y-72572535D01*
X133362824Y-72572535D01*
X133368950Y-72572836D01*
X133368950Y-72572836D01*
G37*
D11*
X133037824Y-72697535D03*
D10*
G36*
X133368951Y-72072836D02*
X133375018Y-72073736D01*
X133380968Y-72075226D01*
X133386743Y-72077293D01*
X133392287Y-72079915D01*
X133397548Y-72083068D01*
X133402475Y-72086722D01*
X133407019Y-72090841D01*
X133411138Y-72095385D01*
X133414792Y-72100312D01*
X133417945Y-72105573D01*
X133420567Y-72111117D01*
X133422634Y-72116892D01*
X133424124Y-72122842D01*
X133425024Y-72128909D01*
X133425325Y-72135035D01*
X133425325Y-72260035D01*
X133425024Y-72266161D01*
X133424124Y-72272228D01*
X133422634Y-72278178D01*
X133420567Y-72283953D01*
X133417945Y-72289497D01*
X133414792Y-72294758D01*
X133411138Y-72299685D01*
X133407019Y-72304229D01*
X133402475Y-72308348D01*
X133397548Y-72312002D01*
X133392287Y-72315155D01*
X133386743Y-72317777D01*
X133380968Y-72319844D01*
X133375018Y-72321334D01*
X133368951Y-72322234D01*
X133362825Y-72322535D01*
X132712825Y-72322535D01*
X132706699Y-72322234D01*
X132700632Y-72321334D01*
X132694682Y-72319844D01*
X132688907Y-72317777D01*
X132683363Y-72315155D01*
X132678102Y-72312002D01*
X132673175Y-72308348D01*
X132668631Y-72304229D01*
X132664512Y-72299685D01*
X132660858Y-72294758D01*
X132657705Y-72289497D01*
X132655083Y-72283953D01*
X132653016Y-72278178D01*
X132651526Y-72272228D01*
X132650626Y-72266161D01*
X132650325Y-72260035D01*
X132650325Y-72135035D01*
X132650626Y-72128909D01*
X132651526Y-72122842D01*
X132653016Y-72116892D01*
X132655083Y-72111117D01*
X132657705Y-72105573D01*
X132660858Y-72100312D01*
X132664512Y-72095385D01*
X132668631Y-72090841D01*
X132673175Y-72086722D01*
X132678102Y-72083068D01*
X132683363Y-72079915D01*
X132688907Y-72077293D01*
X132694682Y-72075226D01*
X132700632Y-72073736D01*
X132706699Y-72072836D01*
X132712825Y-72072535D01*
X133362825Y-72072535D01*
X133368951Y-72072836D01*
X133368951Y-72072836D01*
G37*
D11*
X133037825Y-72197535D03*
D10*
G36*
X133368950Y-71572836D02*
X133375017Y-71573736D01*
X133380967Y-71575226D01*
X133386742Y-71577293D01*
X133392286Y-71579915D01*
X133397547Y-71583068D01*
X133402474Y-71586722D01*
X133407018Y-71590841D01*
X133411137Y-71595385D01*
X133414791Y-71600312D01*
X133417944Y-71605573D01*
X133420566Y-71611117D01*
X133422633Y-71616892D01*
X133424123Y-71622842D01*
X133425023Y-71628909D01*
X133425324Y-71635035D01*
X133425324Y-71760035D01*
X133425023Y-71766161D01*
X133424123Y-71772228D01*
X133422633Y-71778178D01*
X133420566Y-71783953D01*
X133417944Y-71789497D01*
X133414791Y-71794758D01*
X133411137Y-71799685D01*
X133407018Y-71804229D01*
X133402474Y-71808348D01*
X133397547Y-71812002D01*
X133392286Y-71815155D01*
X133386742Y-71817777D01*
X133380967Y-71819844D01*
X133375017Y-71821334D01*
X133368950Y-71822234D01*
X133362824Y-71822535D01*
X132712824Y-71822535D01*
X132706698Y-71822234D01*
X132700631Y-71821334D01*
X132694681Y-71819844D01*
X132688906Y-71817777D01*
X132683362Y-71815155D01*
X132678101Y-71812002D01*
X132673174Y-71808348D01*
X132668630Y-71804229D01*
X132664511Y-71799685D01*
X132660857Y-71794758D01*
X132657704Y-71789497D01*
X132655082Y-71783953D01*
X132653015Y-71778178D01*
X132651525Y-71772228D01*
X132650625Y-71766161D01*
X132650324Y-71760035D01*
X132650324Y-71635035D01*
X132650625Y-71628909D01*
X132651525Y-71622842D01*
X132653015Y-71616892D01*
X132655082Y-71611117D01*
X132657704Y-71605573D01*
X132660857Y-71600312D01*
X132664511Y-71595385D01*
X132668630Y-71590841D01*
X132673174Y-71586722D01*
X132678101Y-71583068D01*
X132683362Y-71579915D01*
X132688906Y-71577293D01*
X132694681Y-71575226D01*
X132700631Y-71573736D01*
X132706698Y-71572836D01*
X132712824Y-71572535D01*
X133362824Y-71572535D01*
X133368950Y-71572836D01*
X133368950Y-71572836D01*
G37*
D11*
X133037824Y-71697535D03*
D10*
G36*
X133368950Y-71072836D02*
X133375017Y-71073736D01*
X133380967Y-71075226D01*
X133386742Y-71077293D01*
X133392286Y-71079915D01*
X133397547Y-71083068D01*
X133402474Y-71086722D01*
X133407018Y-71090841D01*
X133411137Y-71095385D01*
X133414791Y-71100312D01*
X133417944Y-71105573D01*
X133420566Y-71111117D01*
X133422633Y-71116892D01*
X133424123Y-71122842D01*
X133425023Y-71128909D01*
X133425324Y-71135035D01*
X133425324Y-71260035D01*
X133425023Y-71266161D01*
X133424123Y-71272228D01*
X133422633Y-71278178D01*
X133420566Y-71283953D01*
X133417944Y-71289497D01*
X133414791Y-71294758D01*
X133411137Y-71299685D01*
X133407018Y-71304229D01*
X133402474Y-71308348D01*
X133397547Y-71312002D01*
X133392286Y-71315155D01*
X133386742Y-71317777D01*
X133380967Y-71319844D01*
X133375017Y-71321334D01*
X133368950Y-71322234D01*
X133362824Y-71322535D01*
X132712824Y-71322535D01*
X132706698Y-71322234D01*
X132700631Y-71321334D01*
X132694681Y-71319844D01*
X132688906Y-71317777D01*
X132683362Y-71315155D01*
X132678101Y-71312002D01*
X132673174Y-71308348D01*
X132668630Y-71304229D01*
X132664511Y-71299685D01*
X132660857Y-71294758D01*
X132657704Y-71289497D01*
X132655082Y-71283953D01*
X132653015Y-71278178D01*
X132651525Y-71272228D01*
X132650625Y-71266161D01*
X132650324Y-71260035D01*
X132650324Y-71135035D01*
X132650625Y-71128909D01*
X132651525Y-71122842D01*
X132653015Y-71116892D01*
X132655082Y-71111117D01*
X132657704Y-71105573D01*
X132660857Y-71100312D01*
X132664511Y-71095385D01*
X132668630Y-71090841D01*
X132673174Y-71086722D01*
X132678101Y-71083068D01*
X132683362Y-71079915D01*
X132688906Y-71077293D01*
X132694681Y-71075226D01*
X132700631Y-71073736D01*
X132706698Y-71072836D01*
X132712824Y-71072535D01*
X133362824Y-71072535D01*
X133368950Y-71072836D01*
X133368950Y-71072836D01*
G37*
D11*
X133037824Y-71197535D03*
D10*
G36*
X133368950Y-70572836D02*
X133375017Y-70573736D01*
X133380967Y-70575226D01*
X133386742Y-70577293D01*
X133392286Y-70579915D01*
X133397547Y-70583068D01*
X133402474Y-70586722D01*
X133407018Y-70590841D01*
X133411137Y-70595385D01*
X133414791Y-70600312D01*
X133417944Y-70605573D01*
X133420566Y-70611117D01*
X133422633Y-70616892D01*
X133424123Y-70622842D01*
X133425023Y-70628909D01*
X133425324Y-70635035D01*
X133425324Y-70760035D01*
X133425023Y-70766161D01*
X133424123Y-70772228D01*
X133422633Y-70778178D01*
X133420566Y-70783953D01*
X133417944Y-70789497D01*
X133414791Y-70794758D01*
X133411137Y-70799685D01*
X133407018Y-70804229D01*
X133402474Y-70808348D01*
X133397547Y-70812002D01*
X133392286Y-70815155D01*
X133386742Y-70817777D01*
X133380967Y-70819844D01*
X133375017Y-70821334D01*
X133368950Y-70822234D01*
X133362824Y-70822535D01*
X132712824Y-70822535D01*
X132706698Y-70822234D01*
X132700631Y-70821334D01*
X132694681Y-70819844D01*
X132688906Y-70817777D01*
X132683362Y-70815155D01*
X132678101Y-70812002D01*
X132673174Y-70808348D01*
X132668630Y-70804229D01*
X132664511Y-70799685D01*
X132660857Y-70794758D01*
X132657704Y-70789497D01*
X132655082Y-70783953D01*
X132653015Y-70778178D01*
X132651525Y-70772228D01*
X132650625Y-70766161D01*
X132650324Y-70760035D01*
X132650324Y-70635035D01*
X132650625Y-70628909D01*
X132651525Y-70622842D01*
X132653015Y-70616892D01*
X132655082Y-70611117D01*
X132657704Y-70605573D01*
X132660857Y-70600312D01*
X132664511Y-70595385D01*
X132668630Y-70590841D01*
X132673174Y-70586722D01*
X132678101Y-70583068D01*
X132683362Y-70579915D01*
X132688906Y-70577293D01*
X132694681Y-70575226D01*
X132700631Y-70573736D01*
X132706698Y-70572836D01*
X132712824Y-70572535D01*
X133362824Y-70572535D01*
X133368950Y-70572836D01*
X133368950Y-70572836D01*
G37*
D11*
X133037824Y-70697535D03*
D10*
G36*
X133368950Y-70072836D02*
X133375017Y-70073736D01*
X133380967Y-70075226D01*
X133386742Y-70077293D01*
X133392286Y-70079915D01*
X133397547Y-70083068D01*
X133402474Y-70086722D01*
X133407018Y-70090841D01*
X133411137Y-70095385D01*
X133414791Y-70100312D01*
X133417944Y-70105573D01*
X133420566Y-70111117D01*
X133422633Y-70116892D01*
X133424123Y-70122842D01*
X133425023Y-70128909D01*
X133425324Y-70135035D01*
X133425324Y-70260035D01*
X133425023Y-70266161D01*
X133424123Y-70272228D01*
X133422633Y-70278178D01*
X133420566Y-70283953D01*
X133417944Y-70289497D01*
X133414791Y-70294758D01*
X133411137Y-70299685D01*
X133407018Y-70304229D01*
X133402474Y-70308348D01*
X133397547Y-70312002D01*
X133392286Y-70315155D01*
X133386742Y-70317777D01*
X133380967Y-70319844D01*
X133375017Y-70321334D01*
X133368950Y-70322234D01*
X133362824Y-70322535D01*
X132712824Y-70322535D01*
X132706698Y-70322234D01*
X132700631Y-70321334D01*
X132694681Y-70319844D01*
X132688906Y-70317777D01*
X132683362Y-70315155D01*
X132678101Y-70312002D01*
X132673174Y-70308348D01*
X132668630Y-70304229D01*
X132664511Y-70299685D01*
X132660857Y-70294758D01*
X132657704Y-70289497D01*
X132655082Y-70283953D01*
X132653015Y-70278178D01*
X132651525Y-70272228D01*
X132650625Y-70266161D01*
X132650324Y-70260035D01*
X132650324Y-70135035D01*
X132650625Y-70128909D01*
X132651525Y-70122842D01*
X132653015Y-70116892D01*
X132655082Y-70111117D01*
X132657704Y-70105573D01*
X132660857Y-70100312D01*
X132664511Y-70095385D01*
X132668630Y-70090841D01*
X132673174Y-70086722D01*
X132678101Y-70083068D01*
X132683362Y-70079915D01*
X132688906Y-70077293D01*
X132694681Y-70075226D01*
X132700631Y-70073736D01*
X132706698Y-70072836D01*
X132712824Y-70072535D01*
X133362824Y-70072535D01*
X133368950Y-70072836D01*
X133368950Y-70072836D01*
G37*
D11*
X133037824Y-70197535D03*
D10*
G36*
X133368951Y-69572836D02*
X133375018Y-69573736D01*
X133380968Y-69575226D01*
X133386743Y-69577293D01*
X133392287Y-69579915D01*
X133397548Y-69583068D01*
X133402475Y-69586722D01*
X133407019Y-69590841D01*
X133411138Y-69595385D01*
X133414792Y-69600312D01*
X133417945Y-69605573D01*
X133420567Y-69611117D01*
X133422634Y-69616892D01*
X133424124Y-69622842D01*
X133425024Y-69628909D01*
X133425325Y-69635035D01*
X133425325Y-69760035D01*
X133425024Y-69766161D01*
X133424124Y-69772228D01*
X133422634Y-69778178D01*
X133420567Y-69783953D01*
X133417945Y-69789497D01*
X133414792Y-69794758D01*
X133411138Y-69799685D01*
X133407019Y-69804229D01*
X133402475Y-69808348D01*
X133397548Y-69812002D01*
X133392287Y-69815155D01*
X133386743Y-69817777D01*
X133380968Y-69819844D01*
X133375018Y-69821334D01*
X133368951Y-69822234D01*
X133362825Y-69822535D01*
X132712825Y-69822535D01*
X132706699Y-69822234D01*
X132700632Y-69821334D01*
X132694682Y-69819844D01*
X132688907Y-69817777D01*
X132683363Y-69815155D01*
X132678102Y-69812002D01*
X132673175Y-69808348D01*
X132668631Y-69804229D01*
X132664512Y-69799685D01*
X132660858Y-69794758D01*
X132657705Y-69789497D01*
X132655083Y-69783953D01*
X132653016Y-69778178D01*
X132651526Y-69772228D01*
X132650626Y-69766161D01*
X132650325Y-69760035D01*
X132650325Y-69635035D01*
X132650626Y-69628909D01*
X132651526Y-69622842D01*
X132653016Y-69616892D01*
X132655083Y-69611117D01*
X132657705Y-69605573D01*
X132660858Y-69600312D01*
X132664512Y-69595385D01*
X132668631Y-69590841D01*
X132673175Y-69586722D01*
X132678102Y-69583068D01*
X132683363Y-69579915D01*
X132688907Y-69577293D01*
X132694682Y-69575226D01*
X132700632Y-69573736D01*
X132706699Y-69572836D01*
X132712825Y-69572535D01*
X133362825Y-69572535D01*
X133368951Y-69572836D01*
X133368951Y-69572836D01*
G37*
D11*
X133037825Y-69697535D03*
D10*
G36*
X133368950Y-69072836D02*
X133375017Y-69073736D01*
X133380967Y-69075226D01*
X133386742Y-69077293D01*
X133392286Y-69079915D01*
X133397547Y-69083068D01*
X133402474Y-69086722D01*
X133407018Y-69090841D01*
X133411137Y-69095385D01*
X133414791Y-69100312D01*
X133417944Y-69105573D01*
X133420566Y-69111117D01*
X133422633Y-69116892D01*
X133424123Y-69122842D01*
X133425023Y-69128909D01*
X133425324Y-69135035D01*
X133425324Y-69260035D01*
X133425023Y-69266161D01*
X133424123Y-69272228D01*
X133422633Y-69278178D01*
X133420566Y-69283953D01*
X133417944Y-69289497D01*
X133414791Y-69294758D01*
X133411137Y-69299685D01*
X133407018Y-69304229D01*
X133402474Y-69308348D01*
X133397547Y-69312002D01*
X133392286Y-69315155D01*
X133386742Y-69317777D01*
X133380967Y-69319844D01*
X133375017Y-69321334D01*
X133368950Y-69322234D01*
X133362824Y-69322535D01*
X132712824Y-69322535D01*
X132706698Y-69322234D01*
X132700631Y-69321334D01*
X132694681Y-69319844D01*
X132688906Y-69317777D01*
X132683362Y-69315155D01*
X132678101Y-69312002D01*
X132673174Y-69308348D01*
X132668630Y-69304229D01*
X132664511Y-69299685D01*
X132660857Y-69294758D01*
X132657704Y-69289497D01*
X132655082Y-69283953D01*
X132653015Y-69278178D01*
X132651525Y-69272228D01*
X132650625Y-69266161D01*
X132650324Y-69260035D01*
X132650324Y-69135035D01*
X132650625Y-69128909D01*
X132651525Y-69122842D01*
X132653015Y-69116892D01*
X132655082Y-69111117D01*
X132657704Y-69105573D01*
X132660857Y-69100312D01*
X132664511Y-69095385D01*
X132668630Y-69090841D01*
X132673174Y-69086722D01*
X132678101Y-69083068D01*
X132683362Y-69079915D01*
X132688906Y-69077293D01*
X132694681Y-69075226D01*
X132700631Y-69073736D01*
X132706698Y-69072836D01*
X132712824Y-69072535D01*
X133362824Y-69072535D01*
X133368950Y-69072836D01*
X133368950Y-69072836D01*
G37*
D11*
X133037824Y-69197535D03*
D10*
G36*
X134145450Y-68572836D02*
X134151517Y-68573736D01*
X134157467Y-68575226D01*
X134163242Y-68577293D01*
X134168786Y-68579915D01*
X134174047Y-68583068D01*
X134178974Y-68586722D01*
X134183518Y-68590841D01*
X134187637Y-68595385D01*
X134191291Y-68600312D01*
X134194444Y-68605573D01*
X134197066Y-68611117D01*
X134199133Y-68616892D01*
X134200623Y-68622842D01*
X134201523Y-68628909D01*
X134201824Y-68635035D01*
X134201824Y-68760035D01*
X134201523Y-68766161D01*
X134200623Y-68772228D01*
X134199133Y-68778178D01*
X134197066Y-68783953D01*
X134194444Y-68789497D01*
X134191291Y-68794758D01*
X134187637Y-68799685D01*
X134183518Y-68804229D01*
X134178974Y-68808348D01*
X134174047Y-68812002D01*
X134168786Y-68815155D01*
X134163242Y-68817777D01*
X134157467Y-68819844D01*
X134151517Y-68821334D01*
X134145450Y-68822234D01*
X134139324Y-68822535D01*
X132714324Y-68822535D01*
X132708198Y-68822234D01*
X132702131Y-68821334D01*
X132696181Y-68819844D01*
X132690406Y-68817777D01*
X132684862Y-68815155D01*
X132679601Y-68812002D01*
X132674674Y-68808348D01*
X132670130Y-68804229D01*
X132666011Y-68799685D01*
X132662357Y-68794758D01*
X132659204Y-68789497D01*
X132656582Y-68783953D01*
X132654515Y-68778178D01*
X132653025Y-68772228D01*
X132652125Y-68766161D01*
X132651824Y-68760035D01*
X132651824Y-68635035D01*
X132652125Y-68628909D01*
X132653025Y-68622842D01*
X132654515Y-68616892D01*
X132656582Y-68611117D01*
X132659204Y-68605573D01*
X132662357Y-68600312D01*
X132666011Y-68595385D01*
X132670130Y-68590841D01*
X132674674Y-68586722D01*
X132679601Y-68583068D01*
X132684862Y-68579915D01*
X132690406Y-68577293D01*
X132696181Y-68575226D01*
X132702131Y-68573736D01*
X132708198Y-68572836D01*
X132714324Y-68572535D01*
X134139324Y-68572535D01*
X134145450Y-68572836D01*
X134145450Y-68572836D01*
G37*
D11*
X133426824Y-68697535D03*
D10*
G36*
X133368950Y-68072836D02*
X133375017Y-68073736D01*
X133380967Y-68075226D01*
X133386742Y-68077293D01*
X133392286Y-68079915D01*
X133397547Y-68083068D01*
X133402474Y-68086722D01*
X133407018Y-68090841D01*
X133411137Y-68095385D01*
X133414791Y-68100312D01*
X133417944Y-68105573D01*
X133420566Y-68111117D01*
X133422633Y-68116892D01*
X133424123Y-68122842D01*
X133425023Y-68128909D01*
X133425324Y-68135035D01*
X133425324Y-68260035D01*
X133425023Y-68266161D01*
X133424123Y-68272228D01*
X133422633Y-68278178D01*
X133420566Y-68283953D01*
X133417944Y-68289497D01*
X133414791Y-68294758D01*
X133411137Y-68299685D01*
X133407018Y-68304229D01*
X133402474Y-68308348D01*
X133397547Y-68312002D01*
X133392286Y-68315155D01*
X133386742Y-68317777D01*
X133380967Y-68319844D01*
X133375017Y-68321334D01*
X133368950Y-68322234D01*
X133362824Y-68322535D01*
X132712824Y-68322535D01*
X132706698Y-68322234D01*
X132700631Y-68321334D01*
X132694681Y-68319844D01*
X132688906Y-68317777D01*
X132683362Y-68315155D01*
X132678101Y-68312002D01*
X132673174Y-68308348D01*
X132668630Y-68304229D01*
X132664511Y-68299685D01*
X132660857Y-68294758D01*
X132657704Y-68289497D01*
X132655082Y-68283953D01*
X132653015Y-68278178D01*
X132651525Y-68272228D01*
X132650625Y-68266161D01*
X132650324Y-68260035D01*
X132650324Y-68135035D01*
X132650625Y-68128909D01*
X132651525Y-68122842D01*
X132653015Y-68116892D01*
X132655082Y-68111117D01*
X132657704Y-68105573D01*
X132660857Y-68100312D01*
X132664511Y-68095385D01*
X132668630Y-68090841D01*
X132673174Y-68086722D01*
X132678101Y-68083068D01*
X132683362Y-68079915D01*
X132688906Y-68077293D01*
X132694681Y-68075226D01*
X132700631Y-68073736D01*
X132706698Y-68072836D01*
X132712824Y-68072535D01*
X133362824Y-68072535D01*
X133368950Y-68072836D01*
X133368950Y-68072836D01*
G37*
D11*
X133037824Y-68197535D03*
D12*
X138812824Y-73235035D03*
D10*
G36*
X139044614Y-73466825D02*
X138581034Y-73466825D01*
X138581034Y-73174668D01*
X138752457Y-73003245D01*
X139044614Y-73003245D01*
X139044614Y-73466825D01*
X139044614Y-73466825D01*
G37*
D12*
X138812824Y-68660035D03*
D10*
G36*
X139044614Y-68891825D02*
X138752457Y-68891825D01*
X138581034Y-68720402D01*
X138581034Y-68428245D01*
X139044614Y-68428245D01*
X139044614Y-68891825D01*
X139044614Y-68891825D01*
G37*
D12*
X134237824Y-73235035D03*
D10*
G36*
X134469614Y-73174668D02*
X134469614Y-73466825D01*
X134006034Y-73466825D01*
X134006034Y-73003245D01*
X134298191Y-73003245D01*
X134469614Y-73174668D01*
X134469614Y-73174668D01*
G37*
D12*
X134237824Y-68660035D03*
D10*
G36*
X134469614Y-68720402D02*
X134298191Y-68891825D01*
X134006034Y-68891825D01*
X134006034Y-68428245D01*
X134469614Y-68428245D01*
X134469614Y-68720402D01*
X134469614Y-68720402D01*
G37*
D13*
X138025324Y-73235035D03*
D10*
G36*
X138428437Y-73133491D02*
X138428437Y-73466825D01*
X137622211Y-73466825D01*
X137622211Y-73133491D01*
X137752457Y-73003245D01*
X138298191Y-73003245D01*
X138428437Y-73133491D01*
X138428437Y-73133491D01*
G37*
D13*
X137025324Y-73235035D03*
D10*
G36*
X137428437Y-73133491D02*
X137428437Y-73466825D01*
X136622211Y-73466825D01*
X136622211Y-73133491D01*
X136752457Y-73003245D01*
X137298191Y-73003245D01*
X137428437Y-73133491D01*
X137428437Y-73133491D01*
G37*
D13*
X136025324Y-73235035D03*
D10*
G36*
X136428437Y-73133491D02*
X136428437Y-73466825D01*
X135622211Y-73466825D01*
X135622211Y-73133491D01*
X135752457Y-73003245D01*
X136298191Y-73003245D01*
X136428437Y-73133491D01*
X136428437Y-73133491D01*
G37*
D13*
X135025324Y-73235035D03*
D10*
G36*
X135428437Y-73133491D02*
X135428437Y-73466825D01*
X134622211Y-73466825D01*
X134622211Y-73133491D01*
X134752457Y-73003245D01*
X135298191Y-73003245D01*
X135428437Y-73133491D01*
X135428437Y-73133491D01*
G37*
D13*
X138025324Y-68660035D03*
D10*
G36*
X138428437Y-68761579D02*
X138298191Y-68891825D01*
X137752457Y-68891825D01*
X137622211Y-68761579D01*
X137622211Y-68428245D01*
X138428437Y-68428245D01*
X138428437Y-68761579D01*
X138428437Y-68761579D01*
G37*
D13*
X137025324Y-68660035D03*
D10*
G36*
X137428437Y-68761579D02*
X137298191Y-68891825D01*
X136752457Y-68891825D01*
X136622211Y-68761579D01*
X136622211Y-68428245D01*
X137428437Y-68428245D01*
X137428437Y-68761579D01*
X137428437Y-68761579D01*
G37*
D13*
X136025324Y-68660035D03*
D10*
G36*
X136428437Y-68761579D02*
X136298191Y-68891825D01*
X135752457Y-68891825D01*
X135622211Y-68761579D01*
X135622211Y-68428245D01*
X136428437Y-68428245D01*
X136428437Y-68761579D01*
X136428437Y-68761579D01*
G37*
D13*
X135025324Y-68660035D03*
D10*
G36*
X135428437Y-68761579D02*
X135298191Y-68891825D01*
X134752457Y-68891825D01*
X134622211Y-68761579D01*
X134622211Y-68428245D01*
X135428437Y-68428245D01*
X135428437Y-68761579D01*
X135428437Y-68761579D01*
G37*
D13*
X138812824Y-72447535D03*
D10*
G36*
X139044614Y-72850648D02*
X138711280Y-72850648D01*
X138581034Y-72720402D01*
X138581034Y-72174668D01*
X138711280Y-72044422D01*
X139044614Y-72044422D01*
X139044614Y-72850648D01*
X139044614Y-72850648D01*
G37*
D13*
X138812824Y-71447535D03*
D10*
G36*
X139044614Y-71850648D02*
X138711280Y-71850648D01*
X138581034Y-71720402D01*
X138581034Y-71174668D01*
X138711280Y-71044422D01*
X139044614Y-71044422D01*
X139044614Y-71850648D01*
X139044614Y-71850648D01*
G37*
D13*
X138812824Y-70447535D03*
D10*
G36*
X139044614Y-70850648D02*
X138711280Y-70850648D01*
X138581034Y-70720402D01*
X138581034Y-70174668D01*
X138711280Y-70044422D01*
X139044614Y-70044422D01*
X139044614Y-70850648D01*
X139044614Y-70850648D01*
G37*
D13*
X138812824Y-69447535D03*
D10*
G36*
X139044614Y-69850648D02*
X138711280Y-69850648D01*
X138581034Y-69720402D01*
X138581034Y-69174668D01*
X138711280Y-69044422D01*
X139044614Y-69044422D01*
X139044614Y-69850648D01*
X139044614Y-69850648D01*
G37*
D13*
X134237824Y-72447535D03*
D10*
G36*
X134469614Y-72174668D02*
X134469614Y-72720402D01*
X134339368Y-72850648D01*
X134006034Y-72850648D01*
X134006034Y-72044422D01*
X134339368Y-72044422D01*
X134469614Y-72174668D01*
X134469614Y-72174668D01*
G37*
D13*
X134237824Y-71447535D03*
D10*
G36*
X134469614Y-71174668D02*
X134469614Y-71720402D01*
X134339368Y-71850648D01*
X134006034Y-71850648D01*
X134006034Y-71044422D01*
X134339368Y-71044422D01*
X134469614Y-71174668D01*
X134469614Y-71174668D01*
G37*
D13*
X134237824Y-70447535D03*
D10*
G36*
X134469614Y-70174668D02*
X134469614Y-70720402D01*
X134339368Y-70850648D01*
X134006034Y-70850648D01*
X134006034Y-70044422D01*
X134339368Y-70044422D01*
X134469614Y-70174668D01*
X134469614Y-70174668D01*
G37*
D13*
X134237824Y-69447535D03*
D10*
G36*
X134469614Y-69174668D02*
X134469614Y-69720402D01*
X134339368Y-69850648D01*
X134006034Y-69850648D01*
X134006034Y-69044422D01*
X134339368Y-69044422D01*
X134469614Y-69174668D01*
X134469614Y-69174668D01*
G37*
G36*
X138246637Y-72045393D02*
X138266203Y-72048295D01*
X138285390Y-72053101D01*
X138304013Y-72059765D01*
X138321894Y-72068221D01*
X138338860Y-72078390D01*
X138354747Y-72090173D01*
X138369403Y-72103456D01*
X138382686Y-72118112D01*
X138394469Y-72133999D01*
X138404638Y-72150965D01*
X138413094Y-72168846D01*
X138419758Y-72187469D01*
X138424564Y-72206656D01*
X138427466Y-72226222D01*
X138428437Y-72245978D01*
X138428437Y-72649092D01*
X138427466Y-72668848D01*
X138424564Y-72688414D01*
X138419758Y-72707601D01*
X138413094Y-72726224D01*
X138404638Y-72744105D01*
X138394469Y-72761071D01*
X138382686Y-72776958D01*
X138369403Y-72791614D01*
X138354747Y-72804897D01*
X138338860Y-72816680D01*
X138321894Y-72826849D01*
X138304013Y-72835305D01*
X138285390Y-72841969D01*
X138266203Y-72846775D01*
X138246637Y-72849677D01*
X138226881Y-72850648D01*
X137823767Y-72850648D01*
X137804011Y-72849677D01*
X137784445Y-72846775D01*
X137765258Y-72841969D01*
X137746635Y-72835305D01*
X137728754Y-72826849D01*
X137711788Y-72816680D01*
X137695901Y-72804897D01*
X137681245Y-72791614D01*
X137667962Y-72776958D01*
X137656179Y-72761071D01*
X137646010Y-72744105D01*
X137637554Y-72726224D01*
X137630890Y-72707601D01*
X137626084Y-72688414D01*
X137623182Y-72668848D01*
X137622211Y-72649092D01*
X137622211Y-72245978D01*
X137623182Y-72226222D01*
X137626084Y-72206656D01*
X137630890Y-72187469D01*
X137637554Y-72168846D01*
X137646010Y-72150965D01*
X137656179Y-72133999D01*
X137667962Y-72118112D01*
X137681245Y-72103456D01*
X137695901Y-72090173D01*
X137711788Y-72078390D01*
X137728754Y-72068221D01*
X137746635Y-72059765D01*
X137765258Y-72053101D01*
X137784445Y-72048295D01*
X137804011Y-72045393D01*
X137823767Y-72044422D01*
X138226881Y-72044422D01*
X138246637Y-72045393D01*
X138246637Y-72045393D01*
G37*
D14*
X138025324Y-72447535D03*
D10*
G36*
X138246637Y-71045393D02*
X138266203Y-71048295D01*
X138285390Y-71053101D01*
X138304013Y-71059765D01*
X138321894Y-71068221D01*
X138338860Y-71078390D01*
X138354747Y-71090173D01*
X138369403Y-71103456D01*
X138382686Y-71118112D01*
X138394469Y-71133999D01*
X138404638Y-71150965D01*
X138413094Y-71168846D01*
X138419758Y-71187469D01*
X138424564Y-71206656D01*
X138427466Y-71226222D01*
X138428437Y-71245978D01*
X138428437Y-71649092D01*
X138427466Y-71668848D01*
X138424564Y-71688414D01*
X138419758Y-71707601D01*
X138413094Y-71726224D01*
X138404638Y-71744105D01*
X138394469Y-71761071D01*
X138382686Y-71776958D01*
X138369403Y-71791614D01*
X138354747Y-71804897D01*
X138338860Y-71816680D01*
X138321894Y-71826849D01*
X138304013Y-71835305D01*
X138285390Y-71841969D01*
X138266203Y-71846775D01*
X138246637Y-71849677D01*
X138226881Y-71850648D01*
X137823767Y-71850648D01*
X137804011Y-71849677D01*
X137784445Y-71846775D01*
X137765258Y-71841969D01*
X137746635Y-71835305D01*
X137728754Y-71826849D01*
X137711788Y-71816680D01*
X137695901Y-71804897D01*
X137681245Y-71791614D01*
X137667962Y-71776958D01*
X137656179Y-71761071D01*
X137646010Y-71744105D01*
X137637554Y-71726224D01*
X137630890Y-71707601D01*
X137626084Y-71688414D01*
X137623182Y-71668848D01*
X137622211Y-71649092D01*
X137622211Y-71245978D01*
X137623182Y-71226222D01*
X137626084Y-71206656D01*
X137630890Y-71187469D01*
X137637554Y-71168846D01*
X137646010Y-71150965D01*
X137656179Y-71133999D01*
X137667962Y-71118112D01*
X137681245Y-71103456D01*
X137695901Y-71090173D01*
X137711788Y-71078390D01*
X137728754Y-71068221D01*
X137746635Y-71059765D01*
X137765258Y-71053101D01*
X137784445Y-71048295D01*
X137804011Y-71045393D01*
X137823767Y-71044422D01*
X138226881Y-71044422D01*
X138246637Y-71045393D01*
X138246637Y-71045393D01*
G37*
D14*
X138025324Y-71447535D03*
D10*
G36*
X138246637Y-70045393D02*
X138266203Y-70048295D01*
X138285390Y-70053101D01*
X138304013Y-70059765D01*
X138321894Y-70068221D01*
X138338860Y-70078390D01*
X138354747Y-70090173D01*
X138369403Y-70103456D01*
X138382686Y-70118112D01*
X138394469Y-70133999D01*
X138404638Y-70150965D01*
X138413094Y-70168846D01*
X138419758Y-70187469D01*
X138424564Y-70206656D01*
X138427466Y-70226222D01*
X138428437Y-70245978D01*
X138428437Y-70649092D01*
X138427466Y-70668848D01*
X138424564Y-70688414D01*
X138419758Y-70707601D01*
X138413094Y-70726224D01*
X138404638Y-70744105D01*
X138394469Y-70761071D01*
X138382686Y-70776958D01*
X138369403Y-70791614D01*
X138354747Y-70804897D01*
X138338860Y-70816680D01*
X138321894Y-70826849D01*
X138304013Y-70835305D01*
X138285390Y-70841969D01*
X138266203Y-70846775D01*
X138246637Y-70849677D01*
X138226881Y-70850648D01*
X137823767Y-70850648D01*
X137804011Y-70849677D01*
X137784445Y-70846775D01*
X137765258Y-70841969D01*
X137746635Y-70835305D01*
X137728754Y-70826849D01*
X137711788Y-70816680D01*
X137695901Y-70804897D01*
X137681245Y-70791614D01*
X137667962Y-70776958D01*
X137656179Y-70761071D01*
X137646010Y-70744105D01*
X137637554Y-70726224D01*
X137630890Y-70707601D01*
X137626084Y-70688414D01*
X137623182Y-70668848D01*
X137622211Y-70649092D01*
X137622211Y-70245978D01*
X137623182Y-70226222D01*
X137626084Y-70206656D01*
X137630890Y-70187469D01*
X137637554Y-70168846D01*
X137646010Y-70150965D01*
X137656179Y-70133999D01*
X137667962Y-70118112D01*
X137681245Y-70103456D01*
X137695901Y-70090173D01*
X137711788Y-70078390D01*
X137728754Y-70068221D01*
X137746635Y-70059765D01*
X137765258Y-70053101D01*
X137784445Y-70048295D01*
X137804011Y-70045393D01*
X137823767Y-70044422D01*
X138226881Y-70044422D01*
X138246637Y-70045393D01*
X138246637Y-70045393D01*
G37*
D14*
X138025324Y-70447535D03*
D10*
G36*
X138246637Y-69045393D02*
X138266203Y-69048295D01*
X138285390Y-69053101D01*
X138304013Y-69059765D01*
X138321894Y-69068221D01*
X138338860Y-69078390D01*
X138354747Y-69090173D01*
X138369403Y-69103456D01*
X138382686Y-69118112D01*
X138394469Y-69133999D01*
X138404638Y-69150965D01*
X138413094Y-69168846D01*
X138419758Y-69187469D01*
X138424564Y-69206656D01*
X138427466Y-69226222D01*
X138428437Y-69245978D01*
X138428437Y-69649092D01*
X138427466Y-69668848D01*
X138424564Y-69688414D01*
X138419758Y-69707601D01*
X138413094Y-69726224D01*
X138404638Y-69744105D01*
X138394469Y-69761071D01*
X138382686Y-69776958D01*
X138369403Y-69791614D01*
X138354747Y-69804897D01*
X138338860Y-69816680D01*
X138321894Y-69826849D01*
X138304013Y-69835305D01*
X138285390Y-69841969D01*
X138266203Y-69846775D01*
X138246637Y-69849677D01*
X138226881Y-69850648D01*
X137823767Y-69850648D01*
X137804011Y-69849677D01*
X137784445Y-69846775D01*
X137765258Y-69841969D01*
X137746635Y-69835305D01*
X137728754Y-69826849D01*
X137711788Y-69816680D01*
X137695901Y-69804897D01*
X137681245Y-69791614D01*
X137667962Y-69776958D01*
X137656179Y-69761071D01*
X137646010Y-69744105D01*
X137637554Y-69726224D01*
X137630890Y-69707601D01*
X137626084Y-69688414D01*
X137623182Y-69668848D01*
X137622211Y-69649092D01*
X137622211Y-69245978D01*
X137623182Y-69226222D01*
X137626084Y-69206656D01*
X137630890Y-69187469D01*
X137637554Y-69168846D01*
X137646010Y-69150965D01*
X137656179Y-69133999D01*
X137667962Y-69118112D01*
X137681245Y-69103456D01*
X137695901Y-69090173D01*
X137711788Y-69078390D01*
X137728754Y-69068221D01*
X137746635Y-69059765D01*
X137765258Y-69053101D01*
X137784445Y-69048295D01*
X137804011Y-69045393D01*
X137823767Y-69044422D01*
X138226881Y-69044422D01*
X138246637Y-69045393D01*
X138246637Y-69045393D01*
G37*
D14*
X138025324Y-69447535D03*
D10*
G36*
X137246637Y-72045393D02*
X137266203Y-72048295D01*
X137285390Y-72053101D01*
X137304013Y-72059765D01*
X137321894Y-72068221D01*
X137338860Y-72078390D01*
X137354747Y-72090173D01*
X137369403Y-72103456D01*
X137382686Y-72118112D01*
X137394469Y-72133999D01*
X137404638Y-72150965D01*
X137413094Y-72168846D01*
X137419758Y-72187469D01*
X137424564Y-72206656D01*
X137427466Y-72226222D01*
X137428437Y-72245978D01*
X137428437Y-72649092D01*
X137427466Y-72668848D01*
X137424564Y-72688414D01*
X137419758Y-72707601D01*
X137413094Y-72726224D01*
X137404638Y-72744105D01*
X137394469Y-72761071D01*
X137382686Y-72776958D01*
X137369403Y-72791614D01*
X137354747Y-72804897D01*
X137338860Y-72816680D01*
X137321894Y-72826849D01*
X137304013Y-72835305D01*
X137285390Y-72841969D01*
X137266203Y-72846775D01*
X137246637Y-72849677D01*
X137226881Y-72850648D01*
X136823767Y-72850648D01*
X136804011Y-72849677D01*
X136784445Y-72846775D01*
X136765258Y-72841969D01*
X136746635Y-72835305D01*
X136728754Y-72826849D01*
X136711788Y-72816680D01*
X136695901Y-72804897D01*
X136681245Y-72791614D01*
X136667962Y-72776958D01*
X136656179Y-72761071D01*
X136646010Y-72744105D01*
X136637554Y-72726224D01*
X136630890Y-72707601D01*
X136626084Y-72688414D01*
X136623182Y-72668848D01*
X136622211Y-72649092D01*
X136622211Y-72245978D01*
X136623182Y-72226222D01*
X136626084Y-72206656D01*
X136630890Y-72187469D01*
X136637554Y-72168846D01*
X136646010Y-72150965D01*
X136656179Y-72133999D01*
X136667962Y-72118112D01*
X136681245Y-72103456D01*
X136695901Y-72090173D01*
X136711788Y-72078390D01*
X136728754Y-72068221D01*
X136746635Y-72059765D01*
X136765258Y-72053101D01*
X136784445Y-72048295D01*
X136804011Y-72045393D01*
X136823767Y-72044422D01*
X137226881Y-72044422D01*
X137246637Y-72045393D01*
X137246637Y-72045393D01*
G37*
D14*
X137025324Y-72447535D03*
D10*
G36*
X137246637Y-71045393D02*
X137266203Y-71048295D01*
X137285390Y-71053101D01*
X137304013Y-71059765D01*
X137321894Y-71068221D01*
X137338860Y-71078390D01*
X137354747Y-71090173D01*
X137369403Y-71103456D01*
X137382686Y-71118112D01*
X137394469Y-71133999D01*
X137404638Y-71150965D01*
X137413094Y-71168846D01*
X137419758Y-71187469D01*
X137424564Y-71206656D01*
X137427466Y-71226222D01*
X137428437Y-71245978D01*
X137428437Y-71649092D01*
X137427466Y-71668848D01*
X137424564Y-71688414D01*
X137419758Y-71707601D01*
X137413094Y-71726224D01*
X137404638Y-71744105D01*
X137394469Y-71761071D01*
X137382686Y-71776958D01*
X137369403Y-71791614D01*
X137354747Y-71804897D01*
X137338860Y-71816680D01*
X137321894Y-71826849D01*
X137304013Y-71835305D01*
X137285390Y-71841969D01*
X137266203Y-71846775D01*
X137246637Y-71849677D01*
X137226881Y-71850648D01*
X136823767Y-71850648D01*
X136804011Y-71849677D01*
X136784445Y-71846775D01*
X136765258Y-71841969D01*
X136746635Y-71835305D01*
X136728754Y-71826849D01*
X136711788Y-71816680D01*
X136695901Y-71804897D01*
X136681245Y-71791614D01*
X136667962Y-71776958D01*
X136656179Y-71761071D01*
X136646010Y-71744105D01*
X136637554Y-71726224D01*
X136630890Y-71707601D01*
X136626084Y-71688414D01*
X136623182Y-71668848D01*
X136622211Y-71649092D01*
X136622211Y-71245978D01*
X136623182Y-71226222D01*
X136626084Y-71206656D01*
X136630890Y-71187469D01*
X136637554Y-71168846D01*
X136646010Y-71150965D01*
X136656179Y-71133999D01*
X136667962Y-71118112D01*
X136681245Y-71103456D01*
X136695901Y-71090173D01*
X136711788Y-71078390D01*
X136728754Y-71068221D01*
X136746635Y-71059765D01*
X136765258Y-71053101D01*
X136784445Y-71048295D01*
X136804011Y-71045393D01*
X136823767Y-71044422D01*
X137226881Y-71044422D01*
X137246637Y-71045393D01*
X137246637Y-71045393D01*
G37*
D14*
X137025324Y-71447535D03*
D10*
G36*
X137246637Y-70045393D02*
X137266203Y-70048295D01*
X137285390Y-70053101D01*
X137304013Y-70059765D01*
X137321894Y-70068221D01*
X137338860Y-70078390D01*
X137354747Y-70090173D01*
X137369403Y-70103456D01*
X137382686Y-70118112D01*
X137394469Y-70133999D01*
X137404638Y-70150965D01*
X137413094Y-70168846D01*
X137419758Y-70187469D01*
X137424564Y-70206656D01*
X137427466Y-70226222D01*
X137428437Y-70245978D01*
X137428437Y-70649092D01*
X137427466Y-70668848D01*
X137424564Y-70688414D01*
X137419758Y-70707601D01*
X137413094Y-70726224D01*
X137404638Y-70744105D01*
X137394469Y-70761071D01*
X137382686Y-70776958D01*
X137369403Y-70791614D01*
X137354747Y-70804897D01*
X137338860Y-70816680D01*
X137321894Y-70826849D01*
X137304013Y-70835305D01*
X137285390Y-70841969D01*
X137266203Y-70846775D01*
X137246637Y-70849677D01*
X137226881Y-70850648D01*
X136823767Y-70850648D01*
X136804011Y-70849677D01*
X136784445Y-70846775D01*
X136765258Y-70841969D01*
X136746635Y-70835305D01*
X136728754Y-70826849D01*
X136711788Y-70816680D01*
X136695901Y-70804897D01*
X136681245Y-70791614D01*
X136667962Y-70776958D01*
X136656179Y-70761071D01*
X136646010Y-70744105D01*
X136637554Y-70726224D01*
X136630890Y-70707601D01*
X136626084Y-70688414D01*
X136623182Y-70668848D01*
X136622211Y-70649092D01*
X136622211Y-70245978D01*
X136623182Y-70226222D01*
X136626084Y-70206656D01*
X136630890Y-70187469D01*
X136637554Y-70168846D01*
X136646010Y-70150965D01*
X136656179Y-70133999D01*
X136667962Y-70118112D01*
X136681245Y-70103456D01*
X136695901Y-70090173D01*
X136711788Y-70078390D01*
X136728754Y-70068221D01*
X136746635Y-70059765D01*
X136765258Y-70053101D01*
X136784445Y-70048295D01*
X136804011Y-70045393D01*
X136823767Y-70044422D01*
X137226881Y-70044422D01*
X137246637Y-70045393D01*
X137246637Y-70045393D01*
G37*
D14*
X137025324Y-70447535D03*
D10*
G36*
X137246637Y-69045393D02*
X137266203Y-69048295D01*
X137285390Y-69053101D01*
X137304013Y-69059765D01*
X137321894Y-69068221D01*
X137338860Y-69078390D01*
X137354747Y-69090173D01*
X137369403Y-69103456D01*
X137382686Y-69118112D01*
X137394469Y-69133999D01*
X137404638Y-69150965D01*
X137413094Y-69168846D01*
X137419758Y-69187469D01*
X137424564Y-69206656D01*
X137427466Y-69226222D01*
X137428437Y-69245978D01*
X137428437Y-69649092D01*
X137427466Y-69668848D01*
X137424564Y-69688414D01*
X137419758Y-69707601D01*
X137413094Y-69726224D01*
X137404638Y-69744105D01*
X137394469Y-69761071D01*
X137382686Y-69776958D01*
X137369403Y-69791614D01*
X137354747Y-69804897D01*
X137338860Y-69816680D01*
X137321894Y-69826849D01*
X137304013Y-69835305D01*
X137285390Y-69841969D01*
X137266203Y-69846775D01*
X137246637Y-69849677D01*
X137226881Y-69850648D01*
X136823767Y-69850648D01*
X136804011Y-69849677D01*
X136784445Y-69846775D01*
X136765258Y-69841969D01*
X136746635Y-69835305D01*
X136728754Y-69826849D01*
X136711788Y-69816680D01*
X136695901Y-69804897D01*
X136681245Y-69791614D01*
X136667962Y-69776958D01*
X136656179Y-69761071D01*
X136646010Y-69744105D01*
X136637554Y-69726224D01*
X136630890Y-69707601D01*
X136626084Y-69688414D01*
X136623182Y-69668848D01*
X136622211Y-69649092D01*
X136622211Y-69245978D01*
X136623182Y-69226222D01*
X136626084Y-69206656D01*
X136630890Y-69187469D01*
X136637554Y-69168846D01*
X136646010Y-69150965D01*
X136656179Y-69133999D01*
X136667962Y-69118112D01*
X136681245Y-69103456D01*
X136695901Y-69090173D01*
X136711788Y-69078390D01*
X136728754Y-69068221D01*
X136746635Y-69059765D01*
X136765258Y-69053101D01*
X136784445Y-69048295D01*
X136804011Y-69045393D01*
X136823767Y-69044422D01*
X137226881Y-69044422D01*
X137246637Y-69045393D01*
X137246637Y-69045393D01*
G37*
D14*
X137025324Y-69447535D03*
D10*
G36*
X136246637Y-72045393D02*
X136266203Y-72048295D01*
X136285390Y-72053101D01*
X136304013Y-72059765D01*
X136321894Y-72068221D01*
X136338860Y-72078390D01*
X136354747Y-72090173D01*
X136369403Y-72103456D01*
X136382686Y-72118112D01*
X136394469Y-72133999D01*
X136404638Y-72150965D01*
X136413094Y-72168846D01*
X136419758Y-72187469D01*
X136424564Y-72206656D01*
X136427466Y-72226222D01*
X136428437Y-72245978D01*
X136428437Y-72649092D01*
X136427466Y-72668848D01*
X136424564Y-72688414D01*
X136419758Y-72707601D01*
X136413094Y-72726224D01*
X136404638Y-72744105D01*
X136394469Y-72761071D01*
X136382686Y-72776958D01*
X136369403Y-72791614D01*
X136354747Y-72804897D01*
X136338860Y-72816680D01*
X136321894Y-72826849D01*
X136304013Y-72835305D01*
X136285390Y-72841969D01*
X136266203Y-72846775D01*
X136246637Y-72849677D01*
X136226881Y-72850648D01*
X135823767Y-72850648D01*
X135804011Y-72849677D01*
X135784445Y-72846775D01*
X135765258Y-72841969D01*
X135746635Y-72835305D01*
X135728754Y-72826849D01*
X135711788Y-72816680D01*
X135695901Y-72804897D01*
X135681245Y-72791614D01*
X135667962Y-72776958D01*
X135656179Y-72761071D01*
X135646010Y-72744105D01*
X135637554Y-72726224D01*
X135630890Y-72707601D01*
X135626084Y-72688414D01*
X135623182Y-72668848D01*
X135622211Y-72649092D01*
X135622211Y-72245978D01*
X135623182Y-72226222D01*
X135626084Y-72206656D01*
X135630890Y-72187469D01*
X135637554Y-72168846D01*
X135646010Y-72150965D01*
X135656179Y-72133999D01*
X135667962Y-72118112D01*
X135681245Y-72103456D01*
X135695901Y-72090173D01*
X135711788Y-72078390D01*
X135728754Y-72068221D01*
X135746635Y-72059765D01*
X135765258Y-72053101D01*
X135784445Y-72048295D01*
X135804011Y-72045393D01*
X135823767Y-72044422D01*
X136226881Y-72044422D01*
X136246637Y-72045393D01*
X136246637Y-72045393D01*
G37*
D14*
X136025324Y-72447535D03*
D10*
G36*
X136246637Y-71045393D02*
X136266203Y-71048295D01*
X136285390Y-71053101D01*
X136304013Y-71059765D01*
X136321894Y-71068221D01*
X136338860Y-71078390D01*
X136354747Y-71090173D01*
X136369403Y-71103456D01*
X136382686Y-71118112D01*
X136394469Y-71133999D01*
X136404638Y-71150965D01*
X136413094Y-71168846D01*
X136419758Y-71187469D01*
X136424564Y-71206656D01*
X136427466Y-71226222D01*
X136428437Y-71245978D01*
X136428437Y-71649092D01*
X136427466Y-71668848D01*
X136424564Y-71688414D01*
X136419758Y-71707601D01*
X136413094Y-71726224D01*
X136404638Y-71744105D01*
X136394469Y-71761071D01*
X136382686Y-71776958D01*
X136369403Y-71791614D01*
X136354747Y-71804897D01*
X136338860Y-71816680D01*
X136321894Y-71826849D01*
X136304013Y-71835305D01*
X136285390Y-71841969D01*
X136266203Y-71846775D01*
X136246637Y-71849677D01*
X136226881Y-71850648D01*
X135823767Y-71850648D01*
X135804011Y-71849677D01*
X135784445Y-71846775D01*
X135765258Y-71841969D01*
X135746635Y-71835305D01*
X135728754Y-71826849D01*
X135711788Y-71816680D01*
X135695901Y-71804897D01*
X135681245Y-71791614D01*
X135667962Y-71776958D01*
X135656179Y-71761071D01*
X135646010Y-71744105D01*
X135637554Y-71726224D01*
X135630890Y-71707601D01*
X135626084Y-71688414D01*
X135623182Y-71668848D01*
X135622211Y-71649092D01*
X135622211Y-71245978D01*
X135623182Y-71226222D01*
X135626084Y-71206656D01*
X135630890Y-71187469D01*
X135637554Y-71168846D01*
X135646010Y-71150965D01*
X135656179Y-71133999D01*
X135667962Y-71118112D01*
X135681245Y-71103456D01*
X135695901Y-71090173D01*
X135711788Y-71078390D01*
X135728754Y-71068221D01*
X135746635Y-71059765D01*
X135765258Y-71053101D01*
X135784445Y-71048295D01*
X135804011Y-71045393D01*
X135823767Y-71044422D01*
X136226881Y-71044422D01*
X136246637Y-71045393D01*
X136246637Y-71045393D01*
G37*
D14*
X136025324Y-71447535D03*
D10*
G36*
X136246637Y-70045393D02*
X136266203Y-70048295D01*
X136285390Y-70053101D01*
X136304013Y-70059765D01*
X136321894Y-70068221D01*
X136338860Y-70078390D01*
X136354747Y-70090173D01*
X136369403Y-70103456D01*
X136382686Y-70118112D01*
X136394469Y-70133999D01*
X136404638Y-70150965D01*
X136413094Y-70168846D01*
X136419758Y-70187469D01*
X136424564Y-70206656D01*
X136427466Y-70226222D01*
X136428437Y-70245978D01*
X136428437Y-70649092D01*
X136427466Y-70668848D01*
X136424564Y-70688414D01*
X136419758Y-70707601D01*
X136413094Y-70726224D01*
X136404638Y-70744105D01*
X136394469Y-70761071D01*
X136382686Y-70776958D01*
X136369403Y-70791614D01*
X136354747Y-70804897D01*
X136338860Y-70816680D01*
X136321894Y-70826849D01*
X136304013Y-70835305D01*
X136285390Y-70841969D01*
X136266203Y-70846775D01*
X136246637Y-70849677D01*
X136226881Y-70850648D01*
X135823767Y-70850648D01*
X135804011Y-70849677D01*
X135784445Y-70846775D01*
X135765258Y-70841969D01*
X135746635Y-70835305D01*
X135728754Y-70826849D01*
X135711788Y-70816680D01*
X135695901Y-70804897D01*
X135681245Y-70791614D01*
X135667962Y-70776958D01*
X135656179Y-70761071D01*
X135646010Y-70744105D01*
X135637554Y-70726224D01*
X135630890Y-70707601D01*
X135626084Y-70688414D01*
X135623182Y-70668848D01*
X135622211Y-70649092D01*
X135622211Y-70245978D01*
X135623182Y-70226222D01*
X135626084Y-70206656D01*
X135630890Y-70187469D01*
X135637554Y-70168846D01*
X135646010Y-70150965D01*
X135656179Y-70133999D01*
X135667962Y-70118112D01*
X135681245Y-70103456D01*
X135695901Y-70090173D01*
X135711788Y-70078390D01*
X135728754Y-70068221D01*
X135746635Y-70059765D01*
X135765258Y-70053101D01*
X135784445Y-70048295D01*
X135804011Y-70045393D01*
X135823767Y-70044422D01*
X136226881Y-70044422D01*
X136246637Y-70045393D01*
X136246637Y-70045393D01*
G37*
D14*
X136025324Y-70447535D03*
D10*
G36*
X136246637Y-69045393D02*
X136266203Y-69048295D01*
X136285390Y-69053101D01*
X136304013Y-69059765D01*
X136321894Y-69068221D01*
X136338860Y-69078390D01*
X136354747Y-69090173D01*
X136369403Y-69103456D01*
X136382686Y-69118112D01*
X136394469Y-69133999D01*
X136404638Y-69150965D01*
X136413094Y-69168846D01*
X136419758Y-69187469D01*
X136424564Y-69206656D01*
X136427466Y-69226222D01*
X136428437Y-69245978D01*
X136428437Y-69649092D01*
X136427466Y-69668848D01*
X136424564Y-69688414D01*
X136419758Y-69707601D01*
X136413094Y-69726224D01*
X136404638Y-69744105D01*
X136394469Y-69761071D01*
X136382686Y-69776958D01*
X136369403Y-69791614D01*
X136354747Y-69804897D01*
X136338860Y-69816680D01*
X136321894Y-69826849D01*
X136304013Y-69835305D01*
X136285390Y-69841969D01*
X136266203Y-69846775D01*
X136246637Y-69849677D01*
X136226881Y-69850648D01*
X135823767Y-69850648D01*
X135804011Y-69849677D01*
X135784445Y-69846775D01*
X135765258Y-69841969D01*
X135746635Y-69835305D01*
X135728754Y-69826849D01*
X135711788Y-69816680D01*
X135695901Y-69804897D01*
X135681245Y-69791614D01*
X135667962Y-69776958D01*
X135656179Y-69761071D01*
X135646010Y-69744105D01*
X135637554Y-69726224D01*
X135630890Y-69707601D01*
X135626084Y-69688414D01*
X135623182Y-69668848D01*
X135622211Y-69649092D01*
X135622211Y-69245978D01*
X135623182Y-69226222D01*
X135626084Y-69206656D01*
X135630890Y-69187469D01*
X135637554Y-69168846D01*
X135646010Y-69150965D01*
X135656179Y-69133999D01*
X135667962Y-69118112D01*
X135681245Y-69103456D01*
X135695901Y-69090173D01*
X135711788Y-69078390D01*
X135728754Y-69068221D01*
X135746635Y-69059765D01*
X135765258Y-69053101D01*
X135784445Y-69048295D01*
X135804011Y-69045393D01*
X135823767Y-69044422D01*
X136226881Y-69044422D01*
X136246637Y-69045393D01*
X136246637Y-69045393D01*
G37*
D14*
X136025324Y-69447535D03*
D10*
G36*
X135246637Y-72045393D02*
X135266203Y-72048295D01*
X135285390Y-72053101D01*
X135304013Y-72059765D01*
X135321894Y-72068221D01*
X135338860Y-72078390D01*
X135354747Y-72090173D01*
X135369403Y-72103456D01*
X135382686Y-72118112D01*
X135394469Y-72133999D01*
X135404638Y-72150965D01*
X135413094Y-72168846D01*
X135419758Y-72187469D01*
X135424564Y-72206656D01*
X135427466Y-72226222D01*
X135428437Y-72245978D01*
X135428437Y-72649092D01*
X135427466Y-72668848D01*
X135424564Y-72688414D01*
X135419758Y-72707601D01*
X135413094Y-72726224D01*
X135404638Y-72744105D01*
X135394469Y-72761071D01*
X135382686Y-72776958D01*
X135369403Y-72791614D01*
X135354747Y-72804897D01*
X135338860Y-72816680D01*
X135321894Y-72826849D01*
X135304013Y-72835305D01*
X135285390Y-72841969D01*
X135266203Y-72846775D01*
X135246637Y-72849677D01*
X135226881Y-72850648D01*
X134823767Y-72850648D01*
X134804011Y-72849677D01*
X134784445Y-72846775D01*
X134765258Y-72841969D01*
X134746635Y-72835305D01*
X134728754Y-72826849D01*
X134711788Y-72816680D01*
X134695901Y-72804897D01*
X134681245Y-72791614D01*
X134667962Y-72776958D01*
X134656179Y-72761071D01*
X134646010Y-72744105D01*
X134637554Y-72726224D01*
X134630890Y-72707601D01*
X134626084Y-72688414D01*
X134623182Y-72668848D01*
X134622211Y-72649092D01*
X134622211Y-72245978D01*
X134623182Y-72226222D01*
X134626084Y-72206656D01*
X134630890Y-72187469D01*
X134637554Y-72168846D01*
X134646010Y-72150965D01*
X134656179Y-72133999D01*
X134667962Y-72118112D01*
X134681245Y-72103456D01*
X134695901Y-72090173D01*
X134711788Y-72078390D01*
X134728754Y-72068221D01*
X134746635Y-72059765D01*
X134765258Y-72053101D01*
X134784445Y-72048295D01*
X134804011Y-72045393D01*
X134823767Y-72044422D01*
X135226881Y-72044422D01*
X135246637Y-72045393D01*
X135246637Y-72045393D01*
G37*
D14*
X135025324Y-72447535D03*
D10*
G36*
X135246637Y-71045393D02*
X135266203Y-71048295D01*
X135285390Y-71053101D01*
X135304013Y-71059765D01*
X135321894Y-71068221D01*
X135338860Y-71078390D01*
X135354747Y-71090173D01*
X135369403Y-71103456D01*
X135382686Y-71118112D01*
X135394469Y-71133999D01*
X135404638Y-71150965D01*
X135413094Y-71168846D01*
X135419758Y-71187469D01*
X135424564Y-71206656D01*
X135427466Y-71226222D01*
X135428437Y-71245978D01*
X135428437Y-71649092D01*
X135427466Y-71668848D01*
X135424564Y-71688414D01*
X135419758Y-71707601D01*
X135413094Y-71726224D01*
X135404638Y-71744105D01*
X135394469Y-71761071D01*
X135382686Y-71776958D01*
X135369403Y-71791614D01*
X135354747Y-71804897D01*
X135338860Y-71816680D01*
X135321894Y-71826849D01*
X135304013Y-71835305D01*
X135285390Y-71841969D01*
X135266203Y-71846775D01*
X135246637Y-71849677D01*
X135226881Y-71850648D01*
X134823767Y-71850648D01*
X134804011Y-71849677D01*
X134784445Y-71846775D01*
X134765258Y-71841969D01*
X134746635Y-71835305D01*
X134728754Y-71826849D01*
X134711788Y-71816680D01*
X134695901Y-71804897D01*
X134681245Y-71791614D01*
X134667962Y-71776958D01*
X134656179Y-71761071D01*
X134646010Y-71744105D01*
X134637554Y-71726224D01*
X134630890Y-71707601D01*
X134626084Y-71688414D01*
X134623182Y-71668848D01*
X134622211Y-71649092D01*
X134622211Y-71245978D01*
X134623182Y-71226222D01*
X134626084Y-71206656D01*
X134630890Y-71187469D01*
X134637554Y-71168846D01*
X134646010Y-71150965D01*
X134656179Y-71133999D01*
X134667962Y-71118112D01*
X134681245Y-71103456D01*
X134695901Y-71090173D01*
X134711788Y-71078390D01*
X134728754Y-71068221D01*
X134746635Y-71059765D01*
X134765258Y-71053101D01*
X134784445Y-71048295D01*
X134804011Y-71045393D01*
X134823767Y-71044422D01*
X135226881Y-71044422D01*
X135246637Y-71045393D01*
X135246637Y-71045393D01*
G37*
D14*
X135025324Y-71447535D03*
D10*
G36*
X135246637Y-70045393D02*
X135266203Y-70048295D01*
X135285390Y-70053101D01*
X135304013Y-70059765D01*
X135321894Y-70068221D01*
X135338860Y-70078390D01*
X135354747Y-70090173D01*
X135369403Y-70103456D01*
X135382686Y-70118112D01*
X135394469Y-70133999D01*
X135404638Y-70150965D01*
X135413094Y-70168846D01*
X135419758Y-70187469D01*
X135424564Y-70206656D01*
X135427466Y-70226222D01*
X135428437Y-70245978D01*
X135428437Y-70649092D01*
X135427466Y-70668848D01*
X135424564Y-70688414D01*
X135419758Y-70707601D01*
X135413094Y-70726224D01*
X135404638Y-70744105D01*
X135394469Y-70761071D01*
X135382686Y-70776958D01*
X135369403Y-70791614D01*
X135354747Y-70804897D01*
X135338860Y-70816680D01*
X135321894Y-70826849D01*
X135304013Y-70835305D01*
X135285390Y-70841969D01*
X135266203Y-70846775D01*
X135246637Y-70849677D01*
X135226881Y-70850648D01*
X134823767Y-70850648D01*
X134804011Y-70849677D01*
X134784445Y-70846775D01*
X134765258Y-70841969D01*
X134746635Y-70835305D01*
X134728754Y-70826849D01*
X134711788Y-70816680D01*
X134695901Y-70804897D01*
X134681245Y-70791614D01*
X134667962Y-70776958D01*
X134656179Y-70761071D01*
X134646010Y-70744105D01*
X134637554Y-70726224D01*
X134630890Y-70707601D01*
X134626084Y-70688414D01*
X134623182Y-70668848D01*
X134622211Y-70649092D01*
X134622211Y-70245978D01*
X134623182Y-70226222D01*
X134626084Y-70206656D01*
X134630890Y-70187469D01*
X134637554Y-70168846D01*
X134646010Y-70150965D01*
X134656179Y-70133999D01*
X134667962Y-70118112D01*
X134681245Y-70103456D01*
X134695901Y-70090173D01*
X134711788Y-70078390D01*
X134728754Y-70068221D01*
X134746635Y-70059765D01*
X134765258Y-70053101D01*
X134784445Y-70048295D01*
X134804011Y-70045393D01*
X134823767Y-70044422D01*
X135226881Y-70044422D01*
X135246637Y-70045393D01*
X135246637Y-70045393D01*
G37*
D14*
X135025324Y-70447535D03*
D10*
G36*
X135246637Y-69045393D02*
X135266203Y-69048295D01*
X135285390Y-69053101D01*
X135304013Y-69059765D01*
X135321894Y-69068221D01*
X135338860Y-69078390D01*
X135354747Y-69090173D01*
X135369403Y-69103456D01*
X135382686Y-69118112D01*
X135394469Y-69133999D01*
X135404638Y-69150965D01*
X135413094Y-69168846D01*
X135419758Y-69187469D01*
X135424564Y-69206656D01*
X135427466Y-69226222D01*
X135428437Y-69245978D01*
X135428437Y-69649092D01*
X135427466Y-69668848D01*
X135424564Y-69688414D01*
X135419758Y-69707601D01*
X135413094Y-69726224D01*
X135404638Y-69744105D01*
X135394469Y-69761071D01*
X135382686Y-69776958D01*
X135369403Y-69791614D01*
X135354747Y-69804897D01*
X135338860Y-69816680D01*
X135321894Y-69826849D01*
X135304013Y-69835305D01*
X135285390Y-69841969D01*
X135266203Y-69846775D01*
X135246637Y-69849677D01*
X135226881Y-69850648D01*
X134823767Y-69850648D01*
X134804011Y-69849677D01*
X134784445Y-69846775D01*
X134765258Y-69841969D01*
X134746635Y-69835305D01*
X134728754Y-69826849D01*
X134711788Y-69816680D01*
X134695901Y-69804897D01*
X134681245Y-69791614D01*
X134667962Y-69776958D01*
X134656179Y-69761071D01*
X134646010Y-69744105D01*
X134637554Y-69726224D01*
X134630890Y-69707601D01*
X134626084Y-69688414D01*
X134623182Y-69668848D01*
X134622211Y-69649092D01*
X134622211Y-69245978D01*
X134623182Y-69226222D01*
X134626084Y-69206656D01*
X134630890Y-69187469D01*
X134637554Y-69168846D01*
X134646010Y-69150965D01*
X134656179Y-69133999D01*
X134667962Y-69118112D01*
X134681245Y-69103456D01*
X134695901Y-69090173D01*
X134711788Y-69078390D01*
X134728754Y-69068221D01*
X134746635Y-69059765D01*
X134765258Y-69053101D01*
X134784445Y-69048295D01*
X134804011Y-69045393D01*
X134823767Y-69044422D01*
X135226881Y-69044422D01*
X135246637Y-69045393D01*
X135246637Y-69045393D01*
G37*
D14*
X135025324Y-69447535D03*
G04 #@! TD*
D10*
G04 #@! TO.C,C5*
G36*
X142898691Y-61565053D02*
X142919926Y-61568203D01*
X142940750Y-61573419D01*
X142960962Y-61580651D01*
X142980368Y-61589830D01*
X142998781Y-61600866D01*
X143016024Y-61613654D01*
X143031930Y-61628070D01*
X143046346Y-61643976D01*
X143059134Y-61661219D01*
X143070170Y-61679632D01*
X143079349Y-61699038D01*
X143086581Y-61719250D01*
X143091797Y-61740074D01*
X143094947Y-61761309D01*
X143096000Y-61782750D01*
X143096000Y-62220250D01*
X143094947Y-62241691D01*
X143091797Y-62262926D01*
X143086581Y-62283750D01*
X143079349Y-62303962D01*
X143070170Y-62323368D01*
X143059134Y-62341781D01*
X143046346Y-62359024D01*
X143031930Y-62374930D01*
X143016024Y-62389346D01*
X142998781Y-62402134D01*
X142980368Y-62413170D01*
X142960962Y-62422349D01*
X142940750Y-62429581D01*
X142919926Y-62434797D01*
X142898691Y-62437947D01*
X142877250Y-62439000D01*
X142364750Y-62439000D01*
X142343309Y-62437947D01*
X142322074Y-62434797D01*
X142301250Y-62429581D01*
X142281038Y-62422349D01*
X142261632Y-62413170D01*
X142243219Y-62402134D01*
X142225976Y-62389346D01*
X142210070Y-62374930D01*
X142195654Y-62359024D01*
X142182866Y-62341781D01*
X142171830Y-62323368D01*
X142162651Y-62303962D01*
X142155419Y-62283750D01*
X142150203Y-62262926D01*
X142147053Y-62241691D01*
X142146000Y-62220250D01*
X142146000Y-61782750D01*
X142147053Y-61761309D01*
X142150203Y-61740074D01*
X142155419Y-61719250D01*
X142162651Y-61699038D01*
X142171830Y-61679632D01*
X142182866Y-61661219D01*
X142195654Y-61643976D01*
X142210070Y-61628070D01*
X142225976Y-61613654D01*
X142243219Y-61600866D01*
X142261632Y-61589830D01*
X142281038Y-61580651D01*
X142301250Y-61573419D01*
X142322074Y-61568203D01*
X142343309Y-61565053D01*
X142364750Y-61564000D01*
X142877250Y-61564000D01*
X142898691Y-61565053D01*
X142898691Y-61565053D01*
G37*
D15*
X142621000Y-62001500D03*
D10*
G36*
X142898691Y-59990053D02*
X142919926Y-59993203D01*
X142940750Y-59998419D01*
X142960962Y-60005651D01*
X142980368Y-60014830D01*
X142998781Y-60025866D01*
X143016024Y-60038654D01*
X143031930Y-60053070D01*
X143046346Y-60068976D01*
X143059134Y-60086219D01*
X143070170Y-60104632D01*
X143079349Y-60124038D01*
X143086581Y-60144250D01*
X143091797Y-60165074D01*
X143094947Y-60186309D01*
X143096000Y-60207750D01*
X143096000Y-60645250D01*
X143094947Y-60666691D01*
X143091797Y-60687926D01*
X143086581Y-60708750D01*
X143079349Y-60728962D01*
X143070170Y-60748368D01*
X143059134Y-60766781D01*
X143046346Y-60784024D01*
X143031930Y-60799930D01*
X143016024Y-60814346D01*
X142998781Y-60827134D01*
X142980368Y-60838170D01*
X142960962Y-60847349D01*
X142940750Y-60854581D01*
X142919926Y-60859797D01*
X142898691Y-60862947D01*
X142877250Y-60864000D01*
X142364750Y-60864000D01*
X142343309Y-60862947D01*
X142322074Y-60859797D01*
X142301250Y-60854581D01*
X142281038Y-60847349D01*
X142261632Y-60838170D01*
X142243219Y-60827134D01*
X142225976Y-60814346D01*
X142210070Y-60799930D01*
X142195654Y-60784024D01*
X142182866Y-60766781D01*
X142171830Y-60748368D01*
X142162651Y-60728962D01*
X142155419Y-60708750D01*
X142150203Y-60687926D01*
X142147053Y-60666691D01*
X142146000Y-60645250D01*
X142146000Y-60207750D01*
X142147053Y-60186309D01*
X142150203Y-60165074D01*
X142155419Y-60144250D01*
X142162651Y-60124038D01*
X142171830Y-60104632D01*
X142182866Y-60086219D01*
X142195654Y-60068976D01*
X142210070Y-60053070D01*
X142225976Y-60038654D01*
X142243219Y-60025866D01*
X142261632Y-60014830D01*
X142281038Y-60005651D01*
X142301250Y-59998419D01*
X142322074Y-59993203D01*
X142343309Y-59990053D01*
X142364750Y-59989000D01*
X142877250Y-59989000D01*
X142898691Y-59990053D01*
X142898691Y-59990053D01*
G37*
D15*
X142621000Y-60426500D03*
G04 #@! TD*
D10*
G04 #@! TO.C,C6*
G36*
X142263691Y-74138053D02*
X142284926Y-74141203D01*
X142305750Y-74146419D01*
X142325962Y-74153651D01*
X142345368Y-74162830D01*
X142363781Y-74173866D01*
X142381024Y-74186654D01*
X142396930Y-74201070D01*
X142411346Y-74216976D01*
X142424134Y-74234219D01*
X142435170Y-74252632D01*
X142444349Y-74272038D01*
X142451581Y-74292250D01*
X142456797Y-74313074D01*
X142459947Y-74334309D01*
X142461000Y-74355750D01*
X142461000Y-74793250D01*
X142459947Y-74814691D01*
X142456797Y-74835926D01*
X142451581Y-74856750D01*
X142444349Y-74876962D01*
X142435170Y-74896368D01*
X142424134Y-74914781D01*
X142411346Y-74932024D01*
X142396930Y-74947930D01*
X142381024Y-74962346D01*
X142363781Y-74975134D01*
X142345368Y-74986170D01*
X142325962Y-74995349D01*
X142305750Y-75002581D01*
X142284926Y-75007797D01*
X142263691Y-75010947D01*
X142242250Y-75012000D01*
X141729750Y-75012000D01*
X141708309Y-75010947D01*
X141687074Y-75007797D01*
X141666250Y-75002581D01*
X141646038Y-74995349D01*
X141626632Y-74986170D01*
X141608219Y-74975134D01*
X141590976Y-74962346D01*
X141575070Y-74947930D01*
X141560654Y-74932024D01*
X141547866Y-74914781D01*
X141536830Y-74896368D01*
X141527651Y-74876962D01*
X141520419Y-74856750D01*
X141515203Y-74835926D01*
X141512053Y-74814691D01*
X141511000Y-74793250D01*
X141511000Y-74355750D01*
X141512053Y-74334309D01*
X141515203Y-74313074D01*
X141520419Y-74292250D01*
X141527651Y-74272038D01*
X141536830Y-74252632D01*
X141547866Y-74234219D01*
X141560654Y-74216976D01*
X141575070Y-74201070D01*
X141590976Y-74186654D01*
X141608219Y-74173866D01*
X141626632Y-74162830D01*
X141646038Y-74153651D01*
X141666250Y-74146419D01*
X141687074Y-74141203D01*
X141708309Y-74138053D01*
X141729750Y-74137000D01*
X142242250Y-74137000D01*
X142263691Y-74138053D01*
X142263691Y-74138053D01*
G37*
D15*
X141986000Y-74574500D03*
D10*
G36*
X142263691Y-72563053D02*
X142284926Y-72566203D01*
X142305750Y-72571419D01*
X142325962Y-72578651D01*
X142345368Y-72587830D01*
X142363781Y-72598866D01*
X142381024Y-72611654D01*
X142396930Y-72626070D01*
X142411346Y-72641976D01*
X142424134Y-72659219D01*
X142435170Y-72677632D01*
X142444349Y-72697038D01*
X142451581Y-72717250D01*
X142456797Y-72738074D01*
X142459947Y-72759309D01*
X142461000Y-72780750D01*
X142461000Y-73218250D01*
X142459947Y-73239691D01*
X142456797Y-73260926D01*
X142451581Y-73281750D01*
X142444349Y-73301962D01*
X142435170Y-73321368D01*
X142424134Y-73339781D01*
X142411346Y-73357024D01*
X142396930Y-73372930D01*
X142381024Y-73387346D01*
X142363781Y-73400134D01*
X142345368Y-73411170D01*
X142325962Y-73420349D01*
X142305750Y-73427581D01*
X142284926Y-73432797D01*
X142263691Y-73435947D01*
X142242250Y-73437000D01*
X141729750Y-73437000D01*
X141708309Y-73435947D01*
X141687074Y-73432797D01*
X141666250Y-73427581D01*
X141646038Y-73420349D01*
X141626632Y-73411170D01*
X141608219Y-73400134D01*
X141590976Y-73387346D01*
X141575070Y-73372930D01*
X141560654Y-73357024D01*
X141547866Y-73339781D01*
X141536830Y-73321368D01*
X141527651Y-73301962D01*
X141520419Y-73281750D01*
X141515203Y-73260926D01*
X141512053Y-73239691D01*
X141511000Y-73218250D01*
X141511000Y-72780750D01*
X141512053Y-72759309D01*
X141515203Y-72738074D01*
X141520419Y-72717250D01*
X141527651Y-72697038D01*
X141536830Y-72677632D01*
X141547866Y-72659219D01*
X141560654Y-72641976D01*
X141575070Y-72626070D01*
X141590976Y-72611654D01*
X141608219Y-72598866D01*
X141626632Y-72587830D01*
X141646038Y-72578651D01*
X141666250Y-72571419D01*
X141687074Y-72566203D01*
X141708309Y-72563053D01*
X141729750Y-72562000D01*
X142242250Y-72562000D01*
X142263691Y-72563053D01*
X142263691Y-72563053D01*
G37*
D15*
X141986000Y-72999500D03*
G04 #@! TD*
D16*
G04 #@! TO.C,D1*
X140615324Y-61026535D03*
X137815324Y-61026535D03*
G04 #@! TD*
D10*
G04 #@! TO.C,R1*
G36*
X129634103Y-59282679D02*
X129657158Y-59286098D01*
X129679767Y-59291762D01*
X129701711Y-59299614D01*
X129722781Y-59309579D01*
X129742772Y-59321561D01*
X129761492Y-59335445D01*
X129778762Y-59351097D01*
X129794414Y-59368367D01*
X129808298Y-59387087D01*
X129820280Y-59407078D01*
X129830245Y-59428148D01*
X129838097Y-59450092D01*
X129843761Y-59472701D01*
X129847180Y-59495756D01*
X129848324Y-59519035D01*
X129848324Y-59994035D01*
X129847180Y-60017314D01*
X129843761Y-60040369D01*
X129838097Y-60062978D01*
X129830245Y-60084922D01*
X129820280Y-60105992D01*
X129808298Y-60125983D01*
X129794414Y-60144703D01*
X129778762Y-60161973D01*
X129761492Y-60177625D01*
X129742772Y-60191509D01*
X129722781Y-60203491D01*
X129701711Y-60213456D01*
X129679767Y-60221308D01*
X129657158Y-60226972D01*
X129634103Y-60230391D01*
X129610824Y-60231535D01*
X129035824Y-60231535D01*
X129012545Y-60230391D01*
X128989490Y-60226972D01*
X128966881Y-60221308D01*
X128944937Y-60213456D01*
X128923867Y-60203491D01*
X128903876Y-60191509D01*
X128885156Y-60177625D01*
X128867886Y-60161973D01*
X128852234Y-60144703D01*
X128838350Y-60125983D01*
X128826368Y-60105992D01*
X128816403Y-60084922D01*
X128808551Y-60062978D01*
X128802887Y-60040369D01*
X128799468Y-60017314D01*
X128798324Y-59994035D01*
X128798324Y-59519035D01*
X128799468Y-59495756D01*
X128802887Y-59472701D01*
X128808551Y-59450092D01*
X128816403Y-59428148D01*
X128826368Y-59407078D01*
X128838350Y-59387087D01*
X128852234Y-59368367D01*
X128867886Y-59351097D01*
X128885156Y-59335445D01*
X128903876Y-59321561D01*
X128923867Y-59309579D01*
X128944937Y-59299614D01*
X128966881Y-59291762D01*
X128989490Y-59286098D01*
X129012545Y-59282679D01*
X129035824Y-59281535D01*
X129610824Y-59281535D01*
X129634103Y-59282679D01*
X129634103Y-59282679D01*
G37*
D17*
X129323324Y-59756535D03*
D10*
G36*
X131384103Y-59282679D02*
X131407158Y-59286098D01*
X131429767Y-59291762D01*
X131451711Y-59299614D01*
X131472781Y-59309579D01*
X131492772Y-59321561D01*
X131511492Y-59335445D01*
X131528762Y-59351097D01*
X131544414Y-59368367D01*
X131558298Y-59387087D01*
X131570280Y-59407078D01*
X131580245Y-59428148D01*
X131588097Y-59450092D01*
X131593761Y-59472701D01*
X131597180Y-59495756D01*
X131598324Y-59519035D01*
X131598324Y-59994035D01*
X131597180Y-60017314D01*
X131593761Y-60040369D01*
X131588097Y-60062978D01*
X131580245Y-60084922D01*
X131570280Y-60105992D01*
X131558298Y-60125983D01*
X131544414Y-60144703D01*
X131528762Y-60161973D01*
X131511492Y-60177625D01*
X131492772Y-60191509D01*
X131472781Y-60203491D01*
X131451711Y-60213456D01*
X131429767Y-60221308D01*
X131407158Y-60226972D01*
X131384103Y-60230391D01*
X131360824Y-60231535D01*
X130785824Y-60231535D01*
X130762545Y-60230391D01*
X130739490Y-60226972D01*
X130716881Y-60221308D01*
X130694937Y-60213456D01*
X130673867Y-60203491D01*
X130653876Y-60191509D01*
X130635156Y-60177625D01*
X130617886Y-60161973D01*
X130602234Y-60144703D01*
X130588350Y-60125983D01*
X130576368Y-60105992D01*
X130566403Y-60084922D01*
X130558551Y-60062978D01*
X130552887Y-60040369D01*
X130549468Y-60017314D01*
X130548324Y-59994035D01*
X130548324Y-59519035D01*
X130549468Y-59495756D01*
X130552887Y-59472701D01*
X130558551Y-59450092D01*
X130566403Y-59428148D01*
X130576368Y-59407078D01*
X130588350Y-59387087D01*
X130602234Y-59368367D01*
X130617886Y-59351097D01*
X130635156Y-59335445D01*
X130653876Y-59321561D01*
X130673867Y-59309579D01*
X130694937Y-59299614D01*
X130716881Y-59291762D01*
X130739490Y-59286098D01*
X130762545Y-59282679D01*
X130785824Y-59281535D01*
X131360824Y-59281535D01*
X131384103Y-59282679D01*
X131384103Y-59282679D01*
G37*
D17*
X131073324Y-59756535D03*
G04 #@! TD*
D10*
G04 #@! TO.C,R3*
G36*
X133166779Y-63915144D02*
X133189834Y-63918563D01*
X133212443Y-63924227D01*
X133234387Y-63932079D01*
X133255457Y-63942044D01*
X133275448Y-63954026D01*
X133294168Y-63967910D01*
X133311438Y-63983562D01*
X133327090Y-64000832D01*
X133340974Y-64019552D01*
X133352956Y-64039543D01*
X133362921Y-64060613D01*
X133370773Y-64082557D01*
X133376437Y-64105166D01*
X133379856Y-64128221D01*
X133381000Y-64151500D01*
X133381000Y-64626500D01*
X133379856Y-64649779D01*
X133376437Y-64672834D01*
X133370773Y-64695443D01*
X133362921Y-64717387D01*
X133352956Y-64738457D01*
X133340974Y-64758448D01*
X133327090Y-64777168D01*
X133311438Y-64794438D01*
X133294168Y-64810090D01*
X133275448Y-64823974D01*
X133255457Y-64835956D01*
X133234387Y-64845921D01*
X133212443Y-64853773D01*
X133189834Y-64859437D01*
X133166779Y-64862856D01*
X133143500Y-64864000D01*
X132568500Y-64864000D01*
X132545221Y-64862856D01*
X132522166Y-64859437D01*
X132499557Y-64853773D01*
X132477613Y-64845921D01*
X132456543Y-64835956D01*
X132436552Y-64823974D01*
X132417832Y-64810090D01*
X132400562Y-64794438D01*
X132384910Y-64777168D01*
X132371026Y-64758448D01*
X132359044Y-64738457D01*
X132349079Y-64717387D01*
X132341227Y-64695443D01*
X132335563Y-64672834D01*
X132332144Y-64649779D01*
X132331000Y-64626500D01*
X132331000Y-64151500D01*
X132332144Y-64128221D01*
X132335563Y-64105166D01*
X132341227Y-64082557D01*
X132349079Y-64060613D01*
X132359044Y-64039543D01*
X132371026Y-64019552D01*
X132384910Y-64000832D01*
X132400562Y-63983562D01*
X132417832Y-63967910D01*
X132436552Y-63954026D01*
X132456543Y-63942044D01*
X132477613Y-63932079D01*
X132499557Y-63924227D01*
X132522166Y-63918563D01*
X132545221Y-63915144D01*
X132568500Y-63914000D01*
X133143500Y-63914000D01*
X133166779Y-63915144D01*
X133166779Y-63915144D01*
G37*
D17*
X132856000Y-64389000D03*
D10*
G36*
X134916779Y-63915144D02*
X134939834Y-63918563D01*
X134962443Y-63924227D01*
X134984387Y-63932079D01*
X135005457Y-63942044D01*
X135025448Y-63954026D01*
X135044168Y-63967910D01*
X135061438Y-63983562D01*
X135077090Y-64000832D01*
X135090974Y-64019552D01*
X135102956Y-64039543D01*
X135112921Y-64060613D01*
X135120773Y-64082557D01*
X135126437Y-64105166D01*
X135129856Y-64128221D01*
X135131000Y-64151500D01*
X135131000Y-64626500D01*
X135129856Y-64649779D01*
X135126437Y-64672834D01*
X135120773Y-64695443D01*
X135112921Y-64717387D01*
X135102956Y-64738457D01*
X135090974Y-64758448D01*
X135077090Y-64777168D01*
X135061438Y-64794438D01*
X135044168Y-64810090D01*
X135025448Y-64823974D01*
X135005457Y-64835956D01*
X134984387Y-64845921D01*
X134962443Y-64853773D01*
X134939834Y-64859437D01*
X134916779Y-64862856D01*
X134893500Y-64864000D01*
X134318500Y-64864000D01*
X134295221Y-64862856D01*
X134272166Y-64859437D01*
X134249557Y-64853773D01*
X134227613Y-64845921D01*
X134206543Y-64835956D01*
X134186552Y-64823974D01*
X134167832Y-64810090D01*
X134150562Y-64794438D01*
X134134910Y-64777168D01*
X134121026Y-64758448D01*
X134109044Y-64738457D01*
X134099079Y-64717387D01*
X134091227Y-64695443D01*
X134085563Y-64672834D01*
X134082144Y-64649779D01*
X134081000Y-64626500D01*
X134081000Y-64151500D01*
X134082144Y-64128221D01*
X134085563Y-64105166D01*
X134091227Y-64082557D01*
X134099079Y-64060613D01*
X134109044Y-64039543D01*
X134121026Y-64019552D01*
X134134910Y-64000832D01*
X134150562Y-63983562D01*
X134167832Y-63967910D01*
X134186552Y-63954026D01*
X134206543Y-63942044D01*
X134227613Y-63932079D01*
X134249557Y-63924227D01*
X134272166Y-63918563D01*
X134295221Y-63915144D01*
X134318500Y-63914000D01*
X134893500Y-63914000D01*
X134916779Y-63915144D01*
X134916779Y-63915144D01*
G37*
D17*
X134606000Y-64389000D03*
G04 #@! TD*
D10*
G04 #@! TO.C,R4*
G36*
X145040779Y-72515144D02*
X145063834Y-72518563D01*
X145086443Y-72524227D01*
X145108387Y-72532079D01*
X145129457Y-72542044D01*
X145149448Y-72554026D01*
X145168168Y-72567910D01*
X145185438Y-72583562D01*
X145201090Y-72600832D01*
X145214974Y-72619552D01*
X145226956Y-72639543D01*
X145236921Y-72660613D01*
X145244773Y-72682557D01*
X145250437Y-72705166D01*
X145253856Y-72728221D01*
X145255000Y-72751500D01*
X145255000Y-73326500D01*
X145253856Y-73349779D01*
X145250437Y-73372834D01*
X145244773Y-73395443D01*
X145236921Y-73417387D01*
X145226956Y-73438457D01*
X145214974Y-73458448D01*
X145201090Y-73477168D01*
X145185438Y-73494438D01*
X145168168Y-73510090D01*
X145149448Y-73523974D01*
X145129457Y-73535956D01*
X145108387Y-73545921D01*
X145086443Y-73553773D01*
X145063834Y-73559437D01*
X145040779Y-73562856D01*
X145017500Y-73564000D01*
X144542500Y-73564000D01*
X144519221Y-73562856D01*
X144496166Y-73559437D01*
X144473557Y-73553773D01*
X144451613Y-73545921D01*
X144430543Y-73535956D01*
X144410552Y-73523974D01*
X144391832Y-73510090D01*
X144374562Y-73494438D01*
X144358910Y-73477168D01*
X144345026Y-73458448D01*
X144333044Y-73438457D01*
X144323079Y-73417387D01*
X144315227Y-73395443D01*
X144309563Y-73372834D01*
X144306144Y-73349779D01*
X144305000Y-73326500D01*
X144305000Y-72751500D01*
X144306144Y-72728221D01*
X144309563Y-72705166D01*
X144315227Y-72682557D01*
X144323079Y-72660613D01*
X144333044Y-72639543D01*
X144345026Y-72619552D01*
X144358910Y-72600832D01*
X144374562Y-72583562D01*
X144391832Y-72567910D01*
X144410552Y-72554026D01*
X144430543Y-72542044D01*
X144451613Y-72532079D01*
X144473557Y-72524227D01*
X144496166Y-72518563D01*
X144519221Y-72515144D01*
X144542500Y-72514000D01*
X145017500Y-72514000D01*
X145040779Y-72515144D01*
X145040779Y-72515144D01*
G37*
D17*
X144780000Y-73039000D03*
D10*
G36*
X145040779Y-74265144D02*
X145063834Y-74268563D01*
X145086443Y-74274227D01*
X145108387Y-74282079D01*
X145129457Y-74292044D01*
X145149448Y-74304026D01*
X145168168Y-74317910D01*
X145185438Y-74333562D01*
X145201090Y-74350832D01*
X145214974Y-74369552D01*
X145226956Y-74389543D01*
X145236921Y-74410613D01*
X145244773Y-74432557D01*
X145250437Y-74455166D01*
X145253856Y-74478221D01*
X145255000Y-74501500D01*
X145255000Y-75076500D01*
X145253856Y-75099779D01*
X145250437Y-75122834D01*
X145244773Y-75145443D01*
X145236921Y-75167387D01*
X145226956Y-75188457D01*
X145214974Y-75208448D01*
X145201090Y-75227168D01*
X145185438Y-75244438D01*
X145168168Y-75260090D01*
X145149448Y-75273974D01*
X145129457Y-75285956D01*
X145108387Y-75295921D01*
X145086443Y-75303773D01*
X145063834Y-75309437D01*
X145040779Y-75312856D01*
X145017500Y-75314000D01*
X144542500Y-75314000D01*
X144519221Y-75312856D01*
X144496166Y-75309437D01*
X144473557Y-75303773D01*
X144451613Y-75295921D01*
X144430543Y-75285956D01*
X144410552Y-75273974D01*
X144391832Y-75260090D01*
X144374562Y-75244438D01*
X144358910Y-75227168D01*
X144345026Y-75208448D01*
X144333044Y-75188457D01*
X144323079Y-75167387D01*
X144315227Y-75145443D01*
X144309563Y-75122834D01*
X144306144Y-75099779D01*
X144305000Y-75076500D01*
X144305000Y-74501500D01*
X144306144Y-74478221D01*
X144309563Y-74455166D01*
X144315227Y-74432557D01*
X144323079Y-74410613D01*
X144333044Y-74389543D01*
X144345026Y-74369552D01*
X144358910Y-74350832D01*
X144374562Y-74333562D01*
X144391832Y-74317910D01*
X144410552Y-74304026D01*
X144430543Y-74292044D01*
X144451613Y-74282079D01*
X144473557Y-74274227D01*
X144496166Y-74268563D01*
X144519221Y-74265144D01*
X144542500Y-74264000D01*
X145017500Y-74264000D01*
X145040779Y-74265144D01*
X145040779Y-74265144D01*
G37*
D17*
X144780000Y-74789000D03*
G04 #@! TD*
D10*
G04 #@! TO.C,R5*
G36*
X146818779Y-71626144D02*
X146841834Y-71629563D01*
X146864443Y-71635227D01*
X146886387Y-71643079D01*
X146907457Y-71653044D01*
X146927448Y-71665026D01*
X146946168Y-71678910D01*
X146963438Y-71694562D01*
X146979090Y-71711832D01*
X146992974Y-71730552D01*
X147004956Y-71750543D01*
X147014921Y-71771613D01*
X147022773Y-71793557D01*
X147028437Y-71816166D01*
X147031856Y-71839221D01*
X147033000Y-71862500D01*
X147033000Y-72437500D01*
X147031856Y-72460779D01*
X147028437Y-72483834D01*
X147022773Y-72506443D01*
X147014921Y-72528387D01*
X147004956Y-72549457D01*
X146992974Y-72569448D01*
X146979090Y-72588168D01*
X146963438Y-72605438D01*
X146946168Y-72621090D01*
X146927448Y-72634974D01*
X146907457Y-72646956D01*
X146886387Y-72656921D01*
X146864443Y-72664773D01*
X146841834Y-72670437D01*
X146818779Y-72673856D01*
X146795500Y-72675000D01*
X146320500Y-72675000D01*
X146297221Y-72673856D01*
X146274166Y-72670437D01*
X146251557Y-72664773D01*
X146229613Y-72656921D01*
X146208543Y-72646956D01*
X146188552Y-72634974D01*
X146169832Y-72621090D01*
X146152562Y-72605438D01*
X146136910Y-72588168D01*
X146123026Y-72569448D01*
X146111044Y-72549457D01*
X146101079Y-72528387D01*
X146093227Y-72506443D01*
X146087563Y-72483834D01*
X146084144Y-72460779D01*
X146083000Y-72437500D01*
X146083000Y-71862500D01*
X146084144Y-71839221D01*
X146087563Y-71816166D01*
X146093227Y-71793557D01*
X146101079Y-71771613D01*
X146111044Y-71750543D01*
X146123026Y-71730552D01*
X146136910Y-71711832D01*
X146152562Y-71694562D01*
X146169832Y-71678910D01*
X146188552Y-71665026D01*
X146208543Y-71653044D01*
X146229613Y-71643079D01*
X146251557Y-71635227D01*
X146274166Y-71629563D01*
X146297221Y-71626144D01*
X146320500Y-71625000D01*
X146795500Y-71625000D01*
X146818779Y-71626144D01*
X146818779Y-71626144D01*
G37*
D17*
X146558000Y-72150000D03*
D10*
G36*
X146818779Y-73376144D02*
X146841834Y-73379563D01*
X146864443Y-73385227D01*
X146886387Y-73393079D01*
X146907457Y-73403044D01*
X146927448Y-73415026D01*
X146946168Y-73428910D01*
X146963438Y-73444562D01*
X146979090Y-73461832D01*
X146992974Y-73480552D01*
X147004956Y-73500543D01*
X147014921Y-73521613D01*
X147022773Y-73543557D01*
X147028437Y-73566166D01*
X147031856Y-73589221D01*
X147033000Y-73612500D01*
X147033000Y-74187500D01*
X147031856Y-74210779D01*
X147028437Y-74233834D01*
X147022773Y-74256443D01*
X147014921Y-74278387D01*
X147004956Y-74299457D01*
X146992974Y-74319448D01*
X146979090Y-74338168D01*
X146963438Y-74355438D01*
X146946168Y-74371090D01*
X146927448Y-74384974D01*
X146907457Y-74396956D01*
X146886387Y-74406921D01*
X146864443Y-74414773D01*
X146841834Y-74420437D01*
X146818779Y-74423856D01*
X146795500Y-74425000D01*
X146320500Y-74425000D01*
X146297221Y-74423856D01*
X146274166Y-74420437D01*
X146251557Y-74414773D01*
X146229613Y-74406921D01*
X146208543Y-74396956D01*
X146188552Y-74384974D01*
X146169832Y-74371090D01*
X146152562Y-74355438D01*
X146136910Y-74338168D01*
X146123026Y-74319448D01*
X146111044Y-74299457D01*
X146101079Y-74278387D01*
X146093227Y-74256443D01*
X146087563Y-74233834D01*
X146084144Y-74210779D01*
X146083000Y-74187500D01*
X146083000Y-73612500D01*
X146084144Y-73589221D01*
X146087563Y-73566166D01*
X146093227Y-73543557D01*
X146101079Y-73521613D01*
X146111044Y-73500543D01*
X146123026Y-73480552D01*
X146136910Y-73461832D01*
X146152562Y-73444562D01*
X146169832Y-73428910D01*
X146188552Y-73415026D01*
X146208543Y-73403044D01*
X146229613Y-73393079D01*
X146251557Y-73385227D01*
X146274166Y-73379563D01*
X146297221Y-73376144D01*
X146320500Y-73375000D01*
X146795500Y-73375000D01*
X146818779Y-73376144D01*
X146818779Y-73376144D01*
G37*
D17*
X146558000Y-73900000D03*
G04 #@! TD*
D18*
G04 #@! TO.C,Q1*
X121905000Y-85945000D03*
D19*
X120000000Y-87972500D03*
D18*
X118095000Y-85945000D03*
D20*
X122280000Y-89112500D03*
X117720000Y-89112500D03*
D21*
X118095000Y-91465000D03*
X119365000Y-91465000D03*
X120635000Y-91465000D03*
X121905000Y-91465000D03*
G04 #@! TD*
G04 #@! TO.C,Q2*
X125595000Y-86035000D03*
X126865000Y-86035000D03*
X128135000Y-86035000D03*
X129405000Y-86035000D03*
D20*
X129780000Y-88387500D03*
X125220000Y-88387500D03*
D18*
X129405000Y-91555000D03*
D19*
X127500000Y-89527500D03*
D18*
X125595000Y-91555000D03*
G04 #@! TD*
D21*
G04 #@! TO.C,Q3*
X146905000Y-91465000D03*
X145635000Y-91465000D03*
X144365000Y-91465000D03*
X143095000Y-91465000D03*
D20*
X142720000Y-89112500D03*
X147280000Y-89112500D03*
D18*
X143095000Y-85945000D03*
D19*
X145000000Y-87972500D03*
D18*
X146905000Y-85945000D03*
G04 #@! TD*
G04 #@! TO.C,Q4*
X135595000Y-91555000D03*
D19*
X137500000Y-89527500D03*
D18*
X139405000Y-91555000D03*
D20*
X135220000Y-88387500D03*
X139780000Y-88387500D03*
D21*
X139405000Y-86035000D03*
X138135000Y-86035000D03*
X136865000Y-86035000D03*
X135595000Y-86035000D03*
G04 #@! TD*
D18*
G04 #@! TO.C,Q5*
X156905000Y-85945000D03*
D19*
X155000000Y-87972500D03*
D18*
X153095000Y-85945000D03*
D20*
X157280000Y-89112500D03*
X152720000Y-89112500D03*
D21*
X153095000Y-91465000D03*
X154365000Y-91465000D03*
X155635000Y-91465000D03*
X156905000Y-91465000D03*
G04 #@! TD*
G04 #@! TO.C,Q6*
X160595000Y-86035000D03*
X161865000Y-86035000D03*
X163135000Y-86035000D03*
X164405000Y-86035000D03*
D20*
X164780000Y-88387500D03*
X160220000Y-88387500D03*
D18*
X164405000Y-91555000D03*
D19*
X162500000Y-89527500D03*
D18*
X160595000Y-91555000D03*
G04 #@! TD*
D10*
G04 #@! TO.C,C_DVDD1*
G36*
X141906015Y-68235588D02*
X141927250Y-68238738D01*
X141948074Y-68243954D01*
X141968286Y-68251186D01*
X141987692Y-68260365D01*
X142006105Y-68271401D01*
X142023348Y-68284189D01*
X142039254Y-68298605D01*
X142053670Y-68314511D01*
X142066458Y-68331754D01*
X142077494Y-68350167D01*
X142086673Y-68369573D01*
X142093905Y-68389785D01*
X142099121Y-68410609D01*
X142102271Y-68431844D01*
X142103324Y-68453285D01*
X142103324Y-68890785D01*
X142102271Y-68912226D01*
X142099121Y-68933461D01*
X142093905Y-68954285D01*
X142086673Y-68974497D01*
X142077494Y-68993903D01*
X142066458Y-69012316D01*
X142053670Y-69029559D01*
X142039254Y-69045465D01*
X142023348Y-69059881D01*
X142006105Y-69072669D01*
X141987692Y-69083705D01*
X141968286Y-69092884D01*
X141948074Y-69100116D01*
X141927250Y-69105332D01*
X141906015Y-69108482D01*
X141884574Y-69109535D01*
X141372074Y-69109535D01*
X141350633Y-69108482D01*
X141329398Y-69105332D01*
X141308574Y-69100116D01*
X141288362Y-69092884D01*
X141268956Y-69083705D01*
X141250543Y-69072669D01*
X141233300Y-69059881D01*
X141217394Y-69045465D01*
X141202978Y-69029559D01*
X141190190Y-69012316D01*
X141179154Y-68993903D01*
X141169975Y-68974497D01*
X141162743Y-68954285D01*
X141157527Y-68933461D01*
X141154377Y-68912226D01*
X141153324Y-68890785D01*
X141153324Y-68453285D01*
X141154377Y-68431844D01*
X141157527Y-68410609D01*
X141162743Y-68389785D01*
X141169975Y-68369573D01*
X141179154Y-68350167D01*
X141190190Y-68331754D01*
X141202978Y-68314511D01*
X141217394Y-68298605D01*
X141233300Y-68284189D01*
X141250543Y-68271401D01*
X141268956Y-68260365D01*
X141288362Y-68251186D01*
X141308574Y-68243954D01*
X141329398Y-68238738D01*
X141350633Y-68235588D01*
X141372074Y-68234535D01*
X141884574Y-68234535D01*
X141906015Y-68235588D01*
X141906015Y-68235588D01*
G37*
D15*
X141628324Y-68672035D03*
D10*
G36*
X141906015Y-66660588D02*
X141927250Y-66663738D01*
X141948074Y-66668954D01*
X141968286Y-66676186D01*
X141987692Y-66685365D01*
X142006105Y-66696401D01*
X142023348Y-66709189D01*
X142039254Y-66723605D01*
X142053670Y-66739511D01*
X142066458Y-66756754D01*
X142077494Y-66775167D01*
X142086673Y-66794573D01*
X142093905Y-66814785D01*
X142099121Y-66835609D01*
X142102271Y-66856844D01*
X142103324Y-66878285D01*
X142103324Y-67315785D01*
X142102271Y-67337226D01*
X142099121Y-67358461D01*
X142093905Y-67379285D01*
X142086673Y-67399497D01*
X142077494Y-67418903D01*
X142066458Y-67437316D01*
X142053670Y-67454559D01*
X142039254Y-67470465D01*
X142023348Y-67484881D01*
X142006105Y-67497669D01*
X141987692Y-67508705D01*
X141968286Y-67517884D01*
X141948074Y-67525116D01*
X141927250Y-67530332D01*
X141906015Y-67533482D01*
X141884574Y-67534535D01*
X141372074Y-67534535D01*
X141350633Y-67533482D01*
X141329398Y-67530332D01*
X141308574Y-67525116D01*
X141288362Y-67517884D01*
X141268956Y-67508705D01*
X141250543Y-67497669D01*
X141233300Y-67484881D01*
X141217394Y-67470465D01*
X141202978Y-67454559D01*
X141190190Y-67437316D01*
X141179154Y-67418903D01*
X141169975Y-67399497D01*
X141162743Y-67379285D01*
X141157527Y-67358461D01*
X141154377Y-67337226D01*
X141153324Y-67315785D01*
X141153324Y-66878285D01*
X141154377Y-66856844D01*
X141157527Y-66835609D01*
X141162743Y-66814785D01*
X141169975Y-66794573D01*
X141179154Y-66775167D01*
X141190190Y-66756754D01*
X141202978Y-66739511D01*
X141217394Y-66723605D01*
X141233300Y-66709189D01*
X141250543Y-66696401D01*
X141268956Y-66685365D01*
X141288362Y-66676186D01*
X141308574Y-66668954D01*
X141329398Y-66663738D01*
X141350633Y-66660588D01*
X141372074Y-66659535D01*
X141884574Y-66659535D01*
X141906015Y-66660588D01*
X141906015Y-66660588D01*
G37*
D15*
X141628324Y-67097035D03*
G04 #@! TD*
D10*
G04 #@! TO.C,C_SW1*
G36*
X130857015Y-69886588D02*
X130878250Y-69889738D01*
X130899074Y-69894954D01*
X130919286Y-69902186D01*
X130938692Y-69911365D01*
X130957105Y-69922401D01*
X130974348Y-69935189D01*
X130990254Y-69949605D01*
X131004670Y-69965511D01*
X131017458Y-69982754D01*
X131028494Y-70001167D01*
X131037673Y-70020573D01*
X131044905Y-70040785D01*
X131050121Y-70061609D01*
X131053271Y-70082844D01*
X131054324Y-70104285D01*
X131054324Y-70541785D01*
X131053271Y-70563226D01*
X131050121Y-70584461D01*
X131044905Y-70605285D01*
X131037673Y-70625497D01*
X131028494Y-70644903D01*
X131017458Y-70663316D01*
X131004670Y-70680559D01*
X130990254Y-70696465D01*
X130974348Y-70710881D01*
X130957105Y-70723669D01*
X130938692Y-70734705D01*
X130919286Y-70743884D01*
X130899074Y-70751116D01*
X130878250Y-70756332D01*
X130857015Y-70759482D01*
X130835574Y-70760535D01*
X130323074Y-70760535D01*
X130301633Y-70759482D01*
X130280398Y-70756332D01*
X130259574Y-70751116D01*
X130239362Y-70743884D01*
X130219956Y-70734705D01*
X130201543Y-70723669D01*
X130184300Y-70710881D01*
X130168394Y-70696465D01*
X130153978Y-70680559D01*
X130141190Y-70663316D01*
X130130154Y-70644903D01*
X130120975Y-70625497D01*
X130113743Y-70605285D01*
X130108527Y-70584461D01*
X130105377Y-70563226D01*
X130104324Y-70541785D01*
X130104324Y-70104285D01*
X130105377Y-70082844D01*
X130108527Y-70061609D01*
X130113743Y-70040785D01*
X130120975Y-70020573D01*
X130130154Y-70001167D01*
X130141190Y-69982754D01*
X130153978Y-69965511D01*
X130168394Y-69949605D01*
X130184300Y-69935189D01*
X130201543Y-69922401D01*
X130219956Y-69911365D01*
X130239362Y-69902186D01*
X130259574Y-69894954D01*
X130280398Y-69889738D01*
X130301633Y-69886588D01*
X130323074Y-69885535D01*
X130835574Y-69885535D01*
X130857015Y-69886588D01*
X130857015Y-69886588D01*
G37*
D15*
X130579324Y-70323035D03*
D10*
G36*
X130857015Y-68311588D02*
X130878250Y-68314738D01*
X130899074Y-68319954D01*
X130919286Y-68327186D01*
X130938692Y-68336365D01*
X130957105Y-68347401D01*
X130974348Y-68360189D01*
X130990254Y-68374605D01*
X131004670Y-68390511D01*
X131017458Y-68407754D01*
X131028494Y-68426167D01*
X131037673Y-68445573D01*
X131044905Y-68465785D01*
X131050121Y-68486609D01*
X131053271Y-68507844D01*
X131054324Y-68529285D01*
X131054324Y-68966785D01*
X131053271Y-68988226D01*
X131050121Y-69009461D01*
X131044905Y-69030285D01*
X131037673Y-69050497D01*
X131028494Y-69069903D01*
X131017458Y-69088316D01*
X131004670Y-69105559D01*
X130990254Y-69121465D01*
X130974348Y-69135881D01*
X130957105Y-69148669D01*
X130938692Y-69159705D01*
X130919286Y-69168884D01*
X130899074Y-69176116D01*
X130878250Y-69181332D01*
X130857015Y-69184482D01*
X130835574Y-69185535D01*
X130323074Y-69185535D01*
X130301633Y-69184482D01*
X130280398Y-69181332D01*
X130259574Y-69176116D01*
X130239362Y-69168884D01*
X130219956Y-69159705D01*
X130201543Y-69148669D01*
X130184300Y-69135881D01*
X130168394Y-69121465D01*
X130153978Y-69105559D01*
X130141190Y-69088316D01*
X130130154Y-69069903D01*
X130120975Y-69050497D01*
X130113743Y-69030285D01*
X130108527Y-69009461D01*
X130105377Y-68988226D01*
X130104324Y-68966785D01*
X130104324Y-68529285D01*
X130105377Y-68507844D01*
X130108527Y-68486609D01*
X130113743Y-68465785D01*
X130120975Y-68445573D01*
X130130154Y-68426167D01*
X130141190Y-68407754D01*
X130153978Y-68390511D01*
X130168394Y-68374605D01*
X130184300Y-68360189D01*
X130201543Y-68347401D01*
X130219956Y-68336365D01*
X130239362Y-68327186D01*
X130259574Y-68319954D01*
X130280398Y-68314738D01*
X130301633Y-68311588D01*
X130323074Y-68310535D01*
X130835574Y-68310535D01*
X130857015Y-68311588D01*
X130857015Y-68311588D01*
G37*
D15*
X130579324Y-68748035D03*
G04 #@! TD*
D10*
G04 #@! TO.C,C_VCP1*
G36*
X128738691Y-66201053D02*
X128759926Y-66204203D01*
X128780750Y-66209419D01*
X128800962Y-66216651D01*
X128820368Y-66225830D01*
X128838781Y-66236866D01*
X128856024Y-66249654D01*
X128871930Y-66264070D01*
X128886346Y-66279976D01*
X128899134Y-66297219D01*
X128910170Y-66315632D01*
X128919349Y-66335038D01*
X128926581Y-66355250D01*
X128931797Y-66376074D01*
X128934947Y-66397309D01*
X128936000Y-66418750D01*
X128936000Y-66931250D01*
X128934947Y-66952691D01*
X128931797Y-66973926D01*
X128926581Y-66994750D01*
X128919349Y-67014962D01*
X128910170Y-67034368D01*
X128899134Y-67052781D01*
X128886346Y-67070024D01*
X128871930Y-67085930D01*
X128856024Y-67100346D01*
X128838781Y-67113134D01*
X128820368Y-67124170D01*
X128800962Y-67133349D01*
X128780750Y-67140581D01*
X128759926Y-67145797D01*
X128738691Y-67148947D01*
X128717250Y-67150000D01*
X128279750Y-67150000D01*
X128258309Y-67148947D01*
X128237074Y-67145797D01*
X128216250Y-67140581D01*
X128196038Y-67133349D01*
X128176632Y-67124170D01*
X128158219Y-67113134D01*
X128140976Y-67100346D01*
X128125070Y-67085930D01*
X128110654Y-67070024D01*
X128097866Y-67052781D01*
X128086830Y-67034368D01*
X128077651Y-67014962D01*
X128070419Y-66994750D01*
X128065203Y-66973926D01*
X128062053Y-66952691D01*
X128061000Y-66931250D01*
X128061000Y-66418750D01*
X128062053Y-66397309D01*
X128065203Y-66376074D01*
X128070419Y-66355250D01*
X128077651Y-66335038D01*
X128086830Y-66315632D01*
X128097866Y-66297219D01*
X128110654Y-66279976D01*
X128125070Y-66264070D01*
X128140976Y-66249654D01*
X128158219Y-66236866D01*
X128176632Y-66225830D01*
X128196038Y-66216651D01*
X128216250Y-66209419D01*
X128237074Y-66204203D01*
X128258309Y-66201053D01*
X128279750Y-66200000D01*
X128717250Y-66200000D01*
X128738691Y-66201053D01*
X128738691Y-66201053D01*
G37*
D15*
X128498500Y-66675000D03*
D10*
G36*
X130313691Y-66201053D02*
X130334926Y-66204203D01*
X130355750Y-66209419D01*
X130375962Y-66216651D01*
X130395368Y-66225830D01*
X130413781Y-66236866D01*
X130431024Y-66249654D01*
X130446930Y-66264070D01*
X130461346Y-66279976D01*
X130474134Y-66297219D01*
X130485170Y-66315632D01*
X130494349Y-66335038D01*
X130501581Y-66355250D01*
X130506797Y-66376074D01*
X130509947Y-66397309D01*
X130511000Y-66418750D01*
X130511000Y-66931250D01*
X130509947Y-66952691D01*
X130506797Y-66973926D01*
X130501581Y-66994750D01*
X130494349Y-67014962D01*
X130485170Y-67034368D01*
X130474134Y-67052781D01*
X130461346Y-67070024D01*
X130446930Y-67085930D01*
X130431024Y-67100346D01*
X130413781Y-67113134D01*
X130395368Y-67124170D01*
X130375962Y-67133349D01*
X130355750Y-67140581D01*
X130334926Y-67145797D01*
X130313691Y-67148947D01*
X130292250Y-67150000D01*
X129854750Y-67150000D01*
X129833309Y-67148947D01*
X129812074Y-67145797D01*
X129791250Y-67140581D01*
X129771038Y-67133349D01*
X129751632Y-67124170D01*
X129733219Y-67113134D01*
X129715976Y-67100346D01*
X129700070Y-67085930D01*
X129685654Y-67070024D01*
X129672866Y-67052781D01*
X129661830Y-67034368D01*
X129652651Y-67014962D01*
X129645419Y-66994750D01*
X129640203Y-66973926D01*
X129637053Y-66952691D01*
X129636000Y-66931250D01*
X129636000Y-66418750D01*
X129637053Y-66397309D01*
X129640203Y-66376074D01*
X129645419Y-66355250D01*
X129652651Y-66335038D01*
X129661830Y-66315632D01*
X129672866Y-66297219D01*
X129685654Y-66279976D01*
X129700070Y-66264070D01*
X129715976Y-66249654D01*
X129733219Y-66236866D01*
X129751632Y-66225830D01*
X129771038Y-66216651D01*
X129791250Y-66209419D01*
X129812074Y-66204203D01*
X129833309Y-66201053D01*
X129854750Y-66200000D01*
X130292250Y-66200000D01*
X130313691Y-66201053D01*
X130313691Y-66201053D01*
G37*
D15*
X130073500Y-66675000D03*
G04 #@! TD*
D10*
G04 #@! TO.C,C_VM1*
G36*
X128063015Y-69886588D02*
X128084250Y-69889738D01*
X128105074Y-69894954D01*
X128125286Y-69902186D01*
X128144692Y-69911365D01*
X128163105Y-69922401D01*
X128180348Y-69935189D01*
X128196254Y-69949605D01*
X128210670Y-69965511D01*
X128223458Y-69982754D01*
X128234494Y-70001167D01*
X128243673Y-70020573D01*
X128250905Y-70040785D01*
X128256121Y-70061609D01*
X128259271Y-70082844D01*
X128260324Y-70104285D01*
X128260324Y-70541785D01*
X128259271Y-70563226D01*
X128256121Y-70584461D01*
X128250905Y-70605285D01*
X128243673Y-70625497D01*
X128234494Y-70644903D01*
X128223458Y-70663316D01*
X128210670Y-70680559D01*
X128196254Y-70696465D01*
X128180348Y-70710881D01*
X128163105Y-70723669D01*
X128144692Y-70734705D01*
X128125286Y-70743884D01*
X128105074Y-70751116D01*
X128084250Y-70756332D01*
X128063015Y-70759482D01*
X128041574Y-70760535D01*
X127529074Y-70760535D01*
X127507633Y-70759482D01*
X127486398Y-70756332D01*
X127465574Y-70751116D01*
X127445362Y-70743884D01*
X127425956Y-70734705D01*
X127407543Y-70723669D01*
X127390300Y-70710881D01*
X127374394Y-70696465D01*
X127359978Y-70680559D01*
X127347190Y-70663316D01*
X127336154Y-70644903D01*
X127326975Y-70625497D01*
X127319743Y-70605285D01*
X127314527Y-70584461D01*
X127311377Y-70563226D01*
X127310324Y-70541785D01*
X127310324Y-70104285D01*
X127311377Y-70082844D01*
X127314527Y-70061609D01*
X127319743Y-70040785D01*
X127326975Y-70020573D01*
X127336154Y-70001167D01*
X127347190Y-69982754D01*
X127359978Y-69965511D01*
X127374394Y-69949605D01*
X127390300Y-69935189D01*
X127407543Y-69922401D01*
X127425956Y-69911365D01*
X127445362Y-69902186D01*
X127465574Y-69894954D01*
X127486398Y-69889738D01*
X127507633Y-69886588D01*
X127529074Y-69885535D01*
X128041574Y-69885535D01*
X128063015Y-69886588D01*
X128063015Y-69886588D01*
G37*
D15*
X127785324Y-70323035D03*
D10*
G36*
X128063015Y-68311588D02*
X128084250Y-68314738D01*
X128105074Y-68319954D01*
X128125286Y-68327186D01*
X128144692Y-68336365D01*
X128163105Y-68347401D01*
X128180348Y-68360189D01*
X128196254Y-68374605D01*
X128210670Y-68390511D01*
X128223458Y-68407754D01*
X128234494Y-68426167D01*
X128243673Y-68445573D01*
X128250905Y-68465785D01*
X128256121Y-68486609D01*
X128259271Y-68507844D01*
X128260324Y-68529285D01*
X128260324Y-68966785D01*
X128259271Y-68988226D01*
X128256121Y-69009461D01*
X128250905Y-69030285D01*
X128243673Y-69050497D01*
X128234494Y-69069903D01*
X128223458Y-69088316D01*
X128210670Y-69105559D01*
X128196254Y-69121465D01*
X128180348Y-69135881D01*
X128163105Y-69148669D01*
X128144692Y-69159705D01*
X128125286Y-69168884D01*
X128105074Y-69176116D01*
X128084250Y-69181332D01*
X128063015Y-69184482D01*
X128041574Y-69185535D01*
X127529074Y-69185535D01*
X127507633Y-69184482D01*
X127486398Y-69181332D01*
X127465574Y-69176116D01*
X127445362Y-69168884D01*
X127425956Y-69159705D01*
X127407543Y-69148669D01*
X127390300Y-69135881D01*
X127374394Y-69121465D01*
X127359978Y-69105559D01*
X127347190Y-69088316D01*
X127336154Y-69069903D01*
X127326975Y-69050497D01*
X127319743Y-69030285D01*
X127314527Y-69009461D01*
X127311377Y-68988226D01*
X127310324Y-68966785D01*
X127310324Y-68529285D01*
X127311377Y-68507844D01*
X127314527Y-68486609D01*
X127319743Y-68465785D01*
X127326975Y-68445573D01*
X127336154Y-68426167D01*
X127347190Y-68407754D01*
X127359978Y-68390511D01*
X127374394Y-68374605D01*
X127390300Y-68360189D01*
X127407543Y-68347401D01*
X127425956Y-68336365D01*
X127445362Y-68327186D01*
X127465574Y-68319954D01*
X127486398Y-68314738D01*
X127507633Y-68311588D01*
X127529074Y-68310535D01*
X128041574Y-68310535D01*
X128063015Y-68311588D01*
X128063015Y-68311588D01*
G37*
D15*
X127785324Y-68748035D03*
G04 #@! TD*
D10*
G04 #@! TO.C,C9*
G36*
X124923704Y-60300904D02*
X124947973Y-60304504D01*
X124971771Y-60310465D01*
X124994871Y-60318730D01*
X125017049Y-60329220D01*
X125038093Y-60341833D01*
X125057798Y-60356447D01*
X125075977Y-60372923D01*
X125092453Y-60391102D01*
X125107067Y-60410807D01*
X125119680Y-60431851D01*
X125130170Y-60454029D01*
X125138435Y-60477129D01*
X125144396Y-60500927D01*
X125147996Y-60525196D01*
X125149200Y-60549700D01*
X125149200Y-61649700D01*
X125147996Y-61674204D01*
X125144396Y-61698473D01*
X125138435Y-61722271D01*
X125130170Y-61745371D01*
X125119680Y-61767549D01*
X125107067Y-61788593D01*
X125092453Y-61808298D01*
X125075977Y-61826477D01*
X125057798Y-61842953D01*
X125038093Y-61857567D01*
X125017049Y-61870180D01*
X124994871Y-61880670D01*
X124971771Y-61888935D01*
X124947973Y-61894896D01*
X124923704Y-61898496D01*
X124899200Y-61899700D01*
X121899200Y-61899700D01*
X121874696Y-61898496D01*
X121850427Y-61894896D01*
X121826629Y-61888935D01*
X121803529Y-61880670D01*
X121781351Y-61870180D01*
X121760307Y-61857567D01*
X121740602Y-61842953D01*
X121722423Y-61826477D01*
X121705947Y-61808298D01*
X121691333Y-61788593D01*
X121678720Y-61767549D01*
X121668230Y-61745371D01*
X121659965Y-61722271D01*
X121654004Y-61698473D01*
X121650404Y-61674204D01*
X121649200Y-61649700D01*
X121649200Y-60549700D01*
X121650404Y-60525196D01*
X121654004Y-60500927D01*
X121659965Y-60477129D01*
X121668230Y-60454029D01*
X121678720Y-60431851D01*
X121691333Y-60410807D01*
X121705947Y-60391102D01*
X121722423Y-60372923D01*
X121740602Y-60356447D01*
X121760307Y-60341833D01*
X121781351Y-60329220D01*
X121803529Y-60318730D01*
X121826629Y-60310465D01*
X121850427Y-60304504D01*
X121874696Y-60300904D01*
X121899200Y-60299700D01*
X124899200Y-60299700D01*
X124923704Y-60300904D01*
X124923704Y-60300904D01*
G37*
D22*
X123399200Y-61099700D03*
D10*
G36*
X119323704Y-60300904D02*
X119347973Y-60304504D01*
X119371771Y-60310465D01*
X119394871Y-60318730D01*
X119417049Y-60329220D01*
X119438093Y-60341833D01*
X119457798Y-60356447D01*
X119475977Y-60372923D01*
X119492453Y-60391102D01*
X119507067Y-60410807D01*
X119519680Y-60431851D01*
X119530170Y-60454029D01*
X119538435Y-60477129D01*
X119544396Y-60500927D01*
X119547996Y-60525196D01*
X119549200Y-60549700D01*
X119549200Y-61649700D01*
X119547996Y-61674204D01*
X119544396Y-61698473D01*
X119538435Y-61722271D01*
X119530170Y-61745371D01*
X119519680Y-61767549D01*
X119507067Y-61788593D01*
X119492453Y-61808298D01*
X119475977Y-61826477D01*
X119457798Y-61842953D01*
X119438093Y-61857567D01*
X119417049Y-61870180D01*
X119394871Y-61880670D01*
X119371771Y-61888935D01*
X119347973Y-61894896D01*
X119323704Y-61898496D01*
X119299200Y-61899700D01*
X116299200Y-61899700D01*
X116274696Y-61898496D01*
X116250427Y-61894896D01*
X116226629Y-61888935D01*
X116203529Y-61880670D01*
X116181351Y-61870180D01*
X116160307Y-61857567D01*
X116140602Y-61842953D01*
X116122423Y-61826477D01*
X116105947Y-61808298D01*
X116091333Y-61788593D01*
X116078720Y-61767549D01*
X116068230Y-61745371D01*
X116059965Y-61722271D01*
X116054004Y-61698473D01*
X116050404Y-61674204D01*
X116049200Y-61649700D01*
X116049200Y-60549700D01*
X116050404Y-60525196D01*
X116054004Y-60500927D01*
X116059965Y-60477129D01*
X116068230Y-60454029D01*
X116078720Y-60431851D01*
X116091333Y-60410807D01*
X116105947Y-60391102D01*
X116122423Y-60372923D01*
X116140602Y-60356447D01*
X116160307Y-60341833D01*
X116181351Y-60329220D01*
X116203529Y-60318730D01*
X116226629Y-60310465D01*
X116250427Y-60304504D01*
X116274696Y-60300904D01*
X116299200Y-60299700D01*
X119299200Y-60299700D01*
X119323704Y-60300904D01*
X119323704Y-60300904D01*
G37*
D22*
X117799200Y-61099700D03*
G04 #@! TD*
D10*
G04 #@! TO.C,C10*
G36*
X119311004Y-67768504D02*
X119335273Y-67772104D01*
X119359071Y-67778065D01*
X119382171Y-67786330D01*
X119404349Y-67796820D01*
X119425393Y-67809433D01*
X119445098Y-67824047D01*
X119463277Y-67840523D01*
X119479753Y-67858702D01*
X119494367Y-67878407D01*
X119506980Y-67899451D01*
X119517470Y-67921629D01*
X119525735Y-67944729D01*
X119531696Y-67968527D01*
X119535296Y-67992796D01*
X119536500Y-68017300D01*
X119536500Y-69117300D01*
X119535296Y-69141804D01*
X119531696Y-69166073D01*
X119525735Y-69189871D01*
X119517470Y-69212971D01*
X119506980Y-69235149D01*
X119494367Y-69256193D01*
X119479753Y-69275898D01*
X119463277Y-69294077D01*
X119445098Y-69310553D01*
X119425393Y-69325167D01*
X119404349Y-69337780D01*
X119382171Y-69348270D01*
X119359071Y-69356535D01*
X119335273Y-69362496D01*
X119311004Y-69366096D01*
X119286500Y-69367300D01*
X116286500Y-69367300D01*
X116261996Y-69366096D01*
X116237727Y-69362496D01*
X116213929Y-69356535D01*
X116190829Y-69348270D01*
X116168651Y-69337780D01*
X116147607Y-69325167D01*
X116127902Y-69310553D01*
X116109723Y-69294077D01*
X116093247Y-69275898D01*
X116078633Y-69256193D01*
X116066020Y-69235149D01*
X116055530Y-69212971D01*
X116047265Y-69189871D01*
X116041304Y-69166073D01*
X116037704Y-69141804D01*
X116036500Y-69117300D01*
X116036500Y-68017300D01*
X116037704Y-67992796D01*
X116041304Y-67968527D01*
X116047265Y-67944729D01*
X116055530Y-67921629D01*
X116066020Y-67899451D01*
X116078633Y-67878407D01*
X116093247Y-67858702D01*
X116109723Y-67840523D01*
X116127902Y-67824047D01*
X116147607Y-67809433D01*
X116168651Y-67796820D01*
X116190829Y-67786330D01*
X116213929Y-67778065D01*
X116237727Y-67772104D01*
X116261996Y-67768504D01*
X116286500Y-67767300D01*
X119286500Y-67767300D01*
X119311004Y-67768504D01*
X119311004Y-67768504D01*
G37*
D22*
X117786500Y-68567300D03*
D10*
G36*
X124911004Y-67768504D02*
X124935273Y-67772104D01*
X124959071Y-67778065D01*
X124982171Y-67786330D01*
X125004349Y-67796820D01*
X125025393Y-67809433D01*
X125045098Y-67824047D01*
X125063277Y-67840523D01*
X125079753Y-67858702D01*
X125094367Y-67878407D01*
X125106980Y-67899451D01*
X125117470Y-67921629D01*
X125125735Y-67944729D01*
X125131696Y-67968527D01*
X125135296Y-67992796D01*
X125136500Y-68017300D01*
X125136500Y-69117300D01*
X125135296Y-69141804D01*
X125131696Y-69166073D01*
X125125735Y-69189871D01*
X125117470Y-69212971D01*
X125106980Y-69235149D01*
X125094367Y-69256193D01*
X125079753Y-69275898D01*
X125063277Y-69294077D01*
X125045098Y-69310553D01*
X125025393Y-69325167D01*
X125004349Y-69337780D01*
X124982171Y-69348270D01*
X124959071Y-69356535D01*
X124935273Y-69362496D01*
X124911004Y-69366096D01*
X124886500Y-69367300D01*
X121886500Y-69367300D01*
X121861996Y-69366096D01*
X121837727Y-69362496D01*
X121813929Y-69356535D01*
X121790829Y-69348270D01*
X121768651Y-69337780D01*
X121747607Y-69325167D01*
X121727902Y-69310553D01*
X121709723Y-69294077D01*
X121693247Y-69275898D01*
X121678633Y-69256193D01*
X121666020Y-69235149D01*
X121655530Y-69212971D01*
X121647265Y-69189871D01*
X121641304Y-69166073D01*
X121637704Y-69141804D01*
X121636500Y-69117300D01*
X121636500Y-68017300D01*
X121637704Y-67992796D01*
X121641304Y-67968527D01*
X121647265Y-67944729D01*
X121655530Y-67921629D01*
X121666020Y-67899451D01*
X121678633Y-67878407D01*
X121693247Y-67858702D01*
X121709723Y-67840523D01*
X121727902Y-67824047D01*
X121747607Y-67809433D01*
X121768651Y-67796820D01*
X121790829Y-67786330D01*
X121813929Y-67778065D01*
X121837727Y-67772104D01*
X121861996Y-67768504D01*
X121886500Y-67767300D01*
X124886500Y-67767300D01*
X124911004Y-67768504D01*
X124911004Y-67768504D01*
G37*
D22*
X123386500Y-68567300D03*
G04 #@! TD*
D10*
G04 #@! TO.C,C1*
G36*
X118379504Y-82057204D02*
X118403773Y-82060804D01*
X118427571Y-82066765D01*
X118450671Y-82075030D01*
X118472849Y-82085520D01*
X118493893Y-82098133D01*
X118513598Y-82112747D01*
X118531777Y-82129223D01*
X118548253Y-82147402D01*
X118562867Y-82167107D01*
X118575480Y-82188151D01*
X118585970Y-82210329D01*
X118594235Y-82233429D01*
X118600196Y-82257227D01*
X118603796Y-82281496D01*
X118605000Y-82306000D01*
X118605000Y-83556000D01*
X118603796Y-83580504D01*
X118600196Y-83604773D01*
X118594235Y-83628571D01*
X118585970Y-83651671D01*
X118575480Y-83673849D01*
X118562867Y-83694893D01*
X118548253Y-83714598D01*
X118531777Y-83732777D01*
X118513598Y-83749253D01*
X118493893Y-83763867D01*
X118472849Y-83776480D01*
X118450671Y-83786970D01*
X118427571Y-83795235D01*
X118403773Y-83801196D01*
X118379504Y-83804796D01*
X118355000Y-83806000D01*
X117605000Y-83806000D01*
X117580496Y-83804796D01*
X117556227Y-83801196D01*
X117532429Y-83795235D01*
X117509329Y-83786970D01*
X117487151Y-83776480D01*
X117466107Y-83763867D01*
X117446402Y-83749253D01*
X117428223Y-83732777D01*
X117411747Y-83714598D01*
X117397133Y-83694893D01*
X117384520Y-83673849D01*
X117374030Y-83651671D01*
X117365765Y-83628571D01*
X117359804Y-83604773D01*
X117356204Y-83580504D01*
X117355000Y-83556000D01*
X117355000Y-82306000D01*
X117356204Y-82281496D01*
X117359804Y-82257227D01*
X117365765Y-82233429D01*
X117374030Y-82210329D01*
X117384520Y-82188151D01*
X117397133Y-82167107D01*
X117411747Y-82147402D01*
X117428223Y-82129223D01*
X117446402Y-82112747D01*
X117466107Y-82098133D01*
X117487151Y-82085520D01*
X117509329Y-82075030D01*
X117532429Y-82066765D01*
X117556227Y-82060804D01*
X117580496Y-82057204D01*
X117605000Y-82056000D01*
X118355000Y-82056000D01*
X118379504Y-82057204D01*
X118379504Y-82057204D01*
G37*
D23*
X117980000Y-82931000D03*
D10*
G36*
X121179504Y-82057204D02*
X121203773Y-82060804D01*
X121227571Y-82066765D01*
X121250671Y-82075030D01*
X121272849Y-82085520D01*
X121293893Y-82098133D01*
X121313598Y-82112747D01*
X121331777Y-82129223D01*
X121348253Y-82147402D01*
X121362867Y-82167107D01*
X121375480Y-82188151D01*
X121385970Y-82210329D01*
X121394235Y-82233429D01*
X121400196Y-82257227D01*
X121403796Y-82281496D01*
X121405000Y-82306000D01*
X121405000Y-83556000D01*
X121403796Y-83580504D01*
X121400196Y-83604773D01*
X121394235Y-83628571D01*
X121385970Y-83651671D01*
X121375480Y-83673849D01*
X121362867Y-83694893D01*
X121348253Y-83714598D01*
X121331777Y-83732777D01*
X121313598Y-83749253D01*
X121293893Y-83763867D01*
X121272849Y-83776480D01*
X121250671Y-83786970D01*
X121227571Y-83795235D01*
X121203773Y-83801196D01*
X121179504Y-83804796D01*
X121155000Y-83806000D01*
X120405000Y-83806000D01*
X120380496Y-83804796D01*
X120356227Y-83801196D01*
X120332429Y-83795235D01*
X120309329Y-83786970D01*
X120287151Y-83776480D01*
X120266107Y-83763867D01*
X120246402Y-83749253D01*
X120228223Y-83732777D01*
X120211747Y-83714598D01*
X120197133Y-83694893D01*
X120184520Y-83673849D01*
X120174030Y-83651671D01*
X120165765Y-83628571D01*
X120159804Y-83604773D01*
X120156204Y-83580504D01*
X120155000Y-83556000D01*
X120155000Y-82306000D01*
X120156204Y-82281496D01*
X120159804Y-82257227D01*
X120165765Y-82233429D01*
X120174030Y-82210329D01*
X120184520Y-82188151D01*
X120197133Y-82167107D01*
X120211747Y-82147402D01*
X120228223Y-82129223D01*
X120246402Y-82112747D01*
X120266107Y-82098133D01*
X120287151Y-82085520D01*
X120309329Y-82075030D01*
X120332429Y-82066765D01*
X120356227Y-82060804D01*
X120380496Y-82057204D01*
X120405000Y-82056000D01*
X121155000Y-82056000D01*
X121179504Y-82057204D01*
X121179504Y-82057204D01*
G37*
D23*
X120780000Y-82931000D03*
G04 #@! TD*
D10*
G04 #@! TO.C,C2*
G36*
X143906504Y-82311204D02*
X143930773Y-82314804D01*
X143954571Y-82320765D01*
X143977671Y-82329030D01*
X143999849Y-82339520D01*
X144020893Y-82352133D01*
X144040598Y-82366747D01*
X144058777Y-82383223D01*
X144075253Y-82401402D01*
X144089867Y-82421107D01*
X144102480Y-82442151D01*
X144112970Y-82464329D01*
X144121235Y-82487429D01*
X144127196Y-82511227D01*
X144130796Y-82535496D01*
X144132000Y-82560000D01*
X144132000Y-83810000D01*
X144130796Y-83834504D01*
X144127196Y-83858773D01*
X144121235Y-83882571D01*
X144112970Y-83905671D01*
X144102480Y-83927849D01*
X144089867Y-83948893D01*
X144075253Y-83968598D01*
X144058777Y-83986777D01*
X144040598Y-84003253D01*
X144020893Y-84017867D01*
X143999849Y-84030480D01*
X143977671Y-84040970D01*
X143954571Y-84049235D01*
X143930773Y-84055196D01*
X143906504Y-84058796D01*
X143882000Y-84060000D01*
X143132000Y-84060000D01*
X143107496Y-84058796D01*
X143083227Y-84055196D01*
X143059429Y-84049235D01*
X143036329Y-84040970D01*
X143014151Y-84030480D01*
X142993107Y-84017867D01*
X142973402Y-84003253D01*
X142955223Y-83986777D01*
X142938747Y-83968598D01*
X142924133Y-83948893D01*
X142911520Y-83927849D01*
X142901030Y-83905671D01*
X142892765Y-83882571D01*
X142886804Y-83858773D01*
X142883204Y-83834504D01*
X142882000Y-83810000D01*
X142882000Y-82560000D01*
X142883204Y-82535496D01*
X142886804Y-82511227D01*
X142892765Y-82487429D01*
X142901030Y-82464329D01*
X142911520Y-82442151D01*
X142924133Y-82421107D01*
X142938747Y-82401402D01*
X142955223Y-82383223D01*
X142973402Y-82366747D01*
X142993107Y-82352133D01*
X143014151Y-82339520D01*
X143036329Y-82329030D01*
X143059429Y-82320765D01*
X143083227Y-82314804D01*
X143107496Y-82311204D01*
X143132000Y-82310000D01*
X143882000Y-82310000D01*
X143906504Y-82311204D01*
X143906504Y-82311204D01*
G37*
D23*
X143507000Y-83185000D03*
D10*
G36*
X146706504Y-82311204D02*
X146730773Y-82314804D01*
X146754571Y-82320765D01*
X146777671Y-82329030D01*
X146799849Y-82339520D01*
X146820893Y-82352133D01*
X146840598Y-82366747D01*
X146858777Y-82383223D01*
X146875253Y-82401402D01*
X146889867Y-82421107D01*
X146902480Y-82442151D01*
X146912970Y-82464329D01*
X146921235Y-82487429D01*
X146927196Y-82511227D01*
X146930796Y-82535496D01*
X146932000Y-82560000D01*
X146932000Y-83810000D01*
X146930796Y-83834504D01*
X146927196Y-83858773D01*
X146921235Y-83882571D01*
X146912970Y-83905671D01*
X146902480Y-83927849D01*
X146889867Y-83948893D01*
X146875253Y-83968598D01*
X146858777Y-83986777D01*
X146840598Y-84003253D01*
X146820893Y-84017867D01*
X146799849Y-84030480D01*
X146777671Y-84040970D01*
X146754571Y-84049235D01*
X146730773Y-84055196D01*
X146706504Y-84058796D01*
X146682000Y-84060000D01*
X145932000Y-84060000D01*
X145907496Y-84058796D01*
X145883227Y-84055196D01*
X145859429Y-84049235D01*
X145836329Y-84040970D01*
X145814151Y-84030480D01*
X145793107Y-84017867D01*
X145773402Y-84003253D01*
X145755223Y-83986777D01*
X145738747Y-83968598D01*
X145724133Y-83948893D01*
X145711520Y-83927849D01*
X145701030Y-83905671D01*
X145692765Y-83882571D01*
X145686804Y-83858773D01*
X145683204Y-83834504D01*
X145682000Y-83810000D01*
X145682000Y-82560000D01*
X145683204Y-82535496D01*
X145686804Y-82511227D01*
X145692765Y-82487429D01*
X145701030Y-82464329D01*
X145711520Y-82442151D01*
X145724133Y-82421107D01*
X145738747Y-82401402D01*
X145755223Y-82383223D01*
X145773402Y-82366747D01*
X145793107Y-82352133D01*
X145814151Y-82339520D01*
X145836329Y-82329030D01*
X145859429Y-82320765D01*
X145883227Y-82314804D01*
X145907496Y-82311204D01*
X145932000Y-82310000D01*
X146682000Y-82310000D01*
X146706504Y-82311204D01*
X146706504Y-82311204D01*
G37*
D23*
X146307000Y-83185000D03*
G04 #@! TD*
D10*
G04 #@! TO.C,C3*
G36*
X153304504Y-81930204D02*
X153328773Y-81933804D01*
X153352571Y-81939765D01*
X153375671Y-81948030D01*
X153397849Y-81958520D01*
X153418893Y-81971133D01*
X153438598Y-81985747D01*
X153456777Y-82002223D01*
X153473253Y-82020402D01*
X153487867Y-82040107D01*
X153500480Y-82061151D01*
X153510970Y-82083329D01*
X153519235Y-82106429D01*
X153525196Y-82130227D01*
X153528796Y-82154496D01*
X153530000Y-82179000D01*
X153530000Y-83429000D01*
X153528796Y-83453504D01*
X153525196Y-83477773D01*
X153519235Y-83501571D01*
X153510970Y-83524671D01*
X153500480Y-83546849D01*
X153487867Y-83567893D01*
X153473253Y-83587598D01*
X153456777Y-83605777D01*
X153438598Y-83622253D01*
X153418893Y-83636867D01*
X153397849Y-83649480D01*
X153375671Y-83659970D01*
X153352571Y-83668235D01*
X153328773Y-83674196D01*
X153304504Y-83677796D01*
X153280000Y-83679000D01*
X152530000Y-83679000D01*
X152505496Y-83677796D01*
X152481227Y-83674196D01*
X152457429Y-83668235D01*
X152434329Y-83659970D01*
X152412151Y-83649480D01*
X152391107Y-83636867D01*
X152371402Y-83622253D01*
X152353223Y-83605777D01*
X152336747Y-83587598D01*
X152322133Y-83567893D01*
X152309520Y-83546849D01*
X152299030Y-83524671D01*
X152290765Y-83501571D01*
X152284804Y-83477773D01*
X152281204Y-83453504D01*
X152280000Y-83429000D01*
X152280000Y-82179000D01*
X152281204Y-82154496D01*
X152284804Y-82130227D01*
X152290765Y-82106429D01*
X152299030Y-82083329D01*
X152309520Y-82061151D01*
X152322133Y-82040107D01*
X152336747Y-82020402D01*
X152353223Y-82002223D01*
X152371402Y-81985747D01*
X152391107Y-81971133D01*
X152412151Y-81958520D01*
X152434329Y-81948030D01*
X152457429Y-81939765D01*
X152481227Y-81933804D01*
X152505496Y-81930204D01*
X152530000Y-81929000D01*
X153280000Y-81929000D01*
X153304504Y-81930204D01*
X153304504Y-81930204D01*
G37*
D23*
X152905000Y-82804000D03*
D10*
G36*
X156104504Y-81930204D02*
X156128773Y-81933804D01*
X156152571Y-81939765D01*
X156175671Y-81948030D01*
X156197849Y-81958520D01*
X156218893Y-81971133D01*
X156238598Y-81985747D01*
X156256777Y-82002223D01*
X156273253Y-82020402D01*
X156287867Y-82040107D01*
X156300480Y-82061151D01*
X156310970Y-82083329D01*
X156319235Y-82106429D01*
X156325196Y-82130227D01*
X156328796Y-82154496D01*
X156330000Y-82179000D01*
X156330000Y-83429000D01*
X156328796Y-83453504D01*
X156325196Y-83477773D01*
X156319235Y-83501571D01*
X156310970Y-83524671D01*
X156300480Y-83546849D01*
X156287867Y-83567893D01*
X156273253Y-83587598D01*
X156256777Y-83605777D01*
X156238598Y-83622253D01*
X156218893Y-83636867D01*
X156197849Y-83649480D01*
X156175671Y-83659970D01*
X156152571Y-83668235D01*
X156128773Y-83674196D01*
X156104504Y-83677796D01*
X156080000Y-83679000D01*
X155330000Y-83679000D01*
X155305496Y-83677796D01*
X155281227Y-83674196D01*
X155257429Y-83668235D01*
X155234329Y-83659970D01*
X155212151Y-83649480D01*
X155191107Y-83636867D01*
X155171402Y-83622253D01*
X155153223Y-83605777D01*
X155136747Y-83587598D01*
X155122133Y-83567893D01*
X155109520Y-83546849D01*
X155099030Y-83524671D01*
X155090765Y-83501571D01*
X155084804Y-83477773D01*
X155081204Y-83453504D01*
X155080000Y-83429000D01*
X155080000Y-82179000D01*
X155081204Y-82154496D01*
X155084804Y-82130227D01*
X155090765Y-82106429D01*
X155099030Y-82083329D01*
X155109520Y-82061151D01*
X155122133Y-82040107D01*
X155136747Y-82020402D01*
X155153223Y-82002223D01*
X155171402Y-81985747D01*
X155191107Y-81971133D01*
X155212151Y-81958520D01*
X155234329Y-81948030D01*
X155257429Y-81939765D01*
X155281227Y-81933804D01*
X155305496Y-81930204D01*
X155330000Y-81929000D01*
X156080000Y-81929000D01*
X156104504Y-81930204D01*
X156104504Y-81930204D01*
G37*
D23*
X155705000Y-82804000D03*
G04 #@! TD*
D10*
G04 #@! TO.C,C7*
G36*
X136158504Y-58733004D02*
X136182773Y-58736604D01*
X136206571Y-58742565D01*
X136229671Y-58750830D01*
X136251849Y-58761320D01*
X136272893Y-58773933D01*
X136292598Y-58788547D01*
X136310777Y-58805023D01*
X136327253Y-58823202D01*
X136341867Y-58842907D01*
X136354480Y-58863951D01*
X136364970Y-58886129D01*
X136373235Y-58909229D01*
X136379196Y-58933027D01*
X136382796Y-58957296D01*
X136384000Y-58981800D01*
X136384000Y-59731800D01*
X136382796Y-59756304D01*
X136379196Y-59780573D01*
X136373235Y-59804371D01*
X136364970Y-59827471D01*
X136354480Y-59849649D01*
X136341867Y-59870693D01*
X136327253Y-59890398D01*
X136310777Y-59908577D01*
X136292598Y-59925053D01*
X136272893Y-59939667D01*
X136251849Y-59952280D01*
X136229671Y-59962770D01*
X136206571Y-59971035D01*
X136182773Y-59976996D01*
X136158504Y-59980596D01*
X136134000Y-59981800D01*
X134884000Y-59981800D01*
X134859496Y-59980596D01*
X134835227Y-59976996D01*
X134811429Y-59971035D01*
X134788329Y-59962770D01*
X134766151Y-59952280D01*
X134745107Y-59939667D01*
X134725402Y-59925053D01*
X134707223Y-59908577D01*
X134690747Y-59890398D01*
X134676133Y-59870693D01*
X134663520Y-59849649D01*
X134653030Y-59827471D01*
X134644765Y-59804371D01*
X134638804Y-59780573D01*
X134635204Y-59756304D01*
X134634000Y-59731800D01*
X134634000Y-58981800D01*
X134635204Y-58957296D01*
X134638804Y-58933027D01*
X134644765Y-58909229D01*
X134653030Y-58886129D01*
X134663520Y-58863951D01*
X134676133Y-58842907D01*
X134690747Y-58823202D01*
X134707223Y-58805023D01*
X134725402Y-58788547D01*
X134745107Y-58773933D01*
X134766151Y-58761320D01*
X134788329Y-58750830D01*
X134811429Y-58742565D01*
X134835227Y-58736604D01*
X134859496Y-58733004D01*
X134884000Y-58731800D01*
X136134000Y-58731800D01*
X136158504Y-58733004D01*
X136158504Y-58733004D01*
G37*
D23*
X135509000Y-59356800D03*
D10*
G36*
X136158504Y-61533004D02*
X136182773Y-61536604D01*
X136206571Y-61542565D01*
X136229671Y-61550830D01*
X136251849Y-61561320D01*
X136272893Y-61573933D01*
X136292598Y-61588547D01*
X136310777Y-61605023D01*
X136327253Y-61623202D01*
X136341867Y-61642907D01*
X136354480Y-61663951D01*
X136364970Y-61686129D01*
X136373235Y-61709229D01*
X136379196Y-61733027D01*
X136382796Y-61757296D01*
X136384000Y-61781800D01*
X136384000Y-62531800D01*
X136382796Y-62556304D01*
X136379196Y-62580573D01*
X136373235Y-62604371D01*
X136364970Y-62627471D01*
X136354480Y-62649649D01*
X136341867Y-62670693D01*
X136327253Y-62690398D01*
X136310777Y-62708577D01*
X136292598Y-62725053D01*
X136272893Y-62739667D01*
X136251849Y-62752280D01*
X136229671Y-62762770D01*
X136206571Y-62771035D01*
X136182773Y-62776996D01*
X136158504Y-62780596D01*
X136134000Y-62781800D01*
X134884000Y-62781800D01*
X134859496Y-62780596D01*
X134835227Y-62776996D01*
X134811429Y-62771035D01*
X134788329Y-62762770D01*
X134766151Y-62752280D01*
X134745107Y-62739667D01*
X134725402Y-62725053D01*
X134707223Y-62708577D01*
X134690747Y-62690398D01*
X134676133Y-62670693D01*
X134663520Y-62649649D01*
X134653030Y-62627471D01*
X134644765Y-62604371D01*
X134638804Y-62580573D01*
X134635204Y-62556304D01*
X134634000Y-62531800D01*
X134634000Y-61781800D01*
X134635204Y-61757296D01*
X134638804Y-61733027D01*
X134644765Y-61709229D01*
X134653030Y-61686129D01*
X134663520Y-61663951D01*
X134676133Y-61642907D01*
X134690747Y-61623202D01*
X134707223Y-61605023D01*
X134725402Y-61588547D01*
X134745107Y-61573933D01*
X134766151Y-61561320D01*
X134788329Y-61550830D01*
X134811429Y-61542565D01*
X134835227Y-61536604D01*
X134859496Y-61533004D01*
X134884000Y-61531800D01*
X136134000Y-61531800D01*
X136158504Y-61533004D01*
X136158504Y-61533004D01*
G37*
D23*
X135509000Y-62156800D03*
G04 #@! TD*
D10*
G04 #@! TO.C,C8*
G36*
X136158504Y-54021304D02*
X136182773Y-54024904D01*
X136206571Y-54030865D01*
X136229671Y-54039130D01*
X136251849Y-54049620D01*
X136272893Y-54062233D01*
X136292598Y-54076847D01*
X136310777Y-54093323D01*
X136327253Y-54111502D01*
X136341867Y-54131207D01*
X136354480Y-54152251D01*
X136364970Y-54174429D01*
X136373235Y-54197529D01*
X136379196Y-54221327D01*
X136382796Y-54245596D01*
X136384000Y-54270100D01*
X136384000Y-55020100D01*
X136382796Y-55044604D01*
X136379196Y-55068873D01*
X136373235Y-55092671D01*
X136364970Y-55115771D01*
X136354480Y-55137949D01*
X136341867Y-55158993D01*
X136327253Y-55178698D01*
X136310777Y-55196877D01*
X136292598Y-55213353D01*
X136272893Y-55227967D01*
X136251849Y-55240580D01*
X136229671Y-55251070D01*
X136206571Y-55259335D01*
X136182773Y-55265296D01*
X136158504Y-55268896D01*
X136134000Y-55270100D01*
X134884000Y-55270100D01*
X134859496Y-55268896D01*
X134835227Y-55265296D01*
X134811429Y-55259335D01*
X134788329Y-55251070D01*
X134766151Y-55240580D01*
X134745107Y-55227967D01*
X134725402Y-55213353D01*
X134707223Y-55196877D01*
X134690747Y-55178698D01*
X134676133Y-55158993D01*
X134663520Y-55137949D01*
X134653030Y-55115771D01*
X134644765Y-55092671D01*
X134638804Y-55068873D01*
X134635204Y-55044604D01*
X134634000Y-55020100D01*
X134634000Y-54270100D01*
X134635204Y-54245596D01*
X134638804Y-54221327D01*
X134644765Y-54197529D01*
X134653030Y-54174429D01*
X134663520Y-54152251D01*
X134676133Y-54131207D01*
X134690747Y-54111502D01*
X134707223Y-54093323D01*
X134725402Y-54076847D01*
X134745107Y-54062233D01*
X134766151Y-54049620D01*
X134788329Y-54039130D01*
X134811429Y-54030865D01*
X134835227Y-54024904D01*
X134859496Y-54021304D01*
X134884000Y-54020100D01*
X136134000Y-54020100D01*
X136158504Y-54021304D01*
X136158504Y-54021304D01*
G37*
D23*
X135509000Y-54645100D03*
D10*
G36*
X136158504Y-56821304D02*
X136182773Y-56824904D01*
X136206571Y-56830865D01*
X136229671Y-56839130D01*
X136251849Y-56849620D01*
X136272893Y-56862233D01*
X136292598Y-56876847D01*
X136310777Y-56893323D01*
X136327253Y-56911502D01*
X136341867Y-56931207D01*
X136354480Y-56952251D01*
X136364970Y-56974429D01*
X136373235Y-56997529D01*
X136379196Y-57021327D01*
X136382796Y-57045596D01*
X136384000Y-57070100D01*
X136384000Y-57820100D01*
X136382796Y-57844604D01*
X136379196Y-57868873D01*
X136373235Y-57892671D01*
X136364970Y-57915771D01*
X136354480Y-57937949D01*
X136341867Y-57958993D01*
X136327253Y-57978698D01*
X136310777Y-57996877D01*
X136292598Y-58013353D01*
X136272893Y-58027967D01*
X136251849Y-58040580D01*
X136229671Y-58051070D01*
X136206571Y-58059335D01*
X136182773Y-58065296D01*
X136158504Y-58068896D01*
X136134000Y-58070100D01*
X134884000Y-58070100D01*
X134859496Y-58068896D01*
X134835227Y-58065296D01*
X134811429Y-58059335D01*
X134788329Y-58051070D01*
X134766151Y-58040580D01*
X134745107Y-58027967D01*
X134725402Y-58013353D01*
X134707223Y-57996877D01*
X134690747Y-57978698D01*
X134676133Y-57958993D01*
X134663520Y-57937949D01*
X134653030Y-57915771D01*
X134644765Y-57892671D01*
X134638804Y-57868873D01*
X134635204Y-57844604D01*
X134634000Y-57820100D01*
X134634000Y-57070100D01*
X134635204Y-57045596D01*
X134638804Y-57021327D01*
X134644765Y-56997529D01*
X134653030Y-56974429D01*
X134663520Y-56952251D01*
X134676133Y-56931207D01*
X134690747Y-56911502D01*
X134707223Y-56893323D01*
X134725402Y-56876847D01*
X134745107Y-56862233D01*
X134766151Y-56849620D01*
X134788329Y-56839130D01*
X134811429Y-56830865D01*
X134835227Y-56824904D01*
X134859496Y-56821304D01*
X134884000Y-56820100D01*
X136134000Y-56820100D01*
X136158504Y-56821304D01*
X136158504Y-56821304D01*
G37*
D23*
X135509000Y-57445100D03*
G04 #@! TD*
D10*
G04 #@! TO.C,R2*
G36*
X131202958Y-62291710D02*
X131217276Y-62293834D01*
X131231317Y-62297351D01*
X131244946Y-62302228D01*
X131258031Y-62308417D01*
X131270447Y-62315858D01*
X131282073Y-62324481D01*
X131292798Y-62334202D01*
X131302519Y-62344927D01*
X131311142Y-62356553D01*
X131318583Y-62368969D01*
X131324772Y-62382054D01*
X131329649Y-62395683D01*
X131333166Y-62409724D01*
X131335290Y-62424042D01*
X131336000Y-62438500D01*
X131336000Y-62783500D01*
X131335290Y-62797958D01*
X131333166Y-62812276D01*
X131329649Y-62826317D01*
X131324772Y-62839946D01*
X131318583Y-62853031D01*
X131311142Y-62865447D01*
X131302519Y-62877073D01*
X131292798Y-62887798D01*
X131282073Y-62897519D01*
X131270447Y-62906142D01*
X131258031Y-62913583D01*
X131244946Y-62919772D01*
X131231317Y-62924649D01*
X131217276Y-62928166D01*
X131202958Y-62930290D01*
X131188500Y-62931000D01*
X130893500Y-62931000D01*
X130879042Y-62930290D01*
X130864724Y-62928166D01*
X130850683Y-62924649D01*
X130837054Y-62919772D01*
X130823969Y-62913583D01*
X130811553Y-62906142D01*
X130799927Y-62897519D01*
X130789202Y-62887798D01*
X130779481Y-62877073D01*
X130770858Y-62865447D01*
X130763417Y-62853031D01*
X130757228Y-62839946D01*
X130752351Y-62826317D01*
X130748834Y-62812276D01*
X130746710Y-62797958D01*
X130746000Y-62783500D01*
X130746000Y-62438500D01*
X130746710Y-62424042D01*
X130748834Y-62409724D01*
X130752351Y-62395683D01*
X130757228Y-62382054D01*
X130763417Y-62368969D01*
X130770858Y-62356553D01*
X130779481Y-62344927D01*
X130789202Y-62334202D01*
X130799927Y-62324481D01*
X130811553Y-62315858D01*
X130823969Y-62308417D01*
X130837054Y-62302228D01*
X130850683Y-62297351D01*
X130864724Y-62293834D01*
X130879042Y-62291710D01*
X130893500Y-62291000D01*
X131188500Y-62291000D01*
X131202958Y-62291710D01*
X131202958Y-62291710D01*
G37*
D24*
X131041000Y-62611000D03*
D10*
G36*
X130232958Y-62291710D02*
X130247276Y-62293834D01*
X130261317Y-62297351D01*
X130274946Y-62302228D01*
X130288031Y-62308417D01*
X130300447Y-62315858D01*
X130312073Y-62324481D01*
X130322798Y-62334202D01*
X130332519Y-62344927D01*
X130341142Y-62356553D01*
X130348583Y-62368969D01*
X130354772Y-62382054D01*
X130359649Y-62395683D01*
X130363166Y-62409724D01*
X130365290Y-62424042D01*
X130366000Y-62438500D01*
X130366000Y-62783500D01*
X130365290Y-62797958D01*
X130363166Y-62812276D01*
X130359649Y-62826317D01*
X130354772Y-62839946D01*
X130348583Y-62853031D01*
X130341142Y-62865447D01*
X130332519Y-62877073D01*
X130322798Y-62887798D01*
X130312073Y-62897519D01*
X130300447Y-62906142D01*
X130288031Y-62913583D01*
X130274946Y-62919772D01*
X130261317Y-62924649D01*
X130247276Y-62928166D01*
X130232958Y-62930290D01*
X130218500Y-62931000D01*
X129923500Y-62931000D01*
X129909042Y-62930290D01*
X129894724Y-62928166D01*
X129880683Y-62924649D01*
X129867054Y-62919772D01*
X129853969Y-62913583D01*
X129841553Y-62906142D01*
X129829927Y-62897519D01*
X129819202Y-62887798D01*
X129809481Y-62877073D01*
X129800858Y-62865447D01*
X129793417Y-62853031D01*
X129787228Y-62839946D01*
X129782351Y-62826317D01*
X129778834Y-62812276D01*
X129776710Y-62797958D01*
X129776000Y-62783500D01*
X129776000Y-62438500D01*
X129776710Y-62424042D01*
X129778834Y-62409724D01*
X129782351Y-62395683D01*
X129787228Y-62382054D01*
X129793417Y-62368969D01*
X129800858Y-62356553D01*
X129809481Y-62344927D01*
X129819202Y-62334202D01*
X129829927Y-62324481D01*
X129841553Y-62315858D01*
X129853969Y-62308417D01*
X129867054Y-62302228D01*
X129880683Y-62297351D01*
X129894724Y-62293834D01*
X129909042Y-62291710D01*
X129923500Y-62291000D01*
X130218500Y-62291000D01*
X130232958Y-62291710D01*
X130232958Y-62291710D01*
G37*
D24*
X130071000Y-62611000D03*
G04 #@! TD*
D10*
G04 #@! TO.C,R6*
G36*
X128952505Y-81257204D02*
X128976773Y-81260804D01*
X129000572Y-81266765D01*
X129023671Y-81275030D01*
X129045850Y-81285520D01*
X129066893Y-81298132D01*
X129086599Y-81312747D01*
X129104777Y-81329223D01*
X129121253Y-81347401D01*
X129135868Y-81367107D01*
X129148480Y-81388150D01*
X129158970Y-81410329D01*
X129167235Y-81433428D01*
X129173196Y-81457227D01*
X129176796Y-81481495D01*
X129178000Y-81505999D01*
X129178000Y-84356001D01*
X129176796Y-84380505D01*
X129173196Y-84404773D01*
X129167235Y-84428572D01*
X129158970Y-84451671D01*
X129148480Y-84473850D01*
X129135868Y-84494893D01*
X129121253Y-84514599D01*
X129104777Y-84532777D01*
X129086599Y-84549253D01*
X129066893Y-84563868D01*
X129045850Y-84576480D01*
X129023671Y-84586970D01*
X129000572Y-84595235D01*
X128976773Y-84601196D01*
X128952505Y-84604796D01*
X128928001Y-84606000D01*
X128077999Y-84606000D01*
X128053495Y-84604796D01*
X128029227Y-84601196D01*
X128005428Y-84595235D01*
X127982329Y-84586970D01*
X127960150Y-84576480D01*
X127939107Y-84563868D01*
X127919401Y-84549253D01*
X127901223Y-84532777D01*
X127884747Y-84514599D01*
X127870132Y-84494893D01*
X127857520Y-84473850D01*
X127847030Y-84451671D01*
X127838765Y-84428572D01*
X127832804Y-84404773D01*
X127829204Y-84380505D01*
X127828000Y-84356001D01*
X127828000Y-81505999D01*
X127829204Y-81481495D01*
X127832804Y-81457227D01*
X127838765Y-81433428D01*
X127847030Y-81410329D01*
X127857520Y-81388150D01*
X127870132Y-81367107D01*
X127884747Y-81347401D01*
X127901223Y-81329223D01*
X127919401Y-81312747D01*
X127939107Y-81298132D01*
X127960150Y-81285520D01*
X127982329Y-81275030D01*
X128005428Y-81266765D01*
X128029227Y-81260804D01*
X128053495Y-81257204D01*
X128077999Y-81256000D01*
X128928001Y-81256000D01*
X128952505Y-81257204D01*
X128952505Y-81257204D01*
G37*
D25*
X128503000Y-82931000D03*
D10*
G36*
X123152505Y-81257204D02*
X123176773Y-81260804D01*
X123200572Y-81266765D01*
X123223671Y-81275030D01*
X123245850Y-81285520D01*
X123266893Y-81298132D01*
X123286599Y-81312747D01*
X123304777Y-81329223D01*
X123321253Y-81347401D01*
X123335868Y-81367107D01*
X123348480Y-81388150D01*
X123358970Y-81410329D01*
X123367235Y-81433428D01*
X123373196Y-81457227D01*
X123376796Y-81481495D01*
X123378000Y-81505999D01*
X123378000Y-84356001D01*
X123376796Y-84380505D01*
X123373196Y-84404773D01*
X123367235Y-84428572D01*
X123358970Y-84451671D01*
X123348480Y-84473850D01*
X123335868Y-84494893D01*
X123321253Y-84514599D01*
X123304777Y-84532777D01*
X123286599Y-84549253D01*
X123266893Y-84563868D01*
X123245850Y-84576480D01*
X123223671Y-84586970D01*
X123200572Y-84595235D01*
X123176773Y-84601196D01*
X123152505Y-84604796D01*
X123128001Y-84606000D01*
X122277999Y-84606000D01*
X122253495Y-84604796D01*
X122229227Y-84601196D01*
X122205428Y-84595235D01*
X122182329Y-84586970D01*
X122160150Y-84576480D01*
X122139107Y-84563868D01*
X122119401Y-84549253D01*
X122101223Y-84532777D01*
X122084747Y-84514599D01*
X122070132Y-84494893D01*
X122057520Y-84473850D01*
X122047030Y-84451671D01*
X122038765Y-84428572D01*
X122032804Y-84404773D01*
X122029204Y-84380505D01*
X122028000Y-84356001D01*
X122028000Y-81505999D01*
X122029204Y-81481495D01*
X122032804Y-81457227D01*
X122038765Y-81433428D01*
X122047030Y-81410329D01*
X122057520Y-81388150D01*
X122070132Y-81367107D01*
X122084747Y-81347401D01*
X122101223Y-81329223D01*
X122119401Y-81312747D01*
X122139107Y-81298132D01*
X122160150Y-81285520D01*
X122182329Y-81275030D01*
X122205428Y-81266765D01*
X122229227Y-81260804D01*
X122253495Y-81257204D01*
X122277999Y-81256000D01*
X123128001Y-81256000D01*
X123152505Y-81257204D01*
X123152505Y-81257204D01*
G37*
D25*
X122703000Y-82931000D03*
G04 #@! TD*
D10*
G04 #@! TO.C,R7*
G36*
X141144505Y-81326204D02*
X141168773Y-81329804D01*
X141192572Y-81335765D01*
X141215671Y-81344030D01*
X141237850Y-81354520D01*
X141258893Y-81367132D01*
X141278599Y-81381747D01*
X141296777Y-81398223D01*
X141313253Y-81416401D01*
X141327868Y-81436107D01*
X141340480Y-81457150D01*
X141350970Y-81479329D01*
X141359235Y-81502428D01*
X141365196Y-81526227D01*
X141368796Y-81550495D01*
X141370000Y-81574999D01*
X141370000Y-84425001D01*
X141368796Y-84449505D01*
X141365196Y-84473773D01*
X141359235Y-84497572D01*
X141350970Y-84520671D01*
X141340480Y-84542850D01*
X141327868Y-84563893D01*
X141313253Y-84583599D01*
X141296777Y-84601777D01*
X141278599Y-84618253D01*
X141258893Y-84632868D01*
X141237850Y-84645480D01*
X141215671Y-84655970D01*
X141192572Y-84664235D01*
X141168773Y-84670196D01*
X141144505Y-84673796D01*
X141120001Y-84675000D01*
X140269999Y-84675000D01*
X140245495Y-84673796D01*
X140221227Y-84670196D01*
X140197428Y-84664235D01*
X140174329Y-84655970D01*
X140152150Y-84645480D01*
X140131107Y-84632868D01*
X140111401Y-84618253D01*
X140093223Y-84601777D01*
X140076747Y-84583599D01*
X140062132Y-84563893D01*
X140049520Y-84542850D01*
X140039030Y-84520671D01*
X140030765Y-84497572D01*
X140024804Y-84473773D01*
X140021204Y-84449505D01*
X140020000Y-84425001D01*
X140020000Y-81574999D01*
X140021204Y-81550495D01*
X140024804Y-81526227D01*
X140030765Y-81502428D01*
X140039030Y-81479329D01*
X140049520Y-81457150D01*
X140062132Y-81436107D01*
X140076747Y-81416401D01*
X140093223Y-81398223D01*
X140111401Y-81381747D01*
X140131107Y-81367132D01*
X140152150Y-81354520D01*
X140174329Y-81344030D01*
X140197428Y-81335765D01*
X140221227Y-81329804D01*
X140245495Y-81326204D01*
X140269999Y-81325000D01*
X141120001Y-81325000D01*
X141144505Y-81326204D01*
X141144505Y-81326204D01*
G37*
D25*
X140695000Y-83000000D03*
D10*
G36*
X135344505Y-81326204D02*
X135368773Y-81329804D01*
X135392572Y-81335765D01*
X135415671Y-81344030D01*
X135437850Y-81354520D01*
X135458893Y-81367132D01*
X135478599Y-81381747D01*
X135496777Y-81398223D01*
X135513253Y-81416401D01*
X135527868Y-81436107D01*
X135540480Y-81457150D01*
X135550970Y-81479329D01*
X135559235Y-81502428D01*
X135565196Y-81526227D01*
X135568796Y-81550495D01*
X135570000Y-81574999D01*
X135570000Y-84425001D01*
X135568796Y-84449505D01*
X135565196Y-84473773D01*
X135559235Y-84497572D01*
X135550970Y-84520671D01*
X135540480Y-84542850D01*
X135527868Y-84563893D01*
X135513253Y-84583599D01*
X135496777Y-84601777D01*
X135478599Y-84618253D01*
X135458893Y-84632868D01*
X135437850Y-84645480D01*
X135415671Y-84655970D01*
X135392572Y-84664235D01*
X135368773Y-84670196D01*
X135344505Y-84673796D01*
X135320001Y-84675000D01*
X134469999Y-84675000D01*
X134445495Y-84673796D01*
X134421227Y-84670196D01*
X134397428Y-84664235D01*
X134374329Y-84655970D01*
X134352150Y-84645480D01*
X134331107Y-84632868D01*
X134311401Y-84618253D01*
X134293223Y-84601777D01*
X134276747Y-84583599D01*
X134262132Y-84563893D01*
X134249520Y-84542850D01*
X134239030Y-84520671D01*
X134230765Y-84497572D01*
X134224804Y-84473773D01*
X134221204Y-84449505D01*
X134220000Y-84425001D01*
X134220000Y-81574999D01*
X134221204Y-81550495D01*
X134224804Y-81526227D01*
X134230765Y-81502428D01*
X134239030Y-81479329D01*
X134249520Y-81457150D01*
X134262132Y-81436107D01*
X134276747Y-81416401D01*
X134293223Y-81398223D01*
X134311401Y-81381747D01*
X134331107Y-81367132D01*
X134352150Y-81354520D01*
X134374329Y-81344030D01*
X134397428Y-81335765D01*
X134421227Y-81329804D01*
X134445495Y-81326204D01*
X134469999Y-81325000D01*
X135320001Y-81325000D01*
X135344505Y-81326204D01*
X135344505Y-81326204D01*
G37*
D25*
X134895000Y-83000000D03*
G04 #@! TD*
D10*
G04 #@! TO.C,R8*
G36*
X164893505Y-81326204D02*
X164917773Y-81329804D01*
X164941572Y-81335765D01*
X164964671Y-81344030D01*
X164986850Y-81354520D01*
X165007893Y-81367132D01*
X165027599Y-81381747D01*
X165045777Y-81398223D01*
X165062253Y-81416401D01*
X165076868Y-81436107D01*
X165089480Y-81457150D01*
X165099970Y-81479329D01*
X165108235Y-81502428D01*
X165114196Y-81526227D01*
X165117796Y-81550495D01*
X165119000Y-81574999D01*
X165119000Y-84425001D01*
X165117796Y-84449505D01*
X165114196Y-84473773D01*
X165108235Y-84497572D01*
X165099970Y-84520671D01*
X165089480Y-84542850D01*
X165076868Y-84563893D01*
X165062253Y-84583599D01*
X165045777Y-84601777D01*
X165027599Y-84618253D01*
X165007893Y-84632868D01*
X164986850Y-84645480D01*
X164964671Y-84655970D01*
X164941572Y-84664235D01*
X164917773Y-84670196D01*
X164893505Y-84673796D01*
X164869001Y-84675000D01*
X164018999Y-84675000D01*
X163994495Y-84673796D01*
X163970227Y-84670196D01*
X163946428Y-84664235D01*
X163923329Y-84655970D01*
X163901150Y-84645480D01*
X163880107Y-84632868D01*
X163860401Y-84618253D01*
X163842223Y-84601777D01*
X163825747Y-84583599D01*
X163811132Y-84563893D01*
X163798520Y-84542850D01*
X163788030Y-84520671D01*
X163779765Y-84497572D01*
X163773804Y-84473773D01*
X163770204Y-84449505D01*
X163769000Y-84425001D01*
X163769000Y-81574999D01*
X163770204Y-81550495D01*
X163773804Y-81526227D01*
X163779765Y-81502428D01*
X163788030Y-81479329D01*
X163798520Y-81457150D01*
X163811132Y-81436107D01*
X163825747Y-81416401D01*
X163842223Y-81398223D01*
X163860401Y-81381747D01*
X163880107Y-81367132D01*
X163901150Y-81354520D01*
X163923329Y-81344030D01*
X163946428Y-81335765D01*
X163970227Y-81329804D01*
X163994495Y-81326204D01*
X164018999Y-81325000D01*
X164869001Y-81325000D01*
X164893505Y-81326204D01*
X164893505Y-81326204D01*
G37*
D25*
X164444000Y-83000000D03*
D10*
G36*
X159093505Y-81326204D02*
X159117773Y-81329804D01*
X159141572Y-81335765D01*
X159164671Y-81344030D01*
X159186850Y-81354520D01*
X159207893Y-81367132D01*
X159227599Y-81381747D01*
X159245777Y-81398223D01*
X159262253Y-81416401D01*
X159276868Y-81436107D01*
X159289480Y-81457150D01*
X159299970Y-81479329D01*
X159308235Y-81502428D01*
X159314196Y-81526227D01*
X159317796Y-81550495D01*
X159319000Y-81574999D01*
X159319000Y-84425001D01*
X159317796Y-84449505D01*
X159314196Y-84473773D01*
X159308235Y-84497572D01*
X159299970Y-84520671D01*
X159289480Y-84542850D01*
X159276868Y-84563893D01*
X159262253Y-84583599D01*
X159245777Y-84601777D01*
X159227599Y-84618253D01*
X159207893Y-84632868D01*
X159186850Y-84645480D01*
X159164671Y-84655970D01*
X159141572Y-84664235D01*
X159117773Y-84670196D01*
X159093505Y-84673796D01*
X159069001Y-84675000D01*
X158218999Y-84675000D01*
X158194495Y-84673796D01*
X158170227Y-84670196D01*
X158146428Y-84664235D01*
X158123329Y-84655970D01*
X158101150Y-84645480D01*
X158080107Y-84632868D01*
X158060401Y-84618253D01*
X158042223Y-84601777D01*
X158025747Y-84583599D01*
X158011132Y-84563893D01*
X157998520Y-84542850D01*
X157988030Y-84520671D01*
X157979765Y-84497572D01*
X157973804Y-84473773D01*
X157970204Y-84449505D01*
X157969000Y-84425001D01*
X157969000Y-81574999D01*
X157970204Y-81550495D01*
X157973804Y-81526227D01*
X157979765Y-81502428D01*
X157988030Y-81479329D01*
X157998520Y-81457150D01*
X158011132Y-81436107D01*
X158025747Y-81416401D01*
X158042223Y-81398223D01*
X158060401Y-81381747D01*
X158080107Y-81367132D01*
X158101150Y-81354520D01*
X158123329Y-81344030D01*
X158146428Y-81335765D01*
X158170227Y-81329804D01*
X158194495Y-81326204D01*
X158218999Y-81325000D01*
X159069001Y-81325000D01*
X159093505Y-81326204D01*
X159093505Y-81326204D01*
G37*
D25*
X158644000Y-83000000D03*
G04 #@! TD*
M02*
