G04 #@! TF.GenerationSoftware,KiCad,Pcbnew,(5.0.2)-1*
G04 #@! TF.CreationDate,2019-09-03T00:43:36+08:00*
G04 #@! TF.ProjectId,actuator,61637475-6174-46f7-922e-6b696361645f,rev?*
G04 #@! TF.SameCoordinates,Original*
G04 #@! TF.FileFunction,Legend,Top*
G04 #@! TF.FilePolarity,Positive*
%FSLAX46Y46*%
G04 Gerber Fmt 4.6, Leading zero omitted, Abs format (unit mm)*
G04 Created by KiCad (PCBNEW (5.0.2)-1) date 9/3/2019 12:43:36 AM*
%MOMM*%
%LPD*%
G01*
G04 APERTURE LIST*
%ADD10C,0.120000*%
%ADD11C,0.150000*%
G04 APERTURE END LIST*
D10*
G04 #@! TO.C,U1*
X133390324Y-67337535D02*
X132915324Y-67337535D01*
X140135324Y-74557535D02*
X140135324Y-74082535D01*
X139660324Y-74557535D02*
X140135324Y-74557535D01*
X132915324Y-74557535D02*
X132915324Y-74082535D01*
X133390324Y-74557535D02*
X132915324Y-74557535D01*
X140135324Y-67337535D02*
X140135324Y-67812535D01*
X139660324Y-67337535D02*
X140135324Y-67337535D01*
G04 #@! TO.C,C5*
X142111000Y-61376779D02*
X142111000Y-61051221D01*
X143131000Y-61376779D02*
X143131000Y-61051221D01*
G04 #@! TO.C,C6*
X141476000Y-73949779D02*
X141476000Y-73624221D01*
X142496000Y-73949779D02*
X142496000Y-73624221D01*
G04 #@! TO.C,D1*
X141415324Y-62026535D02*
X141415324Y-60026535D01*
X141415324Y-60026535D02*
X137565324Y-60026535D01*
X141415324Y-62026535D02*
X137565324Y-62026535D01*
G04 #@! TO.C,R1*
X130027057Y-59246535D02*
X130369591Y-59246535D01*
X130027057Y-60266535D02*
X130369591Y-60266535D01*
G04 #@! TO.C,R3*
X133902267Y-63879000D02*
X133559733Y-63879000D01*
X133902267Y-64899000D02*
X133559733Y-64899000D01*
G04 #@! TO.C,R4*
X145290000Y-74085267D02*
X145290000Y-73742733D01*
X144270000Y-74085267D02*
X144270000Y-73742733D01*
G04 #@! TO.C,R5*
X147068000Y-73196267D02*
X147068000Y-72853733D01*
X146048000Y-73196267D02*
X146048000Y-72853733D01*
G04 #@! TO.C,J2*
X127180310Y-56118797D02*
X127480310Y-55518797D01*
X127480310Y-55518797D02*
X127780310Y-56118797D01*
X127780310Y-56118797D02*
X127180310Y-56118797D01*
G04 #@! TO.C,C_DVDD1*
X141118324Y-68047314D02*
X141118324Y-67721756D01*
X142138324Y-68047314D02*
X142138324Y-67721756D01*
G04 #@! TO.C,C_SW1*
X130069324Y-69372756D02*
X130069324Y-69698314D01*
X131089324Y-69372756D02*
X131089324Y-69698314D01*
G04 #@! TO.C,C_VCP1*
X129448779Y-66165000D02*
X129123221Y-66165000D01*
X129448779Y-67185000D02*
X129123221Y-67185000D01*
G04 #@! TO.C,C_VM1*
X127275324Y-69698314D02*
X127275324Y-69372756D01*
X128295324Y-69698314D02*
X128295324Y-69372756D01*
G04 #@! TO.C,J3*
X145990000Y-52324000D02*
X145990000Y-50994000D01*
X145990000Y-50994000D02*
X147320000Y-50994000D01*
X148590000Y-50994000D02*
X166430000Y-50994000D01*
X166430000Y-53654000D02*
X166430000Y-50994000D01*
X148590000Y-53654000D02*
X166430000Y-53654000D01*
X148590000Y-53654000D02*
X148590000Y-50994000D01*
G04 #@! TO.C,J4*
X163770000Y-59182000D02*
X166430000Y-59182000D01*
X163770000Y-59182000D02*
X163770000Y-77022000D01*
X163770000Y-77022000D02*
X166430000Y-77022000D01*
X166430000Y-59182000D02*
X166430000Y-77022000D01*
X166430000Y-56582000D02*
X166430000Y-57912000D01*
X165100000Y-56582000D02*
X166430000Y-56582000D01*
G04 #@! TO.C,C9*
X116555450Y-58858450D02*
X116555450Y-59645950D01*
X116161700Y-59252200D02*
X116949200Y-59252200D01*
X117189200Y-63445263D02*
X118253637Y-64509700D01*
X117189200Y-58754137D02*
X118253637Y-57689700D01*
X117189200Y-58754137D02*
X117189200Y-60039700D01*
X117189200Y-63445263D02*
X117189200Y-62159700D01*
X118253637Y-64509700D02*
X124009200Y-64509700D01*
X118253637Y-57689700D02*
X124009200Y-57689700D01*
X124009200Y-57689700D02*
X124009200Y-60039700D01*
X124009200Y-64509700D02*
X124009200Y-62159700D01*
G04 #@! TO.C,C10*
X123996500Y-71977300D02*
X123996500Y-69627300D01*
X123996500Y-65157300D02*
X123996500Y-67507300D01*
X118240937Y-65157300D02*
X123996500Y-65157300D01*
X118240937Y-71977300D02*
X123996500Y-71977300D01*
X117176500Y-70912863D02*
X117176500Y-69627300D01*
X117176500Y-66221737D02*
X117176500Y-67507300D01*
X117176500Y-66221737D02*
X118240937Y-65157300D01*
X117176500Y-70912863D02*
X118240937Y-71977300D01*
X116149000Y-66719800D02*
X116936500Y-66719800D01*
X116542750Y-66326050D02*
X116542750Y-67113550D01*
G04 #@! TO.C,C1*
X118777936Y-82021000D02*
X119982064Y-82021000D01*
X118777936Y-83841000D02*
X119982064Y-83841000D01*
G04 #@! TO.C,C2*
X145509064Y-82275000D02*
X144304936Y-82275000D01*
X145509064Y-84095000D02*
X144304936Y-84095000D01*
G04 #@! TO.C,C3*
X153702936Y-81894000D02*
X154907064Y-81894000D01*
X153702936Y-83714000D02*
X154907064Y-83714000D01*
G04 #@! TO.C,C7*
X136419000Y-61358864D02*
X136419000Y-60154736D01*
X134599000Y-61358864D02*
X134599000Y-60154736D01*
G04 #@! TO.C,C8*
X136419000Y-55443036D02*
X136419000Y-56647164D01*
X134599000Y-55443036D02*
X134599000Y-56647164D01*
G04 #@! TO.C,L1*
X144888970Y-53812000D02*
G75*
G03X137479030Y-53812000I-3704970J-1560000D01*
G01*
X144888970Y-56932000D02*
G75*
G02X137479030Y-56932000I-3704970J1560000D01*
G01*
G04 #@! TO.C,R6*
X127655064Y-84641000D02*
X123550936Y-84641000D01*
X127655064Y-81221000D02*
X123550936Y-81221000D01*
G04 #@! TO.C,R7*
X135742936Y-84710000D02*
X139847064Y-84710000D01*
X135742936Y-81290000D02*
X139847064Y-81290000D01*
G04 #@! TO.C,R8*
X163596064Y-84710000D02*
X159491936Y-84710000D01*
X163596064Y-81290000D02*
X159491936Y-81290000D01*
G04 #@! TO.C,U1*
D11*
X135763419Y-65579915D02*
X135763419Y-66389439D01*
X135811038Y-66484677D01*
X135858657Y-66532296D01*
X135953895Y-66579915D01*
X136144371Y-66579915D01*
X136239609Y-66532296D01*
X136287228Y-66484677D01*
X136334847Y-66389439D01*
X136334847Y-65579915D01*
X137334847Y-66579915D02*
X136763419Y-66579915D01*
X137049133Y-66579915D02*
X137049133Y-65579915D01*
X136953895Y-65722773D01*
X136858657Y-65818011D01*
X136763419Y-65865630D01*
G04 #@! TO.C,J1*
X136172666Y-95707380D02*
X136172666Y-96421666D01*
X136125047Y-96564523D01*
X136029809Y-96659761D01*
X135886952Y-96707380D01*
X135791714Y-96707380D01*
X137172666Y-96707380D02*
X136601238Y-96707380D01*
X136886952Y-96707380D02*
X136886952Y-95707380D01*
X136791714Y-95850238D01*
X136696476Y-95945476D01*
X136601238Y-95993095D01*
G04 #@! TO.C,C5*
X144375142Y-61380666D02*
X144422761Y-61428285D01*
X144470380Y-61571142D01*
X144470380Y-61666380D01*
X144422761Y-61809238D01*
X144327523Y-61904476D01*
X144232285Y-61952095D01*
X144041809Y-61999714D01*
X143898952Y-61999714D01*
X143708476Y-61952095D01*
X143613238Y-61904476D01*
X143518000Y-61809238D01*
X143470380Y-61666380D01*
X143470380Y-61571142D01*
X143518000Y-61428285D01*
X143565619Y-61380666D01*
X143470380Y-60475904D02*
X143470380Y-60952095D01*
X143946571Y-60999714D01*
X143898952Y-60952095D01*
X143851333Y-60856857D01*
X143851333Y-60618761D01*
X143898952Y-60523523D01*
X143946571Y-60475904D01*
X144041809Y-60428285D01*
X144279904Y-60428285D01*
X144375142Y-60475904D01*
X144422761Y-60523523D01*
X144470380Y-60618761D01*
X144470380Y-60856857D01*
X144422761Y-60952095D01*
X144375142Y-60999714D01*
G04 #@! TO.C,C6*
X142343142Y-76493666D02*
X142390761Y-76541285D01*
X142438380Y-76684142D01*
X142438380Y-76779380D01*
X142390761Y-76922238D01*
X142295523Y-77017476D01*
X142200285Y-77065095D01*
X142009809Y-77112714D01*
X141866952Y-77112714D01*
X141676476Y-77065095D01*
X141581238Y-77017476D01*
X141486000Y-76922238D01*
X141438380Y-76779380D01*
X141438380Y-76684142D01*
X141486000Y-76541285D01*
X141533619Y-76493666D01*
X141438380Y-75636523D02*
X141438380Y-75827000D01*
X141486000Y-75922238D01*
X141533619Y-75969857D01*
X141676476Y-76065095D01*
X141866952Y-76112714D01*
X142247904Y-76112714D01*
X142343142Y-76065095D01*
X142390761Y-76017476D01*
X142438380Y-75922238D01*
X142438380Y-75731761D01*
X142390761Y-75636523D01*
X142343142Y-75588904D01*
X142247904Y-75541285D01*
X142009809Y-75541285D01*
X141914571Y-75588904D01*
X141866952Y-75636523D01*
X141819333Y-75731761D01*
X141819333Y-75922238D01*
X141866952Y-76017476D01*
X141914571Y-76065095D01*
X142009809Y-76112714D01*
G04 #@! TO.C,D1*
X138604228Y-63383915D02*
X138604228Y-62383915D01*
X138842324Y-62383915D01*
X138985181Y-62431535D01*
X139080419Y-62526773D01*
X139128038Y-62622011D01*
X139175657Y-62812487D01*
X139175657Y-62955344D01*
X139128038Y-63145820D01*
X139080419Y-63241058D01*
X138985181Y-63336296D01*
X138842324Y-63383915D01*
X138604228Y-63383915D01*
X140128038Y-63383915D02*
X139556609Y-63383915D01*
X139842324Y-63383915D02*
X139842324Y-62383915D01*
X139747085Y-62526773D01*
X139651847Y-62622011D01*
X139556609Y-62669630D01*
G04 #@! TO.C,R1*
X128237704Y-59923201D02*
X127761514Y-60256535D01*
X128237704Y-60494630D02*
X127237704Y-60494630D01*
X127237704Y-60113677D01*
X127285324Y-60018439D01*
X127332943Y-59970820D01*
X127428181Y-59923201D01*
X127571038Y-59923201D01*
X127666276Y-59970820D01*
X127713895Y-60018439D01*
X127761514Y-60113677D01*
X127761514Y-60494630D01*
X128237704Y-58970820D02*
X128237704Y-59542249D01*
X128237704Y-59256535D02*
X127237704Y-59256535D01*
X127380562Y-59351773D01*
X127475800Y-59447011D01*
X127523419Y-59542249D01*
G04 #@! TO.C,R3*
X133437333Y-63444380D02*
X133104000Y-62968190D01*
X132865904Y-63444380D02*
X132865904Y-62444380D01*
X133246857Y-62444380D01*
X133342095Y-62492000D01*
X133389714Y-62539619D01*
X133437333Y-62634857D01*
X133437333Y-62777714D01*
X133389714Y-62872952D01*
X133342095Y-62920571D01*
X133246857Y-62968190D01*
X132865904Y-62968190D01*
X133770666Y-62444380D02*
X134389714Y-62444380D01*
X134056380Y-62825333D01*
X134199238Y-62825333D01*
X134294476Y-62872952D01*
X134342095Y-62920571D01*
X134389714Y-63015809D01*
X134389714Y-63253904D01*
X134342095Y-63349142D01*
X134294476Y-63396761D01*
X134199238Y-63444380D01*
X133913523Y-63444380D01*
X133818285Y-63396761D01*
X133770666Y-63349142D01*
G04 #@! TO.C,R4*
X145232380Y-76747666D02*
X144756190Y-77081000D01*
X145232380Y-77319095D02*
X144232380Y-77319095D01*
X144232380Y-76938142D01*
X144280000Y-76842904D01*
X144327619Y-76795285D01*
X144422857Y-76747666D01*
X144565714Y-76747666D01*
X144660952Y-76795285D01*
X144708571Y-76842904D01*
X144756190Y-76938142D01*
X144756190Y-77319095D01*
X144565714Y-75890523D02*
X145232380Y-75890523D01*
X144184761Y-76128619D02*
X144899047Y-76366714D01*
X144899047Y-75747666D01*
G04 #@! TO.C,R5*
X147010380Y-75858666D02*
X146534190Y-76192000D01*
X147010380Y-76430095D02*
X146010380Y-76430095D01*
X146010380Y-76049142D01*
X146058000Y-75953904D01*
X146105619Y-75906285D01*
X146200857Y-75858666D01*
X146343714Y-75858666D01*
X146438952Y-75906285D01*
X146486571Y-75953904D01*
X146534190Y-76049142D01*
X146534190Y-76430095D01*
X146010380Y-74953904D02*
X146010380Y-75430095D01*
X146486571Y-75477714D01*
X146438952Y-75430095D01*
X146391333Y-75334857D01*
X146391333Y-75096761D01*
X146438952Y-75001523D01*
X146486571Y-74953904D01*
X146581809Y-74906285D01*
X146819904Y-74906285D01*
X146915142Y-74953904D01*
X146962761Y-75001523D01*
X147010380Y-75096761D01*
X147010380Y-75334857D01*
X146962761Y-75430095D01*
X146915142Y-75477714D01*
G04 #@! TO.C,Q1*
X122952380Y-86904761D02*
X123000000Y-86809523D01*
X123095238Y-86714285D01*
X123238095Y-86571428D01*
X123285714Y-86476190D01*
X123285714Y-86380952D01*
X123047619Y-86428571D02*
X123095238Y-86333333D01*
X123190476Y-86238095D01*
X123380952Y-86190476D01*
X123714285Y-86190476D01*
X123904761Y-86238095D01*
X124000000Y-86333333D01*
X124047619Y-86428571D01*
X124047619Y-86619047D01*
X124000000Y-86714285D01*
X123904761Y-86809523D01*
X123714285Y-86857142D01*
X123380952Y-86857142D01*
X123190476Y-86809523D01*
X123095238Y-86714285D01*
X123047619Y-86619047D01*
X123047619Y-86428571D01*
X123047619Y-87809523D02*
X123047619Y-87238095D01*
X123047619Y-87523809D02*
X124047619Y-87523809D01*
X123904761Y-87428571D01*
X123809523Y-87333333D01*
X123761904Y-87238095D01*
G04 #@! TO.C,Q2*
X124547619Y-90595238D02*
X124500000Y-90690476D01*
X124404761Y-90785714D01*
X124261904Y-90928571D01*
X124214285Y-91023809D01*
X124214285Y-91119047D01*
X124452380Y-91071428D02*
X124404761Y-91166666D01*
X124309523Y-91261904D01*
X124119047Y-91309523D01*
X123785714Y-91309523D01*
X123595238Y-91261904D01*
X123500000Y-91166666D01*
X123452380Y-91071428D01*
X123452380Y-90880952D01*
X123500000Y-90785714D01*
X123595238Y-90690476D01*
X123785714Y-90642857D01*
X124119047Y-90642857D01*
X124309523Y-90690476D01*
X124404761Y-90785714D01*
X124452380Y-90880952D01*
X124452380Y-91071428D01*
X123547619Y-90261904D02*
X123500000Y-90214285D01*
X123452380Y-90119047D01*
X123452380Y-89880952D01*
X123500000Y-89785714D01*
X123547619Y-89738095D01*
X123642857Y-89690476D01*
X123738095Y-89690476D01*
X123880952Y-89738095D01*
X124452380Y-90309523D01*
X124452380Y-89690476D01*
G04 #@! TO.C,Q3*
X147952380Y-86904761D02*
X148000000Y-86809523D01*
X148095238Y-86714285D01*
X148238095Y-86571428D01*
X148285714Y-86476190D01*
X148285714Y-86380952D01*
X148047619Y-86428571D02*
X148095238Y-86333333D01*
X148190476Y-86238095D01*
X148380952Y-86190476D01*
X148714285Y-86190476D01*
X148904761Y-86238095D01*
X149000000Y-86333333D01*
X149047619Y-86428571D01*
X149047619Y-86619047D01*
X149000000Y-86714285D01*
X148904761Y-86809523D01*
X148714285Y-86857142D01*
X148380952Y-86857142D01*
X148190476Y-86809523D01*
X148095238Y-86714285D01*
X148047619Y-86619047D01*
X148047619Y-86428571D01*
X149047619Y-87190476D02*
X149047619Y-87809523D01*
X148666666Y-87476190D01*
X148666666Y-87619047D01*
X148619047Y-87714285D01*
X148571428Y-87761904D01*
X148476190Y-87809523D01*
X148238095Y-87809523D01*
X148142857Y-87761904D01*
X148095238Y-87714285D01*
X148047619Y-87619047D01*
X148047619Y-87333333D01*
X148095238Y-87238095D01*
X148142857Y-87190476D01*
G04 #@! TO.C,Q4*
X134659619Y-90773238D02*
X134612000Y-90868476D01*
X134516761Y-90963714D01*
X134373904Y-91106571D01*
X134326285Y-91201809D01*
X134326285Y-91297047D01*
X134564380Y-91249428D02*
X134516761Y-91344666D01*
X134421523Y-91439904D01*
X134231047Y-91487523D01*
X133897714Y-91487523D01*
X133707238Y-91439904D01*
X133612000Y-91344666D01*
X133564380Y-91249428D01*
X133564380Y-91058952D01*
X133612000Y-90963714D01*
X133707238Y-90868476D01*
X133897714Y-90820857D01*
X134231047Y-90820857D01*
X134421523Y-90868476D01*
X134516761Y-90963714D01*
X134564380Y-91058952D01*
X134564380Y-91249428D01*
X133897714Y-89963714D02*
X134564380Y-89963714D01*
X133516761Y-90201809D02*
X134231047Y-90439904D01*
X134231047Y-89820857D01*
G04 #@! TO.C,Q5*
X157952380Y-86904761D02*
X158000000Y-86809523D01*
X158095238Y-86714285D01*
X158238095Y-86571428D01*
X158285714Y-86476190D01*
X158285714Y-86380952D01*
X158047619Y-86428571D02*
X158095238Y-86333333D01*
X158190476Y-86238095D01*
X158380952Y-86190476D01*
X158714285Y-86190476D01*
X158904761Y-86238095D01*
X159000000Y-86333333D01*
X159047619Y-86428571D01*
X159047619Y-86619047D01*
X159000000Y-86714285D01*
X158904761Y-86809523D01*
X158714285Y-86857142D01*
X158380952Y-86857142D01*
X158190476Y-86809523D01*
X158095238Y-86714285D01*
X158047619Y-86619047D01*
X158047619Y-86428571D01*
X159047619Y-87761904D02*
X159047619Y-87285714D01*
X158571428Y-87238095D01*
X158619047Y-87285714D01*
X158666666Y-87380952D01*
X158666666Y-87619047D01*
X158619047Y-87714285D01*
X158571428Y-87761904D01*
X158476190Y-87809523D01*
X158238095Y-87809523D01*
X158142857Y-87761904D01*
X158095238Y-87714285D01*
X158047619Y-87619047D01*
X158047619Y-87380952D01*
X158095238Y-87285714D01*
X158142857Y-87238095D01*
G04 #@! TO.C,Q6*
X159547619Y-90595238D02*
X159500000Y-90690476D01*
X159404761Y-90785714D01*
X159261904Y-90928571D01*
X159214285Y-91023809D01*
X159214285Y-91119047D01*
X159452380Y-91071428D02*
X159404761Y-91166666D01*
X159309523Y-91261904D01*
X159119047Y-91309523D01*
X158785714Y-91309523D01*
X158595238Y-91261904D01*
X158500000Y-91166666D01*
X158452380Y-91071428D01*
X158452380Y-90880952D01*
X158500000Y-90785714D01*
X158595238Y-90690476D01*
X158785714Y-90642857D01*
X159119047Y-90642857D01*
X159309523Y-90690476D01*
X159404761Y-90785714D01*
X159452380Y-90880952D01*
X159452380Y-91071428D01*
X158452380Y-89785714D02*
X158452380Y-89976190D01*
X158500000Y-90071428D01*
X158547619Y-90119047D01*
X158690476Y-90214285D01*
X158880952Y-90261904D01*
X159261904Y-90261904D01*
X159357142Y-90214285D01*
X159404761Y-90166666D01*
X159452380Y-90071428D01*
X159452380Y-89880952D01*
X159404761Y-89785714D01*
X159357142Y-89738095D01*
X159261904Y-89690476D01*
X159023809Y-89690476D01*
X158928571Y-89738095D01*
X158880952Y-89785714D01*
X158833333Y-89880952D01*
X158833333Y-90071428D01*
X158880952Y-90166666D01*
X158928571Y-90214285D01*
X159023809Y-90261904D01*
G04 #@! TO.C,J2*
X123336976Y-55861177D02*
X123336976Y-56575463D01*
X123289357Y-56718320D01*
X123194119Y-56813558D01*
X123051262Y-56861177D01*
X122956024Y-56861177D01*
X123765548Y-55956416D02*
X123813167Y-55908797D01*
X123908405Y-55861177D01*
X124146500Y-55861177D01*
X124241738Y-55908797D01*
X124289357Y-55956416D01*
X124336976Y-56051654D01*
X124336976Y-56146892D01*
X124289357Y-56289749D01*
X123717929Y-56861177D01*
X124336976Y-56861177D01*
G04 #@! TO.C,C_DVDD1*
X139279133Y-66082677D02*
X139231514Y-66130296D01*
X139088657Y-66177915D01*
X138993419Y-66177915D01*
X138850562Y-66130296D01*
X138755324Y-66035058D01*
X138707704Y-65939820D01*
X138660085Y-65749344D01*
X138660085Y-65606487D01*
X138707704Y-65416011D01*
X138755324Y-65320773D01*
X138850562Y-65225535D01*
X138993419Y-65177915D01*
X139088657Y-65177915D01*
X139231514Y-65225535D01*
X139279133Y-65273154D01*
X139469609Y-66273154D02*
X140231514Y-66273154D01*
X140469609Y-66177915D02*
X140469609Y-65177915D01*
X140707704Y-65177915D01*
X140850562Y-65225535D01*
X140945800Y-65320773D01*
X140993419Y-65416011D01*
X141041038Y-65606487D01*
X141041038Y-65749344D01*
X140993419Y-65939820D01*
X140945800Y-66035058D01*
X140850562Y-66130296D01*
X140707704Y-66177915D01*
X140469609Y-66177915D01*
X141326752Y-65177915D02*
X141660085Y-66177915D01*
X141993419Y-65177915D01*
X142326752Y-66177915D02*
X142326752Y-65177915D01*
X142564847Y-65177915D01*
X142707704Y-65225535D01*
X142802943Y-65320773D01*
X142850562Y-65416011D01*
X142898181Y-65606487D01*
X142898181Y-65749344D01*
X142850562Y-65939820D01*
X142802943Y-66035058D01*
X142707704Y-66130296D01*
X142564847Y-66177915D01*
X142326752Y-66177915D01*
X143326752Y-66177915D02*
X143326752Y-65177915D01*
X143564847Y-65177915D01*
X143707704Y-65225535D01*
X143802943Y-65320773D01*
X143850562Y-65416011D01*
X143898181Y-65606487D01*
X143898181Y-65749344D01*
X143850562Y-65939820D01*
X143802943Y-66035058D01*
X143707704Y-66130296D01*
X143564847Y-66177915D01*
X143326752Y-66177915D01*
X144850562Y-66177915D02*
X144279133Y-66177915D01*
X144564847Y-66177915D02*
X144564847Y-65177915D01*
X144469609Y-65320773D01*
X144374371Y-65416011D01*
X144279133Y-65463630D01*
G04 #@! TO.C,C_SW1*
X130936466Y-75321773D02*
X130984085Y-75369392D01*
X131031704Y-75512249D01*
X131031704Y-75607487D01*
X130984085Y-75750344D01*
X130888847Y-75845582D01*
X130793609Y-75893201D01*
X130603133Y-75940820D01*
X130460276Y-75940820D01*
X130269800Y-75893201D01*
X130174562Y-75845582D01*
X130079324Y-75750344D01*
X130031704Y-75607487D01*
X130031704Y-75512249D01*
X130079324Y-75369392D01*
X130126943Y-75321773D01*
X131126943Y-75131296D02*
X131126943Y-74369392D01*
X130984085Y-74178915D02*
X131031704Y-74036058D01*
X131031704Y-73797963D01*
X130984085Y-73702725D01*
X130936466Y-73655106D01*
X130841228Y-73607487D01*
X130745990Y-73607487D01*
X130650752Y-73655106D01*
X130603133Y-73702725D01*
X130555514Y-73797963D01*
X130507895Y-73988439D01*
X130460276Y-74083677D01*
X130412657Y-74131296D01*
X130317419Y-74178915D01*
X130222181Y-74178915D01*
X130126943Y-74131296D01*
X130079324Y-74083677D01*
X130031704Y-73988439D01*
X130031704Y-73750344D01*
X130079324Y-73607487D01*
X130031704Y-73274154D02*
X131031704Y-73036058D01*
X130317419Y-72845582D01*
X131031704Y-72655106D01*
X130031704Y-72417011D01*
X131031704Y-71512249D02*
X131031704Y-72083677D01*
X131031704Y-71797963D02*
X130031704Y-71797963D01*
X130174562Y-71893201D01*
X130269800Y-71988439D01*
X130317419Y-72083677D01*
G04 #@! TO.C,C_VCP1*
X127347909Y-65533542D02*
X127300290Y-65581161D01*
X127157433Y-65628780D01*
X127062195Y-65628780D01*
X126919338Y-65581161D01*
X126824100Y-65485923D01*
X126776480Y-65390685D01*
X126728861Y-65200209D01*
X126728861Y-65057352D01*
X126776480Y-64866876D01*
X126824100Y-64771638D01*
X126919338Y-64676400D01*
X127062195Y-64628780D01*
X127157433Y-64628780D01*
X127300290Y-64676400D01*
X127347909Y-64724019D01*
X127538385Y-65724019D02*
X128300290Y-65724019D01*
X128395528Y-64628780D02*
X128728861Y-65628780D01*
X129062195Y-64628780D01*
X129966957Y-65533542D02*
X129919338Y-65581161D01*
X129776480Y-65628780D01*
X129681242Y-65628780D01*
X129538385Y-65581161D01*
X129443147Y-65485923D01*
X129395528Y-65390685D01*
X129347909Y-65200209D01*
X129347909Y-65057352D01*
X129395528Y-64866876D01*
X129443147Y-64771638D01*
X129538385Y-64676400D01*
X129681242Y-64628780D01*
X129776480Y-64628780D01*
X129919338Y-64676400D01*
X129966957Y-64724019D01*
X130395528Y-65628780D02*
X130395528Y-64628780D01*
X130776480Y-64628780D01*
X130871719Y-64676400D01*
X130919338Y-64724019D01*
X130966957Y-64819257D01*
X130966957Y-64962114D01*
X130919338Y-65057352D01*
X130871719Y-65104971D01*
X130776480Y-65152590D01*
X130395528Y-65152590D01*
X131919338Y-65628780D02*
X131347909Y-65628780D01*
X131633623Y-65628780D02*
X131633623Y-64628780D01*
X131538385Y-64771638D01*
X131443147Y-64866876D01*
X131347909Y-64914495D01*
G04 #@! TO.C,C_VM1*
X127428181Y-72051915D02*
X127380562Y-72004296D01*
X127332943Y-71861439D01*
X127332943Y-71766201D01*
X127380562Y-71623344D01*
X127475800Y-71528106D01*
X127571038Y-71480487D01*
X127761514Y-71432868D01*
X127904371Y-71432868D01*
X128094847Y-71480487D01*
X128190085Y-71528106D01*
X128285324Y-71623344D01*
X128332943Y-71766201D01*
X128332943Y-71861439D01*
X128285324Y-72004296D01*
X128237704Y-72051915D01*
X127237704Y-72242392D02*
X127237704Y-73004296D01*
X128332943Y-73099535D02*
X127332943Y-73432868D01*
X128332943Y-73766201D01*
X127332943Y-74099535D02*
X128332943Y-74099535D01*
X127618657Y-74432868D01*
X128332943Y-74766201D01*
X127332943Y-74766201D01*
X127332943Y-75766201D02*
X127332943Y-75194773D01*
X127332943Y-75480487D02*
X128332943Y-75480487D01*
X128190085Y-75385249D01*
X128094847Y-75290011D01*
X128047228Y-75194773D01*
G04 #@! TO.C,J3*
X148129666Y-54443380D02*
X148129666Y-55157666D01*
X148082047Y-55300523D01*
X147986809Y-55395761D01*
X147843952Y-55443380D01*
X147748714Y-55443380D01*
X148510619Y-54443380D02*
X149129666Y-54443380D01*
X148796333Y-54824333D01*
X148939190Y-54824333D01*
X149034428Y-54871952D01*
X149082047Y-54919571D01*
X149129666Y-55014809D01*
X149129666Y-55252904D01*
X149082047Y-55348142D01*
X149034428Y-55395761D01*
X148939190Y-55443380D01*
X148653476Y-55443380D01*
X148558238Y-55395761D01*
X148510619Y-55348142D01*
G04 #@! TO.C,J4*
X164766666Y-54594380D02*
X164766666Y-55308666D01*
X164719047Y-55451523D01*
X164623809Y-55546761D01*
X164480952Y-55594380D01*
X164385714Y-55594380D01*
X165671428Y-54927714D02*
X165671428Y-55594380D01*
X165433333Y-54546761D02*
X165195238Y-55261047D01*
X165814285Y-55261047D01*
G04 #@! TO.C,C9*
X120432533Y-57106842D02*
X120384914Y-57154461D01*
X120242057Y-57202080D01*
X120146819Y-57202080D01*
X120003961Y-57154461D01*
X119908723Y-57059223D01*
X119861104Y-56963985D01*
X119813485Y-56773509D01*
X119813485Y-56630652D01*
X119861104Y-56440176D01*
X119908723Y-56344938D01*
X120003961Y-56249700D01*
X120146819Y-56202080D01*
X120242057Y-56202080D01*
X120384914Y-56249700D01*
X120432533Y-56297319D01*
X120908723Y-57202080D02*
X121099200Y-57202080D01*
X121194438Y-57154461D01*
X121242057Y-57106842D01*
X121337295Y-56963985D01*
X121384914Y-56773509D01*
X121384914Y-56392557D01*
X121337295Y-56297319D01*
X121289676Y-56249700D01*
X121194438Y-56202080D01*
X121003961Y-56202080D01*
X120908723Y-56249700D01*
X120861104Y-56297319D01*
X120813485Y-56392557D01*
X120813485Y-56630652D01*
X120861104Y-56725890D01*
X120908723Y-56773509D01*
X121003961Y-56821128D01*
X121194438Y-56821128D01*
X121289676Y-56773509D01*
X121337295Y-56725890D01*
X121384914Y-56630652D01*
G04 #@! TO.C,C10*
X117378242Y-73636142D02*
X117330623Y-73683761D01*
X117187766Y-73731380D01*
X117092528Y-73731380D01*
X116949671Y-73683761D01*
X116854433Y-73588523D01*
X116806814Y-73493285D01*
X116759195Y-73302809D01*
X116759195Y-73159952D01*
X116806814Y-72969476D01*
X116854433Y-72874238D01*
X116949671Y-72779000D01*
X117092528Y-72731380D01*
X117187766Y-72731380D01*
X117330623Y-72779000D01*
X117378242Y-72826619D01*
X118330623Y-73731380D02*
X117759195Y-73731380D01*
X118044909Y-73731380D02*
X118044909Y-72731380D01*
X117949671Y-72874238D01*
X117854433Y-72969476D01*
X117759195Y-73017095D01*
X118949671Y-72731380D02*
X119044909Y-72731380D01*
X119140147Y-72779000D01*
X119187766Y-72826619D01*
X119235385Y-72921857D01*
X119283004Y-73112333D01*
X119283004Y-73350428D01*
X119235385Y-73540904D01*
X119187766Y-73636142D01*
X119140147Y-73683761D01*
X119044909Y-73731380D01*
X118949671Y-73731380D01*
X118854433Y-73683761D01*
X118806814Y-73636142D01*
X118759195Y-73540904D01*
X118711576Y-73350428D01*
X118711576Y-73112333D01*
X118759195Y-72921857D01*
X118806814Y-72826619D01*
X118854433Y-72779000D01*
X118949671Y-72731380D01*
G04 #@! TO.C,C1*
X119213333Y-81468142D02*
X119165714Y-81515761D01*
X119022857Y-81563380D01*
X118927619Y-81563380D01*
X118784761Y-81515761D01*
X118689523Y-81420523D01*
X118641904Y-81325285D01*
X118594285Y-81134809D01*
X118594285Y-80991952D01*
X118641904Y-80801476D01*
X118689523Y-80706238D01*
X118784761Y-80611000D01*
X118927619Y-80563380D01*
X119022857Y-80563380D01*
X119165714Y-80611000D01*
X119213333Y-80658619D01*
X120165714Y-81563380D02*
X119594285Y-81563380D01*
X119880000Y-81563380D02*
X119880000Y-80563380D01*
X119784761Y-80706238D01*
X119689523Y-80801476D01*
X119594285Y-80849095D01*
G04 #@! TO.C,C2*
X144740333Y-81764142D02*
X144692714Y-81811761D01*
X144549857Y-81859380D01*
X144454619Y-81859380D01*
X144311761Y-81811761D01*
X144216523Y-81716523D01*
X144168904Y-81621285D01*
X144121285Y-81430809D01*
X144121285Y-81287952D01*
X144168904Y-81097476D01*
X144216523Y-81002238D01*
X144311761Y-80907000D01*
X144454619Y-80859380D01*
X144549857Y-80859380D01*
X144692714Y-80907000D01*
X144740333Y-80954619D01*
X145121285Y-80954619D02*
X145168904Y-80907000D01*
X145264142Y-80859380D01*
X145502238Y-80859380D01*
X145597476Y-80907000D01*
X145645095Y-80954619D01*
X145692714Y-81049857D01*
X145692714Y-81145095D01*
X145645095Y-81287952D01*
X145073666Y-81859380D01*
X145692714Y-81859380D01*
G04 #@! TO.C,C3*
X154138333Y-81341142D02*
X154090714Y-81388761D01*
X153947857Y-81436380D01*
X153852619Y-81436380D01*
X153709761Y-81388761D01*
X153614523Y-81293523D01*
X153566904Y-81198285D01*
X153519285Y-81007809D01*
X153519285Y-80864952D01*
X153566904Y-80674476D01*
X153614523Y-80579238D01*
X153709761Y-80484000D01*
X153852619Y-80436380D01*
X153947857Y-80436380D01*
X154090714Y-80484000D01*
X154138333Y-80531619D01*
X154471666Y-80436380D02*
X155090714Y-80436380D01*
X154757380Y-80817333D01*
X154900238Y-80817333D01*
X154995476Y-80864952D01*
X155043095Y-80912571D01*
X155090714Y-81007809D01*
X155090714Y-81245904D01*
X155043095Y-81341142D01*
X154995476Y-81388761D01*
X154900238Y-81436380D01*
X154614523Y-81436380D01*
X154519285Y-81388761D01*
X154471666Y-81341142D01*
G04 #@! TO.C,C7*
X134046142Y-60923466D02*
X134093761Y-60971085D01*
X134141380Y-61113942D01*
X134141380Y-61209180D01*
X134093761Y-61352038D01*
X133998523Y-61447276D01*
X133903285Y-61494895D01*
X133712809Y-61542514D01*
X133569952Y-61542514D01*
X133379476Y-61494895D01*
X133284238Y-61447276D01*
X133189000Y-61352038D01*
X133141380Y-61209180D01*
X133141380Y-61113942D01*
X133189000Y-60971085D01*
X133236619Y-60923466D01*
X133141380Y-60590133D02*
X133141380Y-59923466D01*
X134141380Y-60352038D01*
G04 #@! TO.C,C8*
X134088142Y-56808666D02*
X134135761Y-56856285D01*
X134183380Y-56999142D01*
X134183380Y-57094380D01*
X134135761Y-57237238D01*
X134040523Y-57332476D01*
X133945285Y-57380095D01*
X133754809Y-57427714D01*
X133611952Y-57427714D01*
X133421476Y-57380095D01*
X133326238Y-57332476D01*
X133231000Y-57237238D01*
X133183380Y-57094380D01*
X133183380Y-56999142D01*
X133231000Y-56856285D01*
X133278619Y-56808666D01*
X133611952Y-56237238D02*
X133564333Y-56332476D01*
X133516714Y-56380095D01*
X133421476Y-56427714D01*
X133373857Y-56427714D01*
X133278619Y-56380095D01*
X133231000Y-56332476D01*
X133183380Y-56237238D01*
X133183380Y-56046761D01*
X133231000Y-55951523D01*
X133278619Y-55903904D01*
X133373857Y-55856285D01*
X133421476Y-55856285D01*
X133516714Y-55903904D01*
X133564333Y-55951523D01*
X133611952Y-56046761D01*
X133611952Y-56237238D01*
X133659571Y-56332476D01*
X133707190Y-56380095D01*
X133802428Y-56427714D01*
X133992904Y-56427714D01*
X134088142Y-56380095D01*
X134135761Y-56332476D01*
X134183380Y-56237238D01*
X134183380Y-56046761D01*
X134135761Y-55951523D01*
X134088142Y-55903904D01*
X133992904Y-55856285D01*
X133802428Y-55856285D01*
X133707190Y-55903904D01*
X133659571Y-55951523D01*
X133611952Y-56046761D01*
G04 #@! TO.C,L1*
X136104333Y-52522380D02*
X135628142Y-52522380D01*
X135628142Y-51522380D01*
X136961476Y-52522380D02*
X136390047Y-52522380D01*
X136675761Y-52522380D02*
X136675761Y-51522380D01*
X136580523Y-51665238D01*
X136485285Y-51760476D01*
X136390047Y-51808095D01*
G04 #@! TO.C,R2*
X128357333Y-63063380D02*
X128024000Y-62587190D01*
X127785904Y-63063380D02*
X127785904Y-62063380D01*
X128166857Y-62063380D01*
X128262095Y-62111000D01*
X128309714Y-62158619D01*
X128357333Y-62253857D01*
X128357333Y-62396714D01*
X128309714Y-62491952D01*
X128262095Y-62539571D01*
X128166857Y-62587190D01*
X127785904Y-62587190D01*
X128738285Y-62158619D02*
X128785904Y-62111000D01*
X128881142Y-62063380D01*
X129119238Y-62063380D01*
X129214476Y-62111000D01*
X129262095Y-62158619D01*
X129309714Y-62253857D01*
X129309714Y-62349095D01*
X129262095Y-62491952D01*
X128690666Y-63063380D01*
X129309714Y-63063380D01*
G04 #@! TO.C,R6*
X128230333Y-80716380D02*
X127897000Y-80240190D01*
X127658904Y-80716380D02*
X127658904Y-79716380D01*
X128039857Y-79716380D01*
X128135095Y-79764000D01*
X128182714Y-79811619D01*
X128230333Y-79906857D01*
X128230333Y-80049714D01*
X128182714Y-80144952D01*
X128135095Y-80192571D01*
X128039857Y-80240190D01*
X127658904Y-80240190D01*
X129087476Y-79716380D02*
X128897000Y-79716380D01*
X128801761Y-79764000D01*
X128754142Y-79811619D01*
X128658904Y-79954476D01*
X128611285Y-80144952D01*
X128611285Y-80525904D01*
X128658904Y-80621142D01*
X128706523Y-80668761D01*
X128801761Y-80716380D01*
X128992238Y-80716380D01*
X129087476Y-80668761D01*
X129135095Y-80621142D01*
X129182714Y-80525904D01*
X129182714Y-80287809D01*
X129135095Y-80192571D01*
X129087476Y-80144952D01*
X128992238Y-80097333D01*
X128801761Y-80097333D01*
X128706523Y-80144952D01*
X128658904Y-80192571D01*
X128611285Y-80287809D01*
G04 #@! TO.C,R7*
X135596333Y-80970380D02*
X135263000Y-80494190D01*
X135024904Y-80970380D02*
X135024904Y-79970380D01*
X135405857Y-79970380D01*
X135501095Y-80018000D01*
X135548714Y-80065619D01*
X135596333Y-80160857D01*
X135596333Y-80303714D01*
X135548714Y-80398952D01*
X135501095Y-80446571D01*
X135405857Y-80494190D01*
X135024904Y-80494190D01*
X135929666Y-79970380D02*
X136596333Y-79970380D01*
X136167761Y-80970380D01*
G04 #@! TO.C,R8*
X164171333Y-80716380D02*
X163838000Y-80240190D01*
X163599904Y-80716380D02*
X163599904Y-79716380D01*
X163980857Y-79716380D01*
X164076095Y-79764000D01*
X164123714Y-79811619D01*
X164171333Y-79906857D01*
X164171333Y-80049714D01*
X164123714Y-80144952D01*
X164076095Y-80192571D01*
X163980857Y-80240190D01*
X163599904Y-80240190D01*
X164742761Y-80144952D02*
X164647523Y-80097333D01*
X164599904Y-80049714D01*
X164552285Y-79954476D01*
X164552285Y-79906857D01*
X164599904Y-79811619D01*
X164647523Y-79764000D01*
X164742761Y-79716380D01*
X164933238Y-79716380D01*
X165028476Y-79764000D01*
X165076095Y-79811619D01*
X165123714Y-79906857D01*
X165123714Y-79954476D01*
X165076095Y-80049714D01*
X165028476Y-80097333D01*
X164933238Y-80144952D01*
X164742761Y-80144952D01*
X164647523Y-80192571D01*
X164599904Y-80240190D01*
X164552285Y-80335428D01*
X164552285Y-80525904D01*
X164599904Y-80621142D01*
X164647523Y-80668761D01*
X164742761Y-80716380D01*
X164933238Y-80716380D01*
X165028476Y-80668761D01*
X165076095Y-80621142D01*
X165123714Y-80525904D01*
X165123714Y-80335428D01*
X165076095Y-80240190D01*
X165028476Y-80192571D01*
X164933238Y-80144952D01*
G04 #@! TD*
M02*
