<?xml version="1.0" standalone="no"?>
 <!DOCTYPE svg PUBLIC "-//W3C//DTD SVG 1.1//EN" 
 "http://www.w3.org/Graphics/SVG/1.1/DTD/svg11.dtd"> 
<svg xmlns="http://www.w3.org/2000/svg" version="1.1" 
    width="29.7002cm" height="21.0007cm" viewBox="0 0 116930 82680 ">
<title>SVG Picture created as actuator-B.Cu.svg date 2019/12/02 10:13:01 </title>
  <desc>Picture generated by PCBNEW </desc>
<g style="fill:#000000; fill-opacity:1;stroke:#000000; stroke-opacity:1;
stroke-linecap:round; stroke-linejoin:round; "
 transform="translate(0 0) scale(1 1)">
</g>
<g style="fill:#000000; fill-opacity:0.0; 
stroke:#000000; stroke-width:-0.000393701; stroke-opacity:1; 
stroke-linecap:round; stroke-linejoin:round;">
</g>
<g style="fill:#000000; fill-opacity:0.0; 
stroke:#000000; stroke-width:0; stroke-opacity:1; 
stroke-linecap:round; stroke-linejoin:round;">
</g>
<g style="fill:#000000; fill-opacity:1.0; 
stroke:#000000; stroke-width:0; stroke-opacity:1; 
stroke-linecap:round; stroke-linejoin:round;">
<polyline style="fill-rule:evenodd;"
points="54546,27046
54556,27048
54565,27050
54574,27053
54583,27057
54591,27062
54599,27068
54606,27075
54613,27082
54619,27090
54624,27098
54628,27107
54631,27116
54634,27126
54635,27135
54635,27145
54635,28718
54635,28728
54634,28738
54631,28747
54628,28756
54624,28765
54619,28773
54613,28781
54606,28788
54599,28795
54591,28801
54583,28806
54574,28810
54565,28813
54556,28816
54546,28817
54536,28817
52963,28817
52953,28817
52944,28816
52934,28813
52925,28810
52916,28806
52908,28801
52900,28795
52893,28788
52886,28781
52881,28773
52876,28765
52871,28756
52868,28747
52866,28738
52864,28728
52864,28718
52864,27145
52864,27135
52866,27126
52868,27116
52871,27107
52876,27098
52881,27090
52886,27082
52893,27075
52900,27068
52908,27062
52916,27057
52925,27053
52934,27050
52944,27048
52953,27046
52963,27046
54536,27046
54546,27046
" /> 
<circle cx="54537.5" cy="28719.5" r="98.4252" /> 
</g>
<g style="fill:#000000; fill-opacity:1.0; 
stroke:#000000; stroke-width:39.3701; stroke-opacity:1; 
stroke-linecap:round; stroke-linejoin:round;">
</g>
<g style="fill:#000000; fill-opacity:1.0; 
stroke:#000000; stroke-width:0; stroke-opacity:1; 
stroke-linecap:round; stroke-linejoin:round;">
<circle cx="54143.8" cy="28719.5" r="98.4252" /> 
</g>
<g style="fill:#000000; fill-opacity:1.0; 
stroke:#000000; stroke-width:39.3701; stroke-opacity:1; 
stroke-linecap:round; stroke-linejoin:round;">
</g>
<g style="fill:#000000; fill-opacity:1.0; 
stroke:#000000; stroke-width:0; stroke-opacity:1; 
stroke-linecap:round; stroke-linejoin:round;">
<circle cx="53750.1" cy="28719.5" r="98.4252" /> 
</g>
<g style="fill:#000000; fill-opacity:1.0; 
stroke:#000000; stroke-width:39.3701; stroke-opacity:1; 
stroke-linecap:round; stroke-linejoin:round;">
</g>
<g style="fill:#000000; fill-opacity:1.0; 
stroke:#000000; stroke-width:0; stroke-opacity:1; 
stroke-linecap:round; stroke-linejoin:round;">
<circle cx="53356.4" cy="28719.5" r="98.4252" /> 
</g>
<g style="fill:#000000; fill-opacity:1.0; 
stroke:#000000; stroke-width:39.3701; stroke-opacity:1; 
stroke-linecap:round; stroke-linejoin:round;">
</g>
<g style="fill:#000000; fill-opacity:1.0; 
stroke:#000000; stroke-width:0; stroke-opacity:1; 
stroke-linecap:round; stroke-linejoin:round;">
<circle cx="52962.7" cy="28719.5" r="98.4252" /> 
</g>
<g style="fill:#000000; fill-opacity:1.0; 
stroke:#000000; stroke-width:39.3701; stroke-opacity:1; 
stroke-linecap:round; stroke-linejoin:round;">
</g>
<g style="fill:#000000; fill-opacity:1.0; 
stroke:#000000; stroke-width:0; stroke-opacity:1; 
stroke-linecap:round; stroke-linejoin:round;">
<circle cx="54537.5" cy="28325.8" r="98.4252" /> 
</g>
<g style="fill:#000000; fill-opacity:1.0; 
stroke:#000000; stroke-width:39.3701; stroke-opacity:1; 
stroke-linecap:round; stroke-linejoin:round;">
</g>
<g style="fill:#000000; fill-opacity:1.0; 
stroke:#000000; stroke-width:0; stroke-opacity:1; 
stroke-linecap:round; stroke-linejoin:round;">
<circle cx="54143.8" cy="28325.8" r="98.4252" /> 
</g>
<g style="fill:#000000; fill-opacity:1.0; 
stroke:#000000; stroke-width:39.3701; stroke-opacity:1; 
stroke-linecap:round; stroke-linejoin:round;">
</g>
<g style="fill:#000000; fill-opacity:1.0; 
stroke:#000000; stroke-width:0; stroke-opacity:1; 
stroke-linecap:round; stroke-linejoin:round;">
<circle cx="53750.1" cy="28325.8" r="98.4252" /> 
</g>
<g style="fill:#000000; fill-opacity:1.0; 
stroke:#000000; stroke-width:39.3701; stroke-opacity:1; 
stroke-linecap:round; stroke-linejoin:round;">
</g>
<g style="fill:#000000; fill-opacity:1.0; 
stroke:#000000; stroke-width:0; stroke-opacity:1; 
stroke-linecap:round; stroke-linejoin:round;">
<circle cx="53356.4" cy="28325.8" r="98.4252" /> 
</g>
<g style="fill:#000000; fill-opacity:1.0; 
stroke:#000000; stroke-width:39.3701; stroke-opacity:1; 
stroke-linecap:round; stroke-linejoin:round;">
</g>
<g style="fill:#000000; fill-opacity:1.0; 
stroke:#000000; stroke-width:0; stroke-opacity:1; 
stroke-linecap:round; stroke-linejoin:round;">
<circle cx="52962.7" cy="28325.8" r="98.4252" /> 
</g>
<g style="fill:#000000; fill-opacity:1.0; 
stroke:#000000; stroke-width:39.3701; stroke-opacity:1; 
stroke-linecap:round; stroke-linejoin:round;">
</g>
<g style="fill:#000000; fill-opacity:1.0; 
stroke:#000000; stroke-width:0; stroke-opacity:1; 
stroke-linecap:round; stroke-linejoin:round;">
<circle cx="54537.5" cy="27932.1" r="98.4252" /> 
</g>
<g style="fill:#000000; fill-opacity:1.0; 
stroke:#000000; stroke-width:39.3701; stroke-opacity:1; 
stroke-linecap:round; stroke-linejoin:round;">
</g>
<g style="fill:#000000; fill-opacity:1.0; 
stroke:#000000; stroke-width:0; stroke-opacity:1; 
stroke-linecap:round; stroke-linejoin:round;">
<circle cx="54143.8" cy="27932.1" r="98.4252" /> 
</g>
<g style="fill:#000000; fill-opacity:1.0; 
stroke:#000000; stroke-width:39.3701; stroke-opacity:1; 
stroke-linecap:round; stroke-linejoin:round;">
</g>
<g style="fill:#000000; fill-opacity:1.0; 
stroke:#000000; stroke-width:0; stroke-opacity:1; 
stroke-linecap:round; stroke-linejoin:round;">
<circle cx="53750.1" cy="27932.1" r="98.4252" /> 
</g>
<g style="fill:#000000; fill-opacity:1.0; 
stroke:#000000; stroke-width:39.3701; stroke-opacity:1; 
stroke-linecap:round; stroke-linejoin:round;">
</g>
<g style="fill:#000000; fill-opacity:1.0; 
stroke:#000000; stroke-width:0; stroke-opacity:1; 
stroke-linecap:round; stroke-linejoin:round;">
<circle cx="53356.4" cy="27932.1" r="98.4252" /> 
</g>
<g style="fill:#000000; fill-opacity:1.0; 
stroke:#000000; stroke-width:39.3701; stroke-opacity:1; 
stroke-linecap:round; stroke-linejoin:round;">
</g>
<g style="fill:#000000; fill-opacity:1.0; 
stroke:#000000; stroke-width:0; stroke-opacity:1; 
stroke-linecap:round; stroke-linejoin:round;">
<circle cx="52962.7" cy="27932.1" r="98.4252" /> 
</g>
<g style="fill:#000000; fill-opacity:1.0; 
stroke:#000000; stroke-width:39.3701; stroke-opacity:1; 
stroke-linecap:round; stroke-linejoin:round;">
</g>
<g style="fill:#000000; fill-opacity:1.0; 
stroke:#000000; stroke-width:0; stroke-opacity:1; 
stroke-linecap:round; stroke-linejoin:round;">
<circle cx="54537.5" cy="27538.4" r="98.4252" /> 
</g>
<g style="fill:#000000; fill-opacity:1.0; 
stroke:#000000; stroke-width:39.3701; stroke-opacity:1; 
stroke-linecap:round; stroke-linejoin:round;">
</g>
<g style="fill:#000000; fill-opacity:1.0; 
stroke:#000000; stroke-width:0; stroke-opacity:1; 
stroke-linecap:round; stroke-linejoin:round;">
<circle cx="54143.8" cy="27538.4" r="98.4252" /> 
</g>
<g style="fill:#000000; fill-opacity:1.0; 
stroke:#000000; stroke-width:39.3701; stroke-opacity:1; 
stroke-linecap:round; stroke-linejoin:round;">
</g>
<g style="fill:#000000; fill-opacity:1.0; 
stroke:#000000; stroke-width:0; stroke-opacity:1; 
stroke-linecap:round; stroke-linejoin:round;">
<circle cx="53750.1" cy="27538.4" r="98.4252" /> 
</g>
<g style="fill:#000000; fill-opacity:1.0; 
stroke:#000000; stroke-width:39.3701; stroke-opacity:1; 
stroke-linecap:round; stroke-linejoin:round;">
</g>
<g style="fill:#000000; fill-opacity:1.0; 
stroke:#000000; stroke-width:0; stroke-opacity:1; 
stroke-linecap:round; stroke-linejoin:round;">
<circle cx="53356.4" cy="27538.4" r="98.4252" /> 
</g>
<g style="fill:#000000; fill-opacity:1.0; 
stroke:#000000; stroke-width:39.3701; stroke-opacity:1; 
stroke-linecap:round; stroke-linejoin:round;">
</g>
<g style="fill:#000000; fill-opacity:1.0; 
stroke:#000000; stroke-width:0; stroke-opacity:1; 
stroke-linecap:round; stroke-linejoin:round;">
<circle cx="52962.7" cy="27538.4" r="98.4252" /> 
</g>
<g style="fill:#000000; fill-opacity:1.0; 
stroke:#000000; stroke-width:39.3701; stroke-opacity:1; 
stroke-linecap:round; stroke-linejoin:round;">
</g>
<g style="fill:#000000; fill-opacity:1.0; 
stroke:#000000; stroke-width:0; stroke-opacity:1; 
stroke-linecap:round; stroke-linejoin:round;">
<circle cx="54537.5" cy="27144.7" r="98.4252" /> 
</g>
<g style="fill:#000000; fill-opacity:1.0; 
stroke:#000000; stroke-width:39.3701; stroke-opacity:1; 
stroke-linecap:round; stroke-linejoin:round;">
</g>
<g style="fill:#000000; fill-opacity:1.0; 
stroke:#000000; stroke-width:0; stroke-opacity:1; 
stroke-linecap:round; stroke-linejoin:round;">
<circle cx="54143.8" cy="27144.7" r="98.4252" /> 
</g>
<g style="fill:#000000; fill-opacity:1.0; 
stroke:#000000; stroke-width:39.3701; stroke-opacity:1; 
stroke-linecap:round; stroke-linejoin:round;">
</g>
<g style="fill:#000000; fill-opacity:1.0; 
stroke:#000000; stroke-width:0; stroke-opacity:1; 
stroke-linecap:round; stroke-linejoin:round;">
<circle cx="53750.1" cy="27144.7" r="98.4252" /> 
</g>
<g style="fill:#000000; fill-opacity:1.0; 
stroke:#000000; stroke-width:39.3701; stroke-opacity:1; 
stroke-linecap:round; stroke-linejoin:round;">
</g>
<g style="fill:#000000; fill-opacity:1.0; 
stroke:#000000; stroke-width:0; stroke-opacity:1; 
stroke-linecap:round; stroke-linejoin:round;">
<circle cx="53356.4" cy="27144.7" r="98.4252" /> 
</g>
<g style="fill:#000000; fill-opacity:1.0; 
stroke:#000000; stroke-width:39.3701; stroke-opacity:1; 
stroke-linecap:round; stroke-linejoin:round;">
</g>
<g style="fill:#000000; fill-opacity:1.0; 
stroke:#000000; stroke-width:0; stroke-opacity:1; 
stroke-linecap:round; stroke-linejoin:round;">
<circle cx="52962.7" cy="27144.7" r="98.4252" /> 
</g>
<g style="fill:#000000; fill-opacity:1.0; 
stroke:#000000; stroke-width:39.3701; stroke-opacity:1; 
stroke-linecap:round; stroke-linejoin:round;">
</g>
<g style="fill:#000000; fill-opacity:1.0; 
stroke:#000000; stroke-width:0; stroke-opacity:1; 
stroke-linecap:round; stroke-linejoin:round;">
<circle cx="59650" cy="39250" r="1574.8" /> 
</g>
<g style="fill:#000000; fill-opacity:1.0; 
stroke:#000000; stroke-width:39.3701; stroke-opacity:1; 
stroke-linecap:round; stroke-linejoin:round;">
</g>
<g style="fill:#000000; fill-opacity:1.0; 
stroke:#000000; stroke-width:0; stroke-opacity:1; 
stroke-linecap:round; stroke-linejoin:round;">
<circle cx="55650" cy="39250" r="1574.8" /> 
</g>
<g style="fill:#000000; fill-opacity:1.0; 
stroke:#000000; stroke-width:39.3701; stroke-opacity:1; 
stroke-linecap:round; stroke-linejoin:round;">
</g>
<g style="fill:#000000; fill-opacity:1.0; 
stroke:#000000; stroke-width:0; stroke-opacity:1; 
stroke-linecap:round; stroke-linejoin:round;">
<circle cx="51650" cy="39250" r="1574.8" /> 
</g>
<g style="fill:#000000; fill-opacity:1.0; 
stroke:#000000; stroke-width:39.3701; stroke-opacity:1; 
stroke-linecap:round; stroke-linejoin:round;">
</g>
<g style="fill:#000000; fill-opacity:1.0; 
stroke:#000000; stroke-width:0; stroke-opacity:1; 
stroke-linecap:round; stroke-linejoin:round;">
<circle cx="52650" cy="40250" r="787.402" /> 
</g>
<g style="fill:#000000; fill-opacity:1.0; 
stroke:#000000; stroke-width:39.3701; stroke-opacity:1; 
stroke-linecap:round; stroke-linejoin:round;">
</g>
<g style="fill:#000000; fill-opacity:1.0; 
stroke:#000000; stroke-width:0; stroke-opacity:1; 
stroke-linecap:round; stroke-linejoin:round;">
<circle cx="55650" cy="40250" r="787.402" /> 
</g>
<g style="fill:#000000; fill-opacity:1.0; 
stroke:#000000; stroke-width:39.3701; stroke-opacity:1; 
stroke-linecap:round; stroke-linejoin:round;">
</g>
<g style="fill:#000000; fill-opacity:1.0; 
stroke:#000000; stroke-width:0; stroke-opacity:1; 
stroke-linecap:round; stroke-linejoin:round;">
<circle cx="58650" cy="40250" r="787.402" /> 
</g>
<g style="fill:#000000; fill-opacity:1.0; 
stroke:#000000; stroke-width:39.3701; stroke-opacity:1; 
stroke-linecap:round; stroke-linejoin:round;">
</g>
<g style="fill:#000000; fill-opacity:1.0; 
stroke:#000000; stroke-width:0; stroke-opacity:1; 
stroke-linecap:round; stroke-linejoin:round;">
<polyline style="fill-rule:evenodd;"
points="50513,20240
50523,20241
50532,20243
50541,20247
50550,20251
50558,20256
50566,20262
50573,20268
50580,20275
50585,20283
50590,20291
50594,20300
50598,20309
50600,20318
50602,20328
50602,20338
50602,21558
50602,21568
50600,21577
50598,21587
50594,21596
50590,21604
50585,21613
50580,21621
50573,21628
50566,21634
50558,21640
50550,21645
50541,21649
50532,21652
50523,21655
50513,21656
50504,21657
49874,21657
49864,21656
49854,21655
49845,21652
49836,21649
49827,21645
49819,21640
49811,21634
49804,21628
49798,21621
49792,21613
49787,21604
49783,21596
49779,21587
49777,21577
49776,21568
49775,21558
49775,20338
49776,20328
49777,20318
49779,20309
49783,20300
49787,20291
49792,20283
49798,20275
49804,20268
49811,20262
49819,20256
49827,20251
49836,20247
49845,20243
49854,20241
49864,20240
49874,20239
50504,20239
50513,20240
" /> 
</g>
<g style="fill:#000000; fill-opacity:1.0; 
stroke:#000000; stroke-width:826.772; stroke-opacity:1; 
stroke-linecap:round; stroke-linejoin:round;">
</g>
<g style="fill:#000000; fill-opacity:0.0; 
stroke:#000000; stroke-width:826.772; stroke-opacity:1; 
stroke-linecap:round; stroke-linejoin:round;">
<path d="M47189 21243
L47189 20653
" />
</g>
<g style="fill:#000000; fill-opacity:0.0; 
stroke:#000000; stroke-width:669.291; stroke-opacity:1; 
stroke-linecap:round; stroke-linejoin:round;">
<path d="M65000 20600
L65000 20600
" />
<path d="M64000 20600
L64000 20600
" />
<path d="M63000 20600
L63000 20600
" />
<path d="M62000 20600
L62000 20600
" />
<path d="M61000 20600
L61000 20600
" />
<path d="M60000 20600
L60000 20600
" />
<path d="M59000 20600
L59000 20600
" />
</g>
<g style="fill:#000000; fill-opacity:0.0; 
stroke:#000000; stroke-width:0; stroke-opacity:1; 
stroke-linecap:round; stroke-linejoin:round;">
</g>
<g style="fill:#000000; fill-opacity:1.0; 
stroke:#000000; stroke-width:0; stroke-opacity:1; 
stroke-linecap:round; stroke-linejoin:round;">
<polyline style="fill-rule:evenodd;"
points="58334,20934
57665,20934
57665,20265
58334,20265
58334,20934
" /> 
<polyline style="fill-rule:evenodd;"
points="64665,23134
64665,22465
65334,22465
65334,23134
64665,23134
" /> 
</g>
<g style="fill:#000000; fill-opacity:1.0; 
stroke:#000000; stroke-width:669.291; stroke-opacity:1; 
stroke-linecap:round; stroke-linejoin:round;">
</g>
<g style="fill:#000000; fill-opacity:0.0; 
stroke:#000000; stroke-width:669.291; stroke-opacity:1; 
stroke-linecap:round; stroke-linejoin:round;">
<path d="M65000 23800
L65000 23800
" />
<path d="M65000 24800
L65000 24800
" />
<path d="M65000 25800
L65000 25800
" />
<path d="M65000 26800
L65000 26800
" />
<path d="M65000 27800
L65000 27800
" />
<path d="M65000 28800
L65000 28800
" />
<path d="M65000 29800
L65000 29800
" />
</g>
<g style="fill:#000000; fill-opacity:1.0; 
stroke:#000000; stroke-width:0; stroke-opacity:1; 
stroke-linecap:round; stroke-linejoin:round;">
<circle cx="54600" cy="21800" r="511.811" /> 
</g>
<g style="fill:#000000; fill-opacity:1.0; 
stroke:#000000; stroke-width:39.3701; stroke-opacity:1; 
stroke-linecap:round; stroke-linejoin:round;">
</g>
<g style="fill:#000000; fill-opacity:1.0; 
stroke:#000000; stroke-width:0; stroke-opacity:1; 
stroke-linecap:round; stroke-linejoin:round;">
<circle cx="56568.5" cy="21800" r="511.811" /> 
</g>
<g style="fill:#000000; fill-opacity:1.0; 
stroke:#000000; stroke-width:39.3701; stroke-opacity:1; 
stroke-linecap:round; stroke-linejoin:round;">
</g>
<g style="fill:#000000; fill-opacity:1.0; 
stroke:#000000; stroke-width:0; stroke-opacity:1; 
stroke-linecap:round; stroke-linejoin:round;">
<circle cx="51100" cy="31100" r="157.48" /> 
</g>
<g style="fill:#000000; fill-opacity:1.0; 
stroke:#000000; stroke-width:39.3701; stroke-opacity:1; 
stroke-linecap:round; stroke-linejoin:round;">
</g>
<g style="fill:#000000; fill-opacity:1.0; 
stroke:#000000; stroke-width:0; stroke-opacity:1; 
stroke-linecap:round; stroke-linejoin:round;">
<circle cx="51800" cy="32050" r="157.48" /> 
</g>
<g style="fill:#000000; fill-opacity:1.0; 
stroke:#000000; stroke-width:39.3701; stroke-opacity:1; 
stroke-linecap:round; stroke-linejoin:round;">
</g>
<g style="fill:#000000; fill-opacity:1.0; 
stroke:#000000; stroke-width:0; stroke-opacity:1; 
stroke-linecap:round; stroke-linejoin:round;">
<circle cx="47500" cy="31000" r="157.48" /> 
</g>
<g style="fill:#000000; fill-opacity:1.0; 
stroke:#000000; stroke-width:39.3701; stroke-opacity:1; 
stroke-linecap:round; stroke-linejoin:round;">
</g>
<g style="fill:#000000; fill-opacity:1.0; 
stroke:#000000; stroke-width:0; stroke-opacity:1; 
stroke-linecap:round; stroke-linejoin:round;">
<circle cx="48300" cy="31550" r="157.48" /> 
</g>
<g style="fill:#000000; fill-opacity:1.0; 
stroke:#000000; stroke-width:39.3701; stroke-opacity:1; 
stroke-linecap:round; stroke-linejoin:round;">
</g>
<g style="fill:#000000; fill-opacity:1.0; 
stroke:#000000; stroke-width:0; stroke-opacity:1; 
stroke-linecap:round; stroke-linejoin:round;">
<circle cx="61200" cy="31950" r="157.48" /> 
</g>
<g style="fill:#000000; fill-opacity:1.0; 
stroke:#000000; stroke-width:39.3701; stroke-opacity:1; 
stroke-linecap:round; stroke-linejoin:round;">
</g>
<g style="fill:#000000; fill-opacity:1.0; 
stroke:#000000; stroke-width:0; stroke-opacity:1; 
stroke-linecap:round; stroke-linejoin:round;">
<circle cx="62200" cy="30700" r="157.48" /> 
</g>
<g style="fill:#000000; fill-opacity:1.0; 
stroke:#000000; stroke-width:39.3701; stroke-opacity:1; 
stroke-linecap:round; stroke-linejoin:round;">
</g>
<g style="fill:#000000; fill-opacity:1.0; 
stroke:#000000; stroke-width:0; stroke-opacity:1; 
stroke-linecap:round; stroke-linejoin:round;">
<circle cx="50100" cy="30650" r="157.48" /> 
</g>
<g style="fill:#000000; fill-opacity:1.0; 
stroke:#000000; stroke-width:39.3701; stroke-opacity:1; 
stroke-linecap:round; stroke-linejoin:round;">
</g>
<g style="fill:#000000; fill-opacity:1.0; 
stroke:#000000; stroke-width:0; stroke-opacity:1; 
stroke-linecap:round; stroke-linejoin:round;">
<circle cx="62200" cy="31750" r="157.48" /> 
</g>
<g style="fill:#000000; fill-opacity:1.0; 
stroke:#000000; stroke-width:39.3701; stroke-opacity:1; 
stroke-linecap:round; stroke-linejoin:round;">
</g>
<g style="fill:#000000; fill-opacity:1.0; 
stroke:#000000; stroke-width:0; stroke-opacity:1; 
stroke-linecap:round; stroke-linejoin:round;">
<circle cx="52550" cy="30600" r="157.48" /> 
</g>
<g style="fill:#000000; fill-opacity:1.0; 
stroke:#000000; stroke-width:39.3701; stroke-opacity:1; 
stroke-linecap:round; stroke-linejoin:round;">
</g>
<g style="fill:#000000; fill-opacity:1.0; 
stroke:#000000; stroke-width:0; stroke-opacity:1; 
stroke-linecap:round; stroke-linejoin:round;">
<circle cx="59000" cy="26900" r="157.48" /> 
</g>
<g style="fill:#000000; fill-opacity:1.0; 
stroke:#000000; stroke-width:39.3701; stroke-opacity:1; 
stroke-linecap:round; stroke-linejoin:round;">
</g>
<g style="fill:#000000; fill-opacity:1.0; 
stroke:#000000; stroke-width:0; stroke-opacity:1; 
stroke-linecap:round; stroke-linejoin:round;">
<circle cx="57150" cy="26900" r="157.48" /> 
</g>
<g style="fill:#000000; fill-opacity:1.0; 
stroke:#000000; stroke-width:39.3701; stroke-opacity:1; 
stroke-linecap:round; stroke-linejoin:round;">
</g>
<g style="fill:#000000; fill-opacity:1.0; 
stroke:#000000; stroke-width:0; stroke-opacity:1; 
stroke-linecap:round; stroke-linejoin:round;">
<circle cx="56450" cy="29050" r="157.48" /> 
</g>
<g style="fill:#000000; fill-opacity:1.0; 
stroke:#000000; stroke-width:39.3701; stroke-opacity:1; 
stroke-linecap:round; stroke-linejoin:round;">
</g>
<g style="fill:#000000; fill-opacity:1.0; 
stroke:#000000; stroke-width:0; stroke-opacity:1; 
stroke-linecap:round; stroke-linejoin:round;">
<circle cx="49755" cy="24445" r="157.48" /> 
</g>
<g style="fill:#000000; fill-opacity:1.0; 
stroke:#000000; stroke-width:39.3701; stroke-opacity:1; 
stroke-linecap:round; stroke-linejoin:round;">
</g>
<g style="fill:#000000; fill-opacity:1.0; 
stroke:#000000; stroke-width:0; stroke-opacity:1; 
stroke-linecap:round; stroke-linejoin:round;">
<circle cx="49750" cy="22545" r="157.48" /> 
</g>
<g style="fill:#000000; fill-opacity:1.0; 
stroke:#000000; stroke-width:39.3701; stroke-opacity:1; 
stroke-linecap:round; stroke-linejoin:round;">
</g>
<g style="fill:#000000; fill-opacity:1.0; 
stroke:#000000; stroke-width:0; stroke-opacity:1; 
stroke-linecap:round; stroke-linejoin:round;">
<circle cx="49750" cy="26050" r="157.48" /> 
</g>
<g style="fill:#000000; fill-opacity:1.0; 
stroke:#000000; stroke-width:39.3701; stroke-opacity:1; 
stroke-linecap:round; stroke-linejoin:round;">
</g>
<g style="fill:#000000; fill-opacity:1.0; 
stroke:#000000; stroke-width:0; stroke-opacity:1; 
stroke-linecap:round; stroke-linejoin:round;">
<circle cx="64150" cy="30950" r="157.48" /> 
</g>
<g style="fill:#000000; fill-opacity:1.0; 
stroke:#000000; stroke-width:39.3701; stroke-opacity:1; 
stroke-linecap:round; stroke-linejoin:round;">
</g>
<g style="fill:#000000; fill-opacity:1.0; 
stroke:#000000; stroke-width:0; stroke-opacity:1; 
stroke-linecap:round; stroke-linejoin:round;">
<circle cx="60150" cy="30300" r="157.48" /> 
</g>
<g style="fill:#000000; fill-opacity:1.0; 
stroke:#000000; stroke-width:39.3701; stroke-opacity:1; 
stroke-linecap:round; stroke-linejoin:round;">
</g>
<g style="fill:#000000; fill-opacity:1.0; 
stroke:#000000; stroke-width:0; stroke-opacity:1; 
stroke-linecap:round; stroke-linejoin:round;">
<circle cx="62950" cy="27300" r="157.48" /> 
</g>
<g style="fill:#000000; fill-opacity:1.0; 
stroke:#000000; stroke-width:39.3701; stroke-opacity:1; 
stroke-linecap:round; stroke-linejoin:round;">
</g>
<g style="fill:#000000; fill-opacity:1.0; 
stroke:#000000; stroke-width:0; stroke-opacity:1; 
stroke-linecap:round; stroke-linejoin:round;">
<circle cx="57450" cy="23150" r="157.48" /> 
</g>
<g style="fill:#000000; fill-opacity:1.0; 
stroke:#000000; stroke-width:39.3701; stroke-opacity:1; 
stroke-linecap:round; stroke-linejoin:round;">
</g>
<g style="fill:#000000; fill-opacity:1.0; 
stroke:#000000; stroke-width:0; stroke-opacity:1; 
stroke-linecap:round; stroke-linejoin:round;">
<circle cx="52200" cy="20900" r="157.48" /> 
</g>
<g style="fill:#000000; fill-opacity:1.0; 
stroke:#000000; stroke-width:39.3701; stroke-opacity:1; 
stroke-linecap:round; stroke-linejoin:round;">
</g>
<g style="fill:#000000; fill-opacity:1.0; 
stroke:#000000; stroke-width:0; stroke-opacity:1; 
stroke-linecap:round; stroke-linejoin:round;">
<circle cx="55950" cy="32450" r="157.48" /> 
</g>
<g style="fill:#000000; fill-opacity:1.0; 
stroke:#000000; stroke-width:39.3701; stroke-opacity:1; 
stroke-linecap:round; stroke-linejoin:round;">
</g>
<g style="fill:#000000; fill-opacity:1.0; 
stroke:#000000; stroke-width:0; stroke-opacity:1; 
stroke-linecap:round; stroke-linejoin:round;">
<circle cx="56850" cy="32100" r="157.48" /> 
</g>
<g style="fill:#000000; fill-opacity:1.0; 
stroke:#000000; stroke-width:39.3701; stroke-opacity:1; 
stroke-linecap:round; stroke-linejoin:round;">
</g>
<g style="fill:#000000; fill-opacity:1.0; 
stroke:#000000; stroke-width:0; stroke-opacity:1; 
stroke-linecap:round; stroke-linejoin:round;">
<circle cx="59200" cy="32600" r="157.48" /> 
</g>
<g style="fill:#000000; fill-opacity:1.0; 
stroke:#000000; stroke-width:39.3701; stroke-opacity:1; 
stroke-linecap:round; stroke-linejoin:round;">
</g>
<g style="fill:#000000; fill-opacity:1.0; 
stroke:#000000; stroke-width:0; stroke-opacity:1; 
stroke-linecap:round; stroke-linejoin:round;">
<circle cx="59200" cy="32200" r="157.48" /> 
</g>
<g style="fill:#000000; fill-opacity:1.0; 
stroke:#000000; stroke-width:39.3701; stroke-opacity:1; 
stroke-linecap:round; stroke-linejoin:round;">
</g>
<g style="fill:#000000; fill-opacity:1.0; 
stroke:#000000; stroke-width:0; stroke-opacity:1; 
stroke-linecap:round; stroke-linejoin:round;">
<circle cx="59200" cy="33000" r="157.48" /> 
</g>
<g style="fill:#000000; fill-opacity:1.0; 
stroke:#000000; stroke-width:39.3701; stroke-opacity:1; 
stroke-linecap:round; stroke-linejoin:round;">
</g>
<g style="fill:#000000; fill-opacity:1.0; 
stroke:#000000; stroke-width:0; stroke-opacity:1; 
stroke-linecap:round; stroke-linejoin:round;">
<circle cx="57000" cy="33450" r="157.48" /> 
</g>
<g style="fill:#000000; fill-opacity:1.0; 
stroke:#000000; stroke-width:39.3701; stroke-opacity:1; 
stroke-linecap:round; stroke-linejoin:round;">
</g>
<g style="fill:#000000; fill-opacity:1.0; 
stroke:#000000; stroke-width:0; stroke-opacity:1; 
stroke-linecap:round; stroke-linejoin:round;">
<circle cx="57400" cy="33450" r="157.48" /> 
</g>
<g style="fill:#000000; fill-opacity:1.0; 
stroke:#000000; stroke-width:39.3701; stroke-opacity:1; 
stroke-linecap:round; stroke-linejoin:round;">
</g>
<g style="fill:#000000; fill-opacity:1.0; 
stroke:#000000; stroke-width:0; stroke-opacity:1; 
stroke-linecap:round; stroke-linejoin:round;">
<circle cx="53450" cy="25150" r="157.48" /> 
</g>
<g style="fill:#000000; fill-opacity:1.0; 
stroke:#000000; stroke-width:39.3701; stroke-opacity:1; 
stroke-linecap:round; stroke-linejoin:round;">
</g>
<g style="fill:#000000; fill-opacity:1.0; 
stroke:#000000; stroke-width:0; stroke-opacity:1; 
stroke-linecap:round; stroke-linejoin:round;">
<circle cx="49450" cy="27750" r="157.48" /> 
</g>
<g style="fill:#000000; fill-opacity:1.0; 
stroke:#000000; stroke-width:39.3701; stroke-opacity:1; 
stroke-linecap:round; stroke-linejoin:round;">
</g>
<g style="fill:#000000; fill-opacity:1.0; 
stroke:#000000; stroke-width:0; stroke-opacity:1; 
stroke-linecap:round; stroke-linejoin:round;">
<circle cx="46135" cy="25535" r="157.48" /> 
</g>
<g style="fill:#000000; fill-opacity:1.0; 
stroke:#000000; stroke-width:39.3701; stroke-opacity:1; 
stroke-linecap:round; stroke-linejoin:round;">
</g>
<g style="fill:#000000; fill-opacity:1.0; 
stroke:#000000; stroke-width:0; stroke-opacity:1; 
stroke-linecap:round; stroke-linejoin:round;">
<circle cx="46150" cy="29450" r="157.48" /> 
</g>
<g style="fill:#000000; fill-opacity:1.0; 
stroke:#000000; stroke-width:39.3701; stroke-opacity:1; 
stroke-linecap:round; stroke-linejoin:round;">
</g>
<g style="fill:#000000; fill-opacity:1.0; 
stroke:#000000; stroke-width:0; stroke-opacity:1; 
stroke-linecap:round; stroke-linejoin:round;">
<circle cx="52750" cy="31300" r="157.48" /> 
</g>
<g style="fill:#000000; fill-opacity:1.0; 
stroke:#000000; stroke-width:39.3701; stroke-opacity:1; 
stroke-linecap:round; stroke-linejoin:round;">
</g>
<g style="fill:#000000; fill-opacity:1.0; 
stroke:#000000; stroke-width:0; stroke-opacity:1; 
stroke-linecap:round; stroke-linejoin:round;">
<circle cx="53700" cy="32550" r="157.48" /> 
</g>
<g style="fill:#000000; fill-opacity:1.0; 
stroke:#000000; stroke-width:39.3701; stroke-opacity:1; 
stroke-linecap:round; stroke-linejoin:round;">
</g>
<g style="fill:#000000; fill-opacity:1.0; 
stroke:#000000; stroke-width:0; stroke-opacity:1; 
stroke-linecap:round; stroke-linejoin:round;">
<circle cx="54200" cy="23250" r="157.48" /> 
</g>
<g style="fill:#000000; fill-opacity:1.0; 
stroke:#000000; stroke-width:39.3701; stroke-opacity:1; 
stroke-linecap:round; stroke-linejoin:round;">
</g>
<g style="fill:#000000; fill-opacity:1.0; 
stroke:#000000; stroke-width:0; stroke-opacity:1; 
stroke-linecap:round; stroke-linejoin:round;">
<circle cx="58300" cy="29100" r="157.48" /> 
</g>
<g style="fill:#000000; fill-opacity:1.0; 
stroke:#000000; stroke-width:39.3701; stroke-opacity:1; 
stroke-linecap:round; stroke-linejoin:round;">
</g>
<g style="fill:#000000; fill-opacity:1.0; 
stroke:#000000; stroke-width:0; stroke-opacity:1; 
stroke-linecap:round; stroke-linejoin:round;">
<circle cx="58300" cy="29500" r="157.48" /> 
</g>
<g style="fill:#000000; fill-opacity:1.0; 
stroke:#000000; stroke-width:39.3701; stroke-opacity:1; 
stroke-linecap:round; stroke-linejoin:round;">
</g>
<g style="fill:#000000; fill-opacity:1.0; 
stroke:#000000; stroke-width:98.4252; stroke-opacity:1; 
stroke-linecap:round; stroke-linejoin:round;">
</g>
<g style="fill:#000000; fill-opacity:0.0; 
stroke:#000000; stroke-width:98.4252; stroke-opacity:1; 
stroke-linecap:round; stroke-linejoin:round;">
<path d="M52650 30600
L52650 30600
" />
<path d="M62200 31627
L62200 30750
" />
<path d="M62200 31850
L62200 31627
" />
<path d="M55950 32250
L55950 32450
" />
<path d="M55742 32042
L55950 32250
" />
<path d="M52600 30600
L54042 32042
" />
<path d="M54042 32042
L55742 32042
" />
<path d="M49200 30650
L48300 31550
" />
<path d="M50100 30650
L49200 30650
" />
<path d="M53700 32200
L53700 32550
" />
<path d="M52800 31300
L53700 32200
" />
<path d="M58300 29100
L58300 26700
" />
<path d="M54850 23250
L58300 26700
" />
<path d="M54200 23250
L54850 23250
" />
</g>
<g style="fill:#000000; fill-opacity:1.0; 
stroke:#000000; stroke-width:100; stroke-opacity:1; 
stroke-linecap:round; stroke-linejoin:round;">
<polyline style="fill-rule:evenodd;"
points="48300,21129
47414,22014
47403,22030
47400,22050
47400,26050
47403,26069
47414,26085
48214,26885
48230,26896
48250,26900
50300,26900
50300,28450
48300,28450
48280,28453
48264,28464
46914,29814
46903,29830
46900,29850
46900,32900
46903,32919
46914,32935
46930,32946
46950,32950
57400,32950
57419,32946
57435,32935
57446,32919
57450,32900
57450,31900
60700,31900
60700,34200
45500,34200
45500,19900
48300,19900
48300,21129
" /> 
<polyline style="fill-rule:evenodd;"
points="53950,25700
53100,25700
53080,25703
53064,25714
50329,28450
50050,28450
50050,26920
52470,24500
53950,24500
53950,25700
" /> 
<polyline style="fill-rule:evenodd;"
points="65700,41150
45500,41150
45500,38915
49966,38915
49966,39584
50222,40203
50696,40677
51315,40933
51984,40933
52042,40910
52142,41009
52471,41146
52828,41146
53157,41009
53409,40757
53546,40428
53546,40071
53409,39742
53310,39642
53333,39584
53333,38915
53966,38915
53966,39584
54222,40203
54696,40677
54890,40757
54890,40757
55142,41009
55471,41146
55828,41146
56157,41009
56409,40757
56409,40757
56603,40677
57077,40203
57132,40071
57753,40071
57753,40428
57890,40757
58142,41009
58471,41146
58828,41146
59157,41009
59257,40910
59315,40933
59984,40933
60603,40677
61077,40203
61333,39584
61333,38915
61077,38296
60603,37822
59984,37566
59315,37566
58696,37822
58222,38296
57966,38915
57966,39584
57989,39642
57890,39742
57753,40071
57132,40071
57333,39584
57333,38915
57077,38296
56603,37822
55984,37566
55315,37566
54696,37822
54222,38296
53966,38915
53333,38915
53077,38296
52603,37822
51984,37566
51315,37566
50696,37822
50222,38296
49966,38915
45500,38915
45500,34359
60750,34359
60791,34350
60827,34327
60850,34291
60859,34250
60859,31850
60850,31808
60827,31772
60791,31749
60750,31740
57400,31740
57358,31749
57322,31772
57299,31808
57290,31850
57290,32790
53814,32790
53850,32775
53925,32700
53966,32603
53966,32496
53925,32399
53858,32331
53858,32215
53861,32200
55600,32200
55600,32700
55603,32719
55614,32735
55630,32746
55650,32750
56250,32750
56269,32746
56285,32735
56296,32719
56300,32700
56300,32300
56296,32280
56285,32264
55885,31864
55869,31853
55850,31850
54070,31850
53850,31629
53850,29800
64547,29800
64582,29973
64680,30119
64826,30217
64956,30243
65043,30243
65173,30217
65319,30119
65417,29973
65452,29800
65417,29626
65319,29480
65173,29382
65043,29356
64956,29356
64826,29382
64680,29480
64582,29626
64547,29800
53850,29800
53850,25859
54000,25859
54041,25850
54077,25827
54100,25791
54109,25750
54109,24450
54100,24408
54077,24372
54041,24349
54000,24340
53850,24340
53850,23196
53933,23196
53933,23303
53974,23400
54049,23475
54146,23516
54253,23516
54350,23475
54418,23408
54784,23408
58141,26765
58141,28881
58074,28949
58033,29046
58033,29153
58074,29250
58123,29300
58074,29349
58033,29446
58033,29553
58074,29650
58149,29725
58246,29766
58353,29766
58450,29725
58525,29650
58566,29553
58566,29446
58525,29349
58476,29300
58525,29250
58566,29153
58566,29046
58525,28949
58458,28881
58458,28800
64547,28800
64582,28973
64680,29119
64826,29217
64956,29243
65043,29243
65173,29217
65319,29119
65417,28973
65452,28800
65417,28626
65319,28480
65173,28382
65043,28356
64956,28356
64826,28382
64680,28480
64582,28626
64547,28800
58458,28800
58458,27800
64547,27800
64582,27973
64680,28119
64826,28217
64956,28243
65043,28243
65173,28217
65319,28119
65417,27973
65452,27800
65417,27626
65319,27480
65173,27382
65043,27356
64956,27356
64826,27382
64680,27480
64582,27626
64547,27800
58458,27800
58458,26800
64547,26800
64582,26973
64680,27119
64826,27217
64956,27243
65043,27243
65173,27217
65319,27119
65417,26973
65452,26800
65417,26626
65319,26480
65173,26382
65043,26356
64956,26356
64826,26382
64680,26480
64582,26626
64547,26800
58458,26800
58458,26715
58461,26699
58458,26684
58458,26684
58449,26638
58414,26585
58400,26577
57623,25800
64547,25800
64582,25973
64680,26119
64826,26217
64956,26243
65043,26243
65173,26217
65319,26119
65417,25973
65452,25800
65417,25626
65319,25480
65173,25382
65043,25356
64956,25356
64826,25382
64680,25480
64582,25626
64547,25800
57623,25800
56623,24800
64547,24800
64582,24973
64680,25119
64826,25217
64956,25243
65043,25243
65173,25217
65319,25119
65417,24973
65452,24800
65417,24626
65319,24480
65173,24382
65043,24356
64956,24356
64826,24382
64680,24480
64582,24626
64547,24800
56623,24800
55623,23800
64547,23800
64582,23973
64680,24119
64826,24217
64956,24243
65043,24243
65173,24217
65319,24119
65417,23973
65452,23800
65417,23626
65319,23480
65173,23382
65043,23356
64956,23356
64826,23382
64680,23480
64582,23626
64547,23800
55623,23800
54972,23149
54964,23135
54911,23100
54865,23091
54865,23091
54850,23088
54834,23091
54418,23091
54350,23024
54253,22983
54146,22983
54049,23024
53974,23099
53933,23196
53850,23196
53850,22465
64554,22465
64554,23134
64562,23177
64586,23213
64622,23237
64665,23245
65334,23245
65377,23237
65413,23213
65437,23177
65445,23134
65445,22465
65437,22422
65413,22386
65377,22362
65334,22354
64665,22354
64622,22362
64586,22386
64562,22422
64554,22465
53850,22465
53850,21676
53979,21676
53979,21923
54073,22151
54248,22326
54476,22420
54723,22420
54951,22326
55126,22151
55220,21923
55220,21676
55947,21676
55947,21923
56042,22151
56216,22326
56445,22420
56692,22420
56920,22326
57094,22151
57189,21923
57189,21676
57094,21448
56920,21273
56692,21179
56445,21179
56216,21273
56042,21448
55947,21676
55220,21676
55126,21448
54951,21273
54723,21179
54476,21179
54248,21273
54073,21448
53979,21676
53850,21676
53850,20265
57554,20265
57554,20934
57562,20977
57586,21013
57622,21037
57665,21045
58334,21045
58377,21037
58413,21013
58437,20977
58445,20934
58445,20600
58547,20600
58582,20773
58680,20919
58826,21017
58956,21043
59043,21043
59173,21017
59319,20919
59417,20773
59452,20600
59547,20600
59582,20773
59680,20919
59826,21017
59956,21043
60043,21043
60173,21017
60319,20919
60417,20773
60452,20600
60547,20600
60582,20773
60680,20919
60826,21017
60956,21043
61043,21043
61173,21017
61319,20919
61417,20773
61452,20600
61547,20600
61582,20773
61680,20919
61826,21017
61956,21043
62043,21043
62173,21017
62319,20919
62417,20773
62452,20600
62547,20600
62582,20773
62680,20919
62826,21017
62956,21043
63043,21043
63173,21017
63319,20919
63417,20773
63452,20600
63547,20600
63582,20773
63680,20919
63826,21017
63956,21043
64043,21043
64173,21017
64319,20919
64417,20773
64452,20600
64547,20600
64582,20773
64680,20919
64826,21017
64956,21043
65043,21043
65173,21017
65319,20919
65417,20773
65452,20600
65417,20426
65319,20280
65173,20182
65043,20156
64956,20156
64826,20182
64680,20280
64582,20426
64547,20600
64452,20600
64417,20426
64319,20280
64173,20182
64043,20156
63956,20156
63826,20182
63680,20280
63582,20426
63547,20600
63452,20600
63417,20426
63319,20280
63173,20182
63043,20156
62956,20156
62826,20182
62680,20280
62582,20426
62547,20600
62452,20600
62417,20426
62319,20280
62173,20182
62043,20156
61956,20156
61826,20182
61680,20280
61582,20426
61547,20600
61452,20600
61417,20426
61319,20280
61173,20182
61043,20156
60956,20156
60826,20182
60680,20280
60582,20426
60547,20600
60452,20600
60417,20426
60319,20280
60173,20182
60043,20156
59956,20156
59826,20182
59680,20280
59582,20426
59547,20600
59452,20600
59417,20426
59319,20280
59173,20182
59043,20156
58956,20156
58826,20182
58680,20280
58582,20426
58547,20600
58445,20600
58445,20265
58437,20222
58413,20186
58377,20162
58334,20154
57665,20154
57622,20162
57586,20186
57562,20222
57554,20265
53850,20265
53850,19900
65700,19900
65700,41150
" /> 
<polyline style="fill-rule:evenodd;"
points="50250,30350
49100,30350
49080,30353
49065,30363
48015,31363
48004,31379
48000,31400
48000,31800
48003,31819
48014,31835
48030,31846
48050,31850
48600,31850
48619,31846
48635,31835
48646,31819
48650,31800
48650,31570
49270,30950
50350,30950
50369,30946
50385,30935
50396,30919
50400,30900
50400,30400
52329,30400
52314,30414
52303,30430
52300,30450
52300,30750
52303,30769
52314,30785
52514,30985
52530,30996
52550,31000
52550,31123
52524,31149
52483,31246
52483,31353
52524,31450
52599,31525
52696,31566
52745,31566
53364,32185
53380,32196
53400,32200
53476,32200
53541,32265
53541,32331
53474,32399
53433,32496
53433,32603
53474,32700
53549,32775
53585,32790
47059,32790
47059,29895
48345,28609
50250,28609
50250,30350
" /> 
<polyline style="fill-rule:evenodd;"
points="50250,26495
50004,26740
48295,26740
47559,26004
47559,22095
48427,21227
48450,21191
48459,21150
48459,19900
50250,19900
50250,26495
" /> 
<polyline style="fill-rule:evenodd;"
points="53850,30350
49850,30350
49850,28609
50350,28609
50391,28600
50427,28577
53145,25859
53850,25859
53850,30350
" /> 
<polyline style="fill-rule:evenodd;"
points="53850,24340
52450,24340
52408,24349
52372,24372
50004,26740
49850,26740
49850,19900
53850,19900
53850,24340
" /> 
<polyline style="fill-rule:evenodd;"
points="53850,31629
52850,30629
52850,30350
53850,30350
53850,31629
" /> 
</g> 
</svg>
