G04 #@! TF.GenerationSoftware,KiCad,Pcbnew,(5.0.2)-1*
G04 #@! TF.CreationDate,2019-09-03T00:43:36+08:00*
G04 #@! TF.ProjectId,actuator,61637475-6174-46f7-922e-6b696361645f,rev?*
G04 #@! TF.SameCoordinates,Original*
G04 #@! TF.FileFunction,Copper,L2,Bot*
G04 #@! TF.FilePolarity,Positive*
%FSLAX46Y46*%
G04 Gerber Fmt 4.6, Leading zero omitted, Abs format (unit mm)*
G04 Created by KiCad (PCBNEW (5.0.2)-1) date 9/3/2019 12:43:36 AM*
%MOMM*%
%LPD*%
G01*
G04 APERTURE LIST*
G04 #@! TA.AperFunction,Conductor*
%ADD10C,0.100000*%
G04 #@! TD*
G04 #@! TA.AperFunction,Conductor*
%ADD11C,4.500000*%
G04 #@! TD*
G04 #@! TA.AperFunction,ViaPad*
%ADD12C,0.500000*%
G04 #@! TD*
G04 #@! TA.AperFunction,ComponentPad*
%ADD13C,8.000000*%
G04 #@! TD*
G04 #@! TA.AperFunction,ComponentPad*
%ADD14C,4.000000*%
G04 #@! TD*
G04 #@! TA.AperFunction,ComponentPad*
%ADD15C,2.100000*%
G04 #@! TD*
G04 #@! TA.AperFunction,ComponentPad*
%ADD16O,2.100000X3.600000*%
G04 #@! TD*
G04 #@! TA.AperFunction,ComponentPad*
%ADD17O,1.700000X1.700000*%
G04 #@! TD*
G04 #@! TA.AperFunction,ComponentPad*
%ADD18R,1.700000X1.700000*%
G04 #@! TD*
G04 #@! TA.AperFunction,ComponentPad*
%ADD19C,2.600000*%
G04 #@! TD*
G04 #@! TA.AperFunction,ViaPad*
%ADD20C,0.800000*%
G04 #@! TD*
G04 #@! TA.AperFunction,Conductor*
%ADD21C,0.250000*%
G04 #@! TD*
G04 #@! TA.AperFunction,Conductor*
%ADD22C,0.254000*%
G04 #@! TD*
G04 APERTURE END LIST*
D10*
G04 #@! TO.N,SNA*
G04 #@! TO.C,U1*
G36*
X138548025Y-68698748D02*
X138572488Y-68702377D01*
X138596476Y-68708386D01*
X138619761Y-68716717D01*
X138642117Y-68727291D01*
X138663328Y-68740004D01*
X138683191Y-68754736D01*
X138701515Y-68771344D01*
X138718123Y-68789668D01*
X138732855Y-68809531D01*
X138745568Y-68830742D01*
X138756142Y-68853098D01*
X138764473Y-68876383D01*
X138770482Y-68900371D01*
X138774111Y-68924834D01*
X138775324Y-68949534D01*
X138775324Y-72945536D01*
X138774111Y-72970236D01*
X138770482Y-72994699D01*
X138764473Y-73018687D01*
X138756142Y-73041972D01*
X138745568Y-73064328D01*
X138732855Y-73085539D01*
X138718123Y-73105402D01*
X138701515Y-73123726D01*
X138683191Y-73140334D01*
X138663328Y-73155066D01*
X138642117Y-73167779D01*
X138619761Y-73178353D01*
X138596476Y-73186684D01*
X138572488Y-73192693D01*
X138548025Y-73196322D01*
X138523325Y-73197535D01*
X134527323Y-73197535D01*
X134502623Y-73196322D01*
X134478160Y-73192693D01*
X134454172Y-73186684D01*
X134430887Y-73178353D01*
X134408531Y-73167779D01*
X134387320Y-73155066D01*
X134367457Y-73140334D01*
X134349133Y-73123726D01*
X134332525Y-73105402D01*
X134317793Y-73085539D01*
X134305080Y-73064328D01*
X134294506Y-73041972D01*
X134286175Y-73018687D01*
X134280166Y-72994699D01*
X134276537Y-72970236D01*
X134275324Y-72945536D01*
X134275324Y-68949534D01*
X134276537Y-68924834D01*
X134280166Y-68900371D01*
X134286175Y-68876383D01*
X134294506Y-68853098D01*
X134305080Y-68830742D01*
X134317793Y-68809531D01*
X134332525Y-68789668D01*
X134349133Y-68771344D01*
X134367457Y-68754736D01*
X134387320Y-68740004D01*
X134408531Y-68727291D01*
X134430887Y-68716717D01*
X134454172Y-68708386D01*
X134478160Y-68702377D01*
X134502623Y-68698748D01*
X134527323Y-68697535D01*
X138523325Y-68697535D01*
X138548025Y-68698748D01*
X138548025Y-68698748D01*
G37*
D11*
X136525324Y-70947535D03*
D12*
X138525324Y-72947535D03*
X137525324Y-72947535D03*
X136525324Y-72947536D03*
X135525324Y-72947535D03*
X134525324Y-72947535D03*
X138525324Y-71947535D03*
X137525324Y-71947535D03*
X136525324Y-71947535D03*
X135525324Y-71947535D03*
X134525324Y-71947535D03*
X138525325Y-70947535D03*
X137525324Y-70947535D03*
X136525324Y-70947535D03*
X135525324Y-70947535D03*
X134525323Y-70947535D03*
X138525324Y-69947535D03*
X137525324Y-69947535D03*
X136525324Y-69947535D03*
X135525324Y-69947535D03*
X134525324Y-69947535D03*
X138525324Y-68947535D03*
X137525324Y-68947535D03*
X136525324Y-68947534D03*
X135525324Y-68947535D03*
X134525324Y-68947535D03*
G04 #@! TD*
D13*
G04 #@! TO.P,J1,3*
G04 #@! TO.N,C_OUT*
X151511000Y-99695000D03*
G04 #@! TO.P,J1,2*
G04 #@! TO.N,B_OUT*
X141351000Y-99695000D03*
G04 #@! TO.P,J1,1*
G04 #@! TO.N,A_OUT*
X131191000Y-99695000D03*
D14*
X133731000Y-102235000D03*
G04 #@! TO.P,J1,2*
G04 #@! TO.N,B_OUT*
X141351000Y-102235000D03*
G04 #@! TO.P,J1,3*
G04 #@! TO.N,C_OUT*
X148971000Y-102235000D03*
G04 #@! TD*
D10*
G04 #@! TO.N,SNA*
G04 #@! TO.C,J2*
G36*
X128304814Y-51410001D02*
X128329083Y-51413601D01*
X128352881Y-51419562D01*
X128375981Y-51427827D01*
X128398159Y-51438317D01*
X128419203Y-51450930D01*
X128438908Y-51465544D01*
X128457087Y-51482020D01*
X128473563Y-51500199D01*
X128488177Y-51519904D01*
X128500790Y-51540948D01*
X128511280Y-51563126D01*
X128519545Y-51586226D01*
X128525506Y-51610024D01*
X128529106Y-51634293D01*
X128530310Y-51658797D01*
X128530310Y-54758797D01*
X128529106Y-54783301D01*
X128525506Y-54807570D01*
X128519545Y-54831368D01*
X128511280Y-54854468D01*
X128500790Y-54876646D01*
X128488177Y-54897690D01*
X128473563Y-54917395D01*
X128457087Y-54935574D01*
X128438908Y-54952050D01*
X128419203Y-54966664D01*
X128398159Y-54979277D01*
X128375981Y-54989767D01*
X128352881Y-54998032D01*
X128329083Y-55003993D01*
X128304814Y-55007593D01*
X128280310Y-55008797D01*
X126680310Y-55008797D01*
X126655806Y-55007593D01*
X126631537Y-55003993D01*
X126607739Y-54998032D01*
X126584639Y-54989767D01*
X126562461Y-54979277D01*
X126541417Y-54966664D01*
X126521712Y-54952050D01*
X126503533Y-54935574D01*
X126487057Y-54917395D01*
X126472443Y-54897690D01*
X126459830Y-54876646D01*
X126449340Y-54854468D01*
X126441075Y-54831368D01*
X126435114Y-54807570D01*
X126431514Y-54783301D01*
X126430310Y-54758797D01*
X126430310Y-51658797D01*
X126431514Y-51634293D01*
X126435114Y-51610024D01*
X126441075Y-51586226D01*
X126449340Y-51563126D01*
X126459830Y-51540948D01*
X126472443Y-51519904D01*
X126487057Y-51500199D01*
X126503533Y-51482020D01*
X126521712Y-51465544D01*
X126541417Y-51450930D01*
X126562461Y-51438317D01*
X126584639Y-51427827D01*
X126607739Y-51419562D01*
X126631537Y-51413601D01*
X126655806Y-51410001D01*
X126680310Y-51408797D01*
X128280310Y-51408797D01*
X128304814Y-51410001D01*
X128304814Y-51410001D01*
G37*
D15*
G04 #@! TD*
G04 #@! TO.P,J2,1*
G04 #@! TO.N,SNA*
X127480310Y-53208797D03*
D16*
G04 #@! TO.P,J2,2*
G04 #@! TO.N,VDRAIN*
X119860310Y-53208797D03*
G04 #@! TD*
D17*
G04 #@! TO.P,J3,8*
G04 #@! TO.N,ENABLE*
X165100000Y-52324000D03*
G04 #@! TO.P,J3,7*
G04 #@! TO.N,DVDD*
X162560000Y-52324000D03*
G04 #@! TO.P,J3,6*
G04 #@! TO.N,INHA*
X160020000Y-52324000D03*
G04 #@! TO.P,J3,5*
G04 #@! TO.N,INLA*
X157480000Y-52324000D03*
G04 #@! TO.P,J3,4*
G04 #@! TO.N,INHB*
X154940000Y-52324000D03*
G04 #@! TO.P,J3,3*
G04 #@! TO.N,INLB*
X152400000Y-52324000D03*
G04 #@! TO.P,J3,2*
G04 #@! TO.N,INHC*
X149860000Y-52324000D03*
D18*
G04 #@! TO.P,J3,1*
G04 #@! TO.N,INLC*
X147320000Y-52324000D03*
G04 #@! TD*
G04 #@! TO.P,J4,1*
G04 #@! TO.N,nSCS*
X165100000Y-57912000D03*
D17*
G04 #@! TO.P,J4,2*
G04 #@! TO.N,SCLK*
X165100000Y-60452000D03*
G04 #@! TO.P,J4,3*
G04 #@! TO.N,SDI*
X165100000Y-62992000D03*
G04 #@! TO.P,J4,4*
G04 #@! TO.N,SDO*
X165100000Y-65532000D03*
G04 #@! TO.P,J4,5*
G04 #@! TO.N,nFAULT*
X165100000Y-68072000D03*
G04 #@! TO.P,J4,6*
G04 #@! TO.N,SOA*
X165100000Y-70612000D03*
G04 #@! TO.P,J4,7*
G04 #@! TO.N,SOB*
X165100000Y-73152000D03*
G04 #@! TO.P,J4,8*
G04 #@! TO.N,SOC*
X165100000Y-75692000D03*
G04 #@! TD*
D19*
G04 #@! TO.P,L1,1*
G04 #@! TO.N,VAA*
X138684000Y-55372000D03*
G04 #@! TO.P,L1,2*
G04 #@! TO.N,Net-(C5-Pad2)*
X143684000Y-55372000D03*
G04 #@! TD*
D20*
G04 #@! TO.N,SNA*
X129794000Y-78994000D03*
X131572000Y-81407000D03*
X120650000Y-78740000D03*
X122682000Y-80137000D03*
X155448000Y-81153000D03*
X157988000Y-77978000D03*
X127254000Y-77851000D03*
X157988000Y-80645000D03*
X133477000Y-77724000D03*
X149860000Y-68326000D03*
X145161000Y-68326000D03*
X143383000Y-73787000D03*
X126377700Y-62090300D03*
X126365000Y-57264300D03*
X126365000Y-66167000D03*
X162941000Y-78613000D03*
X152781000Y-76962000D03*
X159893000Y-69342000D03*
X145923000Y-58801000D03*
X132588000Y-53086000D03*
X142113000Y-82423000D03*
X144399000Y-81534000D03*
G04 #@! TO.N,VDRAIN*
X150368000Y-82804000D03*
X150368000Y-81788000D03*
X150368000Y-83820000D03*
X144780000Y-84963000D03*
X145796000Y-84963000D03*
X135763000Y-63881000D03*
X125603000Y-70485000D03*
X117182900Y-64858900D03*
X117221000Y-74803000D03*
G04 #@! TO.N,SPB*
X133985000Y-79502000D03*
X136398000Y-82677000D03*
G04 #@! TO.N,VAA*
X137668000Y-59055000D03*
X148082000Y-73914000D03*
X148082000Y-74930000D03*
G04 #@! TD*
D21*
G04 #@! TO.N,SNA*
X133731000Y-77724000D02*
X133731000Y-77724000D01*
X157988000Y-80333315D02*
X157988000Y-78105000D01*
X157988000Y-80899000D02*
X157988000Y-80333315D01*
X142113000Y-81915000D02*
X142113000Y-82423000D01*
X141586001Y-81388001D02*
X142113000Y-81915000D01*
X133604000Y-77724000D02*
X137268001Y-81388001D01*
X137268001Y-81388001D02*
X141586001Y-81388001D01*
X124968000Y-77851000D02*
X122682000Y-80137000D01*
X127254000Y-77851000D02*
X124968000Y-77851000D01*
G04 #@! TO.N,SPB*
X136398000Y-81788000D02*
X136398000Y-82677000D01*
X134112000Y-79502000D02*
X136398000Y-81788000D01*
G04 #@! TO.N,VAA*
X148082000Y-73914000D02*
X148082000Y-67818000D01*
X139319000Y-59055000D02*
X148082000Y-67818000D01*
X137668000Y-59055000D02*
X139319000Y-59055000D01*
G04 #@! TD*
D22*
G04 #@! TO.N,VDRAIN*
G36*
X122682000Y-53668394D02*
X120433197Y-55917197D01*
X120405667Y-55958399D01*
X120396000Y-56007000D01*
X120396000Y-66167000D01*
X120405667Y-66215601D01*
X120433197Y-66256803D01*
X122465197Y-68288803D01*
X122506399Y-68316333D01*
X122555000Y-68326000D01*
X127762000Y-68326000D01*
X127762000Y-72263000D01*
X122682000Y-72263000D01*
X122633399Y-72272667D01*
X122592197Y-72300197D01*
X119163197Y-75729197D01*
X119135667Y-75770399D01*
X119126000Y-75819000D01*
X119126000Y-83566000D01*
X119135667Y-83614601D01*
X119163197Y-83655803D01*
X119204399Y-83683333D01*
X119253000Y-83693000D01*
X145796000Y-83693000D01*
X145844601Y-83683333D01*
X145885803Y-83655803D01*
X145913333Y-83614601D01*
X145923000Y-83566000D01*
X145923000Y-81026000D01*
X154178000Y-81026000D01*
X154178000Y-86868000D01*
X115570000Y-86868000D01*
X115570000Y-50546000D01*
X122682000Y-50546000D01*
X122682000Y-53668394D01*
X122682000Y-53668394D01*
G37*
X122682000Y-53668394D02*
X120433197Y-55917197D01*
X120405667Y-55958399D01*
X120396000Y-56007000D01*
X120396000Y-66167000D01*
X120405667Y-66215601D01*
X120433197Y-66256803D01*
X122465197Y-68288803D01*
X122506399Y-68316333D01*
X122555000Y-68326000D01*
X127762000Y-68326000D01*
X127762000Y-72263000D01*
X122682000Y-72263000D01*
X122633399Y-72272667D01*
X122592197Y-72300197D01*
X119163197Y-75729197D01*
X119135667Y-75770399D01*
X119126000Y-75819000D01*
X119126000Y-83566000D01*
X119135667Y-83614601D01*
X119163197Y-83655803D01*
X119204399Y-83683333D01*
X119253000Y-83693000D01*
X145796000Y-83693000D01*
X145844601Y-83683333D01*
X145885803Y-83655803D01*
X145913333Y-83614601D01*
X145923000Y-83566000D01*
X145923000Y-81026000D01*
X154178000Y-81026000D01*
X154178000Y-86868000D01*
X115570000Y-86868000D01*
X115570000Y-50546000D01*
X122682000Y-50546000D01*
X122682000Y-53668394D01*
G36*
X137033000Y-65278000D02*
X134874000Y-65278000D01*
X134825399Y-65287667D01*
X134784197Y-65315197D01*
X127836394Y-72263000D01*
X127127000Y-72263000D01*
X127127000Y-68378606D01*
X133275606Y-62230000D01*
X137033000Y-62230000D01*
X137033000Y-65278000D01*
X137033000Y-65278000D01*
G37*
X137033000Y-65278000D02*
X134874000Y-65278000D01*
X134825399Y-65287667D01*
X134784197Y-65315197D01*
X127836394Y-72263000D01*
X127127000Y-72263000D01*
X127127000Y-68378606D01*
X133275606Y-62230000D01*
X137033000Y-62230000D01*
X137033000Y-65278000D01*
G04 #@! TO.N,SNA*
G36*
X166878000Y-104521000D02*
X115570000Y-104521000D01*
X115570000Y-98844252D01*
X126914000Y-98844252D01*
X126914000Y-100545748D01*
X127565135Y-102117726D01*
X128768274Y-103320865D01*
X130340252Y-103972000D01*
X132041748Y-103972000D01*
X132187474Y-103911638D01*
X132441183Y-104165347D01*
X133278077Y-104512000D01*
X134183923Y-104512000D01*
X135020817Y-104165347D01*
X135661347Y-103524817D01*
X136008000Y-102687923D01*
X136008000Y-101782077D01*
X135661347Y-100945183D01*
X135407638Y-100691474D01*
X135468000Y-100545748D01*
X135468000Y-98844252D01*
X137074000Y-98844252D01*
X137074000Y-100545748D01*
X137725135Y-102117726D01*
X138928274Y-103320865D01*
X139420652Y-103524815D01*
X139420653Y-103524817D01*
X140061183Y-104165347D01*
X140898077Y-104512000D01*
X141803923Y-104512000D01*
X142640817Y-104165347D01*
X143281347Y-103524817D01*
X143281348Y-103524815D01*
X143773726Y-103320865D01*
X144976865Y-102117726D01*
X145115895Y-101782077D01*
X146694000Y-101782077D01*
X146694000Y-102687923D01*
X147040653Y-103524817D01*
X147681183Y-104165347D01*
X148518077Y-104512000D01*
X149423923Y-104512000D01*
X150260817Y-104165347D01*
X150514526Y-103911638D01*
X150660252Y-103972000D01*
X152361748Y-103972000D01*
X153933726Y-103320865D01*
X155136865Y-102117726D01*
X155788000Y-100545748D01*
X155788000Y-98844252D01*
X155136865Y-97272274D01*
X153933726Y-96069135D01*
X152361748Y-95418000D01*
X150660252Y-95418000D01*
X149088274Y-96069135D01*
X147885135Y-97272274D01*
X147234000Y-98844252D01*
X147234000Y-100545748D01*
X147294362Y-100691474D01*
X147040653Y-100945183D01*
X146694000Y-101782077D01*
X145115895Y-101782077D01*
X145628000Y-100545748D01*
X145628000Y-98844252D01*
X144976865Y-97272274D01*
X143773726Y-96069135D01*
X142201748Y-95418000D01*
X140500252Y-95418000D01*
X138928274Y-96069135D01*
X137725135Y-97272274D01*
X137074000Y-98844252D01*
X135468000Y-98844252D01*
X134816865Y-97272274D01*
X133613726Y-96069135D01*
X132041748Y-95418000D01*
X130340252Y-95418000D01*
X128768274Y-96069135D01*
X127565135Y-97272274D01*
X126914000Y-98844252D01*
X115570000Y-98844252D01*
X115570000Y-87272000D01*
X154305000Y-87272000D01*
X154411003Y-87250915D01*
X154500869Y-87190869D01*
X154560915Y-87101003D01*
X154582000Y-86995000D01*
X154582000Y-80899000D01*
X154560915Y-80792997D01*
X154500869Y-80703131D01*
X154411003Y-80643085D01*
X154305000Y-80622000D01*
X145796000Y-80622000D01*
X145689997Y-80643085D01*
X145600131Y-80703131D01*
X145540085Y-80792997D01*
X145519000Y-80899000D01*
X145519000Y-83289000D01*
X136689588Y-83289000D01*
X136781490Y-83250933D01*
X136971933Y-83060490D01*
X137075000Y-82811664D01*
X137075000Y-82542336D01*
X136971933Y-82293510D01*
X136800000Y-82121577D01*
X136800000Y-81827584D01*
X136807874Y-81788000D01*
X141224000Y-81788000D01*
X141224000Y-83058000D01*
X141233667Y-83106601D01*
X141261197Y-83147803D01*
X141302399Y-83175333D01*
X141351000Y-83185000D01*
X142875000Y-83185000D01*
X142923601Y-83175333D01*
X142964803Y-83147803D01*
X142992333Y-83106601D01*
X143002000Y-83058000D01*
X143002000Y-82042000D01*
X142992333Y-81993399D01*
X142964803Y-81952197D01*
X141948803Y-80936197D01*
X141907601Y-80908667D01*
X141859000Y-80899000D01*
X137339606Y-80899000D01*
X136779000Y-80338394D01*
X136779000Y-75692000D01*
X163950921Y-75692000D01*
X164038389Y-76131733D01*
X164287478Y-76504522D01*
X164660267Y-76753611D01*
X164989001Y-76819000D01*
X165210999Y-76819000D01*
X165539733Y-76753611D01*
X165912522Y-76504522D01*
X166161611Y-76131733D01*
X166249079Y-75692000D01*
X166161611Y-75252267D01*
X165912522Y-74879478D01*
X165539733Y-74630389D01*
X165210999Y-74565000D01*
X164989001Y-74565000D01*
X164660267Y-74630389D01*
X164287478Y-74879478D01*
X164038389Y-75252267D01*
X163950921Y-75692000D01*
X136779000Y-75692000D01*
X136779000Y-65682000D01*
X137160000Y-65682000D01*
X137266003Y-65660915D01*
X137355869Y-65600869D01*
X137415915Y-65511003D01*
X137437000Y-65405000D01*
X137437000Y-62103000D01*
X137415915Y-61996997D01*
X137355869Y-61907131D01*
X137266003Y-61847085D01*
X137160000Y-61826000D01*
X136779000Y-61826000D01*
X136779000Y-58920336D01*
X136991000Y-58920336D01*
X136991000Y-59189664D01*
X137094067Y-59438490D01*
X137284510Y-59628933D01*
X137533336Y-59732000D01*
X137802664Y-59732000D01*
X138051490Y-59628933D01*
X138223423Y-59457000D01*
X139152487Y-59457000D01*
X147680001Y-67984514D01*
X147680000Y-73358577D01*
X147508067Y-73530510D01*
X147405000Y-73779336D01*
X147405000Y-74048664D01*
X147508067Y-74297490D01*
X147632577Y-74422000D01*
X147508067Y-74546510D01*
X147405000Y-74795336D01*
X147405000Y-75064664D01*
X147508067Y-75313490D01*
X147698510Y-75503933D01*
X147947336Y-75607000D01*
X148216664Y-75607000D01*
X148465490Y-75503933D01*
X148655933Y-75313490D01*
X148759000Y-75064664D01*
X148759000Y-74795336D01*
X148655933Y-74546510D01*
X148531423Y-74422000D01*
X148655933Y-74297490D01*
X148759000Y-74048664D01*
X148759000Y-73779336D01*
X148655933Y-73530510D01*
X148484000Y-73358577D01*
X148484000Y-73152000D01*
X163950921Y-73152000D01*
X164038389Y-73591733D01*
X164287478Y-73964522D01*
X164660267Y-74213611D01*
X164989001Y-74279000D01*
X165210999Y-74279000D01*
X165539733Y-74213611D01*
X165912522Y-73964522D01*
X166161611Y-73591733D01*
X166249079Y-73152000D01*
X166161611Y-72712267D01*
X165912522Y-72339478D01*
X165539733Y-72090389D01*
X165210999Y-72025000D01*
X164989001Y-72025000D01*
X164660267Y-72090389D01*
X164287478Y-72339478D01*
X164038389Y-72712267D01*
X163950921Y-73152000D01*
X148484000Y-73152000D01*
X148484000Y-70612000D01*
X163950921Y-70612000D01*
X164038389Y-71051733D01*
X164287478Y-71424522D01*
X164660267Y-71673611D01*
X164989001Y-71739000D01*
X165210999Y-71739000D01*
X165539733Y-71673611D01*
X165912522Y-71424522D01*
X166161611Y-71051733D01*
X166249079Y-70612000D01*
X166161611Y-70172267D01*
X165912522Y-69799478D01*
X165539733Y-69550389D01*
X165210999Y-69485000D01*
X164989001Y-69485000D01*
X164660267Y-69550389D01*
X164287478Y-69799478D01*
X164038389Y-70172267D01*
X163950921Y-70612000D01*
X148484000Y-70612000D01*
X148484000Y-68072000D01*
X163950921Y-68072000D01*
X164038389Y-68511733D01*
X164287478Y-68884522D01*
X164660267Y-69133611D01*
X164989001Y-69199000D01*
X165210999Y-69199000D01*
X165539733Y-69133611D01*
X165912522Y-68884522D01*
X166161611Y-68511733D01*
X166249079Y-68072000D01*
X166161611Y-67632267D01*
X165912522Y-67259478D01*
X165539733Y-67010389D01*
X165210999Y-66945000D01*
X164989001Y-66945000D01*
X164660267Y-67010389D01*
X164287478Y-67259478D01*
X164038389Y-67632267D01*
X163950921Y-68072000D01*
X148484000Y-68072000D01*
X148484000Y-67857584D01*
X148491874Y-67817999D01*
X148484000Y-67778414D01*
X148484000Y-67778410D01*
X148460675Y-67661148D01*
X148371825Y-67528175D01*
X148338262Y-67505749D01*
X146364513Y-65532000D01*
X163950921Y-65532000D01*
X164038389Y-65971733D01*
X164287478Y-66344522D01*
X164660267Y-66593611D01*
X164989001Y-66659000D01*
X165210999Y-66659000D01*
X165539733Y-66593611D01*
X165912522Y-66344522D01*
X166161611Y-65971733D01*
X166249079Y-65532000D01*
X166161611Y-65092267D01*
X165912522Y-64719478D01*
X165539733Y-64470389D01*
X165210999Y-64405000D01*
X164989001Y-64405000D01*
X164660267Y-64470389D01*
X164287478Y-64719478D01*
X164038389Y-65092267D01*
X163950921Y-65532000D01*
X146364513Y-65532000D01*
X143824513Y-62992000D01*
X163950921Y-62992000D01*
X164038389Y-63431733D01*
X164287478Y-63804522D01*
X164660267Y-64053611D01*
X164989001Y-64119000D01*
X165210999Y-64119000D01*
X165539733Y-64053611D01*
X165912522Y-63804522D01*
X166161611Y-63431733D01*
X166249079Y-62992000D01*
X166161611Y-62552267D01*
X165912522Y-62179478D01*
X165539733Y-61930389D01*
X165210999Y-61865000D01*
X164989001Y-61865000D01*
X164660267Y-61930389D01*
X164287478Y-62179478D01*
X164038389Y-62552267D01*
X163950921Y-62992000D01*
X143824513Y-62992000D01*
X141284513Y-60452000D01*
X163950921Y-60452000D01*
X164038389Y-60891733D01*
X164287478Y-61264522D01*
X164660267Y-61513611D01*
X164989001Y-61579000D01*
X165210999Y-61579000D01*
X165539733Y-61513611D01*
X165912522Y-61264522D01*
X166161611Y-60891733D01*
X166249079Y-60452000D01*
X166161611Y-60012267D01*
X165912522Y-59639478D01*
X165539733Y-59390389D01*
X165210999Y-59325000D01*
X164989001Y-59325000D01*
X164660267Y-59390389D01*
X164287478Y-59639478D01*
X164038389Y-60012267D01*
X163950921Y-60452000D01*
X141284513Y-60452000D01*
X139631251Y-58798738D01*
X139608825Y-58765175D01*
X139475852Y-58676325D01*
X139358590Y-58653000D01*
X139358585Y-58653000D01*
X139319000Y-58645126D01*
X139279415Y-58653000D01*
X138223423Y-58653000D01*
X138051490Y-58481067D01*
X137802664Y-58378000D01*
X137533336Y-58378000D01*
X137284510Y-58481067D01*
X137094067Y-58671510D01*
X136991000Y-58920336D01*
X136779000Y-58920336D01*
X136779000Y-57062000D01*
X163967574Y-57062000D01*
X163967574Y-58762000D01*
X163989072Y-58870080D01*
X164050295Y-58961705D01*
X164141920Y-59022928D01*
X164250000Y-59044426D01*
X165950000Y-59044426D01*
X166058080Y-59022928D01*
X166149705Y-58961705D01*
X166210928Y-58870080D01*
X166232426Y-58762000D01*
X166232426Y-57062000D01*
X166210928Y-56953920D01*
X166149705Y-56862295D01*
X166058080Y-56801072D01*
X165950000Y-56779574D01*
X164250000Y-56779574D01*
X164141920Y-56801072D01*
X164050295Y-56862295D01*
X163989072Y-56953920D01*
X163967574Y-57062000D01*
X136779000Y-57062000D01*
X136779000Y-55058315D01*
X137107000Y-55058315D01*
X137107000Y-55685685D01*
X137347084Y-56265299D01*
X137790701Y-56708916D01*
X138370315Y-56949000D01*
X138997685Y-56949000D01*
X139577299Y-56708916D01*
X140020916Y-56265299D01*
X140261000Y-55685685D01*
X140261000Y-55058315D01*
X142107000Y-55058315D01*
X142107000Y-55685685D01*
X142347084Y-56265299D01*
X142790701Y-56708916D01*
X143370315Y-56949000D01*
X143997685Y-56949000D01*
X144577299Y-56708916D01*
X145020916Y-56265299D01*
X145261000Y-55685685D01*
X145261000Y-55058315D01*
X145020916Y-54478701D01*
X144577299Y-54035084D01*
X143997685Y-53795000D01*
X143370315Y-53795000D01*
X142790701Y-54035084D01*
X142347084Y-54478701D01*
X142107000Y-55058315D01*
X140261000Y-55058315D01*
X140020916Y-54478701D01*
X139577299Y-54035084D01*
X138997685Y-53795000D01*
X138370315Y-53795000D01*
X137790701Y-54035084D01*
X137347084Y-54478701D01*
X137107000Y-55058315D01*
X136779000Y-55058315D01*
X136779000Y-51474000D01*
X146187574Y-51474000D01*
X146187574Y-53174000D01*
X146209072Y-53282080D01*
X146270295Y-53373705D01*
X146361920Y-53434928D01*
X146470000Y-53456426D01*
X148170000Y-53456426D01*
X148278080Y-53434928D01*
X148369705Y-53373705D01*
X148430928Y-53282080D01*
X148452426Y-53174000D01*
X148452426Y-52324000D01*
X148710921Y-52324000D01*
X148798389Y-52763733D01*
X149047478Y-53136522D01*
X149420267Y-53385611D01*
X149749001Y-53451000D01*
X149970999Y-53451000D01*
X150299733Y-53385611D01*
X150672522Y-53136522D01*
X150921611Y-52763733D01*
X151009079Y-52324000D01*
X151250921Y-52324000D01*
X151338389Y-52763733D01*
X151587478Y-53136522D01*
X151960267Y-53385611D01*
X152289001Y-53451000D01*
X152510999Y-53451000D01*
X152839733Y-53385611D01*
X153212522Y-53136522D01*
X153461611Y-52763733D01*
X153549079Y-52324000D01*
X153790921Y-52324000D01*
X153878389Y-52763733D01*
X154127478Y-53136522D01*
X154500267Y-53385611D01*
X154829001Y-53451000D01*
X155050999Y-53451000D01*
X155379733Y-53385611D01*
X155752522Y-53136522D01*
X156001611Y-52763733D01*
X156089079Y-52324000D01*
X156330921Y-52324000D01*
X156418389Y-52763733D01*
X156667478Y-53136522D01*
X157040267Y-53385611D01*
X157369001Y-53451000D01*
X157590999Y-53451000D01*
X157919733Y-53385611D01*
X158292522Y-53136522D01*
X158541611Y-52763733D01*
X158629079Y-52324000D01*
X158870921Y-52324000D01*
X158958389Y-52763733D01*
X159207478Y-53136522D01*
X159580267Y-53385611D01*
X159909001Y-53451000D01*
X160130999Y-53451000D01*
X160459733Y-53385611D01*
X160832522Y-53136522D01*
X161081611Y-52763733D01*
X161169079Y-52324000D01*
X161410921Y-52324000D01*
X161498389Y-52763733D01*
X161747478Y-53136522D01*
X162120267Y-53385611D01*
X162449001Y-53451000D01*
X162670999Y-53451000D01*
X162999733Y-53385611D01*
X163372522Y-53136522D01*
X163621611Y-52763733D01*
X163709079Y-52324000D01*
X163950921Y-52324000D01*
X164038389Y-52763733D01*
X164287478Y-53136522D01*
X164660267Y-53385611D01*
X164989001Y-53451000D01*
X165210999Y-53451000D01*
X165539733Y-53385611D01*
X165912522Y-53136522D01*
X166161611Y-52763733D01*
X166249079Y-52324000D01*
X166161611Y-51884267D01*
X165912522Y-51511478D01*
X165539733Y-51262389D01*
X165210999Y-51197000D01*
X164989001Y-51197000D01*
X164660267Y-51262389D01*
X164287478Y-51511478D01*
X164038389Y-51884267D01*
X163950921Y-52324000D01*
X163709079Y-52324000D01*
X163621611Y-51884267D01*
X163372522Y-51511478D01*
X162999733Y-51262389D01*
X162670999Y-51197000D01*
X162449001Y-51197000D01*
X162120267Y-51262389D01*
X161747478Y-51511478D01*
X161498389Y-51884267D01*
X161410921Y-52324000D01*
X161169079Y-52324000D01*
X161081611Y-51884267D01*
X160832522Y-51511478D01*
X160459733Y-51262389D01*
X160130999Y-51197000D01*
X159909001Y-51197000D01*
X159580267Y-51262389D01*
X159207478Y-51511478D01*
X158958389Y-51884267D01*
X158870921Y-52324000D01*
X158629079Y-52324000D01*
X158541611Y-51884267D01*
X158292522Y-51511478D01*
X157919733Y-51262389D01*
X157590999Y-51197000D01*
X157369001Y-51197000D01*
X157040267Y-51262389D01*
X156667478Y-51511478D01*
X156418389Y-51884267D01*
X156330921Y-52324000D01*
X156089079Y-52324000D01*
X156001611Y-51884267D01*
X155752522Y-51511478D01*
X155379733Y-51262389D01*
X155050999Y-51197000D01*
X154829001Y-51197000D01*
X154500267Y-51262389D01*
X154127478Y-51511478D01*
X153878389Y-51884267D01*
X153790921Y-52324000D01*
X153549079Y-52324000D01*
X153461611Y-51884267D01*
X153212522Y-51511478D01*
X152839733Y-51262389D01*
X152510999Y-51197000D01*
X152289001Y-51197000D01*
X151960267Y-51262389D01*
X151587478Y-51511478D01*
X151338389Y-51884267D01*
X151250921Y-52324000D01*
X151009079Y-52324000D01*
X150921611Y-51884267D01*
X150672522Y-51511478D01*
X150299733Y-51262389D01*
X149970999Y-51197000D01*
X149749001Y-51197000D01*
X149420267Y-51262389D01*
X149047478Y-51511478D01*
X148798389Y-51884267D01*
X148710921Y-52324000D01*
X148452426Y-52324000D01*
X148452426Y-51474000D01*
X148430928Y-51365920D01*
X148369705Y-51274295D01*
X148278080Y-51213072D01*
X148170000Y-51191574D01*
X146470000Y-51191574D01*
X146361920Y-51213072D01*
X146270295Y-51274295D01*
X146209072Y-51365920D01*
X146187574Y-51474000D01*
X136779000Y-51474000D01*
X136779000Y-50546000D01*
X166878000Y-50546000D01*
X166878000Y-104521000D01*
X166878000Y-104521000D01*
G37*
X166878000Y-104521000D02*
X115570000Y-104521000D01*
X115570000Y-98844252D01*
X126914000Y-98844252D01*
X126914000Y-100545748D01*
X127565135Y-102117726D01*
X128768274Y-103320865D01*
X130340252Y-103972000D01*
X132041748Y-103972000D01*
X132187474Y-103911638D01*
X132441183Y-104165347D01*
X133278077Y-104512000D01*
X134183923Y-104512000D01*
X135020817Y-104165347D01*
X135661347Y-103524817D01*
X136008000Y-102687923D01*
X136008000Y-101782077D01*
X135661347Y-100945183D01*
X135407638Y-100691474D01*
X135468000Y-100545748D01*
X135468000Y-98844252D01*
X137074000Y-98844252D01*
X137074000Y-100545748D01*
X137725135Y-102117726D01*
X138928274Y-103320865D01*
X139420652Y-103524815D01*
X139420653Y-103524817D01*
X140061183Y-104165347D01*
X140898077Y-104512000D01*
X141803923Y-104512000D01*
X142640817Y-104165347D01*
X143281347Y-103524817D01*
X143281348Y-103524815D01*
X143773726Y-103320865D01*
X144976865Y-102117726D01*
X145115895Y-101782077D01*
X146694000Y-101782077D01*
X146694000Y-102687923D01*
X147040653Y-103524817D01*
X147681183Y-104165347D01*
X148518077Y-104512000D01*
X149423923Y-104512000D01*
X150260817Y-104165347D01*
X150514526Y-103911638D01*
X150660252Y-103972000D01*
X152361748Y-103972000D01*
X153933726Y-103320865D01*
X155136865Y-102117726D01*
X155788000Y-100545748D01*
X155788000Y-98844252D01*
X155136865Y-97272274D01*
X153933726Y-96069135D01*
X152361748Y-95418000D01*
X150660252Y-95418000D01*
X149088274Y-96069135D01*
X147885135Y-97272274D01*
X147234000Y-98844252D01*
X147234000Y-100545748D01*
X147294362Y-100691474D01*
X147040653Y-100945183D01*
X146694000Y-101782077D01*
X145115895Y-101782077D01*
X145628000Y-100545748D01*
X145628000Y-98844252D01*
X144976865Y-97272274D01*
X143773726Y-96069135D01*
X142201748Y-95418000D01*
X140500252Y-95418000D01*
X138928274Y-96069135D01*
X137725135Y-97272274D01*
X137074000Y-98844252D01*
X135468000Y-98844252D01*
X134816865Y-97272274D01*
X133613726Y-96069135D01*
X132041748Y-95418000D01*
X130340252Y-95418000D01*
X128768274Y-96069135D01*
X127565135Y-97272274D01*
X126914000Y-98844252D01*
X115570000Y-98844252D01*
X115570000Y-87272000D01*
X154305000Y-87272000D01*
X154411003Y-87250915D01*
X154500869Y-87190869D01*
X154560915Y-87101003D01*
X154582000Y-86995000D01*
X154582000Y-80899000D01*
X154560915Y-80792997D01*
X154500869Y-80703131D01*
X154411003Y-80643085D01*
X154305000Y-80622000D01*
X145796000Y-80622000D01*
X145689997Y-80643085D01*
X145600131Y-80703131D01*
X145540085Y-80792997D01*
X145519000Y-80899000D01*
X145519000Y-83289000D01*
X136689588Y-83289000D01*
X136781490Y-83250933D01*
X136971933Y-83060490D01*
X137075000Y-82811664D01*
X137075000Y-82542336D01*
X136971933Y-82293510D01*
X136800000Y-82121577D01*
X136800000Y-81827584D01*
X136807874Y-81788000D01*
X141224000Y-81788000D01*
X141224000Y-83058000D01*
X141233667Y-83106601D01*
X141261197Y-83147803D01*
X141302399Y-83175333D01*
X141351000Y-83185000D01*
X142875000Y-83185000D01*
X142923601Y-83175333D01*
X142964803Y-83147803D01*
X142992333Y-83106601D01*
X143002000Y-83058000D01*
X143002000Y-82042000D01*
X142992333Y-81993399D01*
X142964803Y-81952197D01*
X141948803Y-80936197D01*
X141907601Y-80908667D01*
X141859000Y-80899000D01*
X137339606Y-80899000D01*
X136779000Y-80338394D01*
X136779000Y-75692000D01*
X163950921Y-75692000D01*
X164038389Y-76131733D01*
X164287478Y-76504522D01*
X164660267Y-76753611D01*
X164989001Y-76819000D01*
X165210999Y-76819000D01*
X165539733Y-76753611D01*
X165912522Y-76504522D01*
X166161611Y-76131733D01*
X166249079Y-75692000D01*
X166161611Y-75252267D01*
X165912522Y-74879478D01*
X165539733Y-74630389D01*
X165210999Y-74565000D01*
X164989001Y-74565000D01*
X164660267Y-74630389D01*
X164287478Y-74879478D01*
X164038389Y-75252267D01*
X163950921Y-75692000D01*
X136779000Y-75692000D01*
X136779000Y-65682000D01*
X137160000Y-65682000D01*
X137266003Y-65660915D01*
X137355869Y-65600869D01*
X137415915Y-65511003D01*
X137437000Y-65405000D01*
X137437000Y-62103000D01*
X137415915Y-61996997D01*
X137355869Y-61907131D01*
X137266003Y-61847085D01*
X137160000Y-61826000D01*
X136779000Y-61826000D01*
X136779000Y-58920336D01*
X136991000Y-58920336D01*
X136991000Y-59189664D01*
X137094067Y-59438490D01*
X137284510Y-59628933D01*
X137533336Y-59732000D01*
X137802664Y-59732000D01*
X138051490Y-59628933D01*
X138223423Y-59457000D01*
X139152487Y-59457000D01*
X147680001Y-67984514D01*
X147680000Y-73358577D01*
X147508067Y-73530510D01*
X147405000Y-73779336D01*
X147405000Y-74048664D01*
X147508067Y-74297490D01*
X147632577Y-74422000D01*
X147508067Y-74546510D01*
X147405000Y-74795336D01*
X147405000Y-75064664D01*
X147508067Y-75313490D01*
X147698510Y-75503933D01*
X147947336Y-75607000D01*
X148216664Y-75607000D01*
X148465490Y-75503933D01*
X148655933Y-75313490D01*
X148759000Y-75064664D01*
X148759000Y-74795336D01*
X148655933Y-74546510D01*
X148531423Y-74422000D01*
X148655933Y-74297490D01*
X148759000Y-74048664D01*
X148759000Y-73779336D01*
X148655933Y-73530510D01*
X148484000Y-73358577D01*
X148484000Y-73152000D01*
X163950921Y-73152000D01*
X164038389Y-73591733D01*
X164287478Y-73964522D01*
X164660267Y-74213611D01*
X164989001Y-74279000D01*
X165210999Y-74279000D01*
X165539733Y-74213611D01*
X165912522Y-73964522D01*
X166161611Y-73591733D01*
X166249079Y-73152000D01*
X166161611Y-72712267D01*
X165912522Y-72339478D01*
X165539733Y-72090389D01*
X165210999Y-72025000D01*
X164989001Y-72025000D01*
X164660267Y-72090389D01*
X164287478Y-72339478D01*
X164038389Y-72712267D01*
X163950921Y-73152000D01*
X148484000Y-73152000D01*
X148484000Y-70612000D01*
X163950921Y-70612000D01*
X164038389Y-71051733D01*
X164287478Y-71424522D01*
X164660267Y-71673611D01*
X164989001Y-71739000D01*
X165210999Y-71739000D01*
X165539733Y-71673611D01*
X165912522Y-71424522D01*
X166161611Y-71051733D01*
X166249079Y-70612000D01*
X166161611Y-70172267D01*
X165912522Y-69799478D01*
X165539733Y-69550389D01*
X165210999Y-69485000D01*
X164989001Y-69485000D01*
X164660267Y-69550389D01*
X164287478Y-69799478D01*
X164038389Y-70172267D01*
X163950921Y-70612000D01*
X148484000Y-70612000D01*
X148484000Y-68072000D01*
X163950921Y-68072000D01*
X164038389Y-68511733D01*
X164287478Y-68884522D01*
X164660267Y-69133611D01*
X164989001Y-69199000D01*
X165210999Y-69199000D01*
X165539733Y-69133611D01*
X165912522Y-68884522D01*
X166161611Y-68511733D01*
X166249079Y-68072000D01*
X166161611Y-67632267D01*
X165912522Y-67259478D01*
X165539733Y-67010389D01*
X165210999Y-66945000D01*
X164989001Y-66945000D01*
X164660267Y-67010389D01*
X164287478Y-67259478D01*
X164038389Y-67632267D01*
X163950921Y-68072000D01*
X148484000Y-68072000D01*
X148484000Y-67857584D01*
X148491874Y-67817999D01*
X148484000Y-67778414D01*
X148484000Y-67778410D01*
X148460675Y-67661148D01*
X148371825Y-67528175D01*
X148338262Y-67505749D01*
X146364513Y-65532000D01*
X163950921Y-65532000D01*
X164038389Y-65971733D01*
X164287478Y-66344522D01*
X164660267Y-66593611D01*
X164989001Y-66659000D01*
X165210999Y-66659000D01*
X165539733Y-66593611D01*
X165912522Y-66344522D01*
X166161611Y-65971733D01*
X166249079Y-65532000D01*
X166161611Y-65092267D01*
X165912522Y-64719478D01*
X165539733Y-64470389D01*
X165210999Y-64405000D01*
X164989001Y-64405000D01*
X164660267Y-64470389D01*
X164287478Y-64719478D01*
X164038389Y-65092267D01*
X163950921Y-65532000D01*
X146364513Y-65532000D01*
X143824513Y-62992000D01*
X163950921Y-62992000D01*
X164038389Y-63431733D01*
X164287478Y-63804522D01*
X164660267Y-64053611D01*
X164989001Y-64119000D01*
X165210999Y-64119000D01*
X165539733Y-64053611D01*
X165912522Y-63804522D01*
X166161611Y-63431733D01*
X166249079Y-62992000D01*
X166161611Y-62552267D01*
X165912522Y-62179478D01*
X165539733Y-61930389D01*
X165210999Y-61865000D01*
X164989001Y-61865000D01*
X164660267Y-61930389D01*
X164287478Y-62179478D01*
X164038389Y-62552267D01*
X163950921Y-62992000D01*
X143824513Y-62992000D01*
X141284513Y-60452000D01*
X163950921Y-60452000D01*
X164038389Y-60891733D01*
X164287478Y-61264522D01*
X164660267Y-61513611D01*
X164989001Y-61579000D01*
X165210999Y-61579000D01*
X165539733Y-61513611D01*
X165912522Y-61264522D01*
X166161611Y-60891733D01*
X166249079Y-60452000D01*
X166161611Y-60012267D01*
X165912522Y-59639478D01*
X165539733Y-59390389D01*
X165210999Y-59325000D01*
X164989001Y-59325000D01*
X164660267Y-59390389D01*
X164287478Y-59639478D01*
X164038389Y-60012267D01*
X163950921Y-60452000D01*
X141284513Y-60452000D01*
X139631251Y-58798738D01*
X139608825Y-58765175D01*
X139475852Y-58676325D01*
X139358590Y-58653000D01*
X139358585Y-58653000D01*
X139319000Y-58645126D01*
X139279415Y-58653000D01*
X138223423Y-58653000D01*
X138051490Y-58481067D01*
X137802664Y-58378000D01*
X137533336Y-58378000D01*
X137284510Y-58481067D01*
X137094067Y-58671510D01*
X136991000Y-58920336D01*
X136779000Y-58920336D01*
X136779000Y-57062000D01*
X163967574Y-57062000D01*
X163967574Y-58762000D01*
X163989072Y-58870080D01*
X164050295Y-58961705D01*
X164141920Y-59022928D01*
X164250000Y-59044426D01*
X165950000Y-59044426D01*
X166058080Y-59022928D01*
X166149705Y-58961705D01*
X166210928Y-58870080D01*
X166232426Y-58762000D01*
X166232426Y-57062000D01*
X166210928Y-56953920D01*
X166149705Y-56862295D01*
X166058080Y-56801072D01*
X165950000Y-56779574D01*
X164250000Y-56779574D01*
X164141920Y-56801072D01*
X164050295Y-56862295D01*
X163989072Y-56953920D01*
X163967574Y-57062000D01*
X136779000Y-57062000D01*
X136779000Y-55058315D01*
X137107000Y-55058315D01*
X137107000Y-55685685D01*
X137347084Y-56265299D01*
X137790701Y-56708916D01*
X138370315Y-56949000D01*
X138997685Y-56949000D01*
X139577299Y-56708916D01*
X140020916Y-56265299D01*
X140261000Y-55685685D01*
X140261000Y-55058315D01*
X142107000Y-55058315D01*
X142107000Y-55685685D01*
X142347084Y-56265299D01*
X142790701Y-56708916D01*
X143370315Y-56949000D01*
X143997685Y-56949000D01*
X144577299Y-56708916D01*
X145020916Y-56265299D01*
X145261000Y-55685685D01*
X145261000Y-55058315D01*
X145020916Y-54478701D01*
X144577299Y-54035084D01*
X143997685Y-53795000D01*
X143370315Y-53795000D01*
X142790701Y-54035084D01*
X142347084Y-54478701D01*
X142107000Y-55058315D01*
X140261000Y-55058315D01*
X140020916Y-54478701D01*
X139577299Y-54035084D01*
X138997685Y-53795000D01*
X138370315Y-53795000D01*
X137790701Y-54035084D01*
X137347084Y-54478701D01*
X137107000Y-55058315D01*
X136779000Y-55058315D01*
X136779000Y-51474000D01*
X146187574Y-51474000D01*
X146187574Y-53174000D01*
X146209072Y-53282080D01*
X146270295Y-53373705D01*
X146361920Y-53434928D01*
X146470000Y-53456426D01*
X148170000Y-53456426D01*
X148278080Y-53434928D01*
X148369705Y-53373705D01*
X148430928Y-53282080D01*
X148452426Y-53174000D01*
X148452426Y-52324000D01*
X148710921Y-52324000D01*
X148798389Y-52763733D01*
X149047478Y-53136522D01*
X149420267Y-53385611D01*
X149749001Y-53451000D01*
X149970999Y-53451000D01*
X150299733Y-53385611D01*
X150672522Y-53136522D01*
X150921611Y-52763733D01*
X151009079Y-52324000D01*
X151250921Y-52324000D01*
X151338389Y-52763733D01*
X151587478Y-53136522D01*
X151960267Y-53385611D01*
X152289001Y-53451000D01*
X152510999Y-53451000D01*
X152839733Y-53385611D01*
X153212522Y-53136522D01*
X153461611Y-52763733D01*
X153549079Y-52324000D01*
X153790921Y-52324000D01*
X153878389Y-52763733D01*
X154127478Y-53136522D01*
X154500267Y-53385611D01*
X154829001Y-53451000D01*
X155050999Y-53451000D01*
X155379733Y-53385611D01*
X155752522Y-53136522D01*
X156001611Y-52763733D01*
X156089079Y-52324000D01*
X156330921Y-52324000D01*
X156418389Y-52763733D01*
X156667478Y-53136522D01*
X157040267Y-53385611D01*
X157369001Y-53451000D01*
X157590999Y-53451000D01*
X157919733Y-53385611D01*
X158292522Y-53136522D01*
X158541611Y-52763733D01*
X158629079Y-52324000D01*
X158870921Y-52324000D01*
X158958389Y-52763733D01*
X159207478Y-53136522D01*
X159580267Y-53385611D01*
X159909001Y-53451000D01*
X160130999Y-53451000D01*
X160459733Y-53385611D01*
X160832522Y-53136522D01*
X161081611Y-52763733D01*
X161169079Y-52324000D01*
X161410921Y-52324000D01*
X161498389Y-52763733D01*
X161747478Y-53136522D01*
X162120267Y-53385611D01*
X162449001Y-53451000D01*
X162670999Y-53451000D01*
X162999733Y-53385611D01*
X163372522Y-53136522D01*
X163621611Y-52763733D01*
X163709079Y-52324000D01*
X163950921Y-52324000D01*
X164038389Y-52763733D01*
X164287478Y-53136522D01*
X164660267Y-53385611D01*
X164989001Y-53451000D01*
X165210999Y-53451000D01*
X165539733Y-53385611D01*
X165912522Y-53136522D01*
X166161611Y-52763733D01*
X166249079Y-52324000D01*
X166161611Y-51884267D01*
X165912522Y-51511478D01*
X165539733Y-51262389D01*
X165210999Y-51197000D01*
X164989001Y-51197000D01*
X164660267Y-51262389D01*
X164287478Y-51511478D01*
X164038389Y-51884267D01*
X163950921Y-52324000D01*
X163709079Y-52324000D01*
X163621611Y-51884267D01*
X163372522Y-51511478D01*
X162999733Y-51262389D01*
X162670999Y-51197000D01*
X162449001Y-51197000D01*
X162120267Y-51262389D01*
X161747478Y-51511478D01*
X161498389Y-51884267D01*
X161410921Y-52324000D01*
X161169079Y-52324000D01*
X161081611Y-51884267D01*
X160832522Y-51511478D01*
X160459733Y-51262389D01*
X160130999Y-51197000D01*
X159909001Y-51197000D01*
X159580267Y-51262389D01*
X159207478Y-51511478D01*
X158958389Y-51884267D01*
X158870921Y-52324000D01*
X158629079Y-52324000D01*
X158541611Y-51884267D01*
X158292522Y-51511478D01*
X157919733Y-51262389D01*
X157590999Y-51197000D01*
X157369001Y-51197000D01*
X157040267Y-51262389D01*
X156667478Y-51511478D01*
X156418389Y-51884267D01*
X156330921Y-52324000D01*
X156089079Y-52324000D01*
X156001611Y-51884267D01*
X155752522Y-51511478D01*
X155379733Y-51262389D01*
X155050999Y-51197000D01*
X154829001Y-51197000D01*
X154500267Y-51262389D01*
X154127478Y-51511478D01*
X153878389Y-51884267D01*
X153790921Y-52324000D01*
X153549079Y-52324000D01*
X153461611Y-51884267D01*
X153212522Y-51511478D01*
X152839733Y-51262389D01*
X152510999Y-51197000D01*
X152289001Y-51197000D01*
X151960267Y-51262389D01*
X151587478Y-51511478D01*
X151338389Y-51884267D01*
X151250921Y-52324000D01*
X151009079Y-52324000D01*
X150921611Y-51884267D01*
X150672522Y-51511478D01*
X150299733Y-51262389D01*
X149970999Y-51197000D01*
X149749001Y-51197000D01*
X149420267Y-51262389D01*
X149047478Y-51511478D01*
X148798389Y-51884267D01*
X148710921Y-52324000D01*
X148452426Y-52324000D01*
X148452426Y-51474000D01*
X148430928Y-51365920D01*
X148369705Y-51274295D01*
X148278080Y-51213072D01*
X148170000Y-51191574D01*
X146470000Y-51191574D01*
X146361920Y-51213072D01*
X146270295Y-51274295D01*
X146209072Y-51365920D01*
X146187574Y-51474000D01*
X136779000Y-51474000D01*
X136779000Y-50546000D01*
X166878000Y-50546000D01*
X166878000Y-104521000D01*
G36*
X127635000Y-77089000D02*
X124714000Y-77089000D01*
X124665399Y-77098667D01*
X124626414Y-77124034D01*
X121959414Y-79664034D01*
X121930887Y-79704553D01*
X121920000Y-79756000D01*
X121920000Y-80772000D01*
X121929667Y-80820601D01*
X121957197Y-80861803D01*
X121998399Y-80889333D01*
X122047000Y-80899000D01*
X123444000Y-80899000D01*
X123492601Y-80889333D01*
X123533803Y-80861803D01*
X123561333Y-80820601D01*
X123571000Y-80772000D01*
X123571000Y-80189606D01*
X125147606Y-78613000D01*
X127889000Y-78613000D01*
X127937601Y-78603333D01*
X127978803Y-78575803D01*
X128006333Y-78534601D01*
X128016000Y-78486000D01*
X128016000Y-77216000D01*
X132916394Y-77216000D01*
X132879197Y-77253197D01*
X132851667Y-77294399D01*
X132842000Y-77343000D01*
X132842000Y-78105000D01*
X132851667Y-78153601D01*
X132879197Y-78194803D01*
X133387197Y-78702803D01*
X133428399Y-78730333D01*
X133477000Y-78740000D01*
X133477000Y-79052577D01*
X133411067Y-79118510D01*
X133308000Y-79367336D01*
X133308000Y-79636664D01*
X133411067Y-79885490D01*
X133601510Y-80075933D01*
X133850336Y-80179000D01*
X133974394Y-80179000D01*
X135546197Y-81750803D01*
X135587399Y-81778333D01*
X135636000Y-81788000D01*
X135829486Y-81788000D01*
X135996000Y-81954514D01*
X135996000Y-82121577D01*
X135824067Y-82293510D01*
X135721000Y-82542336D01*
X135721000Y-82811664D01*
X135824067Y-83060490D01*
X136014510Y-83250933D01*
X136106412Y-83289000D01*
X119530000Y-83289000D01*
X119530000Y-75933738D01*
X122796738Y-72667000D01*
X127635000Y-72667000D01*
X127635000Y-77089000D01*
X127635000Y-77089000D01*
G37*
X127635000Y-77089000D02*
X124714000Y-77089000D01*
X124665399Y-77098667D01*
X124626414Y-77124034D01*
X121959414Y-79664034D01*
X121930887Y-79704553D01*
X121920000Y-79756000D01*
X121920000Y-80772000D01*
X121929667Y-80820601D01*
X121957197Y-80861803D01*
X121998399Y-80889333D01*
X122047000Y-80899000D01*
X123444000Y-80899000D01*
X123492601Y-80889333D01*
X123533803Y-80861803D01*
X123561333Y-80820601D01*
X123571000Y-80772000D01*
X123571000Y-80189606D01*
X125147606Y-78613000D01*
X127889000Y-78613000D01*
X127937601Y-78603333D01*
X127978803Y-78575803D01*
X128006333Y-78534601D01*
X128016000Y-78486000D01*
X128016000Y-77216000D01*
X132916394Y-77216000D01*
X132879197Y-77253197D01*
X132851667Y-77294399D01*
X132842000Y-77343000D01*
X132842000Y-78105000D01*
X132851667Y-78153601D01*
X132879197Y-78194803D01*
X133387197Y-78702803D01*
X133428399Y-78730333D01*
X133477000Y-78740000D01*
X133477000Y-79052577D01*
X133411067Y-79118510D01*
X133308000Y-79367336D01*
X133308000Y-79636664D01*
X133411067Y-79885490D01*
X133601510Y-80075933D01*
X133850336Y-80179000D01*
X133974394Y-80179000D01*
X135546197Y-81750803D01*
X135587399Y-81778333D01*
X135636000Y-81788000D01*
X135829486Y-81788000D01*
X135996000Y-81954514D01*
X135996000Y-82121577D01*
X135824067Y-82293510D01*
X135721000Y-82542336D01*
X135721000Y-82811664D01*
X135824067Y-83060490D01*
X136014510Y-83250933D01*
X136106412Y-83289000D01*
X119530000Y-83289000D01*
X119530000Y-75933738D01*
X122796738Y-72667000D01*
X127635000Y-72667000D01*
X127635000Y-77089000D01*
G36*
X127635000Y-67299262D02*
X127012262Y-67922000D01*
X122669738Y-67922000D01*
X120800000Y-66052262D01*
X120800000Y-56121738D01*
X123004869Y-53916869D01*
X123064915Y-53827003D01*
X123086000Y-53721000D01*
X123086000Y-50546000D01*
X127635000Y-50546000D01*
X127635000Y-67299262D01*
X127635000Y-67299262D01*
G37*
X127635000Y-67299262D02*
X127012262Y-67922000D01*
X122669738Y-67922000D01*
X120800000Y-66052262D01*
X120800000Y-56121738D01*
X123004869Y-53916869D01*
X123064915Y-53827003D01*
X123086000Y-53721000D01*
X123086000Y-50546000D01*
X127635000Y-50546000D01*
X127635000Y-67299262D01*
G36*
X136779000Y-77089000D02*
X126619000Y-77089000D01*
X126619000Y-72667000D01*
X127889000Y-72667000D01*
X127995003Y-72645915D01*
X128084869Y-72585869D01*
X134988738Y-65682000D01*
X136779000Y-65682000D01*
X136779000Y-77089000D01*
X136779000Y-77089000D01*
G37*
X136779000Y-77089000D02*
X126619000Y-77089000D01*
X126619000Y-72667000D01*
X127889000Y-72667000D01*
X127995003Y-72645915D01*
X128084869Y-72585869D01*
X134988738Y-65682000D01*
X136779000Y-65682000D01*
X136779000Y-77089000D01*
G36*
X136779000Y-61826000D02*
X133223000Y-61826000D01*
X133116997Y-61847085D01*
X133027131Y-61907131D01*
X127012262Y-67922000D01*
X126619000Y-67922000D01*
X126619000Y-50546000D01*
X136779000Y-50546000D01*
X136779000Y-61826000D01*
X136779000Y-61826000D01*
G37*
X136779000Y-61826000D02*
X133223000Y-61826000D01*
X133116997Y-61847085D01*
X133027131Y-61907131D01*
X127012262Y-67922000D01*
X126619000Y-67922000D01*
X126619000Y-50546000D01*
X136779000Y-50546000D01*
X136779000Y-61826000D01*
G36*
X136779000Y-80338394D02*
X134239000Y-77798394D01*
X134239000Y-77089000D01*
X136779000Y-77089000D01*
X136779000Y-80338394D01*
X136779000Y-80338394D01*
G37*
X136779000Y-80338394D02*
X134239000Y-77798394D01*
X134239000Y-77089000D01*
X136779000Y-77089000D01*
X136779000Y-80338394D01*
G04 #@! TD*
M02*
