G04 #@! TF.GenerationSoftware,KiCad,Pcbnew,(5.0.2)-1*
G04 #@! TF.CreationDate,2019-09-02T17:49:36+08:00*
G04 #@! TF.ProjectId,actuator,61637475-6174-46f7-922e-6b696361645f,rev?*
G04 #@! TF.SameCoordinates,Original*
G04 #@! TF.FileFunction,Legend,Top*
G04 #@! TF.FilePolarity,Positive*
%FSLAX46Y46*%
G04 Gerber Fmt 4.6, Leading zero omitted, Abs format (unit mm)*
G04 Created by KiCad (PCBNEW (5.0.2)-1) date 9/2/2019 5:49:36 PM*
%MOMM*%
%LPD*%
G01*
G04 APERTURE LIST*
%ADD10C,0.120000*%
%ADD11C,0.150000*%
G04 APERTURE END LIST*
D10*
G04 #@! TO.C,U1*
X133390324Y-67337535D02*
X132915324Y-67337535D01*
X140135324Y-74557535D02*
X140135324Y-74082535D01*
X139660324Y-74557535D02*
X140135324Y-74557535D01*
X132915324Y-74557535D02*
X132915324Y-74082535D01*
X133390324Y-74557535D02*
X132915324Y-74557535D01*
X140135324Y-67337535D02*
X140135324Y-67812535D01*
X139660324Y-67337535D02*
X140135324Y-67337535D01*
G04 #@! TO.C,C5*
X142111000Y-61376779D02*
X142111000Y-61051221D01*
X143131000Y-61376779D02*
X143131000Y-61051221D01*
G04 #@! TO.C,C6*
X141476000Y-73949779D02*
X141476000Y-73624221D01*
X142496000Y-73949779D02*
X142496000Y-73624221D01*
G04 #@! TO.C,C7*
X136042324Y-61951314D02*
X136042324Y-61625756D01*
X135022324Y-61951314D02*
X135022324Y-61625756D01*
G04 #@! TO.C,C8*
X136042324Y-57180756D02*
X136042324Y-57506314D01*
X135022324Y-57180756D02*
X135022324Y-57506314D01*
G04 #@! TO.C,D1*
X141415324Y-62026535D02*
X141415324Y-60026535D01*
X141415324Y-60026535D02*
X137565324Y-60026535D01*
X141415324Y-62026535D02*
X137565324Y-62026535D01*
G04 #@! TO.C,R1*
X130027057Y-59246535D02*
X130369591Y-59246535D01*
X130027057Y-60266535D02*
X130369591Y-60266535D01*
G04 #@! TO.C,R2*
X130383591Y-62167535D02*
X130041057Y-62167535D01*
X130383591Y-63187535D02*
X130041057Y-63187535D01*
G04 #@! TO.C,R3*
X133902267Y-63879000D02*
X133559733Y-63879000D01*
X133902267Y-64899000D02*
X133559733Y-64899000D01*
G04 #@! TO.C,R4*
X145290000Y-74085267D02*
X145290000Y-73742733D01*
X144270000Y-74085267D02*
X144270000Y-73742733D01*
G04 #@! TO.C,R5*
X147068000Y-73196267D02*
X147068000Y-72853733D01*
X146048000Y-73196267D02*
X146048000Y-72853733D01*
G04 #@! TO.C,R6*
X125697064Y-84360000D02*
X124492936Y-84360000D01*
X125697064Y-81640000D02*
X124492936Y-81640000D01*
G04 #@! TO.C,R7*
X138589936Y-84360000D02*
X139794064Y-84360000D01*
X138589936Y-81640000D02*
X139794064Y-81640000D01*
G04 #@! TO.C,R8*
X160749064Y-84360000D02*
X159544936Y-84360000D01*
X160749064Y-81640000D02*
X159544936Y-81640000D01*
G04 #@! TO.C,C9*
X120459531Y-58798797D02*
X120785089Y-58798797D01*
X120459531Y-57778797D02*
X120785089Y-57778797D01*
G04 #@! TO.C,C10*
X120459531Y-60826797D02*
X120785089Y-60826797D01*
X120459531Y-61846797D02*
X120785089Y-61846797D01*
G04 #@! TO.C,J2*
X127180310Y-56118797D02*
X127480310Y-55518797D01*
X127480310Y-55518797D02*
X127780310Y-56118797D01*
X127780310Y-56118797D02*
X127180310Y-56118797D01*
G04 #@! TO.C,C_DVDD1*
X141118324Y-68047314D02*
X141118324Y-67721756D01*
X142138324Y-68047314D02*
X142138324Y-67721756D01*
G04 #@! TO.C,C_SW1*
X130069324Y-69372756D02*
X130069324Y-69698314D01*
X131089324Y-69372756D02*
X131089324Y-69698314D01*
G04 #@! TO.C,C_VCP1*
X129448779Y-66165000D02*
X129123221Y-66165000D01*
X129448779Y-67185000D02*
X129123221Y-67185000D01*
G04 #@! TO.C,C_VM1*
X127275324Y-69698314D02*
X127275324Y-69372756D01*
X128295324Y-69698314D02*
X128295324Y-69372756D01*
G04 #@! TO.C,C1*
X119217221Y-83441000D02*
X119542779Y-83441000D01*
X119217221Y-82421000D02*
X119542779Y-82421000D01*
G04 #@! TO.C,C2*
X145958779Y-83314000D02*
X145633221Y-83314000D01*
X145958779Y-82294000D02*
X145633221Y-82294000D01*
G04 #@! TO.C,C3*
X154142221Y-82294000D02*
X154467779Y-82294000D01*
X154142221Y-83314000D02*
X154467779Y-83314000D01*
G04 #@! TO.C,J3*
X145990000Y-52324000D02*
X145990000Y-50994000D01*
X145990000Y-50994000D02*
X147320000Y-50994000D01*
X148590000Y-50994000D02*
X166430000Y-50994000D01*
X166430000Y-53654000D02*
X166430000Y-50994000D01*
X148590000Y-53654000D02*
X166430000Y-53654000D01*
X148590000Y-53654000D02*
X148590000Y-50994000D01*
G04 #@! TO.C,J4*
X163770000Y-59182000D02*
X166430000Y-59182000D01*
X163770000Y-59182000D02*
X163770000Y-77022000D01*
X163770000Y-77022000D02*
X166430000Y-77022000D01*
X166430000Y-59182000D02*
X166430000Y-77022000D01*
X166430000Y-56582000D02*
X166430000Y-57912000D01*
X165100000Y-56582000D02*
X166430000Y-56582000D01*
G04 #@! TO.C,L1*
X139097936Y-54520000D02*
X140302064Y-54520000D01*
X139097936Y-57240000D02*
X140302064Y-57240000D01*
G04 #@! TO.C,U1*
D11*
X135763419Y-65579915D02*
X135763419Y-66389439D01*
X135811038Y-66484677D01*
X135858657Y-66532296D01*
X135953895Y-66579915D01*
X136144371Y-66579915D01*
X136239609Y-66532296D01*
X136287228Y-66484677D01*
X136334847Y-66389439D01*
X136334847Y-65579915D01*
X137334847Y-66579915D02*
X136763419Y-66579915D01*
X137049133Y-66579915D02*
X137049133Y-65579915D01*
X136953895Y-65722773D01*
X136858657Y-65818011D01*
X136763419Y-65865630D01*
G04 #@! TO.C,J1*
X136172666Y-95707380D02*
X136172666Y-96421666D01*
X136125047Y-96564523D01*
X136029809Y-96659761D01*
X135886952Y-96707380D01*
X135791714Y-96707380D01*
X137172666Y-96707380D02*
X136601238Y-96707380D01*
X136886952Y-96707380D02*
X136886952Y-95707380D01*
X136791714Y-95850238D01*
X136696476Y-95945476D01*
X136601238Y-95993095D01*
G04 #@! TO.C,C5*
X145772142Y-61380666D02*
X145819761Y-61428285D01*
X145867380Y-61571142D01*
X145867380Y-61666380D01*
X145819761Y-61809238D01*
X145724523Y-61904476D01*
X145629285Y-61952095D01*
X145438809Y-61999714D01*
X145295952Y-61999714D01*
X145105476Y-61952095D01*
X145010238Y-61904476D01*
X144915000Y-61809238D01*
X144867380Y-61666380D01*
X144867380Y-61571142D01*
X144915000Y-61428285D01*
X144962619Y-61380666D01*
X144867380Y-60475904D02*
X144867380Y-60952095D01*
X145343571Y-60999714D01*
X145295952Y-60952095D01*
X145248333Y-60856857D01*
X145248333Y-60618761D01*
X145295952Y-60523523D01*
X145343571Y-60475904D01*
X145438809Y-60428285D01*
X145676904Y-60428285D01*
X145772142Y-60475904D01*
X145819761Y-60523523D01*
X145867380Y-60618761D01*
X145867380Y-60856857D01*
X145819761Y-60952095D01*
X145772142Y-60999714D01*
G04 #@! TO.C,C6*
X142343142Y-76493666D02*
X142390761Y-76541285D01*
X142438380Y-76684142D01*
X142438380Y-76779380D01*
X142390761Y-76922238D01*
X142295523Y-77017476D01*
X142200285Y-77065095D01*
X142009809Y-77112714D01*
X141866952Y-77112714D01*
X141676476Y-77065095D01*
X141581238Y-77017476D01*
X141486000Y-76922238D01*
X141438380Y-76779380D01*
X141438380Y-76684142D01*
X141486000Y-76541285D01*
X141533619Y-76493666D01*
X141438380Y-75636523D02*
X141438380Y-75827000D01*
X141486000Y-75922238D01*
X141533619Y-75969857D01*
X141676476Y-76065095D01*
X141866952Y-76112714D01*
X142247904Y-76112714D01*
X142343142Y-76065095D01*
X142390761Y-76017476D01*
X142438380Y-75922238D01*
X142438380Y-75731761D01*
X142390761Y-75636523D01*
X142343142Y-75588904D01*
X142247904Y-75541285D01*
X142009809Y-75541285D01*
X141914571Y-75588904D01*
X141866952Y-75636523D01*
X141819333Y-75731761D01*
X141819333Y-75922238D01*
X141866952Y-76017476D01*
X141914571Y-76065095D01*
X142009809Y-76112714D01*
G04 #@! TO.C,C7*
X135365657Y-59986677D02*
X135318038Y-60034296D01*
X135175181Y-60081915D01*
X135079943Y-60081915D01*
X134937085Y-60034296D01*
X134841847Y-59939058D01*
X134794228Y-59843820D01*
X134746609Y-59653344D01*
X134746609Y-59510487D01*
X134794228Y-59320011D01*
X134841847Y-59224773D01*
X134937085Y-59129535D01*
X135079943Y-59081915D01*
X135175181Y-59081915D01*
X135318038Y-59129535D01*
X135365657Y-59177154D01*
X135698990Y-59081915D02*
X136365657Y-59081915D01*
X135937085Y-60081915D01*
G04 #@! TO.C,C8*
X135365657Y-55287677D02*
X135318038Y-55335296D01*
X135175181Y-55382915D01*
X135079943Y-55382915D01*
X134937085Y-55335296D01*
X134841847Y-55240058D01*
X134794228Y-55144820D01*
X134746609Y-54954344D01*
X134746609Y-54811487D01*
X134794228Y-54621011D01*
X134841847Y-54525773D01*
X134937085Y-54430535D01*
X135079943Y-54382915D01*
X135175181Y-54382915D01*
X135318038Y-54430535D01*
X135365657Y-54478154D01*
X135937085Y-54811487D02*
X135841847Y-54763868D01*
X135794228Y-54716249D01*
X135746609Y-54621011D01*
X135746609Y-54573392D01*
X135794228Y-54478154D01*
X135841847Y-54430535D01*
X135937085Y-54382915D01*
X136127562Y-54382915D01*
X136222800Y-54430535D01*
X136270419Y-54478154D01*
X136318038Y-54573392D01*
X136318038Y-54621011D01*
X136270419Y-54716249D01*
X136222800Y-54763868D01*
X136127562Y-54811487D01*
X135937085Y-54811487D01*
X135841847Y-54859106D01*
X135794228Y-54906725D01*
X135746609Y-55001963D01*
X135746609Y-55192439D01*
X135794228Y-55287677D01*
X135841847Y-55335296D01*
X135937085Y-55382915D01*
X136127562Y-55382915D01*
X136222800Y-55335296D01*
X136270419Y-55287677D01*
X136318038Y-55192439D01*
X136318038Y-55001963D01*
X136270419Y-54906725D01*
X136222800Y-54859106D01*
X136127562Y-54811487D01*
G04 #@! TO.C,D1*
X138604228Y-63383915D02*
X138604228Y-62383915D01*
X138842324Y-62383915D01*
X138985181Y-62431535D01*
X139080419Y-62526773D01*
X139128038Y-62622011D01*
X139175657Y-62812487D01*
X139175657Y-62955344D01*
X139128038Y-63145820D01*
X139080419Y-63241058D01*
X138985181Y-63336296D01*
X138842324Y-63383915D01*
X138604228Y-63383915D01*
X140128038Y-63383915D02*
X139556609Y-63383915D01*
X139842324Y-63383915D02*
X139842324Y-62383915D01*
X139747085Y-62526773D01*
X139651847Y-62622011D01*
X139556609Y-62669630D01*
G04 #@! TO.C,R1*
X128237704Y-59923201D02*
X127761514Y-60256535D01*
X128237704Y-60494630D02*
X127237704Y-60494630D01*
X127237704Y-60113677D01*
X127285324Y-60018439D01*
X127332943Y-59970820D01*
X127428181Y-59923201D01*
X127571038Y-59923201D01*
X127666276Y-59970820D01*
X127713895Y-60018439D01*
X127761514Y-60113677D01*
X127761514Y-60494630D01*
X128237704Y-58970820D02*
X128237704Y-59542249D01*
X128237704Y-59256535D02*
X127237704Y-59256535D01*
X127380562Y-59351773D01*
X127475800Y-59447011D01*
X127523419Y-59542249D01*
G04 #@! TO.C,R2*
X127332943Y-62510868D02*
X127809133Y-62177535D01*
X127332943Y-61939439D02*
X128332943Y-61939439D01*
X128332943Y-62320392D01*
X128285324Y-62415630D01*
X128237704Y-62463249D01*
X128142466Y-62510868D01*
X127999609Y-62510868D01*
X127904371Y-62463249D01*
X127856752Y-62415630D01*
X127809133Y-62320392D01*
X127809133Y-61939439D01*
X128237704Y-62891820D02*
X128285324Y-62939439D01*
X128332943Y-63034677D01*
X128332943Y-63272773D01*
X128285324Y-63368011D01*
X128237704Y-63415630D01*
X128142466Y-63463249D01*
X128047228Y-63463249D01*
X127904371Y-63415630D01*
X127332943Y-62844201D01*
X127332943Y-63463249D01*
G04 #@! TO.C,R3*
X133437333Y-63444380D02*
X133104000Y-62968190D01*
X132865904Y-63444380D02*
X132865904Y-62444380D01*
X133246857Y-62444380D01*
X133342095Y-62492000D01*
X133389714Y-62539619D01*
X133437333Y-62634857D01*
X133437333Y-62777714D01*
X133389714Y-62872952D01*
X133342095Y-62920571D01*
X133246857Y-62968190D01*
X132865904Y-62968190D01*
X133770666Y-62444380D02*
X134389714Y-62444380D01*
X134056380Y-62825333D01*
X134199238Y-62825333D01*
X134294476Y-62872952D01*
X134342095Y-62920571D01*
X134389714Y-63015809D01*
X134389714Y-63253904D01*
X134342095Y-63349142D01*
X134294476Y-63396761D01*
X134199238Y-63444380D01*
X133913523Y-63444380D01*
X133818285Y-63396761D01*
X133770666Y-63349142D01*
G04 #@! TO.C,R4*
X145232380Y-76747666D02*
X144756190Y-77081000D01*
X145232380Y-77319095D02*
X144232380Y-77319095D01*
X144232380Y-76938142D01*
X144280000Y-76842904D01*
X144327619Y-76795285D01*
X144422857Y-76747666D01*
X144565714Y-76747666D01*
X144660952Y-76795285D01*
X144708571Y-76842904D01*
X144756190Y-76938142D01*
X144756190Y-77319095D01*
X144565714Y-75890523D02*
X145232380Y-75890523D01*
X144184761Y-76128619D02*
X144899047Y-76366714D01*
X144899047Y-75747666D01*
G04 #@! TO.C,R5*
X147010380Y-75858666D02*
X146534190Y-76192000D01*
X147010380Y-76430095D02*
X146010380Y-76430095D01*
X146010380Y-76049142D01*
X146058000Y-75953904D01*
X146105619Y-75906285D01*
X146200857Y-75858666D01*
X146343714Y-75858666D01*
X146438952Y-75906285D01*
X146486571Y-75953904D01*
X146534190Y-76049142D01*
X146534190Y-76430095D01*
X146010380Y-74953904D02*
X146010380Y-75430095D01*
X146486571Y-75477714D01*
X146438952Y-75430095D01*
X146391333Y-75334857D01*
X146391333Y-75096761D01*
X146438952Y-75001523D01*
X146486571Y-74953904D01*
X146581809Y-74906285D01*
X146819904Y-74906285D01*
X146915142Y-74953904D01*
X146962761Y-75001523D01*
X147010380Y-75096761D01*
X147010380Y-75334857D01*
X146962761Y-75430095D01*
X146915142Y-75477714D01*
G04 #@! TO.C,R6*
X128592380Y-83166666D02*
X128116190Y-83500000D01*
X128592380Y-83738095D02*
X127592380Y-83738095D01*
X127592380Y-83357142D01*
X127640000Y-83261904D01*
X127687619Y-83214285D01*
X127782857Y-83166666D01*
X127925714Y-83166666D01*
X128020952Y-83214285D01*
X128068571Y-83261904D01*
X128116190Y-83357142D01*
X128116190Y-83738095D01*
X127592380Y-82309523D02*
X127592380Y-82500000D01*
X127640000Y-82595238D01*
X127687619Y-82642857D01*
X127830476Y-82738095D01*
X128020952Y-82785714D01*
X128401904Y-82785714D01*
X128497142Y-82738095D01*
X128544761Y-82690476D01*
X128592380Y-82595238D01*
X128592380Y-82404761D01*
X128544761Y-82309523D01*
X128497142Y-82261904D01*
X128401904Y-82214285D01*
X128163809Y-82214285D01*
X128068571Y-82261904D01*
X128020952Y-82309523D01*
X127973333Y-82404761D01*
X127973333Y-82595238D01*
X128020952Y-82690476D01*
X128068571Y-82738095D01*
X128163809Y-82785714D01*
G04 #@! TO.C,R7*
X136723380Y-83166666D02*
X136247190Y-83500000D01*
X136723380Y-83738095D02*
X135723380Y-83738095D01*
X135723380Y-83357142D01*
X135771000Y-83261904D01*
X135818619Y-83214285D01*
X135913857Y-83166666D01*
X136056714Y-83166666D01*
X136151952Y-83214285D01*
X136199571Y-83261904D01*
X136247190Y-83357142D01*
X136247190Y-83738095D01*
X135723380Y-82833333D02*
X135723380Y-82166666D01*
X136723380Y-82595238D01*
G04 #@! TO.C,R8*
X163904380Y-83166666D02*
X163428190Y-83500000D01*
X163904380Y-83738095D02*
X162904380Y-83738095D01*
X162904380Y-83357142D01*
X162952000Y-83261904D01*
X162999619Y-83214285D01*
X163094857Y-83166666D01*
X163237714Y-83166666D01*
X163332952Y-83214285D01*
X163380571Y-83261904D01*
X163428190Y-83357142D01*
X163428190Y-83738095D01*
X163332952Y-82595238D02*
X163285333Y-82690476D01*
X163237714Y-82738095D01*
X163142476Y-82785714D01*
X163094857Y-82785714D01*
X162999619Y-82738095D01*
X162952000Y-82690476D01*
X162904380Y-82595238D01*
X162904380Y-82404761D01*
X162952000Y-82309523D01*
X162999619Y-82261904D01*
X163094857Y-82214285D01*
X163142476Y-82214285D01*
X163237714Y-82261904D01*
X163285333Y-82309523D01*
X163332952Y-82404761D01*
X163332952Y-82595238D01*
X163380571Y-82690476D01*
X163428190Y-82738095D01*
X163523428Y-82785714D01*
X163713904Y-82785714D01*
X163809142Y-82738095D01*
X163856761Y-82690476D01*
X163904380Y-82595238D01*
X163904380Y-82404761D01*
X163856761Y-82309523D01*
X163809142Y-82261904D01*
X163713904Y-82214285D01*
X163523428Y-82214285D01*
X163428190Y-82261904D01*
X163380571Y-82309523D01*
X163332952Y-82404761D01*
G04 #@! TO.C,Q1*
X122952380Y-86904761D02*
X123000000Y-86809523D01*
X123095238Y-86714285D01*
X123238095Y-86571428D01*
X123285714Y-86476190D01*
X123285714Y-86380952D01*
X123047619Y-86428571D02*
X123095238Y-86333333D01*
X123190476Y-86238095D01*
X123380952Y-86190476D01*
X123714285Y-86190476D01*
X123904761Y-86238095D01*
X124000000Y-86333333D01*
X124047619Y-86428571D01*
X124047619Y-86619047D01*
X124000000Y-86714285D01*
X123904761Y-86809523D01*
X123714285Y-86857142D01*
X123380952Y-86857142D01*
X123190476Y-86809523D01*
X123095238Y-86714285D01*
X123047619Y-86619047D01*
X123047619Y-86428571D01*
X123047619Y-87809523D02*
X123047619Y-87238095D01*
X123047619Y-87523809D02*
X124047619Y-87523809D01*
X123904761Y-87428571D01*
X123809523Y-87333333D01*
X123761904Y-87238095D01*
G04 #@! TO.C,Q2*
X124547619Y-90595238D02*
X124500000Y-90690476D01*
X124404761Y-90785714D01*
X124261904Y-90928571D01*
X124214285Y-91023809D01*
X124214285Y-91119047D01*
X124452380Y-91071428D02*
X124404761Y-91166666D01*
X124309523Y-91261904D01*
X124119047Y-91309523D01*
X123785714Y-91309523D01*
X123595238Y-91261904D01*
X123500000Y-91166666D01*
X123452380Y-91071428D01*
X123452380Y-90880952D01*
X123500000Y-90785714D01*
X123595238Y-90690476D01*
X123785714Y-90642857D01*
X124119047Y-90642857D01*
X124309523Y-90690476D01*
X124404761Y-90785714D01*
X124452380Y-90880952D01*
X124452380Y-91071428D01*
X123547619Y-90261904D02*
X123500000Y-90214285D01*
X123452380Y-90119047D01*
X123452380Y-89880952D01*
X123500000Y-89785714D01*
X123547619Y-89738095D01*
X123642857Y-89690476D01*
X123738095Y-89690476D01*
X123880952Y-89738095D01*
X124452380Y-90309523D01*
X124452380Y-89690476D01*
G04 #@! TO.C,Q3*
X147952380Y-86904761D02*
X148000000Y-86809523D01*
X148095238Y-86714285D01*
X148238095Y-86571428D01*
X148285714Y-86476190D01*
X148285714Y-86380952D01*
X148047619Y-86428571D02*
X148095238Y-86333333D01*
X148190476Y-86238095D01*
X148380952Y-86190476D01*
X148714285Y-86190476D01*
X148904761Y-86238095D01*
X149000000Y-86333333D01*
X149047619Y-86428571D01*
X149047619Y-86619047D01*
X149000000Y-86714285D01*
X148904761Y-86809523D01*
X148714285Y-86857142D01*
X148380952Y-86857142D01*
X148190476Y-86809523D01*
X148095238Y-86714285D01*
X148047619Y-86619047D01*
X148047619Y-86428571D01*
X149047619Y-87190476D02*
X149047619Y-87809523D01*
X148666666Y-87476190D01*
X148666666Y-87619047D01*
X148619047Y-87714285D01*
X148571428Y-87761904D01*
X148476190Y-87809523D01*
X148238095Y-87809523D01*
X148142857Y-87761904D01*
X148095238Y-87714285D01*
X148047619Y-87619047D01*
X148047619Y-87333333D01*
X148095238Y-87238095D01*
X148142857Y-87190476D01*
G04 #@! TO.C,Q4*
X134659619Y-90773238D02*
X134612000Y-90868476D01*
X134516761Y-90963714D01*
X134373904Y-91106571D01*
X134326285Y-91201809D01*
X134326285Y-91297047D01*
X134564380Y-91249428D02*
X134516761Y-91344666D01*
X134421523Y-91439904D01*
X134231047Y-91487523D01*
X133897714Y-91487523D01*
X133707238Y-91439904D01*
X133612000Y-91344666D01*
X133564380Y-91249428D01*
X133564380Y-91058952D01*
X133612000Y-90963714D01*
X133707238Y-90868476D01*
X133897714Y-90820857D01*
X134231047Y-90820857D01*
X134421523Y-90868476D01*
X134516761Y-90963714D01*
X134564380Y-91058952D01*
X134564380Y-91249428D01*
X133897714Y-89963714D02*
X134564380Y-89963714D01*
X133516761Y-90201809D02*
X134231047Y-90439904D01*
X134231047Y-89820857D01*
G04 #@! TO.C,Q5*
X157952380Y-86904761D02*
X158000000Y-86809523D01*
X158095238Y-86714285D01*
X158238095Y-86571428D01*
X158285714Y-86476190D01*
X158285714Y-86380952D01*
X158047619Y-86428571D02*
X158095238Y-86333333D01*
X158190476Y-86238095D01*
X158380952Y-86190476D01*
X158714285Y-86190476D01*
X158904761Y-86238095D01*
X159000000Y-86333333D01*
X159047619Y-86428571D01*
X159047619Y-86619047D01*
X159000000Y-86714285D01*
X158904761Y-86809523D01*
X158714285Y-86857142D01*
X158380952Y-86857142D01*
X158190476Y-86809523D01*
X158095238Y-86714285D01*
X158047619Y-86619047D01*
X158047619Y-86428571D01*
X159047619Y-87761904D02*
X159047619Y-87285714D01*
X158571428Y-87238095D01*
X158619047Y-87285714D01*
X158666666Y-87380952D01*
X158666666Y-87619047D01*
X158619047Y-87714285D01*
X158571428Y-87761904D01*
X158476190Y-87809523D01*
X158238095Y-87809523D01*
X158142857Y-87761904D01*
X158095238Y-87714285D01*
X158047619Y-87619047D01*
X158047619Y-87380952D01*
X158095238Y-87285714D01*
X158142857Y-87238095D01*
G04 #@! TO.C,Q6*
X159547619Y-90595238D02*
X159500000Y-90690476D01*
X159404761Y-90785714D01*
X159261904Y-90928571D01*
X159214285Y-91023809D01*
X159214285Y-91119047D01*
X159452380Y-91071428D02*
X159404761Y-91166666D01*
X159309523Y-91261904D01*
X159119047Y-91309523D01*
X158785714Y-91309523D01*
X158595238Y-91261904D01*
X158500000Y-91166666D01*
X158452380Y-91071428D01*
X158452380Y-90880952D01*
X158500000Y-90785714D01*
X158595238Y-90690476D01*
X158785714Y-90642857D01*
X159119047Y-90642857D01*
X159309523Y-90690476D01*
X159404761Y-90785714D01*
X159452380Y-90880952D01*
X159452380Y-91071428D01*
X158452380Y-89785714D02*
X158452380Y-89976190D01*
X158500000Y-90071428D01*
X158547619Y-90119047D01*
X158690476Y-90214285D01*
X158880952Y-90261904D01*
X159261904Y-90261904D01*
X159357142Y-90214285D01*
X159404761Y-90166666D01*
X159452380Y-90071428D01*
X159452380Y-89880952D01*
X159404761Y-89785714D01*
X159357142Y-89738095D01*
X159261904Y-89690476D01*
X159023809Y-89690476D01*
X158928571Y-89738095D01*
X158880952Y-89785714D01*
X158833333Y-89880952D01*
X158833333Y-90071428D01*
X158880952Y-90166666D01*
X158928571Y-90214285D01*
X159023809Y-90261904D01*
G04 #@! TO.C,C9*
X117979167Y-58122130D02*
X117931548Y-58074511D01*
X117883929Y-57931654D01*
X117883929Y-57836416D01*
X117931548Y-57693558D01*
X118026786Y-57598320D01*
X118122024Y-57550701D01*
X118312500Y-57503082D01*
X118455357Y-57503082D01*
X118645833Y-57550701D01*
X118741071Y-57598320D01*
X118836310Y-57693558D01*
X118883929Y-57836416D01*
X118883929Y-57931654D01*
X118836310Y-58074511D01*
X118788690Y-58122130D01*
X117883929Y-58598320D02*
X117883929Y-58788797D01*
X117931548Y-58884035D01*
X117979167Y-58931654D01*
X118122024Y-59026892D01*
X118312500Y-59074511D01*
X118693452Y-59074511D01*
X118788690Y-59026892D01*
X118836310Y-58979273D01*
X118883929Y-58884035D01*
X118883929Y-58693558D01*
X118836310Y-58598320D01*
X118788690Y-58550701D01*
X118693452Y-58503082D01*
X118455357Y-58503082D01*
X118360119Y-58550701D01*
X118312500Y-58598320D01*
X118264881Y-58693558D01*
X118264881Y-58884035D01*
X118312500Y-58979273D01*
X118360119Y-59026892D01*
X118455357Y-59074511D01*
G04 #@! TO.C,C10*
X117979167Y-60947939D02*
X117931548Y-60900320D01*
X117883929Y-60757463D01*
X117883929Y-60662225D01*
X117931548Y-60519368D01*
X118026786Y-60424130D01*
X118122024Y-60376511D01*
X118312500Y-60328892D01*
X118455357Y-60328892D01*
X118645833Y-60376511D01*
X118741071Y-60424130D01*
X118836310Y-60519368D01*
X118883929Y-60662225D01*
X118883929Y-60757463D01*
X118836310Y-60900320D01*
X118788690Y-60947939D01*
X117883929Y-61900320D02*
X117883929Y-61328892D01*
X117883929Y-61614606D02*
X118883929Y-61614606D01*
X118741071Y-61519368D01*
X118645833Y-61424130D01*
X118598214Y-61328892D01*
X118883929Y-62519368D02*
X118883929Y-62614606D01*
X118836310Y-62709844D01*
X118788690Y-62757463D01*
X118693452Y-62805082D01*
X118502976Y-62852701D01*
X118264881Y-62852701D01*
X118074405Y-62805082D01*
X117979167Y-62757463D01*
X117931548Y-62709844D01*
X117883929Y-62614606D01*
X117883929Y-62519368D01*
X117931548Y-62424130D01*
X117979167Y-62376511D01*
X118074405Y-62328892D01*
X118264881Y-62281273D01*
X118502976Y-62281273D01*
X118693452Y-62328892D01*
X118788690Y-62376511D01*
X118836310Y-62424130D01*
X118883929Y-62519368D01*
G04 #@! TO.C,J2*
X123336976Y-55861177D02*
X123336976Y-56575463D01*
X123289357Y-56718320D01*
X123194119Y-56813558D01*
X123051262Y-56861177D01*
X122956024Y-56861177D01*
X123765548Y-55956416D02*
X123813167Y-55908797D01*
X123908405Y-55861177D01*
X124146500Y-55861177D01*
X124241738Y-55908797D01*
X124289357Y-55956416D01*
X124336976Y-56051654D01*
X124336976Y-56146892D01*
X124289357Y-56289749D01*
X123717929Y-56861177D01*
X124336976Y-56861177D01*
G04 #@! TO.C,C_DVDD1*
X139279133Y-66082677D02*
X139231514Y-66130296D01*
X139088657Y-66177915D01*
X138993419Y-66177915D01*
X138850562Y-66130296D01*
X138755324Y-66035058D01*
X138707704Y-65939820D01*
X138660085Y-65749344D01*
X138660085Y-65606487D01*
X138707704Y-65416011D01*
X138755324Y-65320773D01*
X138850562Y-65225535D01*
X138993419Y-65177915D01*
X139088657Y-65177915D01*
X139231514Y-65225535D01*
X139279133Y-65273154D01*
X139469609Y-66273154D02*
X140231514Y-66273154D01*
X140469609Y-66177915D02*
X140469609Y-65177915D01*
X140707704Y-65177915D01*
X140850562Y-65225535D01*
X140945800Y-65320773D01*
X140993419Y-65416011D01*
X141041038Y-65606487D01*
X141041038Y-65749344D01*
X140993419Y-65939820D01*
X140945800Y-66035058D01*
X140850562Y-66130296D01*
X140707704Y-66177915D01*
X140469609Y-66177915D01*
X141326752Y-65177915D02*
X141660085Y-66177915D01*
X141993419Y-65177915D01*
X142326752Y-66177915D02*
X142326752Y-65177915D01*
X142564847Y-65177915D01*
X142707704Y-65225535D01*
X142802943Y-65320773D01*
X142850562Y-65416011D01*
X142898181Y-65606487D01*
X142898181Y-65749344D01*
X142850562Y-65939820D01*
X142802943Y-66035058D01*
X142707704Y-66130296D01*
X142564847Y-66177915D01*
X142326752Y-66177915D01*
X143326752Y-66177915D02*
X143326752Y-65177915D01*
X143564847Y-65177915D01*
X143707704Y-65225535D01*
X143802943Y-65320773D01*
X143850562Y-65416011D01*
X143898181Y-65606487D01*
X143898181Y-65749344D01*
X143850562Y-65939820D01*
X143802943Y-66035058D01*
X143707704Y-66130296D01*
X143564847Y-66177915D01*
X143326752Y-66177915D01*
X144850562Y-66177915D02*
X144279133Y-66177915D01*
X144564847Y-66177915D02*
X144564847Y-65177915D01*
X144469609Y-65320773D01*
X144374371Y-65416011D01*
X144279133Y-65463630D01*
G04 #@! TO.C,C_SW1*
X130936466Y-75321773D02*
X130984085Y-75369392D01*
X131031704Y-75512249D01*
X131031704Y-75607487D01*
X130984085Y-75750344D01*
X130888847Y-75845582D01*
X130793609Y-75893201D01*
X130603133Y-75940820D01*
X130460276Y-75940820D01*
X130269800Y-75893201D01*
X130174562Y-75845582D01*
X130079324Y-75750344D01*
X130031704Y-75607487D01*
X130031704Y-75512249D01*
X130079324Y-75369392D01*
X130126943Y-75321773D01*
X131126943Y-75131296D02*
X131126943Y-74369392D01*
X130984085Y-74178915D02*
X131031704Y-74036058D01*
X131031704Y-73797963D01*
X130984085Y-73702725D01*
X130936466Y-73655106D01*
X130841228Y-73607487D01*
X130745990Y-73607487D01*
X130650752Y-73655106D01*
X130603133Y-73702725D01*
X130555514Y-73797963D01*
X130507895Y-73988439D01*
X130460276Y-74083677D01*
X130412657Y-74131296D01*
X130317419Y-74178915D01*
X130222181Y-74178915D01*
X130126943Y-74131296D01*
X130079324Y-74083677D01*
X130031704Y-73988439D01*
X130031704Y-73750344D01*
X130079324Y-73607487D01*
X130031704Y-73274154D02*
X131031704Y-73036058D01*
X130317419Y-72845582D01*
X131031704Y-72655106D01*
X130031704Y-72417011D01*
X131031704Y-71512249D02*
X131031704Y-72083677D01*
X131031704Y-71797963D02*
X130031704Y-71797963D01*
X130174562Y-71893201D01*
X130269800Y-71988439D01*
X130317419Y-72083677D01*
G04 #@! TO.C,C_VCP1*
X127309809Y-64111142D02*
X127262190Y-64158761D01*
X127119333Y-64206380D01*
X127024095Y-64206380D01*
X126881238Y-64158761D01*
X126786000Y-64063523D01*
X126738380Y-63968285D01*
X126690761Y-63777809D01*
X126690761Y-63634952D01*
X126738380Y-63444476D01*
X126786000Y-63349238D01*
X126881238Y-63254000D01*
X127024095Y-63206380D01*
X127119333Y-63206380D01*
X127262190Y-63254000D01*
X127309809Y-63301619D01*
X127500285Y-64301619D02*
X128262190Y-64301619D01*
X128357428Y-63206380D02*
X128690761Y-64206380D01*
X129024095Y-63206380D01*
X129928857Y-64111142D02*
X129881238Y-64158761D01*
X129738380Y-64206380D01*
X129643142Y-64206380D01*
X129500285Y-64158761D01*
X129405047Y-64063523D01*
X129357428Y-63968285D01*
X129309809Y-63777809D01*
X129309809Y-63634952D01*
X129357428Y-63444476D01*
X129405047Y-63349238D01*
X129500285Y-63254000D01*
X129643142Y-63206380D01*
X129738380Y-63206380D01*
X129881238Y-63254000D01*
X129928857Y-63301619D01*
X130357428Y-64206380D02*
X130357428Y-63206380D01*
X130738380Y-63206380D01*
X130833619Y-63254000D01*
X130881238Y-63301619D01*
X130928857Y-63396857D01*
X130928857Y-63539714D01*
X130881238Y-63634952D01*
X130833619Y-63682571D01*
X130738380Y-63730190D01*
X130357428Y-63730190D01*
X131881238Y-64206380D02*
X131309809Y-64206380D01*
X131595523Y-64206380D02*
X131595523Y-63206380D01*
X131500285Y-63349238D01*
X131405047Y-63444476D01*
X131309809Y-63492095D01*
G04 #@! TO.C,C_VM1*
X127428181Y-72051915D02*
X127380562Y-72004296D01*
X127332943Y-71861439D01*
X127332943Y-71766201D01*
X127380562Y-71623344D01*
X127475800Y-71528106D01*
X127571038Y-71480487D01*
X127761514Y-71432868D01*
X127904371Y-71432868D01*
X128094847Y-71480487D01*
X128190085Y-71528106D01*
X128285324Y-71623344D01*
X128332943Y-71766201D01*
X128332943Y-71861439D01*
X128285324Y-72004296D01*
X128237704Y-72051915D01*
X127237704Y-72242392D02*
X127237704Y-73004296D01*
X128332943Y-73099535D02*
X127332943Y-73432868D01*
X128332943Y-73766201D01*
X127332943Y-74099535D02*
X128332943Y-74099535D01*
X127618657Y-74432868D01*
X128332943Y-74766201D01*
X127332943Y-74766201D01*
X127332943Y-75766201D02*
X127332943Y-75194773D01*
X127332943Y-75480487D02*
X128332943Y-75480487D01*
X128190085Y-75385249D01*
X128094847Y-75290011D01*
X128047228Y-75194773D01*
G04 #@! TO.C,C1*
X119213333Y-81858142D02*
X119165714Y-81905761D01*
X119022857Y-81953380D01*
X118927619Y-81953380D01*
X118784761Y-81905761D01*
X118689523Y-81810523D01*
X118641904Y-81715285D01*
X118594285Y-81524809D01*
X118594285Y-81381952D01*
X118641904Y-81191476D01*
X118689523Y-81096238D01*
X118784761Y-81001000D01*
X118927619Y-80953380D01*
X119022857Y-80953380D01*
X119165714Y-81001000D01*
X119213333Y-81048619D01*
X120165714Y-81953380D02*
X119594285Y-81953380D01*
X119880000Y-81953380D02*
X119880000Y-80953380D01*
X119784761Y-81096238D01*
X119689523Y-81191476D01*
X119594285Y-81239095D01*
G04 #@! TO.C,C2*
X145629333Y-84591142D02*
X145581714Y-84638761D01*
X145438857Y-84686380D01*
X145343619Y-84686380D01*
X145200761Y-84638761D01*
X145105523Y-84543523D01*
X145057904Y-84448285D01*
X145010285Y-84257809D01*
X145010285Y-84114952D01*
X145057904Y-83924476D01*
X145105523Y-83829238D01*
X145200761Y-83734000D01*
X145343619Y-83686380D01*
X145438857Y-83686380D01*
X145581714Y-83734000D01*
X145629333Y-83781619D01*
X146010285Y-83781619D02*
X146057904Y-83734000D01*
X146153142Y-83686380D01*
X146391238Y-83686380D01*
X146486476Y-83734000D01*
X146534095Y-83781619D01*
X146581714Y-83876857D01*
X146581714Y-83972095D01*
X146534095Y-84114952D01*
X145962666Y-84686380D01*
X146581714Y-84686380D01*
G04 #@! TO.C,C3*
X153757333Y-81731142D02*
X153709714Y-81778761D01*
X153566857Y-81826380D01*
X153471619Y-81826380D01*
X153328761Y-81778761D01*
X153233523Y-81683523D01*
X153185904Y-81588285D01*
X153138285Y-81397809D01*
X153138285Y-81254952D01*
X153185904Y-81064476D01*
X153233523Y-80969238D01*
X153328761Y-80874000D01*
X153471619Y-80826380D01*
X153566857Y-80826380D01*
X153709714Y-80874000D01*
X153757333Y-80921619D01*
X154090666Y-80826380D02*
X154709714Y-80826380D01*
X154376380Y-81207333D01*
X154519238Y-81207333D01*
X154614476Y-81254952D01*
X154662095Y-81302571D01*
X154709714Y-81397809D01*
X154709714Y-81635904D01*
X154662095Y-81731142D01*
X154614476Y-81778761D01*
X154519238Y-81826380D01*
X154233523Y-81826380D01*
X154138285Y-81778761D01*
X154090666Y-81731142D01*
G04 #@! TO.C,J3*
X144002380Y-52657333D02*
X144716666Y-52657333D01*
X144859523Y-52704952D01*
X144954761Y-52800190D01*
X145002380Y-52943047D01*
X145002380Y-53038285D01*
X144002380Y-52276380D02*
X144002380Y-51657333D01*
X144383333Y-51990666D01*
X144383333Y-51847809D01*
X144430952Y-51752571D01*
X144478571Y-51704952D01*
X144573809Y-51657333D01*
X144811904Y-51657333D01*
X144907142Y-51704952D01*
X144954761Y-51752571D01*
X145002380Y-51847809D01*
X145002380Y-52133523D01*
X144954761Y-52228761D01*
X144907142Y-52276380D01*
G04 #@! TO.C,J4*
X164766666Y-54594380D02*
X164766666Y-55308666D01*
X164719047Y-55451523D01*
X164623809Y-55546761D01*
X164480952Y-55594380D01*
X164385714Y-55594380D01*
X165671428Y-54927714D02*
X165671428Y-55594380D01*
X165433333Y-54546761D02*
X165195238Y-55261047D01*
X165814285Y-55261047D01*
G04 #@! TO.C,L1*
X139533333Y-54052380D02*
X139057142Y-54052380D01*
X139057142Y-53052380D01*
X140390476Y-54052380D02*
X139819047Y-54052380D01*
X140104761Y-54052380D02*
X140104761Y-53052380D01*
X140009523Y-53195238D01*
X139914285Y-53290476D01*
X139819047Y-53338095D01*
G04 #@! TD*
M02*
