G04 #@! TF.GenerationSoftware,KiCad,Pcbnew,(5.0.2)-1*
G04 #@! TF.CreationDate,2019-09-02T17:49:36+08:00*
G04 #@! TF.ProjectId,actuator,61637475-6174-46f7-922e-6b696361645f,rev?*
G04 #@! TF.SameCoordinates,Original*
G04 #@! TF.FileFunction,Soldermask,Top*
G04 #@! TF.FilePolarity,Negative*
%FSLAX46Y46*%
G04 Gerber Fmt 4.6, Leading zero omitted, Abs format (unit mm)*
G04 Created by KiCad (PCBNEW (5.0.2)-1) date 9/2/2019 5:49:36 PM*
%MOMM*%
%LPD*%
G01*
G04 APERTURE LIST*
%ADD10C,0.100000*%
G04 APERTURE END LIST*
D10*
G36*
X142532632Y-95799677D02*
X142964495Y-95978561D01*
X143269868Y-96105050D01*
X143928889Y-96545394D01*
X143933365Y-96548385D01*
X144497615Y-97112635D01*
X144497617Y-97112638D01*
X144940950Y-97776132D01*
X144940950Y-97776133D01*
X145246323Y-98513368D01*
X145402000Y-99296010D01*
X145402000Y-100093990D01*
X145246323Y-100876632D01*
X145225227Y-100927561D01*
X144940950Y-101613868D01*
X144500606Y-102272889D01*
X144497615Y-102277365D01*
X143933365Y-102841615D01*
X143933362Y-102841617D01*
X143269868Y-103284950D01*
X143092372Y-103358471D01*
X143070764Y-103370021D01*
X143051822Y-103385567D01*
X143036276Y-103404509D01*
X142944114Y-103542439D01*
X142658439Y-103828114D01*
X142658436Y-103828116D01*
X142322513Y-104052573D01*
X141949255Y-104207181D01*
X141949254Y-104207181D01*
X141949252Y-104207182D01*
X141553007Y-104286000D01*
X141148993Y-104286000D01*
X140752748Y-104207182D01*
X140752746Y-104207181D01*
X140752745Y-104207181D01*
X140379487Y-104052573D01*
X140043564Y-103828116D01*
X140043561Y-103828114D01*
X139757886Y-103542439D01*
X139665724Y-103404509D01*
X139650178Y-103385567D01*
X139631236Y-103370021D01*
X139609628Y-103358471D01*
X139432132Y-103284950D01*
X138768638Y-102841617D01*
X138768635Y-102841615D01*
X138204385Y-102277365D01*
X138201394Y-102272889D01*
X137761050Y-101613868D01*
X137476773Y-100927561D01*
X137455677Y-100876632D01*
X137300000Y-100093990D01*
X137300000Y-99296010D01*
X137455677Y-98513368D01*
X137761050Y-97776133D01*
X137761050Y-97776132D01*
X138204383Y-97112638D01*
X138204385Y-97112635D01*
X138768635Y-96548385D01*
X138773111Y-96545394D01*
X139432132Y-96105050D01*
X139737505Y-95978561D01*
X140169368Y-95799677D01*
X140952010Y-95644000D01*
X141749990Y-95644000D01*
X142532632Y-95799677D01*
X142532632Y-95799677D01*
G37*
G36*
X132372632Y-95799677D02*
X132804495Y-95978561D01*
X133109868Y-96105050D01*
X133768889Y-96545394D01*
X133773365Y-96548385D01*
X134337615Y-97112635D01*
X134337617Y-97112638D01*
X134780950Y-97776132D01*
X134780950Y-97776133D01*
X135086323Y-98513368D01*
X135242000Y-99296010D01*
X135242000Y-100093990D01*
X135130360Y-100655243D01*
X135127958Y-100679629D01*
X135130360Y-100704015D01*
X135137473Y-100727464D01*
X135149024Y-100749075D01*
X135164570Y-100768017D01*
X135324114Y-100927561D01*
X135324116Y-100927564D01*
X135548573Y-101263487D01*
X135703181Y-101636745D01*
X135782000Y-102032994D01*
X135782000Y-102437006D01*
X135703181Y-102833255D01*
X135548573Y-103206513D01*
X135496163Y-103284950D01*
X135324114Y-103542439D01*
X135038439Y-103828114D01*
X135038436Y-103828116D01*
X134702513Y-104052573D01*
X134329255Y-104207181D01*
X134329254Y-104207181D01*
X134329252Y-104207182D01*
X133933007Y-104286000D01*
X133528993Y-104286000D01*
X133132748Y-104207182D01*
X133132746Y-104207181D01*
X133132745Y-104207181D01*
X132759487Y-104052573D01*
X132423564Y-103828116D01*
X132423561Y-103828114D01*
X132264017Y-103668570D01*
X132245075Y-103653024D01*
X132223464Y-103641473D01*
X132200015Y-103634360D01*
X132175629Y-103631958D01*
X132151243Y-103634360D01*
X131589990Y-103746000D01*
X130792010Y-103746000D01*
X130009368Y-103590323D01*
X129477512Y-103370021D01*
X129272132Y-103284950D01*
X128608638Y-102841617D01*
X128608635Y-102841615D01*
X128044385Y-102277365D01*
X128041394Y-102272889D01*
X127601050Y-101613868D01*
X127316773Y-100927561D01*
X127295677Y-100876632D01*
X127140000Y-100093990D01*
X127140000Y-99296010D01*
X127295677Y-98513368D01*
X127601050Y-97776133D01*
X127601050Y-97776132D01*
X128044383Y-97112638D01*
X128044385Y-97112635D01*
X128608635Y-96548385D01*
X128613111Y-96545394D01*
X129272132Y-96105050D01*
X129577505Y-95978561D01*
X130009368Y-95799677D01*
X130792010Y-95644000D01*
X131589990Y-95644000D01*
X132372632Y-95799677D01*
X132372632Y-95799677D01*
G37*
G36*
X152692632Y-95799677D02*
X153124495Y-95978561D01*
X153429868Y-96105050D01*
X154088889Y-96545394D01*
X154093365Y-96548385D01*
X154657615Y-97112635D01*
X154657617Y-97112638D01*
X155100950Y-97776132D01*
X155100950Y-97776133D01*
X155406323Y-98513368D01*
X155562000Y-99296010D01*
X155562000Y-100093990D01*
X155406323Y-100876632D01*
X155385227Y-100927561D01*
X155100950Y-101613868D01*
X154660606Y-102272889D01*
X154657615Y-102277365D01*
X154093365Y-102841615D01*
X154093362Y-102841617D01*
X153429868Y-103284950D01*
X153224488Y-103370021D01*
X152692632Y-103590323D01*
X151909990Y-103746000D01*
X151112010Y-103746000D01*
X150550757Y-103634360D01*
X150526371Y-103631958D01*
X150501985Y-103634360D01*
X150478536Y-103641473D01*
X150456925Y-103653024D01*
X150437983Y-103668570D01*
X150278439Y-103828114D01*
X150278436Y-103828116D01*
X149942513Y-104052573D01*
X149569255Y-104207181D01*
X149569254Y-104207181D01*
X149569252Y-104207182D01*
X149173007Y-104286000D01*
X148768993Y-104286000D01*
X148372748Y-104207182D01*
X148372746Y-104207181D01*
X148372745Y-104207181D01*
X147999487Y-104052573D01*
X147663564Y-103828116D01*
X147663561Y-103828114D01*
X147377886Y-103542439D01*
X147205837Y-103284950D01*
X147153427Y-103206513D01*
X146998819Y-102833255D01*
X146920000Y-102437006D01*
X146920000Y-102032994D01*
X146998819Y-101636745D01*
X147153427Y-101263487D01*
X147377884Y-100927564D01*
X147377886Y-100927561D01*
X147537430Y-100768017D01*
X147552976Y-100749075D01*
X147564527Y-100727464D01*
X147571640Y-100704015D01*
X147574042Y-100679629D01*
X147571640Y-100655243D01*
X147460000Y-100093990D01*
X147460000Y-99296010D01*
X147615677Y-98513368D01*
X147921050Y-97776133D01*
X147921050Y-97776132D01*
X148364383Y-97112638D01*
X148364385Y-97112635D01*
X148928635Y-96548385D01*
X148933111Y-96545394D01*
X149592132Y-96105050D01*
X149897505Y-95978561D01*
X150329368Y-95799677D01*
X151112010Y-95644000D01*
X151909990Y-95644000D01*
X152692632Y-95799677D01*
X152692632Y-95799677D01*
G37*
G36*
X129831000Y-87759000D02*
X129833402Y-87783386D01*
X129840515Y-87806835D01*
X129852066Y-87828446D01*
X129867612Y-87847388D01*
X129886554Y-87862934D01*
X129908165Y-87874485D01*
X129931614Y-87881598D01*
X129956000Y-87884000D01*
X130326000Y-87884000D01*
X130326000Y-88891000D01*
X129956000Y-88891000D01*
X129931614Y-88893402D01*
X129908165Y-88900515D01*
X129886554Y-88912066D01*
X129867612Y-88927612D01*
X129852066Y-88946554D01*
X129840515Y-88968165D01*
X129833402Y-88991614D01*
X129831000Y-89016000D01*
X129831000Y-92081000D01*
X128979000Y-92081000D01*
X128979000Y-91731000D01*
X128976598Y-91706614D01*
X128969485Y-91683165D01*
X128957934Y-91661554D01*
X128942388Y-91642612D01*
X128923446Y-91627066D01*
X128901835Y-91615515D01*
X128878386Y-91608402D01*
X128854000Y-91606000D01*
X126146000Y-91606000D01*
X126121614Y-91608402D01*
X126098165Y-91615515D01*
X126076554Y-91627066D01*
X126057612Y-91642612D01*
X126042066Y-91661554D01*
X126030515Y-91683165D01*
X126023402Y-91706614D01*
X126021000Y-91731000D01*
X126021000Y-92081000D01*
X125169000Y-92081000D01*
X125169000Y-89016000D01*
X125166598Y-88991614D01*
X125159485Y-88968165D01*
X125147934Y-88946554D01*
X125132388Y-88927612D01*
X125113446Y-88912066D01*
X125091835Y-88900515D01*
X125068386Y-88893402D01*
X125044000Y-88891000D01*
X124674000Y-88891000D01*
X124674000Y-87884000D01*
X125044000Y-87884000D01*
X125068386Y-87881598D01*
X125091835Y-87874485D01*
X125113446Y-87862934D01*
X125132388Y-87847388D01*
X125147934Y-87828446D01*
X125159485Y-87806835D01*
X125166598Y-87783386D01*
X125169000Y-87759000D01*
X125169000Y-87449000D01*
X129831000Y-87449000D01*
X129831000Y-87759000D01*
X129831000Y-87759000D01*
G37*
G36*
X139831000Y-87759000D02*
X139833402Y-87783386D01*
X139840515Y-87806835D01*
X139852066Y-87828446D01*
X139867612Y-87847388D01*
X139886554Y-87862934D01*
X139908165Y-87874485D01*
X139931614Y-87881598D01*
X139956000Y-87884000D01*
X140326000Y-87884000D01*
X140326000Y-88891000D01*
X139956000Y-88891000D01*
X139931614Y-88893402D01*
X139908165Y-88900515D01*
X139886554Y-88912066D01*
X139867612Y-88927612D01*
X139852066Y-88946554D01*
X139840515Y-88968165D01*
X139833402Y-88991614D01*
X139831000Y-89016000D01*
X139831000Y-92081000D01*
X138979000Y-92081000D01*
X138979000Y-91731000D01*
X138976598Y-91706614D01*
X138969485Y-91683165D01*
X138957934Y-91661554D01*
X138942388Y-91642612D01*
X138923446Y-91627066D01*
X138901835Y-91615515D01*
X138878386Y-91608402D01*
X138854000Y-91606000D01*
X136146000Y-91606000D01*
X136121614Y-91608402D01*
X136098165Y-91615515D01*
X136076554Y-91627066D01*
X136057612Y-91642612D01*
X136042066Y-91661554D01*
X136030515Y-91683165D01*
X136023402Y-91706614D01*
X136021000Y-91731000D01*
X136021000Y-92081000D01*
X135169000Y-92081000D01*
X135169000Y-89016000D01*
X135166598Y-88991614D01*
X135159485Y-88968165D01*
X135147934Y-88946554D01*
X135132388Y-88927612D01*
X135113446Y-88912066D01*
X135091835Y-88900515D01*
X135068386Y-88893402D01*
X135044000Y-88891000D01*
X134674000Y-88891000D01*
X134674000Y-87884000D01*
X135044000Y-87884000D01*
X135068386Y-87881598D01*
X135091835Y-87874485D01*
X135113446Y-87862934D01*
X135132388Y-87847388D01*
X135147934Y-87828446D01*
X135159485Y-87806835D01*
X135166598Y-87783386D01*
X135169000Y-87759000D01*
X135169000Y-87449000D01*
X139831000Y-87449000D01*
X139831000Y-87759000D01*
X139831000Y-87759000D01*
G37*
G36*
X164831000Y-87759000D02*
X164833402Y-87783386D01*
X164840515Y-87806835D01*
X164852066Y-87828446D01*
X164867612Y-87847388D01*
X164886554Y-87862934D01*
X164908165Y-87874485D01*
X164931614Y-87881598D01*
X164956000Y-87884000D01*
X165326000Y-87884000D01*
X165326000Y-88891000D01*
X164956000Y-88891000D01*
X164931614Y-88893402D01*
X164908165Y-88900515D01*
X164886554Y-88912066D01*
X164867612Y-88927612D01*
X164852066Y-88946554D01*
X164840515Y-88968165D01*
X164833402Y-88991614D01*
X164831000Y-89016000D01*
X164831000Y-92081000D01*
X163979000Y-92081000D01*
X163979000Y-91731000D01*
X163976598Y-91706614D01*
X163969485Y-91683165D01*
X163957934Y-91661554D01*
X163942388Y-91642612D01*
X163923446Y-91627066D01*
X163901835Y-91615515D01*
X163878386Y-91608402D01*
X163854000Y-91606000D01*
X161146000Y-91606000D01*
X161121614Y-91608402D01*
X161098165Y-91615515D01*
X161076554Y-91627066D01*
X161057612Y-91642612D01*
X161042066Y-91661554D01*
X161030515Y-91683165D01*
X161023402Y-91706614D01*
X161021000Y-91731000D01*
X161021000Y-92081000D01*
X160169000Y-92081000D01*
X160169000Y-89016000D01*
X160166598Y-88991614D01*
X160159485Y-88968165D01*
X160147934Y-88946554D01*
X160132388Y-88927612D01*
X160113446Y-88912066D01*
X160091835Y-88900515D01*
X160068386Y-88893402D01*
X160044000Y-88891000D01*
X159674000Y-88891000D01*
X159674000Y-87884000D01*
X160044000Y-87884000D01*
X160068386Y-87881598D01*
X160091835Y-87874485D01*
X160113446Y-87862934D01*
X160132388Y-87847388D01*
X160147934Y-87828446D01*
X160159485Y-87806835D01*
X160166598Y-87783386D01*
X160169000Y-87759000D01*
X160169000Y-87449000D01*
X164831000Y-87449000D01*
X164831000Y-87759000D01*
X164831000Y-87759000D01*
G37*
G36*
X146061000Y-92016000D02*
X145209000Y-92016000D01*
X145209000Y-90914000D01*
X146061000Y-90914000D01*
X146061000Y-92016000D01*
X146061000Y-92016000D01*
G37*
G36*
X119791000Y-92016000D02*
X118939000Y-92016000D01*
X118939000Y-90914000D01*
X119791000Y-90914000D01*
X119791000Y-92016000D01*
X119791000Y-92016000D01*
G37*
G36*
X121061000Y-92016000D02*
X120209000Y-92016000D01*
X120209000Y-90914000D01*
X121061000Y-90914000D01*
X121061000Y-92016000D01*
X121061000Y-92016000D01*
G37*
G36*
X118521000Y-92016000D02*
X117669000Y-92016000D01*
X117669000Y-90914000D01*
X118521000Y-90914000D01*
X118521000Y-92016000D01*
X118521000Y-92016000D01*
G37*
G36*
X157331000Y-92016000D02*
X156479000Y-92016000D01*
X156479000Y-90914000D01*
X157331000Y-90914000D01*
X157331000Y-92016000D01*
X157331000Y-92016000D01*
G37*
G36*
X153521000Y-92016000D02*
X152669000Y-92016000D01*
X152669000Y-90914000D01*
X153521000Y-90914000D01*
X153521000Y-92016000D01*
X153521000Y-92016000D01*
G37*
G36*
X144791000Y-92016000D02*
X143939000Y-92016000D01*
X143939000Y-90914000D01*
X144791000Y-90914000D01*
X144791000Y-92016000D01*
X144791000Y-92016000D01*
G37*
G36*
X147331000Y-92016000D02*
X146479000Y-92016000D01*
X146479000Y-90914000D01*
X147331000Y-90914000D01*
X147331000Y-92016000D01*
X147331000Y-92016000D01*
G37*
G36*
X154791000Y-92016000D02*
X153939000Y-92016000D01*
X153939000Y-90914000D01*
X154791000Y-90914000D01*
X154791000Y-92016000D01*
X154791000Y-92016000D01*
G37*
G36*
X156061000Y-92016000D02*
X155209000Y-92016000D01*
X155209000Y-90914000D01*
X156061000Y-90914000D01*
X156061000Y-92016000D01*
X156061000Y-92016000D01*
G37*
G36*
X143521000Y-92016000D02*
X142669000Y-92016000D01*
X142669000Y-90914000D01*
X143521000Y-90914000D01*
X143521000Y-92016000D01*
X143521000Y-92016000D01*
G37*
G36*
X122331000Y-92016000D02*
X121479000Y-92016000D01*
X121479000Y-90914000D01*
X122331000Y-90914000D01*
X122331000Y-92016000D01*
X122331000Y-92016000D01*
G37*
G36*
X153521000Y-85769000D02*
X153523402Y-85793386D01*
X153530515Y-85816835D01*
X153542066Y-85838446D01*
X153557612Y-85857388D01*
X153576554Y-85872934D01*
X153598165Y-85884485D01*
X153621614Y-85891598D01*
X153646000Y-85894000D01*
X156354000Y-85894000D01*
X156378386Y-85891598D01*
X156401835Y-85884485D01*
X156423446Y-85872934D01*
X156442388Y-85857388D01*
X156457934Y-85838446D01*
X156469485Y-85816835D01*
X156476598Y-85793386D01*
X156479000Y-85769000D01*
X156479000Y-85419000D01*
X157331000Y-85419000D01*
X157331000Y-88484000D01*
X157333402Y-88508386D01*
X157340515Y-88531835D01*
X157352066Y-88553446D01*
X157367612Y-88572388D01*
X157386554Y-88587934D01*
X157408165Y-88599485D01*
X157431614Y-88606598D01*
X157456000Y-88609000D01*
X157826000Y-88609000D01*
X157826000Y-89616000D01*
X157456000Y-89616000D01*
X157431614Y-89618402D01*
X157408165Y-89625515D01*
X157386554Y-89637066D01*
X157367612Y-89652612D01*
X157352066Y-89671554D01*
X157340515Y-89693165D01*
X157333402Y-89716614D01*
X157331000Y-89741000D01*
X157331000Y-90051000D01*
X152669000Y-90051000D01*
X152669000Y-89741000D01*
X152666598Y-89716614D01*
X152659485Y-89693165D01*
X152647934Y-89671554D01*
X152632388Y-89652612D01*
X152613446Y-89637066D01*
X152591835Y-89625515D01*
X152568386Y-89618402D01*
X152544000Y-89616000D01*
X152174000Y-89616000D01*
X152174000Y-88609000D01*
X152544000Y-88609000D01*
X152568386Y-88606598D01*
X152591835Y-88599485D01*
X152613446Y-88587934D01*
X152632388Y-88572388D01*
X152647934Y-88553446D01*
X152659485Y-88531835D01*
X152666598Y-88508386D01*
X152669000Y-88484000D01*
X152669000Y-85419000D01*
X153521000Y-85419000D01*
X153521000Y-85769000D01*
X153521000Y-85769000D01*
G37*
G36*
X118521000Y-85769000D02*
X118523402Y-85793386D01*
X118530515Y-85816835D01*
X118542066Y-85838446D01*
X118557612Y-85857388D01*
X118576554Y-85872934D01*
X118598165Y-85884485D01*
X118621614Y-85891598D01*
X118646000Y-85894000D01*
X121354000Y-85894000D01*
X121378386Y-85891598D01*
X121401835Y-85884485D01*
X121423446Y-85872934D01*
X121442388Y-85857388D01*
X121457934Y-85838446D01*
X121469485Y-85816835D01*
X121476598Y-85793386D01*
X121479000Y-85769000D01*
X121479000Y-85419000D01*
X122331000Y-85419000D01*
X122331000Y-88484000D01*
X122333402Y-88508386D01*
X122340515Y-88531835D01*
X122352066Y-88553446D01*
X122367612Y-88572388D01*
X122386554Y-88587934D01*
X122408165Y-88599485D01*
X122431614Y-88606598D01*
X122456000Y-88609000D01*
X122826000Y-88609000D01*
X122826000Y-89616000D01*
X122456000Y-89616000D01*
X122431614Y-89618402D01*
X122408165Y-89625515D01*
X122386554Y-89637066D01*
X122367612Y-89652612D01*
X122352066Y-89671554D01*
X122340515Y-89693165D01*
X122333402Y-89716614D01*
X122331000Y-89741000D01*
X122331000Y-90051000D01*
X117669000Y-90051000D01*
X117669000Y-89741000D01*
X117666598Y-89716614D01*
X117659485Y-89693165D01*
X117647934Y-89671554D01*
X117632388Y-89652612D01*
X117613446Y-89637066D01*
X117591835Y-89625515D01*
X117568386Y-89618402D01*
X117544000Y-89616000D01*
X117174000Y-89616000D01*
X117174000Y-88609000D01*
X117544000Y-88609000D01*
X117568386Y-88606598D01*
X117591835Y-88599485D01*
X117613446Y-88587934D01*
X117632388Y-88572388D01*
X117647934Y-88553446D01*
X117659485Y-88531835D01*
X117666598Y-88508386D01*
X117669000Y-88484000D01*
X117669000Y-85419000D01*
X118521000Y-85419000D01*
X118521000Y-85769000D01*
X118521000Y-85769000D01*
G37*
G36*
X143521000Y-85769000D02*
X143523402Y-85793386D01*
X143530515Y-85816835D01*
X143542066Y-85838446D01*
X143557612Y-85857388D01*
X143576554Y-85872934D01*
X143598165Y-85884485D01*
X143621614Y-85891598D01*
X143646000Y-85894000D01*
X146354000Y-85894000D01*
X146378386Y-85891598D01*
X146401835Y-85884485D01*
X146423446Y-85872934D01*
X146442388Y-85857388D01*
X146457934Y-85838446D01*
X146469485Y-85816835D01*
X146476598Y-85793386D01*
X146479000Y-85769000D01*
X146479000Y-85419000D01*
X147331000Y-85419000D01*
X147331000Y-88484000D01*
X147333402Y-88508386D01*
X147340515Y-88531835D01*
X147352066Y-88553446D01*
X147367612Y-88572388D01*
X147386554Y-88587934D01*
X147408165Y-88599485D01*
X147431614Y-88606598D01*
X147456000Y-88609000D01*
X147826000Y-88609000D01*
X147826000Y-89616000D01*
X147456000Y-89616000D01*
X147431614Y-89618402D01*
X147408165Y-89625515D01*
X147386554Y-89637066D01*
X147367612Y-89652612D01*
X147352066Y-89671554D01*
X147340515Y-89693165D01*
X147333402Y-89716614D01*
X147331000Y-89741000D01*
X147331000Y-90051000D01*
X142669000Y-90051000D01*
X142669000Y-89741000D01*
X142666598Y-89716614D01*
X142659485Y-89693165D01*
X142647934Y-89671554D01*
X142632388Y-89652612D01*
X142613446Y-89637066D01*
X142591835Y-89625515D01*
X142568386Y-89618402D01*
X142544000Y-89616000D01*
X142174000Y-89616000D01*
X142174000Y-88609000D01*
X142544000Y-88609000D01*
X142568386Y-88606598D01*
X142591835Y-88599485D01*
X142613446Y-88587934D01*
X142632388Y-88572388D01*
X142647934Y-88553446D01*
X142659485Y-88531835D01*
X142666598Y-88508386D01*
X142669000Y-88484000D01*
X142669000Y-85419000D01*
X143521000Y-85419000D01*
X143521000Y-85769000D01*
X143521000Y-85769000D01*
G37*
G36*
X164831000Y-86586000D02*
X163979000Y-86586000D01*
X163979000Y-85484000D01*
X164831000Y-85484000D01*
X164831000Y-86586000D01*
X164831000Y-86586000D01*
G37*
G36*
X126021000Y-86586000D02*
X125169000Y-86586000D01*
X125169000Y-85484000D01*
X126021000Y-85484000D01*
X126021000Y-86586000D01*
X126021000Y-86586000D01*
G37*
G36*
X161021000Y-86586000D02*
X160169000Y-86586000D01*
X160169000Y-85484000D01*
X161021000Y-85484000D01*
X161021000Y-86586000D01*
X161021000Y-86586000D01*
G37*
G36*
X127291000Y-86586000D02*
X126439000Y-86586000D01*
X126439000Y-85484000D01*
X127291000Y-85484000D01*
X127291000Y-86586000D01*
X127291000Y-86586000D01*
G37*
G36*
X128561000Y-86586000D02*
X127709000Y-86586000D01*
X127709000Y-85484000D01*
X128561000Y-85484000D01*
X128561000Y-86586000D01*
X128561000Y-86586000D01*
G37*
G36*
X163561000Y-86586000D02*
X162709000Y-86586000D01*
X162709000Y-85484000D01*
X163561000Y-85484000D01*
X163561000Y-86586000D01*
X163561000Y-86586000D01*
G37*
G36*
X162291000Y-86586000D02*
X161439000Y-86586000D01*
X161439000Y-85484000D01*
X162291000Y-85484000D01*
X162291000Y-86586000D01*
X162291000Y-86586000D01*
G37*
G36*
X139831000Y-86586000D02*
X138979000Y-86586000D01*
X138979000Y-85484000D01*
X139831000Y-85484000D01*
X139831000Y-86586000D01*
X139831000Y-86586000D01*
G37*
G36*
X129831000Y-86586000D02*
X128979000Y-86586000D01*
X128979000Y-85484000D01*
X129831000Y-85484000D01*
X129831000Y-86586000D01*
X129831000Y-86586000D01*
G37*
G36*
X136021000Y-86586000D02*
X135169000Y-86586000D01*
X135169000Y-85484000D01*
X136021000Y-85484000D01*
X136021000Y-86586000D01*
X136021000Y-86586000D01*
G37*
G36*
X137291000Y-86586000D02*
X136439000Y-86586000D01*
X136439000Y-85484000D01*
X137291000Y-85484000D01*
X137291000Y-86586000D01*
X137291000Y-86586000D01*
G37*
G36*
X138561000Y-86586000D02*
X137709000Y-86586000D01*
X137709000Y-85484000D01*
X138561000Y-85484000D01*
X138561000Y-86586000D01*
X138561000Y-86586000D01*
G37*
G36*
X141110604Y-81628347D02*
X141147145Y-81639432D01*
X141180820Y-81657431D01*
X141210341Y-81681659D01*
X141234569Y-81711180D01*
X141252568Y-81744855D01*
X141263653Y-81781396D01*
X141268000Y-81825538D01*
X141268000Y-84174462D01*
X141263653Y-84218604D01*
X141252568Y-84255145D01*
X141234569Y-84288820D01*
X141210341Y-84318341D01*
X141180820Y-84342569D01*
X141147145Y-84360568D01*
X141110604Y-84371653D01*
X141066462Y-84376000D01*
X140117538Y-84376000D01*
X140073396Y-84371653D01*
X140036855Y-84360568D01*
X140003180Y-84342569D01*
X139973659Y-84318341D01*
X139949431Y-84288820D01*
X139931432Y-84255145D01*
X139920347Y-84218604D01*
X139916000Y-84174462D01*
X139916000Y-81825538D01*
X139920347Y-81781396D01*
X139931432Y-81744855D01*
X139949431Y-81711180D01*
X139973659Y-81681659D01*
X140003180Y-81657431D01*
X140036855Y-81639432D01*
X140073396Y-81628347D01*
X140117538Y-81624000D01*
X141066462Y-81624000D01*
X141110604Y-81628347D01*
X141110604Y-81628347D01*
G37*
G36*
X162065604Y-81628347D02*
X162102145Y-81639432D01*
X162135820Y-81657431D01*
X162165341Y-81681659D01*
X162189569Y-81711180D01*
X162207568Y-81744855D01*
X162218653Y-81781396D01*
X162223000Y-81825538D01*
X162223000Y-84174462D01*
X162218653Y-84218604D01*
X162207568Y-84255145D01*
X162189569Y-84288820D01*
X162165341Y-84318341D01*
X162135820Y-84342569D01*
X162102145Y-84360568D01*
X162065604Y-84371653D01*
X162021462Y-84376000D01*
X161072538Y-84376000D01*
X161028396Y-84371653D01*
X160991855Y-84360568D01*
X160958180Y-84342569D01*
X160928659Y-84318341D01*
X160904431Y-84288820D01*
X160886432Y-84255145D01*
X160875347Y-84218604D01*
X160871000Y-84174462D01*
X160871000Y-81825538D01*
X160875347Y-81781396D01*
X160886432Y-81744855D01*
X160904431Y-81711180D01*
X160928659Y-81681659D01*
X160958180Y-81657431D01*
X160991855Y-81639432D01*
X161028396Y-81628347D01*
X161072538Y-81624000D01*
X162021462Y-81624000D01*
X162065604Y-81628347D01*
X162065604Y-81628347D01*
G37*
G36*
X138310604Y-81628347D02*
X138347145Y-81639432D01*
X138380820Y-81657431D01*
X138410341Y-81681659D01*
X138434569Y-81711180D01*
X138452568Y-81744855D01*
X138463653Y-81781396D01*
X138468000Y-81825538D01*
X138468000Y-84174462D01*
X138463653Y-84218604D01*
X138452568Y-84255145D01*
X138434569Y-84288820D01*
X138410341Y-84318341D01*
X138380820Y-84342569D01*
X138347145Y-84360568D01*
X138310604Y-84371653D01*
X138266462Y-84376000D01*
X137317538Y-84376000D01*
X137273396Y-84371653D01*
X137236855Y-84360568D01*
X137203180Y-84342569D01*
X137173659Y-84318341D01*
X137149431Y-84288820D01*
X137131432Y-84255145D01*
X137120347Y-84218604D01*
X137116000Y-84174462D01*
X137116000Y-81825538D01*
X137120347Y-81781396D01*
X137131432Y-81744855D01*
X137149431Y-81711180D01*
X137173659Y-81681659D01*
X137203180Y-81657431D01*
X137236855Y-81639432D01*
X137273396Y-81628347D01*
X137317538Y-81624000D01*
X138266462Y-81624000D01*
X138310604Y-81628347D01*
X138310604Y-81628347D01*
G37*
G36*
X127013604Y-81628347D02*
X127050145Y-81639432D01*
X127083820Y-81657431D01*
X127113341Y-81681659D01*
X127137569Y-81711180D01*
X127155568Y-81744855D01*
X127166653Y-81781396D01*
X127171000Y-81825538D01*
X127171000Y-84174462D01*
X127166653Y-84218604D01*
X127155568Y-84255145D01*
X127137569Y-84288820D01*
X127113341Y-84318341D01*
X127083820Y-84342569D01*
X127050145Y-84360568D01*
X127013604Y-84371653D01*
X126969462Y-84376000D01*
X126020538Y-84376000D01*
X125976396Y-84371653D01*
X125939855Y-84360568D01*
X125906180Y-84342569D01*
X125876659Y-84318341D01*
X125852431Y-84288820D01*
X125834432Y-84255145D01*
X125823347Y-84218604D01*
X125819000Y-84174462D01*
X125819000Y-81825538D01*
X125823347Y-81781396D01*
X125834432Y-81744855D01*
X125852431Y-81711180D01*
X125876659Y-81681659D01*
X125906180Y-81657431D01*
X125939855Y-81639432D01*
X125976396Y-81628347D01*
X126020538Y-81624000D01*
X126969462Y-81624000D01*
X127013604Y-81628347D01*
X127013604Y-81628347D01*
G37*
G36*
X124213604Y-81628347D02*
X124250145Y-81639432D01*
X124283820Y-81657431D01*
X124313341Y-81681659D01*
X124337569Y-81711180D01*
X124355568Y-81744855D01*
X124366653Y-81781396D01*
X124371000Y-81825538D01*
X124371000Y-84174462D01*
X124366653Y-84218604D01*
X124355568Y-84255145D01*
X124337569Y-84288820D01*
X124313341Y-84318341D01*
X124283820Y-84342569D01*
X124250145Y-84360568D01*
X124213604Y-84371653D01*
X124169462Y-84376000D01*
X123220538Y-84376000D01*
X123176396Y-84371653D01*
X123139855Y-84360568D01*
X123106180Y-84342569D01*
X123076659Y-84318341D01*
X123052431Y-84288820D01*
X123034432Y-84255145D01*
X123023347Y-84218604D01*
X123019000Y-84174462D01*
X123019000Y-81825538D01*
X123023347Y-81781396D01*
X123034432Y-81744855D01*
X123052431Y-81711180D01*
X123076659Y-81681659D01*
X123106180Y-81657431D01*
X123139855Y-81639432D01*
X123176396Y-81628347D01*
X123220538Y-81624000D01*
X124169462Y-81624000D01*
X124213604Y-81628347D01*
X124213604Y-81628347D01*
G37*
G36*
X159265604Y-81628347D02*
X159302145Y-81639432D01*
X159335820Y-81657431D01*
X159365341Y-81681659D01*
X159389569Y-81711180D01*
X159407568Y-81744855D01*
X159418653Y-81781396D01*
X159423000Y-81825538D01*
X159423000Y-84174462D01*
X159418653Y-84218604D01*
X159407568Y-84255145D01*
X159389569Y-84288820D01*
X159365341Y-84318341D01*
X159335820Y-84342569D01*
X159302145Y-84360568D01*
X159265604Y-84371653D01*
X159221462Y-84376000D01*
X158272538Y-84376000D01*
X158228396Y-84371653D01*
X158191855Y-84360568D01*
X158158180Y-84342569D01*
X158128659Y-84318341D01*
X158104431Y-84288820D01*
X158086432Y-84255145D01*
X158075347Y-84218604D01*
X158071000Y-84174462D01*
X158071000Y-81825538D01*
X158075347Y-81781396D01*
X158086432Y-81744855D01*
X158104431Y-81711180D01*
X158128659Y-81681659D01*
X158158180Y-81657431D01*
X158191855Y-81639432D01*
X158228396Y-81628347D01*
X158272538Y-81624000D01*
X159221462Y-81624000D01*
X159265604Y-81628347D01*
X159265604Y-81628347D01*
G37*
G36*
X120509591Y-82409085D02*
X120543569Y-82419393D01*
X120574887Y-82436133D01*
X120602339Y-82458661D01*
X120624867Y-82486113D01*
X120641607Y-82517431D01*
X120651915Y-82551409D01*
X120656000Y-82592890D01*
X120656000Y-83269110D01*
X120651915Y-83310591D01*
X120641607Y-83344569D01*
X120624867Y-83375887D01*
X120602339Y-83403339D01*
X120574887Y-83425867D01*
X120543569Y-83442607D01*
X120509591Y-83452915D01*
X120468110Y-83457000D01*
X119866890Y-83457000D01*
X119825409Y-83452915D01*
X119791431Y-83442607D01*
X119760113Y-83425867D01*
X119732661Y-83403339D01*
X119710133Y-83375887D01*
X119693393Y-83344569D01*
X119683085Y-83310591D01*
X119679000Y-83269110D01*
X119679000Y-82592890D01*
X119683085Y-82551409D01*
X119693393Y-82517431D01*
X119710133Y-82486113D01*
X119732661Y-82458661D01*
X119760113Y-82436133D01*
X119791431Y-82419393D01*
X119825409Y-82409085D01*
X119866890Y-82405000D01*
X120468110Y-82405000D01*
X120509591Y-82409085D01*
X120509591Y-82409085D01*
G37*
G36*
X118934591Y-82409085D02*
X118968569Y-82419393D01*
X118999887Y-82436133D01*
X119027339Y-82458661D01*
X119049867Y-82486113D01*
X119066607Y-82517431D01*
X119076915Y-82551409D01*
X119081000Y-82592890D01*
X119081000Y-83269110D01*
X119076915Y-83310591D01*
X119066607Y-83344569D01*
X119049867Y-83375887D01*
X119027339Y-83403339D01*
X118999887Y-83425867D01*
X118968569Y-83442607D01*
X118934591Y-83452915D01*
X118893110Y-83457000D01*
X118291890Y-83457000D01*
X118250409Y-83452915D01*
X118216431Y-83442607D01*
X118185113Y-83425867D01*
X118157661Y-83403339D01*
X118135133Y-83375887D01*
X118118393Y-83344569D01*
X118108085Y-83310591D01*
X118104000Y-83269110D01*
X118104000Y-82592890D01*
X118108085Y-82551409D01*
X118118393Y-82517431D01*
X118135133Y-82486113D01*
X118157661Y-82458661D01*
X118185113Y-82436133D01*
X118216431Y-82419393D01*
X118250409Y-82409085D01*
X118291890Y-82405000D01*
X118893110Y-82405000D01*
X118934591Y-82409085D01*
X118934591Y-82409085D01*
G37*
G36*
X153859591Y-82282085D02*
X153893569Y-82292393D01*
X153924887Y-82309133D01*
X153952339Y-82331661D01*
X153974867Y-82359113D01*
X153991607Y-82390431D01*
X154001915Y-82424409D01*
X154006000Y-82465890D01*
X154006000Y-83142110D01*
X154001915Y-83183591D01*
X153991607Y-83217569D01*
X153974867Y-83248887D01*
X153952339Y-83276339D01*
X153924887Y-83298867D01*
X153893569Y-83315607D01*
X153859591Y-83325915D01*
X153818110Y-83330000D01*
X153216890Y-83330000D01*
X153175409Y-83325915D01*
X153141431Y-83315607D01*
X153110113Y-83298867D01*
X153082661Y-83276339D01*
X153060133Y-83248887D01*
X153043393Y-83217569D01*
X153033085Y-83183591D01*
X153029000Y-83142110D01*
X153029000Y-82465890D01*
X153033085Y-82424409D01*
X153043393Y-82390431D01*
X153060133Y-82359113D01*
X153082661Y-82331661D01*
X153110113Y-82309133D01*
X153141431Y-82292393D01*
X153175409Y-82282085D01*
X153216890Y-82278000D01*
X153818110Y-82278000D01*
X153859591Y-82282085D01*
X153859591Y-82282085D01*
G37*
G36*
X155434591Y-82282085D02*
X155468569Y-82292393D01*
X155499887Y-82309133D01*
X155527339Y-82331661D01*
X155549867Y-82359113D01*
X155566607Y-82390431D01*
X155576915Y-82424409D01*
X155581000Y-82465890D01*
X155581000Y-83142110D01*
X155576915Y-83183591D01*
X155566607Y-83217569D01*
X155549867Y-83248887D01*
X155527339Y-83276339D01*
X155499887Y-83298867D01*
X155468569Y-83315607D01*
X155434591Y-83325915D01*
X155393110Y-83330000D01*
X154791890Y-83330000D01*
X154750409Y-83325915D01*
X154716431Y-83315607D01*
X154685113Y-83298867D01*
X154657661Y-83276339D01*
X154635133Y-83248887D01*
X154618393Y-83217569D01*
X154608085Y-83183591D01*
X154604000Y-83142110D01*
X154604000Y-82465890D01*
X154608085Y-82424409D01*
X154618393Y-82390431D01*
X154635133Y-82359113D01*
X154657661Y-82331661D01*
X154685113Y-82309133D01*
X154716431Y-82292393D01*
X154750409Y-82282085D01*
X154791890Y-82278000D01*
X155393110Y-82278000D01*
X155434591Y-82282085D01*
X155434591Y-82282085D01*
G37*
G36*
X146925591Y-82282085D02*
X146959569Y-82292393D01*
X146990887Y-82309133D01*
X147018339Y-82331661D01*
X147040867Y-82359113D01*
X147057607Y-82390431D01*
X147067915Y-82424409D01*
X147072000Y-82465890D01*
X147072000Y-83142110D01*
X147067915Y-83183591D01*
X147057607Y-83217569D01*
X147040867Y-83248887D01*
X147018339Y-83276339D01*
X146990887Y-83298867D01*
X146959569Y-83315607D01*
X146925591Y-83325915D01*
X146884110Y-83330000D01*
X146282890Y-83330000D01*
X146241409Y-83325915D01*
X146207431Y-83315607D01*
X146176113Y-83298867D01*
X146148661Y-83276339D01*
X146126133Y-83248887D01*
X146109393Y-83217569D01*
X146099085Y-83183591D01*
X146095000Y-83142110D01*
X146095000Y-82465890D01*
X146099085Y-82424409D01*
X146109393Y-82390431D01*
X146126133Y-82359113D01*
X146148661Y-82331661D01*
X146176113Y-82309133D01*
X146207431Y-82292393D01*
X146241409Y-82282085D01*
X146282890Y-82278000D01*
X146884110Y-82278000D01*
X146925591Y-82282085D01*
X146925591Y-82282085D01*
G37*
G36*
X145350591Y-82282085D02*
X145384569Y-82292393D01*
X145415887Y-82309133D01*
X145443339Y-82331661D01*
X145465867Y-82359113D01*
X145482607Y-82390431D01*
X145492915Y-82424409D01*
X145497000Y-82465890D01*
X145497000Y-83142110D01*
X145492915Y-83183591D01*
X145482607Y-83217569D01*
X145465867Y-83248887D01*
X145443339Y-83276339D01*
X145415887Y-83298867D01*
X145384569Y-83315607D01*
X145350591Y-83325915D01*
X145309110Y-83330000D01*
X144707890Y-83330000D01*
X144666409Y-83325915D01*
X144632431Y-83315607D01*
X144601113Y-83298867D01*
X144573661Y-83276339D01*
X144551133Y-83248887D01*
X144534393Y-83217569D01*
X144524085Y-83183591D01*
X144520000Y-83142110D01*
X144520000Y-82465890D01*
X144524085Y-82424409D01*
X144534393Y-82390431D01*
X144551133Y-82359113D01*
X144573661Y-82331661D01*
X144601113Y-82309133D01*
X144632431Y-82292393D01*
X144666409Y-82282085D01*
X144707890Y-82278000D01*
X145309110Y-82278000D01*
X145350591Y-82282085D01*
X145350591Y-82282085D01*
G37*
G36*
X165210442Y-74797518D02*
X165276627Y-74804037D01*
X165376803Y-74834425D01*
X165446467Y-74855557D01*
X165552474Y-74912220D01*
X165602991Y-74939222D01*
X165638729Y-74968552D01*
X165740186Y-75051814D01*
X165823448Y-75153271D01*
X165852778Y-75189009D01*
X165852779Y-75189011D01*
X165936443Y-75345533D01*
X165940815Y-75359947D01*
X165987963Y-75515373D01*
X166005359Y-75692000D01*
X165987963Y-75868627D01*
X165953616Y-75981853D01*
X165936443Y-76038467D01*
X165862348Y-76177087D01*
X165852778Y-76194991D01*
X165823448Y-76230729D01*
X165740186Y-76332186D01*
X165638729Y-76415448D01*
X165602991Y-76444778D01*
X165602989Y-76444779D01*
X165446467Y-76528443D01*
X165389853Y-76545616D01*
X165276627Y-76579963D01*
X165210443Y-76586481D01*
X165144260Y-76593000D01*
X165055740Y-76593000D01*
X164989557Y-76586481D01*
X164923373Y-76579963D01*
X164810147Y-76545616D01*
X164753533Y-76528443D01*
X164597011Y-76444779D01*
X164597009Y-76444778D01*
X164561271Y-76415448D01*
X164459814Y-76332186D01*
X164376552Y-76230729D01*
X164347222Y-76194991D01*
X164337652Y-76177087D01*
X164263557Y-76038467D01*
X164246384Y-75981853D01*
X164212037Y-75868627D01*
X164194641Y-75692000D01*
X164212037Y-75515373D01*
X164259185Y-75359947D01*
X164263557Y-75345533D01*
X164347221Y-75189011D01*
X164347222Y-75189009D01*
X164376552Y-75153271D01*
X164459814Y-75051814D01*
X164561271Y-74968552D01*
X164597009Y-74939222D01*
X164647526Y-74912220D01*
X164753533Y-74855557D01*
X164823197Y-74834425D01*
X164923373Y-74804037D01*
X164989558Y-74797518D01*
X165055740Y-74791000D01*
X165144260Y-74791000D01*
X165210442Y-74797518D01*
X165210442Y-74797518D01*
G37*
G36*
X145144499Y-74217445D02*
X145181993Y-74228819D01*
X145216557Y-74247294D01*
X145246847Y-74272153D01*
X145271706Y-74302443D01*
X145290181Y-74337007D01*
X145301555Y-74374501D01*
X145306000Y-74419638D01*
X145306000Y-75158362D01*
X145301555Y-75203499D01*
X145290181Y-75240993D01*
X145271706Y-75275557D01*
X145246847Y-75305847D01*
X145216557Y-75330706D01*
X145181993Y-75349181D01*
X145144499Y-75360555D01*
X145099362Y-75365000D01*
X144460638Y-75365000D01*
X144415501Y-75360555D01*
X144378007Y-75349181D01*
X144343443Y-75330706D01*
X144313153Y-75305847D01*
X144288294Y-75275557D01*
X144269819Y-75240993D01*
X144258445Y-75203499D01*
X144254000Y-75158362D01*
X144254000Y-74419638D01*
X144258445Y-74374501D01*
X144269819Y-74337007D01*
X144288294Y-74302443D01*
X144313153Y-74272153D01*
X144343443Y-74247294D01*
X144378007Y-74228819D01*
X144415501Y-74217445D01*
X144460638Y-74213000D01*
X145099362Y-74213000D01*
X145144499Y-74217445D01*
X145144499Y-74217445D01*
G37*
G36*
X142365591Y-74090085D02*
X142399569Y-74100393D01*
X142430887Y-74117133D01*
X142458339Y-74139661D01*
X142480867Y-74167113D01*
X142497607Y-74198431D01*
X142507915Y-74232409D01*
X142512000Y-74273890D01*
X142512000Y-74875110D01*
X142507915Y-74916591D01*
X142497607Y-74950569D01*
X142480867Y-74981887D01*
X142458339Y-75009339D01*
X142430887Y-75031867D01*
X142399569Y-75048607D01*
X142365591Y-75058915D01*
X142324110Y-75063000D01*
X141647890Y-75063000D01*
X141606409Y-75058915D01*
X141572431Y-75048607D01*
X141541113Y-75031867D01*
X141513661Y-75009339D01*
X141491133Y-74981887D01*
X141474393Y-74950569D01*
X141464085Y-74916591D01*
X141460000Y-74875110D01*
X141460000Y-74273890D01*
X141464085Y-74232409D01*
X141474393Y-74198431D01*
X141491133Y-74167113D01*
X141513661Y-74139661D01*
X141541113Y-74117133D01*
X141572431Y-74100393D01*
X141606409Y-74090085D01*
X141647890Y-74086000D01*
X142324110Y-74086000D01*
X142365591Y-74090085D01*
X142365591Y-74090085D01*
G37*
G36*
X135430681Y-73997617D02*
X135435352Y-73999034D01*
X135439654Y-74001334D01*
X135446029Y-74006565D01*
X135466404Y-74020178D01*
X135489044Y-74029555D01*
X135513077Y-74034335D01*
X135537582Y-74034334D01*
X135561615Y-74029552D01*
X135584254Y-74020174D01*
X135604623Y-74006563D01*
X135610994Y-74001335D01*
X135615296Y-73999035D01*
X135619967Y-73997618D01*
X135630965Y-73996535D01*
X135919683Y-73996535D01*
X135930681Y-73997618D01*
X135935352Y-73999035D01*
X135939654Y-74001335D01*
X135946029Y-74006566D01*
X135966404Y-74020179D01*
X135989043Y-74029555D01*
X136013077Y-74034335D01*
X136037581Y-74034334D01*
X136061615Y-74029552D01*
X136084253Y-74020174D01*
X136104619Y-74006566D01*
X136110994Y-74001335D01*
X136115296Y-73999035D01*
X136119967Y-73997618D01*
X136130965Y-73996535D01*
X136419683Y-73996535D01*
X136430681Y-73997618D01*
X136435352Y-73999035D01*
X136439654Y-74001335D01*
X136446029Y-74006566D01*
X136466404Y-74020179D01*
X136489043Y-74029555D01*
X136513077Y-74034335D01*
X136537581Y-74034334D01*
X136561615Y-74029552D01*
X136584253Y-74020174D01*
X136604619Y-74006566D01*
X136610994Y-74001335D01*
X136615296Y-73999035D01*
X136619967Y-73997618D01*
X136630965Y-73996535D01*
X136919683Y-73996535D01*
X136930681Y-73997618D01*
X136935352Y-73999035D01*
X136939654Y-74001335D01*
X136946029Y-74006566D01*
X136966404Y-74020179D01*
X136989043Y-74029555D01*
X137013077Y-74034335D01*
X137037581Y-74034334D01*
X137061615Y-74029552D01*
X137084253Y-74020174D01*
X137104619Y-74006566D01*
X137110994Y-74001335D01*
X137115296Y-73999035D01*
X137119967Y-73997618D01*
X137130965Y-73996535D01*
X137419683Y-73996535D01*
X137430681Y-73997618D01*
X137435352Y-73999035D01*
X137439654Y-74001335D01*
X137446025Y-74006563D01*
X137466400Y-74020177D01*
X137489039Y-74029554D01*
X137513072Y-74034334D01*
X137537577Y-74034334D01*
X137561610Y-74029553D01*
X137584249Y-74020175D01*
X137604619Y-74006565D01*
X137610994Y-74001334D01*
X137615296Y-73999034D01*
X137619967Y-73997617D01*
X137630965Y-73996534D01*
X137919683Y-73996534D01*
X137930681Y-73997617D01*
X137935352Y-73999034D01*
X137939654Y-74001334D01*
X137946029Y-74006565D01*
X137966404Y-74020178D01*
X137989044Y-74029555D01*
X138013077Y-74034335D01*
X138037582Y-74034334D01*
X138061615Y-74029552D01*
X138084254Y-74020174D01*
X138104623Y-74006563D01*
X138110994Y-74001335D01*
X138115296Y-73999035D01*
X138119967Y-73997618D01*
X138130965Y-73996535D01*
X138419683Y-73996535D01*
X138430681Y-73997618D01*
X138435352Y-73999035D01*
X138439654Y-74001335D01*
X138446029Y-74006566D01*
X138466404Y-74020179D01*
X138489043Y-74029555D01*
X138513077Y-74034335D01*
X138537581Y-74034334D01*
X138561615Y-74029552D01*
X138584253Y-74020174D01*
X138604619Y-74006566D01*
X138610994Y-74001335D01*
X138615296Y-73999035D01*
X138619967Y-73997618D01*
X138630965Y-73996535D01*
X138919683Y-73996535D01*
X138930681Y-73997618D01*
X138935352Y-73999035D01*
X138939654Y-74001335D01*
X138946029Y-74006566D01*
X138966404Y-74020179D01*
X138989043Y-74029555D01*
X139013077Y-74034335D01*
X139037581Y-74034334D01*
X139061615Y-74029552D01*
X139084253Y-74020174D01*
X139104619Y-74006566D01*
X139110994Y-74001335D01*
X139115296Y-73999035D01*
X139119967Y-73997618D01*
X139130965Y-73996535D01*
X139419680Y-73996535D01*
X139439637Y-73998501D01*
X139449358Y-73998501D01*
X139449358Y-74008222D01*
X139451324Y-74028179D01*
X139451324Y-74841894D01*
X139450241Y-74852892D01*
X139448824Y-74857563D01*
X139446524Y-74861865D01*
X139443428Y-74865639D01*
X139439654Y-74868735D01*
X139435352Y-74871035D01*
X139430681Y-74872452D01*
X139419683Y-74873535D01*
X139130965Y-74873535D01*
X139119967Y-74872452D01*
X139115296Y-74871035D01*
X139110994Y-74868735D01*
X139104619Y-74863504D01*
X139084244Y-74849891D01*
X139061605Y-74840515D01*
X139037571Y-74835735D01*
X139013067Y-74835736D01*
X138989033Y-74840518D01*
X138966395Y-74849896D01*
X138946029Y-74863504D01*
X138939654Y-74868735D01*
X138935352Y-74871035D01*
X138930681Y-74872452D01*
X138919683Y-74873535D01*
X138630965Y-74873535D01*
X138619967Y-74872452D01*
X138615296Y-74871035D01*
X138610994Y-74868735D01*
X138604619Y-74863504D01*
X138584244Y-74849891D01*
X138561605Y-74840515D01*
X138537571Y-74835735D01*
X138513067Y-74835736D01*
X138489033Y-74840518D01*
X138466395Y-74849896D01*
X138446029Y-74863504D01*
X138439654Y-74868735D01*
X138435352Y-74871035D01*
X138430681Y-74872452D01*
X138419683Y-74873535D01*
X138130965Y-74873535D01*
X138119967Y-74872452D01*
X138115296Y-74871035D01*
X138110994Y-74868735D01*
X138104619Y-74863504D01*
X138084244Y-74849891D01*
X138061604Y-74840514D01*
X138037571Y-74835734D01*
X138013066Y-74835735D01*
X137989033Y-74840517D01*
X137966394Y-74849895D01*
X137946025Y-74863506D01*
X137939654Y-74868734D01*
X137935352Y-74871034D01*
X137930681Y-74872451D01*
X137919683Y-74873534D01*
X137630965Y-74873534D01*
X137619967Y-74872451D01*
X137615296Y-74871034D01*
X137610994Y-74868734D01*
X137604623Y-74863506D01*
X137584248Y-74849892D01*
X137561609Y-74840515D01*
X137537576Y-74835735D01*
X137513071Y-74835735D01*
X137489038Y-74840516D01*
X137466399Y-74849894D01*
X137446029Y-74863504D01*
X137439654Y-74868735D01*
X137435352Y-74871035D01*
X137430681Y-74872452D01*
X137419683Y-74873535D01*
X137130965Y-74873535D01*
X137119967Y-74872452D01*
X137115296Y-74871035D01*
X137110994Y-74868735D01*
X137104619Y-74863504D01*
X137084244Y-74849891D01*
X137061605Y-74840515D01*
X137037571Y-74835735D01*
X137013067Y-74835736D01*
X136989033Y-74840518D01*
X136966395Y-74849896D01*
X136946029Y-74863504D01*
X136939654Y-74868735D01*
X136935352Y-74871035D01*
X136930681Y-74872452D01*
X136919683Y-74873535D01*
X136630965Y-74873535D01*
X136619967Y-74872452D01*
X136615296Y-74871035D01*
X136610994Y-74868735D01*
X136604619Y-74863504D01*
X136584244Y-74849891D01*
X136561605Y-74840515D01*
X136537571Y-74835735D01*
X136513067Y-74835736D01*
X136489033Y-74840518D01*
X136466395Y-74849896D01*
X136446029Y-74863504D01*
X136439654Y-74868735D01*
X136435352Y-74871035D01*
X136430681Y-74872452D01*
X136419683Y-74873535D01*
X136130965Y-74873535D01*
X136119967Y-74872452D01*
X136115296Y-74871035D01*
X136110994Y-74868735D01*
X136104619Y-74863504D01*
X136084244Y-74849891D01*
X136061605Y-74840515D01*
X136037571Y-74835735D01*
X136013067Y-74835736D01*
X135989033Y-74840518D01*
X135966395Y-74849896D01*
X135946029Y-74863504D01*
X135939654Y-74868735D01*
X135935352Y-74871035D01*
X135930681Y-74872452D01*
X135919683Y-74873535D01*
X135630965Y-74873535D01*
X135619967Y-74872452D01*
X135615296Y-74871035D01*
X135610994Y-74868735D01*
X135604619Y-74863504D01*
X135584244Y-74849891D01*
X135561604Y-74840514D01*
X135537571Y-74835734D01*
X135513066Y-74835735D01*
X135489033Y-74840517D01*
X135466394Y-74849895D01*
X135446025Y-74863506D01*
X135439654Y-74868734D01*
X135435352Y-74871034D01*
X135430681Y-74872451D01*
X135419683Y-74873534D01*
X135130965Y-74873534D01*
X135119967Y-74872451D01*
X135115296Y-74871034D01*
X135110994Y-74868734D01*
X135104623Y-74863506D01*
X135084248Y-74849892D01*
X135061609Y-74840515D01*
X135037576Y-74835735D01*
X135013071Y-74835735D01*
X134989038Y-74840516D01*
X134966399Y-74849894D01*
X134946029Y-74863504D01*
X134939654Y-74868735D01*
X134935352Y-74871035D01*
X134930681Y-74872452D01*
X134919683Y-74873535D01*
X134630965Y-74873535D01*
X134619967Y-74872452D01*
X134615296Y-74871035D01*
X134610994Y-74868735D01*
X134604619Y-74863504D01*
X134584244Y-74849891D01*
X134561605Y-74840515D01*
X134537571Y-74835735D01*
X134513067Y-74835736D01*
X134489033Y-74840518D01*
X134466395Y-74849896D01*
X134446029Y-74863504D01*
X134439654Y-74868735D01*
X134435352Y-74871035D01*
X134430681Y-74872452D01*
X134419683Y-74873535D01*
X134130965Y-74873535D01*
X134119967Y-74872452D01*
X134115296Y-74871035D01*
X134110994Y-74868735D01*
X134104619Y-74863504D01*
X134084244Y-74849891D01*
X134061605Y-74840515D01*
X134037571Y-74835735D01*
X134013067Y-74835736D01*
X133989033Y-74840518D01*
X133966395Y-74849896D01*
X133946029Y-74863504D01*
X133939654Y-74868735D01*
X133935352Y-74871035D01*
X133930681Y-74872452D01*
X133919683Y-74873535D01*
X133630965Y-74873535D01*
X133619967Y-74872452D01*
X133615296Y-74871035D01*
X133610994Y-74868735D01*
X133607220Y-74865639D01*
X133604124Y-74861865D01*
X133601824Y-74857563D01*
X133600407Y-74852892D01*
X133599324Y-74841894D01*
X133599324Y-74028179D01*
X133601290Y-74008222D01*
X133601290Y-73998501D01*
X133611011Y-73998501D01*
X133630968Y-73996535D01*
X133919683Y-73996535D01*
X133930681Y-73997618D01*
X133935352Y-73999035D01*
X133939654Y-74001335D01*
X133946029Y-74006566D01*
X133966404Y-74020179D01*
X133989043Y-74029555D01*
X134013077Y-74034335D01*
X134037581Y-74034334D01*
X134061615Y-74029552D01*
X134084253Y-74020174D01*
X134104619Y-74006566D01*
X134110994Y-74001335D01*
X134115296Y-73999035D01*
X134119967Y-73997618D01*
X134130965Y-73996535D01*
X134419683Y-73996535D01*
X134430681Y-73997618D01*
X134435352Y-73999035D01*
X134439654Y-74001335D01*
X134446029Y-74006566D01*
X134466404Y-74020179D01*
X134489043Y-74029555D01*
X134513077Y-74034335D01*
X134537581Y-74034334D01*
X134561615Y-74029552D01*
X134584253Y-74020174D01*
X134604619Y-74006566D01*
X134610994Y-74001335D01*
X134615296Y-73999035D01*
X134619967Y-73997618D01*
X134630965Y-73996535D01*
X134919683Y-73996535D01*
X134930681Y-73997618D01*
X134935352Y-73999035D01*
X134939654Y-74001335D01*
X134946025Y-74006563D01*
X134966400Y-74020177D01*
X134989039Y-74029554D01*
X135013072Y-74034334D01*
X135037577Y-74034334D01*
X135061610Y-74029553D01*
X135084249Y-74020175D01*
X135104619Y-74006565D01*
X135110994Y-74001334D01*
X135115296Y-73999034D01*
X135119967Y-73997617D01*
X135130965Y-73996534D01*
X135419683Y-73996534D01*
X135430681Y-73997617D01*
X135430681Y-73997617D01*
G37*
G36*
X146922499Y-73328445D02*
X146959993Y-73339819D01*
X146994557Y-73358294D01*
X147024847Y-73383153D01*
X147049706Y-73413443D01*
X147068181Y-73448007D01*
X147079555Y-73485501D01*
X147084000Y-73530638D01*
X147084000Y-74269362D01*
X147079555Y-74314499D01*
X147068181Y-74351993D01*
X147049706Y-74386557D01*
X147024847Y-74416847D01*
X146994557Y-74441706D01*
X146959993Y-74460181D01*
X146922499Y-74471555D01*
X146877362Y-74476000D01*
X146238638Y-74476000D01*
X146193501Y-74471555D01*
X146156007Y-74460181D01*
X146121443Y-74441706D01*
X146091153Y-74416847D01*
X146066294Y-74386557D01*
X146047819Y-74351993D01*
X146036445Y-74314499D01*
X146032000Y-74269362D01*
X146032000Y-73530638D01*
X146036445Y-73485501D01*
X146047819Y-73448007D01*
X146066294Y-73413443D01*
X146091153Y-73383153D01*
X146121443Y-73358294D01*
X146156007Y-73339819D01*
X146193501Y-73328445D01*
X146238638Y-73324000D01*
X146877362Y-73324000D01*
X146922499Y-73328445D01*
X146922499Y-73328445D01*
G37*
G36*
X165210443Y-72257519D02*
X165276627Y-72264037D01*
X165389853Y-72298384D01*
X165446467Y-72315557D01*
X165583139Y-72388611D01*
X165602991Y-72399222D01*
X165617647Y-72411250D01*
X165740186Y-72511814D01*
X165806293Y-72592367D01*
X165852778Y-72649009D01*
X165852779Y-72649011D01*
X165936443Y-72805533D01*
X165936443Y-72805534D01*
X165987963Y-72975373D01*
X166005359Y-73152000D01*
X165987963Y-73328627D01*
X165955896Y-73434339D01*
X165936443Y-73498467D01*
X165884855Y-73594980D01*
X165852778Y-73654991D01*
X165823448Y-73690729D01*
X165740186Y-73792186D01*
X165650682Y-73865639D01*
X165602991Y-73904778D01*
X165602989Y-73904779D01*
X165446467Y-73988443D01*
X165411552Y-73999034D01*
X165276627Y-74039963D01*
X165210442Y-74046482D01*
X165144260Y-74053000D01*
X165055740Y-74053000D01*
X164989558Y-74046482D01*
X164923373Y-74039963D01*
X164788448Y-73999034D01*
X164753533Y-73988443D01*
X164597011Y-73904779D01*
X164597009Y-73904778D01*
X164549318Y-73865639D01*
X164459814Y-73792186D01*
X164376552Y-73690729D01*
X164347222Y-73654991D01*
X164315145Y-73594980D01*
X164263557Y-73498467D01*
X164244104Y-73434339D01*
X164212037Y-73328627D01*
X164194641Y-73152000D01*
X164212037Y-72975373D01*
X164263557Y-72805534D01*
X164263557Y-72805533D01*
X164347221Y-72649011D01*
X164347222Y-72649009D01*
X164393707Y-72592367D01*
X164459814Y-72511814D01*
X164582353Y-72411250D01*
X164597009Y-72399222D01*
X164616861Y-72388611D01*
X164753533Y-72315557D01*
X164810147Y-72298384D01*
X164923373Y-72264037D01*
X164989557Y-72257519D01*
X165055740Y-72251000D01*
X165144260Y-72251000D01*
X165210443Y-72257519D01*
X165210443Y-72257519D01*
G37*
G36*
X133464637Y-68023501D02*
X133474358Y-68023501D01*
X133474358Y-68033222D01*
X133476324Y-68053179D01*
X133476324Y-68341894D01*
X133475241Y-68352893D01*
X133473008Y-68360254D01*
X133468228Y-68384287D01*
X133468229Y-68408792D01*
X133473011Y-68432825D01*
X133482389Y-68455464D01*
X133496004Y-68475838D01*
X133513331Y-68493164D01*
X133533706Y-68506777D01*
X133556346Y-68516154D01*
X133592627Y-68521535D01*
X133784662Y-68521535D01*
X133809048Y-68519133D01*
X133832497Y-68512020D01*
X133854108Y-68500469D01*
X133873050Y-68484923D01*
X133888596Y-68465981D01*
X133900147Y-68444370D01*
X133904280Y-68432820D01*
X133910890Y-68411029D01*
X133924198Y-68386130D01*
X133942103Y-68364314D01*
X133963919Y-68346409D01*
X133988822Y-68333099D01*
X134015829Y-68324906D01*
X134050061Y-68321535D01*
X139000587Y-68321535D01*
X139034819Y-68324906D01*
X139061826Y-68333099D01*
X139086729Y-68346409D01*
X139108545Y-68364314D01*
X139126450Y-68386130D01*
X139139760Y-68411033D01*
X139147953Y-68438040D01*
X139151324Y-68472272D01*
X139151324Y-73422798D01*
X139147953Y-73457030D01*
X139139760Y-73484037D01*
X139126450Y-73508940D01*
X139108545Y-73530756D01*
X139086729Y-73548661D01*
X139061826Y-73561971D01*
X139034819Y-73570164D01*
X139000587Y-73573535D01*
X134050061Y-73573535D01*
X134015829Y-73570164D01*
X133988822Y-73561971D01*
X133963919Y-73548661D01*
X133942103Y-73530756D01*
X133924198Y-73508940D01*
X133910888Y-73484037D01*
X133902695Y-73457030D01*
X133899324Y-73422798D01*
X133899324Y-68998535D01*
X133896922Y-68974149D01*
X133889809Y-68950700D01*
X133878258Y-68929089D01*
X133862712Y-68910147D01*
X133843770Y-68894601D01*
X133822159Y-68883050D01*
X133798710Y-68875937D01*
X133774324Y-68873535D01*
X133592627Y-68873535D01*
X133568241Y-68875937D01*
X133544792Y-68883050D01*
X133523181Y-68894601D01*
X133504239Y-68910147D01*
X133488693Y-68929089D01*
X133477142Y-68950700D01*
X133470029Y-68974149D01*
X133467627Y-68998535D01*
X133473008Y-69034816D01*
X133475241Y-69042177D01*
X133476324Y-69053176D01*
X133476324Y-69341894D01*
X133475241Y-69352892D01*
X133473824Y-69357563D01*
X133471524Y-69361865D01*
X133466296Y-69368236D01*
X133452682Y-69388611D01*
X133443305Y-69411250D01*
X133438525Y-69435283D01*
X133438525Y-69459788D01*
X133443306Y-69483821D01*
X133452684Y-69506460D01*
X133466294Y-69526830D01*
X133471525Y-69533205D01*
X133473825Y-69537507D01*
X133475242Y-69542178D01*
X133476325Y-69553176D01*
X133476325Y-69841894D01*
X133475242Y-69852892D01*
X133473825Y-69857563D01*
X133471525Y-69861865D01*
X133466294Y-69868240D01*
X133452681Y-69888615D01*
X133443304Y-69911255D01*
X133438524Y-69935288D01*
X133438525Y-69959793D01*
X133443307Y-69983826D01*
X133452685Y-70006465D01*
X133466296Y-70026834D01*
X133471524Y-70033205D01*
X133473824Y-70037507D01*
X133475241Y-70042178D01*
X133476324Y-70053176D01*
X133476324Y-70341894D01*
X133475241Y-70352892D01*
X133473824Y-70357563D01*
X133471524Y-70361865D01*
X133466293Y-70368240D01*
X133452680Y-70388615D01*
X133443304Y-70411254D01*
X133438524Y-70435288D01*
X133438525Y-70459792D01*
X133443307Y-70483826D01*
X133452685Y-70506464D01*
X133466293Y-70526830D01*
X133471524Y-70533205D01*
X133473824Y-70537507D01*
X133475241Y-70542178D01*
X133476324Y-70553176D01*
X133476324Y-70841894D01*
X133475241Y-70852892D01*
X133473824Y-70857563D01*
X133471524Y-70861865D01*
X133466293Y-70868240D01*
X133452680Y-70888615D01*
X133443304Y-70911254D01*
X133438524Y-70935288D01*
X133438525Y-70959792D01*
X133443307Y-70983826D01*
X133452685Y-71006464D01*
X133466293Y-71026830D01*
X133471524Y-71033205D01*
X133473824Y-71037507D01*
X133475241Y-71042178D01*
X133476324Y-71053176D01*
X133476324Y-71341894D01*
X133475241Y-71352892D01*
X133473824Y-71357563D01*
X133471524Y-71361865D01*
X133466293Y-71368240D01*
X133452680Y-71388615D01*
X133443304Y-71411254D01*
X133438524Y-71435288D01*
X133438525Y-71459792D01*
X133443307Y-71483826D01*
X133452685Y-71506464D01*
X133466293Y-71526830D01*
X133471524Y-71533205D01*
X133473824Y-71537507D01*
X133475241Y-71542178D01*
X133476324Y-71553176D01*
X133476324Y-71841894D01*
X133475241Y-71852892D01*
X133473824Y-71857563D01*
X133471524Y-71861865D01*
X133466296Y-71868236D01*
X133452682Y-71888611D01*
X133443305Y-71911250D01*
X133438525Y-71935283D01*
X133438525Y-71959788D01*
X133443306Y-71983821D01*
X133452684Y-72006460D01*
X133466294Y-72026830D01*
X133471525Y-72033205D01*
X133473825Y-72037507D01*
X133475242Y-72042178D01*
X133476325Y-72053176D01*
X133476325Y-72341894D01*
X133475242Y-72352892D01*
X133473825Y-72357563D01*
X133471525Y-72361865D01*
X133466294Y-72368240D01*
X133452681Y-72388615D01*
X133443304Y-72411255D01*
X133438524Y-72435288D01*
X133438525Y-72459793D01*
X133443307Y-72483826D01*
X133452685Y-72506465D01*
X133466296Y-72526834D01*
X133471524Y-72533205D01*
X133473824Y-72537507D01*
X133475241Y-72542178D01*
X133476324Y-72553176D01*
X133476324Y-72841894D01*
X133475241Y-72852892D01*
X133473824Y-72857563D01*
X133471524Y-72861865D01*
X133466293Y-72868240D01*
X133452680Y-72888615D01*
X133443304Y-72911254D01*
X133438524Y-72935288D01*
X133438525Y-72959792D01*
X133443307Y-72983826D01*
X133452685Y-73006464D01*
X133466293Y-73026830D01*
X133471524Y-73033205D01*
X133473824Y-73037507D01*
X133475241Y-73042178D01*
X133476324Y-73053176D01*
X133476324Y-73341894D01*
X133475241Y-73352892D01*
X133473824Y-73357563D01*
X133471524Y-73361865D01*
X133466293Y-73368240D01*
X133452680Y-73388615D01*
X133443304Y-73411254D01*
X133438524Y-73435288D01*
X133438525Y-73459792D01*
X133443307Y-73483826D01*
X133452685Y-73506464D01*
X133466293Y-73526830D01*
X133471524Y-73533205D01*
X133473824Y-73537507D01*
X133475241Y-73542178D01*
X133476324Y-73553176D01*
X133476324Y-73841891D01*
X133474358Y-73861848D01*
X133474358Y-73871569D01*
X133464637Y-73871569D01*
X133444680Y-73873535D01*
X132630965Y-73873535D01*
X132619967Y-73872452D01*
X132615296Y-73871035D01*
X132610994Y-73868735D01*
X132607220Y-73865639D01*
X132604124Y-73861865D01*
X132601824Y-73857563D01*
X132600407Y-73852892D01*
X132599324Y-73841894D01*
X132599324Y-73553176D01*
X132600407Y-73542178D01*
X132601824Y-73537507D01*
X132604124Y-73533205D01*
X132609355Y-73526830D01*
X132622968Y-73506455D01*
X132632344Y-73483816D01*
X132637124Y-73459782D01*
X132637123Y-73435278D01*
X132632341Y-73411244D01*
X132622963Y-73388606D01*
X132609355Y-73368240D01*
X132604124Y-73361865D01*
X132601824Y-73357563D01*
X132600407Y-73352892D01*
X132599324Y-73341894D01*
X132599324Y-73053176D01*
X132600407Y-73042178D01*
X132601824Y-73037507D01*
X132604124Y-73033205D01*
X132609355Y-73026830D01*
X132622968Y-73006455D01*
X132632344Y-72983816D01*
X132637124Y-72959782D01*
X132637123Y-72935278D01*
X132632341Y-72911244D01*
X132622963Y-72888606D01*
X132609355Y-72868240D01*
X132604124Y-72861865D01*
X132601824Y-72857563D01*
X132600407Y-72852892D01*
X132599324Y-72841894D01*
X132599324Y-72553176D01*
X132600407Y-72542178D01*
X132601824Y-72537507D01*
X132604124Y-72533205D01*
X132609355Y-72526830D01*
X132622968Y-72506455D01*
X132632345Y-72483815D01*
X132637125Y-72459782D01*
X132637124Y-72435277D01*
X132632342Y-72411244D01*
X132622964Y-72388605D01*
X132609353Y-72368236D01*
X132604125Y-72361865D01*
X132601825Y-72357563D01*
X132600408Y-72352892D01*
X132599325Y-72341894D01*
X132599325Y-72053176D01*
X132600408Y-72042178D01*
X132601825Y-72037507D01*
X132604125Y-72033205D01*
X132609353Y-72026834D01*
X132622967Y-72006459D01*
X132632344Y-71983820D01*
X132637124Y-71959787D01*
X132637124Y-71935282D01*
X132632343Y-71911249D01*
X132622965Y-71888610D01*
X132609355Y-71868240D01*
X132604124Y-71861865D01*
X132601824Y-71857563D01*
X132600407Y-71852892D01*
X132599324Y-71841894D01*
X132599324Y-71553176D01*
X132600407Y-71542178D01*
X132601824Y-71537507D01*
X132604124Y-71533205D01*
X132609355Y-71526830D01*
X132622968Y-71506455D01*
X132632344Y-71483816D01*
X132637124Y-71459782D01*
X132637123Y-71435278D01*
X132632341Y-71411244D01*
X132622963Y-71388606D01*
X132609355Y-71368240D01*
X132604124Y-71361865D01*
X132601824Y-71357563D01*
X132600407Y-71352892D01*
X132599324Y-71341894D01*
X132599324Y-71053176D01*
X132600407Y-71042178D01*
X132601824Y-71037507D01*
X132604124Y-71033205D01*
X132609355Y-71026830D01*
X132622968Y-71006455D01*
X132632344Y-70983816D01*
X132637124Y-70959782D01*
X132637123Y-70935278D01*
X132632341Y-70911244D01*
X132622963Y-70888606D01*
X132609355Y-70868240D01*
X132604124Y-70861865D01*
X132601824Y-70857563D01*
X132600407Y-70852892D01*
X132599324Y-70841894D01*
X132599324Y-70553176D01*
X132600407Y-70542178D01*
X132601824Y-70537507D01*
X132604124Y-70533205D01*
X132609355Y-70526830D01*
X132622968Y-70506455D01*
X132632344Y-70483816D01*
X132637124Y-70459782D01*
X132637123Y-70435278D01*
X132632341Y-70411244D01*
X132622963Y-70388606D01*
X132609355Y-70368240D01*
X132604124Y-70361865D01*
X132601824Y-70357563D01*
X132600407Y-70352892D01*
X132599324Y-70341894D01*
X132599324Y-70053176D01*
X132600407Y-70042178D01*
X132601824Y-70037507D01*
X132604124Y-70033205D01*
X132609355Y-70026830D01*
X132622968Y-70006455D01*
X132632345Y-69983815D01*
X132637125Y-69959782D01*
X132637124Y-69935277D01*
X132632342Y-69911244D01*
X132622964Y-69888605D01*
X132609353Y-69868236D01*
X132604125Y-69861865D01*
X132601825Y-69857563D01*
X132600408Y-69852892D01*
X132599325Y-69841894D01*
X132599325Y-69553176D01*
X132600408Y-69542178D01*
X132601825Y-69537507D01*
X132604125Y-69533205D01*
X132609353Y-69526834D01*
X132622967Y-69506459D01*
X132632344Y-69483820D01*
X132637124Y-69459787D01*
X132637124Y-69435282D01*
X132632343Y-69411249D01*
X132622965Y-69388610D01*
X132609355Y-69368240D01*
X132604124Y-69361865D01*
X132601824Y-69357563D01*
X132600407Y-69352892D01*
X132599324Y-69341894D01*
X132599324Y-69053176D01*
X132600407Y-69042178D01*
X132601824Y-69037507D01*
X132604124Y-69033205D01*
X132610105Y-69025916D01*
X132623718Y-69005541D01*
X132633094Y-68982901D01*
X132637874Y-68958868D01*
X132637873Y-68934363D01*
X132633091Y-68910330D01*
X132623713Y-68887692D01*
X132610105Y-68867326D01*
X132605623Y-68861865D01*
X132603324Y-68857563D01*
X132601907Y-68852892D01*
X132600824Y-68841894D01*
X132600824Y-68553176D01*
X132601907Y-68542178D01*
X132603324Y-68537507D01*
X132605623Y-68533205D01*
X132610105Y-68527744D01*
X132623718Y-68507369D01*
X132633094Y-68484730D01*
X132637874Y-68460696D01*
X132637873Y-68436192D01*
X132633091Y-68412159D01*
X132623713Y-68389520D01*
X132610105Y-68369154D01*
X132604124Y-68361865D01*
X132601824Y-68357563D01*
X132600407Y-68352892D01*
X132599324Y-68341894D01*
X132599324Y-68053176D01*
X132600407Y-68042178D01*
X132601824Y-68037507D01*
X132604124Y-68033205D01*
X132607220Y-68029431D01*
X132610994Y-68026335D01*
X132615296Y-68024035D01*
X132619967Y-68022618D01*
X132630965Y-68021535D01*
X133444680Y-68021535D01*
X133464637Y-68023501D01*
X133464637Y-68023501D01*
G37*
G36*
X140430681Y-68022618D02*
X140435352Y-68024035D01*
X140439654Y-68026335D01*
X140443428Y-68029431D01*
X140446524Y-68033205D01*
X140448824Y-68037507D01*
X140450241Y-68042178D01*
X140451324Y-68053176D01*
X140451324Y-68341894D01*
X140450241Y-68352892D01*
X140448824Y-68357563D01*
X140446524Y-68361865D01*
X140441293Y-68368240D01*
X140427680Y-68388615D01*
X140418304Y-68411254D01*
X140413524Y-68435288D01*
X140413525Y-68459792D01*
X140418307Y-68483826D01*
X140427685Y-68506464D01*
X140441293Y-68526830D01*
X140446524Y-68533205D01*
X140448824Y-68537507D01*
X140450241Y-68542178D01*
X140451324Y-68553176D01*
X140451324Y-68841894D01*
X140450241Y-68852892D01*
X140448824Y-68857563D01*
X140446524Y-68861865D01*
X140441293Y-68868240D01*
X140427680Y-68888615D01*
X140418304Y-68911254D01*
X140413524Y-68935288D01*
X140413525Y-68959792D01*
X140418307Y-68983826D01*
X140427685Y-69006464D01*
X140441293Y-69026830D01*
X140446524Y-69033205D01*
X140448824Y-69037507D01*
X140450241Y-69042178D01*
X140451324Y-69053176D01*
X140451324Y-69341894D01*
X140450241Y-69352892D01*
X140448824Y-69357563D01*
X140446524Y-69361865D01*
X140441293Y-69368240D01*
X140427680Y-69388615D01*
X140418303Y-69411255D01*
X140413523Y-69435288D01*
X140413524Y-69459793D01*
X140418306Y-69483826D01*
X140427684Y-69506465D01*
X140441295Y-69526834D01*
X140446523Y-69533205D01*
X140448823Y-69537507D01*
X140450240Y-69542178D01*
X140451323Y-69553176D01*
X140451323Y-69841894D01*
X140450240Y-69852892D01*
X140448823Y-69857563D01*
X140446523Y-69861865D01*
X140441295Y-69868236D01*
X140427681Y-69888611D01*
X140418304Y-69911250D01*
X140413524Y-69935283D01*
X140413524Y-69959788D01*
X140418305Y-69983821D01*
X140427683Y-70006460D01*
X140441293Y-70026830D01*
X140446524Y-70033205D01*
X140448824Y-70037507D01*
X140450241Y-70042178D01*
X140451324Y-70053176D01*
X140451324Y-70341894D01*
X140450241Y-70352892D01*
X140448824Y-70357563D01*
X140446524Y-70361865D01*
X140441293Y-70368240D01*
X140427680Y-70388615D01*
X140418304Y-70411254D01*
X140413524Y-70435288D01*
X140413525Y-70459792D01*
X140418307Y-70483826D01*
X140427685Y-70506464D01*
X140441293Y-70526830D01*
X140446524Y-70533205D01*
X140448824Y-70537507D01*
X140450241Y-70542178D01*
X140451324Y-70553176D01*
X140451324Y-70841894D01*
X140450241Y-70852892D01*
X140448824Y-70857563D01*
X140446524Y-70861865D01*
X140441293Y-70868240D01*
X140427680Y-70888615D01*
X140418304Y-70911254D01*
X140413524Y-70935288D01*
X140413525Y-70959792D01*
X140418307Y-70983826D01*
X140427685Y-71006464D01*
X140441293Y-71026830D01*
X140446524Y-71033205D01*
X140448824Y-71037507D01*
X140450241Y-71042178D01*
X140451324Y-71053176D01*
X140451324Y-71341894D01*
X140450241Y-71352892D01*
X140448824Y-71357563D01*
X140446524Y-71361865D01*
X140441293Y-71368240D01*
X140427680Y-71388615D01*
X140418304Y-71411254D01*
X140413524Y-71435288D01*
X140413525Y-71459792D01*
X140418307Y-71483826D01*
X140427685Y-71506464D01*
X140441293Y-71526830D01*
X140446524Y-71533205D01*
X140448824Y-71537507D01*
X140450241Y-71542178D01*
X140451324Y-71553176D01*
X140451324Y-71841894D01*
X140450241Y-71852892D01*
X140448824Y-71857563D01*
X140446524Y-71861865D01*
X140441293Y-71868240D01*
X140427680Y-71888615D01*
X140418303Y-71911255D01*
X140413523Y-71935288D01*
X140413524Y-71959793D01*
X140418306Y-71983826D01*
X140427684Y-72006465D01*
X140441295Y-72026834D01*
X140446523Y-72033205D01*
X140448823Y-72037507D01*
X140450240Y-72042178D01*
X140451323Y-72053176D01*
X140451323Y-72341894D01*
X140450240Y-72352892D01*
X140448823Y-72357563D01*
X140446523Y-72361865D01*
X140441295Y-72368236D01*
X140427681Y-72388611D01*
X140418304Y-72411250D01*
X140413524Y-72435283D01*
X140413524Y-72459788D01*
X140418305Y-72483821D01*
X140427683Y-72506460D01*
X140441293Y-72526830D01*
X140446524Y-72533205D01*
X140448824Y-72537507D01*
X140450241Y-72542178D01*
X140451324Y-72553176D01*
X140451324Y-72841894D01*
X140450241Y-72852892D01*
X140448824Y-72857563D01*
X140446524Y-72861865D01*
X140441293Y-72868240D01*
X140427680Y-72888615D01*
X140418304Y-72911254D01*
X140413524Y-72935288D01*
X140413525Y-72959792D01*
X140418307Y-72983826D01*
X140427685Y-73006464D01*
X140441293Y-73026830D01*
X140446524Y-73033205D01*
X140448824Y-73037507D01*
X140450241Y-73042178D01*
X140451324Y-73053176D01*
X140451324Y-73341894D01*
X140450241Y-73352892D01*
X140448824Y-73357563D01*
X140446524Y-73361865D01*
X140441293Y-73368240D01*
X140427680Y-73388615D01*
X140418304Y-73411254D01*
X140413524Y-73435288D01*
X140413525Y-73459792D01*
X140418307Y-73483826D01*
X140427685Y-73506464D01*
X140441293Y-73526830D01*
X140446524Y-73533205D01*
X140448824Y-73537507D01*
X140450241Y-73542178D01*
X140451324Y-73553176D01*
X140451324Y-73841894D01*
X140450241Y-73852892D01*
X140448824Y-73857563D01*
X140446524Y-73861865D01*
X140443428Y-73865639D01*
X140439654Y-73868735D01*
X140435352Y-73871035D01*
X140430681Y-73872452D01*
X140419683Y-73873535D01*
X139605968Y-73873535D01*
X139586011Y-73871569D01*
X139576290Y-73871569D01*
X139576290Y-73861848D01*
X139574324Y-73841891D01*
X139574324Y-73553176D01*
X139575407Y-73542178D01*
X139576824Y-73537507D01*
X139579124Y-73533205D01*
X139584355Y-73526830D01*
X139597968Y-73506455D01*
X139607344Y-73483816D01*
X139612124Y-73459782D01*
X139612123Y-73435278D01*
X139607341Y-73411244D01*
X139597963Y-73388606D01*
X139584355Y-73368240D01*
X139579124Y-73361865D01*
X139576824Y-73357563D01*
X139575407Y-73352892D01*
X139574324Y-73341894D01*
X139574324Y-73053176D01*
X139575407Y-73042178D01*
X139576824Y-73037507D01*
X139579124Y-73033205D01*
X139584355Y-73026830D01*
X139597968Y-73006455D01*
X139607344Y-72983816D01*
X139612124Y-72959782D01*
X139612123Y-72935278D01*
X139607341Y-72911244D01*
X139597963Y-72888606D01*
X139584355Y-72868240D01*
X139579124Y-72861865D01*
X139576824Y-72857563D01*
X139575407Y-72852892D01*
X139574324Y-72841894D01*
X139574324Y-72553176D01*
X139575407Y-72542178D01*
X139576824Y-72537507D01*
X139579124Y-72533205D01*
X139584352Y-72526834D01*
X139597966Y-72506459D01*
X139607343Y-72483820D01*
X139612123Y-72459787D01*
X139612123Y-72435282D01*
X139607342Y-72411249D01*
X139597964Y-72388610D01*
X139584354Y-72368240D01*
X139579123Y-72361865D01*
X139576823Y-72357563D01*
X139575406Y-72352892D01*
X139574323Y-72341894D01*
X139574323Y-72053176D01*
X139575406Y-72042178D01*
X139576823Y-72037507D01*
X139579123Y-72033205D01*
X139584354Y-72026830D01*
X139597967Y-72006455D01*
X139607344Y-71983815D01*
X139612124Y-71959782D01*
X139612123Y-71935277D01*
X139607341Y-71911244D01*
X139597963Y-71888605D01*
X139584352Y-71868236D01*
X139579124Y-71861865D01*
X139576824Y-71857563D01*
X139575407Y-71852892D01*
X139574324Y-71841894D01*
X139574324Y-71553176D01*
X139575407Y-71542178D01*
X139576824Y-71537507D01*
X139579124Y-71533205D01*
X139584355Y-71526830D01*
X139597968Y-71506455D01*
X139607344Y-71483816D01*
X139612124Y-71459782D01*
X139612123Y-71435278D01*
X139607341Y-71411244D01*
X139597963Y-71388606D01*
X139584355Y-71368240D01*
X139579124Y-71361865D01*
X139576824Y-71357563D01*
X139575407Y-71352892D01*
X139574324Y-71341894D01*
X139574324Y-71053176D01*
X139575407Y-71042178D01*
X139576824Y-71037507D01*
X139579124Y-71033205D01*
X139584355Y-71026830D01*
X139597968Y-71006455D01*
X139607344Y-70983816D01*
X139612124Y-70959782D01*
X139612123Y-70935278D01*
X139607341Y-70911244D01*
X139597963Y-70888606D01*
X139584355Y-70868240D01*
X139579124Y-70861865D01*
X139576824Y-70857563D01*
X139575407Y-70852892D01*
X139574324Y-70841894D01*
X139574324Y-70553176D01*
X139575407Y-70542178D01*
X139576824Y-70537507D01*
X139579124Y-70533205D01*
X139584355Y-70526830D01*
X139597968Y-70506455D01*
X139607344Y-70483816D01*
X139612124Y-70459782D01*
X139612123Y-70435278D01*
X139607341Y-70411244D01*
X139597963Y-70388606D01*
X139584355Y-70368240D01*
X139579124Y-70361865D01*
X139576824Y-70357563D01*
X139575407Y-70352892D01*
X139574324Y-70341894D01*
X139574324Y-70053176D01*
X139575407Y-70042178D01*
X139576824Y-70037507D01*
X139579124Y-70033205D01*
X139584352Y-70026834D01*
X139597966Y-70006459D01*
X139607343Y-69983820D01*
X139612123Y-69959787D01*
X139612123Y-69935282D01*
X139607342Y-69911249D01*
X139597964Y-69888610D01*
X139584354Y-69868240D01*
X139579123Y-69861865D01*
X139576823Y-69857563D01*
X139575406Y-69852892D01*
X139574323Y-69841894D01*
X139574323Y-69553176D01*
X139575406Y-69542178D01*
X139576823Y-69537507D01*
X139579123Y-69533205D01*
X139584354Y-69526830D01*
X139597967Y-69506455D01*
X139607344Y-69483815D01*
X139612124Y-69459782D01*
X139612123Y-69435277D01*
X139607341Y-69411244D01*
X139597963Y-69388605D01*
X139584352Y-69368236D01*
X139579124Y-69361865D01*
X139576824Y-69357563D01*
X139575407Y-69352892D01*
X139574324Y-69341894D01*
X139574324Y-69053176D01*
X139575407Y-69042178D01*
X139576824Y-69037507D01*
X139579124Y-69033205D01*
X139584355Y-69026830D01*
X139597968Y-69006455D01*
X139607344Y-68983816D01*
X139612124Y-68959782D01*
X139612123Y-68935278D01*
X139607341Y-68911244D01*
X139597963Y-68888606D01*
X139584355Y-68868240D01*
X139579124Y-68861865D01*
X139576824Y-68857563D01*
X139575407Y-68852892D01*
X139574324Y-68841894D01*
X139574324Y-68553176D01*
X139575407Y-68542178D01*
X139576824Y-68537507D01*
X139579124Y-68533205D01*
X139584355Y-68526830D01*
X139597968Y-68506455D01*
X139607344Y-68483816D01*
X139612124Y-68459782D01*
X139612123Y-68435278D01*
X139607341Y-68411244D01*
X139597963Y-68388606D01*
X139584355Y-68368240D01*
X139579124Y-68361865D01*
X139576824Y-68357563D01*
X139575407Y-68352892D01*
X139574324Y-68341894D01*
X139574324Y-68053179D01*
X139576290Y-68033222D01*
X139576290Y-68023501D01*
X139586011Y-68023501D01*
X139605968Y-68021535D01*
X140419683Y-68021535D01*
X140430681Y-68022618D01*
X140430681Y-68022618D01*
G37*
G36*
X145144499Y-72467445D02*
X145181993Y-72478819D01*
X145216557Y-72497294D01*
X145246847Y-72522153D01*
X145271706Y-72552443D01*
X145290181Y-72587007D01*
X145301555Y-72624501D01*
X145306000Y-72669638D01*
X145306000Y-73408362D01*
X145301555Y-73453499D01*
X145290181Y-73490993D01*
X145271706Y-73525557D01*
X145246847Y-73555847D01*
X145216557Y-73580706D01*
X145181993Y-73599181D01*
X145144499Y-73610555D01*
X145099362Y-73615000D01*
X144460638Y-73615000D01*
X144415501Y-73610555D01*
X144378007Y-73599181D01*
X144343443Y-73580706D01*
X144313153Y-73555847D01*
X144288294Y-73525557D01*
X144269819Y-73490993D01*
X144258445Y-73453499D01*
X144254000Y-73408362D01*
X144254000Y-72669638D01*
X144258445Y-72624501D01*
X144269819Y-72587007D01*
X144288294Y-72552443D01*
X144313153Y-72522153D01*
X144343443Y-72497294D01*
X144378007Y-72478819D01*
X144415501Y-72467445D01*
X144460638Y-72463000D01*
X145099362Y-72463000D01*
X145144499Y-72467445D01*
X145144499Y-72467445D01*
G37*
G36*
X142365591Y-72515085D02*
X142399569Y-72525393D01*
X142430887Y-72542133D01*
X142458339Y-72564661D01*
X142480867Y-72592113D01*
X142497607Y-72623431D01*
X142507915Y-72657409D01*
X142512000Y-72698890D01*
X142512000Y-73300110D01*
X142507915Y-73341591D01*
X142497607Y-73375569D01*
X142480867Y-73406887D01*
X142458339Y-73434339D01*
X142430887Y-73456867D01*
X142399569Y-73473607D01*
X142365591Y-73483915D01*
X142324110Y-73488000D01*
X141647890Y-73488000D01*
X141606409Y-73483915D01*
X141572431Y-73473607D01*
X141541113Y-73456867D01*
X141513661Y-73434339D01*
X141491133Y-73406887D01*
X141474393Y-73375569D01*
X141464085Y-73341591D01*
X141460000Y-73300110D01*
X141460000Y-72698890D01*
X141464085Y-72657409D01*
X141474393Y-72623431D01*
X141491133Y-72592113D01*
X141513661Y-72564661D01*
X141541113Y-72542133D01*
X141572431Y-72525393D01*
X141606409Y-72515085D01*
X141647890Y-72511000D01*
X142324110Y-72511000D01*
X142365591Y-72515085D01*
X142365591Y-72515085D01*
G37*
G36*
X146922499Y-71578445D02*
X146959993Y-71589819D01*
X146994557Y-71608294D01*
X147024847Y-71633153D01*
X147049706Y-71663443D01*
X147068181Y-71698007D01*
X147079555Y-71735501D01*
X147084000Y-71780638D01*
X147084000Y-72519362D01*
X147079555Y-72564499D01*
X147068181Y-72601993D01*
X147049706Y-72636557D01*
X147024847Y-72666847D01*
X146994557Y-72691706D01*
X146959993Y-72710181D01*
X146922499Y-72721555D01*
X146877362Y-72726000D01*
X146238638Y-72726000D01*
X146193501Y-72721555D01*
X146156007Y-72710181D01*
X146121443Y-72691706D01*
X146091153Y-72666847D01*
X146066294Y-72636557D01*
X146047819Y-72601993D01*
X146036445Y-72564499D01*
X146032000Y-72519362D01*
X146032000Y-71780638D01*
X146036445Y-71735501D01*
X146047819Y-71698007D01*
X146066294Y-71663443D01*
X146091153Y-71633153D01*
X146121443Y-71608294D01*
X146156007Y-71589819D01*
X146193501Y-71578445D01*
X146238638Y-71574000D01*
X146877362Y-71574000D01*
X146922499Y-71578445D01*
X146922499Y-71578445D01*
G37*
G36*
X165210442Y-69717518D02*
X165276627Y-69724037D01*
X165389853Y-69758384D01*
X165446467Y-69775557D01*
X165556805Y-69834535D01*
X165602991Y-69859222D01*
X165620431Y-69873535D01*
X165740186Y-69971814D01*
X165823448Y-70073271D01*
X165852778Y-70109009D01*
X165852779Y-70109011D01*
X165936443Y-70265533D01*
X165936443Y-70265534D01*
X165987963Y-70435373D01*
X166005359Y-70612000D01*
X165987963Y-70788627D01*
X165963813Y-70868240D01*
X165936443Y-70958467D01*
X165891698Y-71042178D01*
X165852778Y-71114991D01*
X165823448Y-71150729D01*
X165740186Y-71252186D01*
X165639976Y-71334425D01*
X165602991Y-71364778D01*
X165602989Y-71364779D01*
X165446467Y-71448443D01*
X165389853Y-71465616D01*
X165276627Y-71499963D01*
X165210712Y-71506455D01*
X165144260Y-71513000D01*
X165055740Y-71513000D01*
X164989288Y-71506455D01*
X164923373Y-71499963D01*
X164810147Y-71465616D01*
X164753533Y-71448443D01*
X164597011Y-71364779D01*
X164597009Y-71364778D01*
X164560024Y-71334425D01*
X164459814Y-71252186D01*
X164376552Y-71150729D01*
X164347222Y-71114991D01*
X164308302Y-71042178D01*
X164263557Y-70958467D01*
X164236187Y-70868240D01*
X164212037Y-70788627D01*
X164194641Y-70612000D01*
X164212037Y-70435373D01*
X164263557Y-70265534D01*
X164263557Y-70265533D01*
X164347221Y-70109011D01*
X164347222Y-70109009D01*
X164376552Y-70073271D01*
X164459814Y-69971814D01*
X164579569Y-69873535D01*
X164597009Y-69859222D01*
X164643195Y-69834535D01*
X164753533Y-69775557D01*
X164810147Y-69758384D01*
X164923373Y-69724037D01*
X164989558Y-69717518D01*
X165055740Y-69711000D01*
X165144260Y-69711000D01*
X165210442Y-69717518D01*
X165210442Y-69717518D01*
G37*
G36*
X128164915Y-69838620D02*
X128198893Y-69848928D01*
X128230211Y-69865668D01*
X128257663Y-69888196D01*
X128280191Y-69915648D01*
X128296931Y-69946966D01*
X128307239Y-69980944D01*
X128311324Y-70022425D01*
X128311324Y-70623645D01*
X128307239Y-70665126D01*
X128296931Y-70699104D01*
X128280191Y-70730422D01*
X128257663Y-70757874D01*
X128230211Y-70780402D01*
X128198893Y-70797142D01*
X128164915Y-70807450D01*
X128123434Y-70811535D01*
X127447214Y-70811535D01*
X127405733Y-70807450D01*
X127371755Y-70797142D01*
X127340437Y-70780402D01*
X127312985Y-70757874D01*
X127290457Y-70730422D01*
X127273717Y-70699104D01*
X127263409Y-70665126D01*
X127259324Y-70623645D01*
X127259324Y-70022425D01*
X127263409Y-69980944D01*
X127273717Y-69946966D01*
X127290457Y-69915648D01*
X127312985Y-69888196D01*
X127340437Y-69865668D01*
X127371755Y-69848928D01*
X127405733Y-69838620D01*
X127447214Y-69834535D01*
X128123434Y-69834535D01*
X128164915Y-69838620D01*
X128164915Y-69838620D01*
G37*
G36*
X130958915Y-69838620D02*
X130992893Y-69848928D01*
X131024211Y-69865668D01*
X131051663Y-69888196D01*
X131074191Y-69915648D01*
X131090931Y-69946966D01*
X131101239Y-69980944D01*
X131105324Y-70022425D01*
X131105324Y-70623645D01*
X131101239Y-70665126D01*
X131090931Y-70699104D01*
X131074191Y-70730422D01*
X131051663Y-70757874D01*
X131024211Y-70780402D01*
X130992893Y-70797142D01*
X130958915Y-70807450D01*
X130917434Y-70811535D01*
X130241214Y-70811535D01*
X130199733Y-70807450D01*
X130165755Y-70797142D01*
X130134437Y-70780402D01*
X130106985Y-70757874D01*
X130084457Y-70730422D01*
X130067717Y-70699104D01*
X130057409Y-70665126D01*
X130053324Y-70623645D01*
X130053324Y-70022425D01*
X130057409Y-69980944D01*
X130067717Y-69946966D01*
X130084457Y-69915648D01*
X130106985Y-69888196D01*
X130134437Y-69865668D01*
X130165755Y-69848928D01*
X130199733Y-69838620D01*
X130241214Y-69834535D01*
X130917434Y-69834535D01*
X130958915Y-69838620D01*
X130958915Y-69838620D01*
G37*
G36*
X128164915Y-68263620D02*
X128198893Y-68273928D01*
X128230211Y-68290668D01*
X128257663Y-68313196D01*
X128280191Y-68340648D01*
X128296931Y-68371966D01*
X128307239Y-68405944D01*
X128311324Y-68447425D01*
X128311324Y-69048645D01*
X128307239Y-69090126D01*
X128296931Y-69124104D01*
X128280191Y-69155422D01*
X128257663Y-69182874D01*
X128230211Y-69205402D01*
X128198893Y-69222142D01*
X128164915Y-69232450D01*
X128123434Y-69236535D01*
X127447214Y-69236535D01*
X127405733Y-69232450D01*
X127371755Y-69222142D01*
X127340437Y-69205402D01*
X127312985Y-69182874D01*
X127290457Y-69155422D01*
X127273717Y-69124104D01*
X127263409Y-69090126D01*
X127259324Y-69048645D01*
X127259324Y-68447425D01*
X127263409Y-68405944D01*
X127273717Y-68371966D01*
X127290457Y-68340648D01*
X127312985Y-68313196D01*
X127340437Y-68290668D01*
X127371755Y-68273928D01*
X127405733Y-68263620D01*
X127447214Y-68259535D01*
X128123434Y-68259535D01*
X128164915Y-68263620D01*
X128164915Y-68263620D01*
G37*
G36*
X130958915Y-68263620D02*
X130992893Y-68273928D01*
X131024211Y-68290668D01*
X131051663Y-68313196D01*
X131074191Y-68340648D01*
X131090931Y-68371966D01*
X131101239Y-68405944D01*
X131105324Y-68447425D01*
X131105324Y-69048645D01*
X131101239Y-69090126D01*
X131090931Y-69124104D01*
X131074191Y-69155422D01*
X131051663Y-69182874D01*
X131024211Y-69205402D01*
X130992893Y-69222142D01*
X130958915Y-69232450D01*
X130917434Y-69236535D01*
X130241214Y-69236535D01*
X130199733Y-69232450D01*
X130165755Y-69222142D01*
X130134437Y-69205402D01*
X130106985Y-69182874D01*
X130084457Y-69155422D01*
X130067717Y-69124104D01*
X130057409Y-69090126D01*
X130053324Y-69048645D01*
X130053324Y-68447425D01*
X130057409Y-68405944D01*
X130067717Y-68371966D01*
X130084457Y-68340648D01*
X130106985Y-68313196D01*
X130134437Y-68290668D01*
X130165755Y-68273928D01*
X130199733Y-68263620D01*
X130241214Y-68259535D01*
X130917434Y-68259535D01*
X130958915Y-68263620D01*
X130958915Y-68263620D01*
G37*
G36*
X142007915Y-68187620D02*
X142041893Y-68197928D01*
X142073211Y-68214668D01*
X142100663Y-68237196D01*
X142123191Y-68264648D01*
X142139931Y-68295966D01*
X142150239Y-68329944D01*
X142154324Y-68371425D01*
X142154324Y-68972645D01*
X142150239Y-69014126D01*
X142139931Y-69048104D01*
X142123191Y-69079422D01*
X142100663Y-69106874D01*
X142073211Y-69129402D01*
X142041893Y-69146142D01*
X142007915Y-69156450D01*
X141966434Y-69160535D01*
X141290214Y-69160535D01*
X141248733Y-69156450D01*
X141214755Y-69146142D01*
X141183437Y-69129402D01*
X141155985Y-69106874D01*
X141133457Y-69079422D01*
X141116717Y-69048104D01*
X141106409Y-69014126D01*
X141102324Y-68972645D01*
X141102324Y-68371425D01*
X141106409Y-68329944D01*
X141116717Y-68295966D01*
X141133457Y-68264648D01*
X141155985Y-68237196D01*
X141183437Y-68214668D01*
X141214755Y-68197928D01*
X141248733Y-68187620D01*
X141290214Y-68183535D01*
X141966434Y-68183535D01*
X142007915Y-68187620D01*
X142007915Y-68187620D01*
G37*
G36*
X165210442Y-67177518D02*
X165276627Y-67184037D01*
X165389853Y-67218384D01*
X165446467Y-67235557D01*
X165585087Y-67309652D01*
X165602991Y-67319222D01*
X165638729Y-67348552D01*
X165740186Y-67431814D01*
X165807630Y-67513996D01*
X165852778Y-67569009D01*
X165852779Y-67569011D01*
X165936443Y-67725533D01*
X165936443Y-67725534D01*
X165987963Y-67895373D01*
X166005359Y-68072000D01*
X165987963Y-68248627D01*
X165960049Y-68340648D01*
X165936443Y-68418467D01*
X165888923Y-68507369D01*
X165852778Y-68574991D01*
X165824428Y-68609535D01*
X165740186Y-68712186D01*
X165638729Y-68795448D01*
X165602991Y-68824778D01*
X165602989Y-68824779D01*
X165446467Y-68908443D01*
X165389853Y-68925616D01*
X165276627Y-68959963D01*
X165210442Y-68966482D01*
X165144260Y-68973000D01*
X165055740Y-68973000D01*
X164989558Y-68966482D01*
X164923373Y-68959963D01*
X164810147Y-68925616D01*
X164753533Y-68908443D01*
X164597011Y-68824779D01*
X164597009Y-68824778D01*
X164561271Y-68795448D01*
X164459814Y-68712186D01*
X164375572Y-68609535D01*
X164347222Y-68574991D01*
X164311077Y-68507369D01*
X164263557Y-68418467D01*
X164239951Y-68340648D01*
X164212037Y-68248627D01*
X164194641Y-68072000D01*
X164212037Y-67895373D01*
X164263557Y-67725534D01*
X164263557Y-67725533D01*
X164347221Y-67569011D01*
X164347222Y-67569009D01*
X164392370Y-67513996D01*
X164459814Y-67431814D01*
X164561271Y-67348552D01*
X164597009Y-67319222D01*
X164614913Y-67309652D01*
X164753533Y-67235557D01*
X164810147Y-67218384D01*
X164923373Y-67184037D01*
X164989558Y-67177518D01*
X165055740Y-67171000D01*
X165144260Y-67171000D01*
X165210442Y-67177518D01*
X165210442Y-67177518D01*
G37*
G36*
X133930681Y-67022618D02*
X133935352Y-67024035D01*
X133939654Y-67026335D01*
X133946029Y-67031566D01*
X133966404Y-67045179D01*
X133989043Y-67054555D01*
X134013077Y-67059335D01*
X134037581Y-67059334D01*
X134061615Y-67054552D01*
X134084253Y-67045174D01*
X134104619Y-67031566D01*
X134110994Y-67026335D01*
X134115296Y-67024035D01*
X134119967Y-67022618D01*
X134130965Y-67021535D01*
X134419683Y-67021535D01*
X134430681Y-67022618D01*
X134435352Y-67024035D01*
X134439654Y-67026335D01*
X134446029Y-67031566D01*
X134466404Y-67045179D01*
X134489043Y-67054555D01*
X134513077Y-67059335D01*
X134537581Y-67059334D01*
X134561615Y-67054552D01*
X134584253Y-67045174D01*
X134604619Y-67031566D01*
X134610994Y-67026335D01*
X134615296Y-67024035D01*
X134619967Y-67022618D01*
X134630965Y-67021535D01*
X134919683Y-67021535D01*
X134930681Y-67022618D01*
X134935352Y-67024035D01*
X134939654Y-67026335D01*
X134946029Y-67031566D01*
X134966404Y-67045179D01*
X134989044Y-67054556D01*
X135013077Y-67059336D01*
X135037582Y-67059335D01*
X135061615Y-67054553D01*
X135084254Y-67045175D01*
X135104623Y-67031564D01*
X135110994Y-67026336D01*
X135115296Y-67024036D01*
X135119967Y-67022619D01*
X135130965Y-67021536D01*
X135419683Y-67021536D01*
X135430681Y-67022619D01*
X135435352Y-67024036D01*
X135439654Y-67026336D01*
X135446025Y-67031564D01*
X135466400Y-67045178D01*
X135489039Y-67054555D01*
X135513072Y-67059335D01*
X135537577Y-67059335D01*
X135561610Y-67054554D01*
X135584249Y-67045176D01*
X135604619Y-67031566D01*
X135610994Y-67026335D01*
X135615296Y-67024035D01*
X135619967Y-67022618D01*
X135630965Y-67021535D01*
X135919683Y-67021535D01*
X135930681Y-67022618D01*
X135935352Y-67024035D01*
X135939654Y-67026335D01*
X135946029Y-67031566D01*
X135966404Y-67045179D01*
X135989043Y-67054555D01*
X136013077Y-67059335D01*
X136037581Y-67059334D01*
X136061615Y-67054552D01*
X136084253Y-67045174D01*
X136104619Y-67031566D01*
X136110994Y-67026335D01*
X136115296Y-67024035D01*
X136119967Y-67022618D01*
X136130965Y-67021535D01*
X136419683Y-67021535D01*
X136430681Y-67022618D01*
X136435352Y-67024035D01*
X136439654Y-67026335D01*
X136446029Y-67031566D01*
X136466404Y-67045179D01*
X136489043Y-67054555D01*
X136513077Y-67059335D01*
X136537581Y-67059334D01*
X136561615Y-67054552D01*
X136584253Y-67045174D01*
X136604619Y-67031566D01*
X136610994Y-67026335D01*
X136615296Y-67024035D01*
X136619967Y-67022618D01*
X136630965Y-67021535D01*
X136919683Y-67021535D01*
X136930681Y-67022618D01*
X136935352Y-67024035D01*
X136939654Y-67026335D01*
X136946029Y-67031566D01*
X136966404Y-67045179D01*
X136989043Y-67054555D01*
X137013077Y-67059335D01*
X137037581Y-67059334D01*
X137061615Y-67054552D01*
X137084253Y-67045174D01*
X137104619Y-67031566D01*
X137110994Y-67026335D01*
X137115296Y-67024035D01*
X137119967Y-67022618D01*
X137130965Y-67021535D01*
X137419683Y-67021535D01*
X137430681Y-67022618D01*
X137435352Y-67024035D01*
X137439654Y-67026335D01*
X137446029Y-67031566D01*
X137466404Y-67045179D01*
X137489044Y-67054556D01*
X137513077Y-67059336D01*
X137537582Y-67059335D01*
X137561615Y-67054553D01*
X137584254Y-67045175D01*
X137604623Y-67031564D01*
X137610994Y-67026336D01*
X137615296Y-67024036D01*
X137619967Y-67022619D01*
X137630965Y-67021536D01*
X137919683Y-67021536D01*
X137930681Y-67022619D01*
X137935352Y-67024036D01*
X137939654Y-67026336D01*
X137946025Y-67031564D01*
X137966400Y-67045178D01*
X137989039Y-67054555D01*
X138013072Y-67059335D01*
X138037577Y-67059335D01*
X138061610Y-67054554D01*
X138084249Y-67045176D01*
X138104619Y-67031566D01*
X138110994Y-67026335D01*
X138115296Y-67024035D01*
X138119967Y-67022618D01*
X138130965Y-67021535D01*
X138419683Y-67021535D01*
X138430681Y-67022618D01*
X138435352Y-67024035D01*
X138439654Y-67026335D01*
X138446029Y-67031566D01*
X138466404Y-67045179D01*
X138489043Y-67054555D01*
X138513077Y-67059335D01*
X138537581Y-67059334D01*
X138561615Y-67054552D01*
X138584253Y-67045174D01*
X138604619Y-67031566D01*
X138610994Y-67026335D01*
X138615296Y-67024035D01*
X138619967Y-67022618D01*
X138630965Y-67021535D01*
X138919683Y-67021535D01*
X138930681Y-67022618D01*
X138935352Y-67024035D01*
X138939654Y-67026335D01*
X138946029Y-67031566D01*
X138966404Y-67045179D01*
X138989043Y-67054555D01*
X139013077Y-67059335D01*
X139037581Y-67059334D01*
X139061615Y-67054552D01*
X139084253Y-67045174D01*
X139104619Y-67031566D01*
X139110994Y-67026335D01*
X139115296Y-67024035D01*
X139119967Y-67022618D01*
X139130965Y-67021535D01*
X139419683Y-67021535D01*
X139430681Y-67022618D01*
X139435352Y-67024035D01*
X139439654Y-67026335D01*
X139443428Y-67029431D01*
X139446524Y-67033205D01*
X139448824Y-67037507D01*
X139450241Y-67042178D01*
X139451324Y-67053176D01*
X139451324Y-67866891D01*
X139449358Y-67886848D01*
X139449358Y-67896569D01*
X139439637Y-67896569D01*
X139419680Y-67898535D01*
X139130965Y-67898535D01*
X139119967Y-67897452D01*
X139115296Y-67896035D01*
X139110994Y-67893735D01*
X139104619Y-67888504D01*
X139084244Y-67874891D01*
X139061605Y-67865515D01*
X139037571Y-67860735D01*
X139013067Y-67860736D01*
X138989033Y-67865518D01*
X138966395Y-67874896D01*
X138946029Y-67888504D01*
X138939654Y-67893735D01*
X138935352Y-67896035D01*
X138930681Y-67897452D01*
X138919683Y-67898535D01*
X138630965Y-67898535D01*
X138619967Y-67897452D01*
X138615296Y-67896035D01*
X138610994Y-67893735D01*
X138604619Y-67888504D01*
X138584244Y-67874891D01*
X138561605Y-67865515D01*
X138537571Y-67860735D01*
X138513067Y-67860736D01*
X138489033Y-67865518D01*
X138466395Y-67874896D01*
X138446029Y-67888504D01*
X138439654Y-67893735D01*
X138435352Y-67896035D01*
X138430681Y-67897452D01*
X138419683Y-67898535D01*
X138130965Y-67898535D01*
X138119967Y-67897452D01*
X138115296Y-67896035D01*
X138110994Y-67893735D01*
X138104623Y-67888507D01*
X138084248Y-67874893D01*
X138061609Y-67865516D01*
X138037576Y-67860736D01*
X138013071Y-67860736D01*
X137989038Y-67865517D01*
X137966399Y-67874895D01*
X137946029Y-67888505D01*
X137939654Y-67893736D01*
X137935352Y-67896036D01*
X137930681Y-67897453D01*
X137919683Y-67898536D01*
X137630965Y-67898536D01*
X137619967Y-67897453D01*
X137615296Y-67896036D01*
X137610994Y-67893736D01*
X137604619Y-67888505D01*
X137584244Y-67874892D01*
X137561604Y-67865515D01*
X137537571Y-67860735D01*
X137513066Y-67860736D01*
X137489033Y-67865518D01*
X137466394Y-67874896D01*
X137446025Y-67888507D01*
X137439654Y-67893735D01*
X137435352Y-67896035D01*
X137430681Y-67897452D01*
X137419683Y-67898535D01*
X137130965Y-67898535D01*
X137119967Y-67897452D01*
X137115296Y-67896035D01*
X137110994Y-67893735D01*
X137104619Y-67888504D01*
X137084244Y-67874891D01*
X137061605Y-67865515D01*
X137037571Y-67860735D01*
X137013067Y-67860736D01*
X136989033Y-67865518D01*
X136966395Y-67874896D01*
X136946029Y-67888504D01*
X136939654Y-67893735D01*
X136935352Y-67896035D01*
X136930681Y-67897452D01*
X136919683Y-67898535D01*
X136630965Y-67898535D01*
X136619967Y-67897452D01*
X136615296Y-67896035D01*
X136610994Y-67893735D01*
X136604619Y-67888504D01*
X136584244Y-67874891D01*
X136561605Y-67865515D01*
X136537571Y-67860735D01*
X136513067Y-67860736D01*
X136489033Y-67865518D01*
X136466395Y-67874896D01*
X136446029Y-67888504D01*
X136439654Y-67893735D01*
X136435352Y-67896035D01*
X136430681Y-67897452D01*
X136419683Y-67898535D01*
X136130965Y-67898535D01*
X136119967Y-67897452D01*
X136115296Y-67896035D01*
X136110994Y-67893735D01*
X136104619Y-67888504D01*
X136084244Y-67874891D01*
X136061605Y-67865515D01*
X136037571Y-67860735D01*
X136013067Y-67860736D01*
X135989033Y-67865518D01*
X135966395Y-67874896D01*
X135946029Y-67888504D01*
X135939654Y-67893735D01*
X135935352Y-67896035D01*
X135930681Y-67897452D01*
X135919683Y-67898535D01*
X135630965Y-67898535D01*
X135619967Y-67897452D01*
X135615296Y-67896035D01*
X135610994Y-67893735D01*
X135604623Y-67888507D01*
X135584248Y-67874893D01*
X135561609Y-67865516D01*
X135537576Y-67860736D01*
X135513071Y-67860736D01*
X135489038Y-67865517D01*
X135466399Y-67874895D01*
X135446029Y-67888505D01*
X135439654Y-67893736D01*
X135435352Y-67896036D01*
X135430681Y-67897453D01*
X135419683Y-67898536D01*
X135130965Y-67898536D01*
X135119967Y-67897453D01*
X135115296Y-67896036D01*
X135110994Y-67893736D01*
X135104619Y-67888505D01*
X135084244Y-67874892D01*
X135061604Y-67865515D01*
X135037571Y-67860735D01*
X135013066Y-67860736D01*
X134989033Y-67865518D01*
X134966394Y-67874896D01*
X134946025Y-67888507D01*
X134939654Y-67893735D01*
X134935352Y-67896035D01*
X134930681Y-67897452D01*
X134919683Y-67898535D01*
X134630965Y-67898535D01*
X134619967Y-67897452D01*
X134615296Y-67896035D01*
X134610994Y-67893735D01*
X134604619Y-67888504D01*
X134584244Y-67874891D01*
X134561605Y-67865515D01*
X134537571Y-67860735D01*
X134513067Y-67860736D01*
X134489033Y-67865518D01*
X134466395Y-67874896D01*
X134446029Y-67888504D01*
X134439654Y-67893735D01*
X134435352Y-67896035D01*
X134430681Y-67897452D01*
X134419683Y-67898535D01*
X134130965Y-67898535D01*
X134119967Y-67897452D01*
X134115296Y-67896035D01*
X134110994Y-67893735D01*
X134104619Y-67888504D01*
X134084244Y-67874891D01*
X134061605Y-67865515D01*
X134037571Y-67860735D01*
X134013067Y-67860736D01*
X133989033Y-67865518D01*
X133966395Y-67874896D01*
X133946029Y-67888504D01*
X133939654Y-67893735D01*
X133935352Y-67896035D01*
X133930681Y-67897452D01*
X133919683Y-67898535D01*
X133630968Y-67898535D01*
X133611011Y-67896569D01*
X133601290Y-67896569D01*
X133601290Y-67886848D01*
X133599324Y-67866891D01*
X133599324Y-67053176D01*
X133600407Y-67042178D01*
X133601824Y-67037507D01*
X133604124Y-67033205D01*
X133607220Y-67029431D01*
X133610994Y-67026335D01*
X133615296Y-67024035D01*
X133619967Y-67022618D01*
X133630965Y-67021535D01*
X133919683Y-67021535D01*
X133930681Y-67022618D01*
X133930681Y-67022618D01*
G37*
G36*
X142007915Y-66612620D02*
X142041893Y-66622928D01*
X142073211Y-66639668D01*
X142100663Y-66662196D01*
X142123191Y-66689648D01*
X142139931Y-66720966D01*
X142150239Y-66754944D01*
X142154324Y-66796425D01*
X142154324Y-67397645D01*
X142150239Y-67439126D01*
X142139931Y-67473104D01*
X142123191Y-67504422D01*
X142100663Y-67531874D01*
X142073211Y-67554402D01*
X142041893Y-67571142D01*
X142007915Y-67581450D01*
X141966434Y-67585535D01*
X141290214Y-67585535D01*
X141248733Y-67581450D01*
X141214755Y-67571142D01*
X141183437Y-67554402D01*
X141155985Y-67531874D01*
X141133457Y-67504422D01*
X141116717Y-67473104D01*
X141106409Y-67439126D01*
X141102324Y-67397645D01*
X141102324Y-66796425D01*
X141106409Y-66754944D01*
X141116717Y-66720966D01*
X141133457Y-66689648D01*
X141155985Y-66662196D01*
X141183437Y-66639668D01*
X141214755Y-66622928D01*
X141248733Y-66612620D01*
X141290214Y-66608535D01*
X141966434Y-66608535D01*
X142007915Y-66612620D01*
X142007915Y-66612620D01*
G37*
G36*
X130415591Y-66153085D02*
X130449569Y-66163393D01*
X130480887Y-66180133D01*
X130508339Y-66202661D01*
X130530867Y-66230113D01*
X130547607Y-66261431D01*
X130557915Y-66295409D01*
X130562000Y-66336890D01*
X130562000Y-67013110D01*
X130557915Y-67054591D01*
X130547607Y-67088569D01*
X130530867Y-67119887D01*
X130508339Y-67147339D01*
X130480887Y-67169867D01*
X130449569Y-67186607D01*
X130415591Y-67196915D01*
X130374110Y-67201000D01*
X129772890Y-67201000D01*
X129731409Y-67196915D01*
X129697431Y-67186607D01*
X129666113Y-67169867D01*
X129638661Y-67147339D01*
X129616133Y-67119887D01*
X129599393Y-67088569D01*
X129589085Y-67054591D01*
X129585000Y-67013110D01*
X129585000Y-66336890D01*
X129589085Y-66295409D01*
X129599393Y-66261431D01*
X129616133Y-66230113D01*
X129638661Y-66202661D01*
X129666113Y-66180133D01*
X129697431Y-66163393D01*
X129731409Y-66153085D01*
X129772890Y-66149000D01*
X130374110Y-66149000D01*
X130415591Y-66153085D01*
X130415591Y-66153085D01*
G37*
G36*
X128840591Y-66153085D02*
X128874569Y-66163393D01*
X128905887Y-66180133D01*
X128933339Y-66202661D01*
X128955867Y-66230113D01*
X128972607Y-66261431D01*
X128982915Y-66295409D01*
X128987000Y-66336890D01*
X128987000Y-67013110D01*
X128982915Y-67054591D01*
X128972607Y-67088569D01*
X128955867Y-67119887D01*
X128933339Y-67147339D01*
X128905887Y-67169867D01*
X128874569Y-67186607D01*
X128840591Y-67196915D01*
X128799110Y-67201000D01*
X128197890Y-67201000D01*
X128156409Y-67196915D01*
X128122431Y-67186607D01*
X128091113Y-67169867D01*
X128063661Y-67147339D01*
X128041133Y-67119887D01*
X128024393Y-67088569D01*
X128014085Y-67054591D01*
X128010000Y-67013110D01*
X128010000Y-66336890D01*
X128014085Y-66295409D01*
X128024393Y-66261431D01*
X128041133Y-66230113D01*
X128063661Y-66202661D01*
X128091113Y-66180133D01*
X128122431Y-66163393D01*
X128156409Y-66153085D01*
X128197890Y-66149000D01*
X128799110Y-66149000D01*
X128840591Y-66153085D01*
X128840591Y-66153085D01*
G37*
G36*
X165210443Y-64637519D02*
X165276627Y-64644037D01*
X165389853Y-64678384D01*
X165446467Y-64695557D01*
X165553271Y-64752646D01*
X165602991Y-64779222D01*
X165626012Y-64798115D01*
X165740186Y-64891814D01*
X165823448Y-64993271D01*
X165852778Y-65029009D01*
X165852779Y-65029011D01*
X165936443Y-65185533D01*
X165936443Y-65185534D01*
X165987963Y-65355373D01*
X166005359Y-65532000D01*
X165987963Y-65708627D01*
X165953616Y-65821853D01*
X165936443Y-65878467D01*
X165862348Y-66017087D01*
X165852778Y-66034991D01*
X165823448Y-66070729D01*
X165740186Y-66172186D01*
X165638729Y-66255448D01*
X165602991Y-66284778D01*
X165602989Y-66284779D01*
X165446467Y-66368443D01*
X165389853Y-66385616D01*
X165276627Y-66419963D01*
X165210443Y-66426481D01*
X165144260Y-66433000D01*
X165055740Y-66433000D01*
X164989557Y-66426481D01*
X164923373Y-66419963D01*
X164810147Y-66385616D01*
X164753533Y-66368443D01*
X164597011Y-66284779D01*
X164597009Y-66284778D01*
X164561271Y-66255448D01*
X164459814Y-66172186D01*
X164376552Y-66070729D01*
X164347222Y-66034991D01*
X164337652Y-66017087D01*
X164263557Y-65878467D01*
X164246384Y-65821853D01*
X164212037Y-65708627D01*
X164194641Y-65532000D01*
X164212037Y-65355373D01*
X164263557Y-65185534D01*
X164263557Y-65185533D01*
X164347221Y-65029011D01*
X164347222Y-65029009D01*
X164376552Y-64993271D01*
X164459814Y-64891814D01*
X164573988Y-64798115D01*
X164597009Y-64779222D01*
X164646729Y-64752646D01*
X164753533Y-64695557D01*
X164810147Y-64678384D01*
X164923373Y-64644037D01*
X164989557Y-64637519D01*
X165055740Y-64631000D01*
X165144260Y-64631000D01*
X165210443Y-64637519D01*
X165210443Y-64637519D01*
G37*
G36*
X133270499Y-63867445D02*
X133307993Y-63878819D01*
X133342557Y-63897294D01*
X133372847Y-63922153D01*
X133397706Y-63952443D01*
X133416181Y-63987007D01*
X133427555Y-64024501D01*
X133432000Y-64069638D01*
X133432000Y-64708362D01*
X133427555Y-64753499D01*
X133416181Y-64790993D01*
X133397706Y-64825557D01*
X133372847Y-64855847D01*
X133342557Y-64880706D01*
X133307993Y-64899181D01*
X133270499Y-64910555D01*
X133225362Y-64915000D01*
X132486638Y-64915000D01*
X132441501Y-64910555D01*
X132404007Y-64899181D01*
X132369443Y-64880706D01*
X132339153Y-64855847D01*
X132314294Y-64825557D01*
X132295819Y-64790993D01*
X132284445Y-64753499D01*
X132280000Y-64708362D01*
X132280000Y-64069638D01*
X132284445Y-64024501D01*
X132295819Y-63987007D01*
X132314294Y-63952443D01*
X132339153Y-63922153D01*
X132369443Y-63897294D01*
X132404007Y-63878819D01*
X132441501Y-63867445D01*
X132486638Y-63863000D01*
X133225362Y-63863000D01*
X133270499Y-63867445D01*
X133270499Y-63867445D01*
G37*
G36*
X135020499Y-63867445D02*
X135057993Y-63878819D01*
X135092557Y-63897294D01*
X135122847Y-63922153D01*
X135147706Y-63952443D01*
X135166181Y-63987007D01*
X135177555Y-64024501D01*
X135182000Y-64069638D01*
X135182000Y-64708362D01*
X135177555Y-64753499D01*
X135166181Y-64790993D01*
X135147706Y-64825557D01*
X135122847Y-64855847D01*
X135092557Y-64880706D01*
X135057993Y-64899181D01*
X135020499Y-64910555D01*
X134975362Y-64915000D01*
X134236638Y-64915000D01*
X134191501Y-64910555D01*
X134154007Y-64899181D01*
X134119443Y-64880706D01*
X134089153Y-64855847D01*
X134064294Y-64825557D01*
X134045819Y-64790993D01*
X134034445Y-64753499D01*
X134030000Y-64708362D01*
X134030000Y-64069638D01*
X134034445Y-64024501D01*
X134045819Y-63987007D01*
X134064294Y-63952443D01*
X134089153Y-63922153D01*
X134119443Y-63897294D01*
X134154007Y-63878819D01*
X134191501Y-63867445D01*
X134236638Y-63863000D01*
X134975362Y-63863000D01*
X135020499Y-63867445D01*
X135020499Y-63867445D01*
G37*
G36*
X165210443Y-62097519D02*
X165276627Y-62104037D01*
X165389853Y-62138384D01*
X165446467Y-62155557D01*
X165522292Y-62196087D01*
X165602991Y-62239222D01*
X165610945Y-62245750D01*
X165740186Y-62351814D01*
X165809553Y-62436339D01*
X165852778Y-62489009D01*
X165852779Y-62489011D01*
X165936443Y-62645533D01*
X165936443Y-62645534D01*
X165987963Y-62815373D01*
X166005359Y-62992000D01*
X165987963Y-63168627D01*
X165953616Y-63281853D01*
X165936443Y-63338467D01*
X165862348Y-63477087D01*
X165852778Y-63494991D01*
X165823448Y-63530729D01*
X165740186Y-63632186D01*
X165638729Y-63715448D01*
X165602991Y-63744778D01*
X165602989Y-63744779D01*
X165446467Y-63828443D01*
X165389853Y-63845616D01*
X165276627Y-63879963D01*
X165210442Y-63886482D01*
X165144260Y-63893000D01*
X165055740Y-63893000D01*
X164989558Y-63886482D01*
X164923373Y-63879963D01*
X164810147Y-63845616D01*
X164753533Y-63828443D01*
X164597011Y-63744779D01*
X164597009Y-63744778D01*
X164561271Y-63715448D01*
X164459814Y-63632186D01*
X164376552Y-63530729D01*
X164347222Y-63494991D01*
X164337652Y-63477087D01*
X164263557Y-63338467D01*
X164246384Y-63281853D01*
X164212037Y-63168627D01*
X164194641Y-62992000D01*
X164212037Y-62815373D01*
X164263557Y-62645534D01*
X164263557Y-62645533D01*
X164347221Y-62489011D01*
X164347222Y-62489009D01*
X164390447Y-62436339D01*
X164459814Y-62351814D01*
X164589055Y-62245750D01*
X164597009Y-62239222D01*
X164677708Y-62196087D01*
X164753533Y-62155557D01*
X164810147Y-62138384D01*
X164923373Y-62104037D01*
X164989557Y-62097519D01*
X165055740Y-62091000D01*
X165144260Y-62091000D01*
X165210443Y-62097519D01*
X165210443Y-62097519D01*
G37*
G36*
X131501823Y-62155980D02*
X131539317Y-62167354D01*
X131573881Y-62185829D01*
X131604171Y-62210688D01*
X131629030Y-62240978D01*
X131647505Y-62275542D01*
X131658879Y-62313036D01*
X131663324Y-62358173D01*
X131663324Y-62996897D01*
X131658879Y-63042034D01*
X131647505Y-63079528D01*
X131629030Y-63114092D01*
X131604171Y-63144382D01*
X131573881Y-63169241D01*
X131539317Y-63187716D01*
X131501823Y-63199090D01*
X131456686Y-63203535D01*
X130717962Y-63203535D01*
X130672825Y-63199090D01*
X130635331Y-63187716D01*
X130600767Y-63169241D01*
X130570477Y-63144382D01*
X130545618Y-63114092D01*
X130527143Y-63079528D01*
X130515769Y-63042034D01*
X130511324Y-62996897D01*
X130511324Y-62358173D01*
X130515769Y-62313036D01*
X130527143Y-62275542D01*
X130545618Y-62240978D01*
X130570477Y-62210688D01*
X130600767Y-62185829D01*
X130635331Y-62167354D01*
X130672825Y-62155980D01*
X130717962Y-62151535D01*
X131456686Y-62151535D01*
X131501823Y-62155980D01*
X131501823Y-62155980D01*
G37*
G36*
X129751823Y-62155980D02*
X129789317Y-62167354D01*
X129823881Y-62185829D01*
X129854171Y-62210688D01*
X129879030Y-62240978D01*
X129897505Y-62275542D01*
X129908879Y-62313036D01*
X129913324Y-62358173D01*
X129913324Y-62996897D01*
X129908879Y-63042034D01*
X129897505Y-63079528D01*
X129879030Y-63114092D01*
X129854171Y-63144382D01*
X129823881Y-63169241D01*
X129789317Y-63187716D01*
X129751823Y-63199090D01*
X129706686Y-63203535D01*
X128967962Y-63203535D01*
X128922825Y-63199090D01*
X128885331Y-63187716D01*
X128850767Y-63169241D01*
X128820477Y-63144382D01*
X128795618Y-63114092D01*
X128777143Y-63079528D01*
X128765769Y-63042034D01*
X128761324Y-62996897D01*
X128761324Y-62358173D01*
X128765769Y-62313036D01*
X128777143Y-62275542D01*
X128795618Y-62240978D01*
X128820477Y-62210688D01*
X128850767Y-62185829D01*
X128885331Y-62167354D01*
X128922825Y-62155980D01*
X128967962Y-62151535D01*
X129706686Y-62151535D01*
X129751823Y-62155980D01*
X129751823Y-62155980D01*
G37*
G36*
X135911915Y-62091620D02*
X135945893Y-62101928D01*
X135977211Y-62118668D01*
X136004663Y-62141196D01*
X136027191Y-62168648D01*
X136043931Y-62199966D01*
X136054239Y-62233944D01*
X136058324Y-62275425D01*
X136058324Y-62876645D01*
X136054239Y-62918126D01*
X136043931Y-62952104D01*
X136027191Y-62983422D01*
X136004663Y-63010874D01*
X135977211Y-63033402D01*
X135945893Y-63050142D01*
X135911915Y-63060450D01*
X135870434Y-63064535D01*
X135194214Y-63064535D01*
X135152733Y-63060450D01*
X135118755Y-63050142D01*
X135087437Y-63033402D01*
X135059985Y-63010874D01*
X135037457Y-62983422D01*
X135020717Y-62952104D01*
X135010409Y-62918126D01*
X135006324Y-62876645D01*
X135006324Y-62275425D01*
X135010409Y-62233944D01*
X135020717Y-62199966D01*
X135037457Y-62168648D01*
X135059985Y-62141196D01*
X135087437Y-62118668D01*
X135118755Y-62101928D01*
X135152733Y-62091620D01*
X135194214Y-62087535D01*
X135870434Y-62087535D01*
X135911915Y-62091620D01*
X135911915Y-62091620D01*
G37*
G36*
X143000591Y-61517085D02*
X143034569Y-61527393D01*
X143065887Y-61544133D01*
X143093339Y-61566661D01*
X143115867Y-61594113D01*
X143132607Y-61625431D01*
X143142915Y-61659409D01*
X143147000Y-61700890D01*
X143147000Y-62302110D01*
X143142915Y-62343591D01*
X143132607Y-62377569D01*
X143115867Y-62408887D01*
X143093339Y-62436339D01*
X143065887Y-62458867D01*
X143034569Y-62475607D01*
X143000591Y-62485915D01*
X142959110Y-62490000D01*
X142282890Y-62490000D01*
X142241409Y-62485915D01*
X142207431Y-62475607D01*
X142176113Y-62458867D01*
X142148661Y-62436339D01*
X142126133Y-62408887D01*
X142109393Y-62377569D01*
X142099085Y-62343591D01*
X142095000Y-62302110D01*
X142095000Y-61700890D01*
X142099085Y-61659409D01*
X142109393Y-61625431D01*
X142126133Y-61594113D01*
X142148661Y-61566661D01*
X142176113Y-61544133D01*
X142207431Y-61527393D01*
X142241409Y-61517085D01*
X142282890Y-61513000D01*
X142959110Y-61513000D01*
X143000591Y-61517085D01*
X143000591Y-61517085D01*
G37*
G36*
X120176901Y-60814882D02*
X120210879Y-60825190D01*
X120242197Y-60841930D01*
X120269649Y-60864458D01*
X120292177Y-60891910D01*
X120308917Y-60923228D01*
X120319225Y-60957206D01*
X120323310Y-60998687D01*
X120323310Y-61674907D01*
X120319225Y-61716388D01*
X120308917Y-61750366D01*
X120292177Y-61781684D01*
X120269649Y-61809136D01*
X120242197Y-61831664D01*
X120210879Y-61848404D01*
X120176901Y-61858712D01*
X120135420Y-61862797D01*
X119534200Y-61862797D01*
X119492719Y-61858712D01*
X119458741Y-61848404D01*
X119427423Y-61831664D01*
X119399971Y-61809136D01*
X119377443Y-61781684D01*
X119360703Y-61750366D01*
X119350395Y-61716388D01*
X119346310Y-61674907D01*
X119346310Y-60998687D01*
X119350395Y-60957206D01*
X119360703Y-60923228D01*
X119377443Y-60891910D01*
X119399971Y-60864458D01*
X119427423Y-60841930D01*
X119458741Y-60825190D01*
X119492719Y-60814882D01*
X119534200Y-60810797D01*
X120135420Y-60810797D01*
X120176901Y-60814882D01*
X120176901Y-60814882D01*
G37*
G36*
X121751901Y-60814882D02*
X121785879Y-60825190D01*
X121817197Y-60841930D01*
X121844649Y-60864458D01*
X121867177Y-60891910D01*
X121883917Y-60923228D01*
X121894225Y-60957206D01*
X121898310Y-60998687D01*
X121898310Y-61674907D01*
X121894225Y-61716388D01*
X121883917Y-61750366D01*
X121867177Y-61781684D01*
X121844649Y-61809136D01*
X121817197Y-61831664D01*
X121785879Y-61848404D01*
X121751901Y-61858712D01*
X121710420Y-61862797D01*
X121109200Y-61862797D01*
X121067719Y-61858712D01*
X121033741Y-61848404D01*
X121002423Y-61831664D01*
X120974971Y-61809136D01*
X120952443Y-61781684D01*
X120935703Y-61750366D01*
X120925395Y-61716388D01*
X120921310Y-61674907D01*
X120921310Y-60998687D01*
X120925395Y-60957206D01*
X120935703Y-60923228D01*
X120952443Y-60891910D01*
X120974971Y-60864458D01*
X121002423Y-60841930D01*
X121033741Y-60825190D01*
X121067719Y-60814882D01*
X121109200Y-60810797D01*
X121710420Y-60810797D01*
X121751901Y-60814882D01*
X121751901Y-60814882D01*
G37*
G36*
X141216324Y-61627535D02*
X140014324Y-61627535D01*
X140014324Y-60425535D01*
X141216324Y-60425535D01*
X141216324Y-61627535D01*
X141216324Y-61627535D01*
G37*
G36*
X138416324Y-61627535D02*
X137214324Y-61627535D01*
X137214324Y-60425535D01*
X138416324Y-60425535D01*
X138416324Y-61627535D01*
X138416324Y-61627535D01*
G37*
G36*
X135911915Y-60516620D02*
X135945893Y-60526928D01*
X135977211Y-60543668D01*
X136004663Y-60566196D01*
X136027191Y-60593648D01*
X136043931Y-60624966D01*
X136054239Y-60658944D01*
X136058324Y-60700425D01*
X136058324Y-61301645D01*
X136054239Y-61343126D01*
X136043931Y-61377104D01*
X136027191Y-61408422D01*
X136004663Y-61435874D01*
X135977211Y-61458402D01*
X135945893Y-61475142D01*
X135911915Y-61485450D01*
X135870434Y-61489535D01*
X135194214Y-61489535D01*
X135152733Y-61485450D01*
X135118755Y-61475142D01*
X135087437Y-61458402D01*
X135059985Y-61435874D01*
X135037457Y-61408422D01*
X135020717Y-61377104D01*
X135010409Y-61343126D01*
X135006324Y-61301645D01*
X135006324Y-60700425D01*
X135010409Y-60658944D01*
X135020717Y-60624966D01*
X135037457Y-60593648D01*
X135059985Y-60566196D01*
X135087437Y-60543668D01*
X135118755Y-60526928D01*
X135152733Y-60516620D01*
X135194214Y-60512535D01*
X135870434Y-60512535D01*
X135911915Y-60516620D01*
X135911915Y-60516620D01*
G37*
G36*
X165210443Y-59557519D02*
X165276627Y-59564037D01*
X165389853Y-59598384D01*
X165446467Y-59615557D01*
X165585087Y-59689652D01*
X165602991Y-59699222D01*
X165638729Y-59728552D01*
X165740186Y-59811814D01*
X165823448Y-59913271D01*
X165852778Y-59949009D01*
X165852779Y-59949011D01*
X165936443Y-60105533D01*
X165936443Y-60105534D01*
X165987963Y-60275373D01*
X166005359Y-60452000D01*
X165987963Y-60628627D01*
X165953616Y-60741853D01*
X165936443Y-60798467D01*
X165896157Y-60873836D01*
X165852778Y-60954991D01*
X165823448Y-60990729D01*
X165740186Y-61092186D01*
X165638729Y-61175448D01*
X165602991Y-61204778D01*
X165602989Y-61204779D01*
X165446467Y-61288443D01*
X165431655Y-61292936D01*
X165276627Y-61339963D01*
X165210443Y-61346481D01*
X165144260Y-61353000D01*
X165055740Y-61353000D01*
X164989557Y-61346481D01*
X164923373Y-61339963D01*
X164768345Y-61292936D01*
X164753533Y-61288443D01*
X164597011Y-61204779D01*
X164597009Y-61204778D01*
X164561271Y-61175448D01*
X164459814Y-61092186D01*
X164376552Y-60990729D01*
X164347222Y-60954991D01*
X164303843Y-60873836D01*
X164263557Y-60798467D01*
X164246384Y-60741853D01*
X164212037Y-60628627D01*
X164194641Y-60452000D01*
X164212037Y-60275373D01*
X164263557Y-60105534D01*
X164263557Y-60105533D01*
X164347221Y-59949011D01*
X164347222Y-59949009D01*
X164376552Y-59913271D01*
X164459814Y-59811814D01*
X164561271Y-59728552D01*
X164597009Y-59699222D01*
X164614913Y-59689652D01*
X164753533Y-59615557D01*
X164810147Y-59598384D01*
X164923373Y-59564037D01*
X164989557Y-59557519D01*
X165055740Y-59551000D01*
X165144260Y-59551000D01*
X165210443Y-59557519D01*
X165210443Y-59557519D01*
G37*
G36*
X143000591Y-59942085D02*
X143034569Y-59952393D01*
X143065887Y-59969133D01*
X143093339Y-59991661D01*
X143115867Y-60019113D01*
X143132607Y-60050431D01*
X143142915Y-60084409D01*
X143147000Y-60125890D01*
X143147000Y-60727110D01*
X143142915Y-60768591D01*
X143132607Y-60802569D01*
X143115867Y-60833887D01*
X143093339Y-60861339D01*
X143065887Y-60883867D01*
X143034569Y-60900607D01*
X143000591Y-60910915D01*
X142959110Y-60915000D01*
X142282890Y-60915000D01*
X142241409Y-60910915D01*
X142207431Y-60900607D01*
X142176113Y-60883867D01*
X142148661Y-60861339D01*
X142126133Y-60833887D01*
X142109393Y-60802569D01*
X142099085Y-60768591D01*
X142095000Y-60727110D01*
X142095000Y-60125890D01*
X142099085Y-60084409D01*
X142109393Y-60050431D01*
X142126133Y-60019113D01*
X142148661Y-59991661D01*
X142176113Y-59969133D01*
X142207431Y-59952393D01*
X142241409Y-59942085D01*
X142282890Y-59938000D01*
X142959110Y-59938000D01*
X143000591Y-59942085D01*
X143000591Y-59942085D01*
G37*
G36*
X129737823Y-59234980D02*
X129775317Y-59246354D01*
X129809881Y-59264829D01*
X129840171Y-59289688D01*
X129865030Y-59319978D01*
X129883505Y-59354542D01*
X129894879Y-59392036D01*
X129899324Y-59437173D01*
X129899324Y-60075897D01*
X129894879Y-60121034D01*
X129883505Y-60158528D01*
X129865030Y-60193092D01*
X129840171Y-60223382D01*
X129809881Y-60248241D01*
X129775317Y-60266716D01*
X129737823Y-60278090D01*
X129692686Y-60282535D01*
X128953962Y-60282535D01*
X128908825Y-60278090D01*
X128871331Y-60266716D01*
X128836767Y-60248241D01*
X128806477Y-60223382D01*
X128781618Y-60193092D01*
X128763143Y-60158528D01*
X128751769Y-60121034D01*
X128747324Y-60075897D01*
X128747324Y-59437173D01*
X128751769Y-59392036D01*
X128763143Y-59354542D01*
X128781618Y-59319978D01*
X128806477Y-59289688D01*
X128836767Y-59264829D01*
X128871331Y-59246354D01*
X128908825Y-59234980D01*
X128953962Y-59230535D01*
X129692686Y-59230535D01*
X129737823Y-59234980D01*
X129737823Y-59234980D01*
G37*
G36*
X131487823Y-59234980D02*
X131525317Y-59246354D01*
X131559881Y-59264829D01*
X131590171Y-59289688D01*
X131615030Y-59319978D01*
X131633505Y-59354542D01*
X131644879Y-59392036D01*
X131649324Y-59437173D01*
X131649324Y-60075897D01*
X131644879Y-60121034D01*
X131633505Y-60158528D01*
X131615030Y-60193092D01*
X131590171Y-60223382D01*
X131559881Y-60248241D01*
X131525317Y-60266716D01*
X131487823Y-60278090D01*
X131442686Y-60282535D01*
X130703962Y-60282535D01*
X130658825Y-60278090D01*
X130621331Y-60266716D01*
X130586767Y-60248241D01*
X130556477Y-60223382D01*
X130531618Y-60193092D01*
X130513143Y-60158528D01*
X130501769Y-60121034D01*
X130497324Y-60075897D01*
X130497324Y-59437173D01*
X130501769Y-59392036D01*
X130513143Y-59354542D01*
X130531618Y-59319978D01*
X130556477Y-59289688D01*
X130586767Y-59264829D01*
X130621331Y-59246354D01*
X130658825Y-59234980D01*
X130703962Y-59230535D01*
X131442686Y-59230535D01*
X131487823Y-59234980D01*
X131487823Y-59234980D01*
G37*
G36*
X120176901Y-57766882D02*
X120210879Y-57777190D01*
X120242197Y-57793930D01*
X120269649Y-57816458D01*
X120292177Y-57843910D01*
X120308917Y-57875228D01*
X120319225Y-57909206D01*
X120323310Y-57950687D01*
X120323310Y-58626907D01*
X120319225Y-58668388D01*
X120308917Y-58702366D01*
X120292177Y-58733684D01*
X120269649Y-58761136D01*
X120242197Y-58783664D01*
X120210879Y-58800404D01*
X120176901Y-58810712D01*
X120135420Y-58814797D01*
X119534200Y-58814797D01*
X119492719Y-58810712D01*
X119458741Y-58800404D01*
X119427423Y-58783664D01*
X119399971Y-58761136D01*
X119377443Y-58733684D01*
X119360703Y-58702366D01*
X119350395Y-58668388D01*
X119346310Y-58626907D01*
X119346310Y-57950687D01*
X119350395Y-57909206D01*
X119360703Y-57875228D01*
X119377443Y-57843910D01*
X119399971Y-57816458D01*
X119427423Y-57793930D01*
X119458741Y-57777190D01*
X119492719Y-57766882D01*
X119534200Y-57762797D01*
X120135420Y-57762797D01*
X120176901Y-57766882D01*
X120176901Y-57766882D01*
G37*
G36*
X121751901Y-57766882D02*
X121785879Y-57777190D01*
X121817197Y-57793930D01*
X121844649Y-57816458D01*
X121867177Y-57843910D01*
X121883917Y-57875228D01*
X121894225Y-57909206D01*
X121898310Y-57950687D01*
X121898310Y-58626907D01*
X121894225Y-58668388D01*
X121883917Y-58702366D01*
X121867177Y-58733684D01*
X121844649Y-58761136D01*
X121817197Y-58783664D01*
X121785879Y-58800404D01*
X121751901Y-58810712D01*
X121710420Y-58814797D01*
X121109200Y-58814797D01*
X121067719Y-58810712D01*
X121033741Y-58800404D01*
X121002423Y-58783664D01*
X120974971Y-58761136D01*
X120952443Y-58733684D01*
X120935703Y-58702366D01*
X120925395Y-58668388D01*
X120921310Y-58626907D01*
X120921310Y-57950687D01*
X120925395Y-57909206D01*
X120935703Y-57875228D01*
X120952443Y-57843910D01*
X120974971Y-57816458D01*
X121002423Y-57793930D01*
X121033741Y-57777190D01*
X121067719Y-57766882D01*
X121109200Y-57762797D01*
X121710420Y-57762797D01*
X121751901Y-57766882D01*
X121751901Y-57766882D01*
G37*
G36*
X166001000Y-58813000D02*
X164199000Y-58813000D01*
X164199000Y-57011000D01*
X166001000Y-57011000D01*
X166001000Y-58813000D01*
X166001000Y-58813000D01*
G37*
G36*
X135911915Y-57646620D02*
X135945893Y-57656928D01*
X135977211Y-57673668D01*
X136004663Y-57696196D01*
X136027191Y-57723648D01*
X136043931Y-57754966D01*
X136054239Y-57788944D01*
X136058324Y-57830425D01*
X136058324Y-58431645D01*
X136054239Y-58473126D01*
X136043931Y-58507104D01*
X136027191Y-58538422D01*
X136004663Y-58565874D01*
X135977211Y-58588402D01*
X135945893Y-58605142D01*
X135911915Y-58615450D01*
X135870434Y-58619535D01*
X135194214Y-58619535D01*
X135152733Y-58615450D01*
X135118755Y-58605142D01*
X135087437Y-58588402D01*
X135059985Y-58565874D01*
X135037457Y-58538422D01*
X135020717Y-58507104D01*
X135010409Y-58473126D01*
X135006324Y-58431645D01*
X135006324Y-57830425D01*
X135010409Y-57788944D01*
X135020717Y-57754966D01*
X135037457Y-57723648D01*
X135059985Y-57696196D01*
X135087437Y-57673668D01*
X135118755Y-57656928D01*
X135152733Y-57646620D01*
X135194214Y-57642535D01*
X135870434Y-57642535D01*
X135911915Y-57646620D01*
X135911915Y-57646620D01*
G37*
G36*
X138818604Y-54508347D02*
X138855145Y-54519432D01*
X138888820Y-54537431D01*
X138918341Y-54561659D01*
X138942569Y-54591180D01*
X138960568Y-54624855D01*
X138971653Y-54661396D01*
X138976000Y-54705538D01*
X138976000Y-57054462D01*
X138971653Y-57098604D01*
X138960568Y-57135145D01*
X138942569Y-57168820D01*
X138918341Y-57198341D01*
X138888820Y-57222569D01*
X138855145Y-57240568D01*
X138818604Y-57251653D01*
X138774462Y-57256000D01*
X137825538Y-57256000D01*
X137781396Y-57251653D01*
X137744855Y-57240568D01*
X137711180Y-57222569D01*
X137681659Y-57198341D01*
X137657431Y-57168820D01*
X137639432Y-57135145D01*
X137628347Y-57098604D01*
X137624000Y-57054462D01*
X137624000Y-54705538D01*
X137628347Y-54661396D01*
X137639432Y-54624855D01*
X137657431Y-54591180D01*
X137681659Y-54561659D01*
X137711180Y-54537431D01*
X137744855Y-54519432D01*
X137781396Y-54508347D01*
X137825538Y-54504000D01*
X138774462Y-54504000D01*
X138818604Y-54508347D01*
X138818604Y-54508347D01*
G37*
G36*
X141618604Y-54508347D02*
X141655145Y-54519432D01*
X141688820Y-54537431D01*
X141718341Y-54561659D01*
X141742569Y-54591180D01*
X141760568Y-54624855D01*
X141771653Y-54661396D01*
X141776000Y-54705538D01*
X141776000Y-57054462D01*
X141771653Y-57098604D01*
X141760568Y-57135145D01*
X141742569Y-57168820D01*
X141718341Y-57198341D01*
X141688820Y-57222569D01*
X141655145Y-57240568D01*
X141618604Y-57251653D01*
X141574462Y-57256000D01*
X140625538Y-57256000D01*
X140581396Y-57251653D01*
X140544855Y-57240568D01*
X140511180Y-57222569D01*
X140481659Y-57198341D01*
X140457431Y-57168820D01*
X140439432Y-57135145D01*
X140428347Y-57098604D01*
X140424000Y-57054462D01*
X140424000Y-54705538D01*
X140428347Y-54661396D01*
X140439432Y-54624855D01*
X140457431Y-54591180D01*
X140481659Y-54561659D01*
X140511180Y-54537431D01*
X140544855Y-54519432D01*
X140581396Y-54508347D01*
X140625538Y-54504000D01*
X141574462Y-54504000D01*
X141618604Y-54508347D01*
X141618604Y-54508347D01*
G37*
G36*
X135911915Y-56071620D02*
X135945893Y-56081928D01*
X135977211Y-56098668D01*
X136004663Y-56121196D01*
X136027191Y-56148648D01*
X136043931Y-56179966D01*
X136054239Y-56213944D01*
X136058324Y-56255425D01*
X136058324Y-56856645D01*
X136054239Y-56898126D01*
X136043931Y-56932104D01*
X136027191Y-56963422D01*
X136004663Y-56990874D01*
X135977211Y-57013402D01*
X135945893Y-57030142D01*
X135911915Y-57040450D01*
X135870434Y-57044535D01*
X135194214Y-57044535D01*
X135152733Y-57040450D01*
X135118755Y-57030142D01*
X135087437Y-57013402D01*
X135059985Y-56990874D01*
X135037457Y-56963422D01*
X135020717Y-56932104D01*
X135010409Y-56898126D01*
X135006324Y-56856645D01*
X135006324Y-56255425D01*
X135010409Y-56213944D01*
X135020717Y-56179966D01*
X135037457Y-56148648D01*
X135059985Y-56121196D01*
X135087437Y-56098668D01*
X135118755Y-56081928D01*
X135152733Y-56071620D01*
X135194214Y-56067535D01*
X135870434Y-56067535D01*
X135911915Y-56071620D01*
X135911915Y-56071620D01*
G37*
G36*
X120076140Y-51373727D02*
X120076143Y-51373728D01*
X120076144Y-51373728D01*
X120283683Y-51436684D01*
X120283685Y-51436685D01*
X120474954Y-51538920D01*
X120642601Y-51676506D01*
X120780187Y-51844153D01*
X120851480Y-51977534D01*
X120882423Y-52035424D01*
X120945379Y-52242963D01*
X120945380Y-52242967D01*
X120961310Y-52404708D01*
X120961310Y-54012886D01*
X120945380Y-54174627D01*
X120882422Y-54382172D01*
X120780187Y-54573441D01*
X120708003Y-54661396D01*
X120642601Y-54741088D01*
X120474952Y-54878674D01*
X120283682Y-54980910D01*
X120076143Y-55043866D01*
X120076142Y-55043866D01*
X120076139Y-55043867D01*
X119860310Y-55065124D01*
X119644480Y-55043867D01*
X119644477Y-55043866D01*
X119644476Y-55043866D01*
X119436937Y-54980910D01*
X119436935Y-54980909D01*
X119245666Y-54878674D01*
X119078019Y-54741088D01*
X119020435Y-54670922D01*
X118940433Y-54573439D01*
X118838197Y-54382169D01*
X118775241Y-54174630D01*
X118775241Y-54174629D01*
X118775240Y-54174626D01*
X118759310Y-54012885D01*
X118759310Y-52404708D01*
X118775240Y-52242962D01*
X118838197Y-52035426D01*
X118940434Y-51844153D01*
X119078020Y-51676506D01*
X119245667Y-51538920D01*
X119436936Y-51436685D01*
X119436938Y-51436684D01*
X119644477Y-51373728D01*
X119644478Y-51373728D01*
X119644481Y-51373727D01*
X119860310Y-51352470D01*
X120076140Y-51373727D01*
X120076140Y-51373727D01*
G37*
G36*
X128446845Y-51361597D02*
X128478050Y-51371063D01*
X128506797Y-51386428D01*
X128531997Y-51407110D01*
X128552679Y-51432310D01*
X128568044Y-51461057D01*
X128577510Y-51492262D01*
X128581310Y-51530842D01*
X128581310Y-54886752D01*
X128577510Y-54925332D01*
X128568044Y-54956537D01*
X128552679Y-54985284D01*
X128531997Y-55010484D01*
X128506797Y-55031166D01*
X128478050Y-55046531D01*
X128446845Y-55055997D01*
X128408265Y-55059797D01*
X126552355Y-55059797D01*
X126513775Y-55055997D01*
X126482570Y-55046531D01*
X126453823Y-55031166D01*
X126428623Y-55010484D01*
X126407941Y-54985284D01*
X126392576Y-54956537D01*
X126383110Y-54925332D01*
X126379310Y-54886752D01*
X126379310Y-51530842D01*
X126383110Y-51492262D01*
X126392576Y-51461057D01*
X126407941Y-51432310D01*
X126428623Y-51407110D01*
X126453823Y-51386428D01*
X126482570Y-51371063D01*
X126513775Y-51361597D01*
X126552355Y-51357797D01*
X128408265Y-51357797D01*
X128446845Y-51361597D01*
X128446845Y-51361597D01*
G37*
G36*
X149970443Y-51429519D02*
X150036627Y-51436037D01*
X150149853Y-51470384D01*
X150206467Y-51487557D01*
X150287446Y-51530842D01*
X150362991Y-51571222D01*
X150398729Y-51600552D01*
X150500186Y-51683814D01*
X150583448Y-51785271D01*
X150612778Y-51821009D01*
X150612779Y-51821011D01*
X150696443Y-51977533D01*
X150696443Y-51977534D01*
X150747963Y-52147373D01*
X150765359Y-52324000D01*
X150747963Y-52500627D01*
X150713616Y-52613853D01*
X150696443Y-52670467D01*
X150622348Y-52809087D01*
X150612778Y-52826991D01*
X150583448Y-52862729D01*
X150500186Y-52964186D01*
X150398729Y-53047448D01*
X150362991Y-53076778D01*
X150362989Y-53076779D01*
X150206467Y-53160443D01*
X150149853Y-53177616D01*
X150036627Y-53211963D01*
X149970442Y-53218482D01*
X149904260Y-53225000D01*
X149815740Y-53225000D01*
X149749558Y-53218482D01*
X149683373Y-53211963D01*
X149570147Y-53177616D01*
X149513533Y-53160443D01*
X149357011Y-53076779D01*
X149357009Y-53076778D01*
X149321271Y-53047448D01*
X149219814Y-52964186D01*
X149136552Y-52862729D01*
X149107222Y-52826991D01*
X149097652Y-52809087D01*
X149023557Y-52670467D01*
X149006384Y-52613853D01*
X148972037Y-52500627D01*
X148954641Y-52324000D01*
X148972037Y-52147373D01*
X149023557Y-51977534D01*
X149023557Y-51977533D01*
X149107221Y-51821011D01*
X149107222Y-51821009D01*
X149136552Y-51785271D01*
X149219814Y-51683814D01*
X149321271Y-51600552D01*
X149357009Y-51571222D01*
X149432554Y-51530842D01*
X149513533Y-51487557D01*
X149570147Y-51470384D01*
X149683373Y-51436037D01*
X149749557Y-51429519D01*
X149815740Y-51423000D01*
X149904260Y-51423000D01*
X149970443Y-51429519D01*
X149970443Y-51429519D01*
G37*
G36*
X165210443Y-51429519D02*
X165276627Y-51436037D01*
X165389853Y-51470384D01*
X165446467Y-51487557D01*
X165527446Y-51530842D01*
X165602991Y-51571222D01*
X165638729Y-51600552D01*
X165740186Y-51683814D01*
X165823448Y-51785271D01*
X165852778Y-51821009D01*
X165852779Y-51821011D01*
X165936443Y-51977533D01*
X165936443Y-51977534D01*
X165987963Y-52147373D01*
X166005359Y-52324000D01*
X165987963Y-52500627D01*
X165953616Y-52613853D01*
X165936443Y-52670467D01*
X165862348Y-52809087D01*
X165852778Y-52826991D01*
X165823448Y-52862729D01*
X165740186Y-52964186D01*
X165638729Y-53047448D01*
X165602991Y-53076778D01*
X165602989Y-53076779D01*
X165446467Y-53160443D01*
X165389853Y-53177616D01*
X165276627Y-53211963D01*
X165210442Y-53218482D01*
X165144260Y-53225000D01*
X165055740Y-53225000D01*
X164989558Y-53218482D01*
X164923373Y-53211963D01*
X164810147Y-53177616D01*
X164753533Y-53160443D01*
X164597011Y-53076779D01*
X164597009Y-53076778D01*
X164561271Y-53047448D01*
X164459814Y-52964186D01*
X164376552Y-52862729D01*
X164347222Y-52826991D01*
X164337652Y-52809087D01*
X164263557Y-52670467D01*
X164246384Y-52613853D01*
X164212037Y-52500627D01*
X164194641Y-52324000D01*
X164212037Y-52147373D01*
X164263557Y-51977534D01*
X164263557Y-51977533D01*
X164347221Y-51821011D01*
X164347222Y-51821009D01*
X164376552Y-51785271D01*
X164459814Y-51683814D01*
X164561271Y-51600552D01*
X164597009Y-51571222D01*
X164672554Y-51530842D01*
X164753533Y-51487557D01*
X164810147Y-51470384D01*
X164923373Y-51436037D01*
X164989557Y-51429519D01*
X165055740Y-51423000D01*
X165144260Y-51423000D01*
X165210443Y-51429519D01*
X165210443Y-51429519D01*
G37*
G36*
X162670443Y-51429519D02*
X162736627Y-51436037D01*
X162849853Y-51470384D01*
X162906467Y-51487557D01*
X162987446Y-51530842D01*
X163062991Y-51571222D01*
X163098729Y-51600552D01*
X163200186Y-51683814D01*
X163283448Y-51785271D01*
X163312778Y-51821009D01*
X163312779Y-51821011D01*
X163396443Y-51977533D01*
X163396443Y-51977534D01*
X163447963Y-52147373D01*
X163465359Y-52324000D01*
X163447963Y-52500627D01*
X163413616Y-52613853D01*
X163396443Y-52670467D01*
X163322348Y-52809087D01*
X163312778Y-52826991D01*
X163283448Y-52862729D01*
X163200186Y-52964186D01*
X163098729Y-53047448D01*
X163062991Y-53076778D01*
X163062989Y-53076779D01*
X162906467Y-53160443D01*
X162849853Y-53177616D01*
X162736627Y-53211963D01*
X162670442Y-53218482D01*
X162604260Y-53225000D01*
X162515740Y-53225000D01*
X162449558Y-53218482D01*
X162383373Y-53211963D01*
X162270147Y-53177616D01*
X162213533Y-53160443D01*
X162057011Y-53076779D01*
X162057009Y-53076778D01*
X162021271Y-53047448D01*
X161919814Y-52964186D01*
X161836552Y-52862729D01*
X161807222Y-52826991D01*
X161797652Y-52809087D01*
X161723557Y-52670467D01*
X161706384Y-52613853D01*
X161672037Y-52500627D01*
X161654641Y-52324000D01*
X161672037Y-52147373D01*
X161723557Y-51977534D01*
X161723557Y-51977533D01*
X161807221Y-51821011D01*
X161807222Y-51821009D01*
X161836552Y-51785271D01*
X161919814Y-51683814D01*
X162021271Y-51600552D01*
X162057009Y-51571222D01*
X162132554Y-51530842D01*
X162213533Y-51487557D01*
X162270147Y-51470384D01*
X162383373Y-51436037D01*
X162449557Y-51429519D01*
X162515740Y-51423000D01*
X162604260Y-51423000D01*
X162670443Y-51429519D01*
X162670443Y-51429519D01*
G37*
G36*
X160130443Y-51429519D02*
X160196627Y-51436037D01*
X160309853Y-51470384D01*
X160366467Y-51487557D01*
X160447446Y-51530842D01*
X160522991Y-51571222D01*
X160558729Y-51600552D01*
X160660186Y-51683814D01*
X160743448Y-51785271D01*
X160772778Y-51821009D01*
X160772779Y-51821011D01*
X160856443Y-51977533D01*
X160856443Y-51977534D01*
X160907963Y-52147373D01*
X160925359Y-52324000D01*
X160907963Y-52500627D01*
X160873616Y-52613853D01*
X160856443Y-52670467D01*
X160782348Y-52809087D01*
X160772778Y-52826991D01*
X160743448Y-52862729D01*
X160660186Y-52964186D01*
X160558729Y-53047448D01*
X160522991Y-53076778D01*
X160522989Y-53076779D01*
X160366467Y-53160443D01*
X160309853Y-53177616D01*
X160196627Y-53211963D01*
X160130442Y-53218482D01*
X160064260Y-53225000D01*
X159975740Y-53225000D01*
X159909558Y-53218482D01*
X159843373Y-53211963D01*
X159730147Y-53177616D01*
X159673533Y-53160443D01*
X159517011Y-53076779D01*
X159517009Y-53076778D01*
X159481271Y-53047448D01*
X159379814Y-52964186D01*
X159296552Y-52862729D01*
X159267222Y-52826991D01*
X159257652Y-52809087D01*
X159183557Y-52670467D01*
X159166384Y-52613853D01*
X159132037Y-52500627D01*
X159114641Y-52324000D01*
X159132037Y-52147373D01*
X159183557Y-51977534D01*
X159183557Y-51977533D01*
X159267221Y-51821011D01*
X159267222Y-51821009D01*
X159296552Y-51785271D01*
X159379814Y-51683814D01*
X159481271Y-51600552D01*
X159517009Y-51571222D01*
X159592554Y-51530842D01*
X159673533Y-51487557D01*
X159730147Y-51470384D01*
X159843373Y-51436037D01*
X159909557Y-51429519D01*
X159975740Y-51423000D01*
X160064260Y-51423000D01*
X160130443Y-51429519D01*
X160130443Y-51429519D01*
G37*
G36*
X148221000Y-53225000D02*
X146419000Y-53225000D01*
X146419000Y-51423000D01*
X148221000Y-51423000D01*
X148221000Y-53225000D01*
X148221000Y-53225000D01*
G37*
G36*
X152510443Y-51429519D02*
X152576627Y-51436037D01*
X152689853Y-51470384D01*
X152746467Y-51487557D01*
X152827446Y-51530842D01*
X152902991Y-51571222D01*
X152938729Y-51600552D01*
X153040186Y-51683814D01*
X153123448Y-51785271D01*
X153152778Y-51821009D01*
X153152779Y-51821011D01*
X153236443Y-51977533D01*
X153236443Y-51977534D01*
X153287963Y-52147373D01*
X153305359Y-52324000D01*
X153287963Y-52500627D01*
X153253616Y-52613853D01*
X153236443Y-52670467D01*
X153162348Y-52809087D01*
X153152778Y-52826991D01*
X153123448Y-52862729D01*
X153040186Y-52964186D01*
X152938729Y-53047448D01*
X152902991Y-53076778D01*
X152902989Y-53076779D01*
X152746467Y-53160443D01*
X152689853Y-53177616D01*
X152576627Y-53211963D01*
X152510442Y-53218482D01*
X152444260Y-53225000D01*
X152355740Y-53225000D01*
X152289558Y-53218482D01*
X152223373Y-53211963D01*
X152110147Y-53177616D01*
X152053533Y-53160443D01*
X151897011Y-53076779D01*
X151897009Y-53076778D01*
X151861271Y-53047448D01*
X151759814Y-52964186D01*
X151676552Y-52862729D01*
X151647222Y-52826991D01*
X151637652Y-52809087D01*
X151563557Y-52670467D01*
X151546384Y-52613853D01*
X151512037Y-52500627D01*
X151494641Y-52324000D01*
X151512037Y-52147373D01*
X151563557Y-51977534D01*
X151563557Y-51977533D01*
X151647221Y-51821011D01*
X151647222Y-51821009D01*
X151676552Y-51785271D01*
X151759814Y-51683814D01*
X151861271Y-51600552D01*
X151897009Y-51571222D01*
X151972554Y-51530842D01*
X152053533Y-51487557D01*
X152110147Y-51470384D01*
X152223373Y-51436037D01*
X152289557Y-51429519D01*
X152355740Y-51423000D01*
X152444260Y-51423000D01*
X152510443Y-51429519D01*
X152510443Y-51429519D01*
G37*
G36*
X155050443Y-51429519D02*
X155116627Y-51436037D01*
X155229853Y-51470384D01*
X155286467Y-51487557D01*
X155367446Y-51530842D01*
X155442991Y-51571222D01*
X155478729Y-51600552D01*
X155580186Y-51683814D01*
X155663448Y-51785271D01*
X155692778Y-51821009D01*
X155692779Y-51821011D01*
X155776443Y-51977533D01*
X155776443Y-51977534D01*
X155827963Y-52147373D01*
X155845359Y-52324000D01*
X155827963Y-52500627D01*
X155793616Y-52613853D01*
X155776443Y-52670467D01*
X155702348Y-52809087D01*
X155692778Y-52826991D01*
X155663448Y-52862729D01*
X155580186Y-52964186D01*
X155478729Y-53047448D01*
X155442991Y-53076778D01*
X155442989Y-53076779D01*
X155286467Y-53160443D01*
X155229853Y-53177616D01*
X155116627Y-53211963D01*
X155050442Y-53218482D01*
X154984260Y-53225000D01*
X154895740Y-53225000D01*
X154829558Y-53218482D01*
X154763373Y-53211963D01*
X154650147Y-53177616D01*
X154593533Y-53160443D01*
X154437011Y-53076779D01*
X154437009Y-53076778D01*
X154401271Y-53047448D01*
X154299814Y-52964186D01*
X154216552Y-52862729D01*
X154187222Y-52826991D01*
X154177652Y-52809087D01*
X154103557Y-52670467D01*
X154086384Y-52613853D01*
X154052037Y-52500627D01*
X154034641Y-52324000D01*
X154052037Y-52147373D01*
X154103557Y-51977534D01*
X154103557Y-51977533D01*
X154187221Y-51821011D01*
X154187222Y-51821009D01*
X154216552Y-51785271D01*
X154299814Y-51683814D01*
X154401271Y-51600552D01*
X154437009Y-51571222D01*
X154512554Y-51530842D01*
X154593533Y-51487557D01*
X154650147Y-51470384D01*
X154763373Y-51436037D01*
X154829557Y-51429519D01*
X154895740Y-51423000D01*
X154984260Y-51423000D01*
X155050443Y-51429519D01*
X155050443Y-51429519D01*
G37*
G36*
X157590443Y-51429519D02*
X157656627Y-51436037D01*
X157769853Y-51470384D01*
X157826467Y-51487557D01*
X157907446Y-51530842D01*
X157982991Y-51571222D01*
X158018729Y-51600552D01*
X158120186Y-51683814D01*
X158203448Y-51785271D01*
X158232778Y-51821009D01*
X158232779Y-51821011D01*
X158316443Y-51977533D01*
X158316443Y-51977534D01*
X158367963Y-52147373D01*
X158385359Y-52324000D01*
X158367963Y-52500627D01*
X158333616Y-52613853D01*
X158316443Y-52670467D01*
X158242348Y-52809087D01*
X158232778Y-52826991D01*
X158203448Y-52862729D01*
X158120186Y-52964186D01*
X158018729Y-53047448D01*
X157982991Y-53076778D01*
X157982989Y-53076779D01*
X157826467Y-53160443D01*
X157769853Y-53177616D01*
X157656627Y-53211963D01*
X157590442Y-53218482D01*
X157524260Y-53225000D01*
X157435740Y-53225000D01*
X157369558Y-53218482D01*
X157303373Y-53211963D01*
X157190147Y-53177616D01*
X157133533Y-53160443D01*
X156977011Y-53076779D01*
X156977009Y-53076778D01*
X156941271Y-53047448D01*
X156839814Y-52964186D01*
X156756552Y-52862729D01*
X156727222Y-52826991D01*
X156717652Y-52809087D01*
X156643557Y-52670467D01*
X156626384Y-52613853D01*
X156592037Y-52500627D01*
X156574641Y-52324000D01*
X156592037Y-52147373D01*
X156643557Y-51977534D01*
X156643557Y-51977533D01*
X156727221Y-51821011D01*
X156727222Y-51821009D01*
X156756552Y-51785271D01*
X156839814Y-51683814D01*
X156941271Y-51600552D01*
X156977009Y-51571222D01*
X157052554Y-51530842D01*
X157133533Y-51487557D01*
X157190147Y-51470384D01*
X157303373Y-51436037D01*
X157369557Y-51429519D01*
X157435740Y-51423000D01*
X157524260Y-51423000D01*
X157590443Y-51429519D01*
X157590443Y-51429519D01*
G37*
M02*
