M48
;DRILL file {KiCad (5.0.2)-1} date 9/3/2019 12:43:59 AM
;FORMAT={-:-/ absolute / inch / decimal}
FMAT,2
INCH,TZ
T1C0.0079
T2C0.0157
T3C0.0394
T4C0.0512
T5C0.0551
T6C0.1181
%
G90
G05
T1
X5.2963Y-2.7932
X5.2963Y-2.7145
X5.2963Y-2.7538
X5.2963Y-2.8326
X5.2963Y-2.872
X5.3356Y-2.7145
X5.3356Y-2.7538
X5.3356Y-2.7932
X5.3356Y-2.8326
X5.3356Y-2.872
X5.375Y-2.7145
X5.375Y-2.7538
X5.375Y-2.7932
X5.375Y-2.8326
X5.375Y-2.872
X5.4144Y-2.7145
X5.4144Y-2.7538
X5.4144Y-2.7932
X5.4144Y-2.8326
X5.4144Y-2.872
X5.4538Y-2.7145
X5.4538Y-2.7538
X5.4538Y-2.8326
X5.4538Y-2.872
X5.4538Y-2.7932
T2
X4.6135Y-2.5535
X4.615Y-2.945
X4.75Y-3.1
X4.83Y-3.155
X4.945Y-2.775
X4.975Y-2.2545
X4.975Y-2.605
X4.9755Y-2.4445
X5.01Y-3.065
X5.11Y-3.11
X5.18Y-3.205
X5.22Y-2.09
X5.255Y-3.06
X5.275Y-3.13
X5.345Y-2.515
X5.37Y-3.255
X5.42Y-2.325
X5.595Y-3.245
X5.645Y-2.905
X5.685Y-3.21
X5.7Y-3.345
X5.715Y-2.69
X5.74Y-3.345
X5.745Y-2.315
X5.83Y-2.91
X5.83Y-2.95
X5.9Y-2.69
X5.92Y-3.22
X5.92Y-3.26
X5.92Y-3.3
X6.015Y-3.03
X6.12Y-3.195
X6.22Y-3.07
X6.22Y-3.175
X6.295Y-2.73
X6.415Y-3.095
T3
X6.5Y-2.28
X6.5Y-2.38
X6.5Y-2.48
X6.5Y-2.58
X6.5Y-2.68
X6.5Y-2.78
X6.5Y-2.88
X6.5Y-2.98
X5.8Y-2.06
X5.9Y-2.06
X6.Y-2.06
X6.1Y-2.06
X6.2Y-2.06
X6.3Y-2.06
X6.4Y-2.06
X6.5Y-2.06
T4
X5.46Y-2.18
X5.6569Y-2.18
T5
X4.7189Y-2.0948
X5.0189Y-2.0948
X5.265Y-4.025
X5.565Y-4.025
X5.865Y-4.025
T6
X5.165Y-3.925
X5.565Y-3.925
X5.965Y-3.925
T0
M30
