G04 #@! TF.GenerationSoftware,KiCad,Pcbnew,(5.0.2)-1*
G04 #@! TF.CreationDate,2019-09-02T17:49:36+08:00*
G04 #@! TF.ProjectId,actuator,61637475-6174-46f7-922e-6b696361645f,rev?*
G04 #@! TF.SameCoordinates,Original*
G04 #@! TF.FileFunction,Copper,L2,Bot*
G04 #@! TF.FilePolarity,Positive*
%FSLAX46Y46*%
G04 Gerber Fmt 4.6, Leading zero omitted, Abs format (unit mm)*
G04 Created by KiCad (PCBNEW (5.0.2)-1) date 9/2/2019 5:49:36 PM*
%MOMM*%
%LPD*%
G01*
G04 APERTURE LIST*
G04 #@! TA.AperFunction,Conductor*
%ADD10C,0.100000*%
G04 #@! TD*
G04 #@! TA.AperFunction,Conductor*
%ADD11C,4.500000*%
G04 #@! TD*
G04 #@! TA.AperFunction,ViaPad*
%ADD12C,0.500000*%
G04 #@! TD*
G04 #@! TA.AperFunction,ComponentPad*
%ADD13C,8.000000*%
G04 #@! TD*
G04 #@! TA.AperFunction,ComponentPad*
%ADD14C,4.000000*%
G04 #@! TD*
G04 #@! TA.AperFunction,ComponentPad*
%ADD15C,2.100000*%
G04 #@! TD*
G04 #@! TA.AperFunction,ComponentPad*
%ADD16O,2.100000X3.600000*%
G04 #@! TD*
G04 #@! TA.AperFunction,ComponentPad*
%ADD17O,1.700000X1.700000*%
G04 #@! TD*
G04 #@! TA.AperFunction,ComponentPad*
%ADD18R,1.700000X1.700000*%
G04 #@! TD*
G04 #@! TA.AperFunction,ViaPad*
%ADD19C,0.800000*%
G04 #@! TD*
G04 #@! TA.AperFunction,Conductor*
%ADD20C,0.250000*%
G04 #@! TD*
G04 #@! TA.AperFunction,Conductor*
%ADD21C,0.254000*%
G04 #@! TD*
G04 APERTURE END LIST*
D10*
G04 #@! TO.N,N/C*
G04 #@! TO.C,U1*
G36*
X138548025Y-68698748D02*
X138572488Y-68702377D01*
X138596476Y-68708386D01*
X138619761Y-68716717D01*
X138642117Y-68727291D01*
X138663328Y-68740004D01*
X138683191Y-68754736D01*
X138701515Y-68771344D01*
X138718123Y-68789668D01*
X138732855Y-68809531D01*
X138745568Y-68830742D01*
X138756142Y-68853098D01*
X138764473Y-68876383D01*
X138770482Y-68900371D01*
X138774111Y-68924834D01*
X138775324Y-68949534D01*
X138775324Y-72945536D01*
X138774111Y-72970236D01*
X138770482Y-72994699D01*
X138764473Y-73018687D01*
X138756142Y-73041972D01*
X138745568Y-73064328D01*
X138732855Y-73085539D01*
X138718123Y-73105402D01*
X138701515Y-73123726D01*
X138683191Y-73140334D01*
X138663328Y-73155066D01*
X138642117Y-73167779D01*
X138619761Y-73178353D01*
X138596476Y-73186684D01*
X138572488Y-73192693D01*
X138548025Y-73196322D01*
X138523325Y-73197535D01*
X134527323Y-73197535D01*
X134502623Y-73196322D01*
X134478160Y-73192693D01*
X134454172Y-73186684D01*
X134430887Y-73178353D01*
X134408531Y-73167779D01*
X134387320Y-73155066D01*
X134367457Y-73140334D01*
X134349133Y-73123726D01*
X134332525Y-73105402D01*
X134317793Y-73085539D01*
X134305080Y-73064328D01*
X134294506Y-73041972D01*
X134286175Y-73018687D01*
X134280166Y-72994699D01*
X134276537Y-72970236D01*
X134275324Y-72945536D01*
X134275324Y-68949534D01*
X134276537Y-68924834D01*
X134280166Y-68900371D01*
X134286175Y-68876383D01*
X134294506Y-68853098D01*
X134305080Y-68830742D01*
X134317793Y-68809531D01*
X134332525Y-68789668D01*
X134349133Y-68771344D01*
X134367457Y-68754736D01*
X134387320Y-68740004D01*
X134408531Y-68727291D01*
X134430887Y-68716717D01*
X134454172Y-68708386D01*
X134478160Y-68702377D01*
X134502623Y-68698748D01*
X134527323Y-68697535D01*
X138523325Y-68697535D01*
X138548025Y-68698748D01*
X138548025Y-68698748D01*
G37*
D11*
X136525324Y-70947535D03*
D12*
X138525324Y-72947535D03*
X137525324Y-72947535D03*
X136525324Y-72947536D03*
X135525324Y-72947535D03*
X134525324Y-72947535D03*
X138525324Y-71947535D03*
X137525324Y-71947535D03*
X136525324Y-71947535D03*
X135525324Y-71947535D03*
X134525324Y-71947535D03*
X138525325Y-70947535D03*
X137525324Y-70947535D03*
X136525324Y-70947535D03*
X135525324Y-70947535D03*
X134525323Y-70947535D03*
X138525324Y-69947535D03*
X137525324Y-69947535D03*
X136525324Y-69947535D03*
X135525324Y-69947535D03*
X134525324Y-69947535D03*
X138525324Y-68947535D03*
X137525324Y-68947535D03*
X136525324Y-68947534D03*
X135525324Y-68947535D03*
X134525324Y-68947535D03*
G04 #@! TD*
D13*
G04 #@! TO.P,J1,3*
G04 #@! TO.N,C_OUT*
X151511000Y-99695000D03*
G04 #@! TO.P,J1,2*
G04 #@! TO.N,B_OUT*
X141351000Y-99695000D03*
G04 #@! TO.P,J1,1*
G04 #@! TO.N,A_OUT*
X131191000Y-99695000D03*
D14*
X133731000Y-102235000D03*
G04 #@! TO.P,J1,2*
G04 #@! TO.N,B_OUT*
X141351000Y-102235000D03*
G04 #@! TO.P,J1,3*
G04 #@! TO.N,C_OUT*
X148971000Y-102235000D03*
G04 #@! TD*
D10*
G04 #@! TO.N,SNA*
G04 #@! TO.C,J2*
G36*
X128304814Y-51410001D02*
X128329083Y-51413601D01*
X128352881Y-51419562D01*
X128375981Y-51427827D01*
X128398159Y-51438317D01*
X128419203Y-51450930D01*
X128438908Y-51465544D01*
X128457087Y-51482020D01*
X128473563Y-51500199D01*
X128488177Y-51519904D01*
X128500790Y-51540948D01*
X128511280Y-51563126D01*
X128519545Y-51586226D01*
X128525506Y-51610024D01*
X128529106Y-51634293D01*
X128530310Y-51658797D01*
X128530310Y-54758797D01*
X128529106Y-54783301D01*
X128525506Y-54807570D01*
X128519545Y-54831368D01*
X128511280Y-54854468D01*
X128500790Y-54876646D01*
X128488177Y-54897690D01*
X128473563Y-54917395D01*
X128457087Y-54935574D01*
X128438908Y-54952050D01*
X128419203Y-54966664D01*
X128398159Y-54979277D01*
X128375981Y-54989767D01*
X128352881Y-54998032D01*
X128329083Y-55003993D01*
X128304814Y-55007593D01*
X128280310Y-55008797D01*
X126680310Y-55008797D01*
X126655806Y-55007593D01*
X126631537Y-55003993D01*
X126607739Y-54998032D01*
X126584639Y-54989767D01*
X126562461Y-54979277D01*
X126541417Y-54966664D01*
X126521712Y-54952050D01*
X126503533Y-54935574D01*
X126487057Y-54917395D01*
X126472443Y-54897690D01*
X126459830Y-54876646D01*
X126449340Y-54854468D01*
X126441075Y-54831368D01*
X126435114Y-54807570D01*
X126431514Y-54783301D01*
X126430310Y-54758797D01*
X126430310Y-51658797D01*
X126431514Y-51634293D01*
X126435114Y-51610024D01*
X126441075Y-51586226D01*
X126449340Y-51563126D01*
X126459830Y-51540948D01*
X126472443Y-51519904D01*
X126487057Y-51500199D01*
X126503533Y-51482020D01*
X126521712Y-51465544D01*
X126541417Y-51450930D01*
X126562461Y-51438317D01*
X126584639Y-51427827D01*
X126607739Y-51419562D01*
X126631537Y-51413601D01*
X126655806Y-51410001D01*
X126680310Y-51408797D01*
X128280310Y-51408797D01*
X128304814Y-51410001D01*
X128304814Y-51410001D01*
G37*
D15*
G04 #@! TD*
G04 #@! TO.P,J2,1*
G04 #@! TO.N,SNA*
X127480310Y-53208797D03*
D16*
G04 #@! TO.P,J2,2*
G04 #@! TO.N,VDRAIN*
X119860310Y-53208797D03*
G04 #@! TD*
D17*
G04 #@! TO.P,J3,8*
G04 #@! TO.N,ENABLE*
X165100000Y-52324000D03*
G04 #@! TO.P,J3,7*
G04 #@! TO.N,DVDD*
X162560000Y-52324000D03*
G04 #@! TO.P,J3,6*
G04 #@! TO.N,INHA*
X160020000Y-52324000D03*
G04 #@! TO.P,J3,5*
G04 #@! TO.N,INLA*
X157480000Y-52324000D03*
G04 #@! TO.P,J3,4*
G04 #@! TO.N,INHB*
X154940000Y-52324000D03*
G04 #@! TO.P,J3,3*
G04 #@! TO.N,INLB*
X152400000Y-52324000D03*
G04 #@! TO.P,J3,2*
G04 #@! TO.N,INHC*
X149860000Y-52324000D03*
D18*
G04 #@! TO.P,J3,1*
G04 #@! TO.N,INLC*
X147320000Y-52324000D03*
G04 #@! TD*
G04 #@! TO.P,J4,1*
G04 #@! TO.N,nSCS*
X165100000Y-57912000D03*
D17*
G04 #@! TO.P,J4,2*
G04 #@! TO.N,SCLK*
X165100000Y-60452000D03*
G04 #@! TO.P,J4,3*
G04 #@! TO.N,SDI*
X165100000Y-62992000D03*
G04 #@! TO.P,J4,4*
G04 #@! TO.N,SDO*
X165100000Y-65532000D03*
G04 #@! TO.P,J4,5*
G04 #@! TO.N,nFAULT*
X165100000Y-68072000D03*
G04 #@! TO.P,J4,6*
G04 #@! TO.N,SOA*
X165100000Y-70612000D03*
G04 #@! TO.P,J4,7*
G04 #@! TO.N,SOB*
X165100000Y-73152000D03*
G04 #@! TO.P,J4,8*
G04 #@! TO.N,SOC*
X165100000Y-75692000D03*
G04 #@! TD*
D19*
G04 #@! TO.N,SNA*
X129794000Y-78994000D03*
X131572000Y-81407000D03*
X123952000Y-85344000D03*
X120650000Y-81280000D03*
X121666000Y-82804000D03*
X143764000Y-82804000D03*
X155702000Y-81280000D03*
X156337000Y-82804000D03*
X157988000Y-77978000D03*
X127254000Y-77851000D03*
X141986000Y-81788000D03*
X124079000Y-80899000D03*
X157988000Y-80899000D03*
X133477000Y-77724000D03*
X149860000Y-68326000D03*
X145161000Y-68326000D03*
X143383000Y-73787000D03*
X125095000Y-61722000D03*
X123190000Y-58166000D03*
X127000000Y-58293000D03*
X123063000Y-65913000D03*
X126365000Y-66167000D03*
X162941000Y-78613000D03*
X152781000Y-76962000D03*
X159893000Y-69342000D03*
X144780000Y-56007000D03*
X142875000Y-52451000D03*
X132588000Y-53086000D03*
G04 #@! TO.N,VDRAIN*
X152146000Y-82804000D03*
X152146000Y-81788000D03*
X152146000Y-83820000D03*
X144526000Y-84836000D03*
X147066000Y-84328000D03*
X135763000Y-63881000D03*
X125603000Y-70485000D03*
X120904000Y-68072000D03*
X121031000Y-71755000D03*
G04 #@! TO.N,SPB*
X133985000Y-79502000D03*
X136398000Y-81788000D03*
G04 #@! TO.N,VAA*
X138938000Y-58674000D03*
X148082000Y-73914000D03*
X148082000Y-74930000D03*
G04 #@! TD*
D20*
G04 #@! TO.N,SNA*
X124478999Y-80499001D02*
X127127000Y-77851000D01*
X124079000Y-80899000D02*
X124478999Y-80499001D01*
X133731000Y-77724000D02*
X133731000Y-77724000D01*
X137268001Y-81388001D02*
X133604000Y-77724000D01*
X141986000Y-81788000D02*
X141586001Y-81388001D01*
X141586001Y-81388001D02*
X137268001Y-81388001D01*
X157988000Y-80333315D02*
X157988000Y-78105000D01*
X157988000Y-80899000D02*
X157988000Y-80333315D01*
G04 #@! TO.N,SPB*
X136398000Y-81788000D02*
X135998001Y-81388001D01*
X135998001Y-81388001D02*
X134112000Y-79502000D01*
G04 #@! TO.N,VAA*
X148082000Y-67818000D02*
X138938000Y-58674000D01*
X148082000Y-73914000D02*
X148082000Y-67818000D01*
G04 #@! TD*
D21*
G04 #@! TO.N,VDRAIN*
G36*
X122682000Y-53668394D02*
X120433197Y-55917197D01*
X120405667Y-55958399D01*
X120396000Y-56007000D01*
X120396000Y-66167000D01*
X120405667Y-66215601D01*
X120433197Y-66256803D01*
X122465197Y-68288803D01*
X122506399Y-68316333D01*
X122555000Y-68326000D01*
X127762000Y-68326000D01*
X127762000Y-72263000D01*
X122682000Y-72263000D01*
X122633399Y-72272667D01*
X122592197Y-72300197D01*
X119163197Y-75729197D01*
X119135667Y-75770399D01*
X119126000Y-75819000D01*
X119126000Y-83566000D01*
X119135667Y-83614601D01*
X119163197Y-83655803D01*
X119204399Y-83683333D01*
X119253000Y-83693000D01*
X145796000Y-83693000D01*
X145844601Y-83683333D01*
X145885803Y-83655803D01*
X145913333Y-83614601D01*
X145923000Y-83566000D01*
X145923000Y-81026000D01*
X154178000Y-81026000D01*
X154178000Y-86868000D01*
X115352000Y-86868000D01*
X115352000Y-85209336D01*
X123275000Y-85209336D01*
X123275000Y-85478664D01*
X123378067Y-85727490D01*
X123568510Y-85917933D01*
X123817336Y-86021000D01*
X124086664Y-86021000D01*
X124335490Y-85917933D01*
X124525933Y-85727490D01*
X124629000Y-85478664D01*
X124629000Y-85209336D01*
X124525933Y-84960510D01*
X124335490Y-84770067D01*
X124086664Y-84667000D01*
X123817336Y-84667000D01*
X123568510Y-84770067D01*
X123378067Y-84960510D01*
X123275000Y-85209336D01*
X115352000Y-85209336D01*
X115352000Y-50352000D01*
X122682000Y-50352000D01*
X122682000Y-53668394D01*
X122682000Y-53668394D01*
G37*
X122682000Y-53668394D02*
X120433197Y-55917197D01*
X120405667Y-55958399D01*
X120396000Y-56007000D01*
X120396000Y-66167000D01*
X120405667Y-66215601D01*
X120433197Y-66256803D01*
X122465197Y-68288803D01*
X122506399Y-68316333D01*
X122555000Y-68326000D01*
X127762000Y-68326000D01*
X127762000Y-72263000D01*
X122682000Y-72263000D01*
X122633399Y-72272667D01*
X122592197Y-72300197D01*
X119163197Y-75729197D01*
X119135667Y-75770399D01*
X119126000Y-75819000D01*
X119126000Y-83566000D01*
X119135667Y-83614601D01*
X119163197Y-83655803D01*
X119204399Y-83683333D01*
X119253000Y-83693000D01*
X145796000Y-83693000D01*
X145844601Y-83683333D01*
X145885803Y-83655803D01*
X145913333Y-83614601D01*
X145923000Y-83566000D01*
X145923000Y-81026000D01*
X154178000Y-81026000D01*
X154178000Y-86868000D01*
X115352000Y-86868000D01*
X115352000Y-85209336D01*
X123275000Y-85209336D01*
X123275000Y-85478664D01*
X123378067Y-85727490D01*
X123568510Y-85917933D01*
X123817336Y-86021000D01*
X124086664Y-86021000D01*
X124335490Y-85917933D01*
X124525933Y-85727490D01*
X124629000Y-85478664D01*
X124629000Y-85209336D01*
X124525933Y-84960510D01*
X124335490Y-84770067D01*
X124086664Y-84667000D01*
X123817336Y-84667000D01*
X123568510Y-84770067D01*
X123378067Y-84960510D01*
X123275000Y-85209336D01*
X115352000Y-85209336D01*
X115352000Y-50352000D01*
X122682000Y-50352000D01*
X122682000Y-53668394D01*
G36*
X137033000Y-65278000D02*
X134874000Y-65278000D01*
X134825399Y-65287667D01*
X134784197Y-65315197D01*
X127836394Y-72263000D01*
X127127000Y-72263000D01*
X127127000Y-68378606D01*
X133275606Y-62230000D01*
X137033000Y-62230000D01*
X137033000Y-65278000D01*
X137033000Y-65278000D01*
G37*
X137033000Y-65278000D02*
X134874000Y-65278000D01*
X134825399Y-65287667D01*
X134784197Y-65315197D01*
X127836394Y-72263000D01*
X127127000Y-72263000D01*
X127127000Y-68378606D01*
X133275606Y-62230000D01*
X137033000Y-62230000D01*
X137033000Y-65278000D01*
G04 #@! TO.N,SNA*
G36*
X167148000Y-104648000D02*
X115352000Y-104648000D01*
X115352000Y-98844252D01*
X126914000Y-98844252D01*
X126914000Y-100545748D01*
X127565135Y-102117726D01*
X128768274Y-103320865D01*
X130340252Y-103972000D01*
X132041748Y-103972000D01*
X132187474Y-103911638D01*
X132441183Y-104165347D01*
X133278077Y-104512000D01*
X134183923Y-104512000D01*
X135020817Y-104165347D01*
X135661347Y-103524817D01*
X136008000Y-102687923D01*
X136008000Y-101782077D01*
X135661347Y-100945183D01*
X135407638Y-100691474D01*
X135468000Y-100545748D01*
X135468000Y-98844252D01*
X137074000Y-98844252D01*
X137074000Y-100545748D01*
X137725135Y-102117726D01*
X138928274Y-103320865D01*
X139420652Y-103524815D01*
X139420653Y-103524817D01*
X140061183Y-104165347D01*
X140898077Y-104512000D01*
X141803923Y-104512000D01*
X142640817Y-104165347D01*
X143281347Y-103524817D01*
X143281348Y-103524815D01*
X143773726Y-103320865D01*
X144976865Y-102117726D01*
X145115895Y-101782077D01*
X146694000Y-101782077D01*
X146694000Y-102687923D01*
X147040653Y-103524817D01*
X147681183Y-104165347D01*
X148518077Y-104512000D01*
X149423923Y-104512000D01*
X150260817Y-104165347D01*
X150514526Y-103911638D01*
X150660252Y-103972000D01*
X152361748Y-103972000D01*
X153933726Y-103320865D01*
X155136865Y-102117726D01*
X155788000Y-100545748D01*
X155788000Y-98844252D01*
X155136865Y-97272274D01*
X153933726Y-96069135D01*
X152361748Y-95418000D01*
X150660252Y-95418000D01*
X149088274Y-96069135D01*
X147885135Y-97272274D01*
X147234000Y-98844252D01*
X147234000Y-100545748D01*
X147294362Y-100691474D01*
X147040653Y-100945183D01*
X146694000Y-101782077D01*
X145115895Y-101782077D01*
X145628000Y-100545748D01*
X145628000Y-98844252D01*
X144976865Y-97272274D01*
X143773726Y-96069135D01*
X142201748Y-95418000D01*
X140500252Y-95418000D01*
X138928274Y-96069135D01*
X137725135Y-97272274D01*
X137074000Y-98844252D01*
X135468000Y-98844252D01*
X134816865Y-97272274D01*
X133613726Y-96069135D01*
X132041748Y-95418000D01*
X130340252Y-95418000D01*
X128768274Y-96069135D01*
X127565135Y-97272274D01*
X126914000Y-98844252D01*
X115352000Y-98844252D01*
X115352000Y-87272000D01*
X154305000Y-87272000D01*
X154411003Y-87250915D01*
X154500869Y-87190869D01*
X154560915Y-87101003D01*
X154582000Y-86995000D01*
X154582000Y-80899000D01*
X154560915Y-80792997D01*
X154500869Y-80703131D01*
X154411003Y-80643085D01*
X154305000Y-80622000D01*
X145796000Y-80622000D01*
X145689997Y-80643085D01*
X145600131Y-80703131D01*
X145540085Y-80792997D01*
X145519000Y-80899000D01*
X145519000Y-83289000D01*
X119530000Y-83289000D01*
X119530000Y-79367336D01*
X133308000Y-79367336D01*
X133308000Y-79636664D01*
X133411067Y-79885490D01*
X133601510Y-80075933D01*
X133850336Y-80179000D01*
X134119664Y-80179000D01*
X134190957Y-80149470D01*
X135721000Y-81679514D01*
X135721000Y-81922664D01*
X135824067Y-82171490D01*
X136014510Y-82361933D01*
X136263336Y-82465000D01*
X136532664Y-82465000D01*
X136781490Y-82361933D01*
X136971933Y-82171490D01*
X137075000Y-81922664D01*
X137075000Y-81653336D01*
X136971933Y-81404510D01*
X136781490Y-81214067D01*
X136532664Y-81111000D01*
X136289514Y-81111000D01*
X134662000Y-79483487D01*
X134662000Y-79367336D01*
X134558933Y-79118510D01*
X134368490Y-78928067D01*
X134119664Y-78825000D01*
X133850336Y-78825000D01*
X133601510Y-78928067D01*
X133411067Y-79118510D01*
X133308000Y-79367336D01*
X119530000Y-79367336D01*
X119530000Y-75933738D01*
X119771738Y-75692000D01*
X163950921Y-75692000D01*
X164038389Y-76131733D01*
X164287478Y-76504522D01*
X164660267Y-76753611D01*
X164989001Y-76819000D01*
X165210999Y-76819000D01*
X165539733Y-76753611D01*
X165912522Y-76504522D01*
X166161611Y-76131733D01*
X166249079Y-75692000D01*
X166161611Y-75252267D01*
X165912522Y-74879478D01*
X165539733Y-74630389D01*
X165210999Y-74565000D01*
X164989001Y-74565000D01*
X164660267Y-74630389D01*
X164287478Y-74879478D01*
X164038389Y-75252267D01*
X163950921Y-75692000D01*
X119771738Y-75692000D01*
X122796738Y-72667000D01*
X127889000Y-72667000D01*
X127995003Y-72645915D01*
X128084869Y-72585869D01*
X131721204Y-68949534D01*
X133992898Y-68949534D01*
X133992898Y-72945536D01*
X133998324Y-72972814D01*
X133998324Y-73052362D01*
X134028766Y-73125856D01*
X134033579Y-73150052D01*
X134047285Y-73170565D01*
X134078555Y-73246057D01*
X134136332Y-73303834D01*
X134149427Y-73323432D01*
X134169025Y-73336527D01*
X134226802Y-73394304D01*
X134302294Y-73425574D01*
X134322807Y-73439280D01*
X134347003Y-73444093D01*
X134420497Y-73474535D01*
X134500045Y-73474535D01*
X134527323Y-73479961D01*
X138523325Y-73479961D01*
X138550603Y-73474535D01*
X138630151Y-73474535D01*
X138703645Y-73444093D01*
X138727841Y-73439280D01*
X138748354Y-73425574D01*
X138823846Y-73394304D01*
X138881623Y-73336527D01*
X138901221Y-73323432D01*
X138914316Y-73303834D01*
X138972093Y-73246057D01*
X139003363Y-73170565D01*
X139017069Y-73150052D01*
X139021882Y-73125856D01*
X139052324Y-73052362D01*
X139052324Y-72972814D01*
X139057750Y-72945536D01*
X139057750Y-68949534D01*
X139052324Y-68922256D01*
X139052324Y-68842708D01*
X139021882Y-68769214D01*
X139017069Y-68745018D01*
X139003363Y-68724505D01*
X138972093Y-68649013D01*
X138914316Y-68591236D01*
X138901221Y-68571638D01*
X138881623Y-68558543D01*
X138823846Y-68500766D01*
X138748354Y-68469496D01*
X138727841Y-68455790D01*
X138703645Y-68450977D01*
X138630151Y-68420535D01*
X138550603Y-68420535D01*
X138523325Y-68415109D01*
X134527323Y-68415109D01*
X134500045Y-68420535D01*
X134420497Y-68420535D01*
X134347003Y-68450977D01*
X134322807Y-68455790D01*
X134302294Y-68469496D01*
X134226802Y-68500766D01*
X134169025Y-68558543D01*
X134149427Y-68571638D01*
X134136332Y-68591236D01*
X134078555Y-68649013D01*
X134047285Y-68724505D01*
X134033579Y-68745018D01*
X134028766Y-68769214D01*
X133998324Y-68842708D01*
X133998324Y-68922256D01*
X133992898Y-68949534D01*
X131721204Y-68949534D01*
X134988738Y-65682000D01*
X137160000Y-65682000D01*
X137266003Y-65660915D01*
X137355869Y-65600869D01*
X137415915Y-65511003D01*
X137437000Y-65405000D01*
X137437000Y-62103000D01*
X137415915Y-61996997D01*
X137355869Y-61907131D01*
X137266003Y-61847085D01*
X137160000Y-61826000D01*
X133223000Y-61826000D01*
X133116997Y-61847085D01*
X133027131Y-61907131D01*
X127012262Y-67922000D01*
X122669738Y-67922000D01*
X120800000Y-66052262D01*
X120800000Y-58539336D01*
X138261000Y-58539336D01*
X138261000Y-58808664D01*
X138364067Y-59057490D01*
X138554510Y-59247933D01*
X138803336Y-59351000D01*
X139046487Y-59351000D01*
X147680001Y-67984515D01*
X147680000Y-73358577D01*
X147508067Y-73530510D01*
X147405000Y-73779336D01*
X147405000Y-74048664D01*
X147508067Y-74297490D01*
X147632577Y-74422000D01*
X147508067Y-74546510D01*
X147405000Y-74795336D01*
X147405000Y-75064664D01*
X147508067Y-75313490D01*
X147698510Y-75503933D01*
X147947336Y-75607000D01*
X148216664Y-75607000D01*
X148465490Y-75503933D01*
X148655933Y-75313490D01*
X148759000Y-75064664D01*
X148759000Y-74795336D01*
X148655933Y-74546510D01*
X148531423Y-74422000D01*
X148655933Y-74297490D01*
X148759000Y-74048664D01*
X148759000Y-73779336D01*
X148655933Y-73530510D01*
X148484000Y-73358577D01*
X148484000Y-73152000D01*
X163950921Y-73152000D01*
X164038389Y-73591733D01*
X164287478Y-73964522D01*
X164660267Y-74213611D01*
X164989001Y-74279000D01*
X165210999Y-74279000D01*
X165539733Y-74213611D01*
X165912522Y-73964522D01*
X166161611Y-73591733D01*
X166249079Y-73152000D01*
X166161611Y-72712267D01*
X165912522Y-72339478D01*
X165539733Y-72090389D01*
X165210999Y-72025000D01*
X164989001Y-72025000D01*
X164660267Y-72090389D01*
X164287478Y-72339478D01*
X164038389Y-72712267D01*
X163950921Y-73152000D01*
X148484000Y-73152000D01*
X148484000Y-70612000D01*
X163950921Y-70612000D01*
X164038389Y-71051733D01*
X164287478Y-71424522D01*
X164660267Y-71673611D01*
X164989001Y-71739000D01*
X165210999Y-71739000D01*
X165539733Y-71673611D01*
X165912522Y-71424522D01*
X166161611Y-71051733D01*
X166249079Y-70612000D01*
X166161611Y-70172267D01*
X165912522Y-69799478D01*
X165539733Y-69550389D01*
X165210999Y-69485000D01*
X164989001Y-69485000D01*
X164660267Y-69550389D01*
X164287478Y-69799478D01*
X164038389Y-70172267D01*
X163950921Y-70612000D01*
X148484000Y-70612000D01*
X148484000Y-68072000D01*
X163950921Y-68072000D01*
X164038389Y-68511733D01*
X164287478Y-68884522D01*
X164660267Y-69133611D01*
X164989001Y-69199000D01*
X165210999Y-69199000D01*
X165539733Y-69133611D01*
X165912522Y-68884522D01*
X166161611Y-68511733D01*
X166249079Y-68072000D01*
X166161611Y-67632267D01*
X165912522Y-67259478D01*
X165539733Y-67010389D01*
X165210999Y-66945000D01*
X164989001Y-66945000D01*
X164660267Y-67010389D01*
X164287478Y-67259478D01*
X164038389Y-67632267D01*
X163950921Y-68072000D01*
X148484000Y-68072000D01*
X148484000Y-67857585D01*
X148491874Y-67818000D01*
X148484000Y-67778415D01*
X148484000Y-67778410D01*
X148460675Y-67661148D01*
X148434720Y-67622303D01*
X148394251Y-67561737D01*
X148394249Y-67561735D01*
X148371825Y-67528175D01*
X148338265Y-67505751D01*
X146364514Y-65532000D01*
X163950921Y-65532000D01*
X164038389Y-65971733D01*
X164287478Y-66344522D01*
X164660267Y-66593611D01*
X164989001Y-66659000D01*
X165210999Y-66659000D01*
X165539733Y-66593611D01*
X165912522Y-66344522D01*
X166161611Y-65971733D01*
X166249079Y-65532000D01*
X166161611Y-65092267D01*
X165912522Y-64719478D01*
X165539733Y-64470389D01*
X165210999Y-64405000D01*
X164989001Y-64405000D01*
X164660267Y-64470389D01*
X164287478Y-64719478D01*
X164038389Y-65092267D01*
X163950921Y-65532000D01*
X146364514Y-65532000D01*
X143824514Y-62992000D01*
X163950921Y-62992000D01*
X164038389Y-63431733D01*
X164287478Y-63804522D01*
X164660267Y-64053611D01*
X164989001Y-64119000D01*
X165210999Y-64119000D01*
X165539733Y-64053611D01*
X165912522Y-63804522D01*
X166161611Y-63431733D01*
X166249079Y-62992000D01*
X166161611Y-62552267D01*
X165912522Y-62179478D01*
X165539733Y-61930389D01*
X165210999Y-61865000D01*
X164989001Y-61865000D01*
X164660267Y-61930389D01*
X164287478Y-62179478D01*
X164038389Y-62552267D01*
X163950921Y-62992000D01*
X143824514Y-62992000D01*
X141284514Y-60452000D01*
X163950921Y-60452000D01*
X164038389Y-60891733D01*
X164287478Y-61264522D01*
X164660267Y-61513611D01*
X164989001Y-61579000D01*
X165210999Y-61579000D01*
X165539733Y-61513611D01*
X165912522Y-61264522D01*
X166161611Y-60891733D01*
X166249079Y-60452000D01*
X166161611Y-60012267D01*
X165912522Y-59639478D01*
X165539733Y-59390389D01*
X165210999Y-59325000D01*
X164989001Y-59325000D01*
X164660267Y-59390389D01*
X164287478Y-59639478D01*
X164038389Y-60012267D01*
X163950921Y-60452000D01*
X141284514Y-60452000D01*
X139615000Y-58782487D01*
X139615000Y-58539336D01*
X139511933Y-58290510D01*
X139321490Y-58100067D01*
X139072664Y-57997000D01*
X138803336Y-57997000D01*
X138554510Y-58100067D01*
X138364067Y-58290510D01*
X138261000Y-58539336D01*
X120800000Y-58539336D01*
X120800000Y-57062000D01*
X163967574Y-57062000D01*
X163967574Y-58762000D01*
X163989072Y-58870080D01*
X164050295Y-58961705D01*
X164141920Y-59022928D01*
X164250000Y-59044426D01*
X165950000Y-59044426D01*
X166058080Y-59022928D01*
X166149705Y-58961705D01*
X166210928Y-58870080D01*
X166232426Y-58762000D01*
X166232426Y-57062000D01*
X166210928Y-56953920D01*
X166149705Y-56862295D01*
X166058080Y-56801072D01*
X165950000Y-56779574D01*
X164250000Y-56779574D01*
X164141920Y-56801072D01*
X164050295Y-56862295D01*
X163989072Y-56953920D01*
X163967574Y-57062000D01*
X120800000Y-57062000D01*
X120800000Y-56121738D01*
X123004869Y-53916869D01*
X123064915Y-53827003D01*
X123086000Y-53721000D01*
X123086000Y-51474000D01*
X146187574Y-51474000D01*
X146187574Y-53174000D01*
X146209072Y-53282080D01*
X146270295Y-53373705D01*
X146361920Y-53434928D01*
X146470000Y-53456426D01*
X148170000Y-53456426D01*
X148278080Y-53434928D01*
X148369705Y-53373705D01*
X148430928Y-53282080D01*
X148452426Y-53174000D01*
X148452426Y-52324000D01*
X148710921Y-52324000D01*
X148798389Y-52763733D01*
X149047478Y-53136522D01*
X149420267Y-53385611D01*
X149749001Y-53451000D01*
X149970999Y-53451000D01*
X150299733Y-53385611D01*
X150672522Y-53136522D01*
X150921611Y-52763733D01*
X151009079Y-52324000D01*
X151250921Y-52324000D01*
X151338389Y-52763733D01*
X151587478Y-53136522D01*
X151960267Y-53385611D01*
X152289001Y-53451000D01*
X152510999Y-53451000D01*
X152839733Y-53385611D01*
X153212522Y-53136522D01*
X153461611Y-52763733D01*
X153549079Y-52324000D01*
X153790921Y-52324000D01*
X153878389Y-52763733D01*
X154127478Y-53136522D01*
X154500267Y-53385611D01*
X154829001Y-53451000D01*
X155050999Y-53451000D01*
X155379733Y-53385611D01*
X155752522Y-53136522D01*
X156001611Y-52763733D01*
X156089079Y-52324000D01*
X156330921Y-52324000D01*
X156418389Y-52763733D01*
X156667478Y-53136522D01*
X157040267Y-53385611D01*
X157369001Y-53451000D01*
X157590999Y-53451000D01*
X157919733Y-53385611D01*
X158292522Y-53136522D01*
X158541611Y-52763733D01*
X158629079Y-52324000D01*
X158870921Y-52324000D01*
X158958389Y-52763733D01*
X159207478Y-53136522D01*
X159580267Y-53385611D01*
X159909001Y-53451000D01*
X160130999Y-53451000D01*
X160459733Y-53385611D01*
X160832522Y-53136522D01*
X161081611Y-52763733D01*
X161169079Y-52324000D01*
X161410921Y-52324000D01*
X161498389Y-52763733D01*
X161747478Y-53136522D01*
X162120267Y-53385611D01*
X162449001Y-53451000D01*
X162670999Y-53451000D01*
X162999733Y-53385611D01*
X163372522Y-53136522D01*
X163621611Y-52763733D01*
X163709079Y-52324000D01*
X163950921Y-52324000D01*
X164038389Y-52763733D01*
X164287478Y-53136522D01*
X164660267Y-53385611D01*
X164989001Y-53451000D01*
X165210999Y-53451000D01*
X165539733Y-53385611D01*
X165912522Y-53136522D01*
X166161611Y-52763733D01*
X166249079Y-52324000D01*
X166161611Y-51884267D01*
X165912522Y-51511478D01*
X165539733Y-51262389D01*
X165210999Y-51197000D01*
X164989001Y-51197000D01*
X164660267Y-51262389D01*
X164287478Y-51511478D01*
X164038389Y-51884267D01*
X163950921Y-52324000D01*
X163709079Y-52324000D01*
X163621611Y-51884267D01*
X163372522Y-51511478D01*
X162999733Y-51262389D01*
X162670999Y-51197000D01*
X162449001Y-51197000D01*
X162120267Y-51262389D01*
X161747478Y-51511478D01*
X161498389Y-51884267D01*
X161410921Y-52324000D01*
X161169079Y-52324000D01*
X161081611Y-51884267D01*
X160832522Y-51511478D01*
X160459733Y-51262389D01*
X160130999Y-51197000D01*
X159909001Y-51197000D01*
X159580267Y-51262389D01*
X159207478Y-51511478D01*
X158958389Y-51884267D01*
X158870921Y-52324000D01*
X158629079Y-52324000D01*
X158541611Y-51884267D01*
X158292522Y-51511478D01*
X157919733Y-51262389D01*
X157590999Y-51197000D01*
X157369001Y-51197000D01*
X157040267Y-51262389D01*
X156667478Y-51511478D01*
X156418389Y-51884267D01*
X156330921Y-52324000D01*
X156089079Y-52324000D01*
X156001611Y-51884267D01*
X155752522Y-51511478D01*
X155379733Y-51262389D01*
X155050999Y-51197000D01*
X154829001Y-51197000D01*
X154500267Y-51262389D01*
X154127478Y-51511478D01*
X153878389Y-51884267D01*
X153790921Y-52324000D01*
X153549079Y-52324000D01*
X153461611Y-51884267D01*
X153212522Y-51511478D01*
X152839733Y-51262389D01*
X152510999Y-51197000D01*
X152289001Y-51197000D01*
X151960267Y-51262389D01*
X151587478Y-51511478D01*
X151338389Y-51884267D01*
X151250921Y-52324000D01*
X151009079Y-52324000D01*
X150921611Y-51884267D01*
X150672522Y-51511478D01*
X150299733Y-51262389D01*
X149970999Y-51197000D01*
X149749001Y-51197000D01*
X149420267Y-51262389D01*
X149047478Y-51511478D01*
X148798389Y-51884267D01*
X148710921Y-52324000D01*
X148452426Y-52324000D01*
X148452426Y-51474000D01*
X148430928Y-51365920D01*
X148369705Y-51274295D01*
X148278080Y-51213072D01*
X148170000Y-51191574D01*
X146470000Y-51191574D01*
X146361920Y-51213072D01*
X146270295Y-51274295D01*
X146209072Y-51365920D01*
X146187574Y-51474000D01*
X123086000Y-51474000D01*
X123086000Y-50352000D01*
X167148001Y-50352000D01*
X167148000Y-104648000D01*
X167148000Y-104648000D01*
G37*
X167148000Y-104648000D02*
X115352000Y-104648000D01*
X115352000Y-98844252D01*
X126914000Y-98844252D01*
X126914000Y-100545748D01*
X127565135Y-102117726D01*
X128768274Y-103320865D01*
X130340252Y-103972000D01*
X132041748Y-103972000D01*
X132187474Y-103911638D01*
X132441183Y-104165347D01*
X133278077Y-104512000D01*
X134183923Y-104512000D01*
X135020817Y-104165347D01*
X135661347Y-103524817D01*
X136008000Y-102687923D01*
X136008000Y-101782077D01*
X135661347Y-100945183D01*
X135407638Y-100691474D01*
X135468000Y-100545748D01*
X135468000Y-98844252D01*
X137074000Y-98844252D01*
X137074000Y-100545748D01*
X137725135Y-102117726D01*
X138928274Y-103320865D01*
X139420652Y-103524815D01*
X139420653Y-103524817D01*
X140061183Y-104165347D01*
X140898077Y-104512000D01*
X141803923Y-104512000D01*
X142640817Y-104165347D01*
X143281347Y-103524817D01*
X143281348Y-103524815D01*
X143773726Y-103320865D01*
X144976865Y-102117726D01*
X145115895Y-101782077D01*
X146694000Y-101782077D01*
X146694000Y-102687923D01*
X147040653Y-103524817D01*
X147681183Y-104165347D01*
X148518077Y-104512000D01*
X149423923Y-104512000D01*
X150260817Y-104165347D01*
X150514526Y-103911638D01*
X150660252Y-103972000D01*
X152361748Y-103972000D01*
X153933726Y-103320865D01*
X155136865Y-102117726D01*
X155788000Y-100545748D01*
X155788000Y-98844252D01*
X155136865Y-97272274D01*
X153933726Y-96069135D01*
X152361748Y-95418000D01*
X150660252Y-95418000D01*
X149088274Y-96069135D01*
X147885135Y-97272274D01*
X147234000Y-98844252D01*
X147234000Y-100545748D01*
X147294362Y-100691474D01*
X147040653Y-100945183D01*
X146694000Y-101782077D01*
X145115895Y-101782077D01*
X145628000Y-100545748D01*
X145628000Y-98844252D01*
X144976865Y-97272274D01*
X143773726Y-96069135D01*
X142201748Y-95418000D01*
X140500252Y-95418000D01*
X138928274Y-96069135D01*
X137725135Y-97272274D01*
X137074000Y-98844252D01*
X135468000Y-98844252D01*
X134816865Y-97272274D01*
X133613726Y-96069135D01*
X132041748Y-95418000D01*
X130340252Y-95418000D01*
X128768274Y-96069135D01*
X127565135Y-97272274D01*
X126914000Y-98844252D01*
X115352000Y-98844252D01*
X115352000Y-87272000D01*
X154305000Y-87272000D01*
X154411003Y-87250915D01*
X154500869Y-87190869D01*
X154560915Y-87101003D01*
X154582000Y-86995000D01*
X154582000Y-80899000D01*
X154560915Y-80792997D01*
X154500869Y-80703131D01*
X154411003Y-80643085D01*
X154305000Y-80622000D01*
X145796000Y-80622000D01*
X145689997Y-80643085D01*
X145600131Y-80703131D01*
X145540085Y-80792997D01*
X145519000Y-80899000D01*
X145519000Y-83289000D01*
X119530000Y-83289000D01*
X119530000Y-79367336D01*
X133308000Y-79367336D01*
X133308000Y-79636664D01*
X133411067Y-79885490D01*
X133601510Y-80075933D01*
X133850336Y-80179000D01*
X134119664Y-80179000D01*
X134190957Y-80149470D01*
X135721000Y-81679514D01*
X135721000Y-81922664D01*
X135824067Y-82171490D01*
X136014510Y-82361933D01*
X136263336Y-82465000D01*
X136532664Y-82465000D01*
X136781490Y-82361933D01*
X136971933Y-82171490D01*
X137075000Y-81922664D01*
X137075000Y-81653336D01*
X136971933Y-81404510D01*
X136781490Y-81214067D01*
X136532664Y-81111000D01*
X136289514Y-81111000D01*
X134662000Y-79483487D01*
X134662000Y-79367336D01*
X134558933Y-79118510D01*
X134368490Y-78928067D01*
X134119664Y-78825000D01*
X133850336Y-78825000D01*
X133601510Y-78928067D01*
X133411067Y-79118510D01*
X133308000Y-79367336D01*
X119530000Y-79367336D01*
X119530000Y-75933738D01*
X119771738Y-75692000D01*
X163950921Y-75692000D01*
X164038389Y-76131733D01*
X164287478Y-76504522D01*
X164660267Y-76753611D01*
X164989001Y-76819000D01*
X165210999Y-76819000D01*
X165539733Y-76753611D01*
X165912522Y-76504522D01*
X166161611Y-76131733D01*
X166249079Y-75692000D01*
X166161611Y-75252267D01*
X165912522Y-74879478D01*
X165539733Y-74630389D01*
X165210999Y-74565000D01*
X164989001Y-74565000D01*
X164660267Y-74630389D01*
X164287478Y-74879478D01*
X164038389Y-75252267D01*
X163950921Y-75692000D01*
X119771738Y-75692000D01*
X122796738Y-72667000D01*
X127889000Y-72667000D01*
X127995003Y-72645915D01*
X128084869Y-72585869D01*
X131721204Y-68949534D01*
X133992898Y-68949534D01*
X133992898Y-72945536D01*
X133998324Y-72972814D01*
X133998324Y-73052362D01*
X134028766Y-73125856D01*
X134033579Y-73150052D01*
X134047285Y-73170565D01*
X134078555Y-73246057D01*
X134136332Y-73303834D01*
X134149427Y-73323432D01*
X134169025Y-73336527D01*
X134226802Y-73394304D01*
X134302294Y-73425574D01*
X134322807Y-73439280D01*
X134347003Y-73444093D01*
X134420497Y-73474535D01*
X134500045Y-73474535D01*
X134527323Y-73479961D01*
X138523325Y-73479961D01*
X138550603Y-73474535D01*
X138630151Y-73474535D01*
X138703645Y-73444093D01*
X138727841Y-73439280D01*
X138748354Y-73425574D01*
X138823846Y-73394304D01*
X138881623Y-73336527D01*
X138901221Y-73323432D01*
X138914316Y-73303834D01*
X138972093Y-73246057D01*
X139003363Y-73170565D01*
X139017069Y-73150052D01*
X139021882Y-73125856D01*
X139052324Y-73052362D01*
X139052324Y-72972814D01*
X139057750Y-72945536D01*
X139057750Y-68949534D01*
X139052324Y-68922256D01*
X139052324Y-68842708D01*
X139021882Y-68769214D01*
X139017069Y-68745018D01*
X139003363Y-68724505D01*
X138972093Y-68649013D01*
X138914316Y-68591236D01*
X138901221Y-68571638D01*
X138881623Y-68558543D01*
X138823846Y-68500766D01*
X138748354Y-68469496D01*
X138727841Y-68455790D01*
X138703645Y-68450977D01*
X138630151Y-68420535D01*
X138550603Y-68420535D01*
X138523325Y-68415109D01*
X134527323Y-68415109D01*
X134500045Y-68420535D01*
X134420497Y-68420535D01*
X134347003Y-68450977D01*
X134322807Y-68455790D01*
X134302294Y-68469496D01*
X134226802Y-68500766D01*
X134169025Y-68558543D01*
X134149427Y-68571638D01*
X134136332Y-68591236D01*
X134078555Y-68649013D01*
X134047285Y-68724505D01*
X134033579Y-68745018D01*
X134028766Y-68769214D01*
X133998324Y-68842708D01*
X133998324Y-68922256D01*
X133992898Y-68949534D01*
X131721204Y-68949534D01*
X134988738Y-65682000D01*
X137160000Y-65682000D01*
X137266003Y-65660915D01*
X137355869Y-65600869D01*
X137415915Y-65511003D01*
X137437000Y-65405000D01*
X137437000Y-62103000D01*
X137415915Y-61996997D01*
X137355869Y-61907131D01*
X137266003Y-61847085D01*
X137160000Y-61826000D01*
X133223000Y-61826000D01*
X133116997Y-61847085D01*
X133027131Y-61907131D01*
X127012262Y-67922000D01*
X122669738Y-67922000D01*
X120800000Y-66052262D01*
X120800000Y-58539336D01*
X138261000Y-58539336D01*
X138261000Y-58808664D01*
X138364067Y-59057490D01*
X138554510Y-59247933D01*
X138803336Y-59351000D01*
X139046487Y-59351000D01*
X147680001Y-67984515D01*
X147680000Y-73358577D01*
X147508067Y-73530510D01*
X147405000Y-73779336D01*
X147405000Y-74048664D01*
X147508067Y-74297490D01*
X147632577Y-74422000D01*
X147508067Y-74546510D01*
X147405000Y-74795336D01*
X147405000Y-75064664D01*
X147508067Y-75313490D01*
X147698510Y-75503933D01*
X147947336Y-75607000D01*
X148216664Y-75607000D01*
X148465490Y-75503933D01*
X148655933Y-75313490D01*
X148759000Y-75064664D01*
X148759000Y-74795336D01*
X148655933Y-74546510D01*
X148531423Y-74422000D01*
X148655933Y-74297490D01*
X148759000Y-74048664D01*
X148759000Y-73779336D01*
X148655933Y-73530510D01*
X148484000Y-73358577D01*
X148484000Y-73152000D01*
X163950921Y-73152000D01*
X164038389Y-73591733D01*
X164287478Y-73964522D01*
X164660267Y-74213611D01*
X164989001Y-74279000D01*
X165210999Y-74279000D01*
X165539733Y-74213611D01*
X165912522Y-73964522D01*
X166161611Y-73591733D01*
X166249079Y-73152000D01*
X166161611Y-72712267D01*
X165912522Y-72339478D01*
X165539733Y-72090389D01*
X165210999Y-72025000D01*
X164989001Y-72025000D01*
X164660267Y-72090389D01*
X164287478Y-72339478D01*
X164038389Y-72712267D01*
X163950921Y-73152000D01*
X148484000Y-73152000D01*
X148484000Y-70612000D01*
X163950921Y-70612000D01*
X164038389Y-71051733D01*
X164287478Y-71424522D01*
X164660267Y-71673611D01*
X164989001Y-71739000D01*
X165210999Y-71739000D01*
X165539733Y-71673611D01*
X165912522Y-71424522D01*
X166161611Y-71051733D01*
X166249079Y-70612000D01*
X166161611Y-70172267D01*
X165912522Y-69799478D01*
X165539733Y-69550389D01*
X165210999Y-69485000D01*
X164989001Y-69485000D01*
X164660267Y-69550389D01*
X164287478Y-69799478D01*
X164038389Y-70172267D01*
X163950921Y-70612000D01*
X148484000Y-70612000D01*
X148484000Y-68072000D01*
X163950921Y-68072000D01*
X164038389Y-68511733D01*
X164287478Y-68884522D01*
X164660267Y-69133611D01*
X164989001Y-69199000D01*
X165210999Y-69199000D01*
X165539733Y-69133611D01*
X165912522Y-68884522D01*
X166161611Y-68511733D01*
X166249079Y-68072000D01*
X166161611Y-67632267D01*
X165912522Y-67259478D01*
X165539733Y-67010389D01*
X165210999Y-66945000D01*
X164989001Y-66945000D01*
X164660267Y-67010389D01*
X164287478Y-67259478D01*
X164038389Y-67632267D01*
X163950921Y-68072000D01*
X148484000Y-68072000D01*
X148484000Y-67857585D01*
X148491874Y-67818000D01*
X148484000Y-67778415D01*
X148484000Y-67778410D01*
X148460675Y-67661148D01*
X148434720Y-67622303D01*
X148394251Y-67561737D01*
X148394249Y-67561735D01*
X148371825Y-67528175D01*
X148338265Y-67505751D01*
X146364514Y-65532000D01*
X163950921Y-65532000D01*
X164038389Y-65971733D01*
X164287478Y-66344522D01*
X164660267Y-66593611D01*
X164989001Y-66659000D01*
X165210999Y-66659000D01*
X165539733Y-66593611D01*
X165912522Y-66344522D01*
X166161611Y-65971733D01*
X166249079Y-65532000D01*
X166161611Y-65092267D01*
X165912522Y-64719478D01*
X165539733Y-64470389D01*
X165210999Y-64405000D01*
X164989001Y-64405000D01*
X164660267Y-64470389D01*
X164287478Y-64719478D01*
X164038389Y-65092267D01*
X163950921Y-65532000D01*
X146364514Y-65532000D01*
X143824514Y-62992000D01*
X163950921Y-62992000D01*
X164038389Y-63431733D01*
X164287478Y-63804522D01*
X164660267Y-64053611D01*
X164989001Y-64119000D01*
X165210999Y-64119000D01*
X165539733Y-64053611D01*
X165912522Y-63804522D01*
X166161611Y-63431733D01*
X166249079Y-62992000D01*
X166161611Y-62552267D01*
X165912522Y-62179478D01*
X165539733Y-61930389D01*
X165210999Y-61865000D01*
X164989001Y-61865000D01*
X164660267Y-61930389D01*
X164287478Y-62179478D01*
X164038389Y-62552267D01*
X163950921Y-62992000D01*
X143824514Y-62992000D01*
X141284514Y-60452000D01*
X163950921Y-60452000D01*
X164038389Y-60891733D01*
X164287478Y-61264522D01*
X164660267Y-61513611D01*
X164989001Y-61579000D01*
X165210999Y-61579000D01*
X165539733Y-61513611D01*
X165912522Y-61264522D01*
X166161611Y-60891733D01*
X166249079Y-60452000D01*
X166161611Y-60012267D01*
X165912522Y-59639478D01*
X165539733Y-59390389D01*
X165210999Y-59325000D01*
X164989001Y-59325000D01*
X164660267Y-59390389D01*
X164287478Y-59639478D01*
X164038389Y-60012267D01*
X163950921Y-60452000D01*
X141284514Y-60452000D01*
X139615000Y-58782487D01*
X139615000Y-58539336D01*
X139511933Y-58290510D01*
X139321490Y-58100067D01*
X139072664Y-57997000D01*
X138803336Y-57997000D01*
X138554510Y-58100067D01*
X138364067Y-58290510D01*
X138261000Y-58539336D01*
X120800000Y-58539336D01*
X120800000Y-57062000D01*
X163967574Y-57062000D01*
X163967574Y-58762000D01*
X163989072Y-58870080D01*
X164050295Y-58961705D01*
X164141920Y-59022928D01*
X164250000Y-59044426D01*
X165950000Y-59044426D01*
X166058080Y-59022928D01*
X166149705Y-58961705D01*
X166210928Y-58870080D01*
X166232426Y-58762000D01*
X166232426Y-57062000D01*
X166210928Y-56953920D01*
X166149705Y-56862295D01*
X166058080Y-56801072D01*
X165950000Y-56779574D01*
X164250000Y-56779574D01*
X164141920Y-56801072D01*
X164050295Y-56862295D01*
X163989072Y-56953920D01*
X163967574Y-57062000D01*
X120800000Y-57062000D01*
X120800000Y-56121738D01*
X123004869Y-53916869D01*
X123064915Y-53827003D01*
X123086000Y-53721000D01*
X123086000Y-51474000D01*
X146187574Y-51474000D01*
X146187574Y-53174000D01*
X146209072Y-53282080D01*
X146270295Y-53373705D01*
X146361920Y-53434928D01*
X146470000Y-53456426D01*
X148170000Y-53456426D01*
X148278080Y-53434928D01*
X148369705Y-53373705D01*
X148430928Y-53282080D01*
X148452426Y-53174000D01*
X148452426Y-52324000D01*
X148710921Y-52324000D01*
X148798389Y-52763733D01*
X149047478Y-53136522D01*
X149420267Y-53385611D01*
X149749001Y-53451000D01*
X149970999Y-53451000D01*
X150299733Y-53385611D01*
X150672522Y-53136522D01*
X150921611Y-52763733D01*
X151009079Y-52324000D01*
X151250921Y-52324000D01*
X151338389Y-52763733D01*
X151587478Y-53136522D01*
X151960267Y-53385611D01*
X152289001Y-53451000D01*
X152510999Y-53451000D01*
X152839733Y-53385611D01*
X153212522Y-53136522D01*
X153461611Y-52763733D01*
X153549079Y-52324000D01*
X153790921Y-52324000D01*
X153878389Y-52763733D01*
X154127478Y-53136522D01*
X154500267Y-53385611D01*
X154829001Y-53451000D01*
X155050999Y-53451000D01*
X155379733Y-53385611D01*
X155752522Y-53136522D01*
X156001611Y-52763733D01*
X156089079Y-52324000D01*
X156330921Y-52324000D01*
X156418389Y-52763733D01*
X156667478Y-53136522D01*
X157040267Y-53385611D01*
X157369001Y-53451000D01*
X157590999Y-53451000D01*
X157919733Y-53385611D01*
X158292522Y-53136522D01*
X158541611Y-52763733D01*
X158629079Y-52324000D01*
X158870921Y-52324000D01*
X158958389Y-52763733D01*
X159207478Y-53136522D01*
X159580267Y-53385611D01*
X159909001Y-53451000D01*
X160130999Y-53451000D01*
X160459733Y-53385611D01*
X160832522Y-53136522D01*
X161081611Y-52763733D01*
X161169079Y-52324000D01*
X161410921Y-52324000D01*
X161498389Y-52763733D01*
X161747478Y-53136522D01*
X162120267Y-53385611D01*
X162449001Y-53451000D01*
X162670999Y-53451000D01*
X162999733Y-53385611D01*
X163372522Y-53136522D01*
X163621611Y-52763733D01*
X163709079Y-52324000D01*
X163950921Y-52324000D01*
X164038389Y-52763733D01*
X164287478Y-53136522D01*
X164660267Y-53385611D01*
X164989001Y-53451000D01*
X165210999Y-53451000D01*
X165539733Y-53385611D01*
X165912522Y-53136522D01*
X166161611Y-52763733D01*
X166249079Y-52324000D01*
X166161611Y-51884267D01*
X165912522Y-51511478D01*
X165539733Y-51262389D01*
X165210999Y-51197000D01*
X164989001Y-51197000D01*
X164660267Y-51262389D01*
X164287478Y-51511478D01*
X164038389Y-51884267D01*
X163950921Y-52324000D01*
X163709079Y-52324000D01*
X163621611Y-51884267D01*
X163372522Y-51511478D01*
X162999733Y-51262389D01*
X162670999Y-51197000D01*
X162449001Y-51197000D01*
X162120267Y-51262389D01*
X161747478Y-51511478D01*
X161498389Y-51884267D01*
X161410921Y-52324000D01*
X161169079Y-52324000D01*
X161081611Y-51884267D01*
X160832522Y-51511478D01*
X160459733Y-51262389D01*
X160130999Y-51197000D01*
X159909001Y-51197000D01*
X159580267Y-51262389D01*
X159207478Y-51511478D01*
X158958389Y-51884267D01*
X158870921Y-52324000D01*
X158629079Y-52324000D01*
X158541611Y-51884267D01*
X158292522Y-51511478D01*
X157919733Y-51262389D01*
X157590999Y-51197000D01*
X157369001Y-51197000D01*
X157040267Y-51262389D01*
X156667478Y-51511478D01*
X156418389Y-51884267D01*
X156330921Y-52324000D01*
X156089079Y-52324000D01*
X156001611Y-51884267D01*
X155752522Y-51511478D01*
X155379733Y-51262389D01*
X155050999Y-51197000D01*
X154829001Y-51197000D01*
X154500267Y-51262389D01*
X154127478Y-51511478D01*
X153878389Y-51884267D01*
X153790921Y-52324000D01*
X153549079Y-52324000D01*
X153461611Y-51884267D01*
X153212522Y-51511478D01*
X152839733Y-51262389D01*
X152510999Y-51197000D01*
X152289001Y-51197000D01*
X151960267Y-51262389D01*
X151587478Y-51511478D01*
X151338389Y-51884267D01*
X151250921Y-52324000D01*
X151009079Y-52324000D01*
X150921611Y-51884267D01*
X150672522Y-51511478D01*
X150299733Y-51262389D01*
X149970999Y-51197000D01*
X149749001Y-51197000D01*
X149420267Y-51262389D01*
X149047478Y-51511478D01*
X148798389Y-51884267D01*
X148710921Y-52324000D01*
X148452426Y-52324000D01*
X148452426Y-51474000D01*
X148430928Y-51365920D01*
X148369705Y-51274295D01*
X148278080Y-51213072D01*
X148170000Y-51191574D01*
X146470000Y-51191574D01*
X146361920Y-51213072D01*
X146270295Y-51274295D01*
X146209072Y-51365920D01*
X146187574Y-51474000D01*
X123086000Y-51474000D01*
X123086000Y-50352000D01*
X167148001Y-50352000D01*
X167148000Y-104648000D01*
G04 #@! TD*
M02*
