<?xml version="1.0" standalone="no"?>
 <!DOCTYPE svg PUBLIC "-//W3C//DTD SVG 1.1//EN" 
 "http://www.w3.org/Graphics/SVG/1.1/DTD/svg11.dtd"> 
<svg xmlns="http://www.w3.org/2000/svg" version="1.1" 
    width="29.7002cm" height="21.0007cm" viewBox="0 0 116930 82680 ">
<title>SVG Picture created as actuator-F.Mask.svg date 2019/12/02 10:13:01 </title>
  <desc>Picture generated by PCBNEW </desc>
<g style="fill:#000000; fill-opacity:1;stroke:#000000; stroke-opacity:1;
stroke-linecap:round; stroke-linejoin:round; "
 transform="translate(0 0) scale(1 1)">
</g>
<g style="fill:#000000; fill-opacity:0.0; 
stroke:#000000; stroke-width:-0.000393701; stroke-opacity:1; 
stroke-linecap:round; stroke-linejoin:round;">
</g>
<g style="fill:#000000; fill-opacity:1.0; 
stroke:#000000; stroke-width:0; stroke-opacity:1; 
stroke-linecap:round; stroke-linejoin:round;">
<polyline style="fill-rule:evenodd;"
points="56115,37716
56285,37786
56405,37836
56664,38009
56666,38011
56888,38233
56888,38233
57063,38494
57063,38494
57183,38784
57244,39092
57244,39407
57183,39715
57175,39735
57063,40005
56890,40264
56888,40266
56666,40488
56666,40488
56405,40663
56335,40692
56327,40696
56319,40702
56313,40710
56277,40764
56164,40877
56164,40877
56032,40965
55885,41026
55885,41026
55885,41026
55729,41057
55570,41057
55414,41026
55414,41026
55414,41026
55267,40965
55135,40877
55135,40877
55022,40764
54986,40710
54980,40702
54972,40696
54964,40692
54894,40663
54633,40488
54633,40488
54411,40266
54409,40264
54236,40005
54124,39735
54116,39715
54055,39407
54055,39092
54116,38784
54236,38494
54236,38494
54411,38233
54411,38233
54633,38011
54635,38009
54894,37836
55014,37786
55184,37716
55492,37655
55807,37655
56115,37716
" /> 
<polyline style="fill-rule:evenodd;"
points="52115,37716
52285,37786
52405,37836
52664,38009
52666,38011
52888,38233
52888,38233
53063,38494
53063,38494
53183,38784
53244,39092
53244,39407
53200,39628
53199,39637
53200,39647
53203,39656
53208,39664
53214,39672
53277,39735
53277,39735
53365,39867
53426,40014
53457,40170
53457,40329
53426,40485
53365,40632
53344,40663
53277,40764
53164,40877
53164,40877
53032,40965
52885,41026
52885,41026
52885,41026
52729,41057
52570,41057
52414,41026
52414,41026
52414,41026
52267,40965
52135,40877
52135,40877
52072,40814
52064,40808
52056,40803
52047,40800
52037,40799
52028,40800
51807,40844
51492,40844
51184,40783
50975,40696
50894,40663
50633,40488
50633,40488
50411,40266
50409,40264
50236,40005
50124,39735
50116,39715
50055,39407
50055,39092
50116,38784
50236,38494
50236,38494
50411,38233
50411,38233
50633,38011
50635,38009
50894,37836
51014,37786
51184,37716
51492,37655
51807,37655
52115,37716
" /> 
<polyline style="fill-rule:evenodd;"
points="60115,37716
60285,37786
60405,37836
60664,38009
60666,38011
60888,38233
60888,38233
61063,38494
61063,38494
61183,38784
61244,39092
61244,39407
61183,39715
61175,39735
61063,40005
60890,40264
60888,40266
60666,40488
60666,40488
60405,40663
60324,40696
60115,40783
59807,40844
59492,40844
59271,40800
59262,40799
59252,40800
59243,40803
59235,40808
59227,40814
59164,40877
59164,40877
59032,40965
58885,41026
58885,41026
58885,41026
58729,41057
58570,41057
58414,41026
58414,41026
58414,41026
58267,40965
58135,40877
58135,40877
58022,40764
57955,40663
57934,40632
57873,40485
57842,40329
57842,40170
57873,40014
57934,39867
58022,39735
58022,39735
58085,39672
58091,39664
58096,39656
58099,39647
58100,39637
58099,39628
58055,39407
58055,39092
58116,38784
58236,38494
58236,38494
58411,38233
58411,38233
58633,38011
58635,38009
58894,37836
59014,37786
59184,37716
59492,37655
59807,37655
60115,37716
" /> 
<polyline style="fill-rule:evenodd;"
points="64894,34550
64895,34560
64897,34569
64902,34578
64908,34585
64915,34591
64924,34596
64933,34599
64943,34600
65088,34600
65088,34996
64943,34996
64933,34997
64924,35000
64915,35004
64908,35010
64902,35018
64897,35026
64895,35036
64894,35045
64894,36252
64558,36252
64558,36114
64557,36104
64554,36095
64550,36087
64544,36079
64536,36073
64528,36069
64519,36066
64509,36065
63443,36065
63433,36066
63424,36069
63415,36073
63408,36079
63402,36087
63397,36095
63395,36104
63394,36114
63394,36252
63058,36252
63058,35045
63057,35036
63054,35026
63050,35018
63044,35010
63036,35004
63028,35000
63019,34997
63009,34996
62863,34996
62863,34600
63009,34600
63019,34599
63028,34596
63036,34591
63044,34585
63050,34578
63054,34569
63057,34560
63058,34550
63058,34428
64894,34428
64894,34550
" /> 
<polyline style="fill-rule:evenodd;"
points="55051,34550
55052,34560
55055,34569
55059,34578
55065,34585
55073,34591
55081,34596
55091,34599
55100,34600
55246,34600
55246,34996
55100,34996
55091,34997
55081,35000
55073,35004
55065,35010
55059,35018
55055,35026
55052,35036
55051,35045
55051,36252
54716,36252
54716,36114
54715,36104
54712,36095
54707,36087
54701,36079
54694,36073
54685,36069
54676,36066
54666,36065
53600,36065
53591,36066
53581,36069
53573,36073
53565,36079
53559,36087
53555,36095
53552,36104
53551,36114
53551,36252
53216,36252
53216,35045
53215,35036
53212,35026
53207,35018
53201,35010
53194,35004
53185,35000
53176,34997
53166,34996
53021,34996
53021,34600
53166,34600
53176,34599
53185,34596
53194,34591
53201,34585
53207,34578
53212,34569
53215,34560
53216,34550
53216,34428
55051,34428
55051,34550
" /> 
<polyline style="fill-rule:evenodd;"
points="51114,34550
51115,34560
51118,34569
51122,34578
51128,34585
51136,34591
51144,34596
51154,34599
51163,34600
51309,34600
51309,34996
51163,34996
51154,34997
51144,35000
51136,35004
51128,35010
51122,35018
51118,35026
51115,35036
51114,35045
51114,36252
50779,36252
50779,36114
50778,36104
50775,36095
50770,36087
50764,36079
50757,36073
50748,36069
50739,36066
50729,36065
49663,36065
49654,36066
49644,36069
49636,36073
49628,36079
49622,36087
49618,36095
49615,36104
49614,36114
49614,36252
49279,36252
49279,35045
49278,35036
49275,35026
49270,35018
49264,35010
49257,35004
49248,35000
49239,34997
49229,34996
49084,34996
49084,34600
49229,34600
49239,34599
49248,34596
49257,34591
49264,34585
49270,34578
49275,34569
49278,34560
49279,34550
49279,34428
51114,34428
51114,34550
" /> 
<polyline style="fill-rule:evenodd;"
points="56504,36226
56168,36226
56168,35792
56504,35792
56504,36226
" /> 
<polyline style="fill-rule:evenodd;"
points="48161,36226
47826,36226
47826,35792
48161,35792
48161,36226
" /> 
<polyline style="fill-rule:evenodd;"
points="47161,36226
46826,36226
46826,35792
47161,35792
47161,36226
" /> 
<polyline style="fill-rule:evenodd;"
points="46661,36226
46326,36226
46326,35792
46661,35792
46661,36226
" /> 
<polyline style="fill-rule:evenodd;"
points="58004,36226
57668,36226
57668,35792
58004,35792
58004,36226
" /> 
<polyline style="fill-rule:evenodd;"
points="57504,36226
57168,36226
57168,35792
57504,35792
57504,36226
" /> 
<polyline style="fill-rule:evenodd;"
points="57004,36226
56668,36226
56668,35792
57004,35792
57004,36226
" /> 
<polyline style="fill-rule:evenodd;"
points="60441,36226
60105,36226
60105,35792
60441,35792
60441,36226
" /> 
<polyline style="fill-rule:evenodd;"
points="60941,36226
60605,36226
60605,35792
60941,35792
60941,36226
" /> 
<polyline style="fill-rule:evenodd;"
points="61441,36226
61105,36226
61105,35792
61441,35792
61441,36226
" /> 
<polyline style="fill-rule:evenodd;"
points="47661,36226
47326,36226
47326,35792
47661,35792
47661,36226
" /> 
<polyline style="fill-rule:evenodd;"
points="61941,36226
61605,36226
61605,35792
61941,35792
61941,36226
" /> 
<polyline style="fill-rule:evenodd;"
points="46661,33767
46662,33776
46665,33786
46670,33794
46676,33802
46683,33808
46692,33812
46701,33815
46711,33816
47777,33816
47786,33815
47795,33812
47804,33808
47811,33802
47818,33794
47822,33786
47825,33776
47826,33767
47826,33629
48161,33629
48161,34836
48162,34845
48165,34855
48170,34863
48176,34871
48183,34877
48192,34881
48201,34884
48211,34885
48356,34885
48356,35281
48211,35281
48201,35282
48192,35285
48183,35290
48176,35296
48170,35303
48165,35312
48162,35321
48161,35331
48161,35453
46326,35453
46326,35331
46325,35321
46322,35312
46318,35303
46311,35296
46304,35290
46295,35285
46286,35282
46277,35281
46131,35281
46131,34885
46277,34885
46286,34884
46295,34881
46304,34877
46311,34871
46318,34863
46322,34855
46325,34845
46326,34836
46326,33629
46661,33629
46661,33767
" /> 
<polyline style="fill-rule:evenodd;"
points="56504,33767
56505,33776
56508,33786
56512,33794
56518,33802
56526,33808
56534,33812
56543,33815
56553,33816
57619,33816
57629,33815
57638,33812
57647,33808
57654,33802
57660,33794
57665,33786
57667,33776
57668,33767
57668,33629
58004,33629
58004,34836
58005,34845
58008,34855
58012,34863
58018,34871
58026,34877
58034,34881
58043,34884
58053,34885
58199,34885
58199,35281
58053,35281
58043,35282
58034,35285
58026,35290
58018,35296
58012,35303
58008,35312
58005,35321
58004,35331
58004,35453
56168,35453
56168,35331
56167,35321
56165,35312
56160,35303
56154,35296
56147,35290
56138,35285
56129,35282
56119,35281
55974,35281
55974,34885
56119,34885
56129,34884
56138,34881
56147,34877
56154,34871
56160,34863
56165,34855
56167,34845
56168,34836
56168,33629
56504,33629
56504,33767
" /> 
<polyline style="fill-rule:evenodd;"
points="60441,33767
60442,33776
60445,33786
60449,33794
60455,33802
60463,33808
60471,33812
60480,33815
60490,33816
61556,33816
61566,33815
61575,33812
61584,33808
61591,33802
61597,33794
61602,33786
61604,33776
61605,33767
61605,33629
61941,33629
61941,34836
61942,34845
61945,34855
61949,34863
61955,34871
61963,34877
61971,34881
61980,34884
61990,34885
62136,34885
62136,35281
61990,35281
61980,35282
61971,35285
61963,35290
61955,35296
61949,35303
61945,35312
61942,35321
61941,35331
61941,35453
60105,35453
60105,35331
60104,35321
60102,35312
60097,35303
60091,35296
60084,35290
60075,35285
60066,35282
60056,35281
59911,35281
59911,34885
60056,34885
60066,34884
60075,34881
60084,34877
60091,34871
60097,34863
60102,34855
60104,34845
60105,34836
60105,33629
60441,33629
60441,33767
" /> 
<polyline style="fill-rule:evenodd;"
points="64894,34088
64558,34088
64558,33655
64894,33655
64894,34088
" /> 
<polyline style="fill-rule:evenodd;"
points="54051,34088
53716,34088
53716,33655
54051,33655
54051,34088
" /> 
<polyline style="fill-rule:evenodd;"
points="63394,34088
63058,34088
63058,33655
63394,33655
63394,34088
" /> 
<polyline style="fill-rule:evenodd;"
points="63894,34088
63558,34088
63558,33655
63894,33655
63894,34088
" /> 
<polyline style="fill-rule:evenodd;"
points="64394,34088
64058,34088
64058,33655
64394,33655
64394,34088
" /> 
<polyline style="fill-rule:evenodd;"
points="55051,34088
54716,34088
54716,33655
55051,33655
55051,34088
" /> 
<polyline style="fill-rule:evenodd;"
points="54551,34088
54216,34088
54216,33655
54551,33655
54551,34088
" /> 
<polyline style="fill-rule:evenodd;"
points="51114,34088
50779,34088
50779,33655
51114,33655
51114,34088
" /> 
<polyline style="fill-rule:evenodd;"
points="53551,34088
53216,34088
53216,33655
53551,33655
53551,34088
" /> 
<polyline style="fill-rule:evenodd;"
points="49614,34088
49279,34088
49279,33655
49614,33655
49614,34088
" /> 
<polyline style="fill-rule:evenodd;"
points="50114,34088
49779,34088
49779,33655
50114,33655
50114,34088
" /> 
<polyline style="fill-rule:evenodd;"
points="50614,34088
50279,34088
50279,33655
50614,33655
50614,34088
" /> 
<polyline style="fill-rule:evenodd;"
points="53333,31999
53347,32003
53360,32010
53371,32019
53381,32031
53388,32043
53392,32057
53394,32074
53394,33279
53392,33296
53388,33310
53381,33323
53371,33334
53360,33343
53347,33350
53333,33355
53316,33356
52899,33356
52882,33355
52868,33350
52855,33343
52844,33334
52835,33323
52828,33310
52824,33296
52822,33279
52822,32074
52824,32057
52828,32043
52835,32031
52844,32019
52855,32010
52868,32003
52882,31999
52899,31997
53316,31997
53333,31999
" /> 
<polyline style="fill-rule:evenodd;"
points="55617,31999
55631,32003
55644,32010
55655,32019
55664,32031
55671,32043
55675,32057
55677,32074
55677,33279
55675,33296
55671,33310
55664,33323
55655,33334
55644,33343
55631,33350
55617,33355
55600,33356
55183,33356
55166,33355
55152,33350
55139,33343
55128,33334
55118,33323
55111,33310
55107,33296
55105,33279
55105,32074
55107,32057
55111,32043
55118,32031
55128,32019
55139,32010
55152,32003
55166,31999
55183,31997
55600,31997
55617,31999
" /> 
<polyline style="fill-rule:evenodd;"
points="64967,31999
64981,32003
64994,32010
65005,32019
65014,32031
65021,32043
65025,32057
65027,32074
65027,33279
65025,33296
65021,33310
65014,33323
65005,33334
64994,33343
64981,33350
64967,33355
64950,33356
64533,33356
64516,33355
64502,33350
64489,33343
64478,33334
64468,33323
64461,33310
64457,33296
64455,33279
64455,32074
64457,32057
64461,32043
64468,32031
64478,32019
64489,32010
64502,32003
64516,31999
64533,31997
64950,31997
64967,31999
" /> 
<polyline style="fill-rule:evenodd;"
points="62683,31999
62697,32003
62710,32010
62721,32019
62731,32031
62738,32043
62742,32057
62744,32074
62744,33279
62742,33296
62738,33310
62731,33323
62721,33334
62710,33343
62697,33350
62683,33355
62666,33356
62249,33356
62232,33355
62218,33350
62205,33343
62194,33334
62185,33323
62178,33310
62174,33296
62172,33279
62172,32074
62174,32057
62178,32043
62185,32031
62194,32019
62205,32010
62218,32003
62232,31999
62249,31997
62666,31997
62683,31999
" /> 
<polyline style="fill-rule:evenodd;"
points="48533,31972
48547,31976
48560,31983
48571,31992
48581,32003
48588,32016
48592,32030
48594,32047
48594,33252
48592,33269
48588,33283
48581,33296
48571,33307
48560,33316
48547,33323
48533,33327
48516,33329
48099,33329
48082,33327
48068,33323
48055,33316
48044,33307
48035,33296
48028,33283
48024,33269
48022,33252
48022,32047
48024,32030
48028,32016
48035,32003
48044,31992
48055,31983
48068,31976
48082,31972
48099,31970
48516,31970
48533,31972
" /> 
<polyline style="fill-rule:evenodd;"
points="50817,31972
50831,31976
50844,31983
50855,31992
50864,32003
50871,32016
50875,32030
50877,32047
50877,33252
50875,33269
50871,33283
50864,33296
50855,33307
50844,33316
50831,33323
50817,33327
50800,33329
50383,33329
50366,33327
50352,33323
50339,33316
50328,33307
50318,33296
50311,33283
50307,33269
50305,33252
50305,32047
50307,32030
50311,32016
50318,32003
50328,31992
50339,31983
50352,31976
50366,31972
50383,31970
50800,31970
50817,31972
" /> 
<polyline style="fill-rule:evenodd;"
points="56702,32387
56717,32391
56730,32398
56742,32408
56751,32419
56758,32433
56763,32447
56764,32464
56764,33035
56763,33052
56758,33066
56751,33080
56742,33091
56730,33101
56717,33108
56702,33112
56685,33114
56312,33114
56294,33112
56280,33108
56267,33101
56255,33091
56245,33080
56238,33066
56234,33052
56232,33035
56232,32464
56234,32447
56238,32433
56245,32419
56255,32408
56267,32398
56280,32391
56294,32387
56312,32385
56685,32385
56702,32387
" /> 
<polyline style="fill-rule:evenodd;"
points="57805,32387
57819,32391
57833,32398
57844,32408
57854,32419
57861,32433
57865,32447
57867,32464
57867,33035
57865,33052
57861,33066
57854,33080
57844,33091
57833,33101
57819,33108
57805,33112
57787,33114
57414,33114
57397,33112
57382,33108
57369,33101
57357,33091
57348,33080
57341,33066
57336,33052
57335,33035
57335,32464
57336,32447
57341,32433
57348,32419
57357,32408
57369,32398
57382,32391
57397,32387
57414,32385
57787,32385
57805,32387
" /> 
<polyline style="fill-rule:evenodd;"
points="46652,32287
46667,32291
46680,32298
46692,32308
46701,32319
46708,32333
46713,32347
46714,32364
46714,32935
46713,32952
46708,32966
46701,32980
46692,32991
46680,33001
46667,33008
46652,33012
46635,33014
46262,33014
46244,33012
46230,33008
46217,33001
46205,32991
46195,32980
46188,32966
46184,32952
46182,32935
46182,32364
46184,32347
46188,32333
46195,32319
46205,32308
46217,32298
46230,32291
46244,32287
46262,32285
46635,32285
46652,32287
" /> 
<polyline style="fill-rule:evenodd;"
points="47755,32287
47769,32291
47783,32298
47794,32308
47804,32319
47811,32333
47815,32347
47817,32364
47817,32935
47815,32952
47811,32966
47804,32980
47794,32991
47783,33001
47769,33008
47755,33012
47737,33014
47364,33014
47347,33012
47332,33008
47319,33001
47307,32991
47298,32980
47291,32966
47286,32952
47285,32935
47285,32364
47286,32347
47291,32333
47298,32319
47307,32308
47319,32298
47332,32291
47347,32287
47364,32285
47737,32285
47755,32287
" /> 
<polyline style="fill-rule:evenodd;"
points="60402,32237
60417,32241
60430,32248
60442,32258
60451,32269
60458,32283
60463,32297
60464,32314
60464,32885
60463,32902
60458,32916
60451,32930
60442,32941
60430,32951
60417,32958
60402,32962
60385,32964
60012,32964
59994,32962
59980,32958
59967,32951
59955,32941
59945,32930
59938,32916
59934,32902
59932,32885
59932,32314
59934,32297
59938,32283
59945,32269
59955,32258
59967,32248
59980,32241
59994,32237
60012,32235
60385,32235
60402,32237
" /> 
<polyline style="fill-rule:evenodd;"
points="61505,32237
61519,32241
61533,32248
61544,32258
61554,32269
61561,32283
61565,32297
61567,32314
61567,32885
61565,32902
61561,32916
61554,32930
61544,32941
61533,32951
61519,32958
61505,32962
61487,32964
61114,32964
61097,32962
61082,32958
61069,32951
61057,32941
61048,32930
61041,32916
61036,32902
61035,32885
61035,32314
61036,32297
61041,32283
61048,32269
61057,32258
61069,32248
61082,32241
61097,32237
61114,32235
61487,32235
61505,32237
" /> 
<polyline style="fill-rule:evenodd;"
points="65043,29447
65069,29450
65108,29462
65136,29470
65178,29493
65198,29503
65212,29515
65252,29547
65284,29587
65296,29601
65296,29601
65329,29663
65331,29669
65349,29730
65356,29800
65349,29869
65336,29914
65329,29936
65300,29990
65296,29998
65284,30012
65252,30052
65212,30084
65198,30096
65198,30096
65136,30129
65114,30136
65069,30149
65043,30152
65017,30154
64982,30154
64956,30152
64930,30149
64885,30136
64863,30129
64801,30096
64801,30096
64787,30084
64747,30052
64715,30012
64703,29998
64699,29990
64670,29936
64663,29914
64650,29869
64643,29800
64650,29730
64668,29669
64670,29663
64703,29601
64703,29601
64715,29587
64747,29547
64787,29515
64801,29503
64821,29493
64863,29470
64891,29462
64930,29450
64956,29447
64982,29445
65017,29445
65043,29447
" /> 
<polyline style="fill-rule:evenodd;"
points="57143,29219
57158,29223
57171,29231
57183,29241
57193,29252
57200,29266
57205,29281
57207,29299
57207,29589
57205,29607
57200,29622
57193,29636
57183,29647
57171,29657
57158,29665
57143,29669
57125,29671
56874,29671
56856,29669
56841,29665
56828,29657
56816,29647
56806,29636
56799,29622
56794,29607
56792,29589
56792,29299
56794,29281
56799,29266
56806,29252
56816,29241
56828,29231
56841,29223
56856,29219
56874,29217
57125,29217
57143,29219
" /> 
<polyline style="fill-rule:evenodd;"
points="56049,29169
56062,29173
56075,29179
56085,29188
56094,29199
56101,29211
56105,29225
56107,29241
56107,29478
56105,29494
56101,29508
56094,29520
56085,29531
56075,29540
56062,29546
56049,29550
56033,29552
55766,29552
55750,29550
55737,29546
55724,29540
55714,29531
55705,29520
55698,29508
55694,29494
55692,29478
55692,29241
55694,29225
55698,29211
55705,29199
55714,29188
55724,29179
55737,29173
55750,29169
55766,29167
56033,29167
56049,29169
" /> 
<polyline style="fill-rule:evenodd;"
points="53319,29132
53321,29133
53322,29134
53325,29136
53333,29141
53342,29145
53351,29147
53361,29147
53370,29145
53379,29141
53387,29136
53390,29134
53391,29133
53393,29132
53398,29132
53511,29132
53516,29132
53517,29133
53519,29134
53522,29136
53530,29141
53538,29145
53548,29147
53558,29147
53567,29145
53576,29141
53584,29136
53587,29134
53588,29133
53590,29132
53594,29132
53708,29132
53712,29132
53714,29133
53716,29134
53718,29136
53726,29141
53735,29145
53745,29147
53754,29147
53764,29145
53773,29141
53781,29136
53783,29134
53785,29133
53787,29132
53791,29132
53905,29132
53909,29132
53911,29133
53913,29134
53915,29136
53923,29141
53932,29145
53942,29147
53951,29147
53961,29145
53970,29141
53978,29136
53980,29134
53982,29133
53984,29132
53988,29132
54102,29132
54106,29132
54108,29133
54110,29134
54112,29136
54120,29141
54129,29145
54139,29147
54148,29147
54158,29145
54167,29141
54175,29136
54177,29134
54179,29133
54181,29132
54185,29132
54299,29132
54303,29132
54305,29133
54306,29134
54309,29136
54317,29141
54326,29145
54335,29147
54345,29147
54354,29145
54363,29141
54371,29136
54374,29134
54376,29133
54377,29132
54382,29132
54495,29132
54500,29132
54502,29133
54503,29134
54506,29136
54514,29141
54523,29145
54532,29147
54542,29147
54551,29145
54560,29141
54568,29136
54571,29134
54572,29133
54574,29132
54579,29132
54692,29132
54697,29132
54698,29133
54700,29134
54703,29136
54711,29141
54720,29145
54729,29147
54739,29147
54748,29145
54757,29141
54765,29136
54768,29134
54769,29133
54771,29132
54775,29132
54889,29132
54897,29133
54901,29133
54901,29137
54902,29144
54902,29465
54901,29469
54901,29471
54900,29473
54898,29474
54897,29475
54895,29476
54893,29477
54889,29477
54775,29477
54771,29477
54769,29476
54768,29475
54765,29473
54757,29468
54748,29464
54739,29462
54729,29462
54720,29464
54711,29468
54703,29473
54700,29475
54698,29476
54697,29477
54692,29477
54579,29477
54574,29477
54572,29476
54571,29475
54568,29473
54560,29468
54551,29464
54542,29462
54532,29462
54523,29464
54514,29468
54506,29473
54503,29475
54502,29476
54500,29477
54495,29477
54382,29477
54377,29477
54376,29476
54374,29475
54371,29473
54363,29468
54354,29464
54345,29462
54335,29462
54326,29464
54317,29468
54309,29473
54306,29475
54305,29476
54303,29477
54299,29477
54185,29477
54181,29477
54179,29476
54177,29475
54175,29473
54167,29468
54158,29464
54148,29462
54139,29462
54129,29464
54120,29468
54112,29473
54110,29475
54108,29476
54106,29477
54102,29477
53988,29477
53984,29477
53982,29476
53980,29475
53978,29473
53970,29468
53961,29464
53951,29462
53942,29462
53932,29464
53923,29468
53915,29473
53913,29475
53911,29476
53909,29477
53905,29477
53791,29477
53787,29477
53785,29476
53783,29475
53781,29473
53773,29468
53764,29464
53754,29462
53745,29462
53735,29464
53726,29468
53718,29473
53716,29475
53714,29476
53712,29477
53708,29477
53594,29477
53590,29477
53588,29476
53587,29475
53584,29473
53576,29468
53567,29464
53558,29462
53548,29462
53538,29464
53530,29468
53522,29473
53519,29475
53517,29476
53516,29477
53511,29477
53398,29477
53393,29477
53391,29476
53390,29475
53387,29473
53379,29468
53370,29464
53361,29462
53351,29462
53342,29464
53333,29468
53325,29473
53322,29475
53321,29476
53319,29477
53314,29477
53201,29477
53196,29477
53194,29476
53193,29475
53190,29473
53182,29468
53173,29464
53164,29462
53154,29462
53145,29464
53136,29468
53128,29473
53125,29475
53124,29476
53122,29477
53117,29477
53004,29477
52999,29477
52998,29476
52996,29475
52993,29473
52985,29468
52977,29464
52967,29462
52957,29462
52948,29464
52939,29468
52931,29473
52928,29475
52927,29476
52925,29477
52921,29477
52807,29477
52803,29477
52801,29476
52799,29475
52797,29473
52789,29468
52780,29464
52770,29462
52761,29462
52751,29464
52742,29468
52734,29473
52732,29475
52730,29476
52728,29477
52724,29477
52610,29477
52606,29477
52604,29476
52602,29475
52601,29474
52600,29473
52599,29471
52598,29469
52598,29465
52598,29144
52598,29137
52598,29133
52602,29133
52610,29132
52724,29132
52728,29132
52730,29133
52732,29134
52734,29136
52742,29141
52751,29145
52761,29147
52770,29147
52780,29145
52789,29141
52797,29136
52799,29134
52801,29133
52803,29132
52807,29132
52921,29132
52925,29132
52927,29133
52928,29134
52931,29136
52939,29141
52948,29145
52957,29147
52967,29147
52977,29145
52985,29141
52993,29136
52996,29134
52998,29133
52999,29132
53004,29132
53117,29132
53122,29132
53124,29133
53125,29134
53128,29136
53136,29141
53145,29145
53154,29147
53164,29147
53173,29145
53182,29141
53190,29136
53193,29134
53194,29133
53196,29132
53201,29132
53314,29132
53319,29132
" /> 
<polyline style="fill-rule:evenodd;"
points="57843,28869
57858,28873
57871,28881
57883,28891
57893,28902
57900,28916
57905,28931
57907,28949
57907,29239
57905,29257
57900,29272
57893,29286
57883,29297
57871,29307
57858,29315
57843,29319
57825,29321
57574,29321
57556,29319
57541,29315
57528,29307
57516,29297
57506,29286
57499,29272
57494,29257
57492,29239
57492,28949
57494,28931
57499,28916
57506,28902
57516,28891
57528,28881
57541,28873
57556,28869
57574,28867
57825,28867
57843,28869
" /> 
<polyline style="fill-rule:evenodd;"
points="65043,28447
65069,28450
65114,28463
65136,28470
65190,28499
65198,28503
65203,28508
65252,28547
65278,28579
65296,28601
65296,28601
65329,28663
65329,28663
65349,28730
65356,28800
65349,28869
65336,28911
65329,28936
65308,28974
65296,28998
65284,29012
65252,29052
65216,29080
65198,29096
65198,29096
65136,29129
65122,29133
65069,29149
65043,29152
65017,29154
64982,29154
64956,29152
64930,29149
64877,29133
64863,29129
64801,29096
64801,29096
64783,29080
64747,29052
64715,29012
64703,28998
64691,28974
64670,28936
64663,28911
64650,28869
64643,28800
64650,28730
64670,28663
64670,28663
64703,28601
64703,28601
64721,28579
64747,28547
64796,28508
64801,28503
64809,28499
64863,28470
64885,28463
64930,28450
64956,28447
64982,28445
65017,28445
65043,28447
" /> 
<polyline style="fill-rule:evenodd;"
points="55287,26780
55289,26781
55291,26782
55292,26783
55293,26784
55294,26786
55295,26788
55295,26792
55295,26906
55295,26910
55294,26912
55293,26914
55291,26916
55286,26924
55282,26933
55280,26943
55280,26952
55282,26962
55286,26971
55291,26979
55293,26981
55294,26983
55295,26985
55295,26989
55295,27103
55295,27107
55294,27109
55293,27110
55291,27113
55286,27121
55282,27130
55280,27139
55280,27149
55282,27158
55286,27167
55291,27175
55293,27178
55294,27180
55295,27181
55295,27186
55295,27299
55295,27304
55294,27306
55293,27307
55291,27310
55286,27318
55282,27327
55280,27336
55280,27346
55282,27355
55286,27364
55291,27372
55293,27375
55294,27376
55295,27378
55295,27383
55295,27496
55295,27501
55294,27502
55293,27504
55291,27507
55286,27515
55282,27524
55280,27533
55280,27543
55282,27552
55286,27561
55291,27569
55293,27572
55294,27573
55295,27575
55295,27579
55295,27693
55295,27697
55294,27699
55293,27701
55291,27704
55286,27712
55282,27720
55280,27730
55280,27740
55282,27749
55286,27758
55291,27766
55293,27768
55294,27770
55295,27772
55295,27776
55295,27890
55295,27894
55294,27896
55293,27898
55291,27900
55286,27908
55282,27917
55280,27927
55280,27936
55282,27946
55286,27955
55291,27963
55293,27965
55294,27967
55295,27969
55295,27973
55295,28087
55295,28091
55294,28093
55293,28095
55291,28097
55286,28105
55282,28114
55280,28124
55280,28133
55282,28143
55286,28152
55291,28160
55293,28162
55294,28164
55295,28166
55295,28170
55295,28284
55295,28288
55294,28290
55293,28292
55291,28294
55286,28302
55282,28311
55280,28320
55280,28330
55282,28340
55286,28349
55291,28357
55293,28359
55294,28361
55295,28363
55295,28367
55295,28481
55295,28485
55294,28487
55293,28488
55291,28491
55286,28499
55282,28508
55280,28517
55280,28527
55282,28536
55286,28545
55291,28553
55293,28556
55294,28558
55295,28559
55295,28564
55295,28677
55295,28682
55294,28684
55293,28685
55291,28688
55286,28696
55282,28705
55280,28714
55280,28724
55282,28733
55286,28742
55291,28750
55293,28753
55294,28754
55295,28756
55295,28761
55295,28874
55295,28879
55294,28880
55293,28882
55291,28885
55286,28893
55282,28902
55280,28911
55280,28921
55282,28930
55286,28939
55291,28947
55293,28950
55294,28951
55295,28953
55295,28957
55295,29071
55295,29075
55294,29077
55293,29079
55292,29080
55291,29082
55289,29083
55287,29083
55283,29084
54962,29084
54955,29083
54951,29083
54951,29079
54950,29071
54950,28957
54950,28953
54951,28951
54952,28950
54954,28947
54959,28939
54963,28930
54965,28921
54965,28911
54963,28902
54959,28893
54954,28885
54952,28882
54951,28880
54950,28879
54950,28874
54950,28761
54950,28756
54951,28754
54952,28753
54954,28750
54959,28742
54963,28733
54965,28724
54965,28714
54963,28705
54959,28696
54954,28688
54952,28685
54951,28684
54950,28682
54950,28677
54950,28564
54950,28559
54951,28558
54952,28556
54954,28553
54959,28545
54963,28536
54965,28527
54965,28517
54963,28508
54959,28499
54954,28491
54952,28488
54951,28487
54950,28485
54950,28481
54950,28367
54950,28363
54951,28361
54952,28359
54954,28357
54959,28348
54963,28340
54965,28330
54965,28320
54963,28311
54959,28302
54954,28294
54952,28292
54951,28290
54950,28288
54950,28284
54950,28170
54950,28166
54951,28164
54952,28162
54954,28160
54959,28152
54963,28143
54965,28133
54965,28124
54963,28114
54959,28105
54954,28097
54952,28095
54951,28093
54950,28091
54950,28087
54950,27973
54950,27969
54951,27967
54952,27965
54954,27963
54959,27955
54963,27946
54965,27936
54965,27927
54963,27917
54959,27908
54954,27900
54952,27898
54951,27896
54950,27894
54950,27890
54950,27776
54950,27772
54951,27770
54952,27768
54954,27766
54959,27758
54963,27749
54965,27740
54965,27730
54963,27720
54959,27712
54954,27704
54952,27701
54951,27699
54950,27697
54950,27693
54950,27579
54950,27575
54951,27573
54952,27572
54954,27569
54959,27561
54963,27552
54965,27543
54965,27533
54963,27524
54959,27515
54954,27507
54952,27504
54951,27502
54950,27501
54950,27496
54950,27383
54950,27378
54951,27376
54952,27375
54954,27372
54959,27364
54963,27355
54965,27346
54965,27336
54963,27327
54959,27318
54954,27310
54952,27307
54951,27306
54950,27304
54950,27299
54950,27186
54950,27181
54951,27180
54952,27178
54954,27175
54959,27167
54963,27158
54965,27149
54965,27139
54963,27130
54959,27121
54954,27113
54952,27110
54951,27109
54950,27107
54950,27103
54950,26989
54950,26985
54951,26983
54952,26981
54954,26979
54959,26971
54963,26962
54965,26952
54965,26943
54963,26933
54959,26924
54954,26916
54952,26914
54951,26912
54950,26910
54950,26906
54950,26792
54951,26784
54951,26780
54955,26780
54962,26780
55283,26780
55287,26780
" /> 
<polyline style="fill-rule:evenodd;"
points="52545,26780
52548,26780
52548,26784
52549,26792
52549,26906
52549,26910
52548,26913
52546,26922
52546,26932
52548,26942
52552,26950
52557,26958
52564,26965
52572,26971
52581,26974
52595,26976
52671,26976
52680,26976
52689,26973
52698,26968
52705,26962
52712,26955
52716,26946
52718,26942
52720,26933
52726,26923
52733,26915
52741,26908
52751,26902
52762,26899
52775,26898
54724,26898
54738,26899
54748,26902
54758,26908
54767,26915
54774,26923
54779,26933
54782,26944
54783,26957
54783,28906
54782,28920
54779,28930
54774,28940
54767,28949
54758,28956
54748,28961
54738,28964
54724,28965
52775,28965
52762,28964
52751,28961
52741,28956
52733,28949
52726,28940
52720,28930
52717,28920
52716,28906
52716,27164
52715,27155
52712,27145
52707,27137
52701,27129
52694,27123
52685,27119
52676,27116
52667,27115
52595,27115
52585,27116
52576,27119
52568,27123
52560,27129
52554,27137
52550,27145
52547,27155
52546,27164
52548,27179
52549,27181
52549,27186
52549,27299
52549,27304
52548,27306
52547,27307
52545,27310
52540,27318
52536,27327
52534,27336
52534,27346
52536,27355
52540,27364
52545,27372
52547,27375
52548,27376
52549,27378
52549,27383
52549,27496
52549,27501
52548,27502
52547,27504
52545,27507
52540,27515
52536,27524
52534,27533
52534,27543
52536,27552
52540,27561
52545,27569
52547,27572
52548,27573
52549,27575
52549,27579
52549,27693
52549,27697
52548,27699
52547,27701
52545,27704
52540,27712
52536,27720
52534,27730
52534,27740
52536,27749
52540,27758
52545,27766
52547,27768
52548,27770
52549,27772
52549,27776
52549,27890
52549,27894
52548,27896
52547,27898
52545,27900
52540,27908
52536,27917
52534,27927
52534,27936
52536,27946
52540,27955
52545,27963
52547,27965
52548,27967
52549,27969
52549,27973
52549,28087
52549,28091
52548,28093
52547,28095
52545,28097
52540,28105
52536,28114
52534,28124
52534,28133
52536,28143
52540,28152
52545,28160
52547,28162
52548,28164
52549,28166
52549,28170
52549,28284
52549,28288
52548,28290
52547,28292
52545,28294
52540,28302
52536,28311
52534,28320
52534,28330
52536,28340
52540,28349
52545,28357
52547,28359
52548,28361
52549,28363
52549,28367
52549,28481
52549,28485
52548,28487
52547,28488
52545,28491
52540,28499
52536,28508
52534,28517
52534,28527
52536,28536
52540,28545
52545,28553
52547,28556
52548,28558
52549,28559
52549,28564
52549,28677
52549,28682
52548,28684
52547,28685
52545,28688
52540,28696
52536,28705
52534,28714
52534,28724
52536,28733
52540,28742
52545,28750
52547,28753
52548,28754
52549,28756
52549,28761
52549,28874
52549,28879
52548,28880
52547,28882
52545,28885
52540,28893
52536,28902
52534,28911
52534,28921
52536,28930
52540,28939
52545,28947
52547,28950
52548,28951
52549,28953
52549,28957
52549,29071
52548,29079
52548,29083
52545,29083
52537,29084
52216,29084
52212,29083
52210,29083
52209,29082
52207,29080
52206,29079
52205,29077
52204,29075
52204,29071
52204,28957
52204,28953
52205,28951
52206,28950
52208,28947
52213,28939
52217,28930
52219,28921
52219,28911
52217,28902
52213,28893
52208,28885
52206,28882
52205,28880
52204,28879
52204,28874
52204,28761
52204,28756
52205,28754
52206,28753
52208,28750
52213,28742
52217,28733
52219,28724
52219,28714
52217,28705
52213,28696
52208,28688
52206,28685
52205,28684
52204,28682
52204,28677
52204,28564
52204,28559
52205,28558
52206,28556
52208,28553
52213,28545
52217,28536
52219,28527
52219,28517
52217,28508
52213,28499
52208,28491
52206,28488
52205,28487
52204,28485
52204,28481
52204,28367
52204,28363
52205,28361
52206,28359
52208,28357
52213,28348
52217,28340
52219,28330
52219,28320
52217,28311
52213,28302
52208,28294
52206,28292
52205,28290
52204,28288
52204,28284
52204,28170
52204,28166
52205,28164
52206,28162
52208,28160
52213,28152
52217,28143
52219,28133
52219,28124
52217,28114
52213,28105
52208,28097
52206,28095
52205,28093
52204,28091
52204,28087
52204,27973
52204,27969
52205,27967
52206,27965
52208,27963
52213,27955
52217,27946
52219,27936
52219,27927
52217,27917
52213,27908
52208,27900
52206,27898
52205,27896
52204,27894
52204,27890
52204,27776
52204,27772
52205,27770
52206,27768
52208,27766
52213,27758
52217,27749
52219,27740
52219,27730
52217,27720
52213,27712
52208,27704
52206,27701
52205,27699
52204,27697
52204,27693
52204,27579
52204,27575
52205,27573
52206,27572
52208,27569
52213,27561
52217,27552
52219,27543
52219,27533
52217,27524
52213,27515
52208,27507
52206,27504
52205,27502
52204,27501
52204,27496
52204,27383
52204,27378
52205,27376
52206,27375
52208,27372
52213,27364
52217,27355
52219,27346
52219,27336
52217,27327
52213,27318
52208,27310
52206,27307
52205,27306
52204,27304
52204,27299
52204,27186
52204,27181
52205,27180
52206,27178
52208,27175
52214,27167
52217,27158
52219,27149
52219,27139
52217,27130
52214,27121
52208,27113
52206,27110
52206,27109
52205,27107
52205,27103
52205,26989
52205,26985
52206,26983
52206,26981
52208,26979
52214,26971
52217,26962
52219,26953
52219,26943
52217,26933
52214,26925
52208,26916
52206,26914
52205,26912
52204,26910
52204,26906
52204,26792
52204,26788
52205,26786
52206,26784
52207,26783
52209,26782
52210,26781
52212,26780
52216,26780
52537,26780
52545,26780
" /> 
<polyline style="fill-rule:evenodd;"
points="57143,28530
57158,28534
57171,28542
57183,28552
57193,28563
57200,28577
57205,28592
57207,28610
57207,28900
57205,28918
57200,28933
57193,28947
57183,28958
57171,28968
57158,28976
57143,28980
57125,28982
56874,28982
56856,28980
56841,28976
56828,28968
56816,28958
56806,28947
56799,28933
56794,28918
56792,28900
56792,28610
56794,28592
56799,28577
56806,28563
56816,28552
56828,28542
56841,28534
56856,28530
56874,28528
57125,28528
57143,28530
" /> 
<polyline style="fill-rule:evenodd;"
points="56049,28549
56062,28553
56075,28559
56085,28568
56094,28579
56101,28591
56105,28605
56107,28621
56107,28858
56105,28874
56101,28888
56094,28900
56085,28911
56075,28920
56062,28926
56049,28930
56033,28932
55766,28932
55750,28930
55737,28926
55724,28920
55714,28911
55705,28900
55698,28888
55694,28874
55692,28858
55692,28621
55694,28605
55698,28591
55705,28579
55714,28568
55724,28559
55737,28553
55750,28549
55766,28547
56033,28547
56049,28549
" /> 
<polyline style="fill-rule:evenodd;"
points="57843,28180
57858,28184
57871,28192
57883,28202
57893,28213
57900,28227
57905,28242
57907,28260
57907,28550
57905,28568
57900,28583
57893,28597
57883,28608
57871,28618
57858,28626
57843,28630
57825,28632
57574,28632
57556,28630
57541,28626
57528,28618
57516,28608
57506,28597
57499,28583
57494,28568
57492,28550
57492,28260
57494,28242
57499,28227
57506,28213
57516,28202
57528,28192
57541,28184
57556,28180
57574,28178
57825,28178
57843,28180
" /> 
<polyline style="fill-rule:evenodd;"
points="65043,27447
65069,27450
65114,27463
65136,27470
65179,27493
65198,27503
65204,27509
65252,27547
65284,27587
65296,27601
65296,27601
65329,27663
65329,27663
65349,27730
65356,27800
65349,27869
65340,27900
65329,27936
65311,27969
65296,27998
65284,28012
65252,28052
65212,28084
65198,28096
65198,28096
65136,28129
65114,28136
65069,28149
65043,28152
65017,28154
64982,28154
64956,28152
64930,28149
64885,28136
64863,28129
64801,28096
64801,28096
64787,28084
64747,28052
64715,28012
64703,27998
64688,27969
64670,27936
64659,27900
64650,27869
64643,27800
64650,27730
64670,27663
64670,27663
64703,27601
64703,27601
64715,27587
64747,27547
64795,27509
64801,27503
64820,27493
64863,27470
64885,27463
64930,27450
64956,27447
64982,27445
65017,27445
65043,27447
" /> 
<polyline style="fill-rule:evenodd;"
points="51558,27495
51572,27499
51584,27506
51595,27515
51604,27525
51610,27538
51614,27551
51616,27567
51616,27804
51614,27820
51610,27834
51604,27846
51595,27857
51584,27866
51572,27872
51558,27876
51542,27878
51276,27878
51259,27876
51246,27872
51234,27866
51223,27857
51214,27846
51207,27834
51203,27820
51202,27804
51202,27567
51203,27551
51207,27538
51214,27525
51223,27515
51234,27506
51246,27499
51259,27495
51276,27493
51542,27493
51558,27495
" /> 
<polyline style="fill-rule:evenodd;"
points="50458,27495
50472,27499
50484,27506
50495,27515
50504,27525
50510,27538
50514,27551
50516,27567
50516,27804
50514,27820
50510,27834
50504,27846
50495,27857
50484,27866
50472,27872
50458,27876
50442,27878
50176,27878
50159,27876
50146,27872
50134,27866
50123,27857
50114,27846
50107,27834
50103,27820
50102,27804
50102,27567
50103,27551
50107,27538
50114,27525
50123,27515
50134,27506
50146,27499
50159,27495
50176,27493
50442,27493
50458,27495
" /> 
<polyline style="fill-rule:evenodd;"
points="47024,26661
47037,26665
47050,26672
47060,26680
47069,26691
47076,26703
47080,26717
47081,26733
47081,27256
47080,27272
47076,27286
47069,27298
47060,27309
47050,27317
47037,27324
47024,27328
47008,27330
45736,27330
45720,27328
45707,27324
45695,27317
45684,27309
45675,27298
45669,27286
45665,27272
45663,27256
45663,26733
45665,26717
45669,26703
45675,26691
45684,26680
45695,26672
45707,26665
45720,26661
45736,26659
47008,26659
47024,26661
" /> 
<polyline style="fill-rule:evenodd;"
points="49229,26661
49242,26665
49254,26672
49265,26680
49274,26691
49280,26703
49284,26717
49286,26733
49286,27256
49284,27272
49280,27286
49274,27298
49265,27309
49254,27317
49242,27324
49229,27328
49213,27330
47941,27330
47925,27328
47912,27324
47899,27317
47889,27309
47880,27298
47873,27286
47869,27272
47868,27256
47868,26733
47869,26717
47873,26703
47880,26691
47889,26680
47899,26672
47912,26665
47925,26661
47941,26659
49213,26659
49229,26661
" /> 
<polyline style="fill-rule:evenodd;"
points="51558,26875
51572,26879
51584,26886
51595,26894
51604,26905
51610,26918
51614,26931
51616,26947
51616,27184
51614,27200
51610,27214
51604,27226
51595,27237
51584,27246
51572,27252
51558,27256
51542,27258
51276,27258
51259,27256
51246,27252
51234,27246
51223,27237
51214,27226
51207,27214
51203,27200
51202,27184
51202,26947
51203,26931
51207,26918
51214,26905
51223,26894
51234,26886
51246,26879
51259,26875
51276,26873
51542,26873
51558,26875
" /> 
<polyline style="fill-rule:evenodd;"
points="50458,26875
50472,26879
50484,26886
50495,26894
50504,26905
50510,26918
50514,26931
50516,26947
50516,27184
50514,27200
50510,27214
50504,27226
50495,27237
50484,27246
50472,27252
50458,27256
50442,27258
50176,27258
50159,27256
50146,27252
50134,27246
50123,27237
50114,27226
50107,27214
50103,27200
50102,27184
50102,26947
50103,26931
50107,26918
50114,26905
50123,26894
50134,26886
50146,26879
50159,26875
50176,26873
50442,26873
50458,26875
" /> 
<polyline style="fill-rule:evenodd;"
points="55908,26845
55922,26849
55934,26856
55945,26865
55954,26875
55960,26888
55964,26901
55966,26917
55966,27154
55964,27170
55960,27184
55954,27196
55945,27207
55934,27216
55922,27222
55908,27226
55892,27228
55626,27228
55609,27226
55596,27222
55584,27216
55573,27207
55564,27196
55557,27184
55553,27170
55552,27154
55552,26917
55553,26901
55557,26888
55564,26875
55573,26865
55584,26856
55596,26849
55609,26845
55626,26843
55892,26843
55908,26845
" /> 
<polyline style="fill-rule:evenodd;"
points="65043,26447
65069,26450
65114,26463
65136,26470
65190,26499
65198,26503
65212,26515
65252,26547
65278,26580
65296,26601
65296,26601
65329,26663
65333,26677
65349,26730
65356,26800
65349,26869
65338,26905
65329,26936
65310,26971
65296,26998
65285,27011
65252,27052
65212,27084
65198,27096
65198,27096
65136,27129
65114,27136
65069,27149
65043,27152
65017,27154
64982,27154
64956,27152
64930,27149
64885,27136
64863,27129
64801,27096
64801,27096
64787,27084
64747,27052
64714,27011
64703,26998
64689,26971
64670,26936
64661,26905
64650,26869
64643,26800
64650,26730
64666,26677
64670,26663
64703,26601
64703,26601
64721,26580
64747,26547
64787,26515
64801,26503
64809,26499
64863,26470
64885,26463
64930,26450
64956,26447
64982,26445
65017,26445
65043,26447
" /> 
<polyline style="fill-rule:evenodd;"
points="52728,26386
52730,26387
52732,26388
52734,26390
52742,26395
52751,26399
52761,26401
52770,26401
52780,26399
52789,26395
52797,26390
52799,26388
52801,26387
52803,26386
52807,26386
52921,26386
52925,26386
52927,26387
52928,26388
52931,26390
52939,26395
52948,26399
52957,26401
52967,26401
52977,26399
52985,26395
52993,26390
52996,26388
52998,26387
52999,26386
53004,26386
53117,26386
53122,26386
53124,26387
53125,26388
53128,26390
53136,26395
53145,26399
53154,26401
53164,26401
53173,26399
53182,26395
53190,26390
53193,26388
53194,26387
53196,26386
53201,26386
53314,26386
53319,26386
53321,26387
53322,26388
53325,26390
53333,26395
53342,26399
53351,26401
53361,26401
53370,26399
53379,26395
53387,26390
53390,26388
53391,26387
53393,26386
53398,26386
53511,26386
53516,26386
53517,26387
53519,26388
53522,26390
53530,26395
53538,26399
53548,26401
53558,26401
53567,26399
53576,26395
53584,26390
53587,26388
53588,26387
53590,26386
53594,26386
53708,26386
53712,26386
53714,26387
53716,26388
53718,26390
53726,26395
53735,26399
53745,26401
53754,26401
53764,26399
53773,26395
53781,26390
53783,26388
53785,26387
53787,26386
53791,26386
53905,26386
53909,26386
53911,26387
53913,26388
53915,26390
53923,26395
53932,26399
53942,26401
53951,26401
53961,26399
53970,26395
53978,26390
53980,26388
53982,26387
53984,26386
53988,26386
54102,26386
54106,26386
54108,26387
54110,26388
54112,26390
54120,26395
54129,26399
54139,26401
54148,26401
54158,26399
54167,26395
54175,26390
54177,26388
54179,26387
54181,26386
54185,26386
54299,26386
54303,26386
54305,26387
54306,26388
54309,26390
54317,26395
54326,26399
54335,26401
54345,26401
54354,26399
54363,26395
54371,26390
54374,26388
54376,26387
54377,26386
54382,26386
54495,26386
54500,26386
54502,26387
54503,26388
54506,26390
54514,26395
54523,26399
54532,26401
54542,26401
54551,26399
54560,26395
54568,26390
54571,26388
54572,26387
54574,26386
54579,26386
54692,26386
54697,26386
54698,26387
54700,26388
54703,26390
54711,26395
54720,26399
54729,26401
54739,26401
54748,26399
54757,26395
54765,26390
54768,26388
54769,26387
54771,26386
54775,26386
54889,26386
54893,26386
54895,26387
54897,26388
54898,26389
54900,26391
54901,26392
54901,26394
54902,26398
54902,26719
54901,26727
54901,26730
54897,26730
54889,26731
54775,26731
54771,26731
54769,26730
54768,26729
54765,26727
54757,26722
54748,26718
54739,26716
54729,26716
54720,26718
54711,26722
54703,26727
54700,26729
54698,26730
54697,26731
54692,26731
54579,26731
54574,26731
54572,26730
54571,26729
54568,26727
54560,26722
54551,26718
54542,26716
54532,26716
54523,26718
54514,26722
54506,26727
54503,26729
54502,26730
54500,26731
54495,26731
54382,26731
54377,26731
54376,26730
54374,26729
54371,26727
54363,26722
54354,26718
54345,26716
54335,26716
54326,26718
54317,26722
54309,26727
54306,26729
54305,26730
54303,26731
54299,26731
54185,26731
54181,26731
54179,26730
54177,26729
54175,26727
54167,26722
54158,26718
54148,26716
54139,26716
54129,26718
54120,26722
54112,26727
54110,26729
54108,26730
54106,26731
54102,26731
53988,26731
53984,26731
53982,26730
53980,26729
53978,26727
53970,26722
53961,26718
53951,26716
53942,26716
53932,26718
53923,26722
53915,26727
53913,26729
53911,26730
53909,26731
53905,26731
53791,26731
53787,26731
53785,26730
53783,26729
53781,26727
53773,26722
53764,26718
53754,26716
53745,26716
53735,26718
53726,26722
53718,26727
53716,26729
53714,26730
53712,26731
53708,26731
53594,26731
53590,26731
53588,26730
53587,26729
53584,26727
53576,26722
53567,26718
53558,26716
53548,26716
53538,26718
53530,26722
53522,26727
53519,26729
53517,26730
53516,26731
53511,26731
53398,26731
53393,26731
53391,26730
53390,26729
53387,26727
53379,26722
53370,26718
53361,26716
53351,26716
53342,26718
53333,26722
53325,26727
53322,26729
53321,26730
53319,26731
53314,26731
53201,26731
53196,26731
53194,26730
53193,26729
53190,26727
53182,26722
53173,26718
53164,26716
53154,26716
53145,26718
53136,26722
53128,26727
53125,26729
53124,26730
53122,26731
53117,26731
53004,26731
52999,26731
52998,26730
52996,26729
52993,26727
52985,26722
52977,26718
52967,26716
52957,26716
52948,26718
52939,26722
52931,26727
52928,26729
52927,26730
52925,26731
52921,26731
52807,26731
52803,26731
52801,26730
52799,26729
52797,26727
52789,26722
52780,26718
52770,26716
52761,26716
52751,26718
52742,26722
52734,26727
52732,26729
52730,26730
52728,26731
52724,26731
52610,26731
52602,26730
52598,26730
52598,26727
52598,26719
52598,26398
52598,26394
52599,26392
52600,26391
52601,26389
52602,26388
52604,26387
52606,26386
52610,26386
52724,26386
52728,26386
" /> 
<polyline style="fill-rule:evenodd;"
points="55908,26225
55922,26229
55934,26236
55945,26244
55954,26255
55960,26268
55964,26281
55966,26297
55966,26534
55964,26550
55960,26564
55954,26576
55945,26587
55934,26596
55922,26602
55908,26606
55892,26608
55626,26608
55609,26606
55596,26602
55584,26596
55573,26587
55564,26576
55557,26564
55553,26550
55552,26534
55552,26297
55553,26281
55557,26268
55564,26255
55573,26244
55584,26236
55596,26229
55609,26225
55626,26223
55892,26223
55908,26225
" /> 
<polyline style="fill-rule:evenodd;"
points="50724,26044
50738,26048
50750,26055
50761,26064
50770,26074
50776,26087
50780,26100
50782,26116
50782,26383
50780,26399
50776,26412
50770,26425
50761,26435
50750,26444
50738,26451
50724,26455
50708,26457
50471,26457
50455,26455
50441,26451
50429,26444
50418,26435
50409,26425
50403,26412
50399,26399
50397,26383
50397,26116
50399,26100
50403,26087
50409,26074
50418,26064
50429,26055
50441,26048
50455,26044
50471,26042
50708,26042
50724,26044
" /> 
<polyline style="fill-rule:evenodd;"
points="51344,26044
51358,26048
51370,26055
51381,26064
51390,26074
51396,26087
51400,26100
51402,26116
51402,26383
51400,26399
51396,26412
51390,26425
51381,26435
51370,26444
51358,26451
51344,26455
51328,26457
51091,26457
51075,26455
51061,26451
51049,26444
51038,26435
51029,26425
51023,26412
51019,26399
51017,26383
51017,26116
51019,26100
51023,26087
51029,26074
51038,26064
51049,26055
51061,26048
51075,26044
51091,26042
51328,26042
51344,26044
" /> 
<polyline style="fill-rule:evenodd;"
points="65043,25447
65069,25450
65114,25463
65136,25470
65178,25493
65198,25503
65207,25511
65252,25547
65284,25587
65296,25601
65296,25601
65329,25663
65329,25663
65349,25730
65356,25800
65349,25869
65336,25914
65329,25936
65300,25990
65296,25998
65284,26012
65252,26052
65212,26084
65198,26096
65198,26096
65136,26129
65114,26136
65069,26149
65043,26152
65017,26154
64982,26154
64956,26152
64930,26149
64885,26136
64863,26129
64801,26096
64801,26096
64787,26084
64747,26052
64715,26012
64703,25998
64699,25990
64670,25936
64663,25914
64650,25869
64643,25800
64650,25730
64670,25663
64670,25663
64703,25601
64703,25601
64715,25587
64747,25547
64792,25511
64801,25503
64821,25493
64863,25470
64885,25463
64930,25450
64956,25447
64982,25445
65017,25445
65043,25447
" /> 
<polyline style="fill-rule:evenodd;"
points="53157,25144
53172,25149
53186,25156
53197,25166
53207,25178
53215,25191
53219,25206
53221,25224
53221,25475
53219,25493
53215,25508
53207,25521
53197,25533
53186,25543
53172,25550
53157,25555
53139,25557
52849,25557
52831,25555
52816,25550
52802,25543
52791,25533
52781,25521
52773,25508
52769,25493
52767,25475
52767,25224
52769,25206
52773,25191
52781,25178
52791,25166
52802,25156
52816,25149
52831,25144
52849,25142
53139,25142
53157,25144
" /> 
<polyline style="fill-rule:evenodd;"
points="52468,25144
52483,25149
52497,25156
52508,25166
52518,25178
52526,25191
52530,25206
52532,25224
52532,25475
52530,25493
52526,25508
52518,25521
52508,25533
52497,25543
52483,25550
52468,25555
52450,25557
52160,25557
52142,25555
52127,25550
52113,25543
52102,25533
52092,25521
52084,25508
52080,25493
52078,25475
52078,25224
52080,25206
52084,25191
52092,25178
52102,25166
52113,25156
52127,25149
52142,25144
52160,25142
52450,25142
52468,25144
" /> 
<polyline style="fill-rule:evenodd;"
points="65043,24447
65069,24450
65114,24463
65136,24470
65190,24499
65198,24503
65204,24509
65252,24547
65279,24581
65296,24601
65296,24601
65329,24663
65329,24663
65349,24730
65356,24800
65349,24869
65336,24914
65329,24936
65300,24990
65296,24998
65284,25012
65252,25052
65212,25084
65198,25096
65198,25096
65136,25129
65114,25136
65069,25149
65043,25152
65017,25154
64982,25154
64956,25152
64930,25149
64885,25136
64863,25129
64801,25096
64801,25096
64787,25084
64747,25052
64715,25012
64703,24998
64699,24990
64670,24936
64663,24914
64650,24869
64643,24800
64650,24730
64670,24663
64670,24663
64703,24601
64703,24601
64720,24581
64747,24547
64795,24509
64801,24503
64809,24499
64863,24470
64885,24463
64930,24450
64956,24447
64982,24445
65017,24445
65043,24447
" /> 
<polyline style="fill-rule:evenodd;"
points="51310,24505
51318,24507
51325,24511
51332,24516
51337,24523
51341,24530
51344,24539
51345,24549
51345,24750
51344,24760
51341,24769
51337,24776
51332,24783
51325,24788
51318,24792
51310,24794
51299,24796
51118,24796
51107,24794
51099,24792
51092,24788
51085,24783
51080,24776
51076,24769
51073,24760
51072,24750
51072,24549
51073,24539
51076,24530
51080,24523
51085,24516
51092,24511
51099,24507
51107,24505
51118,24503
51299,24503
51310,24505
" /> 
<polyline style="fill-rule:evenodd;"
points="51692,24505
51700,24507
51707,24511
51714,24516
51719,24523
51723,24530
51726,24539
51727,24549
51727,24750
51726,24760
51723,24769
51719,24776
51714,24783
51707,24788
51700,24792
51692,24794
51681,24796
51500,24796
51489,24794
51481,24792
51474,24788
51467,24783
51462,24776
51458,24769
51455,24760
51454,24750
51454,24549
51455,24539
51458,24530
51462,24523
51467,24516
51474,24511
51481,24507
51489,24505
51500,24503
51681,24503
51692,24505
" /> 
<polyline style="fill-rule:evenodd;"
points="53652,24206
53666,24211
53680,24218
53691,24227
53701,24239
53708,24252
53712,24267
53714,24284
53714,24657
53712,24675
53708,24689
53701,24703
53691,24714
53680,24724
53666,24731
53652,24735
53635,24737
53064,24737
53047,24735
53033,24731
53019,24724
53008,24714
52998,24703
52991,24689
52987,24675
52985,24657
52985,24284
52987,24267
52991,24252
52998,24239
53008,24227
53019,24218
53033,24211
53047,24206
53064,24205
53635,24205
53652,24206
" /> 
<polyline style="fill-rule:evenodd;"
points="56299,24219
56312,24223
56325,24229
56335,24238
56344,24249
56351,24261
56355,24275
56357,24291
56357,24528
56355,24544
56351,24558
56344,24570
56335,24581
56325,24590
56312,24596
56299,24600
56283,24602
56016,24602
56000,24600
55987,24596
55974,24590
55964,24581
55955,24570
55948,24558
55944,24544
55942,24528
55942,24291
55944,24275
55948,24261
55955,24249
55964,24238
55974,24229
55987,24223
56000,24219
56016,24217
56283,24217
56299,24219
" /> 
<polyline style="fill-rule:evenodd;"
points="49234,23721
49247,23725
49259,23732
49270,23740
49279,23751
49285,23763
49289,23777
49291,23793
49291,24316
49289,24332
49285,24346
49279,24358
49270,24369
49259,24377
49247,24384
49234,24388
49218,24390
47946,24390
47930,24388
47917,24384
47904,24377
47894,24369
47885,24358
47878,24346
47874,24332
47873,24316
47873,23793
47874,23777
47878,23763
47885,23751
47894,23740
47904,23732
47917,23725
47930,23721
47946,23719
49218,23719
49234,23721
" /> 
<polyline style="fill-rule:evenodd;"
points="47029,23721
47042,23725
47055,23732
47065,23740
47074,23751
47081,23763
47085,23777
47086,23793
47086,24316
47085,24332
47081,24346
47074,24358
47065,24369
47055,24377
47042,24384
47029,24388
47013,24390
45741,24390
45725,24388
45712,24384
45700,24377
45689,24369
45680,24358
45674,24346
45670,24332
45668,24316
45668,23793
45670,23777
45674,23763
45680,23751
45689,23740
45700,23732
45712,23725
45725,23721
45741,23719
47013,23719
47029,23721
" /> 
<polyline style="fill-rule:evenodd;"
points="55596,24262
55123,24262
55123,23789
55596,23789
55596,24262
" /> 
<polyline style="fill-rule:evenodd;"
points="54494,24262
54021,24262
54021,23789
54494,23789
54494,24262
" /> 
<polyline style="fill-rule:evenodd;"
points="65043,23447
65069,23450
65114,23463
65136,23470
65190,23499
65198,23503
65212,23515
65252,23547
65272,23572
65296,23601
65296,23601
65329,23663
65329,23663
65349,23730
65356,23800
65349,23869
65336,23914
65329,23936
65313,23966
65296,23998
65284,24012
65252,24052
65212,24084
65198,24096
65198,24096
65136,24129
65114,24136
65069,24149
65043,24152
65017,24154
64982,24154
64956,24152
64930,24149
64885,24136
64863,24129
64801,24096
64801,24096
64787,24084
64747,24052
64715,24012
64703,23998
64686,23966
64670,23936
64663,23914
64650,23869
64643,23800
64650,23730
64670,23663
64670,23663
64703,23601
64703,23601
64727,23572
64747,23547
64787,23515
64801,23503
64809,23499
64863,23470
64885,23463
64930,23450
64956,23447
64982,23445
65017,23445
65043,23447
" /> 
<polyline style="fill-rule:evenodd;"
points="56299,23599
56312,23603
56325,23609
56335,23618
56344,23629
56351,23641
56355,23655
56357,23671
56357,23908
56355,23924
56351,23938
56344,23950
56335,23961
56325,23970
56312,23976
56299,23980
56283,23982
56016,23982
56000,23980
55987,23976
55974,23970
55964,23961
55955,23950
55948,23938
55944,23924
55942,23908
55942,23671
55944,23655
55948,23641
55955,23629
55964,23618
55974,23609
55987,23603
56000,23599
56016,23597
56283,23597
56299,23599
" /> 
<polyline style="fill-rule:evenodd;"
points="51766,23320
51781,23325
51795,23332
51807,23342
51816,23354
51824,23367
51828,23382
51830,23400
51830,23651
51828,23669
51824,23684
51816,23698
51807,23709
51795,23719
51781,23727
51766,23731
51749,23733
51458,23733
51440,23731
51425,23727
51412,23719
51400,23709
51390,23698
51383,23684
51378,23669
51376,23651
51376,23400
51378,23382
51383,23367
51390,23354
51400,23342
51412,23332
51425,23325
51440,23320
51458,23319
51749,23319
51766,23320
" /> 
<polyline style="fill-rule:evenodd;"
points="51077,23320
51092,23325
51106,23332
51118,23342
51127,23354
51135,23367
51139,23382
51141,23400
51141,23651
51139,23669
51135,23684
51127,23698
51118,23709
51106,23719
51092,23727
51077,23731
51060,23733
50769,23733
50751,23731
50736,23727
50723,23719
50711,23709
50701,23698
50694,23684
50689,23669
50687,23651
50687,23400
50689,23382
50694,23367
50701,23354
50711,23342
50723,23332
50736,23325
50751,23320
50769,23319
51060,23319
51077,23320
" /> 
<polyline style="fill-rule:evenodd;"
points="53652,23104
53666,23108
53680,23115
53691,23125
53701,23137
53708,23150
53712,23164
53714,23182
53714,23555
53712,23572
53708,23587
53701,23600
53691,23612
53680,23621
53666,23628
53652,23633
53635,23634
53064,23634
53047,23633
53033,23628
53019,23621
53008,23612
52998,23600
52991,23587
52987,23572
52985,23555
52985,23182
52987,23164
52991,23150
52998,23137
53008,23125
53019,23115
53033,23108
53047,23104
53064,23102
53635,23102
53652,23104
" /> 
<polyline style="fill-rule:evenodd;"
points="65354,23154
64645,23154
64645,22445
65354,22445
65354,23154
" /> 
<polyline style="fill-rule:evenodd;"
points="53652,22351
53666,22356
53680,22363
53691,22372
53701,22384
53708,22397
53712,22412
53714,22429
53714,22802
53712,22820
53708,22834
53701,22848
53691,22859
53680,22869
53666,22876
53652,22880
53635,22882
53064,22882
53047,22880
53033,22876
53019,22869
53008,22859
52998,22848
52991,22834
52987,22820
52985,22802
52985,22429
52987,22412
52991,22397
52998,22384
53008,22372
53019,22363
53033,22356
53047,22351
53064,22350
53635,22350
53652,22351
" /> 
<polyline style="fill-rule:evenodd;"
points="54663,21270
54755,21288
54851,21328
54938,21386
54939,21386
55013,21460
55013,21460
55071,21548
55111,21644
55131,21747
55131,21852
55111,21955
55071,22051
55013,22138
55013,22139
54939,22213
54939,22213
54851,22271
54755,22311
54703,22321
54652,22331
54547,22331
54496,22321
54444,22311
54348,22271
54260,22213
54260,22213
54186,22139
54186,22138
54128,22051
54088,21955
54068,21852
54068,21747
54088,21644
54128,21548
54186,21460
54186,21460
54260,21386
54261,21386
54348,21328
54444,21288
54536,21270
54547,21268
54652,21268
54663,21270
" /> 
<polyline style="fill-rule:evenodd;"
points="56632,21270
56723,21288
56820,21328
56907,21386
56907,21386
56981,21460
56981,21460
57039,21548
57079,21644
57100,21747
57100,21852
57079,21955
57039,22051
56981,22138
56981,22139
56907,22213
56907,22213
56820,22271
56723,22311
56672,22321
56620,22331
56516,22331
56464,22321
56413,22311
56316,22271
56229,22213
56229,22213
56155,22139
56155,22138
56097,22051
56057,21955
56036,21852
56036,21747
56057,21644
56097,21548
56155,21460
56155,21460
56229,21386
56229,21386
56316,21328
56413,21288
56504,21270
56516,21268
56620,21268
56632,21270
" /> 
<polyline style="fill-rule:evenodd;"
points="53652,21249
53666,21253
53680,21260
53691,21270
53701,21282
53708,21295
53712,21309
53714,21327
53714,21700
53712,21717
53708,21732
53701,21745
53691,21757
53680,21766
53666,21773
53652,21778
53635,21779
53064,21779
53047,21778
53033,21773
53019,21766
53008,21757
52998,21745
52991,21732
52987,21717
52985,21700
52985,21327
52987,21309
52991,21295
52998,21282
53008,21270
53019,21260
53033,21253
53047,21249
53064,21247
53635,21247
53652,21249
" /> 
<polyline style="fill-rule:evenodd;"
points="47274,20225
47274,20225
47274,20225
47355,20250
47355,20250
47431,20290
47497,20345
47551,20411
47579,20463
47591,20486
47616,20568
47616,20568
47622,20631
47622,21264
47616,21328
47616,21328
47616,21328
47598,21386
47591,21410
47551,21485
47500,21548
47497,21551
47431,21605
47355,21646
47274,21670
47274,21670
47274,21670
47189,21679
47104,21670
47104,21670
47104,21670
47022,21646
47020,21644
46947,21605
46881,21551
46826,21485
46813,21460
46786,21410
46761,21328
46761,21328
46761,21328
46755,21264
46755,20631
46761,20568
46786,20486
46826,20411
46881,20345
46947,20290
47022,20250
47022,20250
47104,20225
47104,20225
47104,20225
47189,20217
47274,20225
" /> 
<polyline style="fill-rule:evenodd;"
points="50569,20221
50581,20224
50593,20230
50603,20239
50611,20248
50617,20260
50621,20272
50622,20287
50622,21608
50621,21624
50617,21636
50611,21647
50603,21657
50593,21665
50581,21671
50569,21675
50554,21677
49823,21677
49808,21675
49796,21671
49784,21665
49775,21657
49766,21647
49760,21636
49757,21624
49755,21608
49755,20287
49757,20272
49760,20260
49766,20248
49775,20239
49784,20230
49796,20224
49808,20221
49823,20219
50554,20219
50569,20221
" /> 
<polyline style="fill-rule:evenodd;"
points="58354,20954
57645,20954
57645,20245
58354,20245
58354,20954
" /> 
<polyline style="fill-rule:evenodd;"
points="59043,20247
59069,20250
59114,20263
59136,20270
59168,20287
59198,20303
59212,20315
59252,20347
59284,20387
59296,20401
59296,20401
59329,20463
59329,20463
59349,20530
59356,20600
59349,20669
59336,20714
59329,20736
59300,20790
59296,20798
59284,20812
59252,20852
59212,20884
59198,20896
59198,20896
59136,20929
59114,20936
59069,20949
59043,20952
59017,20954
58982,20954
58956,20952
58930,20949
58885,20936
58863,20929
58801,20896
58801,20896
58787,20884
58747,20852
58715,20812
58703,20798
58699,20790
58670,20736
58663,20714
58650,20669
58643,20600
58650,20530
58670,20463
58670,20463
58703,20401
58703,20401
58715,20387
58747,20347
58787,20315
58801,20303
58831,20287
58863,20270
58885,20263
58930,20250
58956,20247
58982,20245
59017,20245
59043,20247
" /> 
<polyline style="fill-rule:evenodd;"
points="60043,20247
60069,20250
60114,20263
60136,20270
60168,20287
60198,20303
60212,20315
60252,20347
60284,20387
60296,20401
60296,20401
60329,20463
60329,20463
60349,20530
60356,20600
60349,20669
60336,20714
60329,20736
60300,20790
60296,20798
60284,20812
60252,20852
60212,20884
60198,20896
60198,20896
60136,20929
60114,20936
60069,20949
60043,20952
60017,20954
59982,20954
59956,20952
59930,20949
59885,20936
59863,20929
59801,20896
59801,20896
59787,20884
59747,20852
59715,20812
59703,20798
59699,20790
59670,20736
59663,20714
59650,20669
59643,20600
59650,20530
59670,20463
59670,20463
59703,20401
59703,20401
59715,20387
59747,20347
59787,20315
59801,20303
59831,20287
59863,20270
59885,20263
59930,20250
59956,20247
59982,20245
60017,20245
60043,20247
" /> 
<polyline style="fill-rule:evenodd;"
points="61043,20247
61069,20250
61114,20263
61136,20270
61168,20287
61198,20303
61212,20315
61252,20347
61284,20387
61296,20401
61296,20401
61329,20463
61329,20463
61349,20530
61356,20600
61349,20669
61336,20714
61329,20736
61300,20790
61296,20798
61284,20812
61252,20852
61212,20884
61198,20896
61198,20896
61136,20929
61114,20936
61069,20949
61043,20952
61017,20954
60982,20954
60956,20952
60930,20949
60885,20936
60863,20929
60801,20896
60801,20896
60787,20884
60747,20852
60715,20812
60703,20798
60699,20790
60670,20736
60663,20714
60650,20669
60643,20600
60650,20530
60670,20463
60670,20463
60703,20401
60703,20401
60715,20387
60747,20347
60787,20315
60801,20303
60831,20287
60863,20270
60885,20263
60930,20250
60956,20247
60982,20245
61017,20245
61043,20247
" /> 
<polyline style="fill-rule:evenodd;"
points="62043,20247
62069,20250
62114,20263
62136,20270
62168,20287
62198,20303
62212,20315
62252,20347
62284,20387
62296,20401
62296,20401
62329,20463
62329,20463
62349,20530
62356,20600
62349,20669
62336,20714
62329,20736
62300,20790
62296,20798
62284,20812
62252,20852
62212,20884
62198,20896
62198,20896
62136,20929
62114,20936
62069,20949
62043,20952
62017,20954
61982,20954
61956,20952
61930,20949
61885,20936
61863,20929
61801,20896
61801,20896
61787,20884
61747,20852
61715,20812
61703,20798
61699,20790
61670,20736
61663,20714
61650,20669
61643,20600
61650,20530
61670,20463
61670,20463
61703,20401
61703,20401
61715,20387
61747,20347
61787,20315
61801,20303
61831,20287
61863,20270
61885,20263
61930,20250
61956,20247
61982,20245
62017,20245
62043,20247
" /> 
<polyline style="fill-rule:evenodd;"
points="63043,20247
63069,20250
63114,20263
63136,20270
63168,20287
63198,20303
63212,20315
63252,20347
63284,20387
63296,20401
63296,20401
63329,20463
63329,20463
63349,20530
63356,20600
63349,20669
63336,20714
63329,20736
63300,20790
63296,20798
63284,20812
63252,20852
63212,20884
63198,20896
63198,20896
63136,20929
63114,20936
63069,20949
63043,20952
63017,20954
62982,20954
62956,20952
62930,20949
62885,20936
62863,20929
62801,20896
62801,20896
62787,20884
62747,20852
62715,20812
62703,20798
62699,20790
62670,20736
62663,20714
62650,20669
62643,20600
62650,20530
62670,20463
62670,20463
62703,20401
62703,20401
62715,20387
62747,20347
62787,20315
62801,20303
62831,20287
62863,20270
62885,20263
62930,20250
62956,20247
62982,20245
63017,20245
63043,20247
" /> 
<polyline style="fill-rule:evenodd;"
points="64043,20247
64069,20250
64114,20263
64136,20270
64168,20287
64198,20303
64212,20315
64252,20347
64284,20387
64296,20401
64296,20401
64329,20463
64329,20463
64349,20530
64356,20600
64349,20669
64336,20714
64329,20736
64300,20790
64296,20798
64284,20812
64252,20852
64212,20884
64198,20896
64198,20896
64136,20929
64114,20936
64069,20949
64043,20952
64017,20954
63982,20954
63956,20952
63930,20949
63885,20936
63863,20929
63801,20896
63801,20896
63787,20884
63747,20852
63715,20812
63703,20798
63699,20790
63670,20736
63663,20714
63650,20669
63643,20600
63650,20530
63670,20463
63670,20463
63703,20401
63703,20401
63715,20387
63747,20347
63787,20315
63801,20303
63831,20287
63863,20270
63885,20263
63930,20250
63956,20247
63982,20245
64017,20245
64043,20247
" /> 
<polyline style="fill-rule:evenodd;"
points="65043,20247
65069,20250
65114,20263
65136,20270
65168,20287
65198,20303
65212,20315
65252,20347
65284,20387
65296,20401
65296,20401
65329,20463
65329,20463
65349,20530
65356,20600
65349,20669
65336,20714
65329,20736
65300,20790
65296,20798
65284,20812
65252,20852
65212,20884
65198,20896
65198,20896
65136,20929
65114,20936
65069,20949
65043,20952
65017,20954
64982,20954
64956,20952
64930,20949
64885,20936
64863,20929
64801,20896
64801,20896
64787,20884
64747,20852
64715,20812
64703,20798
64699,20790
64670,20736
64663,20714
64650,20669
64643,20600
64650,20530
64670,20463
64670,20463
64703,20401
64703,20401
64715,20387
64747,20347
64787,20315
64801,20303
64831,20287
64863,20270
64885,20263
64930,20250
64956,20247
64982,20245
65017,20245
65043,20247
" /> 
</g> 
</svg>
