<?xml version="1.0" standalone="no"?>
 <!DOCTYPE svg PUBLIC "-//W3C//DTD SVG 1.1//EN" 
 "http://www.w3.org/Graphics/SVG/1.1/DTD/svg11.dtd"> 
<svg xmlns="http://www.w3.org/2000/svg" version="1.1" 
    width="29.7002cm" height="21.0007cm" viewBox="0 0 116930 82680 ">
<title>SVG Picture created as actuator-F.SilkS.svg date 2019/12/02 10:13:01 </title>
  <desc>Picture generated by PCBNEW </desc>
<g style="fill:#000000; fill-opacity:1;stroke:#000000; stroke-opacity:1;
stroke-linecap:round; stroke-linejoin:round; "
 transform="translate(0 0) scale(1 1)">
</g>
<g style="fill:#000000; fill-opacity:0.0; 
stroke:#000000; stroke-width:-0.000393701; stroke-opacity:1; 
stroke-linecap:round; stroke-linejoin:round;">
</g>
<g style="fill:#000000; fill-opacity:0.0; 
stroke:#000000; stroke-width:47.2441; stroke-opacity:1; 
stroke-linecap:round; stroke-linejoin:round;">
<path d="M52515 26510
L52328 26510
" />
<path d="M55171 29353
L55171 29166
" />
<path d="M54984 29353
L55171 29353
" />
<path d="M52328 29353
L52328 29166
" />
<path d="M52515 29353
L52328 29353
" />
<path d="M55171 26510
L55171 26697
" />
<path d="M54984 26510
L55171 26510
" />
<path d="M55949 24164
L55949 24035
" />
<path d="M56350 24164
L56350 24035
" />
<path d="M55699 29114
L55699 28985
" />
<path d="M56100 29114
L56100 28985
" />
<path d="M55675 24419
L55675 23632
" />
<path d="M55675 23632
L54159 23632
" />
<path d="M55675 24419
L54159 24419
" />
<path d="M51191 23325
L51326 23325
" />
<path d="M51191 23726
L51326 23726
" />
<path d="M52717 25149
L52582 25149
" />
<path d="M52717 25550
L52582 25550
" />
<path d="M57200 29167
L57200 29032
" />
<path d="M56799 29167
L56799 29032
" />
<path d="M57900 28817
L57900 28682
" />
<path d="M57499 28817
L57499 28682
" />
<path d="M50070 22094
L50189 21857
" />
<path d="M50189 21857
L50307 22094
" />
<path d="M50307 22094
L50070 22094
" />
<path d="M55558 26790
L55558 26662
" />
<path d="M55959 26790
L55959 26662
" />
<path d="M51208 27312
L51208 27440
" />
<path d="M51609 27312
L51609 27440
" />
<path d="M50964 26049
L50835 26049
" />
<path d="M50964 26450
L50835 26450
" />
<path d="M50108 27440
L50108 27312
" />
<path d="M50509 27440
L50509 27312
" />
<path d="M57476 20600
L57476 20076
" />
<path d="M57476 20076
L58000 20076
" />
<path d="M58500 20076
L65523 20076
" />
<path d="M65523 21123
L65523 20076
" />
<path d="M58500 21123
L65523 21123
" />
<path d="M58500 21123
L58500 20076
" />
<path d="M64476 23300
L65523 23300
" />
<path d="M64476 23300
L64476 30323
" />
<path d="M64476 30323
L65523 30323
" />
<path d="M65523 23300
L65523 30323
" />
<path d="M65523 22276
L65523 22800
" />
<path d="M65000 22276
L65523 22276
" />
<path d="M45887 23172
L45887 23482
" />
<path d="M45732 23327
L46042 23327
" />
<path d="M46137 24978
L46556 25397
" />
<path d="M46137 23131
L46556 22712
" />
<path d="M46137 23131
L46137 23637
" />
<path d="M46137 24978
L46137 24472
" />
<path d="M46556 25397
L48822 25397
" />
<path d="M46556 22712
L48822 22712
" />
<path d="M48822 22712
L48822 23637
" />
<path d="M48822 25397
L48822 24472
" />
<path d="M48817 28337
L48817 27412
" />
<path d="M48817 25652
L48817 26577
" />
<path d="M46551 25652
L48817 25652
" />
<path d="M46551 28337
L48817 28337
" />
<path d="M46132 27918
L46132 27412
" />
<path d="M46132 26071
L46132 26577
" />
<path d="M46132 26071
L46551 25652
" />
<path d="M46132 27918
L46551 28337
" />
<path d="M45727 26267
L46037 26267
" />
<path d="M45882 26112
L45882 26422
" />
<path d="M46762 32291
L47237 32291
" />
<path d="M46762 33008
L47237 33008
" />
<path d="M57287 32391
L56812 32391
" />
<path d="M57287 33108
L56812 33108
" />
<path d="M60512 32241
L60987 32241
" />
<path d="M60512 32958
L60987 32958
" />
<path d="M53708 24157
L53708 23682
" />
<path d="M52991 24157
L52991 23682
" />
<path d="M53708 21827
L53708 22302
" />
<path d="M52991 21827
L52991 22302
" />
<path d="M57042.9 21185.8 A1582.68 1582.68 0.0 0 0 54125.6 21185.8 " />
<path d="M54125.6 22414.2 A1582.68 1582.68 0.0 0 0 57042.9 22414.2 " />
<path d="M50257 33323
L48642 33323
" />
<path d="M50257 31976
L48642 31976
" />
<path d="M53442 33350
L55057 33350
" />
<path d="M53442 32003
L55057 32003
" />
<path d="M64407 33350
L62792 33350
" />
<path d="M64407 32003
L62792 32003
" />
</g>
<g style="fill:#000000; fill-opacity:0.0; 
stroke:#000000; stroke-width:59.0551; stroke-opacity:1; 
stroke-linecap:round; stroke-linejoin:round;">
<path d="M53450 25818
L53450 26137
L53468 26175
L53487 26193
L53525 26212
L53600 26212
L53637 26193
L53656 26175
L53675 26137
L53675 25818
" />
<path d="M54068 26212
L53843 26212
" />
<path d="M53956 26212
L53956 25818
L53918 25875
L53881 25912
L53843 25931
" />
<path d="M53611 37680
L53611 37961
L53592 38017
L53555 38055
L53498 38073
L53461 38073
" />
<path d="M54004 38073
L53780 38073
" />
<path d="M53892 38073
L53892 37680
L53855 37736
L53817 37773
L53780 37792
" />
<path d="M56840 24165
L56859 24184
L56878 24240
L56878 24278
L56859 24334
L56821 24371
L56784 24390
L56709 24409
L56653 24409
L56578 24390
L56540 24371
L56503 24334
L56484 24278
L56484 24240
L56503 24184
L56521 24165
" />
<path d="M56484 23809
L56484 23996
L56671 24015
L56653 23996
L56634 23959
L56634 23865
L56653 23828
L56671 23809
L56709 23790
L56803 23790
L56840 23809
L56859 23828
L56878 23865
L56878 23959
L56859 23996
L56840 24015
" />
<path d="M56040 30115
L56059 30134
L56078 30190
L56078 30228
L56059 30284
L56021 30321
L55984 30340
L55909 30359
L55853 30359
L55778 30340
L55740 30321
L55703 30284
L55684 30228
L55684 30190
L55703 30134
L55721 30115
" />
<path d="M55684 29778
L55684 29853
L55703 29890
L55721 29909
L55778 29946
L55853 29965
L56003 29965
L56040 29946
L56059 29928
L56078 29890
L56078 29815
L56059 29778
L56040 29759
L56003 29740
L55909 29740
L55871 29759
L55853 29778
L55834 29815
L55834 29890
L55853 29928
L55871 29946
L55909 29965
" />
<path d="M54568 24954
L54568 24560
L54662 24560
L54718 24579
L54756 24616
L54774 24654
L54793 24729
L54793 24785
L54774 24860
L54756 24898
L54718 24935
L54662 24954
L54568 24954
" />
<path d="M55168 24954
L54943 24954
" />
<path d="M55056 24954
L55056 24560
L55018 24616
L54981 24654
L54943 24673
" />
<path d="M50487 23591
L50299 23723
" />
<path d="M50487 23816
L50093 23816
L50093 23666
L50112 23629
L50131 23610
L50168 23591
L50224 23591
L50262 23610
L50281 23629
L50299 23666
L50299 23816
" />
<path d="M50487 23216
L50487 23441
" />
<path d="M50487 23329
L50093 23329
L50149 23366
L50187 23404
L50206 23441
" />
<path d="M52534 24978
L52403 24790
" />
<path d="M52309 24978
L52309 24584
L52459 24584
L52496 24603
L52515 24621
L52534 24659
L52534 24715
L52515 24753
L52496 24771
L52459 24790
L52309 24790
" />
<path d="M52665 24584
L52909 24584
L52778 24734
L52834 24734
L52871 24753
L52890 24771
L52909 24809
L52909 24903
L52890 24940
L52871 24959
L52834 24978
L52721 24978
L52684 24959
L52665 24940
" />
<path d="M57178 30215
L56990 30346
" />
<path d="M57178 30440
L56784 30440
L56784 30290
L56803 30253
L56821 30234
L56859 30215
L56915 30215
L56953 30234
L56971 30253
L56990 30290
L56990 30440
" />
<path d="M56915 29878
L57178 29878
" />
<path d="M56765 29971
L57046 30065
L57046 29821
" />
<path d="M57878 29865
L57690 29996
" />
<path d="M57878 30090
L57484 30090
L57484 29940
L57503 29903
L57521 29884
L57559 29865
L57615 29865
L57653 29884
L57671 29903
L57690 29940
L57690 30090
" />
<path d="M57484 29509
L57484 29696
L57671 29715
L57653 29696
L57634 29659
L57634 29565
L57653 29528
L57671 29509
L57709 29490
L57803 29490
L57840 29509
L57859 29528
L57878 29565
L57878 29659
L57859 29696
L57840 29715
" />
<path d="M48406 34214
L48425 34176
L48462 34139
L48518 34083
L48537 34045
L48537 34008
" />
<path d="M48443 34026
L48462 33989
L48500 33952
L48575 33933
L48706 33933
L48781 33952
L48818 33989
L48837 34026
L48837 34101
L48818 34139
L48781 34176
L48706 34195
L48575 34195
L48500 34176
L48462 34139
L48443 34101
L48443 34026
" />
<path d="M48443 34570
L48443 34345
" />
<path d="M48443 34458
L48837 34458
L48781 34420
L48743 34383
L48725 34345
" />
<path d="M49034 35667
L49015 35704
L48978 35742
L48922 35798
L48903 35836
L48903 35873
" />
<path d="M48997 35854
L48978 35892
L48940 35929
L48865 35948
L48734 35948
L48659 35929
L48622 35892
L48603 35854
L48603 35779
L48622 35742
L48659 35704
L48734 35686
L48865 35686
L48940 35704
L48978 35742
L48997 35779
L48997 35854
" />
<path d="M48640 35536
L48622 35517
L48603 35479
L48603 35386
L48622 35348
L48640 35329
L48678 35311
L48715 35311
L48772 35329
L48997 35554
L48997 35311
" />
<path d="M58248 34214
L58267 34176
L58305 34139
L58361 34083
L58380 34045
L58380 34008
" />
<path d="M58286 34026
L58305 33989
L58342 33952
L58417 33933
L58548 33933
L58623 33952
L58661 33989
L58680 34026
L58680 34101
L58661 34139
L58623 34176
L58548 34195
L58417 34195
L58342 34176
L58305 34139
L58286 34101
L58286 34026
" />
<path d="M58680 34326
L58680 34570
L58530 34439
L58530 34495
L58511 34533
L58492 34551
L58455 34570
L58361 34570
L58323 34551
L58305 34533
L58286 34495
L58286 34383
L58305 34345
L58323 34326
" />
<path d="M53015 35737
L52996 35774
L52959 35812
L52903 35868
L52884 35906
L52884 35943
" />
<path d="M52978 35924
L52959 35962
L52921 35999
L52846 36018
L52715 36018
L52640 35999
L52603 35962
L52584 35924
L52584 35849
L52603 35812
L52640 35774
L52715 35756
L52846 35756
L52921 35774
L52959 35812
L52978 35849
L52978 35924
" />
<path d="M52715 35418
L52978 35418
" />
<path d="M52565 35512
L52846 35606
L52846 35362
" />
<path d="M62185 34214
L62204 34176
L62242 34139
L62298 34083
L62317 34045
L62317 34008
" />
<path d="M62223 34026
L62242 33989
L62279 33952
L62354 33933
L62485 33933
L62560 33952
L62598 33989
L62617 34026
L62617 34101
L62598 34139
L62560 34176
L62485 34195
L62354 34195
L62279 34176
L62242 34139
L62223 34101
L62223 34026
" />
<path d="M62617 34551
L62617 34364
L62429 34345
L62448 34364
L62467 34401
L62467 34495
L62448 34533
L62429 34551
L62392 34570
L62298 34570
L62260 34551
L62242 34533
L62223 34495
L62223 34401
L62242 34364
L62260 34345
" />
<path d="M62814 35667
L62795 35704
L62757 35742
L62701 35798
L62682 35836
L62682 35873
" />
<path d="M62776 35854
L62757 35892
L62720 35929
L62645 35948
L62514 35948
L62439 35929
L62401 35892
L62382 35854
L62382 35779
L62401 35742
L62439 35704
L62514 35686
L62645 35686
L62720 35704
L62757 35742
L62776 35779
L62776 35854
" />
<path d="M62382 35348
L62382 35423
L62401 35461
L62420 35479
L62476 35517
L62551 35536
L62701 35536
L62739 35517
L62757 35498
L62776 35461
L62776 35386
L62757 35348
L62739 35329
L62701 35311
L62607 35311
L62570 35329
L62551 35348
L62532 35386
L62532 35461
L62551 35498
L62570 35517
L62607 35536
" />
<path d="M48557 21992
L48557 22273
L48539 22330
L48501 22367
L48445 22386
L48407 22386
" />
<path d="M48726 22030
L48745 22011
L48782 21992
L48876 21992
L48914 22011
L48932 22030
L48951 22067
L48951 22105
L48932 22161
L48707 22386
L48951 22386
" />
<path d="M54834 26016
L54815 26035
L54759 26054
L54721 26054
L54665 26035
L54628 25998
L54609 25960
L54590 25885
L54590 25829
L54609 25754
L54628 25716
L54665 25679
L54721 25660
L54759 25660
L54815 25679
L54834 25698
" />
<path d="M54909 26091
L55209 26091
" />
<path d="M55302 26054
L55302 25660
L55396 25660
L55452 25679
L55490 25716
L55509 25754
L55527 25829
L55527 25885
L55509 25960
L55490 25998
L55452 26035
L55396 26054
L55302 26054
" />
<path d="M55640 25660
L55771 26054
L55902 25660
" />
<path d="M56034 26054
L56034 25660
L56127 25660
L56184 25679
L56221 25716
L56240 25754
L56259 25829
L56259 25885
L56240 25960
L56221 25998
L56184 26035
L56127 26054
L56034 26054
" />
<path d="M56427 26054
L56427 25660
L56521 25660
L56577 25679
L56615 25716
L56634 25754
L56652 25829
L56652 25885
L56634 25960
L56615 25998
L56577 26035
L56521 26054
L56427 26054
" />
<path d="M57027 26054
L56802 26054
" />
<path d="M56915 26054
L56915 25660
L56877 25716
L56840 25754
L56802 25773
" />
<path d="M51549 29654
L51568 29672
L51587 29729
L51587 29766
L51568 29822
L51531 29860
L51493 29879
L51418 29897
L51362 29897
L51287 29879
L51249 29860
L51212 29822
L51193 29766
L51193 29729
L51212 29672
L51231 29654
" />
<path d="M51624 29579
L51624 29279
" />
<path d="M51568 29204
L51587 29148
L51587 29054
L51568 29016
L51549 28998
L51512 28979
L51474 28979
L51437 28998
L51418 29016
L51399 29054
L51381 29129
L51362 29166
L51343 29185
L51306 29204
L51268 29204
L51231 29185
L51212 29166
L51193 29129
L51193 29035
L51212 28979
" />
<path d="M51193 28848
L51587 28754
L51306 28679
L51587 28604
L51193 28510
" />
<path d="M51587 28154
L51587 28379
" />
<path d="M51587 28266
L51193 28266
L51249 28304
L51287 28341
L51306 28379
" />
<path d="M50136 25800
L50118 25819
L50061 25838
L50024 25838
L49968 25819
L49930 25781
L49912 25744
L49893 25669
L49893 25613
L49912 25538
L49930 25500
L49968 25463
L50024 25444
L50061 25444
L50118 25463
L50136 25481
" />
<path d="M50211 25875
L50511 25875
" />
<path d="M50549 25444
L50680 25838
L50811 25444
" />
<path d="M51168 25800
L51149 25819
L51093 25838
L51055 25838
L50999 25819
L50961 25781
L50943 25744
L50924 25669
L50924 25613
L50943 25538
L50961 25500
L50999 25463
L51055 25444
L51093 25444
L51149 25463
L51168 25481
" />
<path d="M51336 25838
L51336 25444
L51486 25444
L51524 25463
L51543 25481
L51561 25519
L51561 25575
L51543 25613
L51524 25631
L51486 25650
L51336 25650
" />
<path d="M51936 25838
L51711 25838
" />
<path d="M51824 25838
L51824 25444
L51786 25500
L51749 25538
L51711 25556
" />
<path d="M50168 28366
L50149 28348
L50131 28291
L50131 28254
L50149 28198
L50187 28160
L50224 28141
L50299 28123
L50356 28123
L50431 28141
L50468 28160
L50506 28198
L50524 28254
L50524 28291
L50506 28348
L50487 28366
" />
<path d="M50093 28441
L50093 28741
" />
<path d="M50524 28779
L50131 28910
L50524 29041
" />
<path d="M50131 29173
L50524 29173
L50243 29304
L50524 29435
L50131 29435
" />
<path d="M50131 29829
L50131 29604
" />
<path d="M50131 29716
L50524 29716
L50468 29679
L50431 29641
L50412 29604
" />
<path d="M58318 21434
L58318 21715
L58300 21771
L58262 21809
L58206 21828
L58168 21828
" />
<path d="M58468 21434
L58712 21434
L58581 21584
L58637 21584
L58674 21603
L58693 21621
L58712 21659
L58712 21753
L58693 21790
L58674 21809
L58637 21828
L58524 21828
L58487 21809
L58468 21790
" />
<path d="M64868 21493
L64868 21775
L64850 21831
L64812 21868
L64756 21887
L64718 21887
" />
<path d="M65224 21625
L65224 21887
" />
<path d="M65131 21475
L65037 21756
L65281 21756
" />
<path d="M47414 22483
L47395 22501
L47339 22520
L47301 22520
L47245 22501
L47208 22464
L47189 22426
L47170 22351
L47170 22295
L47189 22220
L47208 22183
L47245 22145
L47301 22126
L47339 22126
L47395 22145
L47414 22164
" />
<path d="M47601 22520
L47676 22520
L47714 22501
L47733 22483
L47770 22426
L47789 22351
L47789 22201
L47770 22164
L47751 22145
L47714 22126
L47639 22126
L47601 22145
L47583 22164
L47564 22201
L47564 22295
L47583 22333
L47601 22351
L47639 22370
L47714 22370
L47751 22351
L47770 22333
L47789 22295
" />
<path d="M46211 28990
L46193 29009
L46136 29028
L46099 29028
L46043 29009
L46005 28971
L45986 28934
L45968 28859
L45968 28803
L45986 28728
L46005 28690
L46043 28653
L46099 28634
L46136 28634
L46193 28653
L46211 28671
" />
<path d="M46586 29028
L46361 29028
" />
<path d="M46474 29028
L46474 28634
L46436 28690
L46399 28728
L46361 28746
" />
<path d="M46830 28634
L46868 28634
L46905 28653
L46924 28671
L46943 28709
L46961 28784
L46961 28878
L46943 28953
L46924 28990
L46905 29009
L46868 29028
L46830 29028
L46793 29009
L46774 28990
L46755 28953
L46736 28878
L46736 28784
L46755 28709
L46774 28671
L46793 28653
L46830 28634
" />
<path d="M46934 32074
L46915 32092
L46859 32111
L46821 32111
L46765 32092
L46728 32055
L46709 32017
L46690 31942
L46690 31886
L46709 31811
L46728 31774
L46765 31736
L46821 31717
L46859 31717
L46915 31736
L46934 31755
" />
<path d="M47309 32111
L47084 32111
" />
<path d="M47196 32111
L47196 31717
L47159 31774
L47121 31811
L47084 31830
" />
<path d="M56984 32190
L56965 32209
L56909 32228
L56871 32228
L56815 32209
L56778 32171
L56759 32134
L56740 32059
L56740 32003
L56759 31928
L56778 31890
L56815 31853
L56871 31834
L56909 31834
L56965 31853
L56984 31871
" />
<path d="M57134 31871
L57153 31853
L57190 31834
L57284 31834
L57321 31853
L57340 31871
L57359 31909
L57359 31946
L57340 32003
L57115 32228
L57359 32228
" />
<path d="M60684 32024
L60665 32042
L60609 32061
L60571 32061
L60515 32042
L60478 32005
L60459 31967
L60440 31892
L60440 31836
L60459 31761
L60478 31724
L60515 31686
L60571 31667
L60609 31667
L60665 31686
L60684 31705
" />
<path d="M60815 31667
L61059 31667
L60928 31817
L60984 31817
L61021 31836
L61040 31855
L61059 31892
L61059 31986
L61040 32024
L61021 32042
L60984 32061
L60871 32061
L60834 32042
L60815 32024
" />
<path d="M52774 23985
L52792 24004
L52811 24060
L52811 24098
L52792 24154
L52755 24191
L52717 24210
L52642 24229
L52586 24229
L52511 24210
L52474 24191
L52436 24154
L52417 24098
L52417 24060
L52436 24004
L52455 23985
" />
<path d="M52417 23854
L52417 23591
L52811 23760
" />
<path d="M52790 22365
L52809 22384
L52828 22440
L52828 22478
L52809 22534
L52771 22571
L52734 22590
L52659 22609
L52603 22609
L52528 22590
L52490 22571
L52453 22534
L52434 22478
L52434 22440
L52453 22384
L52471 22365
" />
<path d="M52603 22140
L52584 22178
L52565 22196
L52528 22215
L52509 22215
L52471 22196
L52453 22178
L52434 22140
L52434 22065
L52453 22028
L52471 22009
L52509 21990
L52528 21990
L52565 22009
L52584 22028
L52603 22065
L52603 22140
L52621 22178
L52640 22196
L52678 22215
L52753 22215
L52790 22196
L52809 22178
L52828 22140
L52828 22065
L52809 22028
L52790 22009
L52753 21990
L52678 21990
L52640 22009
L52621 22028
L52603 22065
" />
<path d="M53584 20678
L53396 20678
L53396 20284
" />
<path d="M53921 20678
L53696 20678
" />
<path d="M53809 20678
L53809 20284
L53771 20340
L53734 20378
L53696 20396
" />
<path d="M50534 24828
L50403 24640
" />
<path d="M50309 24828
L50309 24434
L50459 24434
L50496 24453
L50515 24471
L50534 24509
L50534 24565
L50515 24603
L50496 24621
L50459 24640
L50309 24640
" />
<path d="M50684 24471
L50703 24453
L50740 24434
L50834 24434
L50871 24453
L50890 24471
L50909 24509
L50909 24546
L50890 24603
L50665 24828
L50909 24828
" />
<path d="M50484 31778
L50353 31590
" />
<path d="M50259 31778
L50259 31384
L50409 31384
L50446 31403
L50465 31421
L50484 31459
L50484 31515
L50465 31553
L50446 31571
L50409 31590
L50259 31590
" />
<path d="M50821 31384
L50746 31384
L50709 31403
L50690 31421
L50653 31478
L50634 31553
L50634 31703
L50653 31740
L50671 31759
L50709 31778
L50784 31778
L50821 31759
L50840 31740
L50859 31703
L50859 31609
L50840 31571
L50821 31553
L50784 31534
L50709 31534
L50671 31553
L50653 31571
L50634 31609
" />
<path d="M53384 31878
L53253 31690
" />
<path d="M53159 31878
L53159 31484
L53309 31484
L53346 31503
L53365 31521
L53384 31559
L53384 31615
L53365 31653
L53346 31671
L53309 31690
L53159 31690
" />
<path d="M53515 31484
L53778 31484
L53609 31878
" />
<path d="M64634 31778
L64503 31590
" />
<path d="M64409 31778
L64409 31384
L64559 31384
L64596 31403
L64615 31421
L64634 31459
L64634 31515
L64615 31553
L64596 31571
L64559 31590
L64409 31590
" />
<path d="M64859 31553
L64821 31534
L64803 31515
L64784 31478
L64784 31459
L64803 31421
L64821 31403
L64859 31384
L64934 31384
L64971 31403
L64990 31421
L65009 31459
L65009 31478
L64990 31515
L64971 31534
L64934 31553
L64859 31553
L64821 31571
L64803 31590
L64784 31628
L64784 31703
L64803 31740
L64821 31759
L64859 31778
L64934 31778
L64971 31759
L64990 31740
L65009 31703
L65009 31628
L64990 31590
L64971 31571
L64934 31553
" />
</g> 
</svg>
