G04 #@! TF.GenerationSoftware,KiCad,Pcbnew,(5.0.2)-1*
G04 #@! TF.CreationDate,2020-02-27T04:06:31+08:00*
G04 #@! TF.ProjectId,jointController,6a6f696e-7443-46f6-9e74-726f6c6c6572,rev?*
G04 #@! TF.SameCoordinates,Original*
G04 #@! TF.FileFunction,Legend,Bot*
G04 #@! TF.FilePolarity,Positive*
%FSLAX46Y46*%
G04 Gerber Fmt 4.6, Leading zero omitted, Abs format (unit mm)*
G04 Created by KiCad (PCBNEW (5.0.2)-1) date 2/27/2020 4:06:31 AM*
%MOMM*%
%LPD*%
G01*
G04 APERTURE LIST*
%ADD10C,0.300000*%
%ADD11C,0.150000*%
G04 APERTURE END LIST*
D10*
X159867857Y-80069571D02*
X159867857Y-81355285D01*
X159939285Y-81498142D01*
X160082142Y-81569571D01*
X160153571Y-81569571D01*
X159867857Y-79569571D02*
X159939285Y-79641000D01*
X159867857Y-79712428D01*
X159796428Y-79641000D01*
X159867857Y-79569571D01*
X159867857Y-79712428D01*
X158939285Y-81069571D02*
X159082142Y-80998142D01*
X159153571Y-80926714D01*
X159225000Y-80783857D01*
X159225000Y-80355285D01*
X159153571Y-80212428D01*
X159082142Y-80141000D01*
X158939285Y-80069571D01*
X158725000Y-80069571D01*
X158582142Y-80141000D01*
X158510714Y-80212428D01*
X158439285Y-80355285D01*
X158439285Y-80783857D01*
X158510714Y-80926714D01*
X158582142Y-80998142D01*
X158725000Y-81069571D01*
X158939285Y-81069571D01*
X157796428Y-81069571D02*
X157796428Y-80069571D01*
X157796428Y-79569571D02*
X157867857Y-79641000D01*
X157796428Y-79712428D01*
X157725000Y-79641000D01*
X157796428Y-79569571D01*
X157796428Y-79712428D01*
X157082142Y-80069571D02*
X157082142Y-81069571D01*
X157082142Y-80212428D02*
X157010714Y-80141000D01*
X156867857Y-80069571D01*
X156653571Y-80069571D01*
X156510714Y-80141000D01*
X156439285Y-80283857D01*
X156439285Y-81069571D01*
X155939285Y-80069571D02*
X155367857Y-80069571D01*
X155725000Y-79569571D02*
X155725000Y-80855285D01*
X155653571Y-80998142D01*
X155510714Y-81069571D01*
X155367857Y-81069571D01*
X154010714Y-80926714D02*
X154082142Y-80998142D01*
X154296428Y-81069571D01*
X154439285Y-81069571D01*
X154653571Y-80998142D01*
X154796428Y-80855285D01*
X154867857Y-80712428D01*
X154939285Y-80426714D01*
X154939285Y-80212428D01*
X154867857Y-79926714D01*
X154796428Y-79783857D01*
X154653571Y-79641000D01*
X154439285Y-79569571D01*
X154296428Y-79569571D01*
X154082142Y-79641000D01*
X154010714Y-79712428D01*
X153153571Y-81069571D02*
X153296428Y-80998142D01*
X153367857Y-80926714D01*
X153439285Y-80783857D01*
X153439285Y-80355285D01*
X153367857Y-80212428D01*
X153296428Y-80141000D01*
X153153571Y-80069571D01*
X152939285Y-80069571D01*
X152796428Y-80141000D01*
X152725000Y-80212428D01*
X152653571Y-80355285D01*
X152653571Y-80783857D01*
X152725000Y-80926714D01*
X152796428Y-80998142D01*
X152939285Y-81069571D01*
X153153571Y-81069571D01*
X152010714Y-80069571D02*
X152010714Y-81069571D01*
X152010714Y-80212428D02*
X151939285Y-80141000D01*
X151796428Y-80069571D01*
X151582142Y-80069571D01*
X151439285Y-80141000D01*
X151367857Y-80283857D01*
X151367857Y-81069571D01*
X150867857Y-80069571D02*
X150296428Y-80069571D01*
X150653571Y-79569571D02*
X150653571Y-80855285D01*
X150582142Y-80998142D01*
X150439285Y-81069571D01*
X150296428Y-81069571D01*
X149796428Y-81069571D02*
X149796428Y-80069571D01*
X149796428Y-80355285D02*
X149725000Y-80212428D01*
X149653571Y-80141000D01*
X149510714Y-80069571D01*
X149367857Y-80069571D01*
X148653571Y-81069571D02*
X148796428Y-80998142D01*
X148867857Y-80926714D01*
X148939285Y-80783857D01*
X148939285Y-80355285D01*
X148867857Y-80212428D01*
X148796428Y-80141000D01*
X148653571Y-80069571D01*
X148439285Y-80069571D01*
X148296428Y-80141000D01*
X148225000Y-80212428D01*
X148153571Y-80355285D01*
X148153571Y-80783857D01*
X148225000Y-80926714D01*
X148296428Y-80998142D01*
X148439285Y-81069571D01*
X148653571Y-81069571D01*
X147296428Y-81069571D02*
X147439285Y-80998142D01*
X147510714Y-80855285D01*
X147510714Y-79569571D01*
X146510714Y-81069571D02*
X146653571Y-80998142D01*
X146725000Y-80855285D01*
X146725000Y-79569571D01*
X145367857Y-80998142D02*
X145510714Y-81069571D01*
X145796428Y-81069571D01*
X145939285Y-80998142D01*
X146010714Y-80855285D01*
X146010714Y-80283857D01*
X145939285Y-80141000D01*
X145796428Y-80069571D01*
X145510714Y-80069571D01*
X145367857Y-80141000D01*
X145296428Y-80283857D01*
X145296428Y-80426714D01*
X146010714Y-80569571D01*
X144653571Y-81069571D02*
X144653571Y-80069571D01*
X144653571Y-80355285D02*
X144582142Y-80212428D01*
X144510714Y-80141000D01*
X144367857Y-80069571D01*
X144225000Y-80069571D01*
X142725000Y-80069571D02*
X142367857Y-81069571D01*
X142010714Y-80069571D01*
X140653571Y-81069571D02*
X141510714Y-81069571D01*
X141082142Y-81069571D02*
X141082142Y-79569571D01*
X141225000Y-79783857D01*
X141367857Y-79926714D01*
X141510714Y-79998142D01*
X140010714Y-80926714D02*
X139939285Y-80998142D01*
X140010714Y-81069571D01*
X140082142Y-80998142D01*
X140010714Y-80926714D01*
X140010714Y-81069571D01*
X139010714Y-79569571D02*
X138867857Y-79569571D01*
X138725000Y-79641000D01*
X138653571Y-79712428D01*
X138582142Y-79855285D01*
X138510714Y-80141000D01*
X138510714Y-80498142D01*
X138582142Y-80783857D01*
X138653571Y-80926714D01*
X138725000Y-80998142D01*
X138867857Y-81069571D01*
X139010714Y-81069571D01*
X139153571Y-80998142D01*
X139225000Y-80926714D01*
X139296428Y-80783857D01*
X139367857Y-80498142D01*
X139367857Y-80141000D01*
X139296428Y-79855285D01*
X139225000Y-79712428D01*
X139153571Y-79641000D01*
X139010714Y-79569571D01*
D11*
G04 #@! TO.C,U5*
X150273893Y-98900054D02*
X149773893Y-98900054D01*
X150273893Y-95650054D02*
X149773893Y-95650054D01*
X147023893Y-95650054D02*
X147523893Y-95650054D01*
X147023893Y-98900054D02*
X147523893Y-98900054D01*
X150273893Y-95650054D02*
X150273893Y-96150054D01*
X147023893Y-95650054D02*
X147023893Y-96150054D01*
X150273893Y-98900054D02*
X150273893Y-98400054D01*
X149410797Y-99577434D02*
X149410797Y-100386958D01*
X149363178Y-100482196D01*
X149315559Y-100529815D01*
X149220321Y-100577434D01*
X149029845Y-100577434D01*
X148934607Y-100529815D01*
X148886988Y-100482196D01*
X148839369Y-100386958D01*
X148839369Y-99577434D01*
X147886988Y-99577434D02*
X148363178Y-99577434D01*
X148410797Y-100053625D01*
X148363178Y-100006006D01*
X148267940Y-99958387D01*
X148029845Y-99958387D01*
X147934607Y-100006006D01*
X147886988Y-100053625D01*
X147839369Y-100148863D01*
X147839369Y-100386958D01*
X147886988Y-100482196D01*
X147934607Y-100529815D01*
X148029845Y-100577434D01*
X148267940Y-100577434D01*
X148363178Y-100529815D01*
X148410797Y-100482196D01*
G04 #@! TD*
M02*
