G04 #@! TF.GenerationSoftware,KiCad,Pcbnew,(5.0.2)-1*
G04 #@! TF.CreationDate,2020-02-27T04:06:31+08:00*
G04 #@! TF.ProjectId,jointController,6a6f696e-7443-46f6-9e74-726f6c6c6572,rev?*
G04 #@! TF.SameCoordinates,Original*
G04 #@! TF.FileFunction,Soldermask,Top*
G04 #@! TF.FilePolarity,Negative*
%FSLAX46Y46*%
G04 Gerber Fmt 4.6, Leading zero omitted, Abs format (unit mm)*
G04 Created by KiCad (PCBNEW (5.0.2)-1) date 2/27/2020 4:06:31 AM*
%MOMM*%
%LPD*%
G01*
G04 APERTURE LIST*
%ADD10C,0.100000*%
G04 APERTURE END LIST*
D10*
G36*
X161747220Y-116722942D02*
X162120523Y-116877569D01*
X162456492Y-117102056D01*
X162742201Y-117387765D01*
X162966688Y-117723734D01*
X163121315Y-118097037D01*
X163200143Y-118493332D01*
X163200143Y-118897396D01*
X163121315Y-119293691D01*
X162966688Y-119666994D01*
X162742201Y-120002963D01*
X162456492Y-120288672D01*
X162120523Y-120513159D01*
X161747220Y-120667786D01*
X161350925Y-120746614D01*
X160946861Y-120746614D01*
X160550566Y-120667786D01*
X160177263Y-120513159D01*
X159841294Y-120288672D01*
X159555585Y-120002963D01*
X159331098Y-119666994D01*
X159176471Y-119293691D01*
X159097643Y-118897396D01*
X159097643Y-118493332D01*
X159176471Y-118097037D01*
X159331098Y-117723734D01*
X159555585Y-117387765D01*
X159841294Y-117102056D01*
X160177263Y-116877569D01*
X160550566Y-116722942D01*
X160946861Y-116644114D01*
X161350925Y-116644114D01*
X161747220Y-116722942D01*
X161747220Y-116722942D01*
G37*
G36*
X149247220Y-116722942D02*
X149620523Y-116877569D01*
X149956492Y-117102056D01*
X150242201Y-117387765D01*
X150466688Y-117723734D01*
X150621315Y-118097037D01*
X150700143Y-118493332D01*
X150700143Y-118897396D01*
X150621315Y-119293691D01*
X150466688Y-119666994D01*
X150242201Y-120002963D01*
X149956492Y-120288672D01*
X149620523Y-120513159D01*
X149247220Y-120667786D01*
X148850925Y-120746614D01*
X148446861Y-120746614D01*
X148050566Y-120667786D01*
X147677263Y-120513159D01*
X147341294Y-120288672D01*
X147055585Y-120002963D01*
X146831098Y-119666994D01*
X146676471Y-119293691D01*
X146597643Y-118897396D01*
X146597643Y-118493332D01*
X146676471Y-118097037D01*
X146831098Y-117723734D01*
X147055585Y-117387765D01*
X147341294Y-117102056D01*
X147677263Y-116877569D01*
X148050566Y-116722942D01*
X148446861Y-116644114D01*
X148850925Y-116644114D01*
X149247220Y-116722942D01*
X149247220Y-116722942D01*
G37*
G36*
X136747220Y-116722942D02*
X137120523Y-116877569D01*
X137456492Y-117102056D01*
X137742201Y-117387765D01*
X137966688Y-117723734D01*
X138121315Y-118097037D01*
X138200143Y-118493332D01*
X138200143Y-118897396D01*
X138121315Y-119293691D01*
X137966688Y-119666994D01*
X137742201Y-120002963D01*
X137456492Y-120288672D01*
X137120523Y-120513159D01*
X136747220Y-120667786D01*
X136350925Y-120746614D01*
X135946861Y-120746614D01*
X135550566Y-120667786D01*
X135177263Y-120513159D01*
X134841294Y-120288672D01*
X134555585Y-120002963D01*
X134331098Y-119666994D01*
X134176471Y-119293691D01*
X134097643Y-118897396D01*
X134097643Y-118493332D01*
X134176471Y-118097037D01*
X134331098Y-117723734D01*
X134555585Y-117387765D01*
X134841294Y-117102056D01*
X135177263Y-116877569D01*
X135550566Y-116722942D01*
X135946861Y-116644114D01*
X136350925Y-116644114D01*
X136747220Y-116722942D01*
X136747220Y-116722942D01*
G37*
G36*
X147438892Y-109617601D02*
X147448504Y-109620517D01*
X147457362Y-109625252D01*
X147465130Y-109631627D01*
X147471505Y-109639395D01*
X147476240Y-109648253D01*
X147479156Y-109657865D01*
X147480745Y-109674004D01*
X147480745Y-109916012D01*
X147483147Y-109940398D01*
X147490260Y-109963847D01*
X147501811Y-109985458D01*
X147517357Y-110004400D01*
X147536299Y-110019946D01*
X147557910Y-110031497D01*
X147581359Y-110038610D01*
X147605745Y-110041012D01*
X147917753Y-110041012D01*
X147933892Y-110042601D01*
X147943504Y-110045517D01*
X147952362Y-110050252D01*
X147960130Y-110056627D01*
X147966505Y-110064395D01*
X147971240Y-110073253D01*
X147974156Y-110082865D01*
X147975745Y-110099004D01*
X147975745Y-110991724D01*
X147974156Y-111007863D01*
X147971240Y-111017475D01*
X147966505Y-111026333D01*
X147960130Y-111034101D01*
X147952362Y-111040476D01*
X147943504Y-111045211D01*
X147933892Y-111048127D01*
X147917753Y-111049716D01*
X147605745Y-111049716D01*
X147581359Y-111052118D01*
X147557910Y-111059231D01*
X147536299Y-111070782D01*
X147517357Y-111086328D01*
X147501811Y-111105270D01*
X147490260Y-111126881D01*
X147483147Y-111150330D01*
X147480745Y-111174716D01*
X147480745Y-114191724D01*
X147479156Y-114207863D01*
X147476240Y-114217475D01*
X147471505Y-114226333D01*
X147465130Y-114234101D01*
X147457362Y-114240476D01*
X147448504Y-114245211D01*
X147438892Y-114248127D01*
X147422753Y-114249716D01*
X146685033Y-114249716D01*
X146668894Y-114248127D01*
X146659282Y-114245211D01*
X146650424Y-114240476D01*
X146642656Y-114234101D01*
X146636281Y-114226333D01*
X146631546Y-114217475D01*
X146628630Y-114207863D01*
X146627041Y-114191724D01*
X146627041Y-113899716D01*
X146624639Y-113875330D01*
X146617526Y-113851881D01*
X146605975Y-113830270D01*
X146590429Y-113811328D01*
X146571487Y-113795782D01*
X146549876Y-113784231D01*
X146526427Y-113777118D01*
X146502041Y-113774716D01*
X143795745Y-113774716D01*
X143771359Y-113777118D01*
X143747910Y-113784231D01*
X143726299Y-113795782D01*
X143707357Y-113811328D01*
X143691811Y-113830270D01*
X143680260Y-113851881D01*
X143673147Y-113875330D01*
X143670745Y-113899716D01*
X143670745Y-114191724D01*
X143669156Y-114207863D01*
X143666240Y-114217475D01*
X143661505Y-114226333D01*
X143655130Y-114234101D01*
X143647362Y-114240476D01*
X143638504Y-114245211D01*
X143628892Y-114248127D01*
X143612753Y-114249716D01*
X142875033Y-114249716D01*
X142858894Y-114248127D01*
X142849282Y-114245211D01*
X142840424Y-114240476D01*
X142832656Y-114234101D01*
X142826281Y-114226333D01*
X142821546Y-114217475D01*
X142818630Y-114207863D01*
X142817041Y-114191724D01*
X142817041Y-111174716D01*
X142814639Y-111150330D01*
X142807526Y-111126881D01*
X142795975Y-111105270D01*
X142780429Y-111086328D01*
X142761487Y-111070782D01*
X142739876Y-111059231D01*
X142716427Y-111052118D01*
X142692041Y-111049716D01*
X142380033Y-111049716D01*
X142363894Y-111048127D01*
X142354282Y-111045211D01*
X142345424Y-111040476D01*
X142337656Y-111034101D01*
X142331281Y-111026333D01*
X142326546Y-111017475D01*
X142323630Y-111007863D01*
X142322041Y-110991724D01*
X142322041Y-110099004D01*
X142323630Y-110082865D01*
X142326546Y-110073253D01*
X142331281Y-110064395D01*
X142337656Y-110056627D01*
X142345424Y-110050252D01*
X142354282Y-110045517D01*
X142363894Y-110042601D01*
X142380033Y-110041012D01*
X142692041Y-110041012D01*
X142716427Y-110038610D01*
X142739876Y-110031497D01*
X142761487Y-110019946D01*
X142780429Y-110004400D01*
X142795975Y-109985458D01*
X142807526Y-109963847D01*
X142814639Y-109940398D01*
X142817041Y-109916012D01*
X142817041Y-109674004D01*
X142818630Y-109657865D01*
X142821546Y-109648253D01*
X142826281Y-109639395D01*
X142832656Y-109631627D01*
X142840424Y-109625252D01*
X142849282Y-109620517D01*
X142858894Y-109617601D01*
X142875033Y-109616012D01*
X147422753Y-109616012D01*
X147438892Y-109617601D01*
X147438892Y-109617601D01*
G37*
G36*
X139438892Y-109617601D02*
X139448504Y-109620517D01*
X139457362Y-109625252D01*
X139465130Y-109631627D01*
X139471505Y-109639395D01*
X139476240Y-109648253D01*
X139479156Y-109657865D01*
X139480745Y-109674004D01*
X139480745Y-109916012D01*
X139483147Y-109940398D01*
X139490260Y-109963847D01*
X139501811Y-109985458D01*
X139517357Y-110004400D01*
X139536299Y-110019946D01*
X139557910Y-110031497D01*
X139581359Y-110038610D01*
X139605745Y-110041012D01*
X139917753Y-110041012D01*
X139933892Y-110042601D01*
X139943504Y-110045517D01*
X139952362Y-110050252D01*
X139960130Y-110056627D01*
X139966505Y-110064395D01*
X139971240Y-110073253D01*
X139974156Y-110082865D01*
X139975745Y-110099004D01*
X139975745Y-110991724D01*
X139974156Y-111007863D01*
X139971240Y-111017475D01*
X139966505Y-111026333D01*
X139960130Y-111034101D01*
X139952362Y-111040476D01*
X139943504Y-111045211D01*
X139933892Y-111048127D01*
X139917753Y-111049716D01*
X139605745Y-111049716D01*
X139581359Y-111052118D01*
X139557910Y-111059231D01*
X139536299Y-111070782D01*
X139517357Y-111086328D01*
X139501811Y-111105270D01*
X139490260Y-111126881D01*
X139483147Y-111150330D01*
X139480745Y-111174716D01*
X139480745Y-114191724D01*
X139479156Y-114207863D01*
X139476240Y-114217475D01*
X139471505Y-114226333D01*
X139465130Y-114234101D01*
X139457362Y-114240476D01*
X139448504Y-114245211D01*
X139438892Y-114248127D01*
X139422753Y-114249716D01*
X138685033Y-114249716D01*
X138668894Y-114248127D01*
X138659282Y-114245211D01*
X138650424Y-114240476D01*
X138642656Y-114234101D01*
X138636281Y-114226333D01*
X138631546Y-114217475D01*
X138628630Y-114207863D01*
X138627041Y-114191724D01*
X138627041Y-113899716D01*
X138624639Y-113875330D01*
X138617526Y-113851881D01*
X138605975Y-113830270D01*
X138590429Y-113811328D01*
X138571487Y-113795782D01*
X138549876Y-113784231D01*
X138526427Y-113777118D01*
X138502041Y-113774716D01*
X135795745Y-113774716D01*
X135771359Y-113777118D01*
X135747910Y-113784231D01*
X135726299Y-113795782D01*
X135707357Y-113811328D01*
X135691811Y-113830270D01*
X135680260Y-113851881D01*
X135673147Y-113875330D01*
X135670745Y-113899716D01*
X135670745Y-114191724D01*
X135669156Y-114207863D01*
X135666240Y-114217475D01*
X135661505Y-114226333D01*
X135655130Y-114234101D01*
X135647362Y-114240476D01*
X135638504Y-114245211D01*
X135628892Y-114248127D01*
X135612753Y-114249716D01*
X134875033Y-114249716D01*
X134858894Y-114248127D01*
X134849282Y-114245211D01*
X134840424Y-114240476D01*
X134832656Y-114234101D01*
X134826281Y-114226333D01*
X134821546Y-114217475D01*
X134818630Y-114207863D01*
X134817041Y-114191724D01*
X134817041Y-111174716D01*
X134814639Y-111150330D01*
X134807526Y-111126881D01*
X134795975Y-111105270D01*
X134780429Y-111086328D01*
X134761487Y-111070782D01*
X134739876Y-111059231D01*
X134716427Y-111052118D01*
X134692041Y-111049716D01*
X134380033Y-111049716D01*
X134363894Y-111048127D01*
X134354282Y-111045211D01*
X134345424Y-111040476D01*
X134337656Y-111034101D01*
X134331281Y-111026333D01*
X134326546Y-111017475D01*
X134323630Y-111007863D01*
X134322041Y-110991724D01*
X134322041Y-110099004D01*
X134323630Y-110082865D01*
X134326546Y-110073253D01*
X134331281Y-110064395D01*
X134337656Y-110056627D01*
X134345424Y-110050252D01*
X134354282Y-110045517D01*
X134363894Y-110042601D01*
X134380033Y-110041012D01*
X134692041Y-110041012D01*
X134716427Y-110038610D01*
X134739876Y-110031497D01*
X134761487Y-110019946D01*
X134780429Y-110004400D01*
X134795975Y-109985458D01*
X134807526Y-109963847D01*
X134814639Y-109940398D01*
X134817041Y-109916012D01*
X134817041Y-109674004D01*
X134818630Y-109657865D01*
X134821546Y-109648253D01*
X134826281Y-109639395D01*
X134832656Y-109631627D01*
X134840424Y-109625252D01*
X134849282Y-109620517D01*
X134858894Y-109617601D01*
X134875033Y-109616012D01*
X139422753Y-109616012D01*
X139438892Y-109617601D01*
X139438892Y-109617601D01*
G37*
G36*
X169438892Y-109617601D02*
X169448504Y-109620517D01*
X169457362Y-109625252D01*
X169465130Y-109631627D01*
X169471505Y-109639395D01*
X169476240Y-109648253D01*
X169479156Y-109657865D01*
X169480745Y-109674004D01*
X169480745Y-109916012D01*
X169483147Y-109940398D01*
X169490260Y-109963847D01*
X169501811Y-109985458D01*
X169517357Y-110004400D01*
X169536299Y-110019946D01*
X169557910Y-110031497D01*
X169581359Y-110038610D01*
X169605745Y-110041012D01*
X169917753Y-110041012D01*
X169933892Y-110042601D01*
X169943504Y-110045517D01*
X169952362Y-110050252D01*
X169960130Y-110056627D01*
X169966505Y-110064395D01*
X169971240Y-110073253D01*
X169974156Y-110082865D01*
X169975745Y-110099004D01*
X169975745Y-110991724D01*
X169974156Y-111007863D01*
X169971240Y-111017475D01*
X169966505Y-111026333D01*
X169960130Y-111034101D01*
X169952362Y-111040476D01*
X169943504Y-111045211D01*
X169933892Y-111048127D01*
X169917753Y-111049716D01*
X169605745Y-111049716D01*
X169581359Y-111052118D01*
X169557910Y-111059231D01*
X169536299Y-111070782D01*
X169517357Y-111086328D01*
X169501811Y-111105270D01*
X169490260Y-111126881D01*
X169483147Y-111150330D01*
X169480745Y-111174716D01*
X169480745Y-114191724D01*
X169479156Y-114207863D01*
X169476240Y-114217475D01*
X169471505Y-114226333D01*
X169465130Y-114234101D01*
X169457362Y-114240476D01*
X169448504Y-114245211D01*
X169438892Y-114248127D01*
X169422753Y-114249716D01*
X168685033Y-114249716D01*
X168668894Y-114248127D01*
X168659282Y-114245211D01*
X168650424Y-114240476D01*
X168642656Y-114234101D01*
X168636281Y-114226333D01*
X168631546Y-114217475D01*
X168628630Y-114207863D01*
X168627041Y-114191724D01*
X168627041Y-113899716D01*
X168624639Y-113875330D01*
X168617526Y-113851881D01*
X168605975Y-113830270D01*
X168590429Y-113811328D01*
X168571487Y-113795782D01*
X168549876Y-113784231D01*
X168526427Y-113777118D01*
X168502041Y-113774716D01*
X165795745Y-113774716D01*
X165771359Y-113777118D01*
X165747910Y-113784231D01*
X165726299Y-113795782D01*
X165707357Y-113811328D01*
X165691811Y-113830270D01*
X165680260Y-113851881D01*
X165673147Y-113875330D01*
X165670745Y-113899716D01*
X165670745Y-114191724D01*
X165669156Y-114207863D01*
X165666240Y-114217475D01*
X165661505Y-114226333D01*
X165655130Y-114234101D01*
X165647362Y-114240476D01*
X165638504Y-114245211D01*
X165628892Y-114248127D01*
X165612753Y-114249716D01*
X164875033Y-114249716D01*
X164858894Y-114248127D01*
X164849282Y-114245211D01*
X164840424Y-114240476D01*
X164832656Y-114234101D01*
X164826281Y-114226333D01*
X164821546Y-114217475D01*
X164818630Y-114207863D01*
X164817041Y-114191724D01*
X164817041Y-111174716D01*
X164814639Y-111150330D01*
X164807526Y-111126881D01*
X164795975Y-111105270D01*
X164780429Y-111086328D01*
X164761487Y-111070782D01*
X164739876Y-111059231D01*
X164716427Y-111052118D01*
X164692041Y-111049716D01*
X164380033Y-111049716D01*
X164363894Y-111048127D01*
X164354282Y-111045211D01*
X164345424Y-111040476D01*
X164337656Y-111034101D01*
X164331281Y-111026333D01*
X164326546Y-111017475D01*
X164323630Y-111007863D01*
X164322041Y-110991724D01*
X164322041Y-110099004D01*
X164323630Y-110082865D01*
X164326546Y-110073253D01*
X164331281Y-110064395D01*
X164337656Y-110056627D01*
X164345424Y-110050252D01*
X164354282Y-110045517D01*
X164363894Y-110042601D01*
X164380033Y-110041012D01*
X164692041Y-110041012D01*
X164716427Y-110038610D01*
X164739876Y-110031497D01*
X164761487Y-110019946D01*
X164780429Y-110004400D01*
X164795975Y-109985458D01*
X164807526Y-109963847D01*
X164814639Y-109940398D01*
X164817041Y-109916012D01*
X164817041Y-109674004D01*
X164818630Y-109657865D01*
X164821546Y-109648253D01*
X164826281Y-109639395D01*
X164832656Y-109631627D01*
X164840424Y-109625252D01*
X164849282Y-109620517D01*
X164858894Y-109617601D01*
X164875033Y-109616012D01*
X169422753Y-109616012D01*
X169438892Y-109617601D01*
X169438892Y-109617601D01*
G37*
G36*
X154479893Y-113738864D02*
X153627893Y-113738864D01*
X153627893Y-112636864D01*
X154479893Y-112636864D01*
X154479893Y-113738864D01*
X154479893Y-113738864D01*
G37*
G36*
X131209893Y-113738864D02*
X130357893Y-113738864D01*
X130357893Y-112636864D01*
X131209893Y-112636864D01*
X131209893Y-113738864D01*
X131209893Y-113738864D01*
G37*
G36*
X132479893Y-113738864D02*
X131627893Y-113738864D01*
X131627893Y-112636864D01*
X132479893Y-112636864D01*
X132479893Y-113738864D01*
X132479893Y-113738864D01*
G37*
G36*
X150669893Y-113738864D02*
X149817893Y-113738864D01*
X149817893Y-112636864D01*
X150669893Y-112636864D01*
X150669893Y-113738864D01*
X150669893Y-113738864D01*
G37*
G36*
X162479893Y-113738864D02*
X161627893Y-113738864D01*
X161627893Y-112636864D01*
X162479893Y-112636864D01*
X162479893Y-113738864D01*
X162479893Y-113738864D01*
G37*
G36*
X151939893Y-113738864D02*
X151087893Y-113738864D01*
X151087893Y-112636864D01*
X151939893Y-112636864D01*
X151939893Y-113738864D01*
X151939893Y-113738864D01*
G37*
G36*
X153209893Y-113738864D02*
X152357893Y-113738864D01*
X152357893Y-112636864D01*
X153209893Y-112636864D01*
X153209893Y-113738864D01*
X153209893Y-113738864D01*
G37*
G36*
X161209893Y-113738864D02*
X160357893Y-113738864D01*
X160357893Y-112636864D01*
X161209893Y-112636864D01*
X161209893Y-113738864D01*
X161209893Y-113738864D01*
G37*
G36*
X159939893Y-113738864D02*
X159087893Y-113738864D01*
X159087893Y-112636864D01*
X159939893Y-112636864D01*
X159939893Y-113738864D01*
X159939893Y-113738864D01*
G37*
G36*
X158669893Y-113738864D02*
X157817893Y-113738864D01*
X157817893Y-112636864D01*
X158669893Y-112636864D01*
X158669893Y-113738864D01*
X158669893Y-113738864D01*
G37*
G36*
X129939893Y-113738864D02*
X129087893Y-113738864D01*
X129087893Y-112636864D01*
X129939893Y-112636864D01*
X129939893Y-113738864D01*
X129939893Y-113738864D01*
G37*
G36*
X128669893Y-113738864D02*
X127817893Y-113738864D01*
X127817893Y-112636864D01*
X128669893Y-112636864D01*
X128669893Y-113738864D01*
X128669893Y-113738864D01*
G37*
G36*
X128628892Y-107142601D02*
X128638504Y-107145517D01*
X128647362Y-107150252D01*
X128655130Y-107156627D01*
X128661505Y-107164395D01*
X128666240Y-107173253D01*
X128669156Y-107182865D01*
X128670745Y-107199004D01*
X128670745Y-107491012D01*
X128673147Y-107515398D01*
X128680260Y-107538847D01*
X128691811Y-107560458D01*
X128707357Y-107579400D01*
X128726299Y-107594946D01*
X128747910Y-107606497D01*
X128771359Y-107613610D01*
X128795745Y-107616012D01*
X131502041Y-107616012D01*
X131526427Y-107613610D01*
X131549876Y-107606497D01*
X131571487Y-107594946D01*
X131590429Y-107579400D01*
X131605975Y-107560458D01*
X131617526Y-107538847D01*
X131624639Y-107515398D01*
X131627041Y-107491012D01*
X131627041Y-107199004D01*
X131628630Y-107182865D01*
X131631546Y-107173253D01*
X131636281Y-107164395D01*
X131642656Y-107156627D01*
X131650424Y-107150252D01*
X131659282Y-107145517D01*
X131668894Y-107142601D01*
X131685033Y-107141012D01*
X132422753Y-107141012D01*
X132438892Y-107142601D01*
X132448504Y-107145517D01*
X132457362Y-107150252D01*
X132465130Y-107156627D01*
X132471505Y-107164395D01*
X132476240Y-107173253D01*
X132479156Y-107182865D01*
X132480745Y-107199004D01*
X132480745Y-110216012D01*
X132483147Y-110240398D01*
X132490260Y-110263847D01*
X132501811Y-110285458D01*
X132517357Y-110304400D01*
X132536299Y-110319946D01*
X132557910Y-110331497D01*
X132581359Y-110338610D01*
X132605745Y-110341012D01*
X132917753Y-110341012D01*
X132933892Y-110342601D01*
X132943504Y-110345517D01*
X132952362Y-110350252D01*
X132960130Y-110356627D01*
X132966505Y-110364395D01*
X132971240Y-110373253D01*
X132974156Y-110382865D01*
X132975745Y-110399004D01*
X132975745Y-111291724D01*
X132974156Y-111307863D01*
X132971240Y-111317475D01*
X132966505Y-111326333D01*
X132960130Y-111334101D01*
X132952362Y-111340476D01*
X132943504Y-111345211D01*
X132933892Y-111348127D01*
X132917753Y-111349716D01*
X132605745Y-111349716D01*
X132581359Y-111352118D01*
X132557910Y-111359231D01*
X132536299Y-111370782D01*
X132517357Y-111386328D01*
X132501811Y-111405270D01*
X132490260Y-111426881D01*
X132483147Y-111450330D01*
X132480745Y-111474716D01*
X132480745Y-111716724D01*
X132479156Y-111732863D01*
X132476240Y-111742475D01*
X132471505Y-111751333D01*
X132465130Y-111759101D01*
X132457362Y-111765476D01*
X132448504Y-111770211D01*
X132438892Y-111773127D01*
X132422753Y-111774716D01*
X127875033Y-111774716D01*
X127858894Y-111773127D01*
X127849282Y-111770211D01*
X127840424Y-111765476D01*
X127832656Y-111759101D01*
X127826281Y-111751333D01*
X127821546Y-111742475D01*
X127818630Y-111732863D01*
X127817041Y-111716724D01*
X127817041Y-111474716D01*
X127814639Y-111450330D01*
X127807526Y-111426881D01*
X127795975Y-111405270D01*
X127780429Y-111386328D01*
X127761487Y-111370782D01*
X127739876Y-111359231D01*
X127716427Y-111352118D01*
X127692041Y-111349716D01*
X127380033Y-111349716D01*
X127363894Y-111348127D01*
X127354282Y-111345211D01*
X127345424Y-111340476D01*
X127337656Y-111334101D01*
X127331281Y-111326333D01*
X127326546Y-111317475D01*
X127323630Y-111307863D01*
X127322041Y-111291724D01*
X127322041Y-110399004D01*
X127323630Y-110382865D01*
X127326546Y-110373253D01*
X127331281Y-110364395D01*
X127337656Y-110356627D01*
X127345424Y-110350252D01*
X127354282Y-110345517D01*
X127363894Y-110342601D01*
X127380033Y-110341012D01*
X127692041Y-110341012D01*
X127716427Y-110338610D01*
X127739876Y-110331497D01*
X127761487Y-110319946D01*
X127780429Y-110304400D01*
X127795975Y-110285458D01*
X127807526Y-110263847D01*
X127814639Y-110240398D01*
X127817041Y-110216012D01*
X127817041Y-107199004D01*
X127818630Y-107182865D01*
X127821546Y-107173253D01*
X127826281Y-107164395D01*
X127832656Y-107156627D01*
X127840424Y-107150252D01*
X127849282Y-107145517D01*
X127858894Y-107142601D01*
X127875033Y-107141012D01*
X128612753Y-107141012D01*
X128628892Y-107142601D01*
X128628892Y-107142601D01*
G37*
G36*
X158628892Y-107142601D02*
X158638504Y-107145517D01*
X158647362Y-107150252D01*
X158655130Y-107156627D01*
X158661505Y-107164395D01*
X158666240Y-107173253D01*
X158669156Y-107182865D01*
X158670745Y-107199004D01*
X158670745Y-107491012D01*
X158673147Y-107515398D01*
X158680260Y-107538847D01*
X158691811Y-107560458D01*
X158707357Y-107579400D01*
X158726299Y-107594946D01*
X158747910Y-107606497D01*
X158771359Y-107613610D01*
X158795745Y-107616012D01*
X161502041Y-107616012D01*
X161526427Y-107613610D01*
X161549876Y-107606497D01*
X161571487Y-107594946D01*
X161590429Y-107579400D01*
X161605975Y-107560458D01*
X161617526Y-107538847D01*
X161624639Y-107515398D01*
X161627041Y-107491012D01*
X161627041Y-107199004D01*
X161628630Y-107182865D01*
X161631546Y-107173253D01*
X161636281Y-107164395D01*
X161642656Y-107156627D01*
X161650424Y-107150252D01*
X161659282Y-107145517D01*
X161668894Y-107142601D01*
X161685033Y-107141012D01*
X162422753Y-107141012D01*
X162438892Y-107142601D01*
X162448504Y-107145517D01*
X162457362Y-107150252D01*
X162465130Y-107156627D01*
X162471505Y-107164395D01*
X162476240Y-107173253D01*
X162479156Y-107182865D01*
X162480745Y-107199004D01*
X162480745Y-110216012D01*
X162483147Y-110240398D01*
X162490260Y-110263847D01*
X162501811Y-110285458D01*
X162517357Y-110304400D01*
X162536299Y-110319946D01*
X162557910Y-110331497D01*
X162581359Y-110338610D01*
X162605745Y-110341012D01*
X162917753Y-110341012D01*
X162933892Y-110342601D01*
X162943504Y-110345517D01*
X162952362Y-110350252D01*
X162960130Y-110356627D01*
X162966505Y-110364395D01*
X162971240Y-110373253D01*
X162974156Y-110382865D01*
X162975745Y-110399004D01*
X162975745Y-111291724D01*
X162974156Y-111307863D01*
X162971240Y-111317475D01*
X162966505Y-111326333D01*
X162960130Y-111334101D01*
X162952362Y-111340476D01*
X162943504Y-111345211D01*
X162933892Y-111348127D01*
X162917753Y-111349716D01*
X162605745Y-111349716D01*
X162581359Y-111352118D01*
X162557910Y-111359231D01*
X162536299Y-111370782D01*
X162517357Y-111386328D01*
X162501811Y-111405270D01*
X162490260Y-111426881D01*
X162483147Y-111450330D01*
X162480745Y-111474716D01*
X162480745Y-111716724D01*
X162479156Y-111732863D01*
X162476240Y-111742475D01*
X162471505Y-111751333D01*
X162465130Y-111759101D01*
X162457362Y-111765476D01*
X162448504Y-111770211D01*
X162438892Y-111773127D01*
X162422753Y-111774716D01*
X157875033Y-111774716D01*
X157858894Y-111773127D01*
X157849282Y-111770211D01*
X157840424Y-111765476D01*
X157832656Y-111759101D01*
X157826281Y-111751333D01*
X157821546Y-111742475D01*
X157818630Y-111732863D01*
X157817041Y-111716724D01*
X157817041Y-111474716D01*
X157814639Y-111450330D01*
X157807526Y-111426881D01*
X157795975Y-111405270D01*
X157780429Y-111386328D01*
X157761487Y-111370782D01*
X157739876Y-111359231D01*
X157716427Y-111352118D01*
X157692041Y-111349716D01*
X157380033Y-111349716D01*
X157363894Y-111348127D01*
X157354282Y-111345211D01*
X157345424Y-111340476D01*
X157337656Y-111334101D01*
X157331281Y-111326333D01*
X157326546Y-111317475D01*
X157323630Y-111307863D01*
X157322041Y-111291724D01*
X157322041Y-110399004D01*
X157323630Y-110382865D01*
X157326546Y-110373253D01*
X157331281Y-110364395D01*
X157337656Y-110356627D01*
X157345424Y-110350252D01*
X157354282Y-110345517D01*
X157363894Y-110342601D01*
X157380033Y-110341012D01*
X157692041Y-110341012D01*
X157716427Y-110338610D01*
X157739876Y-110331497D01*
X157761487Y-110319946D01*
X157780429Y-110304400D01*
X157795975Y-110285458D01*
X157807526Y-110263847D01*
X157814639Y-110240398D01*
X157817041Y-110216012D01*
X157817041Y-107199004D01*
X157818630Y-107182865D01*
X157821546Y-107173253D01*
X157826281Y-107164395D01*
X157832656Y-107156627D01*
X157840424Y-107150252D01*
X157849282Y-107145517D01*
X157858894Y-107142601D01*
X157875033Y-107141012D01*
X158612753Y-107141012D01*
X158628892Y-107142601D01*
X158628892Y-107142601D01*
G37*
G36*
X150628892Y-107142601D02*
X150638504Y-107145517D01*
X150647362Y-107150252D01*
X150655130Y-107156627D01*
X150661505Y-107164395D01*
X150666240Y-107173253D01*
X150669156Y-107182865D01*
X150670745Y-107199004D01*
X150670745Y-107491012D01*
X150673147Y-107515398D01*
X150680260Y-107538847D01*
X150691811Y-107560458D01*
X150707357Y-107579400D01*
X150726299Y-107594946D01*
X150747910Y-107606497D01*
X150771359Y-107613610D01*
X150795745Y-107616012D01*
X153502041Y-107616012D01*
X153526427Y-107613610D01*
X153549876Y-107606497D01*
X153571487Y-107594946D01*
X153590429Y-107579400D01*
X153605975Y-107560458D01*
X153617526Y-107538847D01*
X153624639Y-107515398D01*
X153627041Y-107491012D01*
X153627041Y-107199004D01*
X153628630Y-107182865D01*
X153631546Y-107173253D01*
X153636281Y-107164395D01*
X153642656Y-107156627D01*
X153650424Y-107150252D01*
X153659282Y-107145517D01*
X153668894Y-107142601D01*
X153685033Y-107141012D01*
X154422753Y-107141012D01*
X154438892Y-107142601D01*
X154448504Y-107145517D01*
X154457362Y-107150252D01*
X154465130Y-107156627D01*
X154471505Y-107164395D01*
X154476240Y-107173253D01*
X154479156Y-107182865D01*
X154480745Y-107199004D01*
X154480745Y-110216012D01*
X154483147Y-110240398D01*
X154490260Y-110263847D01*
X154501811Y-110285458D01*
X154517357Y-110304400D01*
X154536299Y-110319946D01*
X154557910Y-110331497D01*
X154581359Y-110338610D01*
X154605745Y-110341012D01*
X154917753Y-110341012D01*
X154933892Y-110342601D01*
X154943504Y-110345517D01*
X154952362Y-110350252D01*
X154960130Y-110356627D01*
X154966505Y-110364395D01*
X154971240Y-110373253D01*
X154974156Y-110382865D01*
X154975745Y-110399004D01*
X154975745Y-111291724D01*
X154974156Y-111307863D01*
X154971240Y-111317475D01*
X154966505Y-111326333D01*
X154960130Y-111334101D01*
X154952362Y-111340476D01*
X154943504Y-111345211D01*
X154933892Y-111348127D01*
X154917753Y-111349716D01*
X154605745Y-111349716D01*
X154581359Y-111352118D01*
X154557910Y-111359231D01*
X154536299Y-111370782D01*
X154517357Y-111386328D01*
X154501811Y-111405270D01*
X154490260Y-111426881D01*
X154483147Y-111450330D01*
X154480745Y-111474716D01*
X154480745Y-111716724D01*
X154479156Y-111732863D01*
X154476240Y-111742475D01*
X154471505Y-111751333D01*
X154465130Y-111759101D01*
X154457362Y-111765476D01*
X154448504Y-111770211D01*
X154438892Y-111773127D01*
X154422753Y-111774716D01*
X149875033Y-111774716D01*
X149858894Y-111773127D01*
X149849282Y-111770211D01*
X149840424Y-111765476D01*
X149832656Y-111759101D01*
X149826281Y-111751333D01*
X149821546Y-111742475D01*
X149818630Y-111732863D01*
X149817041Y-111716724D01*
X149817041Y-111474716D01*
X149814639Y-111450330D01*
X149807526Y-111426881D01*
X149795975Y-111405270D01*
X149780429Y-111386328D01*
X149761487Y-111370782D01*
X149739876Y-111359231D01*
X149716427Y-111352118D01*
X149692041Y-111349716D01*
X149380033Y-111349716D01*
X149363894Y-111348127D01*
X149354282Y-111345211D01*
X149345424Y-111340476D01*
X149337656Y-111334101D01*
X149331281Y-111326333D01*
X149326546Y-111317475D01*
X149323630Y-111307863D01*
X149322041Y-111291724D01*
X149322041Y-110399004D01*
X149323630Y-110382865D01*
X149326546Y-110373253D01*
X149331281Y-110364395D01*
X149337656Y-110356627D01*
X149345424Y-110350252D01*
X149354282Y-110345517D01*
X149363894Y-110342601D01*
X149380033Y-110341012D01*
X149692041Y-110341012D01*
X149716427Y-110338610D01*
X149739876Y-110331497D01*
X149761487Y-110319946D01*
X149780429Y-110304400D01*
X149795975Y-110285458D01*
X149807526Y-110263847D01*
X149814639Y-110240398D01*
X149817041Y-110216012D01*
X149817041Y-107199004D01*
X149818630Y-107182865D01*
X149821546Y-107173253D01*
X149826281Y-107164395D01*
X149832656Y-107156627D01*
X149840424Y-107150252D01*
X149849282Y-107145517D01*
X149858894Y-107142601D01*
X149875033Y-107141012D01*
X150612753Y-107141012D01*
X150628892Y-107142601D01*
X150628892Y-107142601D01*
G37*
G36*
X165669893Y-108753864D02*
X164817893Y-108753864D01*
X164817893Y-107651864D01*
X165669893Y-107651864D01*
X165669893Y-108753864D01*
X165669893Y-108753864D01*
G37*
G36*
X166939893Y-108753864D02*
X166087893Y-108753864D01*
X166087893Y-107651864D01*
X166939893Y-107651864D01*
X166939893Y-108753864D01*
X166939893Y-108753864D01*
G37*
G36*
X138209893Y-108753864D02*
X137357893Y-108753864D01*
X137357893Y-107651864D01*
X138209893Y-107651864D01*
X138209893Y-108753864D01*
X138209893Y-108753864D01*
G37*
G36*
X139479893Y-108753864D02*
X138627893Y-108753864D01*
X138627893Y-107651864D01*
X139479893Y-107651864D01*
X139479893Y-108753864D01*
X139479893Y-108753864D01*
G37*
G36*
X135669893Y-108753864D02*
X134817893Y-108753864D01*
X134817893Y-107651864D01*
X135669893Y-107651864D01*
X135669893Y-108753864D01*
X135669893Y-108753864D01*
G37*
G36*
X136939893Y-108753864D02*
X136087893Y-108753864D01*
X136087893Y-107651864D01*
X136939893Y-107651864D01*
X136939893Y-108753864D01*
X136939893Y-108753864D01*
G37*
G36*
X147479893Y-108753864D02*
X146627893Y-108753864D01*
X146627893Y-107651864D01*
X147479893Y-107651864D01*
X147479893Y-108753864D01*
X147479893Y-108753864D01*
G37*
G36*
X146209893Y-108753864D02*
X145357893Y-108753864D01*
X145357893Y-107651864D01*
X146209893Y-107651864D01*
X146209893Y-108753864D01*
X146209893Y-108753864D01*
G37*
G36*
X144939893Y-108753864D02*
X144087893Y-108753864D01*
X144087893Y-107651864D01*
X144939893Y-107651864D01*
X144939893Y-108753864D01*
X144939893Y-108753864D01*
G37*
G36*
X143669893Y-108753864D02*
X142817893Y-108753864D01*
X142817893Y-107651864D01*
X143669893Y-107651864D01*
X143669893Y-108753864D01*
X143669893Y-108753864D01*
G37*
G36*
X169479893Y-108753864D02*
X168627893Y-108753864D01*
X168627893Y-107651864D01*
X169479893Y-107651864D01*
X169479893Y-108753864D01*
X169479893Y-108753864D01*
G37*
G36*
X168209893Y-108753864D02*
X167357893Y-108753864D01*
X167357893Y-107651864D01*
X168209893Y-107651864D01*
X168209893Y-108753864D01*
X168209893Y-108753864D01*
G37*
G36*
X147755821Y-105048103D02*
X147789982Y-105058466D01*
X147821464Y-105075293D01*
X147849060Y-105097940D01*
X147871707Y-105125536D01*
X147888534Y-105157018D01*
X147898897Y-105191179D01*
X147903000Y-105232842D01*
X147903000Y-106482158D01*
X147898897Y-106523821D01*
X147888534Y-106557982D01*
X147871707Y-106589464D01*
X147849060Y-106617060D01*
X147821464Y-106639707D01*
X147789982Y-106656534D01*
X147755821Y-106666897D01*
X147714158Y-106671000D01*
X144639842Y-106671000D01*
X144598179Y-106666897D01*
X144564018Y-106656534D01*
X144532536Y-106639707D01*
X144504940Y-106617060D01*
X144482293Y-106589464D01*
X144465466Y-106557982D01*
X144455103Y-106523821D01*
X144451000Y-106482158D01*
X144451000Y-105232842D01*
X144455103Y-105191179D01*
X144465466Y-105157018D01*
X144482293Y-105125536D01*
X144504940Y-105097940D01*
X144532536Y-105075293D01*
X144564018Y-105058466D01*
X144598179Y-105048103D01*
X144639842Y-105044000D01*
X147714158Y-105044000D01*
X147755821Y-105048103D01*
X147755821Y-105048103D01*
G37*
G36*
X139627821Y-105048103D02*
X139661982Y-105058466D01*
X139693464Y-105075293D01*
X139721060Y-105097940D01*
X139743707Y-105125536D01*
X139760534Y-105157018D01*
X139770897Y-105191179D01*
X139775000Y-105232842D01*
X139775000Y-106482158D01*
X139770897Y-106523821D01*
X139760534Y-106557982D01*
X139743707Y-106589464D01*
X139721060Y-106617060D01*
X139693464Y-106639707D01*
X139661982Y-106656534D01*
X139627821Y-106666897D01*
X139586158Y-106671000D01*
X136511842Y-106671000D01*
X136470179Y-106666897D01*
X136436018Y-106656534D01*
X136404536Y-106639707D01*
X136376940Y-106617060D01*
X136354293Y-106589464D01*
X136337466Y-106557982D01*
X136327103Y-106523821D01*
X136323000Y-106482158D01*
X136323000Y-105232842D01*
X136327103Y-105191179D01*
X136337466Y-105157018D01*
X136354293Y-105125536D01*
X136376940Y-105097940D01*
X136404536Y-105075293D01*
X136436018Y-105058466D01*
X136470179Y-105048103D01*
X136511842Y-105044000D01*
X139586158Y-105044000D01*
X139627821Y-105048103D01*
X139627821Y-105048103D01*
G37*
G36*
X172806242Y-105158404D02*
X172843339Y-105169657D01*
X172877520Y-105187927D01*
X172907482Y-105212518D01*
X172932073Y-105242480D01*
X172950343Y-105276661D01*
X172961596Y-105313758D01*
X172966000Y-105358473D01*
X172966000Y-106251527D01*
X172961596Y-106296242D01*
X172950343Y-106333339D01*
X172932073Y-106367520D01*
X172907482Y-106397482D01*
X172877520Y-106422073D01*
X172843339Y-106440343D01*
X172806242Y-106451596D01*
X172761527Y-106456000D01*
X171268473Y-106456000D01*
X171223758Y-106451596D01*
X171186661Y-106440343D01*
X171152480Y-106422073D01*
X171122518Y-106397482D01*
X171097927Y-106367520D01*
X171079657Y-106333339D01*
X171068404Y-106296242D01*
X171064000Y-106251527D01*
X171064000Y-105358473D01*
X171068404Y-105313758D01*
X171079657Y-105276661D01*
X171097927Y-105242480D01*
X171122518Y-105212518D01*
X171152480Y-105187927D01*
X171186661Y-105169657D01*
X171223758Y-105158404D01*
X171268473Y-105154000D01*
X172761527Y-105154000D01*
X172806242Y-105158404D01*
X172806242Y-105158404D01*
G37*
G36*
X132220562Y-104868181D02*
X132255477Y-104878773D01*
X132287665Y-104895978D01*
X132315873Y-104919127D01*
X132339022Y-104947335D01*
X132356227Y-104979523D01*
X132366819Y-105014438D01*
X132371000Y-105056895D01*
X132371000Y-106198105D01*
X132366819Y-106240562D01*
X132356227Y-106275477D01*
X132339022Y-106307665D01*
X132315873Y-106335873D01*
X132287665Y-106359022D01*
X132255477Y-106376227D01*
X132220562Y-106386819D01*
X132178105Y-106391000D01*
X130711895Y-106391000D01*
X130669438Y-106386819D01*
X130634523Y-106376227D01*
X130602335Y-106359022D01*
X130574127Y-106335873D01*
X130550978Y-106307665D01*
X130533773Y-106275477D01*
X130523181Y-106240562D01*
X130519000Y-106198105D01*
X130519000Y-105056895D01*
X130523181Y-105014438D01*
X130533773Y-104979523D01*
X130550978Y-104947335D01*
X130574127Y-104919127D01*
X130602335Y-104895978D01*
X130634523Y-104878773D01*
X130669438Y-104868181D01*
X130711895Y-104864000D01*
X132178105Y-104864000D01*
X132220562Y-104868181D01*
X132220562Y-104868181D01*
G37*
G36*
X129426562Y-104868181D02*
X129461477Y-104878773D01*
X129493665Y-104895978D01*
X129521873Y-104919127D01*
X129545022Y-104947335D01*
X129562227Y-104979523D01*
X129572819Y-105014438D01*
X129577000Y-105056895D01*
X129577000Y-106198105D01*
X129572819Y-106240562D01*
X129562227Y-106275477D01*
X129545022Y-106307665D01*
X129521873Y-106335873D01*
X129493665Y-106359022D01*
X129461477Y-106376227D01*
X129426562Y-106386819D01*
X129384105Y-106391000D01*
X127917895Y-106391000D01*
X127875438Y-106386819D01*
X127840523Y-106376227D01*
X127808335Y-106359022D01*
X127780127Y-106335873D01*
X127756978Y-106307665D01*
X127739773Y-106275477D01*
X127729181Y-106240562D01*
X127725000Y-106198105D01*
X127725000Y-105056895D01*
X127729181Y-105014438D01*
X127739773Y-104979523D01*
X127756978Y-104947335D01*
X127780127Y-104919127D01*
X127808335Y-104895978D01*
X127840523Y-104878773D01*
X127875438Y-104868181D01*
X127917895Y-104864000D01*
X129384105Y-104864000D01*
X129426562Y-104868181D01*
X129426562Y-104868181D01*
G37*
G36*
X162319562Y-104741181D02*
X162354477Y-104751773D01*
X162386665Y-104768978D01*
X162414873Y-104792127D01*
X162438022Y-104820335D01*
X162455227Y-104852523D01*
X162465819Y-104887438D01*
X162470000Y-104929895D01*
X162470000Y-106071105D01*
X162465819Y-106113562D01*
X162455227Y-106148477D01*
X162438022Y-106180665D01*
X162414873Y-106208873D01*
X162386665Y-106232022D01*
X162354477Y-106249227D01*
X162319562Y-106259819D01*
X162277105Y-106264000D01*
X160810895Y-106264000D01*
X160768438Y-106259819D01*
X160733523Y-106249227D01*
X160701335Y-106232022D01*
X160673127Y-106208873D01*
X160649978Y-106180665D01*
X160632773Y-106148477D01*
X160622181Y-106113562D01*
X160618000Y-106071105D01*
X160618000Y-104929895D01*
X160622181Y-104887438D01*
X160632773Y-104852523D01*
X160649978Y-104820335D01*
X160673127Y-104792127D01*
X160701335Y-104768978D01*
X160733523Y-104751773D01*
X160768438Y-104741181D01*
X160810895Y-104737000D01*
X162277105Y-104737000D01*
X162319562Y-104741181D01*
X162319562Y-104741181D01*
G37*
G36*
X159525562Y-104741181D02*
X159560477Y-104751773D01*
X159592665Y-104768978D01*
X159620873Y-104792127D01*
X159644022Y-104820335D01*
X159661227Y-104852523D01*
X159671819Y-104887438D01*
X159676000Y-104929895D01*
X159676000Y-106071105D01*
X159671819Y-106113562D01*
X159661227Y-106148477D01*
X159644022Y-106180665D01*
X159620873Y-106208873D01*
X159592665Y-106232022D01*
X159560477Y-106249227D01*
X159525562Y-106259819D01*
X159483105Y-106264000D01*
X158016895Y-106264000D01*
X157974438Y-106259819D01*
X157939523Y-106249227D01*
X157907335Y-106232022D01*
X157879127Y-106208873D01*
X157855978Y-106180665D01*
X157838773Y-106148477D01*
X157828181Y-106113562D01*
X157824000Y-106071105D01*
X157824000Y-104929895D01*
X157828181Y-104887438D01*
X157838773Y-104852523D01*
X157855978Y-104820335D01*
X157879127Y-104792127D01*
X157907335Y-104768978D01*
X157939523Y-104751773D01*
X157974438Y-104741181D01*
X158016895Y-104737000D01*
X159483105Y-104737000D01*
X159525562Y-104741181D01*
X159525562Y-104741181D01*
G37*
G36*
X154318562Y-104741181D02*
X154353477Y-104751773D01*
X154385665Y-104768978D01*
X154413873Y-104792127D01*
X154437022Y-104820335D01*
X154454227Y-104852523D01*
X154464819Y-104887438D01*
X154469000Y-104929895D01*
X154469000Y-106071105D01*
X154464819Y-106113562D01*
X154454227Y-106148477D01*
X154437022Y-106180665D01*
X154413873Y-106208873D01*
X154385665Y-106232022D01*
X154353477Y-106249227D01*
X154318562Y-106259819D01*
X154276105Y-106264000D01*
X152809895Y-106264000D01*
X152767438Y-106259819D01*
X152732523Y-106249227D01*
X152700335Y-106232022D01*
X152672127Y-106208873D01*
X152648978Y-106180665D01*
X152631773Y-106148477D01*
X152621181Y-106113562D01*
X152617000Y-106071105D01*
X152617000Y-104929895D01*
X152621181Y-104887438D01*
X152631773Y-104852523D01*
X152648978Y-104820335D01*
X152672127Y-104792127D01*
X152700335Y-104768978D01*
X152732523Y-104751773D01*
X152767438Y-104741181D01*
X152809895Y-104737000D01*
X154276105Y-104737000D01*
X154318562Y-104741181D01*
X154318562Y-104741181D01*
G37*
G36*
X151524562Y-104741181D02*
X151559477Y-104751773D01*
X151591665Y-104768978D01*
X151619873Y-104792127D01*
X151643022Y-104820335D01*
X151660227Y-104852523D01*
X151670819Y-104887438D01*
X151675000Y-104929895D01*
X151675000Y-106071105D01*
X151670819Y-106113562D01*
X151660227Y-106148477D01*
X151643022Y-106180665D01*
X151619873Y-106208873D01*
X151591665Y-106232022D01*
X151559477Y-106249227D01*
X151524562Y-106259819D01*
X151482105Y-106264000D01*
X150015895Y-106264000D01*
X149973438Y-106259819D01*
X149938523Y-106249227D01*
X149906335Y-106232022D01*
X149878127Y-106208873D01*
X149854978Y-106180665D01*
X149837773Y-106148477D01*
X149827181Y-106113562D01*
X149823000Y-106071105D01*
X149823000Y-104929895D01*
X149827181Y-104887438D01*
X149837773Y-104852523D01*
X149854978Y-104820335D01*
X149878127Y-104792127D01*
X149906335Y-104768978D01*
X149938523Y-104751773D01*
X149973438Y-104741181D01*
X150015895Y-104737000D01*
X151482105Y-104737000D01*
X151524562Y-104741181D01*
X151524562Y-104741181D01*
G37*
G36*
X170224928Y-104156764D02*
X170246011Y-104163160D01*
X170265442Y-104173546D01*
X170282475Y-104187525D01*
X170296454Y-104204558D01*
X170306840Y-104223989D01*
X170313236Y-104245072D01*
X170316000Y-104273140D01*
X170316000Y-104736860D01*
X170313236Y-104764928D01*
X170306840Y-104786011D01*
X170296454Y-104805442D01*
X170282475Y-104822475D01*
X170265442Y-104836454D01*
X170246011Y-104846840D01*
X170224928Y-104853236D01*
X170196860Y-104856000D01*
X168783140Y-104856000D01*
X168755072Y-104853236D01*
X168733989Y-104846840D01*
X168714558Y-104836454D01*
X168697525Y-104822475D01*
X168683546Y-104805442D01*
X168673160Y-104786011D01*
X168666764Y-104764928D01*
X168664000Y-104736860D01*
X168664000Y-104273140D01*
X168666764Y-104245072D01*
X168673160Y-104223989D01*
X168683546Y-104204558D01*
X168697525Y-104187525D01*
X168714558Y-104173546D01*
X168733989Y-104163160D01*
X168755072Y-104156764D01*
X168783140Y-104154000D01*
X170196860Y-104154000D01*
X170224928Y-104156764D01*
X170224928Y-104156764D01*
G37*
G36*
X170224928Y-103156764D02*
X170246011Y-103163160D01*
X170265442Y-103173546D01*
X170282475Y-103187525D01*
X170296454Y-103204558D01*
X170306840Y-103223989D01*
X170313236Y-103245072D01*
X170316000Y-103273140D01*
X170316000Y-103736860D01*
X170313236Y-103764928D01*
X170306840Y-103786011D01*
X170296454Y-103805442D01*
X170282475Y-103822475D01*
X170265442Y-103836454D01*
X170246011Y-103846840D01*
X170224928Y-103853236D01*
X170196860Y-103856000D01*
X168783140Y-103856000D01*
X168755072Y-103853236D01*
X168733989Y-103846840D01*
X168714558Y-103836454D01*
X168697525Y-103822475D01*
X168683546Y-103805442D01*
X168673160Y-103786011D01*
X168666764Y-103764928D01*
X168664000Y-103736860D01*
X168664000Y-103273140D01*
X168666764Y-103245072D01*
X168673160Y-103223989D01*
X168683546Y-103204558D01*
X168697525Y-103187525D01*
X168714558Y-103173546D01*
X168733989Y-103163160D01*
X168755072Y-103156764D01*
X168783140Y-103154000D01*
X170196860Y-103154000D01*
X170224928Y-103156764D01*
X170224928Y-103156764D01*
G37*
G36*
X165718499Y-102284445D02*
X165755993Y-102295819D01*
X165790557Y-102314294D01*
X165820847Y-102339153D01*
X165845706Y-102369443D01*
X165864181Y-102404007D01*
X165875555Y-102441501D01*
X165880000Y-102486638D01*
X165880000Y-103225362D01*
X165875555Y-103270499D01*
X165864181Y-103307993D01*
X165845706Y-103342557D01*
X165820847Y-103372847D01*
X165790557Y-103397706D01*
X165755993Y-103416181D01*
X165718499Y-103427555D01*
X165673362Y-103432000D01*
X165034638Y-103432000D01*
X164989501Y-103427555D01*
X164952007Y-103416181D01*
X164917443Y-103397706D01*
X164887153Y-103372847D01*
X164862294Y-103342557D01*
X164843819Y-103307993D01*
X164832445Y-103270499D01*
X164828000Y-103225362D01*
X164828000Y-102486638D01*
X164832445Y-102441501D01*
X164843819Y-102404007D01*
X164862294Y-102369443D01*
X164887153Y-102339153D01*
X164917443Y-102314294D01*
X164952007Y-102295819D01*
X164989501Y-102284445D01*
X165034638Y-102280000D01*
X165673362Y-102280000D01*
X165718499Y-102284445D01*
X165718499Y-102284445D01*
G37*
G36*
X132220562Y-101893181D02*
X132255477Y-101903773D01*
X132287665Y-101920978D01*
X132315873Y-101944127D01*
X132339022Y-101972335D01*
X132356227Y-102004523D01*
X132366819Y-102039438D01*
X132371000Y-102081895D01*
X132371000Y-103223105D01*
X132366819Y-103265562D01*
X132356227Y-103300477D01*
X132339022Y-103332665D01*
X132315873Y-103360873D01*
X132287665Y-103384022D01*
X132255477Y-103401227D01*
X132220562Y-103411819D01*
X132178105Y-103416000D01*
X130711895Y-103416000D01*
X130669438Y-103411819D01*
X130634523Y-103401227D01*
X130602335Y-103384022D01*
X130574127Y-103360873D01*
X130550978Y-103332665D01*
X130533773Y-103300477D01*
X130523181Y-103265562D01*
X130519000Y-103223105D01*
X130519000Y-102081895D01*
X130523181Y-102039438D01*
X130533773Y-102004523D01*
X130550978Y-101972335D01*
X130574127Y-101944127D01*
X130602335Y-101920978D01*
X130634523Y-101903773D01*
X130669438Y-101893181D01*
X130711895Y-101889000D01*
X132178105Y-101889000D01*
X132220562Y-101893181D01*
X132220562Y-101893181D01*
G37*
G36*
X129426562Y-101893181D02*
X129461477Y-101903773D01*
X129493665Y-101920978D01*
X129521873Y-101944127D01*
X129545022Y-101972335D01*
X129562227Y-102004523D01*
X129572819Y-102039438D01*
X129577000Y-102081895D01*
X129577000Y-103223105D01*
X129572819Y-103265562D01*
X129562227Y-103300477D01*
X129545022Y-103332665D01*
X129521873Y-103360873D01*
X129493665Y-103384022D01*
X129461477Y-103401227D01*
X129426562Y-103411819D01*
X129384105Y-103416000D01*
X127917895Y-103416000D01*
X127875438Y-103411819D01*
X127840523Y-103401227D01*
X127808335Y-103384022D01*
X127780127Y-103360873D01*
X127756978Y-103332665D01*
X127739773Y-103300477D01*
X127729181Y-103265562D01*
X127725000Y-103223105D01*
X127725000Y-102081895D01*
X127729181Y-102039438D01*
X127739773Y-102004523D01*
X127756978Y-101972335D01*
X127780127Y-101944127D01*
X127808335Y-101920978D01*
X127840523Y-101903773D01*
X127875438Y-101893181D01*
X127917895Y-101889000D01*
X129384105Y-101889000D01*
X129426562Y-101893181D01*
X129426562Y-101893181D01*
G37*
G36*
X151524562Y-101766181D02*
X151559477Y-101776773D01*
X151591665Y-101793978D01*
X151619873Y-101817127D01*
X151643022Y-101845335D01*
X151660227Y-101877523D01*
X151670819Y-101912438D01*
X151675000Y-101954895D01*
X151675000Y-103096105D01*
X151670819Y-103138562D01*
X151660227Y-103173477D01*
X151643022Y-103205665D01*
X151619873Y-103233873D01*
X151591665Y-103257022D01*
X151559477Y-103274227D01*
X151524562Y-103284819D01*
X151482105Y-103289000D01*
X150015895Y-103289000D01*
X149973438Y-103284819D01*
X149938523Y-103274227D01*
X149906335Y-103257022D01*
X149878127Y-103233873D01*
X149854978Y-103205665D01*
X149837773Y-103173477D01*
X149827181Y-103138562D01*
X149823000Y-103096105D01*
X149823000Y-101954895D01*
X149827181Y-101912438D01*
X149837773Y-101877523D01*
X149854978Y-101845335D01*
X149878127Y-101817127D01*
X149906335Y-101793978D01*
X149938523Y-101776773D01*
X149973438Y-101766181D01*
X150015895Y-101762000D01*
X151482105Y-101762000D01*
X151524562Y-101766181D01*
X151524562Y-101766181D01*
G37*
G36*
X159525562Y-101766181D02*
X159560477Y-101776773D01*
X159592665Y-101793978D01*
X159620873Y-101817127D01*
X159644022Y-101845335D01*
X159661227Y-101877523D01*
X159671819Y-101912438D01*
X159676000Y-101954895D01*
X159676000Y-103096105D01*
X159671819Y-103138562D01*
X159661227Y-103173477D01*
X159644022Y-103205665D01*
X159620873Y-103233873D01*
X159592665Y-103257022D01*
X159560477Y-103274227D01*
X159525562Y-103284819D01*
X159483105Y-103289000D01*
X158016895Y-103289000D01*
X157974438Y-103284819D01*
X157939523Y-103274227D01*
X157907335Y-103257022D01*
X157879127Y-103233873D01*
X157855978Y-103205665D01*
X157838773Y-103173477D01*
X157828181Y-103138562D01*
X157824000Y-103096105D01*
X157824000Y-101954895D01*
X157828181Y-101912438D01*
X157838773Y-101877523D01*
X157855978Y-101845335D01*
X157879127Y-101817127D01*
X157907335Y-101793978D01*
X157939523Y-101776773D01*
X157974438Y-101766181D01*
X158016895Y-101762000D01*
X159483105Y-101762000D01*
X159525562Y-101766181D01*
X159525562Y-101766181D01*
G37*
G36*
X162319562Y-101766181D02*
X162354477Y-101776773D01*
X162386665Y-101793978D01*
X162414873Y-101817127D01*
X162438022Y-101845335D01*
X162455227Y-101877523D01*
X162465819Y-101912438D01*
X162470000Y-101954895D01*
X162470000Y-103096105D01*
X162465819Y-103138562D01*
X162455227Y-103173477D01*
X162438022Y-103205665D01*
X162414873Y-103233873D01*
X162386665Y-103257022D01*
X162354477Y-103274227D01*
X162319562Y-103284819D01*
X162277105Y-103289000D01*
X160810895Y-103289000D01*
X160768438Y-103284819D01*
X160733523Y-103274227D01*
X160701335Y-103257022D01*
X160673127Y-103233873D01*
X160649978Y-103205665D01*
X160632773Y-103173477D01*
X160622181Y-103138562D01*
X160618000Y-103096105D01*
X160618000Y-101954895D01*
X160622181Y-101912438D01*
X160632773Y-101877523D01*
X160649978Y-101845335D01*
X160673127Y-101817127D01*
X160701335Y-101793978D01*
X160733523Y-101776773D01*
X160768438Y-101766181D01*
X160810895Y-101762000D01*
X162277105Y-101762000D01*
X162319562Y-101766181D01*
X162319562Y-101766181D01*
G37*
G36*
X154318562Y-101766181D02*
X154353477Y-101776773D01*
X154385665Y-101793978D01*
X154413873Y-101817127D01*
X154437022Y-101845335D01*
X154454227Y-101877523D01*
X154464819Y-101912438D01*
X154469000Y-101954895D01*
X154469000Y-103096105D01*
X154464819Y-103138562D01*
X154454227Y-103173477D01*
X154437022Y-103205665D01*
X154413873Y-103233873D01*
X154385665Y-103257022D01*
X154353477Y-103274227D01*
X154318562Y-103284819D01*
X154276105Y-103289000D01*
X152809895Y-103289000D01*
X152767438Y-103284819D01*
X152732523Y-103274227D01*
X152700335Y-103257022D01*
X152672127Y-103233873D01*
X152648978Y-103205665D01*
X152631773Y-103173477D01*
X152621181Y-103138562D01*
X152617000Y-103096105D01*
X152617000Y-101954895D01*
X152621181Y-101912438D01*
X152631773Y-101877523D01*
X152648978Y-101845335D01*
X152672127Y-101817127D01*
X152700335Y-101793978D01*
X152732523Y-101776773D01*
X152767438Y-101766181D01*
X152809895Y-101762000D01*
X154276105Y-101762000D01*
X154318562Y-101766181D01*
X154318562Y-101766181D01*
G37*
G36*
X170224928Y-102156764D02*
X170246011Y-102163160D01*
X170265442Y-102173546D01*
X170282475Y-102187525D01*
X170296454Y-102204558D01*
X170306840Y-102223989D01*
X170313236Y-102245072D01*
X170316000Y-102273140D01*
X170316000Y-102736860D01*
X170313236Y-102764928D01*
X170306840Y-102786011D01*
X170296454Y-102805442D01*
X170282475Y-102822475D01*
X170265442Y-102836454D01*
X170246011Y-102846840D01*
X170224928Y-102853236D01*
X170196860Y-102856000D01*
X168783140Y-102856000D01*
X168755072Y-102853236D01*
X168733989Y-102846840D01*
X168714558Y-102836454D01*
X168697525Y-102822475D01*
X168683546Y-102805442D01*
X168673160Y-102786011D01*
X168666764Y-102764928D01*
X168664000Y-102736860D01*
X168664000Y-102273140D01*
X168666764Y-102245072D01*
X168673160Y-102223989D01*
X168683546Y-102204558D01*
X168697525Y-102187525D01*
X168714558Y-102173546D01*
X168733989Y-102163160D01*
X168755072Y-102156764D01*
X168783140Y-102154000D01*
X170196860Y-102154000D01*
X170224928Y-102156764D01*
X170224928Y-102156764D01*
G37*
G36*
X172806242Y-100558404D02*
X172843339Y-100569657D01*
X172877520Y-100587927D01*
X172907482Y-100612518D01*
X172932073Y-100642480D01*
X172950343Y-100676661D01*
X172961596Y-100713758D01*
X172966000Y-100758473D01*
X172966000Y-101651527D01*
X172961596Y-101696242D01*
X172950343Y-101733339D01*
X172932073Y-101767520D01*
X172907482Y-101797482D01*
X172877520Y-101822073D01*
X172843339Y-101840343D01*
X172806242Y-101851596D01*
X172761527Y-101856000D01*
X171268473Y-101856000D01*
X171223758Y-101851596D01*
X171186661Y-101840343D01*
X171152480Y-101822073D01*
X171122518Y-101797482D01*
X171097927Y-101767520D01*
X171079657Y-101733339D01*
X171068404Y-101696242D01*
X171064000Y-101651527D01*
X171064000Y-100758473D01*
X171068404Y-100713758D01*
X171079657Y-100676661D01*
X171097927Y-100642480D01*
X171122518Y-100612518D01*
X171152480Y-100587927D01*
X171186661Y-100569657D01*
X171223758Y-100558404D01*
X171268473Y-100554000D01*
X172761527Y-100554000D01*
X172806242Y-100558404D01*
X172806242Y-100558404D01*
G37*
G36*
X165718499Y-100534445D02*
X165755993Y-100545819D01*
X165790557Y-100564294D01*
X165820847Y-100589153D01*
X165845706Y-100619443D01*
X165864181Y-100654007D01*
X165875555Y-100691501D01*
X165880000Y-100736638D01*
X165880000Y-101475362D01*
X165875555Y-101520499D01*
X165864181Y-101557993D01*
X165845706Y-101592557D01*
X165820847Y-101622847D01*
X165790557Y-101647706D01*
X165755993Y-101666181D01*
X165718499Y-101677555D01*
X165673362Y-101682000D01*
X165034638Y-101682000D01*
X164989501Y-101677555D01*
X164952007Y-101666181D01*
X164917443Y-101647706D01*
X164887153Y-101622847D01*
X164862294Y-101592557D01*
X164843819Y-101557993D01*
X164832445Y-101520499D01*
X164828000Y-101475362D01*
X164828000Y-100736638D01*
X164832445Y-100691501D01*
X164843819Y-100654007D01*
X164862294Y-100619443D01*
X164887153Y-100589153D01*
X164917443Y-100564294D01*
X164952007Y-100545819D01*
X164989501Y-100534445D01*
X165034638Y-100530000D01*
X165673362Y-100530000D01*
X165718499Y-100534445D01*
X165718499Y-100534445D01*
G37*
G36*
X129354562Y-99535181D02*
X129389477Y-99545773D01*
X129421665Y-99562978D01*
X129449873Y-99586127D01*
X129473022Y-99614335D01*
X129490227Y-99646523D01*
X129500819Y-99681438D01*
X129505000Y-99723895D01*
X129505000Y-101190105D01*
X129500819Y-101232562D01*
X129490227Y-101267477D01*
X129473022Y-101299665D01*
X129449873Y-101327873D01*
X129421665Y-101351022D01*
X129389477Y-101368227D01*
X129354562Y-101378819D01*
X129312105Y-101383000D01*
X128170895Y-101383000D01*
X128128438Y-101378819D01*
X128093523Y-101368227D01*
X128061335Y-101351022D01*
X128033127Y-101327873D01*
X128009978Y-101299665D01*
X127992773Y-101267477D01*
X127982181Y-101232562D01*
X127978000Y-101190105D01*
X127978000Y-99723895D01*
X127982181Y-99681438D01*
X127992773Y-99646523D01*
X128009978Y-99614335D01*
X128033127Y-99586127D01*
X128061335Y-99562978D01*
X128093523Y-99545773D01*
X128128438Y-99535181D01*
X128170895Y-99531000D01*
X129312105Y-99531000D01*
X129354562Y-99535181D01*
X129354562Y-99535181D01*
G37*
G36*
X126379562Y-99535181D02*
X126414477Y-99545773D01*
X126446665Y-99562978D01*
X126474873Y-99586127D01*
X126498022Y-99614335D01*
X126515227Y-99646523D01*
X126525819Y-99681438D01*
X126530000Y-99723895D01*
X126530000Y-101190105D01*
X126525819Y-101232562D01*
X126515227Y-101267477D01*
X126498022Y-101299665D01*
X126474873Y-101327873D01*
X126446665Y-101351022D01*
X126414477Y-101368227D01*
X126379562Y-101378819D01*
X126337105Y-101383000D01*
X125195895Y-101383000D01*
X125153438Y-101378819D01*
X125118523Y-101368227D01*
X125086335Y-101351022D01*
X125058127Y-101327873D01*
X125034978Y-101299665D01*
X125017773Y-101267477D01*
X125007181Y-101232562D01*
X125003000Y-101190105D01*
X125003000Y-99723895D01*
X125007181Y-99681438D01*
X125017773Y-99646523D01*
X125034978Y-99614335D01*
X125058127Y-99586127D01*
X125086335Y-99562978D01*
X125118523Y-99545773D01*
X125153438Y-99535181D01*
X125195895Y-99531000D01*
X126337105Y-99531000D01*
X126379562Y-99535181D01*
X126379562Y-99535181D01*
G37*
G36*
X139627821Y-99073103D02*
X139661982Y-99083466D01*
X139693464Y-99100293D01*
X139721060Y-99122940D01*
X139743707Y-99150536D01*
X139760534Y-99182018D01*
X139770897Y-99216179D01*
X139775000Y-99257842D01*
X139775000Y-100507158D01*
X139770897Y-100548821D01*
X139760534Y-100582982D01*
X139743707Y-100614464D01*
X139721060Y-100642060D01*
X139693464Y-100664707D01*
X139661982Y-100681534D01*
X139627821Y-100691897D01*
X139586158Y-100696000D01*
X136511842Y-100696000D01*
X136470179Y-100691897D01*
X136436018Y-100681534D01*
X136404536Y-100664707D01*
X136376940Y-100642060D01*
X136354293Y-100614464D01*
X136337466Y-100582982D01*
X136327103Y-100548821D01*
X136323000Y-100507158D01*
X136323000Y-99257842D01*
X136327103Y-99216179D01*
X136337466Y-99182018D01*
X136354293Y-99150536D01*
X136376940Y-99122940D01*
X136404536Y-99100293D01*
X136436018Y-99083466D01*
X136470179Y-99073103D01*
X136511842Y-99069000D01*
X139586158Y-99069000D01*
X139627821Y-99073103D01*
X139627821Y-99073103D01*
G37*
G36*
X147755821Y-99073103D02*
X147789982Y-99083466D01*
X147821464Y-99100293D01*
X147849060Y-99122940D01*
X147871707Y-99150536D01*
X147888534Y-99182018D01*
X147898897Y-99216179D01*
X147903000Y-99257842D01*
X147903000Y-100507158D01*
X147898897Y-100548821D01*
X147888534Y-100582982D01*
X147871707Y-100614464D01*
X147849060Y-100642060D01*
X147821464Y-100664707D01*
X147789982Y-100681534D01*
X147755821Y-100691897D01*
X147714158Y-100696000D01*
X144639842Y-100696000D01*
X144598179Y-100691897D01*
X144564018Y-100681534D01*
X144532536Y-100664707D01*
X144504940Y-100642060D01*
X144482293Y-100614464D01*
X144465466Y-100582982D01*
X144455103Y-100548821D01*
X144451000Y-100507158D01*
X144451000Y-99257842D01*
X144455103Y-99216179D01*
X144465466Y-99182018D01*
X144482293Y-99150536D01*
X144504940Y-99122940D01*
X144532536Y-99100293D01*
X144564018Y-99083466D01*
X144598179Y-99073103D01*
X144639842Y-99069000D01*
X147714158Y-99069000D01*
X147755821Y-99073103D01*
X147755821Y-99073103D01*
G37*
G36*
X161019499Y-98601445D02*
X161056993Y-98612819D01*
X161091557Y-98631294D01*
X161121847Y-98656153D01*
X161146706Y-98686443D01*
X161165181Y-98721007D01*
X161176555Y-98758501D01*
X161181000Y-98803638D01*
X161181000Y-99542362D01*
X161176555Y-99587499D01*
X161165181Y-99624993D01*
X161146706Y-99659557D01*
X161121847Y-99689847D01*
X161091557Y-99714706D01*
X161056993Y-99733181D01*
X161019499Y-99744555D01*
X160974362Y-99749000D01*
X160335638Y-99749000D01*
X160290501Y-99744555D01*
X160253007Y-99733181D01*
X160218443Y-99714706D01*
X160188153Y-99689847D01*
X160163294Y-99659557D01*
X160144819Y-99624993D01*
X160133445Y-99587499D01*
X160129000Y-99542362D01*
X160129000Y-98803638D01*
X160133445Y-98758501D01*
X160144819Y-98721007D01*
X160163294Y-98686443D01*
X160188153Y-98656153D01*
X160218443Y-98631294D01*
X160253007Y-98612819D01*
X160290501Y-98601445D01*
X160335638Y-98597000D01*
X160974362Y-98597000D01*
X161019499Y-98601445D01*
X161019499Y-98601445D01*
G37*
G36*
X167369499Y-98347445D02*
X167406993Y-98358819D01*
X167441557Y-98377294D01*
X167471847Y-98402153D01*
X167496706Y-98432443D01*
X167515181Y-98467007D01*
X167526555Y-98504501D01*
X167531000Y-98549638D01*
X167531000Y-99288362D01*
X167526555Y-99333499D01*
X167515181Y-99370993D01*
X167496706Y-99405557D01*
X167471847Y-99435847D01*
X167441557Y-99460706D01*
X167406993Y-99479181D01*
X167369499Y-99490555D01*
X167324362Y-99495000D01*
X166685638Y-99495000D01*
X166640501Y-99490555D01*
X166603007Y-99479181D01*
X166568443Y-99460706D01*
X166538153Y-99435847D01*
X166513294Y-99405557D01*
X166494819Y-99370993D01*
X166483445Y-99333499D01*
X166479000Y-99288362D01*
X166479000Y-98549638D01*
X166483445Y-98504501D01*
X166494819Y-98467007D01*
X166513294Y-98432443D01*
X166538153Y-98402153D01*
X166568443Y-98377294D01*
X166603007Y-98358819D01*
X166640501Y-98347445D01*
X166685638Y-98343000D01*
X167324362Y-98343000D01*
X167369499Y-98347445D01*
X167369499Y-98347445D01*
G37*
G36*
X172806242Y-98173404D02*
X172843339Y-98184657D01*
X172877520Y-98202927D01*
X172907482Y-98227518D01*
X172932073Y-98257480D01*
X172950343Y-98291661D01*
X172961596Y-98328758D01*
X172966000Y-98373473D01*
X172966000Y-99266527D01*
X172961596Y-99311242D01*
X172950343Y-99348339D01*
X172932073Y-99382520D01*
X172907482Y-99412482D01*
X172877520Y-99437073D01*
X172843339Y-99455343D01*
X172806242Y-99466596D01*
X172761527Y-99471000D01*
X171268473Y-99471000D01*
X171223758Y-99466596D01*
X171186661Y-99455343D01*
X171152480Y-99437073D01*
X171122518Y-99412482D01*
X171097927Y-99382520D01*
X171079657Y-99348339D01*
X171068404Y-99311242D01*
X171064000Y-99266527D01*
X171064000Y-98373473D01*
X171068404Y-98328758D01*
X171079657Y-98291661D01*
X171097927Y-98257480D01*
X171122518Y-98227518D01*
X171152480Y-98202927D01*
X171186661Y-98184657D01*
X171223758Y-98173404D01*
X171268473Y-98169000D01*
X172761527Y-98169000D01*
X172806242Y-98173404D01*
X172806242Y-98173404D01*
G37*
G36*
X164656000Y-99295000D02*
X163004000Y-99295000D01*
X163004000Y-96793000D01*
X164656000Y-96793000D01*
X164656000Y-99295000D01*
X164656000Y-99295000D01*
G37*
G36*
X165756000Y-99245000D02*
X165004000Y-99245000D01*
X165004000Y-96843000D01*
X165756000Y-96843000D01*
X165756000Y-99245000D01*
X165756000Y-99245000D01*
G37*
G36*
X162656000Y-99245000D02*
X161904000Y-99245000D01*
X161904000Y-96843000D01*
X162656000Y-96843000D01*
X162656000Y-99245000D01*
X162656000Y-99245000D01*
G37*
G36*
X126077946Y-95362604D02*
X126382350Y-95423153D01*
X126710122Y-95558921D01*
X127005109Y-95756025D01*
X127255975Y-96006891D01*
X127453079Y-96301878D01*
X127588847Y-96629650D01*
X127640896Y-96891323D01*
X127658060Y-96977610D01*
X127658060Y-97332390D01*
X127655651Y-97344500D01*
X127588847Y-97680350D01*
X127453079Y-98008122D01*
X127255975Y-98303109D01*
X127005109Y-98553975D01*
X126710122Y-98751079D01*
X126382350Y-98886847D01*
X126083905Y-98946211D01*
X126034390Y-98956060D01*
X125679610Y-98956060D01*
X125630095Y-98946211D01*
X125331650Y-98886847D01*
X125003878Y-98751079D01*
X124708891Y-98553975D01*
X124458025Y-98303109D01*
X124260921Y-98008122D01*
X124125153Y-97680350D01*
X124058349Y-97344500D01*
X124055940Y-97332390D01*
X124055940Y-96977610D01*
X124073104Y-96891323D01*
X124125153Y-96629650D01*
X124260921Y-96301878D01*
X124458025Y-96006891D01*
X124708891Y-95756025D01*
X125003878Y-95558921D01*
X125331650Y-95423153D01*
X125636054Y-95362604D01*
X125679610Y-95353940D01*
X126034390Y-95353940D01*
X126077946Y-95362604D01*
X126077946Y-95362604D01*
G37*
G36*
X158642499Y-97141445D02*
X158679993Y-97152819D01*
X158714557Y-97171294D01*
X158744847Y-97196153D01*
X158769706Y-97226443D01*
X158788181Y-97261007D01*
X158799555Y-97298501D01*
X158804000Y-97343638D01*
X158804000Y-97982362D01*
X158799555Y-98027499D01*
X158788181Y-98064993D01*
X158769706Y-98099557D01*
X158744847Y-98129847D01*
X158714557Y-98154706D01*
X158679993Y-98173181D01*
X158642499Y-98184555D01*
X158597362Y-98189000D01*
X157858638Y-98189000D01*
X157813501Y-98184555D01*
X157776007Y-98173181D01*
X157741443Y-98154706D01*
X157711153Y-98129847D01*
X157686294Y-98099557D01*
X157667819Y-98064993D01*
X157656445Y-98027499D01*
X157652000Y-97982362D01*
X157652000Y-97343638D01*
X157656445Y-97298501D01*
X157667819Y-97261007D01*
X157686294Y-97226443D01*
X157711153Y-97196153D01*
X157741443Y-97171294D01*
X157776007Y-97152819D01*
X157813501Y-97141445D01*
X157858638Y-97137000D01*
X158597362Y-97137000D01*
X158642499Y-97141445D01*
X158642499Y-97141445D01*
G37*
G36*
X154959499Y-97141445D02*
X154996993Y-97152819D01*
X155031557Y-97171294D01*
X155061847Y-97196153D01*
X155086706Y-97226443D01*
X155105181Y-97261007D01*
X155116555Y-97298501D01*
X155121000Y-97343638D01*
X155121000Y-97982362D01*
X155116555Y-98027499D01*
X155105181Y-98064993D01*
X155086706Y-98099557D01*
X155061847Y-98129847D01*
X155031557Y-98154706D01*
X154996993Y-98173181D01*
X154959499Y-98184555D01*
X154914362Y-98189000D01*
X154175638Y-98189000D01*
X154130501Y-98184555D01*
X154093007Y-98173181D01*
X154058443Y-98154706D01*
X154028153Y-98129847D01*
X154003294Y-98099557D01*
X153984819Y-98064993D01*
X153973445Y-98027499D01*
X153969000Y-97982362D01*
X153969000Y-97343638D01*
X153973445Y-97298501D01*
X153984819Y-97261007D01*
X154003294Y-97226443D01*
X154028153Y-97196153D01*
X154058443Y-97171294D01*
X154093007Y-97152819D01*
X154130501Y-97141445D01*
X154175638Y-97137000D01*
X154914362Y-97137000D01*
X154959499Y-97141445D01*
X154959499Y-97141445D01*
G37*
G36*
X153209499Y-97141445D02*
X153246993Y-97152819D01*
X153281557Y-97171294D01*
X153311847Y-97196153D01*
X153336706Y-97226443D01*
X153355181Y-97261007D01*
X153366555Y-97298501D01*
X153371000Y-97343638D01*
X153371000Y-97982362D01*
X153366555Y-98027499D01*
X153355181Y-98064993D01*
X153336706Y-98099557D01*
X153311847Y-98129847D01*
X153281557Y-98154706D01*
X153246993Y-98173181D01*
X153209499Y-98184555D01*
X153164362Y-98189000D01*
X152425638Y-98189000D01*
X152380501Y-98184555D01*
X152343007Y-98173181D01*
X152308443Y-98154706D01*
X152278153Y-98129847D01*
X152253294Y-98099557D01*
X152234819Y-98064993D01*
X152223445Y-98027499D01*
X152219000Y-97982362D01*
X152219000Y-97343638D01*
X152223445Y-97298501D01*
X152234819Y-97261007D01*
X152253294Y-97226443D01*
X152278153Y-97196153D01*
X152308443Y-97171294D01*
X152343007Y-97152819D01*
X152380501Y-97141445D01*
X152425638Y-97137000D01*
X153164362Y-97137000D01*
X153209499Y-97141445D01*
X153209499Y-97141445D01*
G37*
G36*
X156892499Y-97141445D02*
X156929993Y-97152819D01*
X156964557Y-97171294D01*
X156994847Y-97196153D01*
X157019706Y-97226443D01*
X157038181Y-97261007D01*
X157049555Y-97298501D01*
X157054000Y-97343638D01*
X157054000Y-97982362D01*
X157049555Y-98027499D01*
X157038181Y-98064993D01*
X157019706Y-98099557D01*
X156994847Y-98129847D01*
X156964557Y-98154706D01*
X156929993Y-98173181D01*
X156892499Y-98184555D01*
X156847362Y-98189000D01*
X156108638Y-98189000D01*
X156063501Y-98184555D01*
X156026007Y-98173181D01*
X155991443Y-98154706D01*
X155961153Y-98129847D01*
X155936294Y-98099557D01*
X155917819Y-98064993D01*
X155906445Y-98027499D01*
X155902000Y-97982362D01*
X155902000Y-97343638D01*
X155906445Y-97298501D01*
X155917819Y-97261007D01*
X155936294Y-97226443D01*
X155961153Y-97196153D01*
X155991443Y-97171294D01*
X156026007Y-97152819D01*
X156063501Y-97141445D01*
X156108638Y-97137000D01*
X156847362Y-97137000D01*
X156892499Y-97141445D01*
X156892499Y-97141445D01*
G37*
G36*
X161019499Y-96851445D02*
X161056993Y-96862819D01*
X161091557Y-96881294D01*
X161121847Y-96906153D01*
X161146706Y-96936443D01*
X161165181Y-96971007D01*
X161176555Y-97008501D01*
X161181000Y-97053638D01*
X161181000Y-97792362D01*
X161176555Y-97837499D01*
X161165181Y-97874993D01*
X161146706Y-97909557D01*
X161121847Y-97939847D01*
X161091557Y-97964706D01*
X161056993Y-97983181D01*
X161019499Y-97994555D01*
X160974362Y-97999000D01*
X160335638Y-97999000D01*
X160290501Y-97994555D01*
X160253007Y-97983181D01*
X160218443Y-97964706D01*
X160188153Y-97939847D01*
X160163294Y-97909557D01*
X160144819Y-97874993D01*
X160133445Y-97837499D01*
X160129000Y-97792362D01*
X160129000Y-97053638D01*
X160133445Y-97008501D01*
X160144819Y-96971007D01*
X160163294Y-96936443D01*
X160188153Y-96906153D01*
X160218443Y-96881294D01*
X160253007Y-96862819D01*
X160290501Y-96851445D01*
X160335638Y-96847000D01*
X160974362Y-96847000D01*
X161019499Y-96851445D01*
X161019499Y-96851445D01*
G37*
G36*
X170224928Y-97171764D02*
X170246011Y-97178160D01*
X170265442Y-97188546D01*
X170282475Y-97202525D01*
X170296454Y-97219558D01*
X170306840Y-97238989D01*
X170313236Y-97260072D01*
X170316000Y-97288140D01*
X170316000Y-97751860D01*
X170313236Y-97779928D01*
X170306840Y-97801011D01*
X170296454Y-97820442D01*
X170282475Y-97837475D01*
X170265442Y-97851454D01*
X170246011Y-97861840D01*
X170224928Y-97868236D01*
X170196860Y-97871000D01*
X168783140Y-97871000D01*
X168755072Y-97868236D01*
X168733989Y-97861840D01*
X168714558Y-97851454D01*
X168697525Y-97837475D01*
X168683546Y-97820442D01*
X168673160Y-97801011D01*
X168666764Y-97779928D01*
X168664000Y-97751860D01*
X168664000Y-97288140D01*
X168666764Y-97260072D01*
X168673160Y-97238989D01*
X168683546Y-97219558D01*
X168697525Y-97202525D01*
X168714558Y-97188546D01*
X168733989Y-97178160D01*
X168755072Y-97171764D01*
X168783140Y-97169000D01*
X170196860Y-97169000D01*
X170224928Y-97171764D01*
X170224928Y-97171764D01*
G37*
G36*
X167369499Y-96597445D02*
X167406993Y-96608819D01*
X167441557Y-96627294D01*
X167471847Y-96652153D01*
X167496706Y-96682443D01*
X167515181Y-96717007D01*
X167526555Y-96754501D01*
X167531000Y-96799638D01*
X167531000Y-97538362D01*
X167526555Y-97583499D01*
X167515181Y-97620993D01*
X167496706Y-97655557D01*
X167471847Y-97685847D01*
X167441557Y-97710706D01*
X167406993Y-97729181D01*
X167369499Y-97740555D01*
X167324362Y-97745000D01*
X166685638Y-97745000D01*
X166640501Y-97740555D01*
X166603007Y-97729181D01*
X166568443Y-97710706D01*
X166538153Y-97685847D01*
X166513294Y-97655557D01*
X166494819Y-97620993D01*
X166483445Y-97583499D01*
X166479000Y-97538362D01*
X166479000Y-96799638D01*
X166483445Y-96754501D01*
X166494819Y-96717007D01*
X166513294Y-96682443D01*
X166538153Y-96652153D01*
X166568443Y-96627294D01*
X166603007Y-96608819D01*
X166640501Y-96597445D01*
X166685638Y-96593000D01*
X167324362Y-96593000D01*
X167369499Y-96597445D01*
X167369499Y-96597445D01*
G37*
G36*
X142197847Y-87786000D02*
X142197888Y-87786419D01*
X142205001Y-87809868D01*
X142216552Y-87831479D01*
X142232098Y-87850421D01*
X142251040Y-87865967D01*
X142284196Y-87881649D01*
X142290129Y-87883449D01*
X142298987Y-87888184D01*
X142311529Y-87898477D01*
X142472543Y-88059491D01*
X142482836Y-88072033D01*
X142487571Y-88080890D01*
X142489369Y-88086819D01*
X142498746Y-88109458D01*
X142512360Y-88129832D01*
X142529687Y-88147159D01*
X142550062Y-88160773D01*
X142572701Y-88170151D01*
X142584306Y-88172459D01*
X142889237Y-88477390D01*
X142889243Y-88477395D01*
X143307839Y-88895991D01*
X143307844Y-88895997D01*
X144657004Y-90245157D01*
X144657010Y-90245162D01*
X145026273Y-90614425D01*
X145026315Y-90614847D01*
X145033428Y-90638296D01*
X145044979Y-90659907D01*
X145060525Y-90678849D01*
X145079467Y-90694395D01*
X145101078Y-90705946D01*
X145112629Y-90710079D01*
X145118559Y-90711878D01*
X145127414Y-90716611D01*
X145139956Y-90726904D01*
X145300970Y-90887918D01*
X145311263Y-90900460D01*
X145315998Y-90909317D01*
X145317796Y-90915246D01*
X145327173Y-90937885D01*
X145340787Y-90958259D01*
X145358114Y-90975586D01*
X145378489Y-90989200D01*
X145401128Y-90998578D01*
X145412733Y-91000886D01*
X146047883Y-91636036D01*
X145445428Y-92238491D01*
X144827312Y-91620375D01*
X144808370Y-91604829D01*
X144786759Y-91593278D01*
X144763310Y-91586165D01*
X144738924Y-91583763D01*
X144714538Y-91586165D01*
X144691089Y-91593278D01*
X144669478Y-91604829D01*
X144650536Y-91620374D01*
X144528206Y-91742703D01*
X144512661Y-91761645D01*
X144501109Y-91783256D01*
X144493996Y-91806705D01*
X144491594Y-91831091D01*
X144493996Y-91855478D01*
X144501109Y-91878927D01*
X144512660Y-91900538D01*
X144528206Y-91919480D01*
X144937726Y-92329000D01*
X141224000Y-96042726D01*
X137986053Y-92804779D01*
X137967111Y-92789233D01*
X137945500Y-92777682D01*
X137922051Y-92770569D01*
X137897665Y-92768167D01*
X137873279Y-92770569D01*
X137849830Y-92777682D01*
X137828219Y-92789233D01*
X137809276Y-92804779D01*
X137686947Y-92927109D01*
X137671402Y-92946051D01*
X137659851Y-92967662D01*
X137652738Y-92991111D01*
X137650336Y-93015498D01*
X137652738Y-93039884D01*
X137659851Y-93063333D01*
X137671403Y-93084944D01*
X137686948Y-93103885D01*
X138039893Y-93456830D01*
X138039898Y-93456836D01*
X138328398Y-93745336D01*
X138328404Y-93745341D01*
X139807660Y-95224597D01*
X139807665Y-95224603D01*
X140096165Y-95513103D01*
X140096171Y-95513108D01*
X141133491Y-96550428D01*
X140531036Y-97152883D01*
X139558764Y-96180611D01*
X139558758Y-96180606D01*
X139140162Y-95762010D01*
X139140157Y-95762004D01*
X137790997Y-94412844D01*
X137790991Y-94412839D01*
X137372395Y-93994243D01*
X137372390Y-93994237D01*
X137068172Y-93690019D01*
X137068131Y-93689600D01*
X137061018Y-93666151D01*
X137049467Y-93644540D01*
X137033921Y-93625598D01*
X137014979Y-93610052D01*
X136981819Y-93594369D01*
X136975890Y-93592571D01*
X136967033Y-93587836D01*
X136954491Y-93577543D01*
X136793477Y-93416529D01*
X136783184Y-93403987D01*
X136778449Y-93395129D01*
X136776649Y-93389196D01*
X136767271Y-93366557D01*
X136753656Y-93346183D01*
X136736329Y-93328857D01*
X136715953Y-93315244D01*
X136693314Y-93305867D01*
X136681713Y-93303560D01*
X136400117Y-93021964D01*
X137002572Y-92419509D01*
X137267136Y-92684073D01*
X137286078Y-92699619D01*
X137307689Y-92711170D01*
X137331138Y-92718283D01*
X137355524Y-92720685D01*
X137379910Y-92718283D01*
X137403359Y-92711170D01*
X137424970Y-92699619D01*
X137443913Y-92684073D01*
X137566242Y-92561743D01*
X137581787Y-92542801D01*
X137593338Y-92521190D01*
X137600451Y-92497741D01*
X137602853Y-92473354D01*
X137600451Y-92448968D01*
X137593338Y-92425519D01*
X137581786Y-92403908D01*
X137566241Y-92384967D01*
X137510274Y-92329000D01*
X138980454Y-90858820D01*
X138996000Y-90839878D01*
X139007551Y-90818267D01*
X139014664Y-90794818D01*
X139017066Y-90770432D01*
X139014664Y-90746046D01*
X139007551Y-90722597D01*
X138996000Y-90700986D01*
X138980454Y-90682044D01*
X138858125Y-90559715D01*
X138839183Y-90544169D01*
X138817572Y-90532618D01*
X138794123Y-90525505D01*
X138769737Y-90523103D01*
X138745351Y-90525505D01*
X138721902Y-90532618D01*
X138700291Y-90544169D01*
X138681349Y-90559715D01*
X138328398Y-90912665D01*
X137002572Y-92238491D01*
X136400117Y-91636036D01*
X137349055Y-90687098D01*
X137372390Y-90663764D01*
X137372399Y-90663753D01*
X137790986Y-90245166D01*
X137790997Y-90245157D01*
X137814331Y-90221822D01*
X138095214Y-89940939D01*
X138095633Y-89940898D01*
X138119082Y-89933785D01*
X138140693Y-89922234D01*
X138159635Y-89906688D01*
X138175181Y-89887746D01*
X138190864Y-89854586D01*
X138192662Y-89848657D01*
X138197397Y-89839800D01*
X138207690Y-89827258D01*
X138368704Y-89666244D01*
X138381246Y-89655951D01*
X138390104Y-89651216D01*
X138396037Y-89649416D01*
X138418676Y-89640038D01*
X138439050Y-89626423D01*
X138456376Y-89609096D01*
X138469989Y-89588720D01*
X138479366Y-89566081D01*
X138481673Y-89554480D01*
X139116822Y-88919331D01*
X139140157Y-88895997D01*
X139140166Y-88895986D01*
X139558753Y-88477399D01*
X139558764Y-88477390D01*
X139582098Y-88454055D01*
X140531036Y-87505117D01*
X141133491Y-88107572D01*
X139101160Y-90139903D01*
X139085615Y-90158845D01*
X139074064Y-90180456D01*
X139066951Y-90203905D01*
X139064549Y-90228291D01*
X139066951Y-90252678D01*
X139074064Y-90276127D01*
X139085615Y-90297737D01*
X139101161Y-90316679D01*
X139223490Y-90439008D01*
X139242432Y-90454554D01*
X139264043Y-90466105D01*
X139287492Y-90473218D01*
X139311878Y-90475620D01*
X139336264Y-90473218D01*
X139359713Y-90466105D01*
X139381324Y-90454554D01*
X139400266Y-90439008D01*
X140836610Y-89002664D01*
X141663167Y-89002664D01*
X141665569Y-89027051D01*
X141672682Y-89050500D01*
X141684233Y-89072111D01*
X141699779Y-89091053D01*
X144108394Y-91499668D01*
X144127336Y-91515214D01*
X144148947Y-91526765D01*
X144172396Y-91533878D01*
X144196782Y-91536280D01*
X144221168Y-91533878D01*
X144244617Y-91526765D01*
X144266228Y-91515214D01*
X144285170Y-91499668D01*
X144407500Y-91377338D01*
X144423046Y-91358396D01*
X144434597Y-91336785D01*
X144441710Y-91313336D01*
X144444112Y-91288950D01*
X144441710Y-91264564D01*
X144434597Y-91241115D01*
X144423046Y-91219504D01*
X144407500Y-91200562D01*
X144119603Y-90912665D01*
X144119597Y-90912660D01*
X142640341Y-89433404D01*
X142640336Y-89433398D01*
X142351836Y-89144898D01*
X142351830Y-89144893D01*
X141998885Y-88791948D01*
X141979943Y-88776402D01*
X141958332Y-88764851D01*
X141934883Y-88757738D01*
X141910497Y-88755336D01*
X141886111Y-88757738D01*
X141862662Y-88764851D01*
X141841051Y-88776402D01*
X141822109Y-88791947D01*
X141699779Y-88914276D01*
X141684234Y-88933218D01*
X141672682Y-88954829D01*
X141665569Y-88978278D01*
X141663167Y-89002664D01*
X140836610Y-89002664D01*
X141224000Y-88615274D01*
X141279967Y-88671241D01*
X141298909Y-88686787D01*
X141320520Y-88698338D01*
X141343969Y-88705451D01*
X141368355Y-88707853D01*
X141392741Y-88705451D01*
X141416190Y-88698338D01*
X141437801Y-88686787D01*
X141456743Y-88671242D01*
X141579073Y-88548913D01*
X141594618Y-88529971D01*
X141606170Y-88508360D01*
X141613283Y-88484911D01*
X141615685Y-88460525D01*
X141613283Y-88436138D01*
X141606170Y-88412689D01*
X141594619Y-88391078D01*
X141579073Y-88372136D01*
X141314509Y-88107572D01*
X141916964Y-87505117D01*
X142197847Y-87786000D01*
X142197847Y-87786000D01*
G37*
G36*
X146047883Y-93021964D02*
X145364110Y-93705737D01*
X145075611Y-93994237D01*
X144657004Y-94412844D01*
X144303450Y-94766397D01*
X143596343Y-95473504D01*
X143307844Y-95762004D01*
X142889237Y-96180611D01*
X142535683Y-96534164D01*
X141916964Y-97152883D01*
X141314509Y-96550428D01*
X142351825Y-95513112D01*
X142351836Y-95513103D01*
X142375171Y-95489769D01*
X142375170Y-95489768D01*
X142617001Y-95247937D01*
X142617002Y-95247938D01*
X142640336Y-95224603D01*
X142640345Y-95224592D01*
X144119592Y-93745345D01*
X144119603Y-93745336D01*
X144142938Y-93722002D01*
X144142937Y-93722001D01*
X144384768Y-93480170D01*
X144384769Y-93480171D01*
X144408103Y-93456836D01*
X144408112Y-93456825D01*
X145445428Y-92419509D01*
X146047883Y-93021964D01*
X146047883Y-93021964D01*
G37*
G36*
X170224928Y-96171764D02*
X170246011Y-96178160D01*
X170265442Y-96188546D01*
X170282475Y-96202525D01*
X170296454Y-96219558D01*
X170306840Y-96238989D01*
X170313236Y-96260072D01*
X170316000Y-96288140D01*
X170316000Y-96751860D01*
X170313236Y-96779928D01*
X170306840Y-96801011D01*
X170296454Y-96820442D01*
X170282475Y-96837475D01*
X170265442Y-96851454D01*
X170246011Y-96861840D01*
X170224928Y-96868236D01*
X170196860Y-96871000D01*
X168783140Y-96871000D01*
X168755072Y-96868236D01*
X168733989Y-96861840D01*
X168714558Y-96851454D01*
X168697525Y-96837475D01*
X168683546Y-96820442D01*
X168673160Y-96801011D01*
X168666764Y-96779928D01*
X168664000Y-96751860D01*
X168664000Y-96288140D01*
X168666764Y-96260072D01*
X168673160Y-96238989D01*
X168683546Y-96219558D01*
X168697525Y-96202525D01*
X168714558Y-96188546D01*
X168733989Y-96178160D01*
X168755072Y-96171764D01*
X168783140Y-96169000D01*
X170196860Y-96169000D01*
X170224928Y-96171764D01*
X170224928Y-96171764D01*
G37*
G36*
X132317499Y-95553445D02*
X132354993Y-95564819D01*
X132389557Y-95583294D01*
X132419847Y-95608153D01*
X132444706Y-95638443D01*
X132463181Y-95673007D01*
X132474555Y-95710501D01*
X132479000Y-95755638D01*
X132479000Y-96494362D01*
X132474555Y-96539499D01*
X132463181Y-96576993D01*
X132444706Y-96611557D01*
X132419847Y-96641847D01*
X132389557Y-96666706D01*
X132354993Y-96685181D01*
X132317499Y-96696555D01*
X132272362Y-96701000D01*
X131633638Y-96701000D01*
X131588501Y-96696555D01*
X131551007Y-96685181D01*
X131516443Y-96666706D01*
X131486153Y-96641847D01*
X131461294Y-96611557D01*
X131442819Y-96576993D01*
X131431445Y-96539499D01*
X131427000Y-96494362D01*
X131427000Y-95755638D01*
X131431445Y-95710501D01*
X131442819Y-95673007D01*
X131461294Y-95638443D01*
X131486153Y-95608153D01*
X131516443Y-95583294D01*
X131551007Y-95564819D01*
X131588501Y-95553445D01*
X131633638Y-95549000D01*
X132272362Y-95549000D01*
X132317499Y-95553445D01*
X132317499Y-95553445D01*
G37*
G36*
X134075636Y-95303981D02*
X134113130Y-95315355D01*
X134147694Y-95333830D01*
X134182755Y-95362604D01*
X134634396Y-95814245D01*
X134663170Y-95849306D01*
X134681645Y-95883870D01*
X134693019Y-95921364D01*
X134696859Y-95960363D01*
X134693019Y-95999362D01*
X134681645Y-96036856D01*
X134663170Y-96071420D01*
X134634396Y-96106481D01*
X134112045Y-96628832D01*
X134076984Y-96657606D01*
X134042420Y-96676081D01*
X134004926Y-96687455D01*
X133965927Y-96691295D01*
X133926928Y-96687455D01*
X133889434Y-96676081D01*
X133854870Y-96657606D01*
X133819809Y-96628832D01*
X133368168Y-96177191D01*
X133339394Y-96142130D01*
X133320919Y-96107566D01*
X133309545Y-96070072D01*
X133305705Y-96031073D01*
X133309545Y-95992074D01*
X133320919Y-95954580D01*
X133339394Y-95920016D01*
X133368168Y-95884955D01*
X133890519Y-95362604D01*
X133925580Y-95333830D01*
X133960144Y-95315355D01*
X133997638Y-95303981D01*
X134036637Y-95300141D01*
X134075636Y-95303981D01*
X134075636Y-95303981D01*
G37*
G36*
X156892499Y-95490445D02*
X156929993Y-95501819D01*
X156964557Y-95520294D01*
X156994847Y-95545153D01*
X157019706Y-95575443D01*
X157038181Y-95610007D01*
X157049555Y-95647501D01*
X157054000Y-95692638D01*
X157054000Y-96331362D01*
X157049555Y-96376499D01*
X157038181Y-96413993D01*
X157019706Y-96448557D01*
X156994847Y-96478847D01*
X156964557Y-96503706D01*
X156929993Y-96522181D01*
X156892499Y-96533555D01*
X156847362Y-96538000D01*
X156108638Y-96538000D01*
X156063501Y-96533555D01*
X156026007Y-96522181D01*
X155991443Y-96503706D01*
X155961153Y-96478847D01*
X155936294Y-96448557D01*
X155917819Y-96413993D01*
X155906445Y-96376499D01*
X155902000Y-96331362D01*
X155902000Y-95692638D01*
X155906445Y-95647501D01*
X155917819Y-95610007D01*
X155936294Y-95575443D01*
X155961153Y-95545153D01*
X155991443Y-95520294D01*
X156026007Y-95501819D01*
X156063501Y-95490445D01*
X156108638Y-95486000D01*
X156847362Y-95486000D01*
X156892499Y-95490445D01*
X156892499Y-95490445D01*
G37*
G36*
X158642499Y-95490445D02*
X158679993Y-95501819D01*
X158714557Y-95520294D01*
X158744847Y-95545153D01*
X158769706Y-95575443D01*
X158788181Y-95610007D01*
X158799555Y-95647501D01*
X158804000Y-95692638D01*
X158804000Y-96331362D01*
X158799555Y-96376499D01*
X158788181Y-96413993D01*
X158769706Y-96448557D01*
X158744847Y-96478847D01*
X158714557Y-96503706D01*
X158679993Y-96522181D01*
X158642499Y-96533555D01*
X158597362Y-96538000D01*
X157858638Y-96538000D01*
X157813501Y-96533555D01*
X157776007Y-96522181D01*
X157741443Y-96503706D01*
X157711153Y-96478847D01*
X157686294Y-96448557D01*
X157667819Y-96413993D01*
X157656445Y-96376499D01*
X157652000Y-96331362D01*
X157652000Y-95692638D01*
X157656445Y-95647501D01*
X157667819Y-95610007D01*
X157686294Y-95575443D01*
X157711153Y-95545153D01*
X157741443Y-95520294D01*
X157776007Y-95501819D01*
X157813501Y-95490445D01*
X157858638Y-95486000D01*
X158597362Y-95486000D01*
X158642499Y-95490445D01*
X158642499Y-95490445D01*
G37*
G36*
X149752499Y-95109445D02*
X149789993Y-95120819D01*
X149824557Y-95139294D01*
X149854847Y-95164153D01*
X149879706Y-95194443D01*
X149898181Y-95229007D01*
X149909555Y-95266501D01*
X149914000Y-95311638D01*
X149914000Y-95950362D01*
X149909555Y-95995499D01*
X149898181Y-96032993D01*
X149879706Y-96067557D01*
X149854847Y-96097847D01*
X149824557Y-96122706D01*
X149789993Y-96141181D01*
X149752499Y-96152555D01*
X149707362Y-96157000D01*
X148968638Y-96157000D01*
X148923501Y-96152555D01*
X148886007Y-96141181D01*
X148851443Y-96122706D01*
X148821153Y-96097847D01*
X148796294Y-96067557D01*
X148777819Y-96032993D01*
X148766445Y-95995499D01*
X148762000Y-95950362D01*
X148762000Y-95311638D01*
X148766445Y-95266501D01*
X148777819Y-95229007D01*
X148796294Y-95194443D01*
X148821153Y-95164153D01*
X148851443Y-95139294D01*
X148886007Y-95120819D01*
X148923501Y-95109445D01*
X148968638Y-95105000D01*
X149707362Y-95105000D01*
X149752499Y-95109445D01*
X149752499Y-95109445D01*
G37*
G36*
X148002499Y-95109445D02*
X148039993Y-95120819D01*
X148074557Y-95139294D01*
X148104847Y-95164153D01*
X148129706Y-95194443D01*
X148148181Y-95229007D01*
X148159555Y-95266501D01*
X148164000Y-95311638D01*
X148164000Y-95950362D01*
X148159555Y-95995499D01*
X148148181Y-96032993D01*
X148129706Y-96067557D01*
X148104847Y-96097847D01*
X148074557Y-96122706D01*
X148039993Y-96141181D01*
X148002499Y-96152555D01*
X147957362Y-96157000D01*
X147218638Y-96157000D01*
X147173501Y-96152555D01*
X147136007Y-96141181D01*
X147101443Y-96122706D01*
X147071153Y-96097847D01*
X147046294Y-96067557D01*
X147027819Y-96032993D01*
X147016445Y-95995499D01*
X147012000Y-95950362D01*
X147012000Y-95311638D01*
X147016445Y-95266501D01*
X147027819Y-95229007D01*
X147046294Y-95194443D01*
X147071153Y-95164153D01*
X147101443Y-95139294D01*
X147136007Y-95120819D01*
X147173501Y-95109445D01*
X147218638Y-95105000D01*
X147957362Y-95105000D01*
X148002499Y-95109445D01*
X148002499Y-95109445D01*
G37*
G36*
X162706499Y-94855445D02*
X162743993Y-94866819D01*
X162778557Y-94885294D01*
X162808847Y-94910153D01*
X162833706Y-94940443D01*
X162852181Y-94975007D01*
X162863555Y-95012501D01*
X162868000Y-95057638D01*
X162868000Y-95696362D01*
X162863555Y-95741499D01*
X162852181Y-95778993D01*
X162833706Y-95813557D01*
X162808847Y-95843847D01*
X162778557Y-95868706D01*
X162743993Y-95887181D01*
X162706499Y-95898555D01*
X162661362Y-95903000D01*
X161922638Y-95903000D01*
X161877501Y-95898555D01*
X161840007Y-95887181D01*
X161805443Y-95868706D01*
X161775153Y-95843847D01*
X161750294Y-95813557D01*
X161731819Y-95778993D01*
X161720445Y-95741499D01*
X161716000Y-95696362D01*
X161716000Y-95057638D01*
X161720445Y-95012501D01*
X161731819Y-94975007D01*
X161750294Y-94940443D01*
X161775153Y-94910153D01*
X161805443Y-94885294D01*
X161840007Y-94866819D01*
X161877501Y-94855445D01*
X161922638Y-94851000D01*
X162661362Y-94851000D01*
X162706499Y-94855445D01*
X162706499Y-94855445D01*
G37*
G36*
X160956499Y-94855445D02*
X160993993Y-94866819D01*
X161028557Y-94885294D01*
X161058847Y-94910153D01*
X161083706Y-94940443D01*
X161102181Y-94975007D01*
X161113555Y-95012501D01*
X161118000Y-95057638D01*
X161118000Y-95696362D01*
X161113555Y-95741499D01*
X161102181Y-95778993D01*
X161083706Y-95813557D01*
X161058847Y-95843847D01*
X161028557Y-95868706D01*
X160993993Y-95887181D01*
X160956499Y-95898555D01*
X160911362Y-95903000D01*
X160172638Y-95903000D01*
X160127501Y-95898555D01*
X160090007Y-95887181D01*
X160055443Y-95868706D01*
X160025153Y-95843847D01*
X160000294Y-95813557D01*
X159981819Y-95778993D01*
X159970445Y-95741499D01*
X159966000Y-95696362D01*
X159966000Y-95057638D01*
X159970445Y-95012501D01*
X159981819Y-94975007D01*
X160000294Y-94940443D01*
X160025153Y-94910153D01*
X160055443Y-94885294D01*
X160090007Y-94866819D01*
X160127501Y-94855445D01*
X160172638Y-94851000D01*
X160911362Y-94851000D01*
X160956499Y-94855445D01*
X160956499Y-94855445D01*
G37*
G36*
X170224928Y-95171764D02*
X170246011Y-95178160D01*
X170265442Y-95188546D01*
X170282475Y-95202525D01*
X170296454Y-95219558D01*
X170306840Y-95238989D01*
X170313236Y-95260072D01*
X170316000Y-95288140D01*
X170316000Y-95751860D01*
X170313236Y-95779928D01*
X170306840Y-95801011D01*
X170296454Y-95820442D01*
X170282475Y-95837475D01*
X170265442Y-95851454D01*
X170246011Y-95861840D01*
X170224928Y-95868236D01*
X170196860Y-95871000D01*
X168783140Y-95871000D01*
X168755072Y-95868236D01*
X168733989Y-95861840D01*
X168714558Y-95851454D01*
X168697525Y-95837475D01*
X168683546Y-95820442D01*
X168673160Y-95801011D01*
X168666764Y-95779928D01*
X168664000Y-95751860D01*
X168664000Y-95288140D01*
X168666764Y-95260072D01*
X168673160Y-95238989D01*
X168683546Y-95219558D01*
X168697525Y-95202525D01*
X168714558Y-95188546D01*
X168733989Y-95178160D01*
X168755072Y-95171764D01*
X168783140Y-95169000D01*
X170196860Y-95169000D01*
X170224928Y-95171764D01*
X170224928Y-95171764D01*
G37*
G36*
X135313072Y-94066545D02*
X135350566Y-94077919D01*
X135385130Y-94096394D01*
X135420191Y-94125168D01*
X135871832Y-94576809D01*
X135900606Y-94611870D01*
X135919081Y-94646434D01*
X135930455Y-94683928D01*
X135934295Y-94722927D01*
X135930455Y-94761926D01*
X135919081Y-94799420D01*
X135900606Y-94833984D01*
X135871832Y-94869045D01*
X135349481Y-95391396D01*
X135314420Y-95420170D01*
X135279856Y-95438645D01*
X135242362Y-95450019D01*
X135203363Y-95453859D01*
X135164364Y-95450019D01*
X135126870Y-95438645D01*
X135092306Y-95420170D01*
X135057245Y-95391396D01*
X134605604Y-94939755D01*
X134576830Y-94904694D01*
X134558355Y-94870130D01*
X134546981Y-94832636D01*
X134543141Y-94793637D01*
X134546981Y-94754638D01*
X134558355Y-94717144D01*
X134576830Y-94682580D01*
X134605604Y-94647519D01*
X135127955Y-94125168D01*
X135163016Y-94096394D01*
X135197580Y-94077919D01*
X135235074Y-94066545D01*
X135274073Y-94062705D01*
X135313072Y-94066545D01*
X135313072Y-94066545D01*
G37*
G36*
X132317499Y-93803445D02*
X132354993Y-93814819D01*
X132389557Y-93833294D01*
X132419847Y-93858153D01*
X132444706Y-93888443D01*
X132463181Y-93923007D01*
X132474555Y-93960501D01*
X132479000Y-94005638D01*
X132479000Y-94744362D01*
X132474555Y-94789499D01*
X132463181Y-94826993D01*
X132444706Y-94861557D01*
X132419847Y-94891847D01*
X132389557Y-94916706D01*
X132354993Y-94935181D01*
X132317499Y-94946555D01*
X132272362Y-94951000D01*
X131633638Y-94951000D01*
X131588501Y-94946555D01*
X131551007Y-94935181D01*
X131516443Y-94916706D01*
X131486153Y-94891847D01*
X131461294Y-94861557D01*
X131442819Y-94826993D01*
X131431445Y-94789499D01*
X131427000Y-94744362D01*
X131427000Y-94005638D01*
X131431445Y-93960501D01*
X131442819Y-93923007D01*
X131461294Y-93888443D01*
X131486153Y-93858153D01*
X131516443Y-93833294D01*
X131551007Y-93814819D01*
X131588501Y-93803445D01*
X131633638Y-93799000D01*
X132272362Y-93799000D01*
X132317499Y-93803445D01*
X132317499Y-93803445D01*
G37*
G36*
X153463499Y-93839445D02*
X153500993Y-93850819D01*
X153535557Y-93869294D01*
X153565847Y-93894153D01*
X153590706Y-93924443D01*
X153609181Y-93959007D01*
X153620555Y-93996501D01*
X153625000Y-94041638D01*
X153625000Y-94680362D01*
X153620555Y-94725499D01*
X153609181Y-94762993D01*
X153590706Y-94797557D01*
X153565847Y-94827847D01*
X153535557Y-94852706D01*
X153500993Y-94871181D01*
X153463499Y-94882555D01*
X153418362Y-94887000D01*
X152679638Y-94887000D01*
X152634501Y-94882555D01*
X152597007Y-94871181D01*
X152562443Y-94852706D01*
X152532153Y-94827847D01*
X152507294Y-94797557D01*
X152488819Y-94762993D01*
X152477445Y-94725499D01*
X152473000Y-94680362D01*
X152473000Y-94041638D01*
X152477445Y-93996501D01*
X152488819Y-93959007D01*
X152507294Y-93924443D01*
X152532153Y-93894153D01*
X152562443Y-93869294D01*
X152597007Y-93850819D01*
X152634501Y-93839445D01*
X152679638Y-93835000D01*
X153418362Y-93835000D01*
X153463499Y-93839445D01*
X153463499Y-93839445D01*
G37*
G36*
X158642499Y-93839445D02*
X158679993Y-93850819D01*
X158714557Y-93869294D01*
X158744847Y-93894153D01*
X158769706Y-93924443D01*
X158788181Y-93959007D01*
X158799555Y-93996501D01*
X158804000Y-94041638D01*
X158804000Y-94680362D01*
X158799555Y-94725499D01*
X158788181Y-94762993D01*
X158769706Y-94797557D01*
X158744847Y-94827847D01*
X158714557Y-94852706D01*
X158679993Y-94871181D01*
X158642499Y-94882555D01*
X158597362Y-94887000D01*
X157858638Y-94887000D01*
X157813501Y-94882555D01*
X157776007Y-94871181D01*
X157741443Y-94852706D01*
X157711153Y-94827847D01*
X157686294Y-94797557D01*
X157667819Y-94762993D01*
X157656445Y-94725499D01*
X157652000Y-94680362D01*
X157652000Y-94041638D01*
X157656445Y-93996501D01*
X157667819Y-93959007D01*
X157686294Y-93924443D01*
X157711153Y-93894153D01*
X157741443Y-93869294D01*
X157776007Y-93850819D01*
X157813501Y-93839445D01*
X157858638Y-93835000D01*
X158597362Y-93835000D01*
X158642499Y-93839445D01*
X158642499Y-93839445D01*
G37*
G36*
X155213499Y-93839445D02*
X155250993Y-93850819D01*
X155285557Y-93869294D01*
X155315847Y-93894153D01*
X155340706Y-93924443D01*
X155359181Y-93959007D01*
X155370555Y-93996501D01*
X155375000Y-94041638D01*
X155375000Y-94680362D01*
X155370555Y-94725499D01*
X155359181Y-94762993D01*
X155340706Y-94797557D01*
X155315847Y-94827847D01*
X155285557Y-94852706D01*
X155250993Y-94871181D01*
X155213499Y-94882555D01*
X155168362Y-94887000D01*
X154429638Y-94887000D01*
X154384501Y-94882555D01*
X154347007Y-94871181D01*
X154312443Y-94852706D01*
X154282153Y-94827847D01*
X154257294Y-94797557D01*
X154238819Y-94762993D01*
X154227445Y-94725499D01*
X154223000Y-94680362D01*
X154223000Y-94041638D01*
X154227445Y-93996501D01*
X154238819Y-93959007D01*
X154257294Y-93924443D01*
X154282153Y-93894153D01*
X154312443Y-93869294D01*
X154347007Y-93850819D01*
X154384501Y-93839445D01*
X154429638Y-93835000D01*
X155168362Y-93835000D01*
X155213499Y-93839445D01*
X155213499Y-93839445D01*
G37*
G36*
X156892499Y-93839445D02*
X156929993Y-93850819D01*
X156964557Y-93869294D01*
X156994847Y-93894153D01*
X157019706Y-93924443D01*
X157038181Y-93959007D01*
X157049555Y-93996501D01*
X157054000Y-94041638D01*
X157054000Y-94680362D01*
X157049555Y-94725499D01*
X157038181Y-94762993D01*
X157019706Y-94797557D01*
X156994847Y-94827847D01*
X156964557Y-94852706D01*
X156929993Y-94871181D01*
X156892499Y-94882555D01*
X156847362Y-94887000D01*
X156108638Y-94887000D01*
X156063501Y-94882555D01*
X156026007Y-94871181D01*
X155991443Y-94852706D01*
X155961153Y-94827847D01*
X155936294Y-94797557D01*
X155917819Y-94762993D01*
X155906445Y-94725499D01*
X155902000Y-94680362D01*
X155902000Y-94041638D01*
X155906445Y-93996501D01*
X155917819Y-93959007D01*
X155936294Y-93924443D01*
X155961153Y-93894153D01*
X155991443Y-93869294D01*
X156026007Y-93850819D01*
X156063501Y-93839445D01*
X156108638Y-93835000D01*
X156847362Y-93835000D01*
X156892499Y-93839445D01*
X156892499Y-93839445D01*
G37*
G36*
X172806242Y-93573404D02*
X172843339Y-93584657D01*
X172877520Y-93602927D01*
X172907482Y-93627518D01*
X172932073Y-93657480D01*
X172950343Y-93691661D01*
X172961596Y-93728758D01*
X172966000Y-93773473D01*
X172966000Y-94666527D01*
X172961596Y-94711242D01*
X172950343Y-94748339D01*
X172932073Y-94782520D01*
X172907482Y-94812482D01*
X172877520Y-94837073D01*
X172843339Y-94855343D01*
X172806242Y-94866596D01*
X172761527Y-94871000D01*
X171268473Y-94871000D01*
X171223758Y-94866596D01*
X171186661Y-94855343D01*
X171152480Y-94837073D01*
X171122518Y-94812482D01*
X171097927Y-94782520D01*
X171079657Y-94748339D01*
X171068404Y-94711242D01*
X171064000Y-94666527D01*
X171064000Y-93773473D01*
X171068404Y-93728758D01*
X171079657Y-93691661D01*
X171097927Y-93657480D01*
X171122518Y-93627518D01*
X171152480Y-93602927D01*
X171186661Y-93584657D01*
X171223758Y-93573404D01*
X171268473Y-93569000D01*
X172761527Y-93569000D01*
X172806242Y-93573404D01*
X172806242Y-93573404D01*
G37*
G36*
X148045636Y-93017981D02*
X148083130Y-93029355D01*
X148117694Y-93047830D01*
X148152755Y-93076604D01*
X148604396Y-93528245D01*
X148633170Y-93563306D01*
X148651645Y-93597870D01*
X148663019Y-93635364D01*
X148666859Y-93674363D01*
X148663019Y-93713362D01*
X148651645Y-93750856D01*
X148633170Y-93785420D01*
X148604396Y-93820481D01*
X148082045Y-94342832D01*
X148046984Y-94371606D01*
X148012420Y-94390081D01*
X147974926Y-94401455D01*
X147935927Y-94405295D01*
X147896928Y-94401455D01*
X147859434Y-94390081D01*
X147824870Y-94371606D01*
X147789809Y-94342832D01*
X147338168Y-93891191D01*
X147309394Y-93856130D01*
X147290919Y-93821566D01*
X147279545Y-93784072D01*
X147275705Y-93745073D01*
X147279545Y-93706074D01*
X147290919Y-93668580D01*
X147309394Y-93634016D01*
X147338168Y-93598955D01*
X147860519Y-93076604D01*
X147895580Y-93047830D01*
X147930144Y-93029355D01*
X147967638Y-93017981D01*
X148006637Y-93014141D01*
X148045636Y-93017981D01*
X148045636Y-93017981D01*
G37*
G36*
X160956499Y-93331445D02*
X160993993Y-93342819D01*
X161028557Y-93361294D01*
X161058847Y-93386153D01*
X161083706Y-93416443D01*
X161102181Y-93451007D01*
X161113555Y-93488501D01*
X161118000Y-93533638D01*
X161118000Y-94172362D01*
X161113555Y-94217499D01*
X161102181Y-94254993D01*
X161083706Y-94289557D01*
X161058847Y-94319847D01*
X161028557Y-94344706D01*
X160993993Y-94363181D01*
X160956499Y-94374555D01*
X160911362Y-94379000D01*
X160172638Y-94379000D01*
X160127501Y-94374555D01*
X160090007Y-94363181D01*
X160055443Y-94344706D01*
X160025153Y-94319847D01*
X160000294Y-94289557D01*
X159981819Y-94254993D01*
X159970445Y-94217499D01*
X159966000Y-94172362D01*
X159966000Y-93533638D01*
X159970445Y-93488501D01*
X159981819Y-93451007D01*
X160000294Y-93416443D01*
X160025153Y-93386153D01*
X160055443Y-93361294D01*
X160090007Y-93342819D01*
X160127501Y-93331445D01*
X160172638Y-93327000D01*
X160911362Y-93327000D01*
X160956499Y-93331445D01*
X160956499Y-93331445D01*
G37*
G36*
X162706499Y-93331445D02*
X162743993Y-93342819D01*
X162778557Y-93361294D01*
X162808847Y-93386153D01*
X162833706Y-93416443D01*
X162852181Y-93451007D01*
X162863555Y-93488501D01*
X162868000Y-93533638D01*
X162868000Y-94172362D01*
X162863555Y-94217499D01*
X162852181Y-94254993D01*
X162833706Y-94289557D01*
X162808847Y-94319847D01*
X162778557Y-94344706D01*
X162743993Y-94363181D01*
X162706499Y-94374555D01*
X162661362Y-94379000D01*
X161922638Y-94379000D01*
X161877501Y-94374555D01*
X161840007Y-94363181D01*
X161805443Y-94344706D01*
X161775153Y-94319847D01*
X161750294Y-94289557D01*
X161731819Y-94254993D01*
X161720445Y-94217499D01*
X161716000Y-94172362D01*
X161716000Y-93533638D01*
X161720445Y-93488501D01*
X161731819Y-93451007D01*
X161750294Y-93416443D01*
X161775153Y-93386153D01*
X161805443Y-93361294D01*
X161840007Y-93342819D01*
X161877501Y-93331445D01*
X161922638Y-93327000D01*
X162661362Y-93327000D01*
X162706499Y-93331445D01*
X162706499Y-93331445D01*
G37*
G36*
X127658060Y-93876060D02*
X124055940Y-93876060D01*
X124055940Y-90273940D01*
X127658060Y-90273940D01*
X127658060Y-93876060D01*
X127658060Y-93876060D01*
G37*
G36*
X149283072Y-91780545D02*
X149320566Y-91791919D01*
X149355130Y-91810394D01*
X149390191Y-91839168D01*
X149841832Y-92290809D01*
X149870606Y-92325870D01*
X149889081Y-92360434D01*
X149900455Y-92397928D01*
X149904295Y-92436927D01*
X149900455Y-92475926D01*
X149889081Y-92513420D01*
X149870606Y-92547984D01*
X149841832Y-92583045D01*
X149319481Y-93105396D01*
X149284420Y-93134170D01*
X149249856Y-93152645D01*
X149212362Y-93164019D01*
X149173363Y-93167859D01*
X149134364Y-93164019D01*
X149096870Y-93152645D01*
X149062306Y-93134170D01*
X149027245Y-93105396D01*
X148575604Y-92653755D01*
X148546830Y-92618694D01*
X148528355Y-92584130D01*
X148516981Y-92546636D01*
X148513141Y-92507637D01*
X148516981Y-92468638D01*
X148528355Y-92431144D01*
X148546830Y-92396580D01*
X148575604Y-92361519D01*
X149097955Y-91839168D01*
X149133016Y-91810394D01*
X149167580Y-91791919D01*
X149205074Y-91780545D01*
X149244073Y-91776705D01*
X149283072Y-91780545D01*
X149283072Y-91780545D01*
G37*
G36*
X132381499Y-92061445D02*
X132418993Y-92072819D01*
X132453557Y-92091294D01*
X132483847Y-92116153D01*
X132508706Y-92146443D01*
X132527181Y-92181007D01*
X132538555Y-92218501D01*
X132543000Y-92263638D01*
X132543000Y-92902362D01*
X132538555Y-92947499D01*
X132527181Y-92984993D01*
X132508706Y-93019557D01*
X132483847Y-93049847D01*
X132453557Y-93074706D01*
X132418993Y-93093181D01*
X132381499Y-93104555D01*
X132336362Y-93109000D01*
X131597638Y-93109000D01*
X131552501Y-93104555D01*
X131515007Y-93093181D01*
X131480443Y-93074706D01*
X131450153Y-93049847D01*
X131425294Y-93019557D01*
X131406819Y-92984993D01*
X131395445Y-92947499D01*
X131391000Y-92902362D01*
X131391000Y-92263638D01*
X131395445Y-92218501D01*
X131406819Y-92181007D01*
X131425294Y-92146443D01*
X131450153Y-92116153D01*
X131480443Y-92091294D01*
X131515007Y-92072819D01*
X131552501Y-92061445D01*
X131597638Y-92057000D01*
X132336362Y-92057000D01*
X132381499Y-92061445D01*
X132381499Y-92061445D01*
G37*
G36*
X134131499Y-92061445D02*
X134168993Y-92072819D01*
X134203557Y-92091294D01*
X134233847Y-92116153D01*
X134258706Y-92146443D01*
X134277181Y-92181007D01*
X134288555Y-92218501D01*
X134293000Y-92263638D01*
X134293000Y-92902362D01*
X134288555Y-92947499D01*
X134277181Y-92984993D01*
X134258706Y-93019557D01*
X134233847Y-93049847D01*
X134203557Y-93074706D01*
X134168993Y-93093181D01*
X134131499Y-93104555D01*
X134086362Y-93109000D01*
X133347638Y-93109000D01*
X133302501Y-93104555D01*
X133265007Y-93093181D01*
X133230443Y-93074706D01*
X133200153Y-93049847D01*
X133175294Y-93019557D01*
X133156819Y-92984993D01*
X133145445Y-92947499D01*
X133141000Y-92902362D01*
X133141000Y-92263638D01*
X133145445Y-92218501D01*
X133156819Y-92181007D01*
X133175294Y-92146443D01*
X133200153Y-92116153D01*
X133230443Y-92091294D01*
X133265007Y-92072819D01*
X133302501Y-92061445D01*
X133347638Y-92057000D01*
X134086362Y-92057000D01*
X134131499Y-92061445D01*
X134131499Y-92061445D01*
G37*
G36*
X165860000Y-92718000D02*
X155958000Y-92718000D01*
X155958000Y-91116000D01*
X165860000Y-91116000D01*
X165860000Y-92718000D01*
X165860000Y-92718000D01*
G37*
G36*
X147688362Y-90223981D02*
X147725856Y-90235355D01*
X147760420Y-90253830D01*
X147795481Y-90282604D01*
X148317832Y-90804955D01*
X148346606Y-90840016D01*
X148365081Y-90874580D01*
X148376455Y-90912074D01*
X148380295Y-90951073D01*
X148376455Y-90990072D01*
X148365081Y-91027566D01*
X148346606Y-91062130D01*
X148317832Y-91097191D01*
X147866191Y-91548832D01*
X147831130Y-91577606D01*
X147796566Y-91596081D01*
X147759072Y-91607455D01*
X147720073Y-91611295D01*
X147681074Y-91607455D01*
X147643580Y-91596081D01*
X147609016Y-91577606D01*
X147573955Y-91548832D01*
X147051604Y-91026481D01*
X147022830Y-90991420D01*
X147004355Y-90956856D01*
X146992981Y-90919362D01*
X146989141Y-90880363D01*
X146992981Y-90841364D01*
X147004355Y-90803870D01*
X147022830Y-90769306D01*
X147051604Y-90734245D01*
X147503245Y-90282604D01*
X147538306Y-90253830D01*
X147572870Y-90235355D01*
X147610364Y-90223981D01*
X147649363Y-90220141D01*
X147688362Y-90223981D01*
X147688362Y-90223981D01*
G37*
G36*
X135823043Y-88711702D02*
X135857958Y-88722294D01*
X135890146Y-88739499D01*
X135923130Y-88766568D01*
X136730072Y-89573510D01*
X136757143Y-89606496D01*
X136774348Y-89638684D01*
X136784940Y-89673599D01*
X136788516Y-89709916D01*
X136784940Y-89746233D01*
X136774348Y-89781148D01*
X136757143Y-89813336D01*
X136730074Y-89846320D01*
X135693320Y-90883074D01*
X135660336Y-90910143D01*
X135628148Y-90927348D01*
X135593233Y-90937940D01*
X135556916Y-90941516D01*
X135520599Y-90937940D01*
X135485684Y-90927348D01*
X135453496Y-90910143D01*
X135420512Y-90883074D01*
X134613568Y-90076130D01*
X134586499Y-90043146D01*
X134569294Y-90010958D01*
X134558702Y-89976043D01*
X134555126Y-89939726D01*
X134558702Y-89903409D01*
X134569294Y-89868494D01*
X134586499Y-89836306D01*
X134613568Y-89803322D01*
X135650322Y-88766568D01*
X135683306Y-88739499D01*
X135715494Y-88722294D01*
X135750409Y-88711702D01*
X135786726Y-88708126D01*
X135823043Y-88711702D01*
X135823043Y-88711702D01*
G37*
G36*
X146450926Y-88986545D02*
X146488420Y-88997919D01*
X146522984Y-89016394D01*
X146558045Y-89045168D01*
X147080396Y-89567519D01*
X147109170Y-89602580D01*
X147127645Y-89637144D01*
X147139019Y-89674638D01*
X147142859Y-89713637D01*
X147139019Y-89752636D01*
X147127645Y-89790130D01*
X147109170Y-89824694D01*
X147080396Y-89859755D01*
X146628755Y-90311396D01*
X146593694Y-90340170D01*
X146559130Y-90358645D01*
X146521636Y-90370019D01*
X146482637Y-90373859D01*
X146443638Y-90370019D01*
X146406144Y-90358645D01*
X146371580Y-90340170D01*
X146336519Y-90311396D01*
X145814168Y-89789045D01*
X145785394Y-89753984D01*
X145766919Y-89719420D01*
X145755545Y-89681926D01*
X145751705Y-89642927D01*
X145755545Y-89603928D01*
X145766919Y-89566434D01*
X145785394Y-89531870D01*
X145814168Y-89496809D01*
X146265809Y-89045168D01*
X146300870Y-89016394D01*
X146335434Y-88997919D01*
X146372928Y-88986545D01*
X146411927Y-88982705D01*
X146450926Y-88986545D01*
X146450926Y-88986545D01*
G37*
G36*
X168410000Y-90168000D02*
X166808000Y-90168000D01*
X166808000Y-80266000D01*
X168410000Y-80266000D01*
X168410000Y-90168000D01*
X168410000Y-90168000D01*
G37*
G36*
X155010000Y-90168000D02*
X153408000Y-90168000D01*
X153408000Y-80266000D01*
X155010000Y-80266000D01*
X155010000Y-90168000D01*
X155010000Y-90168000D01*
G37*
G36*
X130829499Y-89013445D02*
X130866993Y-89024819D01*
X130901557Y-89043294D01*
X130931847Y-89068153D01*
X130956706Y-89098443D01*
X130975181Y-89133007D01*
X130986555Y-89170501D01*
X130991000Y-89215638D01*
X130991000Y-89854362D01*
X130986555Y-89899499D01*
X130975181Y-89936993D01*
X130956706Y-89971557D01*
X130931847Y-90001847D01*
X130901557Y-90026706D01*
X130866993Y-90045181D01*
X130829499Y-90056555D01*
X130784362Y-90061000D01*
X130045638Y-90061000D01*
X130000501Y-90056555D01*
X129963007Y-90045181D01*
X129928443Y-90026706D01*
X129898153Y-90001847D01*
X129873294Y-89971557D01*
X129854819Y-89936993D01*
X129843445Y-89899499D01*
X129839000Y-89854362D01*
X129839000Y-89215638D01*
X129843445Y-89170501D01*
X129854819Y-89133007D01*
X129873294Y-89098443D01*
X129898153Y-89068153D01*
X129928443Y-89043294D01*
X129963007Y-89024819D01*
X130000501Y-89013445D01*
X130045638Y-89009000D01*
X130784362Y-89009000D01*
X130829499Y-89013445D01*
X130829499Y-89013445D01*
G37*
G36*
X129079499Y-89013445D02*
X129116993Y-89024819D01*
X129151557Y-89043294D01*
X129181847Y-89068153D01*
X129206706Y-89098443D01*
X129225181Y-89133007D01*
X129236555Y-89170501D01*
X129241000Y-89215638D01*
X129241000Y-89854362D01*
X129236555Y-89899499D01*
X129225181Y-89936993D01*
X129206706Y-89971557D01*
X129181847Y-90001847D01*
X129151557Y-90026706D01*
X129116993Y-90045181D01*
X129079499Y-90056555D01*
X129034362Y-90061000D01*
X128295638Y-90061000D01*
X128250501Y-90056555D01*
X128213007Y-90045181D01*
X128178443Y-90026706D01*
X128148153Y-90001847D01*
X128123294Y-89971557D01*
X128104819Y-89936993D01*
X128093445Y-89899499D01*
X128089000Y-89854362D01*
X128089000Y-89215638D01*
X128093445Y-89170501D01*
X128104819Y-89133007D01*
X128123294Y-89098443D01*
X128148153Y-89068153D01*
X128178443Y-89043294D01*
X128213007Y-89024819D01*
X128250501Y-89013445D01*
X128295638Y-89009000D01*
X129034362Y-89009000D01*
X129079499Y-89013445D01*
X129079499Y-89013445D01*
G37*
G36*
X148069362Y-88318981D02*
X148106856Y-88330355D01*
X148141420Y-88348830D01*
X148176481Y-88377604D01*
X148698832Y-88899955D01*
X148727606Y-88935016D01*
X148746081Y-88969580D01*
X148757455Y-89007074D01*
X148761295Y-89046073D01*
X148757455Y-89085072D01*
X148746081Y-89122566D01*
X148727606Y-89157130D01*
X148698832Y-89192191D01*
X148247191Y-89643832D01*
X148212130Y-89672606D01*
X148177566Y-89691081D01*
X148140072Y-89702455D01*
X148101073Y-89706295D01*
X148062074Y-89702455D01*
X148024580Y-89691081D01*
X147990016Y-89672606D01*
X147954955Y-89643832D01*
X147432604Y-89121481D01*
X147403830Y-89086420D01*
X147385355Y-89051856D01*
X147373981Y-89014362D01*
X147370141Y-88975363D01*
X147373981Y-88936364D01*
X147385355Y-88898870D01*
X147403830Y-88864306D01*
X147432604Y-88829245D01*
X147884245Y-88377604D01*
X147919306Y-88348830D01*
X147953870Y-88330355D01*
X147991364Y-88318981D01*
X148030363Y-88315141D01*
X148069362Y-88318981D01*
X148069362Y-88318981D01*
G37*
G36*
X133719401Y-86608060D02*
X133754316Y-86618652D01*
X133786504Y-86635857D01*
X133819488Y-86662926D01*
X134626432Y-87469870D01*
X134653501Y-87502854D01*
X134670706Y-87535042D01*
X134681298Y-87569957D01*
X134684874Y-87606274D01*
X134681298Y-87642591D01*
X134670706Y-87677506D01*
X134653501Y-87709694D01*
X134626432Y-87742678D01*
X133589678Y-88779432D01*
X133556694Y-88806501D01*
X133524506Y-88823706D01*
X133489591Y-88834298D01*
X133453274Y-88837874D01*
X133416957Y-88834298D01*
X133382042Y-88823706D01*
X133349854Y-88806501D01*
X133316870Y-88779432D01*
X132509926Y-87972488D01*
X132482857Y-87939504D01*
X132465652Y-87907316D01*
X132455060Y-87872401D01*
X132451484Y-87836084D01*
X132455060Y-87799767D01*
X132465652Y-87764852D01*
X132482857Y-87732664D01*
X132509926Y-87699680D01*
X133546680Y-86662926D01*
X133579664Y-86635857D01*
X133611852Y-86618652D01*
X133646767Y-86608060D01*
X133683084Y-86604484D01*
X133719401Y-86608060D01*
X133719401Y-86608060D01*
G37*
G36*
X129079499Y-87489445D02*
X129116993Y-87500819D01*
X129151557Y-87519294D01*
X129181847Y-87544153D01*
X129206706Y-87574443D01*
X129225181Y-87609007D01*
X129236555Y-87646501D01*
X129241000Y-87691638D01*
X129241000Y-88330362D01*
X129236555Y-88375499D01*
X129225181Y-88412993D01*
X129206706Y-88447557D01*
X129181847Y-88477847D01*
X129151557Y-88502706D01*
X129116993Y-88521181D01*
X129079499Y-88532555D01*
X129034362Y-88537000D01*
X128295638Y-88537000D01*
X128250501Y-88532555D01*
X128213007Y-88521181D01*
X128178443Y-88502706D01*
X128148153Y-88477847D01*
X128123294Y-88447557D01*
X128104819Y-88412993D01*
X128093445Y-88375499D01*
X128089000Y-88330362D01*
X128089000Y-87691638D01*
X128093445Y-87646501D01*
X128104819Y-87609007D01*
X128123294Y-87574443D01*
X128148153Y-87544153D01*
X128178443Y-87519294D01*
X128213007Y-87500819D01*
X128250501Y-87489445D01*
X128295638Y-87485000D01*
X129034362Y-87485000D01*
X129079499Y-87489445D01*
X129079499Y-87489445D01*
G37*
G36*
X130829499Y-87489445D02*
X130866993Y-87500819D01*
X130901557Y-87519294D01*
X130931847Y-87544153D01*
X130956706Y-87574443D01*
X130975181Y-87609007D01*
X130986555Y-87646501D01*
X130991000Y-87691638D01*
X130991000Y-88330362D01*
X130986555Y-88375499D01*
X130975181Y-88412993D01*
X130956706Y-88447557D01*
X130931847Y-88477847D01*
X130901557Y-88502706D01*
X130866993Y-88521181D01*
X130829499Y-88532555D01*
X130784362Y-88537000D01*
X130045638Y-88537000D01*
X130000501Y-88532555D01*
X129963007Y-88521181D01*
X129928443Y-88502706D01*
X129898153Y-88477847D01*
X129873294Y-88447557D01*
X129854819Y-88412993D01*
X129843445Y-88375499D01*
X129839000Y-88330362D01*
X129839000Y-87691638D01*
X129843445Y-87646501D01*
X129854819Y-87609007D01*
X129873294Y-87574443D01*
X129898153Y-87544153D01*
X129928443Y-87519294D01*
X129963007Y-87500819D01*
X130000501Y-87489445D01*
X130045638Y-87485000D01*
X130784362Y-87485000D01*
X130829499Y-87489445D01*
X130829499Y-87489445D01*
G37*
G36*
X146831926Y-87081545D02*
X146869420Y-87092919D01*
X146903984Y-87111394D01*
X146939045Y-87140168D01*
X147461396Y-87662519D01*
X147490170Y-87697580D01*
X147508645Y-87732144D01*
X147520019Y-87769638D01*
X147523859Y-87808637D01*
X147520019Y-87847636D01*
X147508645Y-87885130D01*
X147490170Y-87919694D01*
X147461396Y-87954755D01*
X147009755Y-88406396D01*
X146974694Y-88435170D01*
X146940130Y-88453645D01*
X146902636Y-88465019D01*
X146863637Y-88468859D01*
X146824638Y-88465019D01*
X146787144Y-88453645D01*
X146752580Y-88435170D01*
X146717519Y-88406396D01*
X146195168Y-87884045D01*
X146166394Y-87848984D01*
X146147919Y-87814420D01*
X146136545Y-87776926D01*
X146132705Y-87737927D01*
X146136545Y-87698928D01*
X146147919Y-87661434D01*
X146166394Y-87626870D01*
X146195168Y-87591809D01*
X146646809Y-87140168D01*
X146681870Y-87111394D01*
X146716434Y-87092919D01*
X146753928Y-87081545D01*
X146792927Y-87077705D01*
X146831926Y-87081545D01*
X146831926Y-87081545D01*
G37*
G36*
X143243362Y-86286981D02*
X143280856Y-86298355D01*
X143315420Y-86316830D01*
X143350481Y-86345604D01*
X143872832Y-86867955D01*
X143901606Y-86903016D01*
X143920081Y-86937580D01*
X143931455Y-86975074D01*
X143935295Y-87014073D01*
X143931455Y-87053072D01*
X143920081Y-87090566D01*
X143901606Y-87125130D01*
X143872832Y-87160191D01*
X143421191Y-87611832D01*
X143386130Y-87640606D01*
X143351566Y-87659081D01*
X143314072Y-87670455D01*
X143275073Y-87674295D01*
X143236074Y-87670455D01*
X143198580Y-87659081D01*
X143164016Y-87640606D01*
X143128955Y-87611832D01*
X142606604Y-87089481D01*
X142577830Y-87054420D01*
X142559355Y-87019856D01*
X142547981Y-86982362D01*
X142544141Y-86943363D01*
X142547981Y-86904364D01*
X142559355Y-86866870D01*
X142577830Y-86832306D01*
X142606604Y-86797245D01*
X143058245Y-86345604D01*
X143093306Y-86316830D01*
X143127870Y-86298355D01*
X143165364Y-86286981D01*
X143204363Y-86283141D01*
X143243362Y-86286981D01*
X143243362Y-86286981D01*
G37*
G36*
X172403026Y-85666431D02*
X172440520Y-85677805D01*
X172475084Y-85696280D01*
X172505374Y-85721139D01*
X172530233Y-85751429D01*
X172548708Y-85785993D01*
X172560082Y-85823487D01*
X172564527Y-85868624D01*
X172564527Y-86607348D01*
X172560082Y-86652485D01*
X172548708Y-86689979D01*
X172530233Y-86724543D01*
X172505374Y-86754833D01*
X172475084Y-86779692D01*
X172440520Y-86798167D01*
X172403026Y-86809541D01*
X172357889Y-86813986D01*
X171719165Y-86813986D01*
X171674028Y-86809541D01*
X171636534Y-86798167D01*
X171601970Y-86779692D01*
X171571680Y-86754833D01*
X171546821Y-86724543D01*
X171528346Y-86689979D01*
X171516972Y-86652485D01*
X171512527Y-86607348D01*
X171512527Y-85868624D01*
X171516972Y-85823487D01*
X171528346Y-85785993D01*
X171546821Y-85751429D01*
X171571680Y-85721139D01*
X171601970Y-85696280D01*
X171636534Y-85677805D01*
X171674028Y-85666431D01*
X171719165Y-85661986D01*
X172357889Y-85661986D01*
X172403026Y-85666431D01*
X172403026Y-85666431D01*
G37*
G36*
X170752026Y-85666431D02*
X170789520Y-85677805D01*
X170824084Y-85696280D01*
X170854374Y-85721139D01*
X170879233Y-85751429D01*
X170897708Y-85785993D01*
X170909082Y-85823487D01*
X170913527Y-85868624D01*
X170913527Y-86607348D01*
X170909082Y-86652485D01*
X170897708Y-86689979D01*
X170879233Y-86724543D01*
X170854374Y-86754833D01*
X170824084Y-86779692D01*
X170789520Y-86798167D01*
X170752026Y-86809541D01*
X170706889Y-86813986D01*
X170068165Y-86813986D01*
X170023028Y-86809541D01*
X169985534Y-86798167D01*
X169950970Y-86779692D01*
X169920680Y-86754833D01*
X169895821Y-86724543D01*
X169877346Y-86689979D01*
X169865972Y-86652485D01*
X169861527Y-86607348D01*
X169861527Y-85868624D01*
X169865972Y-85823487D01*
X169877346Y-85785993D01*
X169895821Y-85751429D01*
X169920680Y-85721139D01*
X169950970Y-85696280D01*
X169985534Y-85677805D01*
X170023028Y-85666431D01*
X170068165Y-85661986D01*
X170706889Y-85661986D01*
X170752026Y-85666431D01*
X170752026Y-85666431D01*
G37*
G36*
X129079499Y-85584445D02*
X129116993Y-85595819D01*
X129151557Y-85614294D01*
X129181847Y-85639153D01*
X129206706Y-85669443D01*
X129225181Y-85704007D01*
X129236555Y-85741501D01*
X129241000Y-85786638D01*
X129241000Y-86425362D01*
X129236555Y-86470499D01*
X129225181Y-86507993D01*
X129206706Y-86542557D01*
X129181847Y-86572847D01*
X129151557Y-86597706D01*
X129116993Y-86616181D01*
X129079499Y-86627555D01*
X129034362Y-86632000D01*
X128295638Y-86632000D01*
X128250501Y-86627555D01*
X128213007Y-86616181D01*
X128178443Y-86597706D01*
X128148153Y-86572847D01*
X128123294Y-86542557D01*
X128104819Y-86507993D01*
X128093445Y-86470499D01*
X128089000Y-86425362D01*
X128089000Y-85786638D01*
X128093445Y-85741501D01*
X128104819Y-85704007D01*
X128123294Y-85669443D01*
X128148153Y-85639153D01*
X128178443Y-85614294D01*
X128213007Y-85595819D01*
X128250501Y-85584445D01*
X128295638Y-85580000D01*
X129034362Y-85580000D01*
X129079499Y-85584445D01*
X129079499Y-85584445D01*
G37*
G36*
X130829499Y-85584445D02*
X130866993Y-85595819D01*
X130901557Y-85614294D01*
X130931847Y-85639153D01*
X130956706Y-85669443D01*
X130975181Y-85704007D01*
X130986555Y-85741501D01*
X130991000Y-85786638D01*
X130991000Y-86425362D01*
X130986555Y-86470499D01*
X130975181Y-86507993D01*
X130956706Y-86542557D01*
X130931847Y-86572847D01*
X130901557Y-86597706D01*
X130866993Y-86616181D01*
X130829499Y-86627555D01*
X130784362Y-86632000D01*
X130045638Y-86632000D01*
X130000501Y-86627555D01*
X129963007Y-86616181D01*
X129928443Y-86597706D01*
X129898153Y-86572847D01*
X129873294Y-86542557D01*
X129854819Y-86507993D01*
X129843445Y-86470499D01*
X129839000Y-86425362D01*
X129839000Y-85786638D01*
X129843445Y-85741501D01*
X129854819Y-85704007D01*
X129873294Y-85669443D01*
X129898153Y-85639153D01*
X129928443Y-85614294D01*
X129963007Y-85595819D01*
X130000501Y-85584445D01*
X130045638Y-85580000D01*
X130784362Y-85580000D01*
X130829499Y-85584445D01*
X130829499Y-85584445D01*
G37*
G36*
X149939478Y-85396740D02*
X149976972Y-85408114D01*
X150011536Y-85426589D01*
X150041826Y-85451448D01*
X150066685Y-85481738D01*
X150085160Y-85516302D01*
X150096534Y-85553796D01*
X150100979Y-85598933D01*
X150100979Y-86337657D01*
X150096534Y-86382794D01*
X150085160Y-86420288D01*
X150066685Y-86454852D01*
X150041826Y-86485142D01*
X150011536Y-86510001D01*
X149976972Y-86528476D01*
X149939478Y-86539850D01*
X149894341Y-86544295D01*
X149255617Y-86544295D01*
X149210480Y-86539850D01*
X149172986Y-86528476D01*
X149138422Y-86510001D01*
X149108132Y-86485142D01*
X149083273Y-86454852D01*
X149064798Y-86420288D01*
X149053424Y-86382794D01*
X149048979Y-86337657D01*
X149048979Y-85598933D01*
X149053424Y-85553796D01*
X149064798Y-85516302D01*
X149083273Y-85481738D01*
X149108132Y-85451448D01*
X149138422Y-85426589D01*
X149172986Y-85408114D01*
X149210480Y-85396740D01*
X149255617Y-85392295D01*
X149894341Y-85392295D01*
X149939478Y-85396740D01*
X149939478Y-85396740D01*
G37*
G36*
X151590478Y-85396740D02*
X151627972Y-85408114D01*
X151662536Y-85426589D01*
X151692826Y-85451448D01*
X151717685Y-85481738D01*
X151736160Y-85516302D01*
X151747534Y-85553796D01*
X151751979Y-85598933D01*
X151751979Y-86337657D01*
X151747534Y-86382794D01*
X151736160Y-86420288D01*
X151717685Y-86454852D01*
X151692826Y-86485142D01*
X151662536Y-86510001D01*
X151627972Y-86528476D01*
X151590478Y-86539850D01*
X151545341Y-86544295D01*
X150906617Y-86544295D01*
X150861480Y-86539850D01*
X150823986Y-86528476D01*
X150789422Y-86510001D01*
X150759132Y-86485142D01*
X150734273Y-86454852D01*
X150715798Y-86420288D01*
X150704424Y-86382794D01*
X150699979Y-86337657D01*
X150699979Y-85598933D01*
X150704424Y-85553796D01*
X150715798Y-85516302D01*
X150734273Y-85481738D01*
X150759132Y-85451448D01*
X150789422Y-85426589D01*
X150823986Y-85408114D01*
X150861480Y-85396740D01*
X150906617Y-85392295D01*
X151545341Y-85392295D01*
X151590478Y-85396740D01*
X151590478Y-85396740D01*
G37*
G36*
X142005926Y-85049545D02*
X142043420Y-85060919D01*
X142077984Y-85079394D01*
X142113045Y-85108168D01*
X142635396Y-85630519D01*
X142664170Y-85665580D01*
X142682645Y-85700144D01*
X142694019Y-85737638D01*
X142697859Y-85776637D01*
X142694019Y-85815636D01*
X142682645Y-85853130D01*
X142664170Y-85887694D01*
X142635396Y-85922755D01*
X142183755Y-86374396D01*
X142148694Y-86403170D01*
X142114130Y-86421645D01*
X142076636Y-86433019D01*
X142037637Y-86436859D01*
X141998638Y-86433019D01*
X141961144Y-86421645D01*
X141926580Y-86403170D01*
X141891519Y-86374396D01*
X141369168Y-85852045D01*
X141340394Y-85816984D01*
X141321919Y-85782420D01*
X141310545Y-85744926D01*
X141306705Y-85705927D01*
X141310545Y-85666928D01*
X141321919Y-85629434D01*
X141340394Y-85594870D01*
X141369168Y-85559809D01*
X141820809Y-85108168D01*
X141855870Y-85079394D01*
X141890434Y-85060919D01*
X141927928Y-85049545D01*
X141966927Y-85045705D01*
X142005926Y-85049545D01*
X142005926Y-85049545D01*
G37*
G36*
X134075000Y-85564000D02*
X132873000Y-85564000D01*
X132873000Y-84362000D01*
X134075000Y-84362000D01*
X134075000Y-85564000D01*
X134075000Y-85564000D01*
G37*
G36*
X136875000Y-85564000D02*
X135673000Y-85564000D01*
X135673000Y-84362000D01*
X136875000Y-84362000D01*
X136875000Y-85564000D01*
X136875000Y-85564000D01*
G37*
G36*
X172403026Y-83916431D02*
X172440520Y-83927805D01*
X172475084Y-83946280D01*
X172505374Y-83971139D01*
X172530233Y-84001429D01*
X172548708Y-84035993D01*
X172560082Y-84073487D01*
X172564527Y-84118624D01*
X172564527Y-84857348D01*
X172560082Y-84902485D01*
X172548708Y-84939979D01*
X172530233Y-84974543D01*
X172505374Y-85004833D01*
X172475084Y-85029692D01*
X172440520Y-85048167D01*
X172403026Y-85059541D01*
X172357889Y-85063986D01*
X171719165Y-85063986D01*
X171674028Y-85059541D01*
X171636534Y-85048167D01*
X171601970Y-85029692D01*
X171571680Y-85004833D01*
X171546821Y-84974543D01*
X171528346Y-84939979D01*
X171516972Y-84902485D01*
X171512527Y-84857348D01*
X171512527Y-84118624D01*
X171516972Y-84073487D01*
X171528346Y-84035993D01*
X171546821Y-84001429D01*
X171571680Y-83971139D01*
X171601970Y-83946280D01*
X171636534Y-83927805D01*
X171674028Y-83916431D01*
X171719165Y-83911986D01*
X172357889Y-83911986D01*
X172403026Y-83916431D01*
X172403026Y-83916431D01*
G37*
G36*
X170752026Y-83916431D02*
X170789520Y-83927805D01*
X170824084Y-83946280D01*
X170854374Y-83971139D01*
X170879233Y-84001429D01*
X170897708Y-84035993D01*
X170909082Y-84073487D01*
X170913527Y-84118624D01*
X170913527Y-84857348D01*
X170909082Y-84902485D01*
X170897708Y-84939979D01*
X170879233Y-84974543D01*
X170854374Y-85004833D01*
X170824084Y-85029692D01*
X170789520Y-85048167D01*
X170752026Y-85059541D01*
X170706889Y-85063986D01*
X170068165Y-85063986D01*
X170023028Y-85059541D01*
X169985534Y-85048167D01*
X169950970Y-85029692D01*
X169920680Y-85004833D01*
X169895821Y-84974543D01*
X169877346Y-84939979D01*
X169865972Y-84902485D01*
X169861527Y-84857348D01*
X169861527Y-84118624D01*
X169865972Y-84073487D01*
X169877346Y-84035993D01*
X169895821Y-84001429D01*
X169920680Y-83971139D01*
X169950970Y-83946280D01*
X169985534Y-83927805D01*
X170023028Y-83916431D01*
X170068165Y-83911986D01*
X170706889Y-83911986D01*
X170752026Y-83916431D01*
X170752026Y-83916431D01*
G37*
G36*
X129780000Y-84840000D02*
X128878000Y-84840000D01*
X128878000Y-82038000D01*
X129780000Y-82038000D01*
X129780000Y-84840000D01*
X129780000Y-84840000D01*
G37*
G36*
X131980000Y-84840000D02*
X131078000Y-84840000D01*
X131078000Y-82038000D01*
X131980000Y-82038000D01*
X131980000Y-84840000D01*
X131980000Y-84840000D01*
G37*
G36*
X149939478Y-83646740D02*
X149976972Y-83658114D01*
X150011536Y-83676589D01*
X150041826Y-83701448D01*
X150066685Y-83731738D01*
X150085160Y-83766302D01*
X150096534Y-83803796D01*
X150100979Y-83848933D01*
X150100979Y-84587657D01*
X150096534Y-84632794D01*
X150085160Y-84670288D01*
X150066685Y-84704852D01*
X150041826Y-84735142D01*
X150011536Y-84760001D01*
X149976972Y-84778476D01*
X149939478Y-84789850D01*
X149894341Y-84794295D01*
X149255617Y-84794295D01*
X149210480Y-84789850D01*
X149172986Y-84778476D01*
X149138422Y-84760001D01*
X149108132Y-84735142D01*
X149083273Y-84704852D01*
X149064798Y-84670288D01*
X149053424Y-84632794D01*
X149048979Y-84587657D01*
X149048979Y-83848933D01*
X149053424Y-83803796D01*
X149064798Y-83766302D01*
X149083273Y-83731738D01*
X149108132Y-83701448D01*
X149138422Y-83676589D01*
X149172986Y-83658114D01*
X149210480Y-83646740D01*
X149255617Y-83642295D01*
X149894341Y-83642295D01*
X149939478Y-83646740D01*
X149939478Y-83646740D01*
G37*
G36*
X151590478Y-83646740D02*
X151627972Y-83658114D01*
X151662536Y-83676589D01*
X151692826Y-83701448D01*
X151717685Y-83731738D01*
X151736160Y-83766302D01*
X151747534Y-83803796D01*
X151751979Y-83848933D01*
X151751979Y-84587657D01*
X151747534Y-84632794D01*
X151736160Y-84670288D01*
X151717685Y-84704852D01*
X151692826Y-84735142D01*
X151662536Y-84760001D01*
X151627972Y-84778476D01*
X151590478Y-84789850D01*
X151545341Y-84794295D01*
X150906617Y-84794295D01*
X150861480Y-84789850D01*
X150823986Y-84778476D01*
X150789422Y-84760001D01*
X150759132Y-84735142D01*
X150734273Y-84704852D01*
X150715798Y-84670288D01*
X150704424Y-84632794D01*
X150699979Y-84587657D01*
X150699979Y-83848933D01*
X150704424Y-83803796D01*
X150715798Y-83766302D01*
X150734273Y-83731738D01*
X150759132Y-83701448D01*
X150789422Y-83676589D01*
X150823986Y-83658114D01*
X150861480Y-83646740D01*
X150906617Y-83642295D01*
X151545341Y-83642295D01*
X151590478Y-83646740D01*
X151590478Y-83646740D01*
G37*
G36*
X146541499Y-83615445D02*
X146578993Y-83626819D01*
X146613557Y-83645294D01*
X146643847Y-83670153D01*
X146668706Y-83700443D01*
X146687181Y-83735007D01*
X146698555Y-83772501D01*
X146703000Y-83817638D01*
X146703000Y-84556362D01*
X146698555Y-84601499D01*
X146687181Y-84638993D01*
X146668706Y-84673557D01*
X146643847Y-84703847D01*
X146613557Y-84728706D01*
X146578993Y-84747181D01*
X146541499Y-84758555D01*
X146496362Y-84763000D01*
X145857638Y-84763000D01*
X145812501Y-84758555D01*
X145775007Y-84747181D01*
X145740443Y-84728706D01*
X145710153Y-84703847D01*
X145685294Y-84673557D01*
X145666819Y-84638993D01*
X145655445Y-84601499D01*
X145651000Y-84556362D01*
X145651000Y-83817638D01*
X145655445Y-83772501D01*
X145666819Y-83735007D01*
X145685294Y-83700443D01*
X145710153Y-83670153D01*
X145740443Y-83645294D01*
X145775007Y-83626819D01*
X145812501Y-83615445D01*
X145857638Y-83611000D01*
X146496362Y-83611000D01*
X146541499Y-83615445D01*
X146541499Y-83615445D01*
G37*
G36*
X134286499Y-82282445D02*
X134323993Y-82293819D01*
X134358557Y-82312294D01*
X134388847Y-82337153D01*
X134413706Y-82367443D01*
X134432181Y-82402007D01*
X134443555Y-82439501D01*
X134448000Y-82484638D01*
X134448000Y-83123362D01*
X134443555Y-83168499D01*
X134432181Y-83205993D01*
X134413706Y-83240557D01*
X134388847Y-83270847D01*
X134358557Y-83295706D01*
X134323993Y-83314181D01*
X134286499Y-83325555D01*
X134241362Y-83330000D01*
X133502638Y-83330000D01*
X133457501Y-83325555D01*
X133420007Y-83314181D01*
X133385443Y-83295706D01*
X133355153Y-83270847D01*
X133330294Y-83240557D01*
X133311819Y-83205993D01*
X133300445Y-83168499D01*
X133296000Y-83123362D01*
X133296000Y-82484638D01*
X133300445Y-82439501D01*
X133311819Y-82402007D01*
X133330294Y-82367443D01*
X133355153Y-82337153D01*
X133385443Y-82312294D01*
X133420007Y-82293819D01*
X133457501Y-82282445D01*
X133502638Y-82278000D01*
X134241362Y-82278000D01*
X134286499Y-82282445D01*
X134286499Y-82282445D01*
G37*
G36*
X136036499Y-82282445D02*
X136073993Y-82293819D01*
X136108557Y-82312294D01*
X136138847Y-82337153D01*
X136163706Y-82367443D01*
X136182181Y-82402007D01*
X136193555Y-82439501D01*
X136198000Y-82484638D01*
X136198000Y-83123362D01*
X136193555Y-83168499D01*
X136182181Y-83205993D01*
X136163706Y-83240557D01*
X136138847Y-83270847D01*
X136108557Y-83295706D01*
X136073993Y-83314181D01*
X136036499Y-83325555D01*
X135991362Y-83330000D01*
X135252638Y-83330000D01*
X135207501Y-83325555D01*
X135170007Y-83314181D01*
X135135443Y-83295706D01*
X135105153Y-83270847D01*
X135080294Y-83240557D01*
X135061819Y-83205993D01*
X135050445Y-83168499D01*
X135046000Y-83123362D01*
X135046000Y-82484638D01*
X135050445Y-82439501D01*
X135061819Y-82402007D01*
X135080294Y-82367443D01*
X135105153Y-82337153D01*
X135135443Y-82312294D01*
X135170007Y-82293819D01*
X135207501Y-82282445D01*
X135252638Y-82278000D01*
X135991362Y-82278000D01*
X136036499Y-82282445D01*
X136036499Y-82282445D01*
G37*
G36*
X146541499Y-81865445D02*
X146578993Y-81876819D01*
X146613557Y-81895294D01*
X146643847Y-81920153D01*
X146668706Y-81950443D01*
X146687181Y-81985007D01*
X146698555Y-82022501D01*
X146703000Y-82067638D01*
X146703000Y-82806362D01*
X146698555Y-82851499D01*
X146687181Y-82888993D01*
X146668706Y-82923557D01*
X146643847Y-82953847D01*
X146613557Y-82978706D01*
X146578993Y-82997181D01*
X146541499Y-83008555D01*
X146496362Y-83013000D01*
X145857638Y-83013000D01*
X145812501Y-83008555D01*
X145775007Y-82997181D01*
X145740443Y-82978706D01*
X145710153Y-82953847D01*
X145685294Y-82923557D01*
X145666819Y-82888993D01*
X145655445Y-82851499D01*
X145651000Y-82806362D01*
X145651000Y-82067638D01*
X145655445Y-82022501D01*
X145666819Y-81985007D01*
X145685294Y-81950443D01*
X145710153Y-81920153D01*
X145740443Y-81895294D01*
X145775007Y-81876819D01*
X145812501Y-81865445D01*
X145857638Y-81861000D01*
X146496362Y-81861000D01*
X146541499Y-81865445D01*
X146541499Y-81865445D01*
G37*
G36*
X134228000Y-81336000D02*
X133066000Y-81336000D01*
X133066000Y-78684000D01*
X134228000Y-78684000D01*
X134228000Y-81336000D01*
X134228000Y-81336000D01*
G37*
G36*
X136428000Y-81336000D02*
X135266000Y-81336000D01*
X135266000Y-80584000D01*
X136428000Y-80584000D01*
X136428000Y-81336000D01*
X136428000Y-81336000D01*
G37*
G36*
X138159499Y-80186445D02*
X138196993Y-80197819D01*
X138231557Y-80216294D01*
X138261847Y-80241153D01*
X138286706Y-80271443D01*
X138305181Y-80306007D01*
X138316555Y-80343501D01*
X138321000Y-80388638D01*
X138321000Y-81127362D01*
X138316555Y-81172499D01*
X138305181Y-81209993D01*
X138286706Y-81244557D01*
X138261847Y-81274847D01*
X138231557Y-81299706D01*
X138196993Y-81318181D01*
X138159499Y-81329555D01*
X138114362Y-81334000D01*
X137475638Y-81334000D01*
X137430501Y-81329555D01*
X137393007Y-81318181D01*
X137358443Y-81299706D01*
X137328153Y-81274847D01*
X137303294Y-81244557D01*
X137284819Y-81209993D01*
X137273445Y-81172499D01*
X137269000Y-81127362D01*
X137269000Y-80388638D01*
X137273445Y-80343501D01*
X137284819Y-80306007D01*
X137303294Y-80271443D01*
X137328153Y-80241153D01*
X137358443Y-80216294D01*
X137393007Y-80197819D01*
X137430501Y-80186445D01*
X137475638Y-80182000D01*
X138114362Y-80182000D01*
X138159499Y-80186445D01*
X138159499Y-80186445D01*
G37*
G36*
X146541499Y-80186445D02*
X146578993Y-80197819D01*
X146613557Y-80216294D01*
X146643847Y-80241153D01*
X146668706Y-80271443D01*
X146687181Y-80306007D01*
X146698555Y-80343501D01*
X146703000Y-80388638D01*
X146703000Y-81127362D01*
X146698555Y-81172499D01*
X146687181Y-81209993D01*
X146668706Y-81244557D01*
X146643847Y-81274847D01*
X146613557Y-81299706D01*
X146578993Y-81318181D01*
X146541499Y-81329555D01*
X146496362Y-81334000D01*
X145857638Y-81334000D01*
X145812501Y-81329555D01*
X145775007Y-81318181D01*
X145740443Y-81299706D01*
X145710153Y-81274847D01*
X145685294Y-81244557D01*
X145666819Y-81209993D01*
X145655445Y-81172499D01*
X145651000Y-81127362D01*
X145651000Y-80388638D01*
X145655445Y-80343501D01*
X145666819Y-80306007D01*
X145685294Y-80271443D01*
X145710153Y-80241153D01*
X145740443Y-80216294D01*
X145775007Y-80197819D01*
X145812501Y-80186445D01*
X145857638Y-80182000D01*
X146496362Y-80182000D01*
X146541499Y-80186445D01*
X146541499Y-80186445D01*
G37*
G36*
X143049499Y-80250445D02*
X143086993Y-80261819D01*
X143121557Y-80280294D01*
X143151847Y-80305153D01*
X143176706Y-80335443D01*
X143195181Y-80370007D01*
X143206555Y-80407501D01*
X143211000Y-80452638D01*
X143211000Y-81091362D01*
X143206555Y-81136499D01*
X143195181Y-81173993D01*
X143176706Y-81208557D01*
X143151847Y-81238847D01*
X143121557Y-81263706D01*
X143086993Y-81282181D01*
X143049499Y-81293555D01*
X143004362Y-81298000D01*
X142265638Y-81298000D01*
X142220501Y-81293555D01*
X142183007Y-81282181D01*
X142148443Y-81263706D01*
X142118153Y-81238847D01*
X142093294Y-81208557D01*
X142074819Y-81173993D01*
X142063445Y-81136499D01*
X142059000Y-81091362D01*
X142059000Y-80452638D01*
X142063445Y-80407501D01*
X142074819Y-80370007D01*
X142093294Y-80335443D01*
X142118153Y-80305153D01*
X142148443Y-80280294D01*
X142183007Y-80261819D01*
X142220501Y-80250445D01*
X142265638Y-80246000D01*
X143004362Y-80246000D01*
X143049499Y-80250445D01*
X143049499Y-80250445D01*
G37*
G36*
X144799499Y-80250445D02*
X144836993Y-80261819D01*
X144871557Y-80280294D01*
X144901847Y-80305153D01*
X144926706Y-80335443D01*
X144945181Y-80370007D01*
X144956555Y-80407501D01*
X144961000Y-80452638D01*
X144961000Y-81091362D01*
X144956555Y-81136499D01*
X144945181Y-81173993D01*
X144926706Y-81208557D01*
X144901847Y-81238847D01*
X144871557Y-81263706D01*
X144836993Y-81282181D01*
X144799499Y-81293555D01*
X144754362Y-81298000D01*
X144015638Y-81298000D01*
X143970501Y-81293555D01*
X143933007Y-81282181D01*
X143898443Y-81263706D01*
X143868153Y-81238847D01*
X143843294Y-81208557D01*
X143824819Y-81173993D01*
X143813445Y-81136499D01*
X143809000Y-81091362D01*
X143809000Y-80452638D01*
X143813445Y-80407501D01*
X143824819Y-80370007D01*
X143843294Y-80335443D01*
X143868153Y-80305153D01*
X143898443Y-80280294D01*
X143933007Y-80261819D01*
X143970501Y-80250445D01*
X144015638Y-80246000D01*
X144754362Y-80246000D01*
X144799499Y-80250445D01*
X144799499Y-80250445D01*
G37*
G36*
X171037000Y-80994000D02*
X170085000Y-80994000D01*
X170085000Y-80042000D01*
X171037000Y-80042000D01*
X171037000Y-80994000D01*
X171037000Y-80994000D01*
G37*
G36*
X132099499Y-79488445D02*
X132136993Y-79499819D01*
X132171557Y-79518294D01*
X132201847Y-79543153D01*
X132226706Y-79573443D01*
X132245181Y-79608007D01*
X132256555Y-79645501D01*
X132261000Y-79690638D01*
X132261000Y-80329362D01*
X132256555Y-80374499D01*
X132245181Y-80411993D01*
X132226706Y-80446557D01*
X132201847Y-80476847D01*
X132171557Y-80501706D01*
X132136993Y-80520181D01*
X132099499Y-80531555D01*
X132054362Y-80536000D01*
X131315638Y-80536000D01*
X131270501Y-80531555D01*
X131233007Y-80520181D01*
X131198443Y-80501706D01*
X131168153Y-80476847D01*
X131143294Y-80446557D01*
X131124819Y-80411993D01*
X131113445Y-80374499D01*
X131109000Y-80329362D01*
X131109000Y-79690638D01*
X131113445Y-79645501D01*
X131124819Y-79608007D01*
X131143294Y-79573443D01*
X131168153Y-79543153D01*
X131198443Y-79518294D01*
X131233007Y-79499819D01*
X131270501Y-79488445D01*
X131315638Y-79484000D01*
X132054362Y-79484000D01*
X132099499Y-79488445D01*
X132099499Y-79488445D01*
G37*
G36*
X130349499Y-79488445D02*
X130386993Y-79499819D01*
X130421557Y-79518294D01*
X130451847Y-79543153D01*
X130476706Y-79573443D01*
X130495181Y-79608007D01*
X130506555Y-79645501D01*
X130511000Y-79690638D01*
X130511000Y-80329362D01*
X130506555Y-80374499D01*
X130495181Y-80411993D01*
X130476706Y-80446557D01*
X130451847Y-80476847D01*
X130421557Y-80501706D01*
X130386993Y-80520181D01*
X130349499Y-80531555D01*
X130304362Y-80536000D01*
X129565638Y-80536000D01*
X129520501Y-80531555D01*
X129483007Y-80520181D01*
X129448443Y-80501706D01*
X129418153Y-80476847D01*
X129393294Y-80446557D01*
X129374819Y-80411993D01*
X129363445Y-80374499D01*
X129359000Y-80329362D01*
X129359000Y-79690638D01*
X129363445Y-79645501D01*
X129374819Y-79608007D01*
X129393294Y-79573443D01*
X129418153Y-79543153D01*
X129448443Y-79518294D01*
X129483007Y-79499819D01*
X129520501Y-79488445D01*
X129565638Y-79484000D01*
X130304362Y-79484000D01*
X130349499Y-79488445D01*
X130349499Y-79488445D01*
G37*
G36*
X152673499Y-78726445D02*
X152710993Y-78737819D01*
X152745557Y-78756294D01*
X152775847Y-78781153D01*
X152800706Y-78811443D01*
X152819181Y-78846007D01*
X152830555Y-78883501D01*
X152835000Y-78928638D01*
X152835000Y-79567362D01*
X152830555Y-79612499D01*
X152819181Y-79649993D01*
X152800706Y-79684557D01*
X152775847Y-79714847D01*
X152745557Y-79739706D01*
X152710993Y-79758181D01*
X152673499Y-79769555D01*
X152628362Y-79774000D01*
X151889638Y-79774000D01*
X151844501Y-79769555D01*
X151807007Y-79758181D01*
X151772443Y-79739706D01*
X151742153Y-79714847D01*
X151717294Y-79684557D01*
X151698819Y-79649993D01*
X151687445Y-79612499D01*
X151683000Y-79567362D01*
X151683000Y-78928638D01*
X151687445Y-78883501D01*
X151698819Y-78846007D01*
X151717294Y-78811443D01*
X151742153Y-78781153D01*
X151772443Y-78756294D01*
X151807007Y-78737819D01*
X151844501Y-78726445D01*
X151889638Y-78722000D01*
X152628362Y-78722000D01*
X152673499Y-78726445D01*
X152673499Y-78726445D01*
G37*
G36*
X150923499Y-78726445D02*
X150960993Y-78737819D01*
X150995557Y-78756294D01*
X151025847Y-78781153D01*
X151050706Y-78811443D01*
X151069181Y-78846007D01*
X151080555Y-78883501D01*
X151085000Y-78928638D01*
X151085000Y-79567362D01*
X151080555Y-79612499D01*
X151069181Y-79649993D01*
X151050706Y-79684557D01*
X151025847Y-79714847D01*
X150995557Y-79739706D01*
X150960993Y-79758181D01*
X150923499Y-79769555D01*
X150878362Y-79774000D01*
X150139638Y-79774000D01*
X150094501Y-79769555D01*
X150057007Y-79758181D01*
X150022443Y-79739706D01*
X149992153Y-79714847D01*
X149967294Y-79684557D01*
X149948819Y-79649993D01*
X149937445Y-79612499D01*
X149933000Y-79567362D01*
X149933000Y-78928638D01*
X149937445Y-78883501D01*
X149948819Y-78846007D01*
X149967294Y-78811443D01*
X149992153Y-78781153D01*
X150022443Y-78756294D01*
X150057007Y-78737819D01*
X150094501Y-78726445D01*
X150139638Y-78722000D01*
X150878362Y-78722000D01*
X150923499Y-78726445D01*
X150923499Y-78726445D01*
G37*
G36*
X138159499Y-78436445D02*
X138196993Y-78447819D01*
X138231557Y-78466294D01*
X138261847Y-78491153D01*
X138286706Y-78521443D01*
X138305181Y-78556007D01*
X138316555Y-78593501D01*
X138321000Y-78638638D01*
X138321000Y-79377362D01*
X138316555Y-79422499D01*
X138305181Y-79459993D01*
X138286706Y-79494557D01*
X138261847Y-79524847D01*
X138231557Y-79549706D01*
X138196993Y-79568181D01*
X138159499Y-79579555D01*
X138114362Y-79584000D01*
X137475638Y-79584000D01*
X137430501Y-79579555D01*
X137393007Y-79568181D01*
X137358443Y-79549706D01*
X137328153Y-79524847D01*
X137303294Y-79494557D01*
X137284819Y-79459993D01*
X137273445Y-79422499D01*
X137269000Y-79377362D01*
X137269000Y-78638638D01*
X137273445Y-78593501D01*
X137284819Y-78556007D01*
X137303294Y-78521443D01*
X137328153Y-78491153D01*
X137358443Y-78466294D01*
X137393007Y-78447819D01*
X137430501Y-78436445D01*
X137475638Y-78432000D01*
X138114362Y-78432000D01*
X138159499Y-78436445D01*
X138159499Y-78436445D01*
G37*
G36*
X146541499Y-78436445D02*
X146578993Y-78447819D01*
X146613557Y-78466294D01*
X146643847Y-78491153D01*
X146668706Y-78521443D01*
X146687181Y-78556007D01*
X146698555Y-78593501D01*
X146703000Y-78638638D01*
X146703000Y-79377362D01*
X146698555Y-79422499D01*
X146687181Y-79459993D01*
X146668706Y-79494557D01*
X146643847Y-79524847D01*
X146613557Y-79549706D01*
X146578993Y-79568181D01*
X146541499Y-79579555D01*
X146496362Y-79584000D01*
X145857638Y-79584000D01*
X145812501Y-79579555D01*
X145775007Y-79568181D01*
X145740443Y-79549706D01*
X145710153Y-79524847D01*
X145685294Y-79494557D01*
X145666819Y-79459993D01*
X145655445Y-79422499D01*
X145651000Y-79377362D01*
X145651000Y-78638638D01*
X145655445Y-78593501D01*
X145666819Y-78556007D01*
X145685294Y-78521443D01*
X145710153Y-78491153D01*
X145740443Y-78466294D01*
X145775007Y-78447819D01*
X145812501Y-78436445D01*
X145857638Y-78432000D01*
X146496362Y-78432000D01*
X146541499Y-78436445D01*
X146541499Y-78436445D01*
G37*
G36*
X136428000Y-79436000D02*
X135266000Y-79436000D01*
X135266000Y-78684000D01*
X136428000Y-78684000D01*
X136428000Y-79436000D01*
X136428000Y-79436000D01*
G37*
G36*
X165860000Y-79318000D02*
X155958000Y-79318000D01*
X155958000Y-77716000D01*
X165860000Y-77716000D01*
X165860000Y-79318000D01*
X165860000Y-79318000D01*
G37*
G36*
X148865928Y-75558764D02*
X148887011Y-75565160D01*
X148906442Y-75575546D01*
X148923475Y-75589525D01*
X148937454Y-75606558D01*
X148947840Y-75625989D01*
X148954236Y-75647072D01*
X148957000Y-75675140D01*
X148957000Y-77088860D01*
X148954236Y-77116928D01*
X148947840Y-77138011D01*
X148937454Y-77157442D01*
X148923475Y-77174475D01*
X148906442Y-77188454D01*
X148887011Y-77198840D01*
X148865928Y-77205236D01*
X148837860Y-77208000D01*
X148374140Y-77208000D01*
X148346072Y-77205236D01*
X148324989Y-77198840D01*
X148305558Y-77188454D01*
X148288525Y-77174475D01*
X148274546Y-77157442D01*
X148264160Y-77138011D01*
X148257764Y-77116928D01*
X148255000Y-77088860D01*
X148255000Y-75675140D01*
X148257764Y-75647072D01*
X148264160Y-75625989D01*
X148274546Y-75606558D01*
X148288525Y-75589525D01*
X148305558Y-75575546D01*
X148324989Y-75565160D01*
X148346072Y-75558764D01*
X148374140Y-75556000D01*
X148837860Y-75556000D01*
X148865928Y-75558764D01*
X148865928Y-75558764D01*
G37*
G36*
X149865928Y-75558764D02*
X149887011Y-75565160D01*
X149906442Y-75575546D01*
X149923475Y-75589525D01*
X149937454Y-75606558D01*
X149947840Y-75625989D01*
X149954236Y-75647072D01*
X149957000Y-75675140D01*
X149957000Y-77088860D01*
X149954236Y-77116928D01*
X149947840Y-77138011D01*
X149937454Y-77157442D01*
X149923475Y-77174475D01*
X149906442Y-77188454D01*
X149887011Y-77198840D01*
X149865928Y-77205236D01*
X149837860Y-77208000D01*
X149374140Y-77208000D01*
X149346072Y-77205236D01*
X149324989Y-77198840D01*
X149305558Y-77188454D01*
X149288525Y-77174475D01*
X149274546Y-77157442D01*
X149264160Y-77138011D01*
X149257764Y-77116928D01*
X149255000Y-77088860D01*
X149255000Y-75675140D01*
X149257764Y-75647072D01*
X149264160Y-75625989D01*
X149274546Y-75606558D01*
X149288525Y-75589525D01*
X149305558Y-75575546D01*
X149324989Y-75565160D01*
X149346072Y-75558764D01*
X149374140Y-75556000D01*
X149837860Y-75556000D01*
X149865928Y-75558764D01*
X149865928Y-75558764D01*
G37*
G36*
X150865928Y-75558764D02*
X150887011Y-75565160D01*
X150906442Y-75575546D01*
X150923475Y-75589525D01*
X150937454Y-75606558D01*
X150947840Y-75625989D01*
X150954236Y-75647072D01*
X150957000Y-75675140D01*
X150957000Y-77088860D01*
X150954236Y-77116928D01*
X150947840Y-77138011D01*
X150937454Y-77157442D01*
X150923475Y-77174475D01*
X150906442Y-77188454D01*
X150887011Y-77198840D01*
X150865928Y-77205236D01*
X150837860Y-77208000D01*
X150374140Y-77208000D01*
X150346072Y-77205236D01*
X150324989Y-77198840D01*
X150305558Y-77188454D01*
X150288525Y-77174475D01*
X150274546Y-77157442D01*
X150264160Y-77138011D01*
X150257764Y-77116928D01*
X150255000Y-77088860D01*
X150255000Y-75675140D01*
X150257764Y-75647072D01*
X150264160Y-75625989D01*
X150274546Y-75606558D01*
X150288525Y-75589525D01*
X150305558Y-75575546D01*
X150324989Y-75565160D01*
X150346072Y-75558764D01*
X150374140Y-75556000D01*
X150837860Y-75556000D01*
X150865928Y-75558764D01*
X150865928Y-75558764D01*
G37*
G36*
X159495499Y-75868445D02*
X159532993Y-75879819D01*
X159567557Y-75898294D01*
X159597847Y-75923153D01*
X159622706Y-75953443D01*
X159641181Y-75988007D01*
X159652555Y-76025501D01*
X159657000Y-76070638D01*
X159657000Y-76809362D01*
X159652555Y-76854499D01*
X159641181Y-76891993D01*
X159622706Y-76926557D01*
X159597847Y-76956847D01*
X159567557Y-76981706D01*
X159532993Y-77000181D01*
X159495499Y-77011555D01*
X159450362Y-77016000D01*
X158811638Y-77016000D01*
X158766501Y-77011555D01*
X158729007Y-77000181D01*
X158694443Y-76981706D01*
X158664153Y-76956847D01*
X158639294Y-76926557D01*
X158620819Y-76891993D01*
X158609445Y-76854499D01*
X158605000Y-76809362D01*
X158605000Y-76070638D01*
X158609445Y-76025501D01*
X158620819Y-75988007D01*
X158639294Y-75953443D01*
X158664153Y-75923153D01*
X158694443Y-75898294D01*
X158729007Y-75879819D01*
X158766501Y-75868445D01*
X158811638Y-75864000D01*
X159450362Y-75864000D01*
X159495499Y-75868445D01*
X159495499Y-75868445D01*
G37*
G36*
X155812999Y-75932445D02*
X155850493Y-75943819D01*
X155885057Y-75962294D01*
X155915347Y-75987153D01*
X155940206Y-76017443D01*
X155958681Y-76052007D01*
X155970055Y-76089501D01*
X155974500Y-76134638D01*
X155974500Y-76773362D01*
X155970055Y-76818499D01*
X155958681Y-76855993D01*
X155940206Y-76890557D01*
X155915347Y-76920847D01*
X155885057Y-76945706D01*
X155850493Y-76964181D01*
X155812999Y-76975555D01*
X155767862Y-76980000D01*
X155029138Y-76980000D01*
X154984001Y-76975555D01*
X154946507Y-76964181D01*
X154911943Y-76945706D01*
X154881653Y-76920847D01*
X154856794Y-76890557D01*
X154838319Y-76855993D01*
X154826945Y-76818499D01*
X154822500Y-76773362D01*
X154822500Y-76134638D01*
X154826945Y-76089501D01*
X154838319Y-76052007D01*
X154856794Y-76017443D01*
X154881653Y-75987153D01*
X154911943Y-75962294D01*
X154946507Y-75943819D01*
X154984001Y-75932445D01*
X155029138Y-75928000D01*
X155767862Y-75928000D01*
X155812999Y-75932445D01*
X155812999Y-75932445D01*
G37*
G36*
X157562999Y-75932445D02*
X157600493Y-75943819D01*
X157635057Y-75962294D01*
X157665347Y-75987153D01*
X157690206Y-76017443D01*
X157708681Y-76052007D01*
X157720055Y-76089501D01*
X157724500Y-76134638D01*
X157724500Y-76773362D01*
X157720055Y-76818499D01*
X157708681Y-76855993D01*
X157690206Y-76890557D01*
X157665347Y-76920847D01*
X157635057Y-76945706D01*
X157600493Y-76964181D01*
X157562999Y-76975555D01*
X157517862Y-76980000D01*
X156779138Y-76980000D01*
X156734001Y-76975555D01*
X156696507Y-76964181D01*
X156661943Y-76945706D01*
X156631653Y-76920847D01*
X156606794Y-76890557D01*
X156588319Y-76855993D01*
X156576945Y-76818499D01*
X156572500Y-76773362D01*
X156572500Y-76134638D01*
X156576945Y-76089501D01*
X156588319Y-76052007D01*
X156606794Y-76017443D01*
X156631653Y-75987153D01*
X156661943Y-75962294D01*
X156696507Y-75943819D01*
X156734001Y-75932445D01*
X156779138Y-75928000D01*
X157517862Y-75928000D01*
X157562999Y-75932445D01*
X157562999Y-75932445D01*
G37*
G36*
X164103499Y-75678445D02*
X164140993Y-75689819D01*
X164175557Y-75708294D01*
X164205847Y-75733153D01*
X164230706Y-75763443D01*
X164249181Y-75798007D01*
X164260555Y-75835501D01*
X164265000Y-75880638D01*
X164265000Y-76519362D01*
X164260555Y-76564499D01*
X164249181Y-76601993D01*
X164230706Y-76636557D01*
X164205847Y-76666847D01*
X164175557Y-76691706D01*
X164140993Y-76710181D01*
X164103499Y-76721555D01*
X164058362Y-76726000D01*
X163319638Y-76726000D01*
X163274501Y-76721555D01*
X163237007Y-76710181D01*
X163202443Y-76691706D01*
X163172153Y-76666847D01*
X163147294Y-76636557D01*
X163128819Y-76601993D01*
X163117445Y-76564499D01*
X163113000Y-76519362D01*
X163113000Y-75880638D01*
X163117445Y-75835501D01*
X163128819Y-75798007D01*
X163147294Y-75763443D01*
X163172153Y-75733153D01*
X163202443Y-75708294D01*
X163237007Y-75689819D01*
X163274501Y-75678445D01*
X163319638Y-75674000D01*
X164058362Y-75674000D01*
X164103499Y-75678445D01*
X164103499Y-75678445D01*
G37*
G36*
X162353499Y-75678445D02*
X162390993Y-75689819D01*
X162425557Y-75708294D01*
X162455847Y-75733153D01*
X162480706Y-75763443D01*
X162499181Y-75798007D01*
X162510555Y-75835501D01*
X162515000Y-75880638D01*
X162515000Y-76519362D01*
X162510555Y-76564499D01*
X162499181Y-76601993D01*
X162480706Y-76636557D01*
X162455847Y-76666847D01*
X162425557Y-76691706D01*
X162390993Y-76710181D01*
X162353499Y-76721555D01*
X162308362Y-76726000D01*
X161569638Y-76726000D01*
X161524501Y-76721555D01*
X161487007Y-76710181D01*
X161452443Y-76691706D01*
X161422153Y-76666847D01*
X161397294Y-76636557D01*
X161378819Y-76601993D01*
X161367445Y-76564499D01*
X161363000Y-76519362D01*
X161363000Y-75880638D01*
X161367445Y-75835501D01*
X161378819Y-75798007D01*
X161397294Y-75763443D01*
X161422153Y-75733153D01*
X161452443Y-75708294D01*
X161487007Y-75689819D01*
X161524501Y-75678445D01*
X161569638Y-75674000D01*
X162308362Y-75674000D01*
X162353499Y-75678445D01*
X162353499Y-75678445D01*
G37*
G36*
X144128443Y-73500519D02*
X144194627Y-73507037D01*
X144307853Y-73541384D01*
X144364467Y-73558557D01*
X144503087Y-73632652D01*
X144520991Y-73642222D01*
X144556729Y-73671552D01*
X144658186Y-73754814D01*
X144735098Y-73848533D01*
X144770778Y-73892009D01*
X144770779Y-73892011D01*
X144854443Y-74048533D01*
X144860143Y-74067323D01*
X144905963Y-74218373D01*
X144923359Y-74395000D01*
X144905963Y-74571627D01*
X144882722Y-74648242D01*
X144854443Y-74741467D01*
X144821234Y-74803596D01*
X144770778Y-74897991D01*
X144741448Y-74933729D01*
X144658186Y-75035186D01*
X144556729Y-75118448D01*
X144520991Y-75147778D01*
X144520989Y-75147779D01*
X144364467Y-75231443D01*
X144316544Y-75245980D01*
X144194627Y-75282963D01*
X144128443Y-75289481D01*
X144062260Y-75296000D01*
X143973740Y-75296000D01*
X143907557Y-75289481D01*
X143841373Y-75282963D01*
X143719456Y-75245980D01*
X143671533Y-75231443D01*
X143515011Y-75147779D01*
X143515009Y-75147778D01*
X143479271Y-75118448D01*
X143377814Y-75035186D01*
X143294552Y-74933729D01*
X143265222Y-74897991D01*
X143214766Y-74803596D01*
X143181557Y-74741467D01*
X143153278Y-74648242D01*
X143130037Y-74571627D01*
X143112641Y-74395000D01*
X143130037Y-74218373D01*
X143175857Y-74067323D01*
X143181557Y-74048533D01*
X143265221Y-73892011D01*
X143265222Y-73892009D01*
X143300902Y-73848533D01*
X143377814Y-73754814D01*
X143479271Y-73671552D01*
X143515009Y-73642222D01*
X143532913Y-73632652D01*
X143671533Y-73558557D01*
X143728147Y-73541384D01*
X143841373Y-73507037D01*
X143907557Y-73500519D01*
X143973740Y-73494000D01*
X144062260Y-73494000D01*
X144128443Y-73500519D01*
X144128443Y-73500519D01*
G37*
G36*
X139048443Y-73500519D02*
X139114627Y-73507037D01*
X139227853Y-73541384D01*
X139284467Y-73558557D01*
X139423087Y-73632652D01*
X139440991Y-73642222D01*
X139476729Y-73671552D01*
X139578186Y-73754814D01*
X139655098Y-73848533D01*
X139690778Y-73892009D01*
X139690779Y-73892011D01*
X139774443Y-74048533D01*
X139780143Y-74067323D01*
X139825963Y-74218373D01*
X139843359Y-74395000D01*
X139825963Y-74571627D01*
X139802722Y-74648242D01*
X139774443Y-74741467D01*
X139741234Y-74803596D01*
X139690778Y-74897991D01*
X139661448Y-74933729D01*
X139578186Y-75035186D01*
X139476729Y-75118448D01*
X139440991Y-75147778D01*
X139440989Y-75147779D01*
X139284467Y-75231443D01*
X139236544Y-75245980D01*
X139114627Y-75282963D01*
X139048443Y-75289481D01*
X138982260Y-75296000D01*
X138893740Y-75296000D01*
X138827557Y-75289481D01*
X138761373Y-75282963D01*
X138639456Y-75245980D01*
X138591533Y-75231443D01*
X138435011Y-75147779D01*
X138435009Y-75147778D01*
X138399271Y-75118448D01*
X138297814Y-75035186D01*
X138214552Y-74933729D01*
X138185222Y-74897991D01*
X138134766Y-74803596D01*
X138101557Y-74741467D01*
X138073278Y-74648242D01*
X138050037Y-74571627D01*
X138032641Y-74395000D01*
X138050037Y-74218373D01*
X138095857Y-74067323D01*
X138101557Y-74048533D01*
X138185221Y-73892011D01*
X138185222Y-73892009D01*
X138220902Y-73848533D01*
X138297814Y-73754814D01*
X138399271Y-73671552D01*
X138435009Y-73642222D01*
X138452913Y-73632652D01*
X138591533Y-73558557D01*
X138648147Y-73541384D01*
X138761373Y-73507037D01*
X138827557Y-73500519D01*
X138893740Y-73494000D01*
X138982260Y-73494000D01*
X139048443Y-73500519D01*
X139048443Y-73500519D01*
G37*
G36*
X133968443Y-73500519D02*
X134034627Y-73507037D01*
X134147853Y-73541384D01*
X134204467Y-73558557D01*
X134343087Y-73632652D01*
X134360991Y-73642222D01*
X134396729Y-73671552D01*
X134498186Y-73754814D01*
X134575098Y-73848533D01*
X134610778Y-73892009D01*
X134610779Y-73892011D01*
X134694443Y-74048533D01*
X134700143Y-74067323D01*
X134745963Y-74218373D01*
X134763359Y-74395000D01*
X134745963Y-74571627D01*
X134722722Y-74648242D01*
X134694443Y-74741467D01*
X134661234Y-74803596D01*
X134610778Y-74897991D01*
X134581448Y-74933729D01*
X134498186Y-75035186D01*
X134396729Y-75118448D01*
X134360991Y-75147778D01*
X134360989Y-75147779D01*
X134204467Y-75231443D01*
X134156544Y-75245980D01*
X134034627Y-75282963D01*
X133968443Y-75289481D01*
X133902260Y-75296000D01*
X133813740Y-75296000D01*
X133747557Y-75289481D01*
X133681373Y-75282963D01*
X133559456Y-75245980D01*
X133511533Y-75231443D01*
X133355011Y-75147779D01*
X133355009Y-75147778D01*
X133319271Y-75118448D01*
X133217814Y-75035186D01*
X133134552Y-74933729D01*
X133105222Y-74897991D01*
X133054766Y-74803596D01*
X133021557Y-74741467D01*
X132993278Y-74648242D01*
X132970037Y-74571627D01*
X132952641Y-74395000D01*
X132970037Y-74218373D01*
X133015857Y-74067323D01*
X133021557Y-74048533D01*
X133105221Y-73892011D01*
X133105222Y-73892009D01*
X133140902Y-73848533D01*
X133217814Y-73754814D01*
X133319271Y-73671552D01*
X133355009Y-73642222D01*
X133372913Y-73632652D01*
X133511533Y-73558557D01*
X133568147Y-73541384D01*
X133681373Y-73507037D01*
X133747557Y-73500519D01*
X133813740Y-73494000D01*
X133902260Y-73494000D01*
X133968443Y-73500519D01*
X133968443Y-73500519D01*
G37*
G36*
X159495499Y-74118445D02*
X159532993Y-74129819D01*
X159567557Y-74148294D01*
X159597847Y-74173153D01*
X159622706Y-74203443D01*
X159641181Y-74238007D01*
X159652555Y-74275501D01*
X159657000Y-74320638D01*
X159657000Y-75059362D01*
X159652555Y-75104499D01*
X159641181Y-75141993D01*
X159622706Y-75176557D01*
X159597847Y-75206847D01*
X159567557Y-75231706D01*
X159532993Y-75250181D01*
X159495499Y-75261555D01*
X159450362Y-75266000D01*
X158811638Y-75266000D01*
X158766501Y-75261555D01*
X158729007Y-75250181D01*
X158694443Y-75231706D01*
X158664153Y-75206847D01*
X158639294Y-75176557D01*
X158620819Y-75141993D01*
X158609445Y-75104499D01*
X158605000Y-75059362D01*
X158605000Y-74320638D01*
X158609445Y-74275501D01*
X158620819Y-74238007D01*
X158639294Y-74203443D01*
X158664153Y-74173153D01*
X158694443Y-74148294D01*
X158729007Y-74129819D01*
X158766501Y-74118445D01*
X158811638Y-74114000D01*
X159450362Y-74114000D01*
X159495499Y-74118445D01*
X159495499Y-74118445D01*
G37*
G36*
X132219000Y-75096000D02*
X130417000Y-75096000D01*
X130417000Y-73294000D01*
X132219000Y-73294000D01*
X132219000Y-75096000D01*
X132219000Y-75096000D01*
G37*
G36*
X141588442Y-73300518D02*
X141654627Y-73307037D01*
X141767853Y-73341384D01*
X141824467Y-73358557D01*
X141963087Y-73432652D01*
X141980991Y-73442222D01*
X142016729Y-73471552D01*
X142118186Y-73554814D01*
X142189918Y-73642221D01*
X142230778Y-73692009D01*
X142230779Y-73692011D01*
X142314443Y-73848533D01*
X142314443Y-73848534D01*
X142365963Y-74018373D01*
X142383359Y-74195000D01*
X142365963Y-74371627D01*
X142331616Y-74484853D01*
X142314443Y-74541467D01*
X142257370Y-74648242D01*
X142230778Y-74697991D01*
X142213109Y-74719520D01*
X142118186Y-74835186D01*
X142023799Y-74912646D01*
X141980991Y-74947778D01*
X141980989Y-74947779D01*
X141824467Y-75031443D01*
X141793930Y-75040706D01*
X141654627Y-75082963D01*
X141588443Y-75089481D01*
X141522260Y-75096000D01*
X141433740Y-75096000D01*
X141367557Y-75089481D01*
X141301373Y-75082963D01*
X141162070Y-75040706D01*
X141131533Y-75031443D01*
X140975011Y-74947779D01*
X140975009Y-74947778D01*
X140932201Y-74912646D01*
X140837814Y-74835186D01*
X140742891Y-74719520D01*
X140725222Y-74697991D01*
X140698630Y-74648242D01*
X140641557Y-74541467D01*
X140624384Y-74484853D01*
X140590037Y-74371627D01*
X140572641Y-74195000D01*
X140590037Y-74018373D01*
X140641557Y-73848534D01*
X140641557Y-73848533D01*
X140725221Y-73692011D01*
X140725222Y-73692009D01*
X140766082Y-73642221D01*
X140837814Y-73554814D01*
X140939271Y-73471552D01*
X140975009Y-73442222D01*
X140992913Y-73432652D01*
X141131533Y-73358557D01*
X141188147Y-73341384D01*
X141301373Y-73307037D01*
X141367558Y-73300518D01*
X141433740Y-73294000D01*
X141522260Y-73294000D01*
X141588442Y-73300518D01*
X141588442Y-73300518D01*
G37*
G36*
X136508442Y-73300518D02*
X136574627Y-73307037D01*
X136687853Y-73341384D01*
X136744467Y-73358557D01*
X136883087Y-73432652D01*
X136900991Y-73442222D01*
X136936729Y-73471552D01*
X137038186Y-73554814D01*
X137109918Y-73642221D01*
X137150778Y-73692009D01*
X137150779Y-73692011D01*
X137234443Y-73848533D01*
X137234443Y-73848534D01*
X137285963Y-74018373D01*
X137303359Y-74195000D01*
X137285963Y-74371627D01*
X137251616Y-74484853D01*
X137234443Y-74541467D01*
X137177370Y-74648242D01*
X137150778Y-74697991D01*
X137133109Y-74719520D01*
X137038186Y-74835186D01*
X136943799Y-74912646D01*
X136900991Y-74947778D01*
X136900989Y-74947779D01*
X136744467Y-75031443D01*
X136713930Y-75040706D01*
X136574627Y-75082963D01*
X136508443Y-75089481D01*
X136442260Y-75096000D01*
X136353740Y-75096000D01*
X136287557Y-75089481D01*
X136221373Y-75082963D01*
X136082070Y-75040706D01*
X136051533Y-75031443D01*
X135895011Y-74947779D01*
X135895009Y-74947778D01*
X135852201Y-74912646D01*
X135757814Y-74835186D01*
X135662891Y-74719520D01*
X135645222Y-74697991D01*
X135618630Y-74648242D01*
X135561557Y-74541467D01*
X135544384Y-74484853D01*
X135510037Y-74371627D01*
X135492641Y-74195000D01*
X135510037Y-74018373D01*
X135561557Y-73848534D01*
X135561557Y-73848533D01*
X135645221Y-73692011D01*
X135645222Y-73692009D01*
X135686082Y-73642221D01*
X135757814Y-73554814D01*
X135859271Y-73471552D01*
X135895009Y-73442222D01*
X135912913Y-73432652D01*
X136051533Y-73358557D01*
X136108147Y-73341384D01*
X136221373Y-73307037D01*
X136287558Y-73300518D01*
X136353740Y-73294000D01*
X136442260Y-73294000D01*
X136508442Y-73300518D01*
X136508442Y-73300518D01*
G37*
G36*
X162353499Y-74027445D02*
X162390993Y-74038819D01*
X162425557Y-74057294D01*
X162455847Y-74082153D01*
X162480706Y-74112443D01*
X162499181Y-74147007D01*
X162510555Y-74184501D01*
X162515000Y-74229638D01*
X162515000Y-74868362D01*
X162510555Y-74913499D01*
X162499181Y-74950993D01*
X162480706Y-74985557D01*
X162455847Y-75015847D01*
X162425557Y-75040706D01*
X162390993Y-75059181D01*
X162353499Y-75070555D01*
X162308362Y-75075000D01*
X161569638Y-75075000D01*
X161524501Y-75070555D01*
X161487007Y-75059181D01*
X161452443Y-75040706D01*
X161422153Y-75015847D01*
X161397294Y-74985557D01*
X161378819Y-74950993D01*
X161367445Y-74913499D01*
X161363000Y-74868362D01*
X161363000Y-74229638D01*
X161367445Y-74184501D01*
X161378819Y-74147007D01*
X161397294Y-74112443D01*
X161422153Y-74082153D01*
X161452443Y-74057294D01*
X161487007Y-74038819D01*
X161524501Y-74027445D01*
X161569638Y-74023000D01*
X162308362Y-74023000D01*
X162353499Y-74027445D01*
X162353499Y-74027445D01*
G37*
G36*
X164103499Y-74027445D02*
X164140993Y-74038819D01*
X164175557Y-74057294D01*
X164205847Y-74082153D01*
X164230706Y-74112443D01*
X164249181Y-74147007D01*
X164260555Y-74184501D01*
X164265000Y-74229638D01*
X164265000Y-74868362D01*
X164260555Y-74913499D01*
X164249181Y-74950993D01*
X164230706Y-74985557D01*
X164205847Y-75015847D01*
X164175557Y-75040706D01*
X164140993Y-75059181D01*
X164103499Y-75070555D01*
X164058362Y-75075000D01*
X163319638Y-75075000D01*
X163274501Y-75070555D01*
X163237007Y-75059181D01*
X163202443Y-75040706D01*
X163172153Y-75015847D01*
X163147294Y-74985557D01*
X163128819Y-74950993D01*
X163117445Y-74913499D01*
X163113000Y-74868362D01*
X163113000Y-74229638D01*
X163117445Y-74184501D01*
X163128819Y-74147007D01*
X163147294Y-74112443D01*
X163172153Y-74082153D01*
X163202443Y-74057294D01*
X163237007Y-74038819D01*
X163274501Y-74027445D01*
X163319638Y-74023000D01*
X164058362Y-74023000D01*
X164103499Y-74027445D01*
X164103499Y-74027445D01*
G37*
G36*
X152397242Y-72910404D02*
X152434339Y-72921657D01*
X152468520Y-72939927D01*
X152498482Y-72964518D01*
X152523073Y-72994480D01*
X152541343Y-73028661D01*
X152552596Y-73065758D01*
X152557000Y-73110473D01*
X152557000Y-74603527D01*
X152552596Y-74648242D01*
X152541343Y-74685339D01*
X152523073Y-74719520D01*
X152498482Y-74749482D01*
X152468520Y-74774073D01*
X152434339Y-74792343D01*
X152397242Y-74803596D01*
X152352527Y-74808000D01*
X151459473Y-74808000D01*
X151414758Y-74803596D01*
X151377661Y-74792343D01*
X151343480Y-74774073D01*
X151313518Y-74749482D01*
X151288927Y-74719520D01*
X151270657Y-74685339D01*
X151259404Y-74648242D01*
X151255000Y-74603527D01*
X151255000Y-73110473D01*
X151259404Y-73065758D01*
X151270657Y-73028661D01*
X151288927Y-72994480D01*
X151313518Y-72964518D01*
X151343480Y-72939927D01*
X151377661Y-72921657D01*
X151414758Y-72910404D01*
X151459473Y-72906000D01*
X152352527Y-72906000D01*
X152397242Y-72910404D01*
X152397242Y-72910404D01*
G37*
G36*
X147797242Y-72910404D02*
X147834339Y-72921657D01*
X147868520Y-72939927D01*
X147898482Y-72964518D01*
X147923073Y-72994480D01*
X147941343Y-73028661D01*
X147952596Y-73065758D01*
X147957000Y-73110473D01*
X147957000Y-74603527D01*
X147952596Y-74648242D01*
X147941343Y-74685339D01*
X147923073Y-74719520D01*
X147898482Y-74749482D01*
X147868520Y-74774073D01*
X147834339Y-74792343D01*
X147797242Y-74803596D01*
X147752527Y-74808000D01*
X146859473Y-74808000D01*
X146814758Y-74803596D01*
X146777661Y-74792343D01*
X146743480Y-74774073D01*
X146713518Y-74749482D01*
X146688927Y-74719520D01*
X146670657Y-74685339D01*
X146659404Y-74648242D01*
X146655000Y-74603527D01*
X146655000Y-73110473D01*
X146659404Y-73065758D01*
X146670657Y-73028661D01*
X146688927Y-72994480D01*
X146713518Y-72964518D01*
X146743480Y-72939927D01*
X146777661Y-72921657D01*
X146814758Y-72910404D01*
X146859473Y-72906000D01*
X147752527Y-72906000D01*
X147797242Y-72910404D01*
X147797242Y-72910404D01*
G37*
M02*
