G04 #@! TF.GenerationSoftware,KiCad,Pcbnew,(5.0.2)-1*
G04 #@! TF.CreationDate,2020-02-27T04:06:32+08:00*
G04 #@! TF.ProjectId,jointController,6a6f696e-7443-46f6-9e74-726f6c6c6572,rev?*
G04 #@! TF.SameCoordinates,Original*
G04 #@! TF.FileFunction,Soldermask,Bot*
G04 #@! TF.FilePolarity,Negative*
%FSLAX46Y46*%
G04 Gerber Fmt 4.6, Leading zero omitted, Abs format (unit mm)*
G04 Created by KiCad (PCBNEW (5.0.2)-1) date 2/27/2020 4:06:32 AM*
%MOMM*%
%LPD*%
G01*
G04 APERTURE LIST*
%ADD10C,0.100000*%
G04 APERTURE END LIST*
D10*
G36*
X136747220Y-116722942D02*
X137120523Y-116877569D01*
X137456492Y-117102056D01*
X137742201Y-117387765D01*
X137966688Y-117723734D01*
X138121315Y-118097037D01*
X138200143Y-118493332D01*
X138200143Y-118897396D01*
X138121315Y-119293691D01*
X137966688Y-119666994D01*
X137742201Y-120002963D01*
X137456492Y-120288672D01*
X137120523Y-120513159D01*
X136747220Y-120667786D01*
X136350925Y-120746614D01*
X135946861Y-120746614D01*
X135550566Y-120667786D01*
X135177263Y-120513159D01*
X134841294Y-120288672D01*
X134555585Y-120002963D01*
X134331098Y-119666994D01*
X134176471Y-119293691D01*
X134097643Y-118897396D01*
X134097643Y-118493332D01*
X134176471Y-118097037D01*
X134331098Y-117723734D01*
X134555585Y-117387765D01*
X134841294Y-117102056D01*
X135177263Y-116877569D01*
X135550566Y-116722942D01*
X135946861Y-116644114D01*
X136350925Y-116644114D01*
X136747220Y-116722942D01*
X136747220Y-116722942D01*
G37*
G36*
X149247220Y-116722942D02*
X149620523Y-116877569D01*
X149956492Y-117102056D01*
X150242201Y-117387765D01*
X150466688Y-117723734D01*
X150621315Y-118097037D01*
X150700143Y-118493332D01*
X150700143Y-118897396D01*
X150621315Y-119293691D01*
X150466688Y-119666994D01*
X150242201Y-120002963D01*
X149956492Y-120288672D01*
X149620523Y-120513159D01*
X149247220Y-120667786D01*
X148850925Y-120746614D01*
X148446861Y-120746614D01*
X148050566Y-120667786D01*
X147677263Y-120513159D01*
X147341294Y-120288672D01*
X147055585Y-120002963D01*
X146831098Y-119666994D01*
X146676471Y-119293691D01*
X146597643Y-118897396D01*
X146597643Y-118493332D01*
X146676471Y-118097037D01*
X146831098Y-117723734D01*
X147055585Y-117387765D01*
X147341294Y-117102056D01*
X147677263Y-116877569D01*
X148050566Y-116722942D01*
X148446861Y-116644114D01*
X148850925Y-116644114D01*
X149247220Y-116722942D01*
X149247220Y-116722942D01*
G37*
G36*
X161747220Y-116722942D02*
X162120523Y-116877569D01*
X162456492Y-117102056D01*
X162742201Y-117387765D01*
X162966688Y-117723734D01*
X163121315Y-118097037D01*
X163200143Y-118493332D01*
X163200143Y-118897396D01*
X163121315Y-119293691D01*
X162966688Y-119666994D01*
X162742201Y-120002963D01*
X162456492Y-120288672D01*
X162120523Y-120513159D01*
X161747220Y-120667786D01*
X161350925Y-120746614D01*
X160946861Y-120746614D01*
X160550566Y-120667786D01*
X160177263Y-120513159D01*
X159841294Y-120288672D01*
X159555585Y-120002963D01*
X159331098Y-119666994D01*
X159176471Y-119293691D01*
X159097643Y-118897396D01*
X159097643Y-118493332D01*
X159176471Y-118097037D01*
X159331098Y-117723734D01*
X159555585Y-117387765D01*
X159841294Y-117102056D01*
X160177263Y-116877569D01*
X160550566Y-116722942D01*
X160946861Y-116644114D01*
X161350925Y-116644114D01*
X161747220Y-116722942D01*
X161747220Y-116722942D01*
G37*
G36*
X149438293Y-95376962D02*
X149438296Y-95376963D01*
X149476184Y-95388456D01*
X149511103Y-95407120D01*
X149541709Y-95432238D01*
X149566827Y-95462844D01*
X149581450Y-95490202D01*
X149585490Y-95497761D01*
X149596985Y-95535654D01*
X149599893Y-95565181D01*
X149599893Y-96034927D01*
X149596985Y-96064454D01*
X149596984Y-96064456D01*
X149596984Y-96064457D01*
X149585491Y-96102345D01*
X149566827Y-96137264D01*
X149566825Y-96137266D01*
X149565295Y-96140129D01*
X149555918Y-96162768D01*
X149551137Y-96186801D01*
X149551137Y-96211306D01*
X149555917Y-96235339D01*
X149565295Y-96257978D01*
X149578908Y-96278353D01*
X149596235Y-96295680D01*
X149616255Y-96309057D01*
X149620959Y-96317858D01*
X149636505Y-96336800D01*
X149655447Y-96352346D01*
X149677058Y-96363897D01*
X149700507Y-96371010D01*
X149724893Y-96373412D01*
X149749279Y-96371010D01*
X149772728Y-96363897D01*
X149783818Y-96358652D01*
X149786681Y-96357122D01*
X149786683Y-96357120D01*
X149821602Y-96338456D01*
X149859490Y-96326963D01*
X149859493Y-96326962D01*
X149889020Y-96324054D01*
X150358766Y-96324054D01*
X150388293Y-96326962D01*
X150388296Y-96326963D01*
X150426184Y-96338456D01*
X150461103Y-96357120D01*
X150491709Y-96382238D01*
X150516827Y-96412844D01*
X150534359Y-96445644D01*
X150535490Y-96447761D01*
X150546985Y-96485654D01*
X150550865Y-96525054D01*
X150546985Y-96564454D01*
X150546984Y-96564457D01*
X150535491Y-96602345D01*
X150516827Y-96637264D01*
X150491709Y-96667870D01*
X150491707Y-96667872D01*
X150478845Y-96678427D01*
X150461518Y-96695754D01*
X150447904Y-96716128D01*
X150438526Y-96738767D01*
X150433745Y-96762800D01*
X150433745Y-96787305D01*
X150438525Y-96811338D01*
X150447902Y-96833977D01*
X150461516Y-96854352D01*
X150478843Y-96871679D01*
X150491709Y-96882238D01*
X150516827Y-96912844D01*
X150534359Y-96945644D01*
X150535490Y-96947761D01*
X150546985Y-96985654D01*
X150550865Y-97025054D01*
X150546985Y-97064454D01*
X150546984Y-97064457D01*
X150535491Y-97102345D01*
X150516827Y-97137264D01*
X150491709Y-97167870D01*
X150491707Y-97167872D01*
X150478845Y-97178427D01*
X150461518Y-97195754D01*
X150447904Y-97216128D01*
X150438526Y-97238767D01*
X150433745Y-97262800D01*
X150433745Y-97287305D01*
X150438525Y-97311338D01*
X150447902Y-97333977D01*
X150461516Y-97354352D01*
X150478843Y-97371679D01*
X150491709Y-97382238D01*
X150516827Y-97412844D01*
X150534359Y-97445644D01*
X150535490Y-97447761D01*
X150546985Y-97485654D01*
X150550865Y-97525054D01*
X150546985Y-97564454D01*
X150546984Y-97564457D01*
X150535491Y-97602345D01*
X150516827Y-97637264D01*
X150491709Y-97667870D01*
X150491707Y-97667872D01*
X150478845Y-97678427D01*
X150461518Y-97695754D01*
X150447904Y-97716128D01*
X150438526Y-97738767D01*
X150433745Y-97762800D01*
X150433745Y-97787305D01*
X150438525Y-97811338D01*
X150447902Y-97833977D01*
X150461516Y-97854352D01*
X150478843Y-97871679D01*
X150491709Y-97882238D01*
X150516827Y-97912844D01*
X150534359Y-97945644D01*
X150535490Y-97947761D01*
X150546985Y-97985654D01*
X150550865Y-98025054D01*
X150546985Y-98064454D01*
X150546984Y-98064457D01*
X150535491Y-98102345D01*
X150516827Y-98137264D01*
X150491709Y-98167870D01*
X150461103Y-98192988D01*
X150426184Y-98211652D01*
X150395348Y-98221006D01*
X150388293Y-98223146D01*
X150358766Y-98226054D01*
X149889020Y-98226054D01*
X149859493Y-98223146D01*
X149852438Y-98221006D01*
X149821602Y-98211652D01*
X149786683Y-98192988D01*
X149786681Y-98192986D01*
X149783818Y-98191456D01*
X149761179Y-98182079D01*
X149737146Y-98177298D01*
X149712641Y-98177298D01*
X149688608Y-98182078D01*
X149665969Y-98191456D01*
X149645594Y-98205069D01*
X149628267Y-98222396D01*
X149614890Y-98242416D01*
X149606089Y-98247120D01*
X149587147Y-98262666D01*
X149571601Y-98281608D01*
X149560050Y-98303219D01*
X149552937Y-98326668D01*
X149550535Y-98351054D01*
X149552937Y-98375440D01*
X149560050Y-98398889D01*
X149565295Y-98409979D01*
X149566825Y-98412842D01*
X149566827Y-98412844D01*
X149583616Y-98444255D01*
X149585490Y-98447761D01*
X149596985Y-98485654D01*
X149599893Y-98515181D01*
X149599893Y-98984927D01*
X149596985Y-99014454D01*
X149596984Y-99014456D01*
X149596984Y-99014457D01*
X149585491Y-99052345D01*
X149566827Y-99087264D01*
X149541709Y-99117870D01*
X149511102Y-99142988D01*
X149476183Y-99161652D01*
X149438295Y-99173145D01*
X149438294Y-99173145D01*
X149438291Y-99173146D01*
X149398893Y-99177026D01*
X149359493Y-99173146D01*
X149352438Y-99171006D01*
X149321602Y-99161652D01*
X149286683Y-99142988D01*
X149256077Y-99117870D01*
X149256075Y-99117867D01*
X149245520Y-99105006D01*
X149228193Y-99087679D01*
X149207819Y-99074065D01*
X149185180Y-99064687D01*
X149161147Y-99059906D01*
X149136642Y-99059906D01*
X149112609Y-99064686D01*
X149089970Y-99074063D01*
X149069595Y-99087677D01*
X149052266Y-99105006D01*
X149041712Y-99117867D01*
X149041710Y-99117868D01*
X149041709Y-99117870D01*
X149011102Y-99142988D01*
X148976183Y-99161652D01*
X148938295Y-99173145D01*
X148938294Y-99173145D01*
X148938291Y-99173146D01*
X148898893Y-99177026D01*
X148859493Y-99173146D01*
X148852438Y-99171006D01*
X148821602Y-99161652D01*
X148786683Y-99142988D01*
X148756077Y-99117870D01*
X148756075Y-99117867D01*
X148745520Y-99105006D01*
X148728193Y-99087679D01*
X148707819Y-99074065D01*
X148685180Y-99064687D01*
X148661147Y-99059906D01*
X148636642Y-99059906D01*
X148612609Y-99064686D01*
X148589970Y-99074063D01*
X148569595Y-99087677D01*
X148552266Y-99105006D01*
X148541712Y-99117867D01*
X148541710Y-99117868D01*
X148541709Y-99117870D01*
X148511102Y-99142988D01*
X148476183Y-99161652D01*
X148438295Y-99173145D01*
X148438294Y-99173145D01*
X148438291Y-99173146D01*
X148398893Y-99177026D01*
X148359493Y-99173146D01*
X148352438Y-99171006D01*
X148321602Y-99161652D01*
X148286683Y-99142988D01*
X148256077Y-99117870D01*
X148256075Y-99117867D01*
X148245520Y-99105006D01*
X148228193Y-99087679D01*
X148207819Y-99074065D01*
X148185180Y-99064687D01*
X148161147Y-99059906D01*
X148136642Y-99059906D01*
X148112609Y-99064686D01*
X148089970Y-99074063D01*
X148069595Y-99087677D01*
X148052266Y-99105006D01*
X148041712Y-99117867D01*
X148041710Y-99117868D01*
X148041709Y-99117870D01*
X148011102Y-99142988D01*
X147976183Y-99161652D01*
X147938295Y-99173145D01*
X147938294Y-99173145D01*
X147938291Y-99173146D01*
X147898893Y-99177026D01*
X147859493Y-99173146D01*
X147852438Y-99171006D01*
X147821602Y-99161652D01*
X147786683Y-99142988D01*
X147756077Y-99117870D01*
X147730959Y-99087263D01*
X147712295Y-99052344D01*
X147700802Y-99014456D01*
X147700801Y-99014453D01*
X147697893Y-98984926D01*
X147697893Y-98515185D01*
X147700802Y-98485655D01*
X147712297Y-98447761D01*
X147714171Y-98444255D01*
X147730960Y-98412844D01*
X147730962Y-98412842D01*
X147732492Y-98409979D01*
X147741869Y-98387340D01*
X147746650Y-98363307D01*
X147746650Y-98338802D01*
X147741870Y-98314769D01*
X147732492Y-98292130D01*
X147718879Y-98271755D01*
X147701552Y-98254428D01*
X147681531Y-98241050D01*
X147676827Y-98232250D01*
X147661281Y-98213308D01*
X147642339Y-98197762D01*
X147620728Y-98186211D01*
X147597279Y-98179098D01*
X147572893Y-98176696D01*
X147548507Y-98179098D01*
X147525058Y-98186211D01*
X147513968Y-98191456D01*
X147511105Y-98192986D01*
X147511103Y-98192988D01*
X147476184Y-98211652D01*
X147445348Y-98221006D01*
X147438293Y-98223146D01*
X147408766Y-98226054D01*
X146939020Y-98226054D01*
X146909493Y-98223146D01*
X146902438Y-98221006D01*
X146871602Y-98211652D01*
X146836683Y-98192988D01*
X146806077Y-98167870D01*
X146780959Y-98137264D01*
X146762295Y-98102345D01*
X146750802Y-98064457D01*
X146750801Y-98064454D01*
X146746921Y-98025054D01*
X146750801Y-97985654D01*
X146762296Y-97947761D01*
X146763427Y-97945644D01*
X146780959Y-97912844D01*
X146806077Y-97882238D01*
X146818943Y-97871679D01*
X146836268Y-97854354D01*
X146849882Y-97833980D01*
X146859260Y-97811341D01*
X146864041Y-97787308D01*
X146864041Y-97762803D01*
X146859261Y-97738770D01*
X146849884Y-97716131D01*
X146836270Y-97695756D01*
X146818941Y-97678427D01*
X146806079Y-97667872D01*
X146806077Y-97667870D01*
X146780959Y-97637264D01*
X146762295Y-97602345D01*
X146750802Y-97564457D01*
X146750801Y-97564454D01*
X146746921Y-97525054D01*
X146750801Y-97485654D01*
X146762296Y-97447761D01*
X146763427Y-97445644D01*
X146780959Y-97412844D01*
X146806077Y-97382238D01*
X146818943Y-97371679D01*
X146836268Y-97354354D01*
X146849882Y-97333980D01*
X146859260Y-97311341D01*
X146864041Y-97287308D01*
X146864041Y-97262803D01*
X146859261Y-97238770D01*
X146849884Y-97216131D01*
X146836270Y-97195756D01*
X146818941Y-97178427D01*
X146806079Y-97167872D01*
X146806077Y-97167870D01*
X146780959Y-97137264D01*
X146762295Y-97102345D01*
X146750802Y-97064457D01*
X146750801Y-97064454D01*
X146746921Y-97025054D01*
X146750801Y-96985654D01*
X146762296Y-96947761D01*
X146763427Y-96945644D01*
X146780959Y-96912844D01*
X146806077Y-96882238D01*
X146818943Y-96871679D01*
X146836268Y-96854354D01*
X146849882Y-96833980D01*
X146859260Y-96811341D01*
X146864041Y-96787308D01*
X146864041Y-96762803D01*
X146859261Y-96738770D01*
X146849884Y-96716131D01*
X146836270Y-96695756D01*
X146818941Y-96678427D01*
X146806079Y-96667872D01*
X146806077Y-96667870D01*
X146780959Y-96637264D01*
X146762295Y-96602345D01*
X146750802Y-96564457D01*
X146750801Y-96564454D01*
X146746921Y-96525054D01*
X146750801Y-96485654D01*
X146762296Y-96447761D01*
X146763427Y-96445644D01*
X146780959Y-96412844D01*
X146806077Y-96382238D01*
X146836683Y-96357120D01*
X146871602Y-96338456D01*
X146909490Y-96326963D01*
X146909493Y-96326962D01*
X146939020Y-96324054D01*
X147408766Y-96324054D01*
X147438293Y-96326962D01*
X147438296Y-96326963D01*
X147476184Y-96338456D01*
X147511103Y-96357120D01*
X147511105Y-96357122D01*
X147513968Y-96358652D01*
X147536607Y-96368029D01*
X147560640Y-96372810D01*
X147585145Y-96372810D01*
X147609178Y-96368030D01*
X147631817Y-96358652D01*
X147652192Y-96345039D01*
X147669519Y-96327712D01*
X147682895Y-96307693D01*
X147691698Y-96302988D01*
X147710640Y-96287442D01*
X147726186Y-96268500D01*
X147737737Y-96246889D01*
X147744850Y-96223440D01*
X147747252Y-96199054D01*
X147744850Y-96174668D01*
X147737737Y-96151219D01*
X147732491Y-96140128D01*
X147730960Y-96137264D01*
X147730959Y-96137263D01*
X147724977Y-96126070D01*
X147712296Y-96102348D01*
X147700801Y-96064453D01*
X147697893Y-96034926D01*
X147697893Y-95565185D01*
X147700802Y-95535655D01*
X147712297Y-95497761D01*
X147716337Y-95490202D01*
X147730960Y-95462844D01*
X147756078Y-95432238D01*
X147786684Y-95407120D01*
X147821603Y-95388456D01*
X147859491Y-95376963D01*
X147859492Y-95376963D01*
X147859495Y-95376962D01*
X147898893Y-95373082D01*
X147938293Y-95376962D01*
X147938296Y-95376963D01*
X147976184Y-95388456D01*
X148011103Y-95407120D01*
X148041709Y-95432238D01*
X148041711Y-95432240D01*
X148052269Y-95445105D01*
X148069596Y-95462432D01*
X148089971Y-95476045D01*
X148112610Y-95485422D01*
X148136644Y-95490202D01*
X148161148Y-95490202D01*
X148185181Y-95485421D01*
X148207820Y-95476043D01*
X148228195Y-95462429D01*
X148245521Y-95445102D01*
X148256076Y-95432240D01*
X148256078Y-95432238D01*
X148286684Y-95407120D01*
X148321603Y-95388456D01*
X148359491Y-95376963D01*
X148359492Y-95376963D01*
X148359495Y-95376962D01*
X148398893Y-95373082D01*
X148438293Y-95376962D01*
X148438296Y-95376963D01*
X148476184Y-95388456D01*
X148511103Y-95407120D01*
X148541709Y-95432238D01*
X148541711Y-95432240D01*
X148552269Y-95445105D01*
X148569596Y-95462432D01*
X148589971Y-95476045D01*
X148612610Y-95485422D01*
X148636644Y-95490202D01*
X148661148Y-95490202D01*
X148685181Y-95485421D01*
X148707820Y-95476043D01*
X148728195Y-95462429D01*
X148745521Y-95445102D01*
X148756076Y-95432240D01*
X148756078Y-95432238D01*
X148786684Y-95407120D01*
X148821603Y-95388456D01*
X148859491Y-95376963D01*
X148859492Y-95376963D01*
X148859495Y-95376962D01*
X148898893Y-95373082D01*
X148938293Y-95376962D01*
X148938296Y-95376963D01*
X148976184Y-95388456D01*
X149011103Y-95407120D01*
X149041709Y-95432238D01*
X149041711Y-95432240D01*
X149052269Y-95445105D01*
X149069596Y-95462432D01*
X149089971Y-95476045D01*
X149112610Y-95485422D01*
X149136644Y-95490202D01*
X149161148Y-95490202D01*
X149185181Y-95485421D01*
X149207820Y-95476043D01*
X149228195Y-95462429D01*
X149245521Y-95445102D01*
X149256076Y-95432240D01*
X149256078Y-95432238D01*
X149286684Y-95407120D01*
X149321603Y-95388456D01*
X149359491Y-95376963D01*
X149359492Y-95376963D01*
X149359495Y-95376962D01*
X149398893Y-95373082D01*
X149438293Y-95376962D01*
X149438293Y-95376962D01*
G37*
G36*
X126083905Y-95363789D02*
X126382350Y-95423153D01*
X126710122Y-95558921D01*
X127005109Y-95756025D01*
X127255975Y-96006891D01*
X127453079Y-96301878D01*
X127588847Y-96629650D01*
X127658060Y-96977611D01*
X127658060Y-97332389D01*
X127588847Y-97680350D01*
X127453079Y-98008122D01*
X127255975Y-98303109D01*
X127005109Y-98553975D01*
X126710122Y-98751079D01*
X126382350Y-98886847D01*
X126083905Y-98946211D01*
X126034390Y-98956060D01*
X125679610Y-98956060D01*
X125630095Y-98946211D01*
X125331650Y-98886847D01*
X125003878Y-98751079D01*
X124708891Y-98553975D01*
X124458025Y-98303109D01*
X124260921Y-98008122D01*
X124125153Y-97680350D01*
X124055940Y-97332389D01*
X124055940Y-96977611D01*
X124125153Y-96629650D01*
X124260921Y-96301878D01*
X124458025Y-96006891D01*
X124708891Y-95756025D01*
X125003878Y-95558921D01*
X125331650Y-95423153D01*
X125630095Y-95363789D01*
X125679610Y-95353940D01*
X126034390Y-95353940D01*
X126083905Y-95363789D01*
X126083905Y-95363789D01*
G37*
G36*
X140551434Y-94322812D02*
X140551436Y-94322813D01*
X140551437Y-94322813D01*
X140601666Y-94343618D01*
X140601667Y-94343619D01*
X140646873Y-94373825D01*
X140685312Y-94412264D01*
X140685314Y-94412267D01*
X140715519Y-94457471D01*
X140736324Y-94507700D01*
X140746931Y-94561022D01*
X140746931Y-94615390D01*
X140736324Y-94668712D01*
X140715519Y-94718941D01*
X140715518Y-94718942D01*
X140685312Y-94764148D01*
X140646873Y-94802587D01*
X140646870Y-94802589D01*
X140601666Y-94832794D01*
X140551437Y-94853599D01*
X140551436Y-94853599D01*
X140551434Y-94853600D01*
X140498116Y-94864206D01*
X140443746Y-94864206D01*
X140390428Y-94853600D01*
X140390426Y-94853599D01*
X140390425Y-94853599D01*
X140340196Y-94832794D01*
X140294992Y-94802589D01*
X140294989Y-94802587D01*
X140256550Y-94764148D01*
X140226344Y-94718942D01*
X140226343Y-94718941D01*
X140205538Y-94668712D01*
X140194931Y-94615390D01*
X140194931Y-94561022D01*
X140205538Y-94507700D01*
X140226343Y-94457471D01*
X140256548Y-94412267D01*
X140256550Y-94412264D01*
X140294989Y-94373825D01*
X140340195Y-94343619D01*
X140340196Y-94343618D01*
X140390425Y-94322813D01*
X140390426Y-94322813D01*
X140390428Y-94322812D01*
X140443746Y-94312206D01*
X140498116Y-94312206D01*
X140551434Y-94322812D01*
X140551434Y-94322812D01*
G37*
G36*
X142057572Y-94322812D02*
X142057574Y-94322813D01*
X142057575Y-94322813D01*
X142107804Y-94343618D01*
X142107805Y-94343619D01*
X142153011Y-94373825D01*
X142191450Y-94412264D01*
X142191452Y-94412267D01*
X142221657Y-94457471D01*
X142242462Y-94507700D01*
X142253069Y-94561022D01*
X142253069Y-94615390D01*
X142242462Y-94668712D01*
X142221657Y-94718941D01*
X142221656Y-94718942D01*
X142191450Y-94764148D01*
X142153011Y-94802587D01*
X142153008Y-94802589D01*
X142107804Y-94832794D01*
X142057575Y-94853599D01*
X142057574Y-94853599D01*
X142057572Y-94853600D01*
X142004254Y-94864206D01*
X141949884Y-94864206D01*
X141896566Y-94853600D01*
X141896564Y-94853599D01*
X141896563Y-94853599D01*
X141846334Y-94832794D01*
X141801130Y-94802589D01*
X141801127Y-94802587D01*
X141762688Y-94764148D01*
X141732482Y-94718942D01*
X141732481Y-94718941D01*
X141711676Y-94668712D01*
X141701069Y-94615390D01*
X141701069Y-94561022D01*
X141711676Y-94507700D01*
X141732481Y-94457471D01*
X141762686Y-94412267D01*
X141762688Y-94412264D01*
X141801127Y-94373825D01*
X141846333Y-94343619D01*
X141846334Y-94343618D01*
X141896563Y-94322813D01*
X141896564Y-94322813D01*
X141896566Y-94322812D01*
X141949884Y-94312206D01*
X142004254Y-94312206D01*
X142057572Y-94322812D01*
X142057572Y-94322812D01*
G37*
G36*
X141304503Y-93569743D02*
X141304505Y-93569744D01*
X141304506Y-93569744D01*
X141354735Y-93590549D01*
X141354736Y-93590550D01*
X141399942Y-93620756D01*
X141438381Y-93659195D01*
X141438383Y-93659198D01*
X141468588Y-93704402D01*
X141489393Y-93754631D01*
X141500000Y-93807953D01*
X141500000Y-93862321D01*
X141489393Y-93915643D01*
X141468588Y-93965872D01*
X141468587Y-93965873D01*
X141438381Y-94011079D01*
X141399942Y-94049518D01*
X141399939Y-94049520D01*
X141354735Y-94079725D01*
X141304506Y-94100530D01*
X141304505Y-94100530D01*
X141304503Y-94100531D01*
X141251185Y-94111137D01*
X141196815Y-94111137D01*
X141143497Y-94100531D01*
X141143495Y-94100530D01*
X141143494Y-94100530D01*
X141093265Y-94079725D01*
X141048061Y-94049520D01*
X141048058Y-94049518D01*
X141009619Y-94011079D01*
X140979413Y-93965873D01*
X140979412Y-93965872D01*
X140958607Y-93915643D01*
X140948000Y-93862321D01*
X140948000Y-93807953D01*
X140958607Y-93754631D01*
X140979412Y-93704402D01*
X141009617Y-93659198D01*
X141009619Y-93659195D01*
X141048058Y-93620756D01*
X141093264Y-93590550D01*
X141093265Y-93590549D01*
X141143494Y-93569744D01*
X141143495Y-93569744D01*
X141143497Y-93569743D01*
X141196815Y-93559137D01*
X141251185Y-93559137D01*
X141304503Y-93569743D01*
X141304503Y-93569743D01*
G37*
G36*
X139798366Y-93569743D02*
X139798368Y-93569744D01*
X139798369Y-93569744D01*
X139848598Y-93590549D01*
X139848599Y-93590550D01*
X139893805Y-93620756D01*
X139932244Y-93659195D01*
X139932246Y-93659198D01*
X139962451Y-93704402D01*
X139983256Y-93754631D01*
X139993863Y-93807953D01*
X139993863Y-93862321D01*
X139983256Y-93915643D01*
X139962451Y-93965872D01*
X139962450Y-93965873D01*
X139932244Y-94011079D01*
X139893805Y-94049518D01*
X139893802Y-94049520D01*
X139848598Y-94079725D01*
X139798369Y-94100530D01*
X139798368Y-94100530D01*
X139798366Y-94100531D01*
X139745048Y-94111137D01*
X139690678Y-94111137D01*
X139637360Y-94100531D01*
X139637358Y-94100530D01*
X139637357Y-94100530D01*
X139587128Y-94079725D01*
X139541924Y-94049520D01*
X139541921Y-94049518D01*
X139503482Y-94011079D01*
X139473276Y-93965873D01*
X139473275Y-93965872D01*
X139452470Y-93915643D01*
X139441863Y-93862321D01*
X139441863Y-93807953D01*
X139452470Y-93754631D01*
X139473275Y-93704402D01*
X139503480Y-93659198D01*
X139503482Y-93659195D01*
X139541921Y-93620756D01*
X139587127Y-93590550D01*
X139587128Y-93590549D01*
X139637357Y-93569744D01*
X139637358Y-93569744D01*
X139637360Y-93569743D01*
X139690678Y-93559137D01*
X139745048Y-93559137D01*
X139798366Y-93569743D01*
X139798366Y-93569743D01*
G37*
G36*
X142810640Y-93569743D02*
X142810642Y-93569744D01*
X142810643Y-93569744D01*
X142860872Y-93590549D01*
X142860873Y-93590550D01*
X142906079Y-93620756D01*
X142944518Y-93659195D01*
X142944520Y-93659198D01*
X142974725Y-93704402D01*
X142995530Y-93754631D01*
X143006137Y-93807953D01*
X143006137Y-93862321D01*
X142995530Y-93915643D01*
X142974725Y-93965872D01*
X142974724Y-93965873D01*
X142944518Y-94011079D01*
X142906079Y-94049518D01*
X142906076Y-94049520D01*
X142860872Y-94079725D01*
X142810643Y-94100530D01*
X142810642Y-94100530D01*
X142810640Y-94100531D01*
X142757322Y-94111137D01*
X142702952Y-94111137D01*
X142649634Y-94100531D01*
X142649632Y-94100530D01*
X142649631Y-94100530D01*
X142599402Y-94079725D01*
X142554198Y-94049520D01*
X142554195Y-94049518D01*
X142515756Y-94011079D01*
X142485550Y-93965873D01*
X142485549Y-93965872D01*
X142464744Y-93915643D01*
X142454137Y-93862321D01*
X142454137Y-93807953D01*
X142464744Y-93754631D01*
X142485549Y-93704402D01*
X142515754Y-93659198D01*
X142515756Y-93659195D01*
X142554195Y-93620756D01*
X142599401Y-93590550D01*
X142599402Y-93590549D01*
X142649631Y-93569744D01*
X142649632Y-93569744D01*
X142649634Y-93569743D01*
X142702952Y-93559137D01*
X142757322Y-93559137D01*
X142810640Y-93569743D01*
X142810640Y-93569743D01*
G37*
G36*
X127658060Y-93876060D02*
X124055940Y-93876060D01*
X124055940Y-90273940D01*
X127658060Y-90273940D01*
X127658060Y-93876060D01*
X127658060Y-93876060D01*
G37*
G36*
X143563709Y-92816675D02*
X143563711Y-92816676D01*
X143563712Y-92816676D01*
X143613941Y-92837481D01*
X143613942Y-92837482D01*
X143659148Y-92867688D01*
X143697587Y-92906127D01*
X143697589Y-92906130D01*
X143727794Y-92951334D01*
X143748599Y-93001563D01*
X143759206Y-93054885D01*
X143759206Y-93109253D01*
X143748599Y-93162575D01*
X143727794Y-93212804D01*
X143727793Y-93212805D01*
X143697587Y-93258011D01*
X143659148Y-93296450D01*
X143659145Y-93296452D01*
X143613941Y-93326657D01*
X143563712Y-93347462D01*
X143563711Y-93347462D01*
X143563709Y-93347463D01*
X143510391Y-93358069D01*
X143456021Y-93358069D01*
X143402703Y-93347463D01*
X143402701Y-93347462D01*
X143402700Y-93347462D01*
X143352471Y-93326657D01*
X143307267Y-93296452D01*
X143307264Y-93296450D01*
X143268825Y-93258011D01*
X143238619Y-93212805D01*
X143238618Y-93212804D01*
X143217813Y-93162575D01*
X143207206Y-93109253D01*
X143207206Y-93054885D01*
X143217813Y-93001563D01*
X143238618Y-92951334D01*
X143268823Y-92906130D01*
X143268825Y-92906127D01*
X143307264Y-92867688D01*
X143352470Y-92837482D01*
X143352471Y-92837481D01*
X143402700Y-92816676D01*
X143402701Y-92816676D01*
X143402703Y-92816675D01*
X143456021Y-92806069D01*
X143510391Y-92806069D01*
X143563709Y-92816675D01*
X143563709Y-92816675D01*
G37*
G36*
X142057572Y-92816675D02*
X142057574Y-92816676D01*
X142057575Y-92816676D01*
X142107804Y-92837481D01*
X142107805Y-92837482D01*
X142153011Y-92867688D01*
X142191450Y-92906127D01*
X142191452Y-92906130D01*
X142221657Y-92951334D01*
X142242462Y-93001563D01*
X142253069Y-93054885D01*
X142253069Y-93109253D01*
X142242462Y-93162575D01*
X142221657Y-93212804D01*
X142221656Y-93212805D01*
X142191450Y-93258011D01*
X142153011Y-93296450D01*
X142153008Y-93296452D01*
X142107804Y-93326657D01*
X142057575Y-93347462D01*
X142057574Y-93347462D01*
X142057572Y-93347463D01*
X142004254Y-93358069D01*
X141949884Y-93358069D01*
X141896566Y-93347463D01*
X141896564Y-93347462D01*
X141896563Y-93347462D01*
X141846334Y-93326657D01*
X141801130Y-93296452D01*
X141801127Y-93296450D01*
X141762688Y-93258011D01*
X141732482Y-93212805D01*
X141732481Y-93212804D01*
X141711676Y-93162575D01*
X141701069Y-93109253D01*
X141701069Y-93054885D01*
X141711676Y-93001563D01*
X141732481Y-92951334D01*
X141762686Y-92906130D01*
X141762688Y-92906127D01*
X141801127Y-92867688D01*
X141846333Y-92837482D01*
X141846334Y-92837481D01*
X141896563Y-92816676D01*
X141896564Y-92816676D01*
X141896566Y-92816675D01*
X141949884Y-92806069D01*
X142004254Y-92806069D01*
X142057572Y-92816675D01*
X142057572Y-92816675D01*
G37*
G36*
X139045297Y-92816675D02*
X139045299Y-92816676D01*
X139045300Y-92816676D01*
X139095529Y-92837481D01*
X139095530Y-92837482D01*
X139140736Y-92867688D01*
X139179175Y-92906127D01*
X139179177Y-92906130D01*
X139209382Y-92951334D01*
X139230187Y-93001563D01*
X139240794Y-93054885D01*
X139240794Y-93109253D01*
X139230187Y-93162575D01*
X139209382Y-93212804D01*
X139209381Y-93212805D01*
X139179175Y-93258011D01*
X139140736Y-93296450D01*
X139140733Y-93296452D01*
X139095529Y-93326657D01*
X139045300Y-93347462D01*
X139045299Y-93347462D01*
X139045297Y-93347463D01*
X138991979Y-93358069D01*
X138937609Y-93358069D01*
X138884291Y-93347463D01*
X138884289Y-93347462D01*
X138884288Y-93347462D01*
X138834059Y-93326657D01*
X138788855Y-93296452D01*
X138788852Y-93296450D01*
X138750413Y-93258011D01*
X138720207Y-93212805D01*
X138720206Y-93212804D01*
X138699401Y-93162575D01*
X138688794Y-93109253D01*
X138688794Y-93054885D01*
X138699401Y-93001563D01*
X138720206Y-92951334D01*
X138750411Y-92906130D01*
X138750413Y-92906127D01*
X138788852Y-92867688D01*
X138834058Y-92837482D01*
X138834059Y-92837481D01*
X138884288Y-92816676D01*
X138884289Y-92816676D01*
X138884291Y-92816675D01*
X138937609Y-92806069D01*
X138991979Y-92806069D01*
X139045297Y-92816675D01*
X139045297Y-92816675D01*
G37*
G36*
X140551434Y-92816675D02*
X140551436Y-92816676D01*
X140551437Y-92816676D01*
X140601666Y-92837481D01*
X140601667Y-92837482D01*
X140646873Y-92867688D01*
X140685312Y-92906127D01*
X140685314Y-92906130D01*
X140715519Y-92951334D01*
X140736324Y-93001563D01*
X140746931Y-93054885D01*
X140746931Y-93109253D01*
X140736324Y-93162575D01*
X140715519Y-93212804D01*
X140715518Y-93212805D01*
X140685312Y-93258011D01*
X140646873Y-93296450D01*
X140646870Y-93296452D01*
X140601666Y-93326657D01*
X140551437Y-93347462D01*
X140551436Y-93347462D01*
X140551434Y-93347463D01*
X140498116Y-93358069D01*
X140443746Y-93358069D01*
X140390428Y-93347463D01*
X140390426Y-93347462D01*
X140390425Y-93347462D01*
X140340196Y-93326657D01*
X140294992Y-93296452D01*
X140294989Y-93296450D01*
X140256550Y-93258011D01*
X140226344Y-93212805D01*
X140226343Y-93212804D01*
X140205538Y-93162575D01*
X140194931Y-93109253D01*
X140194931Y-93054885D01*
X140205538Y-93001563D01*
X140226343Y-92951334D01*
X140256548Y-92906130D01*
X140256550Y-92906127D01*
X140294989Y-92867688D01*
X140340195Y-92837482D01*
X140340196Y-92837481D01*
X140390425Y-92816676D01*
X140390426Y-92816676D01*
X140390428Y-92816675D01*
X140443746Y-92806069D01*
X140498116Y-92806069D01*
X140551434Y-92816675D01*
X140551434Y-92816675D01*
G37*
G36*
X141304503Y-92063606D02*
X141304505Y-92063607D01*
X141304506Y-92063607D01*
X141354735Y-92084412D01*
X141354736Y-92084413D01*
X141399942Y-92114619D01*
X141438381Y-92153058D01*
X141438383Y-92153061D01*
X141468588Y-92198265D01*
X141489393Y-92248494D01*
X141500000Y-92301816D01*
X141500000Y-92356184D01*
X141489393Y-92409506D01*
X141468588Y-92459735D01*
X141468587Y-92459736D01*
X141438381Y-92504942D01*
X141399942Y-92543381D01*
X141399939Y-92543383D01*
X141354735Y-92573588D01*
X141304506Y-92594393D01*
X141304505Y-92594393D01*
X141304503Y-92594394D01*
X141251185Y-92605000D01*
X141196815Y-92605000D01*
X141143497Y-92594394D01*
X141143495Y-92594393D01*
X141143494Y-92594393D01*
X141093265Y-92573588D01*
X141048061Y-92543383D01*
X141048058Y-92543381D01*
X141009619Y-92504942D01*
X140979413Y-92459736D01*
X140979412Y-92459735D01*
X140958607Y-92409506D01*
X140948000Y-92356184D01*
X140948000Y-92301816D01*
X140958607Y-92248494D01*
X140979412Y-92198265D01*
X141009617Y-92153061D01*
X141009619Y-92153058D01*
X141048058Y-92114619D01*
X141093264Y-92084413D01*
X141093265Y-92084412D01*
X141143494Y-92063607D01*
X141143495Y-92063607D01*
X141143497Y-92063606D01*
X141196815Y-92053000D01*
X141251185Y-92053000D01*
X141304503Y-92063606D01*
X141304503Y-92063606D01*
G37*
G36*
X139798366Y-92063606D02*
X139798368Y-92063607D01*
X139798369Y-92063607D01*
X139848598Y-92084412D01*
X139848599Y-92084413D01*
X139893805Y-92114619D01*
X139932244Y-92153058D01*
X139932246Y-92153061D01*
X139962451Y-92198265D01*
X139983256Y-92248494D01*
X139993863Y-92301816D01*
X139993863Y-92356184D01*
X139983256Y-92409506D01*
X139962451Y-92459735D01*
X139962450Y-92459736D01*
X139932244Y-92504942D01*
X139893805Y-92543381D01*
X139893802Y-92543383D01*
X139848598Y-92573588D01*
X139798369Y-92594393D01*
X139798368Y-92594393D01*
X139798366Y-92594394D01*
X139745048Y-92605000D01*
X139690678Y-92605000D01*
X139637360Y-92594394D01*
X139637358Y-92594393D01*
X139637357Y-92594393D01*
X139587128Y-92573588D01*
X139541924Y-92543383D01*
X139541921Y-92543381D01*
X139503482Y-92504942D01*
X139473276Y-92459736D01*
X139473275Y-92459735D01*
X139452470Y-92409506D01*
X139441863Y-92356184D01*
X139441863Y-92301816D01*
X139452470Y-92248494D01*
X139473275Y-92198265D01*
X139503480Y-92153061D01*
X139503482Y-92153058D01*
X139541921Y-92114619D01*
X139587127Y-92084413D01*
X139587128Y-92084412D01*
X139637357Y-92063607D01*
X139637358Y-92063607D01*
X139637360Y-92063606D01*
X139690678Y-92053000D01*
X139745048Y-92053000D01*
X139798366Y-92063606D01*
X139798366Y-92063606D01*
G37*
G36*
X142810640Y-92063606D02*
X142810642Y-92063607D01*
X142810643Y-92063607D01*
X142860872Y-92084412D01*
X142860873Y-92084413D01*
X142906079Y-92114619D01*
X142944518Y-92153058D01*
X142944520Y-92153061D01*
X142974725Y-92198265D01*
X142995530Y-92248494D01*
X143006137Y-92301816D01*
X143006137Y-92356184D01*
X142995530Y-92409506D01*
X142974725Y-92459735D01*
X142974724Y-92459736D01*
X142944518Y-92504942D01*
X142906079Y-92543381D01*
X142906076Y-92543383D01*
X142860872Y-92573588D01*
X142810643Y-92594393D01*
X142810642Y-92594393D01*
X142810640Y-92594394D01*
X142757322Y-92605000D01*
X142702952Y-92605000D01*
X142649634Y-92594394D01*
X142649632Y-92594393D01*
X142649631Y-92594393D01*
X142599402Y-92573588D01*
X142554198Y-92543383D01*
X142554195Y-92543381D01*
X142515756Y-92504942D01*
X142485550Y-92459736D01*
X142485549Y-92459735D01*
X142464744Y-92409506D01*
X142454137Y-92356184D01*
X142454137Y-92301816D01*
X142464744Y-92248494D01*
X142485549Y-92198265D01*
X142515754Y-92153061D01*
X142515756Y-92153058D01*
X142554195Y-92114619D01*
X142599401Y-92084413D01*
X142599402Y-92084412D01*
X142649631Y-92063607D01*
X142649632Y-92063607D01*
X142649634Y-92063606D01*
X142702952Y-92053000D01*
X142757322Y-92053000D01*
X142810640Y-92063606D01*
X142810640Y-92063606D01*
G37*
G36*
X143563709Y-91310537D02*
X143563711Y-91310538D01*
X143563712Y-91310538D01*
X143613941Y-91331343D01*
X143613942Y-91331344D01*
X143659148Y-91361550D01*
X143697587Y-91399989D01*
X143697589Y-91399992D01*
X143727794Y-91445196D01*
X143748599Y-91495425D01*
X143759206Y-91548747D01*
X143759206Y-91603115D01*
X143748599Y-91656437D01*
X143727794Y-91706666D01*
X143727793Y-91706667D01*
X143697587Y-91751873D01*
X143659148Y-91790312D01*
X143659145Y-91790314D01*
X143613941Y-91820519D01*
X143563712Y-91841324D01*
X143563711Y-91841324D01*
X143563709Y-91841325D01*
X143510391Y-91851931D01*
X143456021Y-91851931D01*
X143402703Y-91841325D01*
X143402701Y-91841324D01*
X143402700Y-91841324D01*
X143352471Y-91820519D01*
X143307267Y-91790314D01*
X143307264Y-91790312D01*
X143268825Y-91751873D01*
X143238619Y-91706667D01*
X143238618Y-91706666D01*
X143217813Y-91656437D01*
X143207206Y-91603115D01*
X143207206Y-91548747D01*
X143217813Y-91495425D01*
X143238618Y-91445196D01*
X143268823Y-91399992D01*
X143268825Y-91399989D01*
X143307264Y-91361550D01*
X143352470Y-91331344D01*
X143352471Y-91331343D01*
X143402700Y-91310538D01*
X143402701Y-91310538D01*
X143402703Y-91310537D01*
X143456021Y-91299931D01*
X143510391Y-91299931D01*
X143563709Y-91310537D01*
X143563709Y-91310537D01*
G37*
G36*
X142057572Y-91310537D02*
X142057574Y-91310538D01*
X142057575Y-91310538D01*
X142107804Y-91331343D01*
X142107805Y-91331344D01*
X142153011Y-91361550D01*
X142191450Y-91399989D01*
X142191452Y-91399992D01*
X142221657Y-91445196D01*
X142242462Y-91495425D01*
X142253069Y-91548747D01*
X142253069Y-91603115D01*
X142242462Y-91656437D01*
X142221657Y-91706666D01*
X142221656Y-91706667D01*
X142191450Y-91751873D01*
X142153011Y-91790312D01*
X142153008Y-91790314D01*
X142107804Y-91820519D01*
X142057575Y-91841324D01*
X142057574Y-91841324D01*
X142057572Y-91841325D01*
X142004254Y-91851931D01*
X141949884Y-91851931D01*
X141896566Y-91841325D01*
X141896564Y-91841324D01*
X141896563Y-91841324D01*
X141846334Y-91820519D01*
X141801130Y-91790314D01*
X141801127Y-91790312D01*
X141762688Y-91751873D01*
X141732482Y-91706667D01*
X141732481Y-91706666D01*
X141711676Y-91656437D01*
X141701069Y-91603115D01*
X141701069Y-91548747D01*
X141711676Y-91495425D01*
X141732481Y-91445196D01*
X141762686Y-91399992D01*
X141762688Y-91399989D01*
X141801127Y-91361550D01*
X141846333Y-91331344D01*
X141846334Y-91331343D01*
X141896563Y-91310538D01*
X141896564Y-91310538D01*
X141896566Y-91310537D01*
X141949884Y-91299931D01*
X142004254Y-91299931D01*
X142057572Y-91310537D01*
X142057572Y-91310537D01*
G37*
G36*
X140551434Y-91310537D02*
X140551436Y-91310538D01*
X140551437Y-91310538D01*
X140601666Y-91331343D01*
X140601667Y-91331344D01*
X140646873Y-91361550D01*
X140685312Y-91399989D01*
X140685314Y-91399992D01*
X140715519Y-91445196D01*
X140736324Y-91495425D01*
X140746931Y-91548747D01*
X140746931Y-91603115D01*
X140736324Y-91656437D01*
X140715519Y-91706666D01*
X140715518Y-91706667D01*
X140685312Y-91751873D01*
X140646873Y-91790312D01*
X140646870Y-91790314D01*
X140601666Y-91820519D01*
X140551437Y-91841324D01*
X140551436Y-91841324D01*
X140551434Y-91841325D01*
X140498116Y-91851931D01*
X140443746Y-91851931D01*
X140390428Y-91841325D01*
X140390426Y-91841324D01*
X140390425Y-91841324D01*
X140340196Y-91820519D01*
X140294992Y-91790314D01*
X140294989Y-91790312D01*
X140256550Y-91751873D01*
X140226344Y-91706667D01*
X140226343Y-91706666D01*
X140205538Y-91656437D01*
X140194931Y-91603115D01*
X140194931Y-91548747D01*
X140205538Y-91495425D01*
X140226343Y-91445196D01*
X140256548Y-91399992D01*
X140256550Y-91399989D01*
X140294989Y-91361550D01*
X140340195Y-91331344D01*
X140340196Y-91331343D01*
X140390425Y-91310538D01*
X140390426Y-91310538D01*
X140390428Y-91310537D01*
X140443746Y-91299931D01*
X140498116Y-91299931D01*
X140551434Y-91310537D01*
X140551434Y-91310537D01*
G37*
G36*
X139045297Y-91310537D02*
X139045299Y-91310538D01*
X139045300Y-91310538D01*
X139095529Y-91331343D01*
X139095530Y-91331344D01*
X139140736Y-91361550D01*
X139179175Y-91399989D01*
X139179177Y-91399992D01*
X139209382Y-91445196D01*
X139230187Y-91495425D01*
X139240794Y-91548747D01*
X139240794Y-91603115D01*
X139230187Y-91656437D01*
X139209382Y-91706666D01*
X139209381Y-91706667D01*
X139179175Y-91751873D01*
X139140736Y-91790312D01*
X139140733Y-91790314D01*
X139095529Y-91820519D01*
X139045300Y-91841324D01*
X139045299Y-91841324D01*
X139045297Y-91841325D01*
X138991979Y-91851931D01*
X138937609Y-91851931D01*
X138884291Y-91841325D01*
X138884289Y-91841324D01*
X138884288Y-91841324D01*
X138834059Y-91820519D01*
X138788855Y-91790314D01*
X138788852Y-91790312D01*
X138750413Y-91751873D01*
X138720207Y-91706667D01*
X138720206Y-91706666D01*
X138699401Y-91656437D01*
X138688794Y-91603115D01*
X138688794Y-91548747D01*
X138699401Y-91495425D01*
X138720206Y-91445196D01*
X138750411Y-91399992D01*
X138750413Y-91399989D01*
X138788852Y-91361550D01*
X138834058Y-91331344D01*
X138834059Y-91331343D01*
X138884288Y-91310538D01*
X138884289Y-91310538D01*
X138884291Y-91310537D01*
X138937609Y-91299931D01*
X138991979Y-91299931D01*
X139045297Y-91310537D01*
X139045297Y-91310537D01*
G37*
G36*
X139798366Y-90557469D02*
X139798368Y-90557470D01*
X139798369Y-90557470D01*
X139848598Y-90578275D01*
X139848599Y-90578276D01*
X139893805Y-90608482D01*
X139932244Y-90646921D01*
X139932246Y-90646924D01*
X139962451Y-90692128D01*
X139983256Y-90742357D01*
X139993863Y-90795679D01*
X139993863Y-90850047D01*
X139983256Y-90903369D01*
X139962451Y-90953598D01*
X139962450Y-90953599D01*
X139932244Y-90998805D01*
X139893805Y-91037244D01*
X139893802Y-91037246D01*
X139848598Y-91067451D01*
X139798369Y-91088256D01*
X139798368Y-91088256D01*
X139798366Y-91088257D01*
X139745048Y-91098863D01*
X139690678Y-91098863D01*
X139637360Y-91088257D01*
X139637358Y-91088256D01*
X139637357Y-91088256D01*
X139587128Y-91067451D01*
X139541924Y-91037246D01*
X139541921Y-91037244D01*
X139503482Y-90998805D01*
X139473276Y-90953599D01*
X139473275Y-90953598D01*
X139452470Y-90903369D01*
X139441863Y-90850047D01*
X139441863Y-90795679D01*
X139452470Y-90742357D01*
X139473275Y-90692128D01*
X139503480Y-90646924D01*
X139503482Y-90646921D01*
X139541921Y-90608482D01*
X139587127Y-90578276D01*
X139587128Y-90578275D01*
X139637357Y-90557470D01*
X139637358Y-90557470D01*
X139637360Y-90557469D01*
X139690678Y-90546863D01*
X139745048Y-90546863D01*
X139798366Y-90557469D01*
X139798366Y-90557469D01*
G37*
G36*
X142810640Y-90557469D02*
X142810642Y-90557470D01*
X142810643Y-90557470D01*
X142860872Y-90578275D01*
X142860873Y-90578276D01*
X142906079Y-90608482D01*
X142944518Y-90646921D01*
X142944520Y-90646924D01*
X142974725Y-90692128D01*
X142995530Y-90742357D01*
X143006137Y-90795679D01*
X143006137Y-90850047D01*
X142995530Y-90903369D01*
X142974725Y-90953598D01*
X142974724Y-90953599D01*
X142944518Y-90998805D01*
X142906079Y-91037244D01*
X142906076Y-91037246D01*
X142860872Y-91067451D01*
X142810643Y-91088256D01*
X142810642Y-91088256D01*
X142810640Y-91088257D01*
X142757322Y-91098863D01*
X142702952Y-91098863D01*
X142649634Y-91088257D01*
X142649632Y-91088256D01*
X142649631Y-91088256D01*
X142599402Y-91067451D01*
X142554198Y-91037246D01*
X142554195Y-91037244D01*
X142515756Y-90998805D01*
X142485550Y-90953599D01*
X142485549Y-90953598D01*
X142464744Y-90903369D01*
X142454137Y-90850047D01*
X142454137Y-90795679D01*
X142464744Y-90742357D01*
X142485549Y-90692128D01*
X142515754Y-90646924D01*
X142515756Y-90646921D01*
X142554195Y-90608482D01*
X142599401Y-90578276D01*
X142599402Y-90578275D01*
X142649631Y-90557470D01*
X142649632Y-90557470D01*
X142649634Y-90557469D01*
X142702952Y-90546863D01*
X142757322Y-90546863D01*
X142810640Y-90557469D01*
X142810640Y-90557469D01*
G37*
G36*
X141304503Y-90557469D02*
X141304505Y-90557470D01*
X141304506Y-90557470D01*
X141354735Y-90578275D01*
X141354736Y-90578276D01*
X141399942Y-90608482D01*
X141438381Y-90646921D01*
X141438383Y-90646924D01*
X141468588Y-90692128D01*
X141489393Y-90742357D01*
X141500000Y-90795679D01*
X141500000Y-90850047D01*
X141489393Y-90903369D01*
X141468588Y-90953598D01*
X141468587Y-90953599D01*
X141438381Y-90998805D01*
X141399942Y-91037244D01*
X141399939Y-91037246D01*
X141354735Y-91067451D01*
X141304506Y-91088256D01*
X141304505Y-91088256D01*
X141304503Y-91088257D01*
X141251185Y-91098863D01*
X141196815Y-91098863D01*
X141143497Y-91088257D01*
X141143495Y-91088256D01*
X141143494Y-91088256D01*
X141093265Y-91067451D01*
X141048061Y-91037246D01*
X141048058Y-91037244D01*
X141009619Y-90998805D01*
X140979413Y-90953599D01*
X140979412Y-90953598D01*
X140958607Y-90903369D01*
X140948000Y-90850047D01*
X140948000Y-90795679D01*
X140958607Y-90742357D01*
X140979412Y-90692128D01*
X141009617Y-90646924D01*
X141009619Y-90646921D01*
X141048058Y-90608482D01*
X141093264Y-90578276D01*
X141093265Y-90578275D01*
X141143494Y-90557470D01*
X141143495Y-90557470D01*
X141143497Y-90557469D01*
X141196815Y-90546863D01*
X141251185Y-90546863D01*
X141304503Y-90557469D01*
X141304503Y-90557469D01*
G37*
G36*
X142057572Y-89804400D02*
X142057574Y-89804401D01*
X142057575Y-89804401D01*
X142107804Y-89825206D01*
X142107805Y-89825207D01*
X142153011Y-89855413D01*
X142191450Y-89893852D01*
X142191452Y-89893855D01*
X142221657Y-89939059D01*
X142242462Y-89989288D01*
X142253069Y-90042610D01*
X142253069Y-90096978D01*
X142242462Y-90150300D01*
X142221657Y-90200529D01*
X142221656Y-90200530D01*
X142191450Y-90245736D01*
X142153011Y-90284175D01*
X142153008Y-90284177D01*
X142107804Y-90314382D01*
X142057575Y-90335187D01*
X142057574Y-90335187D01*
X142057572Y-90335188D01*
X142004254Y-90345794D01*
X141949884Y-90345794D01*
X141896566Y-90335188D01*
X141896564Y-90335187D01*
X141896563Y-90335187D01*
X141846334Y-90314382D01*
X141801130Y-90284177D01*
X141801127Y-90284175D01*
X141762688Y-90245736D01*
X141732482Y-90200530D01*
X141732481Y-90200529D01*
X141711676Y-90150300D01*
X141701069Y-90096978D01*
X141701069Y-90042610D01*
X141711676Y-89989288D01*
X141732481Y-89939059D01*
X141762686Y-89893855D01*
X141762688Y-89893852D01*
X141801127Y-89855413D01*
X141846333Y-89825207D01*
X141846334Y-89825206D01*
X141896563Y-89804401D01*
X141896564Y-89804401D01*
X141896566Y-89804400D01*
X141949884Y-89793794D01*
X142004254Y-89793794D01*
X142057572Y-89804400D01*
X142057572Y-89804400D01*
G37*
G36*
X140551434Y-89804400D02*
X140551436Y-89804401D01*
X140551437Y-89804401D01*
X140601666Y-89825206D01*
X140601667Y-89825207D01*
X140646873Y-89855413D01*
X140685312Y-89893852D01*
X140685314Y-89893855D01*
X140715519Y-89939059D01*
X140736324Y-89989288D01*
X140746931Y-90042610D01*
X140746931Y-90096978D01*
X140736324Y-90150300D01*
X140715519Y-90200529D01*
X140715518Y-90200530D01*
X140685312Y-90245736D01*
X140646873Y-90284175D01*
X140646870Y-90284177D01*
X140601666Y-90314382D01*
X140551437Y-90335187D01*
X140551436Y-90335187D01*
X140551434Y-90335188D01*
X140498116Y-90345794D01*
X140443746Y-90345794D01*
X140390428Y-90335188D01*
X140390426Y-90335187D01*
X140390425Y-90335187D01*
X140340196Y-90314382D01*
X140294992Y-90284177D01*
X140294989Y-90284175D01*
X140256550Y-90245736D01*
X140226344Y-90200530D01*
X140226343Y-90200529D01*
X140205538Y-90150300D01*
X140194931Y-90096978D01*
X140194931Y-90042610D01*
X140205538Y-89989288D01*
X140226343Y-89939059D01*
X140256548Y-89893855D01*
X140256550Y-89893852D01*
X140294989Y-89855413D01*
X140340195Y-89825207D01*
X140340196Y-89825206D01*
X140390425Y-89804401D01*
X140390426Y-89804401D01*
X140390428Y-89804400D01*
X140443746Y-89793794D01*
X140498116Y-89793794D01*
X140551434Y-89804400D01*
X140551434Y-89804400D01*
G37*
G36*
X171037000Y-80994000D02*
X170085000Y-80994000D01*
X170085000Y-80042000D01*
X171037000Y-80042000D01*
X171037000Y-80994000D01*
X171037000Y-80994000D01*
G37*
G36*
X133968443Y-73500519D02*
X134034627Y-73507037D01*
X134147853Y-73541384D01*
X134204467Y-73558557D01*
X134343087Y-73632652D01*
X134360991Y-73642222D01*
X134396729Y-73671552D01*
X134498186Y-73754814D01*
X134575098Y-73848533D01*
X134610778Y-73892009D01*
X134610779Y-73892011D01*
X134694443Y-74048533D01*
X134694443Y-74048534D01*
X134745963Y-74218373D01*
X134763359Y-74395000D01*
X134745963Y-74571627D01*
X134711616Y-74684853D01*
X134694443Y-74741467D01*
X134644349Y-74835185D01*
X134610778Y-74897991D01*
X134581448Y-74933729D01*
X134498186Y-75035186D01*
X134396729Y-75118448D01*
X134360991Y-75147778D01*
X134360989Y-75147779D01*
X134204467Y-75231443D01*
X134147853Y-75248616D01*
X134034627Y-75282963D01*
X133968443Y-75289481D01*
X133902260Y-75296000D01*
X133813740Y-75296000D01*
X133747557Y-75289481D01*
X133681373Y-75282963D01*
X133568147Y-75248616D01*
X133511533Y-75231443D01*
X133355011Y-75147779D01*
X133355009Y-75147778D01*
X133319271Y-75118448D01*
X133217814Y-75035186D01*
X133134552Y-74933729D01*
X133105222Y-74897991D01*
X133071651Y-74835185D01*
X133021557Y-74741467D01*
X133004384Y-74684853D01*
X132970037Y-74571627D01*
X132952641Y-74395000D01*
X132970037Y-74218373D01*
X133021557Y-74048534D01*
X133021557Y-74048533D01*
X133105221Y-73892011D01*
X133105222Y-73892009D01*
X133140902Y-73848533D01*
X133217814Y-73754814D01*
X133319271Y-73671552D01*
X133355009Y-73642222D01*
X133372913Y-73632652D01*
X133511533Y-73558557D01*
X133568147Y-73541384D01*
X133681373Y-73507037D01*
X133747557Y-73500519D01*
X133813740Y-73494000D01*
X133902260Y-73494000D01*
X133968443Y-73500519D01*
X133968443Y-73500519D01*
G37*
G36*
X139048443Y-73500519D02*
X139114627Y-73507037D01*
X139227853Y-73541384D01*
X139284467Y-73558557D01*
X139423087Y-73632652D01*
X139440991Y-73642222D01*
X139476729Y-73671552D01*
X139578186Y-73754814D01*
X139655098Y-73848533D01*
X139690778Y-73892009D01*
X139690779Y-73892011D01*
X139774443Y-74048533D01*
X139774443Y-74048534D01*
X139825963Y-74218373D01*
X139843359Y-74395000D01*
X139825963Y-74571627D01*
X139791616Y-74684853D01*
X139774443Y-74741467D01*
X139724349Y-74835185D01*
X139690778Y-74897991D01*
X139661448Y-74933729D01*
X139578186Y-75035186D01*
X139476729Y-75118448D01*
X139440991Y-75147778D01*
X139440989Y-75147779D01*
X139284467Y-75231443D01*
X139227853Y-75248616D01*
X139114627Y-75282963D01*
X139048443Y-75289481D01*
X138982260Y-75296000D01*
X138893740Y-75296000D01*
X138827557Y-75289481D01*
X138761373Y-75282963D01*
X138648147Y-75248616D01*
X138591533Y-75231443D01*
X138435011Y-75147779D01*
X138435009Y-75147778D01*
X138399271Y-75118448D01*
X138297814Y-75035186D01*
X138214552Y-74933729D01*
X138185222Y-74897991D01*
X138151651Y-74835185D01*
X138101557Y-74741467D01*
X138084384Y-74684853D01*
X138050037Y-74571627D01*
X138032641Y-74395000D01*
X138050037Y-74218373D01*
X138101557Y-74048534D01*
X138101557Y-74048533D01*
X138185221Y-73892011D01*
X138185222Y-73892009D01*
X138220902Y-73848533D01*
X138297814Y-73754814D01*
X138399271Y-73671552D01*
X138435009Y-73642222D01*
X138452913Y-73632652D01*
X138591533Y-73558557D01*
X138648147Y-73541384D01*
X138761373Y-73507037D01*
X138827557Y-73500519D01*
X138893740Y-73494000D01*
X138982260Y-73494000D01*
X139048443Y-73500519D01*
X139048443Y-73500519D01*
G37*
G36*
X144128443Y-73500519D02*
X144194627Y-73507037D01*
X144307853Y-73541384D01*
X144364467Y-73558557D01*
X144503087Y-73632652D01*
X144520991Y-73642222D01*
X144556729Y-73671552D01*
X144658186Y-73754814D01*
X144735098Y-73848533D01*
X144770778Y-73892009D01*
X144770779Y-73892011D01*
X144854443Y-74048533D01*
X144854443Y-74048534D01*
X144905963Y-74218373D01*
X144923359Y-74395000D01*
X144905963Y-74571627D01*
X144871616Y-74684853D01*
X144854443Y-74741467D01*
X144804349Y-74835185D01*
X144770778Y-74897991D01*
X144741448Y-74933729D01*
X144658186Y-75035186D01*
X144556729Y-75118448D01*
X144520991Y-75147778D01*
X144520989Y-75147779D01*
X144364467Y-75231443D01*
X144307853Y-75248616D01*
X144194627Y-75282963D01*
X144128443Y-75289481D01*
X144062260Y-75296000D01*
X143973740Y-75296000D01*
X143907557Y-75289481D01*
X143841373Y-75282963D01*
X143728147Y-75248616D01*
X143671533Y-75231443D01*
X143515011Y-75147779D01*
X143515009Y-75147778D01*
X143479271Y-75118448D01*
X143377814Y-75035186D01*
X143294552Y-74933729D01*
X143265222Y-74897991D01*
X143231651Y-74835185D01*
X143181557Y-74741467D01*
X143164384Y-74684853D01*
X143130037Y-74571627D01*
X143112641Y-74395000D01*
X143130037Y-74218373D01*
X143181557Y-74048534D01*
X143181557Y-74048533D01*
X143265221Y-73892011D01*
X143265222Y-73892009D01*
X143300902Y-73848533D01*
X143377814Y-73754814D01*
X143479271Y-73671552D01*
X143515009Y-73642222D01*
X143532913Y-73632652D01*
X143671533Y-73558557D01*
X143728147Y-73541384D01*
X143841373Y-73507037D01*
X143907557Y-73500519D01*
X143973740Y-73494000D01*
X144062260Y-73494000D01*
X144128443Y-73500519D01*
X144128443Y-73500519D01*
G37*
G36*
X136508442Y-73300518D02*
X136574627Y-73307037D01*
X136687853Y-73341384D01*
X136744467Y-73358557D01*
X136883087Y-73432652D01*
X136900991Y-73442222D01*
X136936729Y-73471552D01*
X137038186Y-73554814D01*
X137109918Y-73642221D01*
X137150778Y-73692009D01*
X137150779Y-73692011D01*
X137234443Y-73848533D01*
X137234443Y-73848534D01*
X137285963Y-74018373D01*
X137303359Y-74195000D01*
X137285963Y-74371627D01*
X137251616Y-74484853D01*
X137234443Y-74541467D01*
X137160348Y-74680087D01*
X137150778Y-74697991D01*
X137121448Y-74733729D01*
X137038186Y-74835186D01*
X136936729Y-74918448D01*
X136900991Y-74947778D01*
X136900989Y-74947779D01*
X136744467Y-75031443D01*
X136687853Y-75048616D01*
X136574627Y-75082963D01*
X136508443Y-75089481D01*
X136442260Y-75096000D01*
X136353740Y-75096000D01*
X136287557Y-75089481D01*
X136221373Y-75082963D01*
X136108147Y-75048616D01*
X136051533Y-75031443D01*
X135895011Y-74947779D01*
X135895009Y-74947778D01*
X135859271Y-74918448D01*
X135757814Y-74835186D01*
X135674552Y-74733729D01*
X135645222Y-74697991D01*
X135635652Y-74680087D01*
X135561557Y-74541467D01*
X135544384Y-74484853D01*
X135510037Y-74371627D01*
X135492641Y-74195000D01*
X135510037Y-74018373D01*
X135561557Y-73848534D01*
X135561557Y-73848533D01*
X135645221Y-73692011D01*
X135645222Y-73692009D01*
X135686082Y-73642221D01*
X135757814Y-73554814D01*
X135859271Y-73471552D01*
X135895009Y-73442222D01*
X135912913Y-73432652D01*
X136051533Y-73358557D01*
X136108147Y-73341384D01*
X136221373Y-73307037D01*
X136287558Y-73300518D01*
X136353740Y-73294000D01*
X136442260Y-73294000D01*
X136508442Y-73300518D01*
X136508442Y-73300518D01*
G37*
G36*
X132219000Y-75096000D02*
X130417000Y-75096000D01*
X130417000Y-73294000D01*
X132219000Y-73294000D01*
X132219000Y-75096000D01*
X132219000Y-75096000D01*
G37*
G36*
X141588442Y-73300518D02*
X141654627Y-73307037D01*
X141767853Y-73341384D01*
X141824467Y-73358557D01*
X141963087Y-73432652D01*
X141980991Y-73442222D01*
X142016729Y-73471552D01*
X142118186Y-73554814D01*
X142189918Y-73642221D01*
X142230778Y-73692009D01*
X142230779Y-73692011D01*
X142314443Y-73848533D01*
X142314443Y-73848534D01*
X142365963Y-74018373D01*
X142383359Y-74195000D01*
X142365963Y-74371627D01*
X142331616Y-74484853D01*
X142314443Y-74541467D01*
X142240348Y-74680087D01*
X142230778Y-74697991D01*
X142201448Y-74733729D01*
X142118186Y-74835186D01*
X142016729Y-74918448D01*
X141980991Y-74947778D01*
X141980989Y-74947779D01*
X141824467Y-75031443D01*
X141767853Y-75048616D01*
X141654627Y-75082963D01*
X141588443Y-75089481D01*
X141522260Y-75096000D01*
X141433740Y-75096000D01*
X141367557Y-75089481D01*
X141301373Y-75082963D01*
X141188147Y-75048616D01*
X141131533Y-75031443D01*
X140975011Y-74947779D01*
X140975009Y-74947778D01*
X140939271Y-74918448D01*
X140837814Y-74835186D01*
X140754552Y-74733729D01*
X140725222Y-74697991D01*
X140715652Y-74680087D01*
X140641557Y-74541467D01*
X140624384Y-74484853D01*
X140590037Y-74371627D01*
X140572641Y-74195000D01*
X140590037Y-74018373D01*
X140641557Y-73848534D01*
X140641557Y-73848533D01*
X140725221Y-73692011D01*
X140725222Y-73692009D01*
X140766082Y-73642221D01*
X140837814Y-73554814D01*
X140939271Y-73471552D01*
X140975009Y-73442222D01*
X140992913Y-73432652D01*
X141131533Y-73358557D01*
X141188147Y-73341384D01*
X141301373Y-73307037D01*
X141367558Y-73300518D01*
X141433740Y-73294000D01*
X141522260Y-73294000D01*
X141588442Y-73300518D01*
X141588442Y-73300518D01*
G37*
M02*
