M48
;DRILL file {KiCad (5.0.2)-1} date 2/27/2020 4:06:35 AM
;FORMAT={-:-/ absolute / inch / decimal}
FMAT,2
INCH,TZ
T1C0.0079
T2C0.0118
T3C0.0157
T4C0.0197
T5C0.0394
T6C0.0591
%
G90
G05
T1
X5.4711Y-3.6054
X5.4711Y-3.6646
X5.5007Y-3.5757
X5.5007Y-3.635
X5.5007Y-3.6943
X5.5304Y-3.5461
X5.5304Y-3.6054
X5.5304Y-3.6646
X5.5304Y-3.7239
X5.56Y-3.5757
X5.56Y-3.635
X5.56Y-3.6943
X5.5896Y-3.5461
X5.5896Y-3.6054
X5.5896Y-3.6646
X5.5896Y-3.7239
X5.6193Y-3.5757
X5.6193Y-3.635
X5.6193Y-3.6943
X5.6489Y-3.6054
X5.6489Y-3.6646
T2
X4.925Y-3.285
X4.925Y-3.385
X4.925Y-3.44
X4.925Y-3.49
X4.925Y-4.06
X4.925Y-4.15
X4.925Y-4.27
X4.93Y-3.185
X4.975Y-4.1
X4.975Y-4.21
X4.975Y-4.355
X4.98Y-3.39
X5.02Y-3.185
X5.02Y-3.285
X5.105Y-3.6
X5.105Y-3.65
X5.14Y-3.935
X5.14Y-3.98
X5.155Y-3.2
X5.18Y-3.2
X5.185Y-3.935
X5.185Y-3.98
X5.195Y-3.035
X5.195Y-3.375
X5.195Y-3.42
X5.205Y-3.2
X5.275Y-3.57
X5.345Y-3.01
X5.365Y-3.475
X5.37Y-3.01
X5.395Y-3.01
X5.405Y-3.995
X5.405Y-4.035
X5.4359Y-3.511
X5.44Y-3.27
X5.44Y-3.31
X5.44Y-3.35
X5.44Y-3.405
X5.44Y-3.45
X5.445Y-4.035
X5.48Y-3.145
X5.48Y-3.185
X5.48Y-4.035
X5.485Y-3.27
X5.485Y-3.31
X5.485Y-3.385
X5.505Y-3.87
X5.51Y-3.42
X5.52Y-3.185
X5.53Y-3.27
X5.535Y-4.035
X5.54Y-3.385
X5.545Y-3.145
X5.59Y-3.995
X5.61Y-4.085
X5.645Y-3.325
X5.665Y-4.085
X5.675Y-3.355
X5.6823Y-3.4673
X5.69Y-3.285
X5.69Y-3.32
X5.71Y-3.995
X5.7106Y-3.4523
X5.735Y-3.43
X5.735Y-3.715
X5.76Y-3.735
X5.76Y-4.02
X5.77Y-3.692
X5.779Y-3.661
X5.8Y-3.995
X5.805Y-3.12
X5.82Y-3.43
X5.825Y-3.2
X5.825Y-3.285
X5.85Y-2.92
X5.86Y-4.02
X5.86Y-4.055
X5.865Y-3.28
X5.875Y-3.565
X5.88Y-4.2
X5.89Y-2.92
X5.9Y-3.585
X5.935Y-3.4494
X5.95Y-4.21
X5.96Y-3.865
X5.975Y-4.21
X5.985Y-3.765
X6.Y-3.265
X6.Y-3.885
X6.005Y-4.21
X6.015Y-3.19
X6.025Y-3.805
X6.03Y-4.21
X6.035Y-3.885
X6.055Y-3.01
X6.09Y-4.2
X6.165Y-4.02
X6.165Y-4.055
X6.195Y-4.2
X6.205Y-2.94
X6.235Y-3.215
X6.24Y-3.535
X6.25Y-3.915
X6.26Y-3.195
X6.265Y-4.21
X6.2697Y-3.5201
X6.28Y-3.815
X6.285Y-3.265
X6.29Y-4.21
X6.298Y-3.5062
X6.305Y-3.24
X6.32Y-4.21
X6.325Y-3.49
X6.345Y-4.21
X6.355Y-3.295
X6.355Y-3.795
X6.37Y-3.155
X6.37Y-3.19
X6.37Y-3.565
X6.3703Y-3.5153
X6.405Y-4.2
X6.43Y-3.54
X6.435Y-3.215
X6.445Y-3.16
X6.46Y-3.68
X6.465Y-3.94
X6.48Y-3.38
X6.505Y-2.94
X6.505Y-3.005
X6.53Y-2.975
X6.545Y-3.945
X6.555Y-3.735
X6.555Y-4.21
X6.565Y-3.005
X6.59Y-3.09
X6.605Y-4.21
X6.615Y-3.945
X6.655Y-4.21
X6.665Y-3.225
X6.72Y-3.475
X6.72Y-3.58
X6.74Y-3.525
X6.79Y-3.525
T3
X5.09Y-3.775
X5.09Y-3.83
X5.135Y-3.775
X5.135Y-3.83
X5.195Y-3.845
T4
X6.715Y-3.17
T5
X5.17Y-2.9211
X5.27Y-2.9289
X5.37Y-2.9211
X5.47Y-2.9289
X5.57Y-2.9211
X5.67Y-2.9289
T6
X5.3602Y-4.673
X5.8523Y-4.673
X6.3444Y-4.673
X4.955Y-3.625
X4.955Y-3.825
T0
M30
