G04 #@! TF.GenerationSoftware,KiCad,Pcbnew,(5.0.2)-1*
G04 #@! TF.CreationDate,2020-02-27T04:06:31+08:00*
G04 #@! TF.ProjectId,jointController,6a6f696e-7443-46f6-9e74-726f6c6c6572,rev?*
G04 #@! TF.SameCoordinates,Original*
G04 #@! TF.FileFunction,Copper,L2,Bot*
G04 #@! TF.FilePolarity,Positive*
%FSLAX46Y46*%
G04 Gerber Fmt 4.6, Leading zero omitted, Abs format (unit mm)*
G04 Created by KiCad (PCBNEW (5.0.2)-1) date 2/27/2020 4:06:31 AM*
%MOMM*%
%LPD*%
G01*
G04 APERTURE LIST*
G04 #@! TA.AperFunction,ComponentPad*
%ADD10C,0.450000*%
G04 #@! TD*
G04 #@! TA.AperFunction,SMDPad,CuDef*
%ADD11R,1.800000X1.800000*%
G04 #@! TD*
G04 #@! TA.AperFunction,SMDPad,CuDef*
%ADD12O,0.300000X0.750000*%
G04 #@! TD*
G04 #@! TA.AperFunction,SMDPad,CuDef*
%ADD13O,0.750000X0.300000*%
G04 #@! TD*
G04 #@! TA.AperFunction,ComponentPad*
%ADD14O,1.700000X1.700000*%
G04 #@! TD*
G04 #@! TA.AperFunction,ComponentPad*
%ADD15R,1.700000X1.700000*%
G04 #@! TD*
G04 #@! TA.AperFunction,ComponentPad*
%ADD16R,0.850000X0.850000*%
G04 #@! TD*
G04 #@! TA.AperFunction,ComponentPad*
%ADD17C,4.000500*%
G04 #@! TD*
G04 #@! TA.AperFunction,ComponentPad*
%ADD18R,3.500120X3.500120*%
G04 #@! TD*
G04 #@! TA.AperFunction,ComponentPad*
%ADD19C,3.500120*%
G04 #@! TD*
G04 #@! TA.AperFunction,ViaPad*
%ADD20C,0.600000*%
G04 #@! TD*
G04 #@! TA.AperFunction,ViaPad*
%ADD21C,0.800000*%
G04 #@! TD*
G04 #@! TA.AperFunction,Conductor*
%ADD22C,0.240000*%
G04 #@! TD*
G04 #@! TA.AperFunction,Conductor*
%ADD23C,0.400000*%
G04 #@! TD*
G04 #@! TA.AperFunction,Conductor*
%ADD24C,0.127000*%
G04 #@! TD*
G04 APERTURE END LIST*
D10*
G04 #@! TO.P,U2,49*
G04 #@! TO.N,SNA*
X143483206Y-91575931D03*
X142730137Y-90822863D03*
X141977069Y-90069794D03*
X140470931Y-90069794D03*
X139717863Y-90822863D03*
X138964794Y-91575931D03*
X141224000Y-90822863D03*
X140470931Y-91575931D03*
X141977069Y-91575931D03*
X142730137Y-92329000D03*
X141977069Y-93082069D03*
X143483206Y-93082069D03*
X142730137Y-93835137D03*
X141977069Y-94588206D03*
X141224000Y-93835137D03*
X140470931Y-94588206D03*
X139717863Y-92329000D03*
X138964794Y-93082069D03*
X139717863Y-93835137D03*
X140470931Y-93082069D03*
X141224000Y-92329000D03*
G04 #@! TD*
D11*
G04 #@! TO.P,U5,17*
G04 #@! TO.N,SNA*
X148648893Y-97275054D03*
D12*
G04 #@! TO.P,U5,16*
G04 #@! TO.N,Net-(U5-Pad16)*
X147898893Y-98750054D03*
G04 #@! TO.P,U5,15*
G04 #@! TO.N,Net-(U5-Pad15)*
X148398893Y-98750054D03*
G04 #@! TO.P,U5,14*
G04 #@! TO.N,Net-(U5-Pad14)*
X148898893Y-98750054D03*
G04 #@! TO.P,U5,13*
G04 #@! TO.N,+3V3*
X149398893Y-98750054D03*
D13*
G04 #@! TO.P,U5,12*
G04 #@! TO.N,ENC_SCLK*
X150123893Y-98025054D03*
G04 #@! TO.P,U5,11*
G04 #@! TO.N,Net-(U5-Pad11)*
X150123893Y-97525054D03*
G04 #@! TO.P,U5,10*
G04 #@! TO.N,SNA*
X150123893Y-97025054D03*
G04 #@! TO.P,U5,9*
G04 #@! TO.N,Net-(U5-Pad9)*
X150123893Y-96525054D03*
D12*
G04 #@! TO.P,U5,8*
G04 #@! TO.N,SNA*
X149398893Y-95800054D03*
G04 #@! TO.P,U5,7*
G04 #@! TO.N,ENC_MISO*
X148898893Y-95800054D03*
G04 #@! TO.P,U5,6*
G04 #@! TO.N,Net-(U5-Pad6)*
X148398893Y-95800054D03*
G04 #@! TO.P,U5,5*
G04 #@! TO.N,ENC_nSCS*
X147898893Y-95800054D03*
D13*
G04 #@! TO.P,U5,4*
G04 #@! TO.N,ENC_MOSI*
X147173893Y-96525054D03*
G04 #@! TO.P,U5,3*
G04 #@! TO.N,Net-(U5-Pad3)*
X147173893Y-97025054D03*
G04 #@! TO.P,U5,2*
G04 #@! TO.N,Net-(U5-Pad2)*
X147173893Y-97525054D03*
G04 #@! TO.P,U5,1*
G04 #@! TO.N,Net-(U5-Pad1)*
X147173893Y-98025054D03*
G04 #@! TD*
D14*
G04 #@! TO.P,J2,6*
G04 #@! TO.N,Net-(J2-Pad6)*
X144018000Y-74395000D03*
G04 #@! TO.P,J2,5*
G04 #@! TO.N,PGC3*
X141478000Y-74195000D03*
G04 #@! TO.P,J2,4*
G04 #@! TO.N,PGD3*
X138938000Y-74395000D03*
G04 #@! TO.P,J2,3*
G04 #@! TO.N,SNA*
X136398000Y-74195000D03*
G04 #@! TO.P,J2,2*
G04 #@! TO.N,+3V3*
X133858000Y-74395000D03*
D15*
G04 #@! TO.P,J2,1*
G04 #@! TO.N,nMCLR*
X131318000Y-74195000D03*
G04 #@! TD*
D16*
G04 #@! TO.P,TP1,1*
G04 #@! TO.N,Net-(TP1-Pad1)*
X170561000Y-80518000D03*
G04 #@! TD*
D17*
G04 #@! TO.P,J4,1*
G04 #@! TO.N,A_OUT*
X136148893Y-118695364D03*
G04 #@! TD*
G04 #@! TO.P,J5,1*
G04 #@! TO.N,B_OUT*
X148648893Y-118695364D03*
G04 #@! TD*
G04 #@! TO.P,J6,1*
G04 #@! TO.N,C_OUT*
X161148893Y-118695364D03*
G04 #@! TD*
D18*
G04 #@! TO.P,J1,1*
G04 #@! TO.N,SNA*
X125857000Y-92075000D03*
D19*
G04 #@! TO.P,J1,2*
G04 #@! TO.N,V_DRAIN*
X125857000Y-97155000D03*
G04 #@! TD*
D20*
G04 #@! TO.N,V_DRAIN*
X151130000Y-106934000D03*
X151765000Y-106934000D03*
X152527000Y-106934000D03*
X153162000Y-106934000D03*
X154686000Y-106680000D03*
X149352000Y-106680000D03*
X159131000Y-106934000D03*
X159766000Y-106934000D03*
X161163000Y-106934000D03*
X160528000Y-106934000D03*
X162687000Y-106680000D03*
X157353000Y-106680000D03*
D21*
X129286000Y-95885000D03*
X130429000Y-95885000D03*
X129286000Y-97282000D03*
X130429000Y-97282000D03*
X131953000Y-97663000D03*
D20*
X133985000Y-90678000D03*
X136271000Y-88265000D03*
X125095000Y-103124000D03*
X126365000Y-104140000D03*
X125095000Y-105410000D03*
X126365000Y-106934000D03*
X125095000Y-108458000D03*
X126365000Y-110617000D03*
G04 #@! TO.N,SNA*
X141986000Y-101473000D03*
X145034000Y-101473000D03*
X130937000Y-81280000D03*
X131572000Y-81280000D03*
X132207000Y-81280000D03*
X136398000Y-76454000D03*
X135763000Y-76454000D03*
X137033000Y-76454000D03*
X145669000Y-94361000D03*
X146304000Y-94869000D03*
X168021000Y-100203000D03*
X130556000Y-99949000D03*
X131699000Y-99949000D03*
X131699000Y-101092000D03*
X130556000Y-101092000D03*
X137287000Y-101473000D03*
X137287000Y-102489000D03*
X138303000Y-102489000D03*
X139192000Y-102489000D03*
X140589000Y-102489000D03*
X147320000Y-101473000D03*
X146304000Y-102108000D03*
X148844000Y-102997000D03*
X148844000Y-102108000D03*
X156591000Y-102108000D03*
X156591000Y-102997000D03*
X139827000Y-98298000D03*
X166497000Y-106934000D03*
X139192000Y-79883000D03*
X139192000Y-80899000D03*
X140208000Y-80899000D03*
X144526000Y-83439000D03*
X144526000Y-84328000D03*
X144145000Y-85217000D03*
X143383000Y-84455000D03*
X138176000Y-83058000D03*
X138176000Y-84074000D03*
X138176000Y-85090000D03*
X139319000Y-84074000D03*
X139319000Y-83058000D03*
X140462000Y-83058000D03*
X148971000Y-83312000D03*
X152400000Y-98679000D03*
X153289000Y-98679000D03*
X161417000Y-96393000D03*
X167767000Y-106934000D03*
X169037000Y-106934000D03*
X165227000Y-74676000D03*
X165227000Y-76327000D03*
X166751000Y-76327000D03*
X165862000Y-75565000D03*
X152019000Y-95631000D03*
X125095000Y-88646000D03*
X125095000Y-87376000D03*
X125095000Y-85979000D03*
X125095000Y-83439000D03*
X127508000Y-83439000D03*
X127508000Y-80899000D03*
X125222000Y-80899000D03*
X131953000Y-85725000D03*
X131953000Y-86868000D03*
X129667000Y-91440000D03*
X129667000Y-92710000D03*
X170688000Y-88265000D03*
X172466000Y-89535000D03*
X170688000Y-90932000D03*
X171196000Y-89535000D03*
G04 #@! TO.N,+5V*
X158750000Y-99441000D03*
X126492000Y-86106000D03*
G04 #@! TO.N,+3V3*
X151384000Y-98171000D03*
X147955000Y-83439000D03*
X147955000Y-81280000D03*
X159512000Y-96901000D03*
X153035000Y-96647000D03*
X166243000Y-100203000D03*
G04 #@! TO.N,nMCLR*
X140843000Y-79883000D03*
X131953000Y-77089000D03*
G04 #@! TO.N,PGD3*
X159639000Y-82931000D03*
X158369000Y-81661000D03*
G04 #@! TO.N,PGC3*
X160147000Y-82296000D03*
X159004000Y-81153000D03*
G04 #@! TO.N,UART_TX*
X161798000Y-80137000D03*
X148590000Y-74168000D03*
G04 #@! TO.N,UART_RX*
X161798000Y-81026000D03*
X149606000Y-74168000D03*
G04 #@! TO.N,SPB*
X142494000Y-103759000D03*
X143891000Y-103759000D03*
G04 #@! TO.N,PWM1H*
X140716000Y-85979000D03*
X147447000Y-79248000D03*
G04 #@! TO.N,PWM2H*
X139319000Y-85979000D03*
X153797000Y-76454000D03*
G04 #@! TO.N,PWM3H*
X138176000Y-87630000D03*
X157607000Y-74676000D03*
G04 #@! TO.N,nFAULT*
X152400000Y-82931000D03*
X150749000Y-87615000D03*
G04 #@! TO.N,DRV_MISO*
X147828000Y-87122000D03*
X160655000Y-88646000D03*
G04 #@! TO.N,Net-(TP1-Pad1)*
X161417000Y-83693000D03*
X163449000Y-81661000D03*
G04 #@! TO.N,DRV_nSCS*
X144329407Y-88068407D03*
X158496000Y-89789000D03*
G04 #@! TO.N,DRV_SCLK*
X145049000Y-87687687D03*
X159251413Y-89411246D03*
G04 #@! TO.N,DRV_MOSI*
X145669000Y-87122000D03*
X159969004Y-89057598D03*
G04 #@! TO.N,SOA*
X146786600Y-92989400D03*
X149225000Y-90551000D03*
G04 #@! TO.N,SOB*
X146558000Y-93776800D03*
X149860000Y-91059000D03*
G04 #@! TO.N,ENC_MISO*
X161798000Y-90551000D03*
G04 #@! TO.N,ENC_MOSI*
X161806208Y-89289208D03*
G04 #@! TO.N,ENC_SCLK*
X164084000Y-93472000D03*
G04 #@! TO.N,ENC_nSCS*
X163322000Y-89916000D03*
G04 #@! TO.N,STBY*
X169291000Y-81915000D03*
X166497000Y-94869000D03*
G04 #@! TO.N,CAN_RX*
X164211000Y-100076000D03*
X167386000Y-78486000D03*
G04 #@! TO.N,CAN_TX*
X164592000Y-85852000D03*
X163703000Y-80264000D03*
G04 #@! TO.N,PWM_EN*
X138070820Y-89179400D03*
X139954000Y-86868000D03*
X138176000Y-86487000D03*
X152781000Y-81026000D03*
G04 #@! TD*
D22*
G04 #@! TO.N,SNA*
X141986000Y-101473000D02*
X145034000Y-101473000D01*
X145034000Y-101473000D02*
X145034000Y-101473000D01*
X149398893Y-96525054D02*
X148648893Y-97275054D01*
X149398893Y-95800054D02*
X149398893Y-96525054D01*
X148898893Y-97025054D02*
X148648893Y-97275054D01*
X150123893Y-97025054D02*
X148898893Y-97025054D01*
D23*
G04 #@! TO.N,+5V*
X158242000Y-99949000D02*
X144653000Y-99949000D01*
X158750000Y-99441000D02*
X158242000Y-99949000D01*
X144653000Y-99949000D02*
X141732000Y-97028000D01*
X141732000Y-97028000D02*
X136017000Y-97028000D01*
X136017000Y-97028000D02*
X134493000Y-98552000D01*
X134493000Y-98552000D02*
X129159000Y-98552000D01*
X128485999Y-97878999D02*
X128485999Y-89750999D01*
X129159000Y-98552000D02*
X128485999Y-97878999D01*
X128485999Y-89750999D02*
X126492000Y-87757000D01*
X126492000Y-87757000D02*
X126492000Y-86106000D01*
D22*
G04 #@! TO.N,+3V3*
X149398893Y-98750054D02*
X150804946Y-98750054D01*
X150804946Y-98750054D02*
X151384000Y-98171000D01*
D23*
X147955000Y-83439000D02*
X147955000Y-81280000D01*
X159512000Y-96901000D02*
X153289000Y-96901000D01*
X153289000Y-96901000D02*
X153035000Y-96647000D01*
X159512000Y-99060000D02*
X159512000Y-96901000D01*
X161228001Y-100776001D02*
X159512000Y-99060000D01*
X165669999Y-100776001D02*
X161228001Y-100776001D01*
X166243000Y-100203000D02*
X165669999Y-100776001D01*
D22*
G04 #@! TO.N,nMCLR*
X140843000Y-79883000D02*
X138938000Y-77978000D01*
X138938000Y-77978000D02*
X132842000Y-77978000D01*
X132842000Y-77978000D02*
X131953000Y-77089000D01*
G04 #@! TO.N,PGD3*
X159639000Y-82931000D02*
X158369000Y-81661000D01*
G04 #@! TO.N,PGC3*
X160147000Y-82296000D02*
X159004000Y-81153000D01*
G04 #@! TO.N,UART_TX*
X161798000Y-80137000D02*
X161163000Y-80137000D01*
X161163000Y-80137000D02*
X160528000Y-79502000D01*
X160528000Y-79502000D02*
X160528000Y-74168000D01*
X160528000Y-74168000D02*
X159639000Y-73279000D01*
X159639000Y-73279000D02*
X149479000Y-73279000D01*
X149479000Y-73279000D02*
X148590000Y-74168000D01*
G04 #@! TO.N,UART_RX*
X161798000Y-81026000D02*
X161373736Y-81026000D01*
X161373736Y-81026000D02*
X161290000Y-81026000D01*
X161290000Y-81026000D02*
X160020000Y-79756000D01*
X160020000Y-79756000D02*
X160020000Y-74295000D01*
X160020000Y-74295000D02*
X159444010Y-73719010D01*
X159444010Y-73719010D02*
X150054990Y-73719010D01*
X150054990Y-73719010D02*
X149606000Y-74168000D01*
G04 #@! TO.N,SPB*
X143891000Y-103759000D02*
X142494000Y-103759000D01*
G04 #@! TO.N,PWM1H*
X140716000Y-85979000D02*
X141015999Y-85679001D01*
X141015999Y-85679001D02*
X146177000Y-80518000D01*
X146177000Y-80518000D02*
X147447000Y-79248000D01*
G04 #@! TO.N,PWM2H*
X147574000Y-77724000D02*
X152527000Y-77724000D01*
X147447000Y-77851000D02*
X147574000Y-77724000D01*
X152527000Y-77724000D02*
X153797000Y-76454000D01*
X139319000Y-85979000D02*
X147447000Y-77851000D01*
G04 #@! TO.N,PWM3H*
X157607000Y-80772000D02*
X157607000Y-74676000D01*
X143891000Y-87630000D02*
X145034000Y-86487000D01*
X138176000Y-87630000D02*
X143891000Y-87630000D01*
X145034000Y-86487000D02*
X147955000Y-86487000D01*
X147955000Y-86487000D02*
X152131001Y-82310999D01*
X152131001Y-82310999D02*
X156068001Y-82310999D01*
X156068001Y-82310999D02*
X157607000Y-80772000D01*
G04 #@! TO.N,nFAULT*
X152400000Y-83439000D02*
X152400000Y-82931000D01*
X150749000Y-87615000D02*
X151526000Y-87615000D01*
X152400000Y-86741000D02*
X152400000Y-83439000D01*
X151526000Y-87615000D02*
X152400000Y-86741000D01*
G04 #@! TO.N,DRV_MISO*
X147828000Y-87122000D02*
X148336000Y-87630000D01*
X148336000Y-87630000D02*
X149733000Y-87630000D01*
X149733000Y-87630000D02*
X150338001Y-88235001D01*
X150338001Y-88235001D02*
X150368000Y-88265000D01*
X150368000Y-88265000D02*
X160274000Y-88265000D01*
X160274000Y-88265000D02*
X160655000Y-88646000D01*
G04 #@! TO.N,Net-(TP1-Pad1)*
X161417000Y-83693000D02*
X163449000Y-81661000D01*
G04 #@! TO.N,DRV_nSCS*
X145220010Y-88959010D02*
X145698055Y-88959010D01*
X144329407Y-88068407D02*
X145220010Y-88959010D01*
X149169742Y-88959010D02*
X149733000Y-89522268D01*
X145698055Y-88959010D02*
X149169742Y-88959010D01*
X149733000Y-89522268D02*
X149733000Y-89535000D01*
X149783030Y-89585030D02*
X149821226Y-89585030D01*
X149733000Y-89535000D02*
X149783030Y-89585030D01*
X149821226Y-89585030D02*
X155900742Y-89585030D01*
X155900742Y-89585030D02*
X158292030Y-89585030D01*
X158292030Y-89585030D02*
X158496000Y-89789000D01*
G04 #@! TO.N,DRV_SCLK*
X145049000Y-87687687D02*
X145499313Y-88138000D01*
X145499313Y-88138000D02*
X145880313Y-88519000D01*
X145880313Y-88519000D02*
X149352000Y-88519000D01*
X149978020Y-89145020D02*
X150003484Y-89145020D01*
X149352000Y-88519000D02*
X149978020Y-89145020D01*
X150003484Y-89145020D02*
X156083000Y-89145020D01*
X156083000Y-89145020D02*
X158985187Y-89145020D01*
X158985187Y-89145020D02*
X159251413Y-89411246D01*
G04 #@! TO.N,DRV_MOSI*
X145669000Y-87122000D02*
X146939000Y-87122000D01*
X146939000Y-87122000D02*
X147887009Y-88070009D01*
X147887009Y-88070009D02*
X149538009Y-88070009D01*
X150173010Y-88705010D02*
X150185742Y-88705010D01*
X149538009Y-88070009D02*
X150173010Y-88705010D01*
X150185742Y-88705010D02*
X159616416Y-88705010D01*
X159616416Y-88705010D02*
X159969004Y-89057598D01*
G04 #@! TO.N,SOA*
X146786600Y-92989400D02*
X149225000Y-90551000D01*
G04 #@! TO.N,SOB*
X146558000Y-93776800D02*
X147142200Y-93776800D01*
X147142200Y-93776800D02*
X149860000Y-91059000D01*
G04 #@! TO.N,ENC_MISO*
X161010536Y-90551000D02*
X161798000Y-90551000D01*
X156633527Y-94928009D02*
X161010536Y-90551000D01*
X149155937Y-94928010D02*
X156633527Y-94928009D01*
X148898893Y-95800054D02*
X148898893Y-95185054D01*
X148898893Y-95185054D02*
X149155937Y-94928010D01*
G04 #@! TO.N,ENC_MOSI*
X161027792Y-89289208D02*
X161806208Y-89289208D01*
X156337000Y-93980000D02*
X161027792Y-89289208D01*
X148463000Y-93980000D02*
X156337000Y-93980000D01*
X147173893Y-96525054D02*
X147173893Y-95269107D01*
X147173893Y-95269107D02*
X148463000Y-93980000D01*
G04 #@! TO.N,ENC_SCLK*
X161798000Y-95758000D02*
X164084000Y-93472000D01*
X152879398Y-95758000D02*
X152908000Y-95758000D01*
X150612344Y-98025054D02*
X152879398Y-95758000D01*
X150123893Y-98025054D02*
X150612344Y-98025054D01*
X152908000Y-95758000D02*
X161798000Y-95758000D01*
G04 #@! TO.N,ENC_nSCS*
X161023268Y-89916000D02*
X163322000Y-89916000D01*
X147898893Y-95185054D02*
X148209000Y-94874947D01*
X147898893Y-95800054D02*
X147898893Y-95185054D01*
X148209000Y-94874947D02*
X148209000Y-94869000D01*
X148209000Y-94869000D02*
X148590000Y-94488000D01*
X148590000Y-94488000D02*
X156451268Y-94488000D01*
X156451268Y-94488000D02*
X161023268Y-89916000D01*
G04 #@! TO.N,STBY*
X169291000Y-90678000D02*
X169291000Y-81915000D01*
X166497000Y-94869000D02*
X169291000Y-92075000D01*
X169291000Y-92075000D02*
X169291000Y-90678000D01*
G04 #@! TO.N,CAN_RX*
X165608000Y-80264000D02*
X167386000Y-78486000D01*
X165608000Y-89789000D02*
X165608000Y-80264000D01*
X165227000Y-90170000D02*
X165608000Y-89789000D01*
X164211000Y-100076000D02*
X165227000Y-99060000D01*
X165227000Y-99060000D02*
X165227000Y-90170000D01*
G04 #@! TO.N,CAN_TX*
X164592000Y-85852000D02*
X164592000Y-81153000D01*
X164592000Y-81153000D02*
X163703000Y-80264000D01*
G04 #@! TO.N,PWM_EN*
X137770821Y-88879401D02*
X137770821Y-88875821D01*
X138070820Y-89179400D02*
X137770821Y-88879401D01*
X137770821Y-88875821D02*
X137287000Y-88392000D01*
X137287000Y-87376000D02*
X138176000Y-86487000D01*
X137287000Y-88392000D02*
X137287000Y-87376000D01*
X139192000Y-86868000D02*
X139954000Y-86868000D01*
X138176000Y-86487000D02*
X138811000Y-86487000D01*
X138811000Y-86487000D02*
X139192000Y-86868000D01*
X144030732Y-86868000D02*
X144919732Y-85979000D01*
X139954000Y-86868000D02*
X144030732Y-86868000D01*
X144919732Y-85979000D02*
X147840732Y-85979000D01*
X147840732Y-85979000D02*
X147840732Y-85966268D01*
X147840732Y-85966268D02*
X152781000Y-81026000D01*
G04 #@! TD*
D24*
G04 #@! TO.N,SNA*
G36*
X173349036Y-96833945D02*
X173383393Y-96848591D01*
X173383394Y-111812039D01*
X173348805Y-111826748D01*
X163714065Y-111947182D01*
X163571691Y-111889766D01*
X163512500Y-111748121D01*
X163512500Y-104136000D01*
X163507666Y-104111700D01*
X163434443Y-103934923D01*
X163420678Y-103914322D01*
X163400077Y-103900557D01*
X163223300Y-103827334D01*
X163199000Y-103822500D01*
X148568469Y-103822500D01*
X148425443Y-103768760D01*
X147559507Y-103011067D01*
X147540027Y-102999414D01*
X147375401Y-102937558D01*
X147353066Y-102933500D01*
X142584512Y-102933500D01*
X142562895Y-102937293D01*
X142402849Y-102995238D01*
X142383814Y-103006163D01*
X141769440Y-103518141D01*
X141630347Y-103568500D01*
X136399888Y-103568500D01*
X136235334Y-103492816D01*
X134870043Y-101899977D01*
X134848364Y-101883611D01*
X134658550Y-101796309D01*
X134632016Y-101790500D01*
X127770630Y-101790500D01*
X127629823Y-101732177D01*
X127571500Y-101591370D01*
X127571500Y-99178125D01*
X127625059Y-99042132D01*
X127756969Y-98979184D01*
X128849324Y-98902528D01*
X128940257Y-98963287D01*
X128978151Y-98988607D01*
X129158999Y-99024580D01*
X129204647Y-99015500D01*
X134447352Y-99015500D01*
X134493000Y-99024580D01*
X134538648Y-99015500D01*
X134673849Y-98988607D01*
X134827165Y-98886165D01*
X134853026Y-98847461D01*
X136208988Y-97491500D01*
X140970649Y-97491500D01*
X140911334Y-97634700D01*
X140906500Y-97659000D01*
X140906500Y-100715000D01*
X140911334Y-100739300D01*
X140984557Y-100916077D01*
X140998322Y-100936678D01*
X141018923Y-100950443D01*
X141195700Y-101023666D01*
X141220000Y-101028500D01*
X141414500Y-101028500D01*
X141414500Y-101604000D01*
X141419334Y-101628300D01*
X141492557Y-101805077D01*
X141506322Y-101825678D01*
X141526923Y-101839443D01*
X141703700Y-101912666D01*
X141728000Y-101917500D01*
X145292000Y-101917500D01*
X145316300Y-101912666D01*
X145493077Y-101839443D01*
X145513678Y-101825678D01*
X145527443Y-101805077D01*
X145600666Y-101628300D01*
X145605500Y-101604000D01*
X145605500Y-101028500D01*
X145673000Y-101028500D01*
X145697300Y-101023666D01*
X145874077Y-100950443D01*
X145894678Y-100936678D01*
X145908443Y-100916077D01*
X145981666Y-100739300D01*
X145986500Y-100715000D01*
X145986500Y-100412500D01*
X158196352Y-100412500D01*
X158242000Y-100421580D01*
X158287648Y-100412500D01*
X158422849Y-100385607D01*
X158576165Y-100283165D01*
X158602026Y-100244461D01*
X158833988Y-100012500D01*
X159809013Y-100012500D01*
X160867977Y-101071465D01*
X160893836Y-101110166D01*
X161047152Y-101212608D01*
X161228001Y-101248581D01*
X161273649Y-101239501D01*
X165624351Y-101239501D01*
X165669999Y-101248581D01*
X165715647Y-101239501D01*
X165850848Y-101212608D01*
X166004164Y-101110166D01*
X166030025Y-101071462D01*
X166334988Y-100766500D01*
X166355087Y-100766500D01*
X166562197Y-100680713D01*
X166720713Y-100522197D01*
X166806500Y-100315087D01*
X166806500Y-100090913D01*
X166720713Y-99883803D01*
X166562197Y-99725287D01*
X166355087Y-99639500D01*
X166130913Y-99639500D01*
X165923803Y-99725287D01*
X165765287Y-99883803D01*
X165679500Y-100090913D01*
X165679500Y-100111012D01*
X165478012Y-100312501D01*
X164722966Y-100312501D01*
X164774500Y-100188087D01*
X164774500Y-100054850D01*
X165471468Y-99357883D01*
X165503488Y-99336488D01*
X165588249Y-99209634D01*
X165610500Y-99097770D01*
X165610500Y-99097769D01*
X165618013Y-99060000D01*
X165610500Y-99022231D01*
X165610500Y-96727938D01*
X173349036Y-96833945D01*
X173349036Y-96833945D01*
G37*
X173349036Y-96833945D02*
X173383393Y-96848591D01*
X173383394Y-111812039D01*
X173348805Y-111826748D01*
X163714065Y-111947182D01*
X163571691Y-111889766D01*
X163512500Y-111748121D01*
X163512500Y-104136000D01*
X163507666Y-104111700D01*
X163434443Y-103934923D01*
X163420678Y-103914322D01*
X163400077Y-103900557D01*
X163223300Y-103827334D01*
X163199000Y-103822500D01*
X148568469Y-103822500D01*
X148425443Y-103768760D01*
X147559507Y-103011067D01*
X147540027Y-102999414D01*
X147375401Y-102937558D01*
X147353066Y-102933500D01*
X142584512Y-102933500D01*
X142562895Y-102937293D01*
X142402849Y-102995238D01*
X142383814Y-103006163D01*
X141769440Y-103518141D01*
X141630347Y-103568500D01*
X136399888Y-103568500D01*
X136235334Y-103492816D01*
X134870043Y-101899977D01*
X134848364Y-101883611D01*
X134658550Y-101796309D01*
X134632016Y-101790500D01*
X127770630Y-101790500D01*
X127629823Y-101732177D01*
X127571500Y-101591370D01*
X127571500Y-99178125D01*
X127625059Y-99042132D01*
X127756969Y-98979184D01*
X128849324Y-98902528D01*
X128940257Y-98963287D01*
X128978151Y-98988607D01*
X129158999Y-99024580D01*
X129204647Y-99015500D01*
X134447352Y-99015500D01*
X134493000Y-99024580D01*
X134538648Y-99015500D01*
X134673849Y-98988607D01*
X134827165Y-98886165D01*
X134853026Y-98847461D01*
X136208988Y-97491500D01*
X140970649Y-97491500D01*
X140911334Y-97634700D01*
X140906500Y-97659000D01*
X140906500Y-100715000D01*
X140911334Y-100739300D01*
X140984557Y-100916077D01*
X140998322Y-100936678D01*
X141018923Y-100950443D01*
X141195700Y-101023666D01*
X141220000Y-101028500D01*
X141414500Y-101028500D01*
X141414500Y-101604000D01*
X141419334Y-101628300D01*
X141492557Y-101805077D01*
X141506322Y-101825678D01*
X141526923Y-101839443D01*
X141703700Y-101912666D01*
X141728000Y-101917500D01*
X145292000Y-101917500D01*
X145316300Y-101912666D01*
X145493077Y-101839443D01*
X145513678Y-101825678D01*
X145527443Y-101805077D01*
X145600666Y-101628300D01*
X145605500Y-101604000D01*
X145605500Y-101028500D01*
X145673000Y-101028500D01*
X145697300Y-101023666D01*
X145874077Y-100950443D01*
X145894678Y-100936678D01*
X145908443Y-100916077D01*
X145981666Y-100739300D01*
X145986500Y-100715000D01*
X145986500Y-100412500D01*
X158196352Y-100412500D01*
X158242000Y-100421580D01*
X158287648Y-100412500D01*
X158422849Y-100385607D01*
X158576165Y-100283165D01*
X158602026Y-100244461D01*
X158833988Y-100012500D01*
X159809013Y-100012500D01*
X160867977Y-101071465D01*
X160893836Y-101110166D01*
X161047152Y-101212608D01*
X161228001Y-101248581D01*
X161273649Y-101239501D01*
X165624351Y-101239501D01*
X165669999Y-101248581D01*
X165715647Y-101239501D01*
X165850848Y-101212608D01*
X166004164Y-101110166D01*
X166030025Y-101071462D01*
X166334988Y-100766500D01*
X166355087Y-100766500D01*
X166562197Y-100680713D01*
X166720713Y-100522197D01*
X166806500Y-100315087D01*
X166806500Y-100090913D01*
X166720713Y-99883803D01*
X166562197Y-99725287D01*
X166355087Y-99639500D01*
X166130913Y-99639500D01*
X165923803Y-99725287D01*
X165765287Y-99883803D01*
X165679500Y-100090913D01*
X165679500Y-100111012D01*
X165478012Y-100312501D01*
X164722966Y-100312501D01*
X164774500Y-100188087D01*
X164774500Y-100054850D01*
X165471468Y-99357883D01*
X165503488Y-99336488D01*
X165588249Y-99209634D01*
X165610500Y-99097770D01*
X165610500Y-99097769D01*
X165618013Y-99060000D01*
X165610500Y-99022231D01*
X165610500Y-96727938D01*
X173349036Y-96833945D01*
G36*
X164843500Y-96717431D02*
X164843500Y-98901149D01*
X164401500Y-99343150D01*
X164401500Y-96913192D01*
X164460774Y-96771467D01*
X164603297Y-96714141D01*
X164843500Y-96717431D01*
X164843500Y-96717431D01*
G37*
X164843500Y-96717431D02*
X164843500Y-98901149D01*
X164401500Y-99343150D01*
X164401500Y-96913192D01*
X164460774Y-96771467D01*
X164603297Y-96714141D01*
X164843500Y-96717431D01*
G04 #@! TO.N,V_DRAIN*
G36*
X128022499Y-97833351D02*
X128013419Y-97878999D01*
X128022499Y-97924646D01*
X128049392Y-98059847D01*
X128151834Y-98213164D01*
X128190538Y-98239025D01*
X128547422Y-98595909D01*
X127722053Y-98653830D01*
X127627015Y-98678874D01*
X127461656Y-98757784D01*
X127385582Y-98812564D01*
X127329969Y-98899037D01*
X127262829Y-99069514D01*
X127244500Y-99166071D01*
X127244500Y-101604000D01*
X127264558Y-101704837D01*
X127337781Y-101881614D01*
X127394901Y-101967100D01*
X127480386Y-102024219D01*
X127657163Y-102097442D01*
X127758000Y-102117500D01*
X134574325Y-102117500D01*
X134659310Y-102156588D01*
X135996106Y-103716182D01*
X136086065Y-103784091D01*
X136275879Y-103871393D01*
X136385984Y-103895500D01*
X141641488Y-103895500D01*
X141731191Y-103879761D01*
X141891237Y-103821816D01*
X141930500Y-103799281D01*
X141930500Y-103871087D01*
X142016287Y-104078197D01*
X142174803Y-104236713D01*
X142381913Y-104322500D01*
X142606087Y-104322500D01*
X142813197Y-104236713D01*
X142907410Y-104142500D01*
X143477590Y-104142500D01*
X143571803Y-104236713D01*
X143778913Y-104322500D01*
X144003087Y-104322500D01*
X144210197Y-104236713D01*
X144368713Y-104078197D01*
X144454500Y-103871087D01*
X144454500Y-103646913D01*
X144368713Y-103439803D01*
X144210197Y-103281287D01*
X144160012Y-103260500D01*
X147305197Y-103260500D01*
X147380201Y-103288682D01*
X148218792Y-104022448D01*
X148299628Y-104070807D01*
X148464254Y-104132663D01*
X148556934Y-104149500D01*
X163004500Y-104149500D01*
X163004500Y-111751370D01*
X162946177Y-111892177D01*
X162805370Y-111950500D01*
X123960630Y-111950500D01*
X123914393Y-111931348D01*
X123914393Y-95205652D01*
X123960630Y-95186500D01*
X128022499Y-95186500D01*
X128022499Y-97833351D01*
X128022499Y-97833351D01*
G37*
X128022499Y-97833351D02*
X128013419Y-97878999D01*
X128022499Y-97924646D01*
X128049392Y-98059847D01*
X128151834Y-98213164D01*
X128190538Y-98239025D01*
X128547422Y-98595909D01*
X127722053Y-98653830D01*
X127627015Y-98678874D01*
X127461656Y-98757784D01*
X127385582Y-98812564D01*
X127329969Y-98899037D01*
X127262829Y-99069514D01*
X127244500Y-99166071D01*
X127244500Y-101604000D01*
X127264558Y-101704837D01*
X127337781Y-101881614D01*
X127394901Y-101967100D01*
X127480386Y-102024219D01*
X127657163Y-102097442D01*
X127758000Y-102117500D01*
X134574325Y-102117500D01*
X134659310Y-102156588D01*
X135996106Y-103716182D01*
X136086065Y-103784091D01*
X136275879Y-103871393D01*
X136385984Y-103895500D01*
X141641488Y-103895500D01*
X141731191Y-103879761D01*
X141891237Y-103821816D01*
X141930500Y-103799281D01*
X141930500Y-103871087D01*
X142016287Y-104078197D01*
X142174803Y-104236713D01*
X142381913Y-104322500D01*
X142606087Y-104322500D01*
X142813197Y-104236713D01*
X142907410Y-104142500D01*
X143477590Y-104142500D01*
X143571803Y-104236713D01*
X143778913Y-104322500D01*
X144003087Y-104322500D01*
X144210197Y-104236713D01*
X144368713Y-104078197D01*
X144454500Y-103871087D01*
X144454500Y-103646913D01*
X144368713Y-103439803D01*
X144210197Y-103281287D01*
X144160012Y-103260500D01*
X147305197Y-103260500D01*
X147380201Y-103288682D01*
X148218792Y-104022448D01*
X148299628Y-104070807D01*
X148464254Y-104132663D01*
X148556934Y-104149500D01*
X163004500Y-104149500D01*
X163004500Y-111751370D01*
X162946177Y-111892177D01*
X162805370Y-111950500D01*
X123960630Y-111950500D01*
X123914393Y-111931348D01*
X123914393Y-95205652D01*
X123960630Y-95186500D01*
X128022499Y-95186500D01*
X128022499Y-97833351D01*
G36*
X136275442Y-87851244D02*
X136915799Y-88491601D01*
X136925751Y-88541633D01*
X137010512Y-88668488D01*
X137042535Y-88689885D01*
X137465729Y-89113080D01*
X137494333Y-89155889D01*
X137507320Y-89164567D01*
X137507320Y-89291487D01*
X137593107Y-89498597D01*
X137751623Y-89657113D01*
X137958733Y-89742900D01*
X137970205Y-89742900D01*
X137945390Y-89802808D01*
X135643248Y-92104950D01*
X135629402Y-92125746D01*
X135556185Y-92304189D01*
X135551432Y-92328506D01*
X135556512Y-92353180D01*
X135632102Y-92530631D01*
X135646223Y-92551241D01*
X139767949Y-96564500D01*
X136062646Y-96564500D01*
X136016999Y-96555420D01*
X135971352Y-96564500D01*
X135836151Y-96591393D01*
X135682835Y-96693835D01*
X135656976Y-96732536D01*
X134301013Y-98088500D01*
X129350988Y-98088500D01*
X128949499Y-97687012D01*
X128949499Y-95186500D01*
X130040294Y-95186500D01*
X130070415Y-95178902D01*
X130279208Y-95066400D01*
X130302120Y-95045422D01*
X133637127Y-89981152D01*
X133673380Y-89938988D01*
X136001111Y-87844029D01*
X136139715Y-87792922D01*
X136275442Y-87851244D01*
X136275442Y-87851244D01*
G37*
X136275442Y-87851244D02*
X136915799Y-88491601D01*
X136925751Y-88541633D01*
X137010512Y-88668488D01*
X137042535Y-88689885D01*
X137465729Y-89113080D01*
X137494333Y-89155889D01*
X137507320Y-89164567D01*
X137507320Y-89291487D01*
X137593107Y-89498597D01*
X137751623Y-89657113D01*
X137958733Y-89742900D01*
X137970205Y-89742900D01*
X137945390Y-89802808D01*
X135643248Y-92104950D01*
X135629402Y-92125746D01*
X135556185Y-92304189D01*
X135551432Y-92328506D01*
X135556512Y-92353180D01*
X135632102Y-92530631D01*
X135646223Y-92551241D01*
X139767949Y-96564500D01*
X136062646Y-96564500D01*
X136016999Y-96555420D01*
X135971352Y-96564500D01*
X135836151Y-96591393D01*
X135682835Y-96693835D01*
X135656976Y-96732536D01*
X134301013Y-98088500D01*
X129350988Y-98088500D01*
X128949499Y-97687012D01*
X128949499Y-95186500D01*
X130040294Y-95186500D01*
X130070415Y-95178902D01*
X130279208Y-95066400D01*
X130302120Y-95045422D01*
X133637127Y-89981152D01*
X133673380Y-89938988D01*
X136001111Y-87844029D01*
X136139715Y-87792922D01*
X136275442Y-87851244D01*
G04 #@! TO.N,A_OUT*
G36*
X140848177Y-112516823D02*
X140906500Y-112657630D01*
X140906500Y-122009554D01*
X128206500Y-122009554D01*
X128206500Y-120165361D01*
X128417818Y-119773719D01*
X128514083Y-119195364D01*
X128513863Y-119167319D01*
X128408526Y-118590547D01*
X128122041Y-118078993D01*
X127685302Y-117687816D01*
X127145400Y-117459198D01*
X127063500Y-117453399D01*
X127063500Y-112657630D01*
X127121823Y-112516823D01*
X127262630Y-112458500D01*
X140707370Y-112458500D01*
X140848177Y-112516823D01*
X140848177Y-112516823D01*
G37*
X140848177Y-112516823D02*
X140906500Y-112657630D01*
X140906500Y-122009554D01*
X128206500Y-122009554D01*
X128206500Y-120165361D01*
X128417818Y-119773719D01*
X128514083Y-119195364D01*
X128513863Y-119167319D01*
X128408526Y-118590547D01*
X128122041Y-118078993D01*
X127685302Y-117687816D01*
X127145400Y-117459198D01*
X127063500Y-117453399D01*
X127063500Y-112657630D01*
X127121823Y-112516823D01*
X127262630Y-112458500D01*
X140707370Y-112458500D01*
X140848177Y-112516823D01*
G04 #@! TO.N,B_OUT*
G36*
X155961177Y-112516823D02*
X156019500Y-112657630D01*
X156019500Y-122009554D01*
X141414500Y-122009554D01*
X141414500Y-112657630D01*
X141472823Y-112516823D01*
X141613630Y-112458500D01*
X155820370Y-112458500D01*
X155961177Y-112516823D01*
X155961177Y-112516823D01*
G37*
X155961177Y-112516823D02*
X156019500Y-112657630D01*
X156019500Y-122009554D01*
X141414500Y-122009554D01*
X141414500Y-112657630D01*
X141472823Y-112516823D01*
X141613630Y-112458500D01*
X155820370Y-112458500D01*
X155961177Y-112516823D01*
G04 #@! TO.N,C_OUT*
G36*
X170566177Y-112516823D02*
X170624500Y-112657630D01*
X170624500Y-117433601D01*
X170401173Y-117417788D01*
X169834444Y-117568053D01*
X169346944Y-117893791D01*
X168991239Y-118359875D01*
X168805685Y-118916050D01*
X168810290Y-119502343D01*
X168973500Y-119967098D01*
X168973500Y-122009554D01*
X156527500Y-122009554D01*
X156527500Y-112657630D01*
X156585823Y-112516823D01*
X156726630Y-112458500D01*
X170425370Y-112458500D01*
X170566177Y-112516823D01*
X170566177Y-112516823D01*
G37*
X170566177Y-112516823D02*
X170624500Y-112657630D01*
X170624500Y-117433601D01*
X170401173Y-117417788D01*
X169834444Y-117568053D01*
X169346944Y-117893791D01*
X168991239Y-118359875D01*
X168805685Y-118916050D01*
X168810290Y-119502343D01*
X168973500Y-119967098D01*
X168973500Y-122009554D01*
X156527500Y-122009554D01*
X156527500Y-112657630D01*
X156585823Y-112516823D01*
X156726630Y-112458500D01*
X170425370Y-112458500D01*
X170566177Y-112516823D01*
G04 #@! TO.N,SNA*
G36*
X144292976Y-100244464D02*
X144318835Y-100283165D01*
X144472151Y-100385607D01*
X144653000Y-100421580D01*
X144698648Y-100412500D01*
X145859500Y-100412500D01*
X145859500Y-100702370D01*
X145801177Y-100843177D01*
X145660370Y-100901500D01*
X141232630Y-100901500D01*
X141091823Y-100843177D01*
X141033500Y-100702370D01*
X141033500Y-97671630D01*
X141091823Y-97530823D01*
X141186759Y-97491500D01*
X141540013Y-97491500D01*
X144292976Y-100244464D01*
X144292976Y-100244464D01*
G37*
X144292976Y-100244464D02*
X144318835Y-100283165D01*
X144472151Y-100385607D01*
X144653000Y-100421580D01*
X144698648Y-100412500D01*
X145859500Y-100412500D01*
X145859500Y-100702370D01*
X145801177Y-100843177D01*
X145660370Y-100901500D01*
X141232630Y-100901500D01*
X141091823Y-100843177D01*
X141033500Y-100702370D01*
X141033500Y-97671630D01*
X141091823Y-97530823D01*
X141186759Y-97491500D01*
X141540013Y-97491500D01*
X144292976Y-100244464D01*
G36*
X171277548Y-72615646D02*
X171872486Y-72831598D01*
X172401785Y-73178622D01*
X172837054Y-73638102D01*
X173154945Y-74185394D01*
X173339459Y-74794612D01*
X173383393Y-75286880D01*
X173383393Y-96711377D01*
X173363294Y-96707128D01*
X165610500Y-96600926D01*
X165610500Y-94756913D01*
X165933500Y-94756913D01*
X165933500Y-94981087D01*
X166019287Y-95188197D01*
X166177803Y-95346713D01*
X166384913Y-95432500D01*
X166609087Y-95432500D01*
X166816197Y-95346713D01*
X166974713Y-95188197D01*
X167060500Y-94981087D01*
X167060500Y-94847850D01*
X169535468Y-92372883D01*
X169567488Y-92351488D01*
X169602699Y-92298791D01*
X169652249Y-92224635D01*
X169682013Y-92075000D01*
X169674500Y-92037230D01*
X169674500Y-82328410D01*
X169768713Y-82234197D01*
X169854500Y-82027087D01*
X169854500Y-81802913D01*
X169768713Y-81595803D01*
X169610197Y-81437287D01*
X169403087Y-81351500D01*
X169178913Y-81351500D01*
X168971803Y-81437287D01*
X168813287Y-81595803D01*
X168727500Y-81802913D01*
X168727500Y-82027087D01*
X168813287Y-82234197D01*
X168907501Y-82328411D01*
X168907500Y-90715769D01*
X168907501Y-90715774D01*
X168907500Y-91916149D01*
X166518150Y-94305500D01*
X166384913Y-94305500D01*
X166177803Y-94391287D01*
X166019287Y-94549803D01*
X165933500Y-94756913D01*
X165610500Y-94756913D01*
X165610500Y-90328850D01*
X165852469Y-90086882D01*
X165884488Y-90065488D01*
X165969249Y-89938634D01*
X165991500Y-89826770D01*
X165991500Y-89826766D01*
X165999012Y-89789001D01*
X165991500Y-89751235D01*
X165991500Y-80422850D01*
X166321350Y-80093000D01*
X169867338Y-80093000D01*
X169867338Y-80943000D01*
X169887789Y-81045812D01*
X169946027Y-81132973D01*
X170033188Y-81191211D01*
X170136000Y-81211662D01*
X170986000Y-81211662D01*
X171088812Y-81191211D01*
X171175973Y-81132973D01*
X171234211Y-81045812D01*
X171254662Y-80943000D01*
X171254662Y-80093000D01*
X171234211Y-79990188D01*
X171175973Y-79903027D01*
X171088812Y-79844789D01*
X170986000Y-79824338D01*
X170136000Y-79824338D01*
X170033188Y-79844789D01*
X169946027Y-79903027D01*
X169887789Y-79990188D01*
X169867338Y-80093000D01*
X166321350Y-80093000D01*
X167364851Y-79049500D01*
X167498087Y-79049500D01*
X167705197Y-78963713D01*
X167863713Y-78805197D01*
X167949500Y-78598087D01*
X167949500Y-78373913D01*
X167863713Y-78166803D01*
X167705197Y-78008287D01*
X167498087Y-77922500D01*
X167273913Y-77922500D01*
X167066803Y-78008287D01*
X166908287Y-78166803D01*
X166822500Y-78373913D01*
X166822500Y-78507149D01*
X165363533Y-79966117D01*
X165331513Y-79987512D01*
X165261028Y-80093000D01*
X165246752Y-80114366D01*
X165216987Y-80264000D01*
X165224501Y-80301774D01*
X165224500Y-89630149D01*
X164982533Y-89872117D01*
X164950513Y-89893512D01*
X164920363Y-89938635D01*
X164865752Y-90020366D01*
X164835987Y-90170000D01*
X164843501Y-90207774D01*
X164843500Y-96590419D01*
X164592294Y-96586978D01*
X164567728Y-96591559D01*
X164388742Y-96663552D01*
X164367691Y-96677410D01*
X164353855Y-96697964D01*
X164279417Y-96875947D01*
X164274500Y-96900448D01*
X164274500Y-99470150D01*
X164232150Y-99512500D01*
X164098913Y-99512500D01*
X163891803Y-99598287D01*
X163733287Y-99756803D01*
X163647500Y-99963913D01*
X163647500Y-100188087D01*
X163679980Y-100266500D01*
X161373988Y-100266500D01*
X159975500Y-98868013D01*
X159975500Y-97234410D01*
X159989713Y-97220197D01*
X160075500Y-97013087D01*
X160075500Y-96788913D01*
X159989713Y-96581803D01*
X159831197Y-96423287D01*
X159624087Y-96337500D01*
X159399913Y-96337500D01*
X159192803Y-96423287D01*
X159178590Y-96437500D01*
X153558151Y-96437500D01*
X153512713Y-96327803D01*
X153354197Y-96169287D01*
X153287113Y-96141500D01*
X161760231Y-96141500D01*
X161798000Y-96149013D01*
X161835769Y-96141500D01*
X161835770Y-96141500D01*
X161947634Y-96119249D01*
X162074488Y-96034488D01*
X162095885Y-96002465D01*
X164062851Y-94035500D01*
X164196087Y-94035500D01*
X164403197Y-93949713D01*
X164561713Y-93791197D01*
X164647500Y-93584087D01*
X164647500Y-93359913D01*
X164561713Y-93152803D01*
X164403197Y-92994287D01*
X164196087Y-92908500D01*
X163971913Y-92908500D01*
X163764803Y-92994287D01*
X163606287Y-93152803D01*
X163520500Y-93359913D01*
X163520500Y-93493149D01*
X161639150Y-95374500D01*
X152917168Y-95374500D01*
X152879398Y-95366987D01*
X152729763Y-95396751D01*
X152653085Y-95447986D01*
X152602910Y-95481512D01*
X152581515Y-95513532D01*
X150735570Y-97359478D01*
X150647009Y-97226938D01*
X150510232Y-97135546D01*
X150389615Y-97111554D01*
X149858171Y-97111554D01*
X149737554Y-97135546D01*
X149600777Y-97226938D01*
X149509385Y-97363715D01*
X149477293Y-97525054D01*
X149509385Y-97686393D01*
X149568627Y-97775054D01*
X149509385Y-97863715D01*
X149477293Y-98025054D01*
X149496760Y-98122921D01*
X149398893Y-98103454D01*
X149237555Y-98135546D01*
X149148894Y-98194788D01*
X149060232Y-98135546D01*
X148898893Y-98103454D01*
X148737555Y-98135546D01*
X148648894Y-98194788D01*
X148560232Y-98135546D01*
X148398893Y-98103454D01*
X148237555Y-98135546D01*
X148148894Y-98194788D01*
X148060232Y-98135546D01*
X147898893Y-98103454D01*
X147801026Y-98122921D01*
X147820493Y-98025054D01*
X147788401Y-97863715D01*
X147729159Y-97775054D01*
X147788401Y-97686393D01*
X147820493Y-97525054D01*
X147788401Y-97363715D01*
X147729159Y-97275054D01*
X147788401Y-97186393D01*
X147820493Y-97025054D01*
X147788401Y-96863715D01*
X147729159Y-96775054D01*
X147788401Y-96686393D01*
X147820493Y-96525054D01*
X149477293Y-96525054D01*
X149509385Y-96686393D01*
X149600777Y-96823170D01*
X149737554Y-96914562D01*
X149858171Y-96938554D01*
X150389615Y-96938554D01*
X150510232Y-96914562D01*
X150647009Y-96823170D01*
X150738401Y-96686393D01*
X150770493Y-96525054D01*
X150738401Y-96363715D01*
X150647009Y-96226938D01*
X150510232Y-96135546D01*
X150389615Y-96111554D01*
X149858171Y-96111554D01*
X149737554Y-96135546D01*
X149600777Y-96226938D01*
X149509385Y-96363715D01*
X149477293Y-96525054D01*
X147820493Y-96525054D01*
X147801026Y-96427187D01*
X147898893Y-96446654D01*
X148060231Y-96414562D01*
X148148893Y-96355320D01*
X148237554Y-96414562D01*
X148398893Y-96446654D01*
X148560231Y-96414562D01*
X148648893Y-96355320D01*
X148737554Y-96414562D01*
X148898893Y-96446654D01*
X149060231Y-96414562D01*
X149197009Y-96323170D01*
X149288401Y-96186393D01*
X149312393Y-96065776D01*
X149312393Y-95534332D01*
X149288401Y-95413715D01*
X149282393Y-95404723D01*
X149282393Y-95343904D01*
X149314788Y-95311510D01*
X156595753Y-95311508D01*
X156633527Y-95319022D01*
X156783161Y-95289257D01*
X156826928Y-95260013D01*
X156910015Y-95204496D01*
X156931410Y-95172476D01*
X161169387Y-90934500D01*
X161384590Y-90934500D01*
X161478803Y-91028713D01*
X161685913Y-91114500D01*
X161910087Y-91114500D01*
X162117197Y-91028713D01*
X162275713Y-90870197D01*
X162361500Y-90663087D01*
X162361500Y-90438913D01*
X162303754Y-90299500D01*
X162908590Y-90299500D01*
X163002803Y-90393713D01*
X163209913Y-90479500D01*
X163434087Y-90479500D01*
X163641197Y-90393713D01*
X163799713Y-90235197D01*
X163885500Y-90028087D01*
X163885500Y-89803913D01*
X163799713Y-89596803D01*
X163641197Y-89438287D01*
X163434087Y-89352500D01*
X163209913Y-89352500D01*
X163002803Y-89438287D01*
X162908590Y-89532500D01*
X162315362Y-89532500D01*
X162369708Y-89401295D01*
X162369708Y-89177121D01*
X162283921Y-88970011D01*
X162125405Y-88811495D01*
X161918295Y-88725708D01*
X161694121Y-88725708D01*
X161487011Y-88811495D01*
X161392798Y-88905708D01*
X161157354Y-88905708D01*
X161218500Y-88758087D01*
X161218500Y-88533913D01*
X161132713Y-88326803D01*
X160974197Y-88168287D01*
X160767087Y-88082500D01*
X160633850Y-88082500D01*
X160571885Y-88020535D01*
X160550488Y-87988512D01*
X160423634Y-87903751D01*
X160311770Y-87881500D01*
X160311769Y-87881500D01*
X160274000Y-87873987D01*
X160236231Y-87881500D01*
X151809162Y-87881500D01*
X151823885Y-87859465D01*
X152644468Y-87038883D01*
X152676488Y-87017488D01*
X152711751Y-86964713D01*
X152761249Y-86890635D01*
X152791013Y-86741000D01*
X152783500Y-86703230D01*
X152783500Y-83580913D01*
X160853500Y-83580913D01*
X160853500Y-83805087D01*
X160939287Y-84012197D01*
X161097803Y-84170713D01*
X161304913Y-84256500D01*
X161529087Y-84256500D01*
X161736197Y-84170713D01*
X161894713Y-84012197D01*
X161980500Y-83805087D01*
X161980500Y-83671850D01*
X163427850Y-82224500D01*
X163561087Y-82224500D01*
X163768197Y-82138713D01*
X163926713Y-81980197D01*
X164012500Y-81773087D01*
X164012500Y-81548913D01*
X163926713Y-81341803D01*
X163768197Y-81183287D01*
X163561087Y-81097500D01*
X163336913Y-81097500D01*
X163129803Y-81183287D01*
X162971287Y-81341803D01*
X162885500Y-81548913D01*
X162885500Y-81682150D01*
X161438150Y-83129500D01*
X161304913Y-83129500D01*
X161097803Y-83215287D01*
X160939287Y-83373803D01*
X160853500Y-83580913D01*
X152783500Y-83580913D01*
X152783500Y-83344410D01*
X152877713Y-83250197D01*
X152963500Y-83043087D01*
X152963500Y-82818913D01*
X152911966Y-82694499D01*
X156030232Y-82694499D01*
X156068001Y-82702012D01*
X156105770Y-82694499D01*
X156105771Y-82694499D01*
X156217635Y-82672248D01*
X156344489Y-82587487D01*
X156365886Y-82555464D01*
X157372437Y-81548913D01*
X157805500Y-81548913D01*
X157805500Y-81773087D01*
X157891287Y-81980197D01*
X158049803Y-82138713D01*
X158256913Y-82224500D01*
X158390150Y-82224500D01*
X159075500Y-82909851D01*
X159075500Y-83043087D01*
X159161287Y-83250197D01*
X159319803Y-83408713D01*
X159526913Y-83494500D01*
X159751087Y-83494500D01*
X159958197Y-83408713D01*
X160116713Y-83250197D01*
X160202500Y-83043087D01*
X160202500Y-82859500D01*
X160259087Y-82859500D01*
X160466197Y-82773713D01*
X160624713Y-82615197D01*
X160710500Y-82408087D01*
X160710500Y-82183913D01*
X160624713Y-81976803D01*
X160466197Y-81818287D01*
X160259087Y-81732500D01*
X160125851Y-81732500D01*
X159567500Y-81174150D01*
X159567500Y-81040913D01*
X159481713Y-80833803D01*
X159323197Y-80675287D01*
X159116087Y-80589500D01*
X158891913Y-80589500D01*
X158684803Y-80675287D01*
X158526287Y-80833803D01*
X158440500Y-81040913D01*
X158440500Y-81097500D01*
X158256913Y-81097500D01*
X158049803Y-81183287D01*
X157891287Y-81341803D01*
X157805500Y-81548913D01*
X157372437Y-81548913D01*
X157851468Y-81069883D01*
X157883488Y-81048488D01*
X157968249Y-80921634D01*
X157990500Y-80809770D01*
X157990500Y-80809766D01*
X157998012Y-80772001D01*
X157990500Y-80734235D01*
X157990500Y-75089410D01*
X158084713Y-74995197D01*
X158170500Y-74788087D01*
X158170500Y-74563913D01*
X158084713Y-74356803D01*
X157926197Y-74198287D01*
X157719087Y-74112500D01*
X157494913Y-74112500D01*
X157287803Y-74198287D01*
X157129287Y-74356803D01*
X157043500Y-74563913D01*
X157043500Y-74788087D01*
X157129287Y-74995197D01*
X157223501Y-75089411D01*
X157223500Y-80613149D01*
X155909151Y-81927499D01*
X152421852Y-81927499D01*
X152759851Y-81589500D01*
X152893087Y-81589500D01*
X153100197Y-81503713D01*
X153258713Y-81345197D01*
X153344500Y-81138087D01*
X153344500Y-80913913D01*
X153258713Y-80706803D01*
X153100197Y-80548287D01*
X152893087Y-80462500D01*
X152668913Y-80462500D01*
X152461803Y-80548287D01*
X152303287Y-80706803D01*
X152217500Y-80913913D01*
X152217500Y-81047149D01*
X147669150Y-85595500D01*
X144957501Y-85595500D01*
X144919732Y-85587987D01*
X144881963Y-85595500D01*
X144881962Y-85595500D01*
X144770098Y-85617751D01*
X144643244Y-85702512D01*
X144621847Y-85734535D01*
X143871882Y-86484500D01*
X140968113Y-86484500D01*
X141035197Y-86456713D01*
X141193713Y-86298197D01*
X141279500Y-86091087D01*
X141279500Y-85957851D01*
X141313882Y-85923469D01*
X141313884Y-85923466D01*
X146069437Y-81167913D01*
X147391500Y-81167913D01*
X147391500Y-81392087D01*
X147477287Y-81599197D01*
X147491501Y-81613411D01*
X147491500Y-83105590D01*
X147477287Y-83119803D01*
X147391500Y-83326913D01*
X147391500Y-83551087D01*
X147477287Y-83758197D01*
X147635803Y-83916713D01*
X147842913Y-84002500D01*
X148067087Y-84002500D01*
X148274197Y-83916713D01*
X148432713Y-83758197D01*
X148518500Y-83551087D01*
X148518500Y-83326913D01*
X148432713Y-83119803D01*
X148418500Y-83105590D01*
X148418500Y-81613410D01*
X148432713Y-81599197D01*
X148518500Y-81392087D01*
X148518500Y-81167913D01*
X148432713Y-80960803D01*
X148274197Y-80802287D01*
X148067087Y-80716500D01*
X147842913Y-80716500D01*
X147635803Y-80802287D01*
X147477287Y-80960803D01*
X147391500Y-81167913D01*
X146069437Y-81167913D01*
X146474883Y-80762468D01*
X146474885Y-80762465D01*
X147425851Y-79811500D01*
X147559087Y-79811500D01*
X147766197Y-79725713D01*
X147924713Y-79567197D01*
X148010500Y-79360087D01*
X148010500Y-79135913D01*
X147924713Y-78928803D01*
X147766197Y-78770287D01*
X147559087Y-78684500D01*
X147334913Y-78684500D01*
X147127803Y-78770287D01*
X146969287Y-78928803D01*
X146883500Y-79135913D01*
X146883500Y-79269149D01*
X145932535Y-80220115D01*
X145932532Y-80220117D01*
X140771534Y-85381116D01*
X140771531Y-85381118D01*
X140737149Y-85415500D01*
X140603913Y-85415500D01*
X140396803Y-85501287D01*
X140238287Y-85659803D01*
X140152500Y-85866913D01*
X140152500Y-86091087D01*
X140238287Y-86298197D01*
X140396803Y-86456713D01*
X140463887Y-86484500D01*
X140367410Y-86484500D01*
X140273197Y-86390287D01*
X140066087Y-86304500D01*
X139841913Y-86304500D01*
X139753992Y-86340918D01*
X139796713Y-86298197D01*
X139882500Y-86091087D01*
X139882500Y-85957850D01*
X147732850Y-78107500D01*
X152489231Y-78107500D01*
X152527000Y-78115013D01*
X152564769Y-78107500D01*
X152564770Y-78107500D01*
X152676634Y-78085249D01*
X152803488Y-78000488D01*
X152824885Y-77968465D01*
X153775851Y-77017500D01*
X153909087Y-77017500D01*
X154116197Y-76931713D01*
X154274713Y-76773197D01*
X154360500Y-76566087D01*
X154360500Y-76341913D01*
X154274713Y-76134803D01*
X154116197Y-75976287D01*
X153909087Y-75890500D01*
X153684913Y-75890500D01*
X153477803Y-75976287D01*
X153319287Y-76134803D01*
X153233500Y-76341913D01*
X153233500Y-76475149D01*
X152368150Y-77340500D01*
X147611765Y-77340500D01*
X147573999Y-77332988D01*
X147536234Y-77340500D01*
X147536230Y-77340500D01*
X147424366Y-77362751D01*
X147297512Y-77447512D01*
X147276115Y-77479535D01*
X139340150Y-85415500D01*
X139206913Y-85415500D01*
X138999803Y-85501287D01*
X138841287Y-85659803D01*
X138755500Y-85866913D01*
X138755500Y-86091087D01*
X138760642Y-86103500D01*
X138589410Y-86103500D01*
X138495197Y-86009287D01*
X138288087Y-85923500D01*
X138063913Y-85923500D01*
X137856803Y-86009287D01*
X137698287Y-86167803D01*
X137612500Y-86374913D01*
X137612500Y-86508150D01*
X137042533Y-87078117D01*
X137010513Y-87099512D01*
X136989118Y-87131532D01*
X136925752Y-87226366D01*
X136895987Y-87376000D01*
X136903501Y-87413774D01*
X136903500Y-88016854D01*
X136498040Y-87611394D01*
X136415746Y-87555621D01*
X136245542Y-87482484D01*
X136151902Y-87461285D01*
X136050353Y-87477351D01*
X135876539Y-87541441D01*
X135791427Y-87592812D01*
X133451609Y-89698649D01*
X133428080Y-89722717D01*
X133386529Y-89771043D01*
X133366262Y-89797910D01*
X130065577Y-94810061D01*
X129973823Y-94859500D01*
X128949499Y-94859500D01*
X128949499Y-89796646D01*
X128958579Y-89750998D01*
X128922606Y-89570150D01*
X128912317Y-89554751D01*
X128820164Y-89416834D01*
X128781463Y-89390975D01*
X126955500Y-87565013D01*
X126955500Y-86439410D01*
X126969713Y-86425197D01*
X127055500Y-86218087D01*
X127055500Y-85993913D01*
X126969713Y-85786803D01*
X126811197Y-85628287D01*
X126604087Y-85542500D01*
X126379913Y-85542500D01*
X126172803Y-85628287D01*
X126014287Y-85786803D01*
X125928500Y-85993913D01*
X125928500Y-86218087D01*
X126014287Y-86425197D01*
X126028501Y-86439411D01*
X126028500Y-87711352D01*
X126019420Y-87757000D01*
X126035397Y-87837321D01*
X126055393Y-87937848D01*
X126157835Y-88091165D01*
X126196539Y-88117026D01*
X128022500Y-89942988D01*
X128022499Y-94859500D01*
X123948000Y-94859500D01*
X123914393Y-94866185D01*
X123914393Y-75290481D01*
X123939465Y-75075430D01*
X124965065Y-75075430D01*
X124969670Y-75661723D01*
X125163937Y-76214915D01*
X125526919Y-76675355D01*
X126019475Y-76993395D01*
X126588494Y-77134740D01*
X127172619Y-77084149D01*
X127415182Y-76976913D01*
X131389500Y-76976913D01*
X131389500Y-77201087D01*
X131475287Y-77408197D01*
X131633803Y-77566713D01*
X131840913Y-77652500D01*
X131974150Y-77652500D01*
X132544115Y-78222465D01*
X132565512Y-78254488D01*
X132692366Y-78339249D01*
X132804230Y-78361500D01*
X132804231Y-78361500D01*
X132842000Y-78369013D01*
X132879769Y-78361500D01*
X138779150Y-78361500D01*
X140279500Y-79861850D01*
X140279500Y-79995087D01*
X140365287Y-80202197D01*
X140523803Y-80360713D01*
X140730913Y-80446500D01*
X140955087Y-80446500D01*
X141162197Y-80360713D01*
X141320713Y-80202197D01*
X141406500Y-79995087D01*
X141406500Y-79770913D01*
X141320713Y-79563803D01*
X141162197Y-79405287D01*
X140955087Y-79319500D01*
X140821850Y-79319500D01*
X139235885Y-77733535D01*
X139214488Y-77701512D01*
X139087634Y-77616751D01*
X138975770Y-77594500D01*
X138975769Y-77594500D01*
X138938000Y-77586987D01*
X138900231Y-77594500D01*
X133000850Y-77594500D01*
X132516500Y-77110150D01*
X132516500Y-76976913D01*
X132430713Y-76769803D01*
X132272197Y-76611287D01*
X132065087Y-76525500D01*
X131840913Y-76525500D01*
X131633803Y-76611287D01*
X131475287Y-76769803D01*
X131389500Y-76976913D01*
X127415182Y-76976913D01*
X127708863Y-76847078D01*
X128139405Y-76449090D01*
X128417818Y-75933099D01*
X128514083Y-75354744D01*
X128513863Y-75326699D01*
X128408526Y-74749927D01*
X128122041Y-74238373D01*
X127685302Y-73847196D01*
X127145400Y-73618578D01*
X126560553Y-73577168D01*
X125993824Y-73727433D01*
X125506324Y-74053171D01*
X125150619Y-74519255D01*
X124965065Y-75075430D01*
X123939465Y-75075430D01*
X123989485Y-74646399D01*
X124205437Y-74051461D01*
X124552461Y-73522162D01*
X124739477Y-73345000D01*
X130199338Y-73345000D01*
X130199338Y-75045000D01*
X130219789Y-75147812D01*
X130278027Y-75234973D01*
X130365188Y-75293211D01*
X130468000Y-75313662D01*
X132168000Y-75313662D01*
X132270812Y-75293211D01*
X132357973Y-75234973D01*
X132416211Y-75147812D01*
X132436662Y-75045000D01*
X132436662Y-74395000D01*
X132722686Y-74395000D01*
X132809107Y-74829466D01*
X133055212Y-75197788D01*
X133423534Y-75443893D01*
X133748334Y-75508500D01*
X133967666Y-75508500D01*
X134292466Y-75443893D01*
X134660788Y-75197788D01*
X134906893Y-74829466D01*
X134993314Y-74395000D01*
X137802686Y-74395000D01*
X137889107Y-74829466D01*
X138135212Y-75197788D01*
X138503534Y-75443893D01*
X138828334Y-75508500D01*
X139047666Y-75508500D01*
X139372466Y-75443893D01*
X139740788Y-75197788D01*
X139986893Y-74829466D01*
X140073314Y-74395000D01*
X140033532Y-74195000D01*
X140342686Y-74195000D01*
X140429107Y-74629466D01*
X140675212Y-74997788D01*
X141043534Y-75243893D01*
X141368334Y-75308500D01*
X141587666Y-75308500D01*
X141912466Y-75243893D01*
X142280788Y-74997788D01*
X142526893Y-74629466D01*
X142573531Y-74395000D01*
X142882686Y-74395000D01*
X142969107Y-74829466D01*
X143215212Y-75197788D01*
X143583534Y-75443893D01*
X143908334Y-75508500D01*
X144127666Y-75508500D01*
X144452466Y-75443893D01*
X144820788Y-75197788D01*
X145066893Y-74829466D01*
X145153314Y-74395000D01*
X145085866Y-74055913D01*
X148026500Y-74055913D01*
X148026500Y-74280087D01*
X148112287Y-74487197D01*
X148270803Y-74645713D01*
X148477913Y-74731500D01*
X148702087Y-74731500D01*
X148909197Y-74645713D01*
X149067713Y-74487197D01*
X149098000Y-74414077D01*
X149128287Y-74487197D01*
X149286803Y-74645713D01*
X149493913Y-74731500D01*
X149718087Y-74731500D01*
X149925197Y-74645713D01*
X150083713Y-74487197D01*
X150169500Y-74280087D01*
X150169500Y-74146851D01*
X150213841Y-74102510D01*
X159285160Y-74102510D01*
X159636501Y-74453851D01*
X159636500Y-79718231D01*
X159628987Y-79756000D01*
X159636500Y-79793769D01*
X159658751Y-79905633D01*
X159743512Y-80032488D01*
X159775535Y-80053885D01*
X160992117Y-81270468D01*
X161013512Y-81302488D01*
X161140366Y-81387249D01*
X161252230Y-81409500D01*
X161252234Y-81409500D01*
X161289999Y-81417012D01*
X161327765Y-81409500D01*
X161384590Y-81409500D01*
X161478803Y-81503713D01*
X161685913Y-81589500D01*
X161910087Y-81589500D01*
X162117197Y-81503713D01*
X162275713Y-81345197D01*
X162361500Y-81138087D01*
X162361500Y-80913913D01*
X162275713Y-80706803D01*
X162150410Y-80581500D01*
X162275713Y-80456197D01*
X162361500Y-80249087D01*
X162361500Y-80151913D01*
X163139500Y-80151913D01*
X163139500Y-80376087D01*
X163225287Y-80583197D01*
X163383803Y-80741713D01*
X163590913Y-80827500D01*
X163724150Y-80827500D01*
X164208501Y-81311851D01*
X164208500Y-85438590D01*
X164114287Y-85532803D01*
X164028500Y-85739913D01*
X164028500Y-85964087D01*
X164114287Y-86171197D01*
X164272803Y-86329713D01*
X164479913Y-86415500D01*
X164704087Y-86415500D01*
X164911197Y-86329713D01*
X165069713Y-86171197D01*
X165155500Y-85964087D01*
X165155500Y-85739913D01*
X165069713Y-85532803D01*
X164975500Y-85438590D01*
X164975500Y-81190769D01*
X164983013Y-81153000D01*
X164975500Y-81115230D01*
X164953249Y-81003366D01*
X164868488Y-80876512D01*
X164836465Y-80855115D01*
X164266500Y-80285150D01*
X164266500Y-80151913D01*
X164180713Y-79944803D01*
X164022197Y-79786287D01*
X163815087Y-79700500D01*
X163590913Y-79700500D01*
X163383803Y-79786287D01*
X163225287Y-79944803D01*
X163139500Y-80151913D01*
X162361500Y-80151913D01*
X162361500Y-80024913D01*
X162275713Y-79817803D01*
X162117197Y-79659287D01*
X161910087Y-79573500D01*
X161685913Y-79573500D01*
X161478803Y-79659287D01*
X161384590Y-79753500D01*
X161321851Y-79753500D01*
X160911500Y-79343150D01*
X160911500Y-75075430D01*
X168805685Y-75075430D01*
X168810290Y-75661723D01*
X169004557Y-76214915D01*
X169367539Y-76675355D01*
X169860095Y-76993395D01*
X170429114Y-77134740D01*
X171013239Y-77084149D01*
X171549483Y-76847078D01*
X171980025Y-76449090D01*
X172258438Y-75933099D01*
X172354703Y-75354744D01*
X172354483Y-75326699D01*
X172249146Y-74749927D01*
X171962661Y-74238373D01*
X171525922Y-73847196D01*
X170986020Y-73618578D01*
X170401173Y-73577168D01*
X169834444Y-73727433D01*
X169346944Y-74053171D01*
X168991239Y-74519255D01*
X168805685Y-75075430D01*
X160911500Y-75075430D01*
X160911500Y-74205769D01*
X160919013Y-74168000D01*
X160898001Y-74062367D01*
X160889249Y-74018366D01*
X160804488Y-73891512D01*
X160772465Y-73870115D01*
X159936885Y-73034535D01*
X159915488Y-73002512D01*
X159788634Y-72917751D01*
X159676770Y-72895500D01*
X159676769Y-72895500D01*
X159639000Y-72887987D01*
X159601231Y-72895500D01*
X149516769Y-72895500D01*
X149479000Y-72887987D01*
X149441231Y-72895500D01*
X149441230Y-72895500D01*
X149329366Y-72917751D01*
X149202512Y-73002512D01*
X149181115Y-73034535D01*
X148611150Y-73604500D01*
X148477913Y-73604500D01*
X148270803Y-73690287D01*
X148112287Y-73848803D01*
X148026500Y-74055913D01*
X145085866Y-74055913D01*
X145066893Y-73960534D01*
X144820788Y-73592212D01*
X144452466Y-73346107D01*
X144127666Y-73281500D01*
X143908334Y-73281500D01*
X143583534Y-73346107D01*
X143215212Y-73592212D01*
X142969107Y-73960534D01*
X142882686Y-74395000D01*
X142573531Y-74395000D01*
X142613314Y-74195000D01*
X142526893Y-73760534D01*
X142280788Y-73392212D01*
X141912466Y-73146107D01*
X141587666Y-73081500D01*
X141368334Y-73081500D01*
X141043534Y-73146107D01*
X140675212Y-73392212D01*
X140429107Y-73760534D01*
X140342686Y-74195000D01*
X140033532Y-74195000D01*
X139986893Y-73960534D01*
X139740788Y-73592212D01*
X139372466Y-73346107D01*
X139047666Y-73281500D01*
X138828334Y-73281500D01*
X138503534Y-73346107D01*
X138135212Y-73592212D01*
X137889107Y-73960534D01*
X137802686Y-74395000D01*
X134993314Y-74395000D01*
X134906893Y-73960534D01*
X134660788Y-73592212D01*
X134292466Y-73346107D01*
X133967666Y-73281500D01*
X133748334Y-73281500D01*
X133423534Y-73346107D01*
X133055212Y-73592212D01*
X132809107Y-73960534D01*
X132722686Y-74395000D01*
X132436662Y-74395000D01*
X132436662Y-73345000D01*
X132416211Y-73242188D01*
X132357973Y-73155027D01*
X132270812Y-73096789D01*
X132168000Y-73076338D01*
X130468000Y-73076338D01*
X130365188Y-73096789D01*
X130278027Y-73155027D01*
X130219789Y-73242188D01*
X130199338Y-73345000D01*
X124739477Y-73345000D01*
X125011941Y-73086893D01*
X125559233Y-72769002D01*
X126168451Y-72584488D01*
X126660719Y-72540554D01*
X170633466Y-72540554D01*
X171277548Y-72615646D01*
X171277548Y-72615646D01*
G37*
X171277548Y-72615646D02*
X171872486Y-72831598D01*
X172401785Y-73178622D01*
X172837054Y-73638102D01*
X173154945Y-74185394D01*
X173339459Y-74794612D01*
X173383393Y-75286880D01*
X173383393Y-96711377D01*
X173363294Y-96707128D01*
X165610500Y-96600926D01*
X165610500Y-94756913D01*
X165933500Y-94756913D01*
X165933500Y-94981087D01*
X166019287Y-95188197D01*
X166177803Y-95346713D01*
X166384913Y-95432500D01*
X166609087Y-95432500D01*
X166816197Y-95346713D01*
X166974713Y-95188197D01*
X167060500Y-94981087D01*
X167060500Y-94847850D01*
X169535468Y-92372883D01*
X169567488Y-92351488D01*
X169602699Y-92298791D01*
X169652249Y-92224635D01*
X169682013Y-92075000D01*
X169674500Y-92037230D01*
X169674500Y-82328410D01*
X169768713Y-82234197D01*
X169854500Y-82027087D01*
X169854500Y-81802913D01*
X169768713Y-81595803D01*
X169610197Y-81437287D01*
X169403087Y-81351500D01*
X169178913Y-81351500D01*
X168971803Y-81437287D01*
X168813287Y-81595803D01*
X168727500Y-81802913D01*
X168727500Y-82027087D01*
X168813287Y-82234197D01*
X168907501Y-82328411D01*
X168907500Y-90715769D01*
X168907501Y-90715774D01*
X168907500Y-91916149D01*
X166518150Y-94305500D01*
X166384913Y-94305500D01*
X166177803Y-94391287D01*
X166019287Y-94549803D01*
X165933500Y-94756913D01*
X165610500Y-94756913D01*
X165610500Y-90328850D01*
X165852469Y-90086882D01*
X165884488Y-90065488D01*
X165969249Y-89938634D01*
X165991500Y-89826770D01*
X165991500Y-89826766D01*
X165999012Y-89789001D01*
X165991500Y-89751235D01*
X165991500Y-80422850D01*
X166321350Y-80093000D01*
X169867338Y-80093000D01*
X169867338Y-80943000D01*
X169887789Y-81045812D01*
X169946027Y-81132973D01*
X170033188Y-81191211D01*
X170136000Y-81211662D01*
X170986000Y-81211662D01*
X171088812Y-81191211D01*
X171175973Y-81132973D01*
X171234211Y-81045812D01*
X171254662Y-80943000D01*
X171254662Y-80093000D01*
X171234211Y-79990188D01*
X171175973Y-79903027D01*
X171088812Y-79844789D01*
X170986000Y-79824338D01*
X170136000Y-79824338D01*
X170033188Y-79844789D01*
X169946027Y-79903027D01*
X169887789Y-79990188D01*
X169867338Y-80093000D01*
X166321350Y-80093000D01*
X167364851Y-79049500D01*
X167498087Y-79049500D01*
X167705197Y-78963713D01*
X167863713Y-78805197D01*
X167949500Y-78598087D01*
X167949500Y-78373913D01*
X167863713Y-78166803D01*
X167705197Y-78008287D01*
X167498087Y-77922500D01*
X167273913Y-77922500D01*
X167066803Y-78008287D01*
X166908287Y-78166803D01*
X166822500Y-78373913D01*
X166822500Y-78507149D01*
X165363533Y-79966117D01*
X165331513Y-79987512D01*
X165261028Y-80093000D01*
X165246752Y-80114366D01*
X165216987Y-80264000D01*
X165224501Y-80301774D01*
X165224500Y-89630149D01*
X164982533Y-89872117D01*
X164950513Y-89893512D01*
X164920363Y-89938635D01*
X164865752Y-90020366D01*
X164835987Y-90170000D01*
X164843501Y-90207774D01*
X164843500Y-96590419D01*
X164592294Y-96586978D01*
X164567728Y-96591559D01*
X164388742Y-96663552D01*
X164367691Y-96677410D01*
X164353855Y-96697964D01*
X164279417Y-96875947D01*
X164274500Y-96900448D01*
X164274500Y-99470150D01*
X164232150Y-99512500D01*
X164098913Y-99512500D01*
X163891803Y-99598287D01*
X163733287Y-99756803D01*
X163647500Y-99963913D01*
X163647500Y-100188087D01*
X163679980Y-100266500D01*
X161373988Y-100266500D01*
X159975500Y-98868013D01*
X159975500Y-97234410D01*
X159989713Y-97220197D01*
X160075500Y-97013087D01*
X160075500Y-96788913D01*
X159989713Y-96581803D01*
X159831197Y-96423287D01*
X159624087Y-96337500D01*
X159399913Y-96337500D01*
X159192803Y-96423287D01*
X159178590Y-96437500D01*
X153558151Y-96437500D01*
X153512713Y-96327803D01*
X153354197Y-96169287D01*
X153287113Y-96141500D01*
X161760231Y-96141500D01*
X161798000Y-96149013D01*
X161835769Y-96141500D01*
X161835770Y-96141500D01*
X161947634Y-96119249D01*
X162074488Y-96034488D01*
X162095885Y-96002465D01*
X164062851Y-94035500D01*
X164196087Y-94035500D01*
X164403197Y-93949713D01*
X164561713Y-93791197D01*
X164647500Y-93584087D01*
X164647500Y-93359913D01*
X164561713Y-93152803D01*
X164403197Y-92994287D01*
X164196087Y-92908500D01*
X163971913Y-92908500D01*
X163764803Y-92994287D01*
X163606287Y-93152803D01*
X163520500Y-93359913D01*
X163520500Y-93493149D01*
X161639150Y-95374500D01*
X152917168Y-95374500D01*
X152879398Y-95366987D01*
X152729763Y-95396751D01*
X152653085Y-95447986D01*
X152602910Y-95481512D01*
X152581515Y-95513532D01*
X150735570Y-97359478D01*
X150647009Y-97226938D01*
X150510232Y-97135546D01*
X150389615Y-97111554D01*
X149858171Y-97111554D01*
X149737554Y-97135546D01*
X149600777Y-97226938D01*
X149509385Y-97363715D01*
X149477293Y-97525054D01*
X149509385Y-97686393D01*
X149568627Y-97775054D01*
X149509385Y-97863715D01*
X149477293Y-98025054D01*
X149496760Y-98122921D01*
X149398893Y-98103454D01*
X149237555Y-98135546D01*
X149148894Y-98194788D01*
X149060232Y-98135546D01*
X148898893Y-98103454D01*
X148737555Y-98135546D01*
X148648894Y-98194788D01*
X148560232Y-98135546D01*
X148398893Y-98103454D01*
X148237555Y-98135546D01*
X148148894Y-98194788D01*
X148060232Y-98135546D01*
X147898893Y-98103454D01*
X147801026Y-98122921D01*
X147820493Y-98025054D01*
X147788401Y-97863715D01*
X147729159Y-97775054D01*
X147788401Y-97686393D01*
X147820493Y-97525054D01*
X147788401Y-97363715D01*
X147729159Y-97275054D01*
X147788401Y-97186393D01*
X147820493Y-97025054D01*
X147788401Y-96863715D01*
X147729159Y-96775054D01*
X147788401Y-96686393D01*
X147820493Y-96525054D01*
X149477293Y-96525054D01*
X149509385Y-96686393D01*
X149600777Y-96823170D01*
X149737554Y-96914562D01*
X149858171Y-96938554D01*
X150389615Y-96938554D01*
X150510232Y-96914562D01*
X150647009Y-96823170D01*
X150738401Y-96686393D01*
X150770493Y-96525054D01*
X150738401Y-96363715D01*
X150647009Y-96226938D01*
X150510232Y-96135546D01*
X150389615Y-96111554D01*
X149858171Y-96111554D01*
X149737554Y-96135546D01*
X149600777Y-96226938D01*
X149509385Y-96363715D01*
X149477293Y-96525054D01*
X147820493Y-96525054D01*
X147801026Y-96427187D01*
X147898893Y-96446654D01*
X148060231Y-96414562D01*
X148148893Y-96355320D01*
X148237554Y-96414562D01*
X148398893Y-96446654D01*
X148560231Y-96414562D01*
X148648893Y-96355320D01*
X148737554Y-96414562D01*
X148898893Y-96446654D01*
X149060231Y-96414562D01*
X149197009Y-96323170D01*
X149288401Y-96186393D01*
X149312393Y-96065776D01*
X149312393Y-95534332D01*
X149288401Y-95413715D01*
X149282393Y-95404723D01*
X149282393Y-95343904D01*
X149314788Y-95311510D01*
X156595753Y-95311508D01*
X156633527Y-95319022D01*
X156783161Y-95289257D01*
X156826928Y-95260013D01*
X156910015Y-95204496D01*
X156931410Y-95172476D01*
X161169387Y-90934500D01*
X161384590Y-90934500D01*
X161478803Y-91028713D01*
X161685913Y-91114500D01*
X161910087Y-91114500D01*
X162117197Y-91028713D01*
X162275713Y-90870197D01*
X162361500Y-90663087D01*
X162361500Y-90438913D01*
X162303754Y-90299500D01*
X162908590Y-90299500D01*
X163002803Y-90393713D01*
X163209913Y-90479500D01*
X163434087Y-90479500D01*
X163641197Y-90393713D01*
X163799713Y-90235197D01*
X163885500Y-90028087D01*
X163885500Y-89803913D01*
X163799713Y-89596803D01*
X163641197Y-89438287D01*
X163434087Y-89352500D01*
X163209913Y-89352500D01*
X163002803Y-89438287D01*
X162908590Y-89532500D01*
X162315362Y-89532500D01*
X162369708Y-89401295D01*
X162369708Y-89177121D01*
X162283921Y-88970011D01*
X162125405Y-88811495D01*
X161918295Y-88725708D01*
X161694121Y-88725708D01*
X161487011Y-88811495D01*
X161392798Y-88905708D01*
X161157354Y-88905708D01*
X161218500Y-88758087D01*
X161218500Y-88533913D01*
X161132713Y-88326803D01*
X160974197Y-88168287D01*
X160767087Y-88082500D01*
X160633850Y-88082500D01*
X160571885Y-88020535D01*
X160550488Y-87988512D01*
X160423634Y-87903751D01*
X160311770Y-87881500D01*
X160311769Y-87881500D01*
X160274000Y-87873987D01*
X160236231Y-87881500D01*
X151809162Y-87881500D01*
X151823885Y-87859465D01*
X152644468Y-87038883D01*
X152676488Y-87017488D01*
X152711751Y-86964713D01*
X152761249Y-86890635D01*
X152791013Y-86741000D01*
X152783500Y-86703230D01*
X152783500Y-83580913D01*
X160853500Y-83580913D01*
X160853500Y-83805087D01*
X160939287Y-84012197D01*
X161097803Y-84170713D01*
X161304913Y-84256500D01*
X161529087Y-84256500D01*
X161736197Y-84170713D01*
X161894713Y-84012197D01*
X161980500Y-83805087D01*
X161980500Y-83671850D01*
X163427850Y-82224500D01*
X163561087Y-82224500D01*
X163768197Y-82138713D01*
X163926713Y-81980197D01*
X164012500Y-81773087D01*
X164012500Y-81548913D01*
X163926713Y-81341803D01*
X163768197Y-81183287D01*
X163561087Y-81097500D01*
X163336913Y-81097500D01*
X163129803Y-81183287D01*
X162971287Y-81341803D01*
X162885500Y-81548913D01*
X162885500Y-81682150D01*
X161438150Y-83129500D01*
X161304913Y-83129500D01*
X161097803Y-83215287D01*
X160939287Y-83373803D01*
X160853500Y-83580913D01*
X152783500Y-83580913D01*
X152783500Y-83344410D01*
X152877713Y-83250197D01*
X152963500Y-83043087D01*
X152963500Y-82818913D01*
X152911966Y-82694499D01*
X156030232Y-82694499D01*
X156068001Y-82702012D01*
X156105770Y-82694499D01*
X156105771Y-82694499D01*
X156217635Y-82672248D01*
X156344489Y-82587487D01*
X156365886Y-82555464D01*
X157372437Y-81548913D01*
X157805500Y-81548913D01*
X157805500Y-81773087D01*
X157891287Y-81980197D01*
X158049803Y-82138713D01*
X158256913Y-82224500D01*
X158390150Y-82224500D01*
X159075500Y-82909851D01*
X159075500Y-83043087D01*
X159161287Y-83250197D01*
X159319803Y-83408713D01*
X159526913Y-83494500D01*
X159751087Y-83494500D01*
X159958197Y-83408713D01*
X160116713Y-83250197D01*
X160202500Y-83043087D01*
X160202500Y-82859500D01*
X160259087Y-82859500D01*
X160466197Y-82773713D01*
X160624713Y-82615197D01*
X160710500Y-82408087D01*
X160710500Y-82183913D01*
X160624713Y-81976803D01*
X160466197Y-81818287D01*
X160259087Y-81732500D01*
X160125851Y-81732500D01*
X159567500Y-81174150D01*
X159567500Y-81040913D01*
X159481713Y-80833803D01*
X159323197Y-80675287D01*
X159116087Y-80589500D01*
X158891913Y-80589500D01*
X158684803Y-80675287D01*
X158526287Y-80833803D01*
X158440500Y-81040913D01*
X158440500Y-81097500D01*
X158256913Y-81097500D01*
X158049803Y-81183287D01*
X157891287Y-81341803D01*
X157805500Y-81548913D01*
X157372437Y-81548913D01*
X157851468Y-81069883D01*
X157883488Y-81048488D01*
X157968249Y-80921634D01*
X157990500Y-80809770D01*
X157990500Y-80809766D01*
X157998012Y-80772001D01*
X157990500Y-80734235D01*
X157990500Y-75089410D01*
X158084713Y-74995197D01*
X158170500Y-74788087D01*
X158170500Y-74563913D01*
X158084713Y-74356803D01*
X157926197Y-74198287D01*
X157719087Y-74112500D01*
X157494913Y-74112500D01*
X157287803Y-74198287D01*
X157129287Y-74356803D01*
X157043500Y-74563913D01*
X157043500Y-74788087D01*
X157129287Y-74995197D01*
X157223501Y-75089411D01*
X157223500Y-80613149D01*
X155909151Y-81927499D01*
X152421852Y-81927499D01*
X152759851Y-81589500D01*
X152893087Y-81589500D01*
X153100197Y-81503713D01*
X153258713Y-81345197D01*
X153344500Y-81138087D01*
X153344500Y-80913913D01*
X153258713Y-80706803D01*
X153100197Y-80548287D01*
X152893087Y-80462500D01*
X152668913Y-80462500D01*
X152461803Y-80548287D01*
X152303287Y-80706803D01*
X152217500Y-80913913D01*
X152217500Y-81047149D01*
X147669150Y-85595500D01*
X144957501Y-85595500D01*
X144919732Y-85587987D01*
X144881963Y-85595500D01*
X144881962Y-85595500D01*
X144770098Y-85617751D01*
X144643244Y-85702512D01*
X144621847Y-85734535D01*
X143871882Y-86484500D01*
X140968113Y-86484500D01*
X141035197Y-86456713D01*
X141193713Y-86298197D01*
X141279500Y-86091087D01*
X141279500Y-85957851D01*
X141313882Y-85923469D01*
X141313884Y-85923466D01*
X146069437Y-81167913D01*
X147391500Y-81167913D01*
X147391500Y-81392087D01*
X147477287Y-81599197D01*
X147491501Y-81613411D01*
X147491500Y-83105590D01*
X147477287Y-83119803D01*
X147391500Y-83326913D01*
X147391500Y-83551087D01*
X147477287Y-83758197D01*
X147635803Y-83916713D01*
X147842913Y-84002500D01*
X148067087Y-84002500D01*
X148274197Y-83916713D01*
X148432713Y-83758197D01*
X148518500Y-83551087D01*
X148518500Y-83326913D01*
X148432713Y-83119803D01*
X148418500Y-83105590D01*
X148418500Y-81613410D01*
X148432713Y-81599197D01*
X148518500Y-81392087D01*
X148518500Y-81167913D01*
X148432713Y-80960803D01*
X148274197Y-80802287D01*
X148067087Y-80716500D01*
X147842913Y-80716500D01*
X147635803Y-80802287D01*
X147477287Y-80960803D01*
X147391500Y-81167913D01*
X146069437Y-81167913D01*
X146474883Y-80762468D01*
X146474885Y-80762465D01*
X147425851Y-79811500D01*
X147559087Y-79811500D01*
X147766197Y-79725713D01*
X147924713Y-79567197D01*
X148010500Y-79360087D01*
X148010500Y-79135913D01*
X147924713Y-78928803D01*
X147766197Y-78770287D01*
X147559087Y-78684500D01*
X147334913Y-78684500D01*
X147127803Y-78770287D01*
X146969287Y-78928803D01*
X146883500Y-79135913D01*
X146883500Y-79269149D01*
X145932535Y-80220115D01*
X145932532Y-80220117D01*
X140771534Y-85381116D01*
X140771531Y-85381118D01*
X140737149Y-85415500D01*
X140603913Y-85415500D01*
X140396803Y-85501287D01*
X140238287Y-85659803D01*
X140152500Y-85866913D01*
X140152500Y-86091087D01*
X140238287Y-86298197D01*
X140396803Y-86456713D01*
X140463887Y-86484500D01*
X140367410Y-86484500D01*
X140273197Y-86390287D01*
X140066087Y-86304500D01*
X139841913Y-86304500D01*
X139753992Y-86340918D01*
X139796713Y-86298197D01*
X139882500Y-86091087D01*
X139882500Y-85957850D01*
X147732850Y-78107500D01*
X152489231Y-78107500D01*
X152527000Y-78115013D01*
X152564769Y-78107500D01*
X152564770Y-78107500D01*
X152676634Y-78085249D01*
X152803488Y-78000488D01*
X152824885Y-77968465D01*
X153775851Y-77017500D01*
X153909087Y-77017500D01*
X154116197Y-76931713D01*
X154274713Y-76773197D01*
X154360500Y-76566087D01*
X154360500Y-76341913D01*
X154274713Y-76134803D01*
X154116197Y-75976287D01*
X153909087Y-75890500D01*
X153684913Y-75890500D01*
X153477803Y-75976287D01*
X153319287Y-76134803D01*
X153233500Y-76341913D01*
X153233500Y-76475149D01*
X152368150Y-77340500D01*
X147611765Y-77340500D01*
X147573999Y-77332988D01*
X147536234Y-77340500D01*
X147536230Y-77340500D01*
X147424366Y-77362751D01*
X147297512Y-77447512D01*
X147276115Y-77479535D01*
X139340150Y-85415500D01*
X139206913Y-85415500D01*
X138999803Y-85501287D01*
X138841287Y-85659803D01*
X138755500Y-85866913D01*
X138755500Y-86091087D01*
X138760642Y-86103500D01*
X138589410Y-86103500D01*
X138495197Y-86009287D01*
X138288087Y-85923500D01*
X138063913Y-85923500D01*
X137856803Y-86009287D01*
X137698287Y-86167803D01*
X137612500Y-86374913D01*
X137612500Y-86508150D01*
X137042533Y-87078117D01*
X137010513Y-87099512D01*
X136989118Y-87131532D01*
X136925752Y-87226366D01*
X136895987Y-87376000D01*
X136903501Y-87413774D01*
X136903500Y-88016854D01*
X136498040Y-87611394D01*
X136415746Y-87555621D01*
X136245542Y-87482484D01*
X136151902Y-87461285D01*
X136050353Y-87477351D01*
X135876539Y-87541441D01*
X135791427Y-87592812D01*
X133451609Y-89698649D01*
X133428080Y-89722717D01*
X133386529Y-89771043D01*
X133366262Y-89797910D01*
X130065577Y-94810061D01*
X129973823Y-94859500D01*
X128949499Y-94859500D01*
X128949499Y-89796646D01*
X128958579Y-89750998D01*
X128922606Y-89570150D01*
X128912317Y-89554751D01*
X128820164Y-89416834D01*
X128781463Y-89390975D01*
X126955500Y-87565013D01*
X126955500Y-86439410D01*
X126969713Y-86425197D01*
X127055500Y-86218087D01*
X127055500Y-85993913D01*
X126969713Y-85786803D01*
X126811197Y-85628287D01*
X126604087Y-85542500D01*
X126379913Y-85542500D01*
X126172803Y-85628287D01*
X126014287Y-85786803D01*
X125928500Y-85993913D01*
X125928500Y-86218087D01*
X126014287Y-86425197D01*
X126028501Y-86439411D01*
X126028500Y-87711352D01*
X126019420Y-87757000D01*
X126035397Y-87837321D01*
X126055393Y-87937848D01*
X126157835Y-88091165D01*
X126196539Y-88117026D01*
X128022500Y-89942988D01*
X128022499Y-94859500D01*
X123948000Y-94859500D01*
X123914393Y-94866185D01*
X123914393Y-75290481D01*
X123939465Y-75075430D01*
X124965065Y-75075430D01*
X124969670Y-75661723D01*
X125163937Y-76214915D01*
X125526919Y-76675355D01*
X126019475Y-76993395D01*
X126588494Y-77134740D01*
X127172619Y-77084149D01*
X127415182Y-76976913D01*
X131389500Y-76976913D01*
X131389500Y-77201087D01*
X131475287Y-77408197D01*
X131633803Y-77566713D01*
X131840913Y-77652500D01*
X131974150Y-77652500D01*
X132544115Y-78222465D01*
X132565512Y-78254488D01*
X132692366Y-78339249D01*
X132804230Y-78361500D01*
X132804231Y-78361500D01*
X132842000Y-78369013D01*
X132879769Y-78361500D01*
X138779150Y-78361500D01*
X140279500Y-79861850D01*
X140279500Y-79995087D01*
X140365287Y-80202197D01*
X140523803Y-80360713D01*
X140730913Y-80446500D01*
X140955087Y-80446500D01*
X141162197Y-80360713D01*
X141320713Y-80202197D01*
X141406500Y-79995087D01*
X141406500Y-79770913D01*
X141320713Y-79563803D01*
X141162197Y-79405287D01*
X140955087Y-79319500D01*
X140821850Y-79319500D01*
X139235885Y-77733535D01*
X139214488Y-77701512D01*
X139087634Y-77616751D01*
X138975770Y-77594500D01*
X138975769Y-77594500D01*
X138938000Y-77586987D01*
X138900231Y-77594500D01*
X133000850Y-77594500D01*
X132516500Y-77110150D01*
X132516500Y-76976913D01*
X132430713Y-76769803D01*
X132272197Y-76611287D01*
X132065087Y-76525500D01*
X131840913Y-76525500D01*
X131633803Y-76611287D01*
X131475287Y-76769803D01*
X131389500Y-76976913D01*
X127415182Y-76976913D01*
X127708863Y-76847078D01*
X128139405Y-76449090D01*
X128417818Y-75933099D01*
X128514083Y-75354744D01*
X128513863Y-75326699D01*
X128408526Y-74749927D01*
X128122041Y-74238373D01*
X127685302Y-73847196D01*
X127145400Y-73618578D01*
X126560553Y-73577168D01*
X125993824Y-73727433D01*
X125506324Y-74053171D01*
X125150619Y-74519255D01*
X124965065Y-75075430D01*
X123939465Y-75075430D01*
X123989485Y-74646399D01*
X124205437Y-74051461D01*
X124552461Y-73522162D01*
X124739477Y-73345000D01*
X130199338Y-73345000D01*
X130199338Y-75045000D01*
X130219789Y-75147812D01*
X130278027Y-75234973D01*
X130365188Y-75293211D01*
X130468000Y-75313662D01*
X132168000Y-75313662D01*
X132270812Y-75293211D01*
X132357973Y-75234973D01*
X132416211Y-75147812D01*
X132436662Y-75045000D01*
X132436662Y-74395000D01*
X132722686Y-74395000D01*
X132809107Y-74829466D01*
X133055212Y-75197788D01*
X133423534Y-75443893D01*
X133748334Y-75508500D01*
X133967666Y-75508500D01*
X134292466Y-75443893D01*
X134660788Y-75197788D01*
X134906893Y-74829466D01*
X134993314Y-74395000D01*
X137802686Y-74395000D01*
X137889107Y-74829466D01*
X138135212Y-75197788D01*
X138503534Y-75443893D01*
X138828334Y-75508500D01*
X139047666Y-75508500D01*
X139372466Y-75443893D01*
X139740788Y-75197788D01*
X139986893Y-74829466D01*
X140073314Y-74395000D01*
X140033532Y-74195000D01*
X140342686Y-74195000D01*
X140429107Y-74629466D01*
X140675212Y-74997788D01*
X141043534Y-75243893D01*
X141368334Y-75308500D01*
X141587666Y-75308500D01*
X141912466Y-75243893D01*
X142280788Y-74997788D01*
X142526893Y-74629466D01*
X142573531Y-74395000D01*
X142882686Y-74395000D01*
X142969107Y-74829466D01*
X143215212Y-75197788D01*
X143583534Y-75443893D01*
X143908334Y-75508500D01*
X144127666Y-75508500D01*
X144452466Y-75443893D01*
X144820788Y-75197788D01*
X145066893Y-74829466D01*
X145153314Y-74395000D01*
X145085866Y-74055913D01*
X148026500Y-74055913D01*
X148026500Y-74280087D01*
X148112287Y-74487197D01*
X148270803Y-74645713D01*
X148477913Y-74731500D01*
X148702087Y-74731500D01*
X148909197Y-74645713D01*
X149067713Y-74487197D01*
X149098000Y-74414077D01*
X149128287Y-74487197D01*
X149286803Y-74645713D01*
X149493913Y-74731500D01*
X149718087Y-74731500D01*
X149925197Y-74645713D01*
X150083713Y-74487197D01*
X150169500Y-74280087D01*
X150169500Y-74146851D01*
X150213841Y-74102510D01*
X159285160Y-74102510D01*
X159636501Y-74453851D01*
X159636500Y-79718231D01*
X159628987Y-79756000D01*
X159636500Y-79793769D01*
X159658751Y-79905633D01*
X159743512Y-80032488D01*
X159775535Y-80053885D01*
X160992117Y-81270468D01*
X161013512Y-81302488D01*
X161140366Y-81387249D01*
X161252230Y-81409500D01*
X161252234Y-81409500D01*
X161289999Y-81417012D01*
X161327765Y-81409500D01*
X161384590Y-81409500D01*
X161478803Y-81503713D01*
X161685913Y-81589500D01*
X161910087Y-81589500D01*
X162117197Y-81503713D01*
X162275713Y-81345197D01*
X162361500Y-81138087D01*
X162361500Y-80913913D01*
X162275713Y-80706803D01*
X162150410Y-80581500D01*
X162275713Y-80456197D01*
X162361500Y-80249087D01*
X162361500Y-80151913D01*
X163139500Y-80151913D01*
X163139500Y-80376087D01*
X163225287Y-80583197D01*
X163383803Y-80741713D01*
X163590913Y-80827500D01*
X163724150Y-80827500D01*
X164208501Y-81311851D01*
X164208500Y-85438590D01*
X164114287Y-85532803D01*
X164028500Y-85739913D01*
X164028500Y-85964087D01*
X164114287Y-86171197D01*
X164272803Y-86329713D01*
X164479913Y-86415500D01*
X164704087Y-86415500D01*
X164911197Y-86329713D01*
X165069713Y-86171197D01*
X165155500Y-85964087D01*
X165155500Y-85739913D01*
X165069713Y-85532803D01*
X164975500Y-85438590D01*
X164975500Y-81190769D01*
X164983013Y-81153000D01*
X164975500Y-81115230D01*
X164953249Y-81003366D01*
X164868488Y-80876512D01*
X164836465Y-80855115D01*
X164266500Y-80285150D01*
X164266500Y-80151913D01*
X164180713Y-79944803D01*
X164022197Y-79786287D01*
X163815087Y-79700500D01*
X163590913Y-79700500D01*
X163383803Y-79786287D01*
X163225287Y-79944803D01*
X163139500Y-80151913D01*
X162361500Y-80151913D01*
X162361500Y-80024913D01*
X162275713Y-79817803D01*
X162117197Y-79659287D01*
X161910087Y-79573500D01*
X161685913Y-79573500D01*
X161478803Y-79659287D01*
X161384590Y-79753500D01*
X161321851Y-79753500D01*
X160911500Y-79343150D01*
X160911500Y-75075430D01*
X168805685Y-75075430D01*
X168810290Y-75661723D01*
X169004557Y-76214915D01*
X169367539Y-76675355D01*
X169860095Y-76993395D01*
X170429114Y-77134740D01*
X171013239Y-77084149D01*
X171549483Y-76847078D01*
X171980025Y-76449090D01*
X172258438Y-75933099D01*
X172354703Y-75354744D01*
X172354483Y-75326699D01*
X172249146Y-74749927D01*
X171962661Y-74238373D01*
X171525922Y-73847196D01*
X170986020Y-73618578D01*
X170401173Y-73577168D01*
X169834444Y-73727433D01*
X169346944Y-74053171D01*
X168991239Y-74519255D01*
X168805685Y-75075430D01*
X160911500Y-75075430D01*
X160911500Y-74205769D01*
X160919013Y-74168000D01*
X160898001Y-74062367D01*
X160889249Y-74018366D01*
X160804488Y-73891512D01*
X160772465Y-73870115D01*
X159936885Y-73034535D01*
X159915488Y-73002512D01*
X159788634Y-72917751D01*
X159676770Y-72895500D01*
X159676769Y-72895500D01*
X159639000Y-72887987D01*
X159601231Y-72895500D01*
X149516769Y-72895500D01*
X149479000Y-72887987D01*
X149441231Y-72895500D01*
X149441230Y-72895500D01*
X149329366Y-72917751D01*
X149202512Y-73002512D01*
X149181115Y-73034535D01*
X148611150Y-73604500D01*
X148477913Y-73604500D01*
X148270803Y-73690287D01*
X148112287Y-73848803D01*
X148026500Y-74055913D01*
X145085866Y-74055913D01*
X145066893Y-73960534D01*
X144820788Y-73592212D01*
X144452466Y-73346107D01*
X144127666Y-73281500D01*
X143908334Y-73281500D01*
X143583534Y-73346107D01*
X143215212Y-73592212D01*
X142969107Y-73960534D01*
X142882686Y-74395000D01*
X142573531Y-74395000D01*
X142613314Y-74195000D01*
X142526893Y-73760534D01*
X142280788Y-73392212D01*
X141912466Y-73146107D01*
X141587666Y-73081500D01*
X141368334Y-73081500D01*
X141043534Y-73146107D01*
X140675212Y-73392212D01*
X140429107Y-73760534D01*
X140342686Y-74195000D01*
X140033532Y-74195000D01*
X139986893Y-73960534D01*
X139740788Y-73592212D01*
X139372466Y-73346107D01*
X139047666Y-73281500D01*
X138828334Y-73281500D01*
X138503534Y-73346107D01*
X138135212Y-73592212D01*
X137889107Y-73960534D01*
X137802686Y-74395000D01*
X134993314Y-74395000D01*
X134906893Y-73960534D01*
X134660788Y-73592212D01*
X134292466Y-73346107D01*
X133967666Y-73281500D01*
X133748334Y-73281500D01*
X133423534Y-73346107D01*
X133055212Y-73592212D01*
X132809107Y-73960534D01*
X132722686Y-74395000D01*
X132436662Y-74395000D01*
X132436662Y-73345000D01*
X132416211Y-73242188D01*
X132357973Y-73155027D01*
X132270812Y-73096789D01*
X132168000Y-73076338D01*
X130468000Y-73076338D01*
X130365188Y-73096789D01*
X130278027Y-73155027D01*
X130219789Y-73242188D01*
X130199338Y-73345000D01*
X124739477Y-73345000D01*
X125011941Y-73086893D01*
X125559233Y-72769002D01*
X126168451Y-72584488D01*
X126660719Y-72540554D01*
X170633466Y-72540554D01*
X171277548Y-72615646D01*
G36*
X137698287Y-87949197D02*
X137856803Y-88107713D01*
X138063913Y-88193500D01*
X138288087Y-88193500D01*
X138495197Y-88107713D01*
X138589410Y-88013500D01*
X143765907Y-88013500D01*
X143765907Y-88180494D01*
X143851694Y-88387604D01*
X144010210Y-88546120D01*
X144217320Y-88631907D01*
X144350557Y-88631907D01*
X144922125Y-89203475D01*
X144943522Y-89235498D01*
X145070376Y-89320259D01*
X145182240Y-89342510D01*
X145182241Y-89342510D01*
X145220010Y-89350023D01*
X145257779Y-89342510D01*
X149010892Y-89342510D01*
X149409479Y-89741098D01*
X149456512Y-89811488D01*
X149486503Y-89831527D01*
X149506542Y-89861518D01*
X149633396Y-89946279D01*
X149745260Y-89968530D01*
X149783029Y-89976043D01*
X149820798Y-89968530D01*
X157960436Y-89968530D01*
X158018287Y-90108197D01*
X158176803Y-90266713D01*
X158383913Y-90352500D01*
X158608087Y-90352500D01*
X158815197Y-90266713D01*
X158973713Y-90108197D01*
X159045148Y-89935736D01*
X159139326Y-89974746D01*
X159363500Y-89974746D01*
X159570610Y-89888959D01*
X159729126Y-89730443D01*
X159786499Y-89591930D01*
X159856917Y-89621098D01*
X160081091Y-89621098D01*
X160204787Y-89569862D01*
X156178150Y-93596500D01*
X148500770Y-93596500D01*
X148463000Y-93588987D01*
X148313365Y-93618751D01*
X148244579Y-93664713D01*
X148186512Y-93703512D01*
X148165117Y-93735532D01*
X146929426Y-94971224D01*
X146897406Y-94992619D01*
X146876011Y-95024639D01*
X146812645Y-95119473D01*
X146782880Y-95269107D01*
X146790394Y-95306881D01*
X146790393Y-96134981D01*
X146787554Y-96135546D01*
X146650777Y-96226938D01*
X146559385Y-96363715D01*
X146527293Y-96525054D01*
X146559385Y-96686393D01*
X146618627Y-96775054D01*
X146559385Y-96863715D01*
X146527293Y-97025054D01*
X146559385Y-97186393D01*
X146618627Y-97275054D01*
X146559385Y-97363715D01*
X146527293Y-97525054D01*
X146559385Y-97686393D01*
X146618627Y-97775054D01*
X146559385Y-97863715D01*
X146527293Y-98025054D01*
X146559385Y-98186393D01*
X146650777Y-98323170D01*
X146787554Y-98414562D01*
X146908171Y-98438554D01*
X147439615Y-98438554D01*
X147496761Y-98427187D01*
X147485394Y-98484332D01*
X147485393Y-99015775D01*
X147509385Y-99136392D01*
X147600777Y-99273170D01*
X147737554Y-99364562D01*
X147898893Y-99396654D01*
X148060231Y-99364562D01*
X148148893Y-99305320D01*
X148237554Y-99364562D01*
X148398893Y-99396654D01*
X148560231Y-99364562D01*
X148648893Y-99305320D01*
X148737554Y-99364562D01*
X148898893Y-99396654D01*
X149060231Y-99364562D01*
X149148893Y-99305320D01*
X149237554Y-99364562D01*
X149398893Y-99396654D01*
X149560231Y-99364562D01*
X149697009Y-99273170D01*
X149788401Y-99136393D01*
X149788966Y-99133554D01*
X150767177Y-99133554D01*
X150804946Y-99141067D01*
X150842715Y-99133554D01*
X150842716Y-99133554D01*
X150954580Y-99111303D01*
X151081434Y-99026542D01*
X151102831Y-98994519D01*
X151362850Y-98734500D01*
X151496087Y-98734500D01*
X151703197Y-98648713D01*
X151861713Y-98490197D01*
X151947500Y-98283087D01*
X151947500Y-98058913D01*
X151861713Y-97851803D01*
X151703197Y-97693287D01*
X151549941Y-97629807D01*
X152471500Y-96708249D01*
X152471500Y-96759087D01*
X152557287Y-96966197D01*
X152715803Y-97124713D01*
X152922913Y-97210500D01*
X152938354Y-97210500D01*
X152954835Y-97235165D01*
X153086986Y-97323465D01*
X153108151Y-97337607D01*
X153288999Y-97373580D01*
X153334647Y-97364500D01*
X159048501Y-97364500D01*
X159048500Y-98954714D01*
X158862087Y-98877500D01*
X158637913Y-98877500D01*
X158430803Y-98963287D01*
X158272287Y-99121803D01*
X158186500Y-99328913D01*
X158186500Y-99349012D01*
X158050013Y-99485500D01*
X144844988Y-99485500D01*
X142092026Y-96732539D01*
X142066165Y-96693835D01*
X141912849Y-96591393D01*
X141777648Y-96564500D01*
X141732000Y-96555420D01*
X141686352Y-96564500D01*
X140236688Y-96564500D01*
X137258529Y-93664713D01*
X145994500Y-93664713D01*
X145994500Y-93888887D01*
X146080287Y-94095997D01*
X146238803Y-94254513D01*
X146445913Y-94340300D01*
X146670087Y-94340300D01*
X146877197Y-94254513D01*
X146971410Y-94160300D01*
X147104431Y-94160300D01*
X147142200Y-94167813D01*
X147179969Y-94160300D01*
X147179970Y-94160300D01*
X147291834Y-94138049D01*
X147418688Y-94053288D01*
X147440085Y-94021265D01*
X149838851Y-91622500D01*
X149972087Y-91622500D01*
X150179197Y-91536713D01*
X150337713Y-91378197D01*
X150423500Y-91171087D01*
X150423500Y-90946913D01*
X150337713Y-90739803D01*
X150179197Y-90581287D01*
X149972087Y-90495500D01*
X149788500Y-90495500D01*
X149788500Y-90438913D01*
X149702713Y-90231803D01*
X149544197Y-90073287D01*
X149337087Y-89987500D01*
X149112913Y-89987500D01*
X148905803Y-90073287D01*
X148747287Y-90231803D01*
X148661500Y-90438913D01*
X148661500Y-90572149D01*
X146807750Y-92425900D01*
X146674513Y-92425900D01*
X146467403Y-92511687D01*
X146308887Y-92670203D01*
X146223100Y-92877313D01*
X146223100Y-93101487D01*
X146295261Y-93275701D01*
X146238803Y-93299087D01*
X146080287Y-93457603D01*
X145994500Y-93664713D01*
X137258529Y-93664713D01*
X135912224Y-92353838D01*
X135900531Y-92326389D01*
X135911855Y-92298791D01*
X138185546Y-90025100D01*
X138242665Y-89939615D01*
X138315889Y-89762838D01*
X138332151Y-89681082D01*
X138390017Y-89657113D01*
X138548533Y-89498597D01*
X138634320Y-89291487D01*
X138634320Y-89067313D01*
X138548533Y-88860203D01*
X138390017Y-88701687D01*
X138182907Y-88615900D01*
X138058379Y-88615900D01*
X138047309Y-88599333D01*
X138015289Y-88577938D01*
X137670500Y-88233150D01*
X137670500Y-87882113D01*
X137698287Y-87949197D01*
X137698287Y-87949197D01*
G37*
X137698287Y-87949197D02*
X137856803Y-88107713D01*
X138063913Y-88193500D01*
X138288087Y-88193500D01*
X138495197Y-88107713D01*
X138589410Y-88013500D01*
X143765907Y-88013500D01*
X143765907Y-88180494D01*
X143851694Y-88387604D01*
X144010210Y-88546120D01*
X144217320Y-88631907D01*
X144350557Y-88631907D01*
X144922125Y-89203475D01*
X144943522Y-89235498D01*
X145070376Y-89320259D01*
X145182240Y-89342510D01*
X145182241Y-89342510D01*
X145220010Y-89350023D01*
X145257779Y-89342510D01*
X149010892Y-89342510D01*
X149409479Y-89741098D01*
X149456512Y-89811488D01*
X149486503Y-89831527D01*
X149506542Y-89861518D01*
X149633396Y-89946279D01*
X149745260Y-89968530D01*
X149783029Y-89976043D01*
X149820798Y-89968530D01*
X157960436Y-89968530D01*
X158018287Y-90108197D01*
X158176803Y-90266713D01*
X158383913Y-90352500D01*
X158608087Y-90352500D01*
X158815197Y-90266713D01*
X158973713Y-90108197D01*
X159045148Y-89935736D01*
X159139326Y-89974746D01*
X159363500Y-89974746D01*
X159570610Y-89888959D01*
X159729126Y-89730443D01*
X159786499Y-89591930D01*
X159856917Y-89621098D01*
X160081091Y-89621098D01*
X160204787Y-89569862D01*
X156178150Y-93596500D01*
X148500770Y-93596500D01*
X148463000Y-93588987D01*
X148313365Y-93618751D01*
X148244579Y-93664713D01*
X148186512Y-93703512D01*
X148165117Y-93735532D01*
X146929426Y-94971224D01*
X146897406Y-94992619D01*
X146876011Y-95024639D01*
X146812645Y-95119473D01*
X146782880Y-95269107D01*
X146790394Y-95306881D01*
X146790393Y-96134981D01*
X146787554Y-96135546D01*
X146650777Y-96226938D01*
X146559385Y-96363715D01*
X146527293Y-96525054D01*
X146559385Y-96686393D01*
X146618627Y-96775054D01*
X146559385Y-96863715D01*
X146527293Y-97025054D01*
X146559385Y-97186393D01*
X146618627Y-97275054D01*
X146559385Y-97363715D01*
X146527293Y-97525054D01*
X146559385Y-97686393D01*
X146618627Y-97775054D01*
X146559385Y-97863715D01*
X146527293Y-98025054D01*
X146559385Y-98186393D01*
X146650777Y-98323170D01*
X146787554Y-98414562D01*
X146908171Y-98438554D01*
X147439615Y-98438554D01*
X147496761Y-98427187D01*
X147485394Y-98484332D01*
X147485393Y-99015775D01*
X147509385Y-99136392D01*
X147600777Y-99273170D01*
X147737554Y-99364562D01*
X147898893Y-99396654D01*
X148060231Y-99364562D01*
X148148893Y-99305320D01*
X148237554Y-99364562D01*
X148398893Y-99396654D01*
X148560231Y-99364562D01*
X148648893Y-99305320D01*
X148737554Y-99364562D01*
X148898893Y-99396654D01*
X149060231Y-99364562D01*
X149148893Y-99305320D01*
X149237554Y-99364562D01*
X149398893Y-99396654D01*
X149560231Y-99364562D01*
X149697009Y-99273170D01*
X149788401Y-99136393D01*
X149788966Y-99133554D01*
X150767177Y-99133554D01*
X150804946Y-99141067D01*
X150842715Y-99133554D01*
X150842716Y-99133554D01*
X150954580Y-99111303D01*
X151081434Y-99026542D01*
X151102831Y-98994519D01*
X151362850Y-98734500D01*
X151496087Y-98734500D01*
X151703197Y-98648713D01*
X151861713Y-98490197D01*
X151947500Y-98283087D01*
X151947500Y-98058913D01*
X151861713Y-97851803D01*
X151703197Y-97693287D01*
X151549941Y-97629807D01*
X152471500Y-96708249D01*
X152471500Y-96759087D01*
X152557287Y-96966197D01*
X152715803Y-97124713D01*
X152922913Y-97210500D01*
X152938354Y-97210500D01*
X152954835Y-97235165D01*
X153086986Y-97323465D01*
X153108151Y-97337607D01*
X153288999Y-97373580D01*
X153334647Y-97364500D01*
X159048501Y-97364500D01*
X159048500Y-98954714D01*
X158862087Y-98877500D01*
X158637913Y-98877500D01*
X158430803Y-98963287D01*
X158272287Y-99121803D01*
X158186500Y-99328913D01*
X158186500Y-99349012D01*
X158050013Y-99485500D01*
X144844988Y-99485500D01*
X142092026Y-96732539D01*
X142066165Y-96693835D01*
X141912849Y-96591393D01*
X141777648Y-96564500D01*
X141732000Y-96555420D01*
X141686352Y-96564500D01*
X140236688Y-96564500D01*
X137258529Y-93664713D01*
X145994500Y-93664713D01*
X145994500Y-93888887D01*
X146080287Y-94095997D01*
X146238803Y-94254513D01*
X146445913Y-94340300D01*
X146670087Y-94340300D01*
X146877197Y-94254513D01*
X146971410Y-94160300D01*
X147104431Y-94160300D01*
X147142200Y-94167813D01*
X147179969Y-94160300D01*
X147179970Y-94160300D01*
X147291834Y-94138049D01*
X147418688Y-94053288D01*
X147440085Y-94021265D01*
X149838851Y-91622500D01*
X149972087Y-91622500D01*
X150179197Y-91536713D01*
X150337713Y-91378197D01*
X150423500Y-91171087D01*
X150423500Y-90946913D01*
X150337713Y-90739803D01*
X150179197Y-90581287D01*
X149972087Y-90495500D01*
X149788500Y-90495500D01*
X149788500Y-90438913D01*
X149702713Y-90231803D01*
X149544197Y-90073287D01*
X149337087Y-89987500D01*
X149112913Y-89987500D01*
X148905803Y-90073287D01*
X148747287Y-90231803D01*
X148661500Y-90438913D01*
X148661500Y-90572149D01*
X146807750Y-92425900D01*
X146674513Y-92425900D01*
X146467403Y-92511687D01*
X146308887Y-92670203D01*
X146223100Y-92877313D01*
X146223100Y-93101487D01*
X146295261Y-93275701D01*
X146238803Y-93299087D01*
X146080287Y-93457603D01*
X145994500Y-93664713D01*
X137258529Y-93664713D01*
X135912224Y-92353838D01*
X135900531Y-92326389D01*
X135911855Y-92298791D01*
X138185546Y-90025100D01*
X138242665Y-89939615D01*
X138315889Y-89762838D01*
X138332151Y-89681082D01*
X138390017Y-89657113D01*
X138548533Y-89498597D01*
X138634320Y-89291487D01*
X138634320Y-89067313D01*
X138548533Y-88860203D01*
X138390017Y-88701687D01*
X138182907Y-88615900D01*
X138058379Y-88615900D01*
X138047309Y-88599333D01*
X138015289Y-88577938D01*
X137670500Y-88233150D01*
X137670500Y-87882113D01*
X137698287Y-87949197D01*
G04 #@! TD*
M02*
