G04 #@! TF.GenerationSoftware,KiCad,Pcbnew,(5.0.2)-1*
G04 #@! TF.CreationDate,2020-02-27T04:06:31+08:00*
G04 #@! TF.ProjectId,jointController,6a6f696e-7443-46f6-9e74-726f6c6c6572,rev?*
G04 #@! TF.SameCoordinates,Original*
G04 #@! TF.FileFunction,Legend,Top*
G04 #@! TF.FilePolarity,Positive*
%FSLAX46Y46*%
G04 Gerber Fmt 4.6, Leading zero omitted, Abs format (unit mm)*
G04 Created by KiCad (PCBNEW (5.0.2)-1) date 2/27/2020 4:06:31 AM*
%MOMM*%
%LPD*%
G01*
G04 APERTURE LIST*
%ADD10C,0.150000*%
%ADD11C,0.120000*%
G04 APERTURE END LIST*
D10*
G04 #@! TO.C,U2*
X136644069Y-92688210D02*
X136644069Y-91969790D01*
X141224000Y-97268141D02*
X140864790Y-96908931D01*
X141583210Y-96908931D02*
X141224000Y-97268141D01*
X146163141Y-92329000D02*
X145803931Y-91969790D01*
X145803931Y-92688210D02*
X146163141Y-92329000D01*
X141224000Y-87389859D02*
X141583210Y-87749069D01*
X140864790Y-87749069D02*
X141224000Y-87389859D01*
X136426849Y-92329000D02*
G75*
G03X136426849Y-92329000I-141990J0D01*
G01*
G04 #@! TO.C,Q2*
X138291893Y-108075864D02*
X138545893Y-108075864D01*
X137021893Y-108075864D02*
X137275893Y-108075864D01*
X135751893Y-108075864D02*
X136005893Y-108075864D01*
X134672393Y-108075864D02*
X134735893Y-108075864D01*
X139625393Y-108075864D02*
X139561893Y-108075864D01*
X139625393Y-109980864D02*
X139625393Y-108075864D01*
X139625393Y-113917864D02*
X139625393Y-111123864D01*
X139561893Y-113917864D02*
X139625393Y-113917864D01*
X135751893Y-113917864D02*
X138545893Y-113917864D01*
X134672393Y-113917864D02*
X134735893Y-113917864D01*
X134672393Y-111123864D02*
X134672393Y-113917864D01*
X134672393Y-108075864D02*
X134672393Y-109980864D01*
D11*
G04 #@! TO.C,C1*
X126651936Y-101367000D02*
X127856064Y-101367000D01*
X126651936Y-99547000D02*
X127856064Y-99547000D01*
G04 #@! TO.C,C2*
X129561000Y-104742064D02*
X129561000Y-103537936D01*
X127741000Y-104742064D02*
X127741000Y-103537936D01*
G04 #@! TO.C,C3*
X154453000Y-104615064D02*
X154453000Y-103410936D01*
X152633000Y-104615064D02*
X152633000Y-103410936D01*
G04 #@! TO.C,C4*
X162454000Y-104615064D02*
X162454000Y-103410936D01*
X160634000Y-104615064D02*
X160634000Y-103410936D01*
G04 #@! TO.C,C5*
X130638733Y-80520000D02*
X130981267Y-80520000D01*
X130638733Y-79500000D02*
X130981267Y-79500000D01*
G04 #@! TO.C,C6*
X137285000Y-79711733D02*
X137285000Y-80054267D01*
X138305000Y-79711733D02*
X138305000Y-80054267D01*
G04 #@! TO.C,C7*
X132355000Y-104742064D02*
X132355000Y-103537936D01*
X130535000Y-104742064D02*
X130535000Y-103537936D01*
G04 #@! TO.C,C8*
X151659000Y-104615064D02*
X151659000Y-103410936D01*
X149839000Y-104615064D02*
X149839000Y-103410936D01*
G04 #@! TO.C,C9*
X159660000Y-104615064D02*
X159660000Y-103410936D01*
X157840000Y-104615064D02*
X157840000Y-103410936D01*
G04 #@! TO.C,C10*
X134918267Y-82294000D02*
X134575733Y-82294000D01*
X134918267Y-83314000D02*
X134575733Y-83314000D01*
G04 #@! TO.C,C11*
X135689191Y-88555256D02*
X134837744Y-87703809D01*
X134402256Y-89842191D02*
X133550809Y-88990744D01*
G04 #@! TO.C,C13*
X150715979Y-84922028D02*
X150715979Y-85264562D01*
X151735979Y-84922028D02*
X151735979Y-85264562D01*
G04 #@! TO.C,C14*
X145667000Y-83140733D02*
X145667000Y-83483267D01*
X146687000Y-83140733D02*
X146687000Y-83483267D01*
G04 #@! TO.C,C15*
X149064979Y-84922028D02*
X149064979Y-85264562D01*
X150084979Y-84922028D02*
X150084979Y-85264562D01*
G04 #@! TO.C,C16*
X157181733Y-96522000D02*
X157524267Y-96522000D01*
X157181733Y-95502000D02*
X157524267Y-95502000D01*
G04 #@! TO.C,C17*
X157524267Y-93851000D02*
X157181733Y-93851000D01*
X157524267Y-94871000D02*
X157181733Y-94871000D01*
G04 #@! TO.C,C18*
X157181733Y-98173000D02*
X157524267Y-98173000D01*
X157181733Y-97153000D02*
X157524267Y-97153000D01*
G04 #@! TO.C,C19*
X162985267Y-74039000D02*
X162642733Y-74039000D01*
X162985267Y-75059000D02*
X162642733Y-75059000D01*
G04 #@! TO.C,C20*
X162985267Y-75690000D02*
X162642733Y-75690000D01*
X162985267Y-76710000D02*
X162642733Y-76710000D01*
G04 #@! TO.C,C21*
X161588267Y-93343000D02*
X161245733Y-93343000D01*
X161588267Y-94363000D02*
X161245733Y-94363000D01*
G04 #@! TO.C,C22*
X161588267Y-94867000D02*
X161245733Y-94867000D01*
X161588267Y-95887000D02*
X161245733Y-95887000D01*
G04 #@! TO.C,C23*
X171528527Y-85191719D02*
X171528527Y-85534253D01*
X172548527Y-85191719D02*
X172548527Y-85534253D01*
G04 #@! TO.C,C24*
X169877527Y-85191719D02*
X169877527Y-85534253D01*
X170897527Y-85191719D02*
X170897527Y-85534253D01*
G04 #@! TO.C,C25*
X164844000Y-101809733D02*
X164844000Y-102152267D01*
X165864000Y-101809733D02*
X165864000Y-102152267D01*
G04 #@! TO.C,C26*
X161165000Y-98469267D02*
X161165000Y-98126733D01*
X160145000Y-98469267D02*
X160145000Y-98126733D01*
G04 #@! TO.C,C27*
X148634267Y-95121000D02*
X148291733Y-95121000D01*
X148634267Y-96141000D02*
X148291733Y-96141000D01*
G04 #@! TO.C,C_SW1*
X134380480Y-94895271D02*
X134138271Y-95137480D01*
X135101729Y-95616520D02*
X134859520Y-95858729D01*
G04 #@! TO.C,C_VCP1*
X133013267Y-92073000D02*
X132670733Y-92073000D01*
X133013267Y-93093000D02*
X132670733Y-93093000D01*
G04 #@! TO.C,C_VDD1*
X143102729Y-86120480D02*
X142860520Y-85878271D01*
X142381480Y-86841729D02*
X142139271Y-86599520D01*
G04 #@! TO.C,C_VM1*
X132463000Y-95421267D02*
X132463000Y-95078733D01*
X131443000Y-95421267D02*
X131443000Y-95078733D01*
G04 #@! TO.C,C_VREF1*
X148350480Y-92609271D02*
X148108271Y-92851480D01*
X149071729Y-93330520D02*
X148829520Y-93572729D01*
G04 #@! TO.C,D1*
X137074000Y-85963000D02*
X133224000Y-85963000D01*
X137074000Y-83963000D02*
X133224000Y-83963000D01*
X137074000Y-85963000D02*
X137074000Y-83963000D01*
G04 #@! TO.C,J2*
X129988000Y-75625000D02*
X129988000Y-74295000D01*
X131318000Y-75625000D02*
X129988000Y-75625000D01*
X132588000Y-75625000D02*
X132588000Y-72965000D01*
X132588000Y-72965000D02*
X145348000Y-72965000D01*
X132588000Y-75625000D02*
X145348000Y-75625000D01*
X145348000Y-75625000D02*
X145348000Y-72965000D01*
G04 #@! TO.C,J3*
X172825000Y-102065000D02*
X172825000Y-104945000D01*
X169705000Y-106115000D02*
X169705000Y-105065000D01*
X170855000Y-106115000D02*
X169705000Y-106115000D01*
X169705000Y-101945000D02*
X168715000Y-101945000D01*
X169705000Y-100895000D02*
X169705000Y-101945000D01*
X170855000Y-100895000D02*
X169705000Y-100895000D01*
G04 #@! TO.C,J7*
X148166000Y-73047000D02*
X151046000Y-73047000D01*
X152216000Y-76167000D02*
X151166000Y-76167000D01*
X152216000Y-75017000D02*
X152216000Y-76167000D01*
X148046000Y-76167000D02*
X148046000Y-77157000D01*
X146996000Y-76167000D02*
X148046000Y-76167000D01*
X146996000Y-75017000D02*
X146996000Y-76167000D01*
G04 #@! TO.C,J8*
X172825000Y-95080000D02*
X172825000Y-97960000D01*
X169705000Y-99130000D02*
X169705000Y-98080000D01*
X170855000Y-99130000D02*
X169705000Y-99130000D01*
X169705000Y-94960000D02*
X168715000Y-94960000D01*
X169705000Y-93910000D02*
X169705000Y-94960000D01*
X170855000Y-93910000D02*
X169705000Y-93910000D01*
G04 #@! TO.C,L2*
X153752733Y-94871000D02*
X154095267Y-94871000D01*
X153752733Y-93851000D02*
X154095267Y-93851000D01*
D10*
G04 #@! TO.C,Q1*
X129005893Y-113314864D02*
X128751893Y-113314864D01*
X130275893Y-113314864D02*
X130021893Y-113314864D01*
X131545893Y-113314864D02*
X131291893Y-113314864D01*
X132625393Y-113314864D02*
X132561893Y-113314864D01*
X127672393Y-113314864D02*
X127735893Y-113314864D01*
X127672393Y-111409864D02*
X127672393Y-113314864D01*
X127672393Y-107472864D02*
X127672393Y-110266864D01*
X127735893Y-107472864D02*
X127672393Y-107472864D01*
X131545893Y-107472864D02*
X128751893Y-107472864D01*
X132625393Y-107472864D02*
X132561893Y-107472864D01*
X132625393Y-110266864D02*
X132625393Y-107472864D01*
X132625393Y-113314864D02*
X132625393Y-111409864D01*
G04 #@! TO.C,Q3*
X151005893Y-113314864D02*
X150751893Y-113314864D01*
X152275893Y-113314864D02*
X152021893Y-113314864D01*
X153545893Y-113314864D02*
X153291893Y-113314864D01*
X154625393Y-113314864D02*
X154561893Y-113314864D01*
X149672393Y-113314864D02*
X149735893Y-113314864D01*
X149672393Y-111409864D02*
X149672393Y-113314864D01*
X149672393Y-107472864D02*
X149672393Y-110266864D01*
X149735893Y-107472864D02*
X149672393Y-107472864D01*
X153545893Y-107472864D02*
X150751893Y-107472864D01*
X154625393Y-107472864D02*
X154561893Y-107472864D01*
X154625393Y-110266864D02*
X154625393Y-107472864D01*
X154625393Y-113314864D02*
X154625393Y-111409864D01*
G04 #@! TO.C,Q4*
X146291893Y-108075864D02*
X146545893Y-108075864D01*
X145021893Y-108075864D02*
X145275893Y-108075864D01*
X143751893Y-108075864D02*
X144005893Y-108075864D01*
X142672393Y-108075864D02*
X142735893Y-108075864D01*
X147625393Y-108075864D02*
X147561893Y-108075864D01*
X147625393Y-109980864D02*
X147625393Y-108075864D01*
X147625393Y-113917864D02*
X147625393Y-111123864D01*
X147561893Y-113917864D02*
X147625393Y-113917864D01*
X143751893Y-113917864D02*
X146545893Y-113917864D01*
X142672393Y-113917864D02*
X142735893Y-113917864D01*
X142672393Y-111123864D02*
X142672393Y-113917864D01*
X142672393Y-108075864D02*
X142672393Y-109980864D01*
G04 #@! TO.C,Q5*
X159005893Y-113314864D02*
X158751893Y-113314864D01*
X160275893Y-113314864D02*
X160021893Y-113314864D01*
X161545893Y-113314864D02*
X161291893Y-113314864D01*
X162625393Y-113314864D02*
X162561893Y-113314864D01*
X157672393Y-113314864D02*
X157735893Y-113314864D01*
X157672393Y-111409864D02*
X157672393Y-113314864D01*
X157672393Y-107472864D02*
X157672393Y-110266864D01*
X157735893Y-107472864D02*
X157672393Y-107472864D01*
X161545893Y-107472864D02*
X158751893Y-107472864D01*
X162625393Y-107472864D02*
X162561893Y-107472864D01*
X162625393Y-110266864D02*
X162625393Y-107472864D01*
X162625393Y-113314864D02*
X162625393Y-111409864D01*
G04 #@! TO.C,Q6*
X168291893Y-108075864D02*
X168545893Y-108075864D01*
X167021893Y-108075864D02*
X167275893Y-108075864D01*
X165751893Y-108075864D02*
X166005893Y-108075864D01*
X164672393Y-108075864D02*
X164735893Y-108075864D01*
X169625393Y-108075864D02*
X169561893Y-108075864D01*
X169625393Y-109980864D02*
X169625393Y-108075864D01*
X169625393Y-113917864D02*
X169625393Y-111123864D01*
X169561893Y-113917864D02*
X169625393Y-113917864D01*
X165751893Y-113917864D02*
X168545893Y-113917864D01*
X164672393Y-113917864D02*
X164735893Y-113917864D01*
X164672393Y-111123864D02*
X164672393Y-113917864D01*
X164672393Y-108075864D02*
X164672393Y-109980864D01*
D11*
G04 #@! TO.C,R1*
X139759000Y-104922064D02*
X139759000Y-100817936D01*
X136339000Y-104922064D02*
X136339000Y-100817936D01*
G04 #@! TO.C,R2*
X147887000Y-104922064D02*
X147887000Y-100817936D01*
X144467000Y-104922064D02*
X144467000Y-100817936D01*
G04 #@! TO.C,R3*
X143681267Y-80262000D02*
X143338733Y-80262000D01*
X143681267Y-81282000D02*
X143338733Y-81282000D01*
G04 #@! TO.C,R4*
X145667000Y-79711733D02*
X145667000Y-80054267D01*
X146687000Y-79711733D02*
X146687000Y-80054267D01*
G04 #@! TO.C,R5*
X151555267Y-78738000D02*
X151212733Y-78738000D01*
X151555267Y-79758000D02*
X151212733Y-79758000D01*
G04 #@! TO.C,R6*
X156444767Y-75944000D02*
X156102233Y-75944000D01*
X156444767Y-76964000D02*
X156102233Y-76964000D01*
G04 #@! TO.C,R7*
X153498733Y-98173000D02*
X153841267Y-98173000D01*
X153498733Y-97153000D02*
X153841267Y-97153000D01*
G04 #@! TO.C,R8*
X159641000Y-75736267D02*
X159641000Y-75393733D01*
X158621000Y-75736267D02*
X158621000Y-75393733D01*
G04 #@! TO.C,R9*
X166495000Y-97872733D02*
X166495000Y-98215267D01*
X167515000Y-97872733D02*
X167515000Y-98215267D01*
G04 #@! TO.C,R_FB1*
X129368733Y-88521000D02*
X129711267Y-88521000D01*
X129368733Y-87501000D02*
X129711267Y-87501000D01*
G04 #@! TO.C,R_FB2*
X129711267Y-89025000D02*
X129368733Y-89025000D01*
X129711267Y-90045000D02*
X129368733Y-90045000D01*
G04 #@! TO.C,R_PU1*
X147547729Y-90057480D02*
X147305520Y-89815271D01*
X146826480Y-90778729D02*
X146584271Y-90536520D01*
G04 #@! TO.C,R_PU2*
X147928729Y-88152480D02*
X147686520Y-87910271D01*
X147207480Y-88873729D02*
X146965271Y-88631520D01*
G04 #@! TO.C,U1*
X135647000Y-78400000D02*
X133197000Y-78400000D01*
X133847000Y-81620000D02*
X135647000Y-81620000D01*
D10*
G04 #@! TO.C,U3*
X154734000Y-79992000D02*
X153459000Y-79992000D01*
X167084000Y-79042000D02*
X166034000Y-79042000D01*
X167084000Y-91392000D02*
X166034000Y-91392000D01*
X154734000Y-91392000D02*
X155784000Y-91392000D01*
X154734000Y-79042000D02*
X155784000Y-79042000D01*
X154734000Y-91392000D02*
X154734000Y-90342000D01*
X167084000Y-91392000D02*
X167084000Y-90342000D01*
X167084000Y-79042000D02*
X167084000Y-80092000D01*
X154734000Y-79042000D02*
X154734000Y-79992000D01*
D11*
G04 #@! TO.C,U4*
X165390000Y-96484000D02*
X165390000Y-96634000D01*
X162270000Y-96484000D02*
X162270000Y-96634000D01*
X162270000Y-99604000D02*
X162270000Y-99454000D01*
X162270000Y-96484000D02*
X165390000Y-96484000D01*
X162270000Y-99604000D02*
X165390000Y-99604000D01*
X165390000Y-99604000D02*
X165390000Y-99454000D01*
X162270000Y-96634000D02*
X162010000Y-96634000D01*
G04 #@! TO.C,TP1*
X169866000Y-79833000D02*
X170561000Y-79833000D01*
X169866000Y-80518000D02*
X169866000Y-79833000D01*
X171169276Y-81203000D02*
X171256000Y-81203000D01*
X169866000Y-81203000D02*
X169952724Y-81203000D01*
X171256000Y-81203000D02*
X171256000Y-81078000D01*
X169866000Y-81203000D02*
X169866000Y-81078000D01*
X169866000Y-81203000D02*
X171256000Y-81203000D01*
G04 #@! TO.C,C12*
X129368733Y-86616000D02*
X129711267Y-86616000D01*
X129368733Y-85596000D02*
X129711267Y-85596000D01*
D10*
G04 #@! TO.C,L1*
X131445000Y-84518500D02*
X131508500Y-84518500D01*
X131508500Y-84518500D02*
X131445000Y-84518500D01*
X131508500Y-82359500D02*
X131508500Y-84518500D01*
X129349500Y-82359500D02*
X131508500Y-82359500D01*
X129349500Y-84518500D02*
X129349500Y-82359500D01*
X131508500Y-84518500D02*
X129349500Y-84518500D01*
G04 #@! TO.C,U2*
X137154936Y-88888420D02*
X137727356Y-89460840D01*
X137828371Y-89494512D01*
X137895715Y-89494512D01*
X137996730Y-89460840D01*
X138131417Y-89326153D01*
X138165089Y-89225138D01*
X138165089Y-89157794D01*
X138131417Y-89056779D01*
X137558997Y-88484359D01*
X137929387Y-88248657D02*
X137929387Y-88181314D01*
X137963058Y-88080298D01*
X138131417Y-87911940D01*
X138232432Y-87878268D01*
X138299776Y-87878268D01*
X138400791Y-87911940D01*
X138468135Y-87979283D01*
X138535478Y-88113970D01*
X138535478Y-88922092D01*
X138973211Y-88484359D01*
G04 #@! TO.C,Q2*
X134778761Y-107227619D02*
X134683523Y-107180000D01*
X134588285Y-107084761D01*
X134445428Y-106941904D01*
X134350190Y-106894285D01*
X134254952Y-106894285D01*
X134302571Y-107132380D02*
X134207333Y-107084761D01*
X134112095Y-106989523D01*
X134064476Y-106799047D01*
X134064476Y-106465714D01*
X134112095Y-106275238D01*
X134207333Y-106180000D01*
X134302571Y-106132380D01*
X134493047Y-106132380D01*
X134588285Y-106180000D01*
X134683523Y-106275238D01*
X134731142Y-106465714D01*
X134731142Y-106799047D01*
X134683523Y-106989523D01*
X134588285Y-107084761D01*
X134493047Y-107132380D01*
X134302571Y-107132380D01*
X135112095Y-106227619D02*
X135159714Y-106180000D01*
X135254952Y-106132380D01*
X135493047Y-106132380D01*
X135588285Y-106180000D01*
X135635904Y-106227619D01*
X135683523Y-106322857D01*
X135683523Y-106418095D01*
X135635904Y-106560952D01*
X135064476Y-107132380D01*
X135683523Y-107132380D01*
G04 #@! TO.C,C1*
X125563333Y-102719142D02*
X125515714Y-102766761D01*
X125372857Y-102814380D01*
X125277619Y-102814380D01*
X125134761Y-102766761D01*
X125039523Y-102671523D01*
X124991904Y-102576285D01*
X124944285Y-102385809D01*
X124944285Y-102242952D01*
X124991904Y-102052476D01*
X125039523Y-101957238D01*
X125134761Y-101862000D01*
X125277619Y-101814380D01*
X125372857Y-101814380D01*
X125515714Y-101862000D01*
X125563333Y-101909619D01*
X126515714Y-102814380D02*
X125944285Y-102814380D01*
X126230000Y-102814380D02*
X126230000Y-101814380D01*
X126134761Y-101957238D01*
X126039523Y-102052476D01*
X125944285Y-102100095D01*
G04 #@! TO.C,C2*
X127103142Y-105957666D02*
X127150761Y-106005285D01*
X127198380Y-106148142D01*
X127198380Y-106243380D01*
X127150761Y-106386238D01*
X127055523Y-106481476D01*
X126960285Y-106529095D01*
X126769809Y-106576714D01*
X126626952Y-106576714D01*
X126436476Y-106529095D01*
X126341238Y-106481476D01*
X126246000Y-106386238D01*
X126198380Y-106243380D01*
X126198380Y-106148142D01*
X126246000Y-106005285D01*
X126293619Y-105957666D01*
X126293619Y-105576714D02*
X126246000Y-105529095D01*
X126198380Y-105433857D01*
X126198380Y-105195761D01*
X126246000Y-105100523D01*
X126293619Y-105052904D01*
X126388857Y-105005285D01*
X126484095Y-105005285D01*
X126626952Y-105052904D01*
X127198380Y-105624333D01*
X127198380Y-105005285D01*
G04 #@! TO.C,C3*
X153376333Y-101195142D02*
X153328714Y-101242761D01*
X153185857Y-101290380D01*
X153090619Y-101290380D01*
X152947761Y-101242761D01*
X152852523Y-101147523D01*
X152804904Y-101052285D01*
X152757285Y-100861809D01*
X152757285Y-100718952D01*
X152804904Y-100528476D01*
X152852523Y-100433238D01*
X152947761Y-100338000D01*
X153090619Y-100290380D01*
X153185857Y-100290380D01*
X153328714Y-100338000D01*
X153376333Y-100385619D01*
X153709666Y-100290380D02*
X154328714Y-100290380D01*
X153995380Y-100671333D01*
X154138238Y-100671333D01*
X154233476Y-100718952D01*
X154281095Y-100766571D01*
X154328714Y-100861809D01*
X154328714Y-101099904D01*
X154281095Y-101195142D01*
X154233476Y-101242761D01*
X154138238Y-101290380D01*
X153852523Y-101290380D01*
X153757285Y-101242761D01*
X153709666Y-101195142D01*
G04 #@! TO.C,C4*
X161377333Y-101195142D02*
X161329714Y-101242761D01*
X161186857Y-101290380D01*
X161091619Y-101290380D01*
X160948761Y-101242761D01*
X160853523Y-101147523D01*
X160805904Y-101052285D01*
X160758285Y-100861809D01*
X160758285Y-100718952D01*
X160805904Y-100528476D01*
X160853523Y-100433238D01*
X160948761Y-100338000D01*
X161091619Y-100290380D01*
X161186857Y-100290380D01*
X161329714Y-100338000D01*
X161377333Y-100385619D01*
X162234476Y-100623714D02*
X162234476Y-101290380D01*
X161996380Y-100242761D02*
X161758285Y-100957047D01*
X162377333Y-100957047D01*
G04 #@! TO.C,C5*
X130643333Y-78937142D02*
X130595714Y-78984761D01*
X130452857Y-79032380D01*
X130357619Y-79032380D01*
X130214761Y-78984761D01*
X130119523Y-78889523D01*
X130071904Y-78794285D01*
X130024285Y-78603809D01*
X130024285Y-78460952D01*
X130071904Y-78270476D01*
X130119523Y-78175238D01*
X130214761Y-78080000D01*
X130357619Y-78032380D01*
X130452857Y-78032380D01*
X130595714Y-78080000D01*
X130643333Y-78127619D01*
X131548095Y-78032380D02*
X131071904Y-78032380D01*
X131024285Y-78508571D01*
X131071904Y-78460952D01*
X131167142Y-78413333D01*
X131405238Y-78413333D01*
X131500476Y-78460952D01*
X131548095Y-78508571D01*
X131595714Y-78603809D01*
X131595714Y-78841904D01*
X131548095Y-78937142D01*
X131500476Y-78984761D01*
X131405238Y-79032380D01*
X131167142Y-79032380D01*
X131071904Y-78984761D01*
X131024285Y-78937142D01*
G04 #@! TO.C,C6*
X137755333Y-77827142D02*
X137707714Y-77874761D01*
X137564857Y-77922380D01*
X137469619Y-77922380D01*
X137326761Y-77874761D01*
X137231523Y-77779523D01*
X137183904Y-77684285D01*
X137136285Y-77493809D01*
X137136285Y-77350952D01*
X137183904Y-77160476D01*
X137231523Y-77065238D01*
X137326761Y-76970000D01*
X137469619Y-76922380D01*
X137564857Y-76922380D01*
X137707714Y-76970000D01*
X137755333Y-77017619D01*
X138612476Y-76922380D02*
X138422000Y-76922380D01*
X138326761Y-76970000D01*
X138279142Y-77017619D01*
X138183904Y-77160476D01*
X138136285Y-77350952D01*
X138136285Y-77731904D01*
X138183904Y-77827142D01*
X138231523Y-77874761D01*
X138326761Y-77922380D01*
X138517238Y-77922380D01*
X138612476Y-77874761D01*
X138660095Y-77827142D01*
X138707714Y-77731904D01*
X138707714Y-77493809D01*
X138660095Y-77398571D01*
X138612476Y-77350952D01*
X138517238Y-77303333D01*
X138326761Y-77303333D01*
X138231523Y-77350952D01*
X138183904Y-77398571D01*
X138136285Y-77493809D01*
G04 #@! TO.C,C7*
X131278333Y-101449142D02*
X131230714Y-101496761D01*
X131087857Y-101544380D01*
X130992619Y-101544380D01*
X130849761Y-101496761D01*
X130754523Y-101401523D01*
X130706904Y-101306285D01*
X130659285Y-101115809D01*
X130659285Y-100972952D01*
X130706904Y-100782476D01*
X130754523Y-100687238D01*
X130849761Y-100592000D01*
X130992619Y-100544380D01*
X131087857Y-100544380D01*
X131230714Y-100592000D01*
X131278333Y-100639619D01*
X131611666Y-100544380D02*
X132278333Y-100544380D01*
X131849761Y-101544380D01*
G04 #@! TO.C,C8*
X150582333Y-101195142D02*
X150534714Y-101242761D01*
X150391857Y-101290380D01*
X150296619Y-101290380D01*
X150153761Y-101242761D01*
X150058523Y-101147523D01*
X150010904Y-101052285D01*
X149963285Y-100861809D01*
X149963285Y-100718952D01*
X150010904Y-100528476D01*
X150058523Y-100433238D01*
X150153761Y-100338000D01*
X150296619Y-100290380D01*
X150391857Y-100290380D01*
X150534714Y-100338000D01*
X150582333Y-100385619D01*
X151153761Y-100718952D02*
X151058523Y-100671333D01*
X151010904Y-100623714D01*
X150963285Y-100528476D01*
X150963285Y-100480857D01*
X151010904Y-100385619D01*
X151058523Y-100338000D01*
X151153761Y-100290380D01*
X151344238Y-100290380D01*
X151439476Y-100338000D01*
X151487095Y-100385619D01*
X151534714Y-100480857D01*
X151534714Y-100528476D01*
X151487095Y-100623714D01*
X151439476Y-100671333D01*
X151344238Y-100718952D01*
X151153761Y-100718952D01*
X151058523Y-100766571D01*
X151010904Y-100814190D01*
X150963285Y-100909428D01*
X150963285Y-101099904D01*
X151010904Y-101195142D01*
X151058523Y-101242761D01*
X151153761Y-101290380D01*
X151344238Y-101290380D01*
X151439476Y-101242761D01*
X151487095Y-101195142D01*
X151534714Y-101099904D01*
X151534714Y-100909428D01*
X151487095Y-100814190D01*
X151439476Y-100766571D01*
X151344238Y-100718952D01*
G04 #@! TO.C,C9*
X157287142Y-104179666D02*
X157334761Y-104227285D01*
X157382380Y-104370142D01*
X157382380Y-104465380D01*
X157334761Y-104608238D01*
X157239523Y-104703476D01*
X157144285Y-104751095D01*
X156953809Y-104798714D01*
X156810952Y-104798714D01*
X156620476Y-104751095D01*
X156525238Y-104703476D01*
X156430000Y-104608238D01*
X156382380Y-104465380D01*
X156382380Y-104370142D01*
X156430000Y-104227285D01*
X156477619Y-104179666D01*
X157382380Y-103703476D02*
X157382380Y-103513000D01*
X157334761Y-103417761D01*
X157287142Y-103370142D01*
X157144285Y-103274904D01*
X156953809Y-103227285D01*
X156572857Y-103227285D01*
X156477619Y-103274904D01*
X156430000Y-103322523D01*
X156382380Y-103417761D01*
X156382380Y-103608238D01*
X156430000Y-103703476D01*
X156477619Y-103751095D01*
X156572857Y-103798714D01*
X156810952Y-103798714D01*
X156906190Y-103751095D01*
X156953809Y-103703476D01*
X157001428Y-103608238D01*
X157001428Y-103417761D01*
X156953809Y-103322523D01*
X156906190Y-103274904D01*
X156810952Y-103227285D01*
G04 #@! TO.C,C10*
X137406142Y-83161142D02*
X137358523Y-83208761D01*
X137215666Y-83256380D01*
X137120428Y-83256380D01*
X136977571Y-83208761D01*
X136882333Y-83113523D01*
X136834714Y-83018285D01*
X136787095Y-82827809D01*
X136787095Y-82684952D01*
X136834714Y-82494476D01*
X136882333Y-82399238D01*
X136977571Y-82304000D01*
X137120428Y-82256380D01*
X137215666Y-82256380D01*
X137358523Y-82304000D01*
X137406142Y-82351619D01*
X138358523Y-83256380D02*
X137787095Y-83256380D01*
X138072809Y-83256380D02*
X138072809Y-82256380D01*
X137977571Y-82399238D01*
X137882333Y-82494476D01*
X137787095Y-82542095D01*
X138977571Y-82256380D02*
X139072809Y-82256380D01*
X139168047Y-82304000D01*
X139215666Y-82351619D01*
X139263285Y-82446857D01*
X139310904Y-82637333D01*
X139310904Y-82875428D01*
X139263285Y-83065904D01*
X139215666Y-83161142D01*
X139168047Y-83208761D01*
X139072809Y-83256380D01*
X138977571Y-83256380D01*
X138882333Y-83208761D01*
X138834714Y-83161142D01*
X138787095Y-83065904D01*
X138739476Y-82875428D01*
X138739476Y-82637333D01*
X138787095Y-82446857D01*
X138834714Y-82351619D01*
X138882333Y-82304000D01*
X138977571Y-82256380D01*
G04 #@! TO.C,C11*
X131753893Y-89078969D02*
X131686549Y-89078969D01*
X131551862Y-89011625D01*
X131484519Y-88944282D01*
X131417175Y-88809595D01*
X131417175Y-88674908D01*
X131450847Y-88573893D01*
X131551862Y-88405534D01*
X131652877Y-88304519D01*
X131821236Y-88203503D01*
X131922251Y-88169832D01*
X132056938Y-88169832D01*
X132191625Y-88237175D01*
X132258969Y-88304519D01*
X132326312Y-88439206D01*
X132326312Y-88506549D01*
X132359984Y-89819748D02*
X131955923Y-89415687D01*
X132157954Y-89617717D02*
X132865061Y-88910610D01*
X132696702Y-88944282D01*
X132562015Y-88944282D01*
X132461000Y-88910610D01*
X133033419Y-90493183D02*
X132629358Y-90089122D01*
X132831389Y-90291152D02*
X133538496Y-89584045D01*
X133370137Y-89617717D01*
X133235450Y-89617717D01*
X133134435Y-89584045D01*
G04 #@! TO.C,C13*
X150614142Y-87860142D02*
X150566523Y-87907761D01*
X150423666Y-87955380D01*
X150328428Y-87955380D01*
X150185571Y-87907761D01*
X150090333Y-87812523D01*
X150042714Y-87717285D01*
X149995095Y-87526809D01*
X149995095Y-87383952D01*
X150042714Y-87193476D01*
X150090333Y-87098238D01*
X150185571Y-87003000D01*
X150328428Y-86955380D01*
X150423666Y-86955380D01*
X150566523Y-87003000D01*
X150614142Y-87050619D01*
X151566523Y-87955380D02*
X150995095Y-87955380D01*
X151280809Y-87955380D02*
X151280809Y-86955380D01*
X151185571Y-87098238D01*
X151090333Y-87193476D01*
X150995095Y-87241095D01*
X151899857Y-86955380D02*
X152518904Y-86955380D01*
X152185571Y-87336333D01*
X152328428Y-87336333D01*
X152423666Y-87383952D01*
X152471285Y-87431571D01*
X152518904Y-87526809D01*
X152518904Y-87764904D01*
X152471285Y-87860142D01*
X152423666Y-87907761D01*
X152328428Y-87955380D01*
X152042714Y-87955380D01*
X151947476Y-87907761D01*
X151899857Y-87860142D01*
G04 #@! TO.C,C14*
X147964142Y-83954857D02*
X148011761Y-84002476D01*
X148059380Y-84145333D01*
X148059380Y-84240571D01*
X148011761Y-84383428D01*
X147916523Y-84478666D01*
X147821285Y-84526285D01*
X147630809Y-84573904D01*
X147487952Y-84573904D01*
X147297476Y-84526285D01*
X147202238Y-84478666D01*
X147107000Y-84383428D01*
X147059380Y-84240571D01*
X147059380Y-84145333D01*
X147107000Y-84002476D01*
X147154619Y-83954857D01*
X148059380Y-83002476D02*
X148059380Y-83573904D01*
X148059380Y-83288190D02*
X147059380Y-83288190D01*
X147202238Y-83383428D01*
X147297476Y-83478666D01*
X147345095Y-83573904D01*
X147392714Y-82145333D02*
X148059380Y-82145333D01*
X147011761Y-82383428D02*
X147726047Y-82621523D01*
X147726047Y-82002476D01*
G04 #@! TO.C,C15*
X148963142Y-83034142D02*
X148915523Y-83081761D01*
X148772666Y-83129380D01*
X148677428Y-83129380D01*
X148534571Y-83081761D01*
X148439333Y-82986523D01*
X148391714Y-82891285D01*
X148344095Y-82700809D01*
X148344095Y-82557952D01*
X148391714Y-82367476D01*
X148439333Y-82272238D01*
X148534571Y-82177000D01*
X148677428Y-82129380D01*
X148772666Y-82129380D01*
X148915523Y-82177000D01*
X148963142Y-82224619D01*
X149915523Y-83129380D02*
X149344095Y-83129380D01*
X149629809Y-83129380D02*
X149629809Y-82129380D01*
X149534571Y-82272238D01*
X149439333Y-82367476D01*
X149344095Y-82415095D01*
X150820285Y-82129380D02*
X150344095Y-82129380D01*
X150296476Y-82605571D01*
X150344095Y-82557952D01*
X150439333Y-82510333D01*
X150677428Y-82510333D01*
X150772666Y-82557952D01*
X150820285Y-82605571D01*
X150867904Y-82700809D01*
X150867904Y-82938904D01*
X150820285Y-83034142D01*
X150772666Y-83081761D01*
X150677428Y-83129380D01*
X150439333Y-83129380D01*
X150344095Y-83081761D01*
X150296476Y-83034142D01*
G04 #@! TO.C,C16*
X156710142Y-94939142D02*
X156662523Y-94986761D01*
X156519666Y-95034380D01*
X156424428Y-95034380D01*
X156281571Y-94986761D01*
X156186333Y-94891523D01*
X156138714Y-94796285D01*
X156091095Y-94605809D01*
X156091095Y-94462952D01*
X156138714Y-94272476D01*
X156186333Y-94177238D01*
X156281571Y-94082000D01*
X156424428Y-94034380D01*
X156519666Y-94034380D01*
X156662523Y-94082000D01*
X156710142Y-94129619D01*
X157662523Y-95034380D02*
X157091095Y-95034380D01*
X157376809Y-95034380D02*
X157376809Y-94034380D01*
X157281571Y-94177238D01*
X157186333Y-94272476D01*
X157091095Y-94320095D01*
X158519666Y-94034380D02*
X158329190Y-94034380D01*
X158233952Y-94082000D01*
X158186333Y-94129619D01*
X158091095Y-94272476D01*
X158043476Y-94462952D01*
X158043476Y-94843904D01*
X158091095Y-94939142D01*
X158138714Y-94986761D01*
X158233952Y-95034380D01*
X158424428Y-95034380D01*
X158519666Y-94986761D01*
X158567285Y-94939142D01*
X158614904Y-94843904D01*
X158614904Y-94605809D01*
X158567285Y-94510571D01*
X158519666Y-94462952D01*
X158424428Y-94415333D01*
X158233952Y-94415333D01*
X158138714Y-94462952D01*
X158091095Y-94510571D01*
X158043476Y-94605809D01*
G04 #@! TO.C,C17*
X156710142Y-96369142D02*
X156662523Y-96416761D01*
X156519666Y-96464380D01*
X156424428Y-96464380D01*
X156281571Y-96416761D01*
X156186333Y-96321523D01*
X156138714Y-96226285D01*
X156091095Y-96035809D01*
X156091095Y-95892952D01*
X156138714Y-95702476D01*
X156186333Y-95607238D01*
X156281571Y-95512000D01*
X156424428Y-95464380D01*
X156519666Y-95464380D01*
X156662523Y-95512000D01*
X156710142Y-95559619D01*
X157662523Y-96464380D02*
X157091095Y-96464380D01*
X157376809Y-96464380D02*
X157376809Y-95464380D01*
X157281571Y-95607238D01*
X157186333Y-95702476D01*
X157091095Y-95750095D01*
X157995857Y-95464380D02*
X158662523Y-95464380D01*
X158233952Y-96464380D01*
G04 #@! TO.C,C18*
X156202142Y-99544142D02*
X156154523Y-99591761D01*
X156011666Y-99639380D01*
X155916428Y-99639380D01*
X155773571Y-99591761D01*
X155678333Y-99496523D01*
X155630714Y-99401285D01*
X155583095Y-99210809D01*
X155583095Y-99067952D01*
X155630714Y-98877476D01*
X155678333Y-98782238D01*
X155773571Y-98687000D01*
X155916428Y-98639380D01*
X156011666Y-98639380D01*
X156154523Y-98687000D01*
X156202142Y-98734619D01*
X157154523Y-99639380D02*
X156583095Y-99639380D01*
X156868809Y-99639380D02*
X156868809Y-98639380D01*
X156773571Y-98782238D01*
X156678333Y-98877476D01*
X156583095Y-98925095D01*
X157725952Y-99067952D02*
X157630714Y-99020333D01*
X157583095Y-98972714D01*
X157535476Y-98877476D01*
X157535476Y-98829857D01*
X157583095Y-98734619D01*
X157630714Y-98687000D01*
X157725952Y-98639380D01*
X157916428Y-98639380D01*
X158011666Y-98687000D01*
X158059285Y-98734619D01*
X158106904Y-98829857D01*
X158106904Y-98877476D01*
X158059285Y-98972714D01*
X158011666Y-99020333D01*
X157916428Y-99067952D01*
X157725952Y-99067952D01*
X157630714Y-99115571D01*
X157583095Y-99163190D01*
X157535476Y-99258428D01*
X157535476Y-99448904D01*
X157583095Y-99544142D01*
X157630714Y-99591761D01*
X157725952Y-99639380D01*
X157916428Y-99639380D01*
X158011666Y-99591761D01*
X158059285Y-99544142D01*
X158106904Y-99448904D01*
X158106904Y-99258428D01*
X158059285Y-99163190D01*
X158011666Y-99115571D01*
X157916428Y-99067952D01*
G04 #@! TO.C,C19*
X165711142Y-75191857D02*
X165758761Y-75239476D01*
X165806380Y-75382333D01*
X165806380Y-75477571D01*
X165758761Y-75620428D01*
X165663523Y-75715666D01*
X165568285Y-75763285D01*
X165377809Y-75810904D01*
X165234952Y-75810904D01*
X165044476Y-75763285D01*
X164949238Y-75715666D01*
X164854000Y-75620428D01*
X164806380Y-75477571D01*
X164806380Y-75382333D01*
X164854000Y-75239476D01*
X164901619Y-75191857D01*
X165806380Y-74239476D02*
X165806380Y-74810904D01*
X165806380Y-74525190D02*
X164806380Y-74525190D01*
X164949238Y-74620428D01*
X165044476Y-74715666D01*
X165092095Y-74810904D01*
X165806380Y-73763285D02*
X165806380Y-73572809D01*
X165758761Y-73477571D01*
X165711142Y-73429952D01*
X165568285Y-73334714D01*
X165377809Y-73287095D01*
X164996857Y-73287095D01*
X164901619Y-73334714D01*
X164854000Y-73382333D01*
X164806380Y-73477571D01*
X164806380Y-73668047D01*
X164854000Y-73763285D01*
X164901619Y-73810904D01*
X164996857Y-73858523D01*
X165234952Y-73858523D01*
X165330190Y-73810904D01*
X165377809Y-73763285D01*
X165425428Y-73668047D01*
X165425428Y-73477571D01*
X165377809Y-73382333D01*
X165330190Y-73334714D01*
X165234952Y-73287095D01*
G04 #@! TO.C,C20*
X160885142Y-76588857D02*
X160932761Y-76636476D01*
X160980380Y-76779333D01*
X160980380Y-76874571D01*
X160932761Y-77017428D01*
X160837523Y-77112666D01*
X160742285Y-77160285D01*
X160551809Y-77207904D01*
X160408952Y-77207904D01*
X160218476Y-77160285D01*
X160123238Y-77112666D01*
X160028000Y-77017428D01*
X159980380Y-76874571D01*
X159980380Y-76779333D01*
X160028000Y-76636476D01*
X160075619Y-76588857D01*
X160075619Y-76207904D02*
X160028000Y-76160285D01*
X159980380Y-76065047D01*
X159980380Y-75826952D01*
X160028000Y-75731714D01*
X160075619Y-75684095D01*
X160170857Y-75636476D01*
X160266095Y-75636476D01*
X160408952Y-75684095D01*
X160980380Y-76255523D01*
X160980380Y-75636476D01*
X159980380Y-75017428D02*
X159980380Y-74922190D01*
X160028000Y-74826952D01*
X160075619Y-74779333D01*
X160170857Y-74731714D01*
X160361333Y-74684095D01*
X160599428Y-74684095D01*
X160789904Y-74731714D01*
X160885142Y-74779333D01*
X160932761Y-74826952D01*
X160980380Y-74922190D01*
X160980380Y-75017428D01*
X160932761Y-75112666D01*
X160885142Y-75160285D01*
X160789904Y-75207904D01*
X160599428Y-75255523D01*
X160361333Y-75255523D01*
X160170857Y-75207904D01*
X160075619Y-75160285D01*
X160028000Y-75112666D01*
X159980380Y-75017428D01*
G04 #@! TO.C,C21*
X160774142Y-94083142D02*
X160726523Y-94130761D01*
X160583666Y-94178380D01*
X160488428Y-94178380D01*
X160345571Y-94130761D01*
X160250333Y-94035523D01*
X160202714Y-93940285D01*
X160155095Y-93749809D01*
X160155095Y-93606952D01*
X160202714Y-93416476D01*
X160250333Y-93321238D01*
X160345571Y-93226000D01*
X160488428Y-93178380D01*
X160583666Y-93178380D01*
X160726523Y-93226000D01*
X160774142Y-93273619D01*
X161155095Y-93273619D02*
X161202714Y-93226000D01*
X161297952Y-93178380D01*
X161536047Y-93178380D01*
X161631285Y-93226000D01*
X161678904Y-93273619D01*
X161726523Y-93368857D01*
X161726523Y-93464095D01*
X161678904Y-93606952D01*
X161107476Y-94178380D01*
X161726523Y-94178380D01*
X162678904Y-94178380D02*
X162107476Y-94178380D01*
X162393190Y-94178380D02*
X162393190Y-93178380D01*
X162297952Y-93321238D01*
X162202714Y-93416476D01*
X162107476Y-93464095D01*
G04 #@! TO.C,C22*
X160774142Y-95734142D02*
X160726523Y-95781761D01*
X160583666Y-95829380D01*
X160488428Y-95829380D01*
X160345571Y-95781761D01*
X160250333Y-95686523D01*
X160202714Y-95591285D01*
X160155095Y-95400809D01*
X160155095Y-95257952D01*
X160202714Y-95067476D01*
X160250333Y-94972238D01*
X160345571Y-94877000D01*
X160488428Y-94829380D01*
X160583666Y-94829380D01*
X160726523Y-94877000D01*
X160774142Y-94924619D01*
X161155095Y-94924619D02*
X161202714Y-94877000D01*
X161297952Y-94829380D01*
X161536047Y-94829380D01*
X161631285Y-94877000D01*
X161678904Y-94924619D01*
X161726523Y-95019857D01*
X161726523Y-95115095D01*
X161678904Y-95257952D01*
X161107476Y-95829380D01*
X161726523Y-95829380D01*
X162107476Y-94924619D02*
X162155095Y-94877000D01*
X162250333Y-94829380D01*
X162488428Y-94829380D01*
X162583666Y-94877000D01*
X162631285Y-94924619D01*
X162678904Y-95019857D01*
X162678904Y-95115095D01*
X162631285Y-95257952D01*
X162059857Y-95829380D01*
X162678904Y-95829380D01*
G04 #@! TO.C,C23*
X171315142Y-88241142D02*
X171267523Y-88288761D01*
X171124666Y-88336380D01*
X171029428Y-88336380D01*
X170886571Y-88288761D01*
X170791333Y-88193523D01*
X170743714Y-88098285D01*
X170696095Y-87907809D01*
X170696095Y-87764952D01*
X170743714Y-87574476D01*
X170791333Y-87479238D01*
X170886571Y-87384000D01*
X171029428Y-87336380D01*
X171124666Y-87336380D01*
X171267523Y-87384000D01*
X171315142Y-87431619D01*
X171696095Y-87431619D02*
X171743714Y-87384000D01*
X171838952Y-87336380D01*
X172077047Y-87336380D01*
X172172285Y-87384000D01*
X172219904Y-87431619D01*
X172267523Y-87526857D01*
X172267523Y-87622095D01*
X172219904Y-87764952D01*
X171648476Y-88336380D01*
X172267523Y-88336380D01*
X172600857Y-87336380D02*
X173219904Y-87336380D01*
X172886571Y-87717333D01*
X173029428Y-87717333D01*
X173124666Y-87764952D01*
X173172285Y-87812571D01*
X173219904Y-87907809D01*
X173219904Y-88145904D01*
X173172285Y-88241142D01*
X173124666Y-88288761D01*
X173029428Y-88336380D01*
X172743714Y-88336380D01*
X172648476Y-88288761D01*
X172600857Y-88241142D01*
G04 #@! TO.C,C24*
X169791142Y-83415142D02*
X169743523Y-83462761D01*
X169600666Y-83510380D01*
X169505428Y-83510380D01*
X169362571Y-83462761D01*
X169267333Y-83367523D01*
X169219714Y-83272285D01*
X169172095Y-83081809D01*
X169172095Y-82938952D01*
X169219714Y-82748476D01*
X169267333Y-82653238D01*
X169362571Y-82558000D01*
X169505428Y-82510380D01*
X169600666Y-82510380D01*
X169743523Y-82558000D01*
X169791142Y-82605619D01*
X170172095Y-82605619D02*
X170219714Y-82558000D01*
X170314952Y-82510380D01*
X170553047Y-82510380D01*
X170648285Y-82558000D01*
X170695904Y-82605619D01*
X170743523Y-82700857D01*
X170743523Y-82796095D01*
X170695904Y-82938952D01*
X170124476Y-83510380D01*
X170743523Y-83510380D01*
X171600666Y-82843714D02*
X171600666Y-83510380D01*
X171362571Y-82462761D02*
X171124476Y-83177047D01*
X171743523Y-83177047D01*
G04 #@! TO.C,C25*
X167141142Y-102623857D02*
X167188761Y-102671476D01*
X167236380Y-102814333D01*
X167236380Y-102909571D01*
X167188761Y-103052428D01*
X167093523Y-103147666D01*
X166998285Y-103195285D01*
X166807809Y-103242904D01*
X166664952Y-103242904D01*
X166474476Y-103195285D01*
X166379238Y-103147666D01*
X166284000Y-103052428D01*
X166236380Y-102909571D01*
X166236380Y-102814333D01*
X166284000Y-102671476D01*
X166331619Y-102623857D01*
X166331619Y-102242904D02*
X166284000Y-102195285D01*
X166236380Y-102100047D01*
X166236380Y-101861952D01*
X166284000Y-101766714D01*
X166331619Y-101719095D01*
X166426857Y-101671476D01*
X166522095Y-101671476D01*
X166664952Y-101719095D01*
X167236380Y-102290523D01*
X167236380Y-101671476D01*
X166236380Y-100766714D02*
X166236380Y-101242904D01*
X166712571Y-101290523D01*
X166664952Y-101242904D01*
X166617333Y-101147666D01*
X166617333Y-100909571D01*
X166664952Y-100814333D01*
X166712571Y-100766714D01*
X166807809Y-100719095D01*
X167045904Y-100719095D01*
X167141142Y-100766714D01*
X167188761Y-100814333D01*
X167236380Y-100909571D01*
X167236380Y-101147666D01*
X167188761Y-101242904D01*
X167141142Y-101290523D01*
G04 #@! TO.C,C26*
X159582142Y-98940857D02*
X159629761Y-98988476D01*
X159677380Y-99131333D01*
X159677380Y-99226571D01*
X159629761Y-99369428D01*
X159534523Y-99464666D01*
X159439285Y-99512285D01*
X159248809Y-99559904D01*
X159105952Y-99559904D01*
X158915476Y-99512285D01*
X158820238Y-99464666D01*
X158725000Y-99369428D01*
X158677380Y-99226571D01*
X158677380Y-99131333D01*
X158725000Y-98988476D01*
X158772619Y-98940857D01*
X158772619Y-98559904D02*
X158725000Y-98512285D01*
X158677380Y-98417047D01*
X158677380Y-98178952D01*
X158725000Y-98083714D01*
X158772619Y-98036095D01*
X158867857Y-97988476D01*
X158963095Y-97988476D01*
X159105952Y-98036095D01*
X159677380Y-98607523D01*
X159677380Y-97988476D01*
X158677380Y-97131333D02*
X158677380Y-97321809D01*
X158725000Y-97417047D01*
X158772619Y-97464666D01*
X158915476Y-97559904D01*
X159105952Y-97607523D01*
X159486904Y-97607523D01*
X159582142Y-97559904D01*
X159629761Y-97512285D01*
X159677380Y-97417047D01*
X159677380Y-97226571D01*
X159629761Y-97131333D01*
X159582142Y-97083714D01*
X159486904Y-97036095D01*
X159248809Y-97036095D01*
X159153571Y-97083714D01*
X159105952Y-97131333D01*
X159058333Y-97226571D01*
X159058333Y-97417047D01*
X159105952Y-97512285D01*
X159153571Y-97559904D01*
X159248809Y-97607523D01*
G04 #@! TO.C,C27*
X147947142Y-97639142D02*
X147899523Y-97686761D01*
X147756666Y-97734380D01*
X147661428Y-97734380D01*
X147518571Y-97686761D01*
X147423333Y-97591523D01*
X147375714Y-97496285D01*
X147328095Y-97305809D01*
X147328095Y-97162952D01*
X147375714Y-96972476D01*
X147423333Y-96877238D01*
X147518571Y-96782000D01*
X147661428Y-96734380D01*
X147756666Y-96734380D01*
X147899523Y-96782000D01*
X147947142Y-96829619D01*
X148328095Y-96829619D02*
X148375714Y-96782000D01*
X148470952Y-96734380D01*
X148709047Y-96734380D01*
X148804285Y-96782000D01*
X148851904Y-96829619D01*
X148899523Y-96924857D01*
X148899523Y-97020095D01*
X148851904Y-97162952D01*
X148280476Y-97734380D01*
X148899523Y-97734380D01*
X149232857Y-96734380D02*
X149899523Y-96734380D01*
X149470952Y-97734380D01*
G04 #@! TO.C,C_SW1*
X134760534Y-97900542D02*
X134760534Y-97967886D01*
X134693190Y-98102573D01*
X134625847Y-98169916D01*
X134491160Y-98237260D01*
X134356473Y-98237260D01*
X134255458Y-98203588D01*
X134087099Y-98102573D01*
X133986084Y-98001558D01*
X133885068Y-97833199D01*
X133851397Y-97732184D01*
X133851397Y-97597497D01*
X133918740Y-97462810D01*
X133986084Y-97395466D01*
X134120771Y-97328123D01*
X134188114Y-97328123D01*
X135029908Y-97900542D02*
X135568656Y-97361794D01*
X135602328Y-97126092D02*
X135737015Y-97058749D01*
X135905374Y-96890390D01*
X135939045Y-96789375D01*
X135939045Y-96722031D01*
X135905374Y-96621016D01*
X135838030Y-96553672D01*
X135737015Y-96520001D01*
X135669671Y-96520001D01*
X135568656Y-96553672D01*
X135400297Y-96654688D01*
X135299282Y-96688359D01*
X135231938Y-96688359D01*
X135130923Y-96654688D01*
X135063580Y-96587344D01*
X135029908Y-96486329D01*
X135029908Y-96418985D01*
X135063580Y-96317970D01*
X135231938Y-96149611D01*
X135366625Y-96082268D01*
X135568656Y-95812894D02*
X136444122Y-96351642D01*
X136073732Y-95711878D01*
X136713496Y-96082268D01*
X136174748Y-95206802D01*
X137521618Y-95274146D02*
X137117557Y-95678207D01*
X137319587Y-95476176D02*
X136612480Y-94769069D01*
X136646152Y-94937428D01*
X136646152Y-95072115D01*
X136612480Y-95173130D01*
G04 #@! TO.C,C_VCP1*
X130865809Y-91543142D02*
X130818190Y-91590761D01*
X130675333Y-91638380D01*
X130580095Y-91638380D01*
X130437238Y-91590761D01*
X130342000Y-91495523D01*
X130294380Y-91400285D01*
X130246761Y-91209809D01*
X130246761Y-91066952D01*
X130294380Y-90876476D01*
X130342000Y-90781238D01*
X130437238Y-90686000D01*
X130580095Y-90638380D01*
X130675333Y-90638380D01*
X130818190Y-90686000D01*
X130865809Y-90733619D01*
X131056285Y-91733619D02*
X131818190Y-91733619D01*
X131913428Y-90638380D02*
X132246761Y-91638380D01*
X132580095Y-90638380D01*
X133484857Y-91543142D02*
X133437238Y-91590761D01*
X133294380Y-91638380D01*
X133199142Y-91638380D01*
X133056285Y-91590761D01*
X132961047Y-91495523D01*
X132913428Y-91400285D01*
X132865809Y-91209809D01*
X132865809Y-91066952D01*
X132913428Y-90876476D01*
X132961047Y-90781238D01*
X133056285Y-90686000D01*
X133199142Y-90638380D01*
X133294380Y-90638380D01*
X133437238Y-90686000D01*
X133484857Y-90733619D01*
X133913428Y-91638380D02*
X133913428Y-90638380D01*
X134294380Y-90638380D01*
X134389619Y-90686000D01*
X134437238Y-90733619D01*
X134484857Y-90828857D01*
X134484857Y-90971714D01*
X134437238Y-91066952D01*
X134389619Y-91114571D01*
X134294380Y-91162190D01*
X133913428Y-91162190D01*
X135437238Y-91638380D02*
X134865809Y-91638380D01*
X135151523Y-91638380D02*
X135151523Y-90638380D01*
X135056285Y-90781238D01*
X134961047Y-90876476D01*
X134865809Y-90924095D01*
G04 #@! TO.C,C_VDD1*
X141987084Y-84199160D02*
X141919740Y-84199160D01*
X141785053Y-84131816D01*
X141717710Y-84064473D01*
X141650366Y-83929786D01*
X141650366Y-83795099D01*
X141684038Y-83694084D01*
X141785053Y-83525725D01*
X141886068Y-83424710D01*
X142054427Y-83323694D01*
X142155442Y-83290023D01*
X142290129Y-83290023D01*
X142424816Y-83357366D01*
X142492160Y-83424710D01*
X142559503Y-83559397D01*
X142559503Y-83626740D01*
X141987084Y-84468534D02*
X142525832Y-85007282D01*
X143367625Y-84300175D02*
X142896221Y-85242984D01*
X143839030Y-84771580D01*
X143367625Y-85714389D02*
X144074732Y-85007282D01*
X144243091Y-85175641D01*
X144310435Y-85310328D01*
X144310435Y-85445015D01*
X144276763Y-85546030D01*
X144175748Y-85714389D01*
X144074732Y-85815404D01*
X143906374Y-85916419D01*
X143805358Y-85950091D01*
X143670671Y-85950091D01*
X143535984Y-85882748D01*
X143367625Y-85714389D01*
X144074732Y-86421496D02*
X144781839Y-85714389D01*
X144950198Y-85882748D01*
X145017541Y-86017435D01*
X145017541Y-86152122D01*
X144983870Y-86253137D01*
X144882854Y-86421496D01*
X144781839Y-86522511D01*
X144613480Y-86623526D01*
X144512465Y-86657198D01*
X144377778Y-86657198D01*
X144243091Y-86589854D01*
X144074732Y-86421496D01*
X145152228Y-87498992D02*
X144748167Y-87094931D01*
X144950198Y-87296961D02*
X145657305Y-86589854D01*
X145488946Y-86623526D01*
X145354259Y-86623526D01*
X145253244Y-86589854D01*
G04 #@! TO.C,C_VM1*
X130880142Y-96797619D02*
X130927761Y-96845238D01*
X130975380Y-96988095D01*
X130975380Y-97083333D01*
X130927761Y-97226190D01*
X130832523Y-97321428D01*
X130737285Y-97369047D01*
X130546809Y-97416666D01*
X130403952Y-97416666D01*
X130213476Y-97369047D01*
X130118238Y-97321428D01*
X130023000Y-97226190D01*
X129975380Y-97083333D01*
X129975380Y-96988095D01*
X130023000Y-96845238D01*
X130070619Y-96797619D01*
X131070619Y-96607142D02*
X131070619Y-95845238D01*
X129975380Y-95750000D02*
X130975380Y-95416666D01*
X129975380Y-95083333D01*
X130975380Y-94750000D02*
X129975380Y-94750000D01*
X130689666Y-94416666D01*
X129975380Y-94083333D01*
X130975380Y-94083333D01*
X130975380Y-93083333D02*
X130975380Y-93654761D01*
X130975380Y-93369047D02*
X129975380Y-93369047D01*
X130118238Y-93464285D01*
X130213476Y-93559523D01*
X130261095Y-93654761D01*
G04 #@! TO.C,C_VREF1*
X143746786Y-98566289D02*
X143746786Y-98633633D01*
X143679442Y-98768320D01*
X143612099Y-98835663D01*
X143477412Y-98903007D01*
X143342725Y-98903007D01*
X143241710Y-98869335D01*
X143073351Y-98768320D01*
X142972336Y-98667305D01*
X142871320Y-98498946D01*
X142837649Y-98397931D01*
X142837649Y-98263244D01*
X142904992Y-98128557D01*
X142972336Y-98061213D01*
X143107023Y-97993870D01*
X143174366Y-97993870D01*
X144016160Y-98566289D02*
X144554908Y-98027541D01*
X143847801Y-97185748D02*
X144790610Y-97657152D01*
X144319206Y-96714343D01*
X145666076Y-96781687D02*
X145093656Y-96680671D01*
X145262015Y-97185748D02*
X144554908Y-96478641D01*
X144824282Y-96209267D01*
X144925297Y-96175595D01*
X144992641Y-96175595D01*
X145093656Y-96209267D01*
X145194671Y-96310282D01*
X145228343Y-96411297D01*
X145228343Y-96478641D01*
X145194671Y-96579656D01*
X144925297Y-96849030D01*
X145598732Y-96108251D02*
X145834435Y-95872549D01*
X146305839Y-96141923D02*
X145969122Y-96478641D01*
X145262015Y-95771534D01*
X145598732Y-95434816D01*
X146474198Y-95232786D02*
X146238496Y-95468488D01*
X146608885Y-95838877D02*
X145901778Y-95131771D01*
X146238496Y-94795053D01*
X147585366Y-94862397D02*
X147181305Y-95266458D01*
X147383335Y-95064427D02*
X146676228Y-94357320D01*
X146709900Y-94525679D01*
X146709900Y-94660366D01*
X146676228Y-94761381D01*
G04 #@! TO.C,D1*
X135278904Y-87193380D02*
X135278904Y-86193380D01*
X135517000Y-86193380D01*
X135659857Y-86241000D01*
X135755095Y-86336238D01*
X135802714Y-86431476D01*
X135850333Y-86621952D01*
X135850333Y-86764809D01*
X135802714Y-86955285D01*
X135755095Y-87050523D01*
X135659857Y-87145761D01*
X135517000Y-87193380D01*
X135278904Y-87193380D01*
X136802714Y-87193380D02*
X136231285Y-87193380D01*
X136517000Y-87193380D02*
X136517000Y-86193380D01*
X136421761Y-86336238D01*
X136326523Y-86431476D01*
X136231285Y-86479095D01*
G04 #@! TO.C,J2*
X128440380Y-74628333D02*
X129154666Y-74628333D01*
X129297523Y-74675952D01*
X129392761Y-74771190D01*
X129440380Y-74914047D01*
X129440380Y-75009285D01*
X128535619Y-74199761D02*
X128488000Y-74152142D01*
X128440380Y-74056904D01*
X128440380Y-73818809D01*
X128488000Y-73723571D01*
X128535619Y-73675952D01*
X128630857Y-73628333D01*
X128726095Y-73628333D01*
X128868952Y-73675952D01*
X129440380Y-74247380D01*
X129440380Y-73628333D01*
G04 #@! TO.C,J3*
X171624666Y-107529380D02*
X171624666Y-108243666D01*
X171577047Y-108386523D01*
X171481809Y-108481761D01*
X171338952Y-108529380D01*
X171243714Y-108529380D01*
X172005619Y-107529380D02*
X172624666Y-107529380D01*
X172291333Y-107910333D01*
X172434190Y-107910333D01*
X172529428Y-107957952D01*
X172577047Y-108005571D01*
X172624666Y-108100809D01*
X172624666Y-108338904D01*
X172577047Y-108434142D01*
X172529428Y-108481761D01*
X172434190Y-108529380D01*
X172148476Y-108529380D01*
X172053238Y-108481761D01*
X172005619Y-108434142D01*
G04 #@! TO.C,J7*
X153971666Y-72985380D02*
X153971666Y-73699666D01*
X153924047Y-73842523D01*
X153828809Y-73937761D01*
X153685952Y-73985380D01*
X153590714Y-73985380D01*
X154352619Y-72985380D02*
X155019285Y-72985380D01*
X154590714Y-73985380D01*
G04 #@! TO.C,J8*
X171243666Y-91781380D02*
X171243666Y-92495666D01*
X171196047Y-92638523D01*
X171100809Y-92733761D01*
X170957952Y-92781380D01*
X170862714Y-92781380D01*
X171862714Y-92209952D02*
X171767476Y-92162333D01*
X171719857Y-92114714D01*
X171672238Y-92019476D01*
X171672238Y-91971857D01*
X171719857Y-91876619D01*
X171767476Y-91829000D01*
X171862714Y-91781380D01*
X172053190Y-91781380D01*
X172148428Y-91829000D01*
X172196047Y-91876619D01*
X172243666Y-91971857D01*
X172243666Y-92019476D01*
X172196047Y-92114714D01*
X172148428Y-92162333D01*
X172053190Y-92209952D01*
X171862714Y-92209952D01*
X171767476Y-92257571D01*
X171719857Y-92305190D01*
X171672238Y-92400428D01*
X171672238Y-92590904D01*
X171719857Y-92686142D01*
X171767476Y-92733761D01*
X171862714Y-92781380D01*
X172053190Y-92781380D01*
X172148428Y-92733761D01*
X172196047Y-92686142D01*
X172243666Y-92590904D01*
X172243666Y-92400428D01*
X172196047Y-92305190D01*
X172148428Y-92257571D01*
X172053190Y-92209952D01*
G04 #@! TO.C,L2*
X153757333Y-93383380D02*
X153281142Y-93383380D01*
X153281142Y-92383380D01*
X154043047Y-92478619D02*
X154090666Y-92431000D01*
X154185904Y-92383380D01*
X154424000Y-92383380D01*
X154519238Y-92431000D01*
X154566857Y-92478619D01*
X154614476Y-92573857D01*
X154614476Y-92669095D01*
X154566857Y-92811952D01*
X153995428Y-93383380D01*
X154614476Y-93383380D01*
G04 #@! TO.C,Q1*
X129990154Y-115259483D02*
X129894916Y-115211864D01*
X129799678Y-115116625D01*
X129656821Y-114973768D01*
X129561583Y-114926149D01*
X129466345Y-114926149D01*
X129513964Y-115164244D02*
X129418726Y-115116625D01*
X129323488Y-115021387D01*
X129275869Y-114830911D01*
X129275869Y-114497578D01*
X129323488Y-114307102D01*
X129418726Y-114211864D01*
X129513964Y-114164244D01*
X129704440Y-114164244D01*
X129799678Y-114211864D01*
X129894916Y-114307102D01*
X129942535Y-114497578D01*
X129942535Y-114830911D01*
X129894916Y-115021387D01*
X129799678Y-115116625D01*
X129704440Y-115164244D01*
X129513964Y-115164244D01*
X130894916Y-115164244D02*
X130323488Y-115164244D01*
X130609202Y-115164244D02*
X130609202Y-114164244D01*
X130513964Y-114307102D01*
X130418726Y-114402340D01*
X130323488Y-114449959D01*
G04 #@! TO.C,Q3*
X151990154Y-115259483D02*
X151894916Y-115211864D01*
X151799678Y-115116625D01*
X151656821Y-114973768D01*
X151561583Y-114926149D01*
X151466345Y-114926149D01*
X151513964Y-115164244D02*
X151418726Y-115116625D01*
X151323488Y-115021387D01*
X151275869Y-114830911D01*
X151275869Y-114497578D01*
X151323488Y-114307102D01*
X151418726Y-114211864D01*
X151513964Y-114164244D01*
X151704440Y-114164244D01*
X151799678Y-114211864D01*
X151894916Y-114307102D01*
X151942535Y-114497578D01*
X151942535Y-114830911D01*
X151894916Y-115021387D01*
X151799678Y-115116625D01*
X151704440Y-115164244D01*
X151513964Y-115164244D01*
X152275869Y-114164244D02*
X152894916Y-114164244D01*
X152561583Y-114545197D01*
X152704440Y-114545197D01*
X152799678Y-114592816D01*
X152847297Y-114640435D01*
X152894916Y-114735673D01*
X152894916Y-114973768D01*
X152847297Y-115069006D01*
X152799678Y-115116625D01*
X152704440Y-115164244D01*
X152418726Y-115164244D01*
X152323488Y-115116625D01*
X152275869Y-115069006D01*
G04 #@! TO.C,Q4*
X142906761Y-107227619D02*
X142811523Y-107180000D01*
X142716285Y-107084761D01*
X142573428Y-106941904D01*
X142478190Y-106894285D01*
X142382952Y-106894285D01*
X142430571Y-107132380D02*
X142335333Y-107084761D01*
X142240095Y-106989523D01*
X142192476Y-106799047D01*
X142192476Y-106465714D01*
X142240095Y-106275238D01*
X142335333Y-106180000D01*
X142430571Y-106132380D01*
X142621047Y-106132380D01*
X142716285Y-106180000D01*
X142811523Y-106275238D01*
X142859142Y-106465714D01*
X142859142Y-106799047D01*
X142811523Y-106989523D01*
X142716285Y-107084761D01*
X142621047Y-107132380D01*
X142430571Y-107132380D01*
X143716285Y-106465714D02*
X143716285Y-107132380D01*
X143478190Y-106084761D02*
X143240095Y-106799047D01*
X143859142Y-106799047D01*
G04 #@! TO.C,Q5*
X159990154Y-115259483D02*
X159894916Y-115211864D01*
X159799678Y-115116625D01*
X159656821Y-114973768D01*
X159561583Y-114926149D01*
X159466345Y-114926149D01*
X159513964Y-115164244D02*
X159418726Y-115116625D01*
X159323488Y-115021387D01*
X159275869Y-114830911D01*
X159275869Y-114497578D01*
X159323488Y-114307102D01*
X159418726Y-114211864D01*
X159513964Y-114164244D01*
X159704440Y-114164244D01*
X159799678Y-114211864D01*
X159894916Y-114307102D01*
X159942535Y-114497578D01*
X159942535Y-114830911D01*
X159894916Y-115021387D01*
X159799678Y-115116625D01*
X159704440Y-115164244D01*
X159513964Y-115164244D01*
X160847297Y-114164244D02*
X160371107Y-114164244D01*
X160323488Y-114640435D01*
X160371107Y-114592816D01*
X160466345Y-114545197D01*
X160704440Y-114545197D01*
X160799678Y-114592816D01*
X160847297Y-114640435D01*
X160894916Y-114735673D01*
X160894916Y-114973768D01*
X160847297Y-115069006D01*
X160799678Y-115116625D01*
X160704440Y-115164244D01*
X160466345Y-115164244D01*
X160371107Y-115116625D01*
X160323488Y-115069006D01*
G04 #@! TO.C,Q6*
X167117154Y-107226483D02*
X167021916Y-107178864D01*
X166926678Y-107083625D01*
X166783821Y-106940768D01*
X166688583Y-106893149D01*
X166593345Y-106893149D01*
X166640964Y-107131244D02*
X166545726Y-107083625D01*
X166450488Y-106988387D01*
X166402869Y-106797911D01*
X166402869Y-106464578D01*
X166450488Y-106274102D01*
X166545726Y-106178864D01*
X166640964Y-106131244D01*
X166831440Y-106131244D01*
X166926678Y-106178864D01*
X167021916Y-106274102D01*
X167069535Y-106464578D01*
X167069535Y-106797911D01*
X167021916Y-106988387D01*
X166926678Y-107083625D01*
X166831440Y-107131244D01*
X166640964Y-107131244D01*
X167926678Y-106131244D02*
X167736202Y-106131244D01*
X167640964Y-106178864D01*
X167593345Y-106226483D01*
X167498107Y-106369340D01*
X167450488Y-106559816D01*
X167450488Y-106940768D01*
X167498107Y-107036006D01*
X167545726Y-107083625D01*
X167640964Y-107131244D01*
X167831440Y-107131244D01*
X167926678Y-107083625D01*
X167974297Y-107036006D01*
X168021916Y-106940768D01*
X168021916Y-106702673D01*
X167974297Y-106607435D01*
X167926678Y-106559816D01*
X167831440Y-106512197D01*
X167640964Y-106512197D01*
X167545726Y-106559816D01*
X167498107Y-106607435D01*
X167450488Y-106702673D01*
G04 #@! TO.C,R1*
X135881380Y-103036666D02*
X135405190Y-103370000D01*
X135881380Y-103608095D02*
X134881380Y-103608095D01*
X134881380Y-103227142D01*
X134929000Y-103131904D01*
X134976619Y-103084285D01*
X135071857Y-103036666D01*
X135214714Y-103036666D01*
X135309952Y-103084285D01*
X135357571Y-103131904D01*
X135405190Y-103227142D01*
X135405190Y-103608095D01*
X135881380Y-102084285D02*
X135881380Y-102655714D01*
X135881380Y-102370000D02*
X134881380Y-102370000D01*
X135024238Y-102465238D01*
X135119476Y-102560476D01*
X135167095Y-102655714D01*
G04 #@! TO.C,R2*
X144009380Y-103036666D02*
X143533190Y-103370000D01*
X144009380Y-103608095D02*
X143009380Y-103608095D01*
X143009380Y-103227142D01*
X143057000Y-103131904D01*
X143104619Y-103084285D01*
X143199857Y-103036666D01*
X143342714Y-103036666D01*
X143437952Y-103084285D01*
X143485571Y-103131904D01*
X143533190Y-103227142D01*
X143533190Y-103608095D01*
X143104619Y-102655714D02*
X143057000Y-102608095D01*
X143009380Y-102512857D01*
X143009380Y-102274761D01*
X143057000Y-102179523D01*
X143104619Y-102131904D01*
X143199857Y-102084285D01*
X143295095Y-102084285D01*
X143437952Y-102131904D01*
X144009380Y-102703333D01*
X144009380Y-102084285D01*
G04 #@! TO.C,R3*
X142581333Y-79827380D02*
X142248000Y-79351190D01*
X142009904Y-79827380D02*
X142009904Y-78827380D01*
X142390857Y-78827380D01*
X142486095Y-78875000D01*
X142533714Y-78922619D01*
X142581333Y-79017857D01*
X142581333Y-79160714D01*
X142533714Y-79255952D01*
X142486095Y-79303571D01*
X142390857Y-79351190D01*
X142009904Y-79351190D01*
X142914666Y-78827380D02*
X143533714Y-78827380D01*
X143200380Y-79208333D01*
X143343238Y-79208333D01*
X143438476Y-79255952D01*
X143486095Y-79303571D01*
X143533714Y-79398809D01*
X143533714Y-79636904D01*
X143486095Y-79732142D01*
X143438476Y-79779761D01*
X143343238Y-79827380D01*
X143057523Y-79827380D01*
X142962285Y-79779761D01*
X142914666Y-79732142D01*
G04 #@! TO.C,R4*
X145232380Y-79160666D02*
X144756190Y-79494000D01*
X145232380Y-79732095D02*
X144232380Y-79732095D01*
X144232380Y-79351142D01*
X144280000Y-79255904D01*
X144327619Y-79208285D01*
X144422857Y-79160666D01*
X144565714Y-79160666D01*
X144660952Y-79208285D01*
X144708571Y-79255904D01*
X144756190Y-79351142D01*
X144756190Y-79732095D01*
X144565714Y-78303523D02*
X145232380Y-78303523D01*
X144184761Y-78541619D02*
X144899047Y-78779714D01*
X144899047Y-78160666D01*
G04 #@! TO.C,R5*
X148423333Y-79827380D02*
X148090000Y-79351190D01*
X147851904Y-79827380D02*
X147851904Y-78827380D01*
X148232857Y-78827380D01*
X148328095Y-78875000D01*
X148375714Y-78922619D01*
X148423333Y-79017857D01*
X148423333Y-79160714D01*
X148375714Y-79255952D01*
X148328095Y-79303571D01*
X148232857Y-79351190D01*
X147851904Y-79351190D01*
X149328095Y-78827380D02*
X148851904Y-78827380D01*
X148804285Y-79303571D01*
X148851904Y-79255952D01*
X148947142Y-79208333D01*
X149185238Y-79208333D01*
X149280476Y-79255952D01*
X149328095Y-79303571D01*
X149375714Y-79398809D01*
X149375714Y-79636904D01*
X149328095Y-79732142D01*
X149280476Y-79779761D01*
X149185238Y-79827380D01*
X148947142Y-79827380D01*
X148851904Y-79779761D01*
X148804285Y-79732142D01*
G04 #@! TO.C,R6*
X155344833Y-75509380D02*
X155011500Y-75033190D01*
X154773404Y-75509380D02*
X154773404Y-74509380D01*
X155154357Y-74509380D01*
X155249595Y-74557000D01*
X155297214Y-74604619D01*
X155344833Y-74699857D01*
X155344833Y-74842714D01*
X155297214Y-74937952D01*
X155249595Y-74985571D01*
X155154357Y-75033190D01*
X154773404Y-75033190D01*
X156201976Y-74509380D02*
X156011500Y-74509380D01*
X155916261Y-74557000D01*
X155868642Y-74604619D01*
X155773404Y-74747476D01*
X155725785Y-74937952D01*
X155725785Y-75318904D01*
X155773404Y-75414142D01*
X155821023Y-75461761D01*
X155916261Y-75509380D01*
X156106738Y-75509380D01*
X156201976Y-75461761D01*
X156249595Y-75414142D01*
X156297214Y-75318904D01*
X156297214Y-75080809D01*
X156249595Y-74985571D01*
X156201976Y-74937952D01*
X156106738Y-74890333D01*
X155916261Y-74890333D01*
X155821023Y-74937952D01*
X155773404Y-74985571D01*
X155725785Y-75080809D01*
G04 #@! TO.C,R7*
X153503333Y-96685380D02*
X153170000Y-96209190D01*
X152931904Y-96685380D02*
X152931904Y-95685380D01*
X153312857Y-95685380D01*
X153408095Y-95733000D01*
X153455714Y-95780619D01*
X153503333Y-95875857D01*
X153503333Y-96018714D01*
X153455714Y-96113952D01*
X153408095Y-96161571D01*
X153312857Y-96209190D01*
X152931904Y-96209190D01*
X153836666Y-95685380D02*
X154503333Y-95685380D01*
X154074761Y-96685380D01*
G04 #@! TO.C,R8*
X158186380Y-74588666D02*
X157710190Y-74922000D01*
X158186380Y-75160095D02*
X157186380Y-75160095D01*
X157186380Y-74779142D01*
X157234000Y-74683904D01*
X157281619Y-74636285D01*
X157376857Y-74588666D01*
X157519714Y-74588666D01*
X157614952Y-74636285D01*
X157662571Y-74683904D01*
X157710190Y-74779142D01*
X157710190Y-75160095D01*
X157614952Y-74017238D02*
X157567333Y-74112476D01*
X157519714Y-74160095D01*
X157424476Y-74207714D01*
X157376857Y-74207714D01*
X157281619Y-74160095D01*
X157234000Y-74112476D01*
X157186380Y-74017238D01*
X157186380Y-73826761D01*
X157234000Y-73731523D01*
X157281619Y-73683904D01*
X157376857Y-73636285D01*
X157424476Y-73636285D01*
X157519714Y-73683904D01*
X157567333Y-73731523D01*
X157614952Y-73826761D01*
X157614952Y-74017238D01*
X157662571Y-74112476D01*
X157710190Y-74160095D01*
X157805428Y-74207714D01*
X157995904Y-74207714D01*
X158091142Y-74160095D01*
X158138761Y-74112476D01*
X158186380Y-74017238D01*
X158186380Y-73826761D01*
X158138761Y-73731523D01*
X158091142Y-73683904D01*
X157995904Y-73636285D01*
X157805428Y-73636285D01*
X157710190Y-73683904D01*
X157662571Y-73731523D01*
X157614952Y-73826761D01*
G04 #@! TO.C,R9*
X166838333Y-96083380D02*
X166505000Y-95607190D01*
X166266904Y-96083380D02*
X166266904Y-95083380D01*
X166647857Y-95083380D01*
X166743095Y-95131000D01*
X166790714Y-95178619D01*
X166838333Y-95273857D01*
X166838333Y-95416714D01*
X166790714Y-95511952D01*
X166743095Y-95559571D01*
X166647857Y-95607190D01*
X166266904Y-95607190D01*
X167314523Y-96083380D02*
X167505000Y-96083380D01*
X167600238Y-96035761D01*
X167647857Y-95988142D01*
X167743095Y-95845285D01*
X167790714Y-95654809D01*
X167790714Y-95273857D01*
X167743095Y-95178619D01*
X167695476Y-95131000D01*
X167600238Y-95083380D01*
X167409761Y-95083380D01*
X167314523Y-95131000D01*
X167266904Y-95178619D01*
X167219285Y-95273857D01*
X167219285Y-95511952D01*
X167266904Y-95607190D01*
X167314523Y-95654809D01*
X167409761Y-95702428D01*
X167600238Y-95702428D01*
X167695476Y-95654809D01*
X167743095Y-95607190D01*
X167790714Y-95511952D01*
G04 #@! TO.C,R_FB1*
X126055380Y-89614190D02*
X125579190Y-89947523D01*
X126055380Y-90185619D02*
X125055380Y-90185619D01*
X125055380Y-89804666D01*
X125103000Y-89709428D01*
X125150619Y-89661809D01*
X125245857Y-89614190D01*
X125388714Y-89614190D01*
X125483952Y-89661809D01*
X125531571Y-89709428D01*
X125579190Y-89804666D01*
X125579190Y-90185619D01*
X126150619Y-89423714D02*
X126150619Y-88661809D01*
X125531571Y-88090380D02*
X125531571Y-88423714D01*
X126055380Y-88423714D02*
X125055380Y-88423714D01*
X125055380Y-87947523D01*
X125531571Y-87233238D02*
X125579190Y-87090380D01*
X125626809Y-87042761D01*
X125722047Y-86995142D01*
X125864904Y-86995142D01*
X125960142Y-87042761D01*
X126007761Y-87090380D01*
X126055380Y-87185619D01*
X126055380Y-87566571D01*
X125055380Y-87566571D01*
X125055380Y-87233238D01*
X125103000Y-87138000D01*
X125150619Y-87090380D01*
X125245857Y-87042761D01*
X125341095Y-87042761D01*
X125436333Y-87090380D01*
X125483952Y-87138000D01*
X125531571Y-87233238D01*
X125531571Y-87566571D01*
X126055380Y-86042761D02*
X126055380Y-86614190D01*
X126055380Y-86328476D02*
X125055380Y-86328476D01*
X125198238Y-86423714D01*
X125293476Y-86518952D01*
X125341095Y-86614190D01*
G04 #@! TO.C,R_FB2*
X127452380Y-89614190D02*
X126976190Y-89947523D01*
X127452380Y-90185619D02*
X126452380Y-90185619D01*
X126452380Y-89804666D01*
X126500000Y-89709428D01*
X126547619Y-89661809D01*
X126642857Y-89614190D01*
X126785714Y-89614190D01*
X126880952Y-89661809D01*
X126928571Y-89709428D01*
X126976190Y-89804666D01*
X126976190Y-90185619D01*
X127547619Y-89423714D02*
X127547619Y-88661809D01*
X126928571Y-88090380D02*
X126928571Y-88423714D01*
X127452380Y-88423714D02*
X126452380Y-88423714D01*
X126452380Y-87947523D01*
X126928571Y-87233238D02*
X126976190Y-87090380D01*
X127023809Y-87042761D01*
X127119047Y-86995142D01*
X127261904Y-86995142D01*
X127357142Y-87042761D01*
X127404761Y-87090380D01*
X127452380Y-87185619D01*
X127452380Y-87566571D01*
X126452380Y-87566571D01*
X126452380Y-87233238D01*
X126500000Y-87138000D01*
X126547619Y-87090380D01*
X126642857Y-87042761D01*
X126738095Y-87042761D01*
X126833333Y-87090380D01*
X126880952Y-87138000D01*
X126928571Y-87233238D01*
X126928571Y-87566571D01*
X126547619Y-86614190D02*
X126500000Y-86566571D01*
X126452380Y-86471333D01*
X126452380Y-86233238D01*
X126500000Y-86138000D01*
X126547619Y-86090380D01*
X126642857Y-86042761D01*
X126738095Y-86042761D01*
X126880952Y-86090380D01*
X127452380Y-86661809D01*
X127452380Y-86042761D01*
G04 #@! TO.C,R_PU1*
X148936950Y-90521713D02*
X149037965Y-89949294D01*
X148532889Y-90117652D02*
X149239996Y-89410546D01*
X149509370Y-89679920D01*
X149543042Y-89780935D01*
X149543042Y-89848278D01*
X149509370Y-89949294D01*
X149408355Y-90050309D01*
X149307339Y-90083981D01*
X149239996Y-90083981D01*
X149138981Y-90050309D01*
X148869607Y-89780935D01*
X149004294Y-90723744D02*
X149543042Y-91262492D01*
X149778744Y-91363507D02*
X150485851Y-90656400D01*
X150755225Y-90925774D01*
X150788896Y-91026790D01*
X150788896Y-91094133D01*
X150755225Y-91195148D01*
X150654209Y-91296164D01*
X150553194Y-91329835D01*
X150485851Y-91329835D01*
X150384835Y-91296164D01*
X150115461Y-91026790D01*
X151192957Y-91363507D02*
X150620538Y-91935927D01*
X150586866Y-92036942D01*
X150586866Y-92104286D01*
X150620538Y-92205301D01*
X150755225Y-92339988D01*
X150856240Y-92373660D01*
X150923583Y-92373660D01*
X151024599Y-92339988D01*
X151597018Y-91767568D01*
X151597018Y-93181782D02*
X151192957Y-92777721D01*
X151394988Y-92979751D02*
X152102095Y-92272644D01*
X151933736Y-92306316D01*
X151799049Y-92306316D01*
X151698034Y-92272644D01*
G04 #@! TO.C,R_PU2*
X147158950Y-86711713D02*
X147259965Y-86139294D01*
X146754889Y-86307652D02*
X147461996Y-85600546D01*
X147731370Y-85869920D01*
X147765042Y-85970935D01*
X147765042Y-86038278D01*
X147731370Y-86139294D01*
X147630355Y-86240309D01*
X147529339Y-86273981D01*
X147461996Y-86273981D01*
X147360981Y-86240309D01*
X147091607Y-85970935D01*
X147226294Y-86913744D02*
X147765042Y-87452492D01*
X148000744Y-87553507D02*
X148707851Y-86846400D01*
X148977225Y-87115774D01*
X149010896Y-87216790D01*
X149010896Y-87284133D01*
X148977225Y-87385148D01*
X148876209Y-87486164D01*
X148775194Y-87519835D01*
X148707851Y-87519835D01*
X148606835Y-87486164D01*
X148337461Y-87216790D01*
X149414957Y-87553507D02*
X148842538Y-88125927D01*
X148808866Y-88226942D01*
X148808866Y-88294286D01*
X148842538Y-88395301D01*
X148977225Y-88529988D01*
X149078240Y-88563660D01*
X149145583Y-88563660D01*
X149246599Y-88529988D01*
X149819018Y-87957568D01*
X150054721Y-88327957D02*
X150122064Y-88327957D01*
X150223079Y-88361629D01*
X150391438Y-88529988D01*
X150425110Y-88631003D01*
X150425110Y-88698347D01*
X150391438Y-88799362D01*
X150324095Y-88866705D01*
X150189408Y-88934049D01*
X149381286Y-88934049D01*
X149819018Y-89371782D01*
G04 #@! TO.C,U1*
X133985095Y-76562380D02*
X133985095Y-77371904D01*
X134032714Y-77467142D01*
X134080333Y-77514761D01*
X134175571Y-77562380D01*
X134366047Y-77562380D01*
X134461285Y-77514761D01*
X134508904Y-77467142D01*
X134556523Y-77371904D01*
X134556523Y-76562380D01*
X135556523Y-77562380D02*
X134985095Y-77562380D01*
X135270809Y-77562380D02*
X135270809Y-76562380D01*
X135175571Y-76705238D01*
X135080333Y-76800476D01*
X134985095Y-76848095D01*
G04 #@! TO.C,U3*
X166751095Y-76287380D02*
X166751095Y-77096904D01*
X166798714Y-77192142D01*
X166846333Y-77239761D01*
X166941571Y-77287380D01*
X167132047Y-77287380D01*
X167227285Y-77239761D01*
X167274904Y-77192142D01*
X167322523Y-77096904D01*
X167322523Y-76287380D01*
X167703476Y-76287380D02*
X168322523Y-76287380D01*
X167989190Y-76668333D01*
X168132047Y-76668333D01*
X168227285Y-76715952D01*
X168274904Y-76763571D01*
X168322523Y-76858809D01*
X168322523Y-77096904D01*
X168274904Y-77192142D01*
X168227285Y-77239761D01*
X168132047Y-77287380D01*
X167846333Y-77287380D01*
X167751095Y-77239761D01*
X167703476Y-77192142D01*
G04 #@! TO.C,U4*
X163449095Y-95083380D02*
X163449095Y-95892904D01*
X163496714Y-95988142D01*
X163544333Y-96035761D01*
X163639571Y-96083380D01*
X163830047Y-96083380D01*
X163925285Y-96035761D01*
X163972904Y-95988142D01*
X164020523Y-95892904D01*
X164020523Y-95083380D01*
X164925285Y-95416714D02*
X164925285Y-96083380D01*
X164687190Y-95035761D02*
X164449095Y-95750047D01*
X165068142Y-95750047D01*
G04 #@! TO.C,TP1*
X169299095Y-78410380D02*
X169870523Y-78410380D01*
X169584809Y-79410380D02*
X169584809Y-78410380D01*
X170203857Y-79410380D02*
X170203857Y-78410380D01*
X170584809Y-78410380D01*
X170680047Y-78458000D01*
X170727666Y-78505619D01*
X170775285Y-78600857D01*
X170775285Y-78743714D01*
X170727666Y-78838952D01*
X170680047Y-78886571D01*
X170584809Y-78934190D01*
X170203857Y-78934190D01*
X171727666Y-79410380D02*
X171156238Y-79410380D01*
X171441952Y-79410380D02*
X171441952Y-78410380D01*
X171346714Y-78553238D01*
X171251476Y-78648476D01*
X171156238Y-78696095D01*
G04 #@! TO.C,C12*
X128246142Y-84462857D02*
X128293761Y-84510476D01*
X128341380Y-84653333D01*
X128341380Y-84748571D01*
X128293761Y-84891428D01*
X128198523Y-84986666D01*
X128103285Y-85034285D01*
X127912809Y-85081904D01*
X127769952Y-85081904D01*
X127579476Y-85034285D01*
X127484238Y-84986666D01*
X127389000Y-84891428D01*
X127341380Y-84748571D01*
X127341380Y-84653333D01*
X127389000Y-84510476D01*
X127436619Y-84462857D01*
X128341380Y-83510476D02*
X128341380Y-84081904D01*
X128341380Y-83796190D02*
X127341380Y-83796190D01*
X127484238Y-83891428D01*
X127579476Y-83986666D01*
X127627095Y-84081904D01*
X127436619Y-83129523D02*
X127389000Y-83081904D01*
X127341380Y-82986666D01*
X127341380Y-82748571D01*
X127389000Y-82653333D01*
X127436619Y-82605714D01*
X127531857Y-82558095D01*
X127627095Y-82558095D01*
X127769952Y-82605714D01*
X128341380Y-83177142D01*
X128341380Y-82558095D01*
G04 #@! TO.C,L1*
X128230333Y-81605380D02*
X127754142Y-81605380D01*
X127754142Y-80605380D01*
X129087476Y-81605380D02*
X128516047Y-81605380D01*
X128801761Y-81605380D02*
X128801761Y-80605380D01*
X128706523Y-80748238D01*
X128611285Y-80843476D01*
X128516047Y-80891095D01*
G04 #@! TO.C,J4*
X132254666Y-118070380D02*
X132254666Y-118784666D01*
X132207047Y-118927523D01*
X132111809Y-119022761D01*
X131968952Y-119070380D01*
X131873714Y-119070380D01*
X133159428Y-118403714D02*
X133159428Y-119070380D01*
X132921333Y-118022761D02*
X132683238Y-118737047D01*
X133302285Y-118737047D01*
G04 #@! TO.C,J5*
X144827666Y-118070380D02*
X144827666Y-118784666D01*
X144780047Y-118927523D01*
X144684809Y-119022761D01*
X144541952Y-119070380D01*
X144446714Y-119070380D01*
X145780047Y-118070380D02*
X145303857Y-118070380D01*
X145256238Y-118546571D01*
X145303857Y-118498952D01*
X145399095Y-118451333D01*
X145637190Y-118451333D01*
X145732428Y-118498952D01*
X145780047Y-118546571D01*
X145827666Y-118641809D01*
X145827666Y-118879904D01*
X145780047Y-118975142D01*
X145732428Y-119022761D01*
X145637190Y-119070380D01*
X145399095Y-119070380D01*
X145303857Y-119022761D01*
X145256238Y-118975142D01*
G04 #@! TO.C,J6*
X157400666Y-118070380D02*
X157400666Y-118784666D01*
X157353047Y-118927523D01*
X157257809Y-119022761D01*
X157114952Y-119070380D01*
X157019714Y-119070380D01*
X158305428Y-118070380D02*
X158114952Y-118070380D01*
X158019714Y-118118000D01*
X157972095Y-118165619D01*
X157876857Y-118308476D01*
X157829238Y-118498952D01*
X157829238Y-118879904D01*
X157876857Y-118975142D01*
X157924476Y-119022761D01*
X158019714Y-119070380D01*
X158210190Y-119070380D01*
X158305428Y-119022761D01*
X158353047Y-118975142D01*
X158400666Y-118879904D01*
X158400666Y-118641809D01*
X158353047Y-118546571D01*
X158305428Y-118498952D01*
X158210190Y-118451333D01*
X158019714Y-118451333D01*
X157924476Y-118498952D01*
X157876857Y-118546571D01*
X157829238Y-118641809D01*
G04 #@! TO.C,J1*
X127976380Y-95202333D02*
X128690666Y-95202333D01*
X128833523Y-95249952D01*
X128928761Y-95345190D01*
X128976380Y-95488047D01*
X128976380Y-95583285D01*
X128976380Y-94202333D02*
X128976380Y-94773761D01*
X128976380Y-94488047D02*
X127976380Y-94488047D01*
X128119238Y-94583285D01*
X128214476Y-94678523D01*
X128262095Y-94773761D01*
G04 #@! TD*
M02*
